<?xml version="1.0" encoding="utf-8"?>
<!-- Generator: Adobe Illustrator 16.0.0, SVG Export Plug-In . SVG Version: 6.00 Build 0)  -->
<!DOCTYPE svg PUBLIC "-//W3C//DTD SVG 1.1//EN" "http://www.w3.org/Graphics/SVG/1.1/DTD/svg11.dtd">
<svg version="1.1" id="Calque_1" xmlns="http://www.w3.org/2000/svg" xmlns:xlink="http://www.w3.org/1999/xlink" x="0px" y="0px"
	 width="80px" height="80px" viewBox="0 0 80 80" enable-background="new 0 0 80 80" xml:space="preserve">
<path fill="#FFFFFF" d="M13.765,16.74L39.884,5.92L65.74,16.74c0,0,6.641,37.065-25.779,59.289
	C39.962,76.028,12.059,62.197,13.765,16.74z"/>
<g>
	<path d="M19.073,29.062v-0.235l0.186-0.519l0.81-1.828c0.102-0.233,0.202-0.47,0.277-0.714c0.104-0.333,0.04-0.67-0.028-1.001
		c-0.07-0.349-0.065-0.684,0.095-1.01l0.071-0.21l-0.033,0.012l-0.104-0.167c-0.042-0.227-0.082-0.456-0.097-0.685
		c-0.031-0.492,0.038-0.979,0.113-1.465c0.143-0.94,0.5-1.8,1.018-2.597c0.09-0.138,0.167-0.288,0.229-0.442l0.303-0.818
		c0.144-0.393,0.38-0.712,0.734-0.94l0.419-0.273l0.817-0.542l0.121-0.097l0.112,0.144c0.18,0.209,0.326,0.243,0.573,0.119
		l0.407-0.232c0.265-0.136,0.524-0.285,0.799-0.395c0.298-0.119,0.604-0.161,0.917-0.004c0.27,0.134,0.298,0.112,0.452-0.147
		c0.063-0.105,0.13-0.216,0.254-0.246c0.2-0.048,0.401-0.083,0.605-0.11c0.102-0.014,0.189,0.03,0.252,0.125
		c0.08,0.118,0.201,0.179,0.343,0.19l0.265-0.011c0.253-0.039,0.501-0.032,0.746,0.052l0.528,0.163
		c0.187,0.053,0.381,0.1,0.566,0.032c0.263-0.093,0.508-0.053,0.738,0.075c0.241,0.134,0.474,0.285,0.703,0.44
		c0.14,0.096,0.288,0.132,0.452,0.121l0.276-0.025l0.299,0.052c0.074,0.02,0.09,0.085,0.07,0.157l-0.063,0.192
		c-0.036,0.096-0.018,0.175,0.068,0.232c0.331,0.22,0.584,0.52,0.856,0.799c0.215,0.222,0.454,0.408,0.744,0.523l0.524,0.235
		c0.166,0.074,0.168,0.081,0.095,0.243l-0.091,0.226c-0.038,0.136,0.042,0.207,0.177,0.163l0.124-0.06
		c0.155-0.088,0.238-0.047,0.24,0.133c0.002,0.137,0.002,0.283-0.035,0.412c-0.068,0.232-0.019,0.433,0.125,0.61l0.472,0.538
		l0.205,0.241c0.086,0.124,0.071,0.243-0.031,0.349l-0.185,0.161c-0.207,0.171-0.218,0.25-0.058,0.462l0.181,0.21l0.225,0.248
		l-0.611,0.502l0.407,0.45l-0.131,0.08l-0.327,0.218c-0.13,0.106-0.139,0.192-0.059,0.335l0.209,0.367l-0.154,0.041l-0.443,0.174
		c-0.143,0.076-0.15,0.194-0.045,0.321c0.268,0.313,0.685,0.357,1.013,0.109c0.208-0.16,0.346-0.375,0.461-0.605
		c0.554-1.102,0.628-2.251,0.331-3.432c-0.287-1.138-0.789-2.186-1.361-3.206l-0.212-0.427c-0.06-0.139-0.054-0.286,0.013-0.422
		l0.185-0.348c0.143-0.232,0.326-0.429,0.533-0.605c0.474-0.4,1-0.448,1.569-0.247c0.199,0.071,0.2,0.067,0.2,0.278v1.183
		c-0.229,0.103-0.452,0.187-0.66,0.301c-0.378,0.208-0.686,0.504-0.984,0.813c-0.052,0.052-0.053,0.089-0.021,0.154
		c0.186,0.381,0.377,0.762,0.546,1.154c0.414,0.961,0.709,1.954,0.745,3.01c0.016,0.47-0.024,0.925-0.249,1.357
		c-0.102,0.194-0.155,0.417-0.218,0.63c-0.032,0.114-0.022,0.233,0.044,0.341c0.067,0.106,0.16,0.12,0.245,0.026l0.13-0.204
		l0.36-0.865l0.042-0.089c0.018,0.292,0.021,0.577,0.016,0.861l-0.052,0.211l-0.363,0.747l-0.006,0.097
		c0.073,0.131,0.261,0.164,0.377,0.069l0.035-0.022c0.043,0.204,0.031,0.377-0.19,0.466l-0.063,0.041l-0.268,0.217l0.018,0.03
		l0.51-0.127v0.307L38.4,26.266l-0.731,0.063c-0.349,0.014-0.631,0.117-0.782,0.461c-0.11,0.25-0.088,0.488,0.11,0.675
		c0.122,0.117,0.267,0.215,0.415,0.293c0.313,0.166,0.652,0.253,1.002,0.304l0.092,0.068l0.005,0.622L38.45,28.74l-1.875-0.475
		l-0.132,0.047l-0.561,0.657l-0.075,0.101l0.102,0.016c0.229,0.059,0.487,0.073,0.678,0.191c0.234,0.146,0.429,0.371,0.615,0.584
		c0.143,0.164,0.089,0.316-0.109,0.41l-0.245,0.093c0.536,0.224,1.058,0.477,1.659,0.441v0.301l-0.424-0.167
		c-0.264-0.062-0.534-0.114-0.805-0.147c-0.688-0.086-1.147-0.45-1.396-1.092c-0.169-0.439-0.234-0.9-0.268-1.364l-0.068-1.129
		c-0.016-0.237-0.117-0.423-0.322-0.562l-0.198,0.218l-0.089,0.173c-0.011,0.14-0.015,0.285,0,0.425
		c0.023,0.189,0.1,0.355,0.297,0.435l0.069,0.075l0.057,0.397l-0.129-0.029l-0.726-0.164l-0.2,0.037l0.061,0.18l0.334,0.47
		l0.092,0.193c-0.351-0.067-0.611,0.051-0.741,0.307l0.47,0.154c0.134,0.063,0.146,0.163,0.054,0.277l-0.156,0.161l-0.338,0.31
		c-0.05,0.054-0.097,0.131-0.103,0.202c-0.014,0.155-0.016,0.314,0.005,0.467c0.108,0.728,0.453,1.331,0.982,1.834
		c0.38,0.362,0.817,0.65,1.261,0.925c0.137,0.086,0.271,0.183,0.388,0.296c0.127,0.123,0.09,0.229-0.079,0.277l-0.369,0.104
		c-0.569,0.234-1.068,0.576-1.512,0.998c-0.518,0.49-0.891,1.086-1.196,1.725c-0.57,1.188-1.383,2.181-2.438,2.969
		c-0.649,0.484-1.36,0.838-2.176,0.938c-0.29,0.034-0.448-0.068-0.51-0.354l-0.128-0.723c-0.149-0.672-0.374-1.316-0.739-1.906
		c-0.21-0.337-0.48-0.583-0.877-0.672c-0.401-0.09-0.7-0.333-0.947-0.649l-0.522-0.689c-0.39-0.53-0.908-0.793-1.568-0.754
		l-0.936,0.075c-0.563,0.049-1.09-0.055-1.561-0.376c-0.212-0.145-0.373-0.327-0.414-0.595c-0.024-0.168,0.017-0.324,0.084-0.473
		l0.253-0.552c0.121-0.317,0.06-0.492-0.226-0.681l-0.327-0.2c-0.163-0.112-0.209-0.241-0.166-0.434l0.049-0.228
		c0.033-0.201-0.03-0.378-0.13-0.546c-0.163-0.278-0.137-0.544,0.06-0.793l0.249-0.293l0.134-0.177
		c0.058-0.099,0.038-0.175-0.065-0.231l-0.206-0.082l-0.574-0.11C19.473,29.489,19.174,29.417,19.073,29.062z M20.589,21.032
		l-0.023,0.064c-0.054,0.289-0.116,0.577-0.156,0.87c-0.061,0.45-0.049,0.899,0.047,1.345l0.103,0.076l0.255-0.021
		c0.906-0.038,1.806,0.043,2.688,0.25c0.967,0.225,1.923,0.49,2.883,0.743c0.696,0.184,1.384,0.403,2.103,0.487
		c0.236,0.027,0.481,0.045,0.696-0.086c0.386-0.234,0.801-0.374,1.249-0.423c0.519-0.057,0.958,0.194,1.168,0.672
		c0.174,0.399,0.193,0.818,0.158,1.243c-0.015,0.175-0.08,0.321-0.189,0.455l-0.109,0.192c-0.037,0.1,0.009,0.182,0.115,0.177
		l0.503-0.065l0.047-0.048c0.041-0.195,0.188-0.268,0.356-0.31c0.229-0.058,0.468-0.059,0.698-0.012l1.379,0.311
		c0.061,0.014,0.148,0.003,0.195-0.033c0.111-0.082,0.209-0.181,0.3-0.285l0.254-0.343l-1.139-0.301l-0.131-0.003l-0.006,0.034
		c0.238,0.251,0.582,0.246,0.886,0.354c-0.113,0.023-0.228,0.048-0.338,0.031c-0.57-0.088-1.092-0.304-1.564-0.63
		c-0.129-0.09-0.239-0.213-0.346-0.329c-0.053-0.057-0.084-0.138-0.043-0.224c0.905,0.346,1.869,0.493,2.763,0.899
		c0.291-0.798,0.331-1.573-0.179-2.285c-0.313-0.438-0.681-0.839-1.033-1.247c-0.134-0.157-0.295-0.29-0.446-0.429
		c-0.084-0.079-0.183-0.113-0.302-0.101l-0.383,0.007l-2.8-0.148c-0.076-0.005-0.104-0.057-0.05-0.114l0.224-0.174l0.455-0.209
		l0.077-0.042l-1.487-0.523l-0.313-0.054l-0.108,0.029l0.054,0.108c0.14,0.146,0.326,0.195,0.518,0.225l0.545,0.066l0.01,0.026
		l-0.178,0.096c-0.131,0.026-0.269,0.047-0.398,0.035c-0.611-0.054-1.164-0.276-1.681-0.595c-0.254-0.16-0.488-0.345-0.636-0.617
		l-0.097-0.054c-0.527-0.133-1.055-0.263-1.601-0.29c-0.363-0.018-0.727-0.027-1.039,0.217l-0.083-0.004l-0.002-0.091l0.302-0.427
		l0.053-0.086c-0.571-0.015-1.119-0.081-1.649-0.254c-0.536-0.174-1.026-0.428-1.433-0.841c-0.437,0.772-0.809,1.563-1.07,2.404
		l0.062,0.097l0.614,0.211l2.738,0.793c0.67,0.198,1.322,0.447,1.934,0.795c0.173,0.098,0.259,0.26,0.331,0.429
		c0.035,0.083-0.007,0.129-0.092,0.101l-0.286-0.135c-0.148-0.108-0.304-0.191-0.48-0.247c-0.696-0.221-1.382-0.476-2.102-0.613
		L23.165,22.2l0.139,0.174c0.212,0.164,0.466,0.24,0.72,0.305l0.783,0.178l-0.15,0.075c-0.229,0.003-0.463,0.028-0.687-0.013
		c-0.95-0.172-1.817-0.555-2.617-1.085C21.043,21.631,20.76,21.397,20.589,21.032z M36.424,25.11
		c-0.185,0.038-0.318,0.161-0.431,0.303c-0.236,0.292-0.382,0.628-0.419,1c-0.058,0.595,0.128,0.711,0.535,0.806l0.03,0.005
		c0.353,0.058,0.554-0.097,0.559-0.455c0.002-0.22-0.018-0.441-0.056-0.656C36.585,25.781,36.5,25.455,36.424,25.11z M21.993,26.225
		c-0.062,0.079-0.086,0.155-0.009,0.225c0.059,0.052,0.119,0.039,0.183-0.004l0.272-0.155l0.539-0.197
		c0.183-0.082,0.199-0.208,0.055-0.347c-0.349-0.335-0.778-0.452-1.249-0.44l-0.107,0.082l0.02,0.136l0.064,0.158
		C21.797,25.879,21.828,26.077,21.993,26.225z M23.448,25.229L23.4,25.146l-0.215-0.208c-0.556-0.436-1.199-0.513-1.875-0.439
		c-0.085,0.01-0.14,0.086-0.122,0.159c0.022,0.083,0.081,0.119,0.169,0.11l0.275-0.02c0.603-0.01,1.158,0.114,1.579,0.591
		l0.042,0.033C23.342,25.416,23.45,25.35,23.448,25.229z M29.279,29.277c0.275,0.001,0.636-0.151,0.823-0.35l0.021-0.11
		l-0.114,0.014l-0.301,0.199c-0.175,0.093-0.365,0.142-0.564,0.095c-0.243-0.059-0.441-0.177-0.533-0.425
		c-0.09-0.246-0.022-0.461,0.144-0.65c0.147-0.172,0.335-0.281,0.54-0.374l0.08-0.1l-0.126-0.024
		c-0.18,0.105-0.366,0.205-0.527,0.333c-0.164,0.131-0.266,0.316-0.28,0.532C28.408,28.897,28.78,29.276,29.279,29.277z"/>
	<path d="M36.851,41.29l-0.235-0.057c-0.499-0.133-0.868-0.44-1.154-0.858c-0.258-0.379-0.423-0.794-0.503-1.245
		c-0.03-0.173,0.003-0.33,0.155-0.437c0.639-0.445,1.167-1.019,1.751-1.526l0.757-0.688c0.187-0.17,0.217-0.311,0.11-0.542
		l-0.188-0.345l-0.224-0.517c-0.064-0.184-0.029-0.363,0.1-0.51l0.448-0.486l0.634-0.672l0.008,0.077L38.51,34.38l-0.069,0.151
		c-0.211,0.15-0.421,0.302-0.646,0.429c-0.262,0.149-0.324,0.302-0.151,0.549c0.137,0.194,0.303,0.366,0.463,0.544l0.243,0.239
		c0.139,0.106,0.183,0.235,0.167,0.407l-0.003,0.459l-0.221-0.12c-0.09-0.055-0.184-0.057-0.273-0.006l-0.294,0.192l-1.837,1.625
		l-0.451,0.39c-0.099,0.082-0.13,0.182-0.118,0.302l0.016,0.074c0.194,0.579,0.507,1.071,1.044,1.388
		c0.086,0.051,0.203,0.072,0.305,0.07c0.187-0.002,0.267-0.159,0.158-0.31l-0.281-0.302L36.27,40.18
		c-0.109-0.125-0.081-0.215,0.077-0.255l0.367-0.064c0.099-0.028,0.206-0.067,0.279-0.135c0.103-0.094,0.185-0.214,0.264-0.332
		c0.138-0.206,0.303-0.385,0.511-0.523c0.277-0.185,0.523-0.403,0.71-0.682l0.037-0.024v1.672c0,0.718-0.521,1.322-1.23,1.433
		l-0.068,0.021H36.851z"/>
	<path fill="#FFFFFF" d="M20.589,21.032c0.172,0.365,0.454,0.599,0.76,0.802c0.802,0.53,1.667,0.914,2.616,1.085
		c0.224,0.041,0.459,0.017,0.688,0.013l0.149-0.075L24.02,22.68c-0.254-0.065-0.508-0.141-0.72-0.305l-0.139-0.174l0.218-0.019
		c0.722,0.136,1.406,0.392,2.102,0.612c0.174,0.056,0.333,0.139,0.481,0.247l0.285,0.135c0.085,0.028,0.128-0.018,0.093-0.1
		c-0.073-0.171-0.159-0.331-0.332-0.43c-0.611-0.347-1.264-0.596-1.933-0.795l-2.738-0.793l-0.614-0.212l-0.062-0.097
		c0.26-0.84,0.631-1.632,1.07-2.404c0.404,0.414,0.896,0.669,1.433,0.842c0.53,0.173,1.078,0.239,1.648,0.253l-0.052,0.086
		l-0.301,0.427l0.001,0.091l0.083,0.004c0.311-0.244,0.675-0.233,1.038-0.216c0.546,0.026,1.074,0.156,1.6,0.29l0.097,0.054
		c0.149,0.272,0.382,0.458,0.636,0.617c0.517,0.32,1.071,0.542,1.681,0.595c0.131,0.012,0.269-0.01,0.399-0.035l0.178-0.097
		l-0.011-0.026l-0.545-0.066c-0.192-0.028-0.378-0.078-0.517-0.225l-0.055-0.108l0.109-0.028l0.313,0.056l1.486,0.521l-0.077,0.042
		l-0.454,0.209l-0.224,0.174c-0.053,0.057-0.025,0.109,0.05,0.114l2.799,0.148l0.384-0.007c0.119-0.012,0.218,0.023,0.302,0.102
		c0.152,0.139,0.312,0.273,0.446,0.428c0.352,0.408,0.718,0.809,1.032,1.247c0.51,0.712,0.471,1.487,0.18,2.285
		c-0.895-0.405-1.858-0.553-2.764-0.899c-0.041,0.085-0.009,0.167,0.043,0.224c0.108,0.117,0.217,0.238,0.346,0.329
		c0.473,0.326,0.995,0.543,1.565,0.631c0.109,0.017,0.225-0.009,0.337-0.031c-0.305-0.107-0.648-0.103-0.887-0.353l0.006-0.033
		l0.132,0.001l1.139,0.301l-0.254,0.343c-0.09,0.104-0.191,0.203-0.299,0.285c-0.048,0.036-0.134,0.047-0.196,0.033l-1.379-0.311
		c-0.23-0.047-0.468-0.046-0.699,0.012c-0.168,0.042-0.314,0.115-0.355,0.31l-0.048,0.048l-0.503,0.066
		C31.47,27.082,31.423,27,31.458,26.9l0.11-0.191c0.107-0.134,0.174-0.281,0.188-0.456c0.034-0.425,0.015-0.844-0.159-1.243
		c-0.21-0.479-0.649-0.729-1.167-0.672c-0.448,0.049-0.864,0.189-1.25,0.424c-0.215,0.13-0.459,0.113-0.697,0.085
		c-0.719-0.084-1.406-0.304-2.102-0.488c-0.96-0.252-1.917-0.517-2.884-0.742c-0.881-0.208-1.781-0.288-2.688-0.25l-0.256,0.021
		l-0.101-0.076c-0.097-0.446-0.108-0.895-0.048-1.345c0.042-0.292,0.104-0.58,0.157-0.87L20.589,21.032L20.589,21.032z
		 M31.289,22.875l0.578,0.124c0.268,0.063,0.531,0.142,0.733,0.341l0.112,0.204l-0.232,0.015c-0.656-0.146-1.283-0.385-1.904-0.638
		c-0.719-0.293-1.465-0.412-2.235-0.413l-0.152,0.048l0.109,0.12c0.216,0.106,0.431,0.215,0.655,0.303
		c1.37,0.53,2.777,0.95,4.178,1.387c0.609,0.191,1.233,0.343,1.817,0.607c0.025-0.173-0.014-0.345-0.115-0.481
		c-0.155-0.21-0.317-0.423-0.51-0.598c-0.495-0.442-1.07-0.759-1.693-0.982c-0.308-0.111-0.621-0.207-0.956-0.188
		C31.538,22.731,31.412,22.766,31.289,22.875z M36.424,25.11c0.076,0.345,0.16,0.671,0.22,1.003
		c0.038,0.214,0.058,0.436,0.056,0.656c-0.003,0.358-0.205,0.513-0.559,0.455l-0.03-0.005c-0.407-0.095-0.594-0.211-0.535-0.806
		c0.036-0.372,0.183-0.708,0.419-1C36.108,25.271,36.239,25.149,36.424,25.11z M21.993,26.225c-0.167-0.148-0.196-0.346-0.234-0.542
		l-0.064-0.158l-0.02-0.136l0.107-0.082c0.471-0.012,0.899,0.105,1.25,0.44c0.145,0.138,0.128,0.265-0.055,0.347l-0.539,0.197
		l-0.272,0.155c-0.064,0.043-0.125,0.056-0.183,0.004C21.907,26.38,21.932,26.304,21.993,26.225z M22.339,25.632l-0.44-0.067
		l-0.031,0.027l0.149,0.444l0.1,0.073l0.1-0.091L22.339,25.632z M22.469,25.683l-0.097,0.343l0.396-0.128l0.006-0.03L22.469,25.683z
		 M23.448,25.229c0.002,0.122-0.104,0.188-0.194,0.143l-0.041-0.033c-0.422-0.477-0.976-0.601-1.579-0.591l-0.275,0.02
		c-0.087,0.009-0.147-0.026-0.168-0.11c-0.02-0.073,0.037-0.149,0.122-0.159c0.676-0.074,1.319,0.003,1.876,0.439l0.214,0.208
		L23.448,25.229z M29.279,29.277c-0.499-0.001-0.872-0.379-0.84-0.858c0.016-0.217,0.116-0.401,0.281-0.532
		c0.161-0.129,0.347-0.228,0.527-0.333l0.125,0.023l-0.08,0.1c-0.203,0.092-0.392,0.201-0.539,0.374
		c-0.166,0.189-0.235,0.405-0.145,0.65c0.092,0.248,0.292,0.368,0.533,0.425c0.201,0.048,0.389-0.002,0.565-0.095l0.301-0.199
		l0.114-0.014L30.1,28.928C29.917,29.126,29.556,29.278,29.279,29.277z"/>
	<path d="M31.289,22.875c0.123-0.109,0.249-0.144,0.385-0.153c0.334-0.019,0.647,0.076,0.955,0.188
		c0.624,0.225,1.199,0.54,1.693,0.983c0.194,0.175,0.354,0.388,0.51,0.597c0.102,0.137,0.14,0.31,0.116,0.481
		c-0.585-0.264-1.209-0.416-1.817-0.606c-1.4-0.437-2.807-0.857-4.178-1.387c-0.224-0.088-0.44-0.198-0.655-0.303l-0.109-0.12
		l0.152-0.048c0.771,0.001,1.518,0.121,2.235,0.414c0.621,0.253,1.247,0.493,1.904,0.638l0.232-0.015l-0.112-0.205
		c-0.203-0.199-0.466-0.277-0.733-0.34L31.289,22.875z M22.339,25.632l-0.122,0.386l-0.1,0.091l-0.1-0.073l-0.149-0.444l0.031-0.027
		L22.339,25.632z M22.469,25.683l0.306,0.183l-0.006,0.03l-0.396,0.129L22.469,25.683z"/>
</g>
<g>
	<path d="M59.724,30.805c-0.232,0.114-0.879,0.449-0.967,0.519c0.448,0.075,0.88,0.175,1.273,0.401l0.332,0.218l-0.011,0.033
		l-0.397,0.028l-0.982-0.021c-0.923-0.022-1.841,0.015-2.738,0.27c-0.674,0.194-1.301,0.488-1.887,0.883l0.132-0.177l0.151-0.183
		c0.622-0.767,1.385-1.37,2.219-1.888c0.421-0.261,0.824-0.544,1.145-0.929c0.385-0.461,0.646-0.99,0.822-1.557
		c0.156-0.5,0.277-1.011,0.417-1.517l0.026-0.111c0.515,1.339,0.439,3.259-1.475,4.52l0.075,0.01l0.77,0.022l0.13-0.061
		c0.141-0.143,1.456-1.444,1.662-2.168c0.202-0.693,0.27-1.404,0.26-2.122l-0.026-0.808l-0.017-0.153l-0.372,0.473l-0.073,0.078
		c-0.066,0.07-0.138,0.08-0.214,0.026c-0.074-0.059-0.074-0.136-0.031-0.214l0.171-0.313c0.188-0.43,0.225-0.881,0.184-1.342
		c-0.054-0.631-0.244-1.224-0.511-1.796l-0.047-0.085l-0.052,0.072c-0.096,0.182-0.269,0.295-0.399,0.442l-0.326,0.384l-0.32,0.359
		l-0.157,0.161c-0.683,0.981-1.2,2.047-1.55,3.19c-0.183,0.605-0.343,1.219-0.521,1.826c-0.045,0.151-0.101,0.3-0.164,0.444
		c-0.172,0.369-0.433,0.504-0.818,0.375c-0.266-0.088-0.52-0.218-0.755-0.365c-0.428-0.265-0.817-0.595-1.173-0.948l-0.074-0.156
		c-0.026-0.411-0.052-0.82-0.063-1.23c-0.02-0.724-0.044-1.448-0.039-2.172c0.005-0.729,0.022-1.462,0.074-2.19
		c0.075-1.036,0.522-1.917,1.213-2.682c0.66-0.731,1.464-1.241,2.413-1.511c0.347-0.099,0.699-0.172,1.064-0.166
		c0.578,0.01,1.018,0.269,1.335,0.744c0.286,0.423,0.42,0.906,0.493,1.405c0.046,0.307,0.067,0.62,0.101,0.955l0.149-0.242
		c0.366-0.659,0.584-1.368,0.682-2.113c0.035-0.277,0.046-0.559,0.063-0.837l-0.054-0.109c-0.644-0.322-0.975-0.872-1.156-1.539
		l-0.042-0.2l-0.033-0.209l-0.095,0.055c-0.345,0.217-0.692,0.434-1.09,0.535c-0.126,0.031-0.269,0.047-0.396,0.03
		c-0.263-0.036-0.438-0.27-0.421-0.554l0.063-0.655c-1.462,0.601-2.678,1.522-3.553,2.884c-0.873,1.361-1.234,2.838-1.076,4.453
		l-0.049-0.099c-0.524-1.326-0.489-2.629,0.157-3.906c0.377-0.749,0.925-1.361,1.564-1.896l0.108-0.096l-0.439,0.001
		c-0.691,0.027-1.38,0.074-2.059,0.225c-0.54,0.124-1.069,0.286-1.495,0.66l-0.362,0.397c-0.308-0.167-0.644-0.285-0.999-0.353
		c-0.746-0.14-1.477-0.055-2.194,0.171c-0.489,0.155-0.954,0.372-1.395,0.632l-0.099,0.022l0.475-0.417
		c0.516-0.421,1.071-0.766,1.717-0.947c0.541-0.153,1.075-0.146,1.599,0.061c0.215,0.084,0.408,0.222,0.622,0.341l0.192-0.23
		c0.442-0.461,0.997-0.708,1.614-0.832c0.44-0.09,0.888-0.139,1.332-0.076c0.483,0.07,0.957,0.188,1.437,0.29l0.176-0.035
		c0.907-0.695,1.894-1.258,2.948-1.703c0.102-0.042,0.225-0.048,0.337-0.055c0.452-0.024,0.898-0.012,1.338,0.112
		c0.848,0.232,1.364,0.764,1.522,1.635c0.088,0.481,0.133,0.967,0.124,1.458c-0.021,0.896-0.191,1.759-0.56,2.574
		c-0.15,0.33-0.352,0.636-0.532,0.951c-0.064,0.112-0.18,0.217-0.188,0.332c-0.009,0.108,0.099,0.221,0.142,0.336
		c0.097,0.275,0.278,0.499,0.431,0.74c0.201,0.319,0.375,0.66,0.516,1.008c0.291,0.723,0.375,1.488,0.348,2.264
		C61.39,27.081,61.556,29.384,59.724,30.805L59.724,30.805z M56.857,20.32l0.049-0.059L57.18,19.9l0.104-0.064l0.047,0.12
		l0.002,0.196l0.26-0.202l0.091-0.028l0.044,0.098v0.134l0.262-0.201l0.099-0.025l0.041,0.1l0.002,0.201l0.13-0.001
		c0.097-0.011,0.138,0.031,0.13,0.13l-0.002,0.358l0.422-0.392c0.088-0.08,0.097-0.123,0.008-0.2
		c-0.098-0.083-0.207-0.159-0.323-0.213c-0.387-0.183-0.805-0.267-1.222-0.345l-0.417-0.072L56.857,20.32z M54.485,26.715
		l-0.026-0.013l-0.089,0.114c-0.107,0.216-0.217,0.43-0.3,0.654c-0.076,0.187-0.063,0.198,0.129,0.272
		c0.578,0.222,1.189,0.311,1.794,0.404l0.076-0.036l0.193-0.599l-0.027-0.015l-0.186,0.205l-0.193,0.09l-0.551,0.001l-0.153-0.056
		c-0.108-0.147-0.248-0.176-0.418-0.131l-0.094,0.004c-0.144,0.005-0.201-0.06-0.191-0.205L54.485,26.715z M55.566,20.914
		c0.407-0.296,0.696-1.043,0.505-1.346l-0.688,0.499l-0.032,0.081L55.566,20.914z M58.829,21.715l0.037-0.013l0.368-0.363
		l0.069-0.144l0.019-0.343c0.003-0.245-0.102-0.341-0.343-0.321l-0.148,0.025v1.158H58.829z M45.603,29.779
		c0.733,0.339,1.483,0.539,2.286,0.589l-0.151,0.087c-0.539,0.272-1.116,0.446-1.697,0.588c-0.818,0.198-1.642,0.336-2.476,0.429
		c-0.698,0.077-1.402,0.135-2.102,0.201l-0.327,0.025l0.003-0.473l0.081-0.083c0.498-0.278,1-0.544,1.49-0.836
		c1.248-0.746,2.418-1.6,3.483-2.595c1.042-0.975,1.95-2.059,2.616-3.329l0.036-0.042c-0.275,1.04-0.66,2.038-1.19,2.975
		C47.122,28.255,46.485,29.108,45.603,29.779z M41.136,27.931l0.003-0.745l0.071-0.164c0.68-0.983,1.559-1.748,2.588-2.348
		c1.01-0.59,2.101-0.987,3.24-1.244c0.343-0.076,0.69-0.143,1.038-0.204l0.29-0.003l0.015,0.038l-0.223,0.325
		c-0.533,0.763-1.1,1.499-1.734,2.179c-0.678,0.726-1.408,1.39-2.274,1.89c-0.533,0.307-1.095,0.536-1.71,0.592
		c-0.159,0.015-0.317,0.002-0.476-0.013c1.397-0.444,2.441-1.318,3.202-2.574c-0.225-0.043-0.433-0.022-0.636,0.016
		c-0.604,0.113-1.127,0.402-1.626,0.743c-0.616,0.419-1.157,0.919-1.668,1.45l-0.06,0.089L41.136,27.931z M49.614,34.209
		c-0.173,0.373-0.406,0.683-0.689,0.961c-0.485,0.478-1.063,0.811-1.691,1.06c-0.867,0.344-1.774,0.528-2.701,0.637
		c-0.896,0.104-1.795,0.136-2.694,0.117l-0.688-0.024c-0.035-0.174-0.027-0.174,0.144-0.189c1.125-0.089,2.241-0.219,3.329-0.532
		c0.497-0.145,0.977-0.324,1.392-0.646l0.202-0.178l-0.29-0.151c-0.338-0.125-0.691-0.163-1.049-0.193
		c-0.882-0.08-1.769-0.071-2.657-0.063l-0.906,0.029l-0.075-0.028l0.466-0.201c0.624-0.245,1.272-0.383,1.935-0.459
		c0.959-0.11,1.921-0.091,2.883-0.083c0.727,0.007,1.456-0.001,2.185-0.009L49.614,34.209L49.614,34.209z M59.128,36.304
		c0.607-0.131,1.149-0.371,1.672-0.661c0.522-0.292,1.005-0.644,1.477-1.023l-0.104,0.21c-0.268,0.489-0.661,0.857-1.116,1.169
		c-0.753,0.518-1.588,0.851-2.454,1.122c-1.211,0.378-2.452,0.611-3.705,0.773l-0.824,0.09h-0.139l0.834-0.323
		c1.326-0.548,2.565-1.256,3.677-2.175c1.062-0.878,1.931-1.915,2.513-3.176c0.224-0.496,0.394-1.012,0.507-1.546l0.033-0.084
		C61.886,33.041,60.915,34.833,59.128,36.304z M46.165,31.658c0.865,0.007,1.593-0.286,2.197-0.861
		c0.38,1.061,1.156,1.734,2.129,2.213c0.649,0.318,1.343,0.489,2.061,0.567l0.513,0.051l-0.081,0.039
		c-0.93,0.33-1.888,0.479-2.872,0.396c-1.083-0.092-2.052-0.479-2.882-1.192c-0.386-0.33-0.715-0.708-1.006-1.122L46.165,31.658z
		 M52.453,34.518c0.025,0.344,0.056,0.663,0.063,0.98c0.011,0.362,0.011,0.726-0.015,1.09c-0.047,0.753-0.188,1.485-0.58,2.146
		c-0.42,0.699-1.032,1.111-1.854,1.179c-0.224,0.019-0.452,0.002-0.676-0.013c1.421-0.648,1.946-1.835,2.029-3.322
		c-1.337,0.904-2.817,1.083-4.356,1.023l0.62-0.2c1.17-0.398,2.315-0.852,3.367-1.517c0.446-0.281,0.864-0.601,1.183-1.03
		L52.453,34.518z M55.066,35.904c0.73-0.356,1.508-0.503,2.32-0.542l-0.194,0.142c-0.711,0.473-1.475,0.844-2.248,1.197
		c-0.414,0.188-0.83,0.363-1.245,0.543l-0.089,0.031v-0.292c0.065-0.856,0.347-1.629,0.896-2.294
		c0.484-0.585,1.104-0.985,1.813-1.246c0.617-0.226,1.255-0.353,1.907-0.389c0.423-0.024,0.849-0.03,1.275-0.024
		C57.665,33.444,56.108,34.277,55.066,35.904L55.066,35.904z M55.482,31.497l-0.335,0.181c-0.538,0.229-1.102,0.379-1.683,0.414
		c-0.847,0.049-1.608-0.17-2.203-0.808c-0.366-0.388-0.588-0.858-0.74-1.363c-0.176-0.572-0.235-1.163-0.287-1.755
		c-0.059-0.775,0.033-1.545,0.108-2.315l0.075-0.578l0.052-0.181h0.044l0.035,0.274c0.018,0.383,0.014,0.77,0.046,1.154
		c0.072,0.844,0.211,1.675,0.517,2.474c0.24,0.63,0.558,1.217,1.055,1.689c0.573,0.545,1.265,0.822,2.05,0.839
		c0.329,0.006,0.66-0.04,0.988-0.06h0.268L55.482,31.497z M41.135,25.698v-0.135c0-0.785-0.001-1.569,0.003-2.355l0.074-0.213
		c0.267-0.342,0.564-0.647,0.953-0.851l0.294-0.126l-0.186,0.512c-0.059,0.2-0.103,0.403-0.136,0.609
		c-0.025,0.135-0.001,0.143,0.132,0.143c0.572-0.001,1.145-0.004,1.718,0.001l1.963,0.034l0.119,0.014
		C44.291,23.824,42.62,24.539,41.135,25.698z M46.377,21.246c0.607-0.33,1.215-0.65,1.911-0.75c-1.45,0.717-2.707,1.712-3.938,2.743
		l-0.028-0.02l0.182-0.43c0.255-0.506,0.601-0.949,0.971-1.371c0.253-0.287,0.523-0.557,0.785-0.835l0.082-0.067
		c-0.182,0.349-0.385,0.684-0.477,1.076c0.15-0.124,0.355-0.169,0.453-0.37c0.295-0.613,0.71-1.134,1.26-1.542l0.056-0.044
		c-0.242-0.069-0.475-0.057-0.706-0.022c-0.773,0.119-1.433,0.479-2.036,0.961c-0.746,0.595-1.339,1.325-1.865,2.115l-0.173,0.262
		l-0.021,0.02l-0.001-0.028c0.41-0.832,0.87-1.633,1.48-2.338c0.468-0.539,0.998-0.998,1.659-1.291
		c0.87-0.387,1.942-0.307,2.712,0.227C47.748,19.89,47.01,20.496,46.377,21.246z M41.136,33.661l0.002-0.638l0.055-0.083
		l0.156-0.121c-0.214-0.053-0.214-0.053-0.214-0.272v-0.404l4.648,0.141l-0.494,0.293c-0.653,0.338-1.352,0.558-2.064,0.712
		c-0.662,0.145-1.333,0.25-2.003,0.373H41.136L41.136,33.661z M45.648,19.212c-0.355-0.106-0.733-0.234-1.121-0.329
		c-0.411-0.102-0.829-0.127-1.251-0.041c-0.635,0.127-1.021,0.522-1.217,1.127c-0.123,0.385-0.151,0.784-0.131,1.185l0.075,0.978
		l-0.231-0.585c-0.161-0.441-0.277-0.892-0.332-1.358c-0.041-0.364-0.032-0.727,0.075-1.08c0.221-0.708,0.795-1.104,1.532-1.042
		c0.55,0.045,1.077,0.171,1.548,0.485c0.332,0.223,0.677,0.423,1.018,0.635L45.648,19.212z M50.766,41.682l0.279-0.295
		c0.659-0.661,1.373-1.251,2.179-1.726c0.681-0.401,1.403-0.699,2.181-0.843l0.423-0.045l-0.045,0.033
		c-0.688,0.309-1.285,0.748-1.854,1.236c-0.562,0.484-1.073,1.021-1.556,1.587l-0.167,0.074l-1.427-0.001L50.766,41.682z
		 M49.94,25.07c0.13-0.337,0.309-0.61,0.499-0.87c0.525-0.712,1.144-1.343,1.784-1.952l0.314-0.292l-0.36,0.856
		c-0.354,0.893-0.605,1.813-0.717,2.769c-0.075,0.654-0.075,1.309,0.05,1.958l0.006,0.069c-0.119-0.125-0.403-0.985-0.492-1.478
		c-0.095-0.512-0.095-0.695-0.01-1.583C50.628,24.645,50.28,24.814,49.94,25.07z M48.074,41.705h-1.051l-2.107-0.002l-0.222-0.032
		l-2.282-0.643l-0.071-0.031c1.99-0.439,3.896-0.146,5.735,0.679L48.074,41.705L48.074,41.705z M41.135,38.349
		c2.162,0.807,4.392,0.923,6.65,0.826l-0.677,0.105c-0.601,0.068-1.199,0.139-1.8,0.189c-0.885,0.076-1.771,0.076-2.655-0.02
		c-0.474-0.05-0.941-0.15-1.414-0.225c-0.089-0.015-0.111-0.053-0.109-0.135L41.135,38.349z M49.646,19.26
		c-0.438-0.292-0.893-0.488-1.44-0.473c0.22-0.161,0.443-0.214,0.687-0.191c0.371,0.033,0.709,0.174,1.013,0.374
		c0.316,0.21,0.608,0.452,0.911,0.677l0.043,0.053c-0.935,0.104-1.823,0.283-2.444,1.089l0.095-0.281
		c0.172-0.364,0.445-0.646,0.737-0.909L49.646,19.26z M51.856,20.007l0.063-0.539l0.021-0.178l0.123-0.244l0.324-0.384l-0.077-0.11
		l-0.394,0.335c-0.067,0.058-0.133,0.092-0.213,0.041c-0.076-0.05-0.076-0.119-0.059-0.208l0.104-0.139
		c0.289-0.183,0.567-0.384,0.868-0.54c0.301-0.155,0.631-0.194,0.969-0.109c0.078,0.02,0.144,0.053,0.158,0.138
		c0.017,0.088-0.041,0.135-0.109,0.18c-0.319,0.217-0.64,0.431-0.952,0.655c-0.387,0.276-0.671,0.634-0.776,1.111L51.856,20.007z
		 M54.591,30.464c-0.555,0.083-1.823-0.69-2.354-1.382c-0.698-0.912-0.742-2.319-0.533-2.866l0.03,0.328
		c0.052,1.116,0.436,2.091,1.243,2.879c0.368,0.362,0.797,0.637,1.264,0.856L54.591,30.464z M41.136,30.167l0.001-0.561l0.044-0.073
		l1.571-0.594C42.597,29.222,41.577,29.989,41.136,30.167L41.136,30.167z M58.417,24.513l-1.642,4.108
		C57.035,27.124,57.651,25.766,58.417,24.513z M52.754,22.995c0.266,0.674-0.01,1.823-0.562,2.139
		C52.62,24.482,52.671,23.735,52.754,22.995z M41.748,35.875l-0.607,0.09v-0.172l0.608,0.055L41.748,35.875z"/>
</g>
<g>
	<path fill="#EC1C24" d="M38.448,74.963l1.514,1.065l1.181-0.831l0.036-7.325h-2.731V74.963z M41.28,41.741l0.015-35.181h-2.844
		v35.181l-22.375,0.014l2.134,6.56l4.92,0.02l-0.003,9.776l0.136,0.479l2.662,3.928l0.039-0.011V48.352l5.488,0.011l-0.003,20.216
		l0.178,0.423l2.654,2.3V48.354h4.167v4.78h2.807l0.027-4.783l4.163,0.007v22.596l2.657-2.313l0.175-0.402l0.006-19.896l5.477,0.013
		l0.021,14.093l2.671-3.746l0.141-0.476l-0.002-9.913h4.844l0.302-0.205l2.104-6.368H41.28z"/>
</g>
<path fill="#231F20" d="M40.019,76.821l-0.362-0.177c-0.292-0.145-7.201-3.638-13.983-12.808
	c-3.973-5.368-7.064-11.577-9.188-18.454c-2.65-8.579-3.796-18.225-3.403-28.67l0.017-0.438L39.885,5.179l26.466,11.072l0.066,0.367
	c0.069,0.383,1.653,9.532-0.734,21.567c-1.406,7.069-3.906,13.651-7.428,19.557C53.85,65.128,47.826,71.47,40.35,76.597
	L40.019,76.821z M14.433,17.202c-0.768,22.986,6.248,37.561,12.291,45.755c5.742,7.785,11.709,11.437,13.192,12.27
	c16.295-11.325,22.277-26.521,24.42-37.311c2.079-10.464,1.054-18.878,0.786-20.694L39.88,6.66L14.433,17.202z"/>
<g>
	<path fill="#FFFFFF" d="M22.998,42.956l-3.279,4.045h3.399l0.448-0.432h2.557l0.328,0.32h3.542l-3.192-3.932h-3.803V42.956z
		 M24.135,45.617l0.656-1.31l0.655,1.31H24.135z M56.789,42.956h-3.805l-3.278,4.045h3.399l0.448-0.432h2.561l0.325,0.32h3.539
		L56.789,42.956z M54.12,45.617l0.656-1.31l0.656,1.31H54.12z M36.155,44.854c0,2.663,7.389,1.943,7.389,1.943v-1.309
		c0,0-3.848,0.846-3.848-0.633c0-1.476,3.848-0.632,3.848-0.632v-1.311C43.544,42.914,36.155,42.198,36.155,44.854z"/>
</g>
<g>
	<path fill="#231F20" d="M35.212,63.289c0.525,0,0.642-0.254,0.747-0.543h0.458v4.328h-0.68v-3.304h-0.525V63.289z M39.236,65.998
		c0,0.729-0.333,1.124-1.038,1.124c-0.667,0-1.014-0.396-1.014-1.087v-0.112h0.643v0.156c0,0.309,0.136,0.425,0.353,0.425
		c0.242,0,0.377-0.117,0.377-0.531v-0.791c-0.117,0.247-0.328,0.383-0.63,0.383c-0.5,0-0.754-0.352-0.754-0.988v-0.79
		c0-0.694,0.364-1.091,1.034-1.091c0.667,0,1.031,0.396,1.031,1.091L39.236,65.998L39.236,65.998z M38.557,64.519V63.74
		c0-0.309-0.135-0.421-0.352-0.421c-0.218,0-0.353,0.112-0.353,0.421v0.778c0,0.311,0.135,0.428,0.353,0.428
		C38.422,64.946,38.557,64.829,38.557,64.519z M40.108,63.289c0.526,0,0.643-0.254,0.747-0.543h0.46v4.328h-0.68v-3.304h-0.526
		L40.108,63.289L40.108,63.289z M42.083,63.786c0-0.694,0.364-1.091,1.029-1.091c0.668,0,1.035,0.396,1.035,1.091v2.249
		c0,0.691-0.368,1.087-1.035,1.087c-0.666,0-1.029-0.396-1.029-1.087V63.786z M42.761,66.079c0,0.309,0.135,0.425,0.352,0.425
		c0.22,0,0.353-0.117,0.353-0.425V63.74c0-0.309-0.133-0.425-0.353-0.425c-0.217,0-0.352,0.118-0.352,0.425V66.079z"/>
</g>
<g>
	<path d="M38.905,56.918l0.685-1.329v-0.385H38.7v-0.682h0.891v-0.855h0.649v0.924l0.857-0.034v0.735h-0.892l0.035,0.297
		l0.581,1.329l-0.033,3.867h-1.813L38.905,56.918z M37.194,60.785c0,0-2.571-5.409,1.95-4.328l-0.239,0.461
		c0,0-2.817-0.376-1.1,3.731L37.194,60.785z M42.497,60.785c0,0,2.571-5.409-1.949-4.328l0.238,0.461c0,0,2.815-0.376,1.103,3.731
		L42.497,60.785z M36.919,60.785c0,0,2.807-0.65,5.787,0v0.924h-5.787V60.785z M42.199,56.383c0,0,5.161,0.33,0.507,4.402
		l-0.275-0.032c0,0,3.802-3.524-0.238-4.038L42.199,56.383z M37.441,56.383c0,0-5.162,0.33-0.507,4.402l0.273-0.032
		c0,0-3.8-3.524,0.24-4.038L37.441,56.383z"/>
</g>
</svg>
