<?xml version="1.0" encoding="utf-8"?>
<!-- Generator: Adobe Illustrator 16.0.0, SVG Export Plug-In . SVG Version: 6.00 Build 0)  -->
<!DOCTYPE svg PUBLIC "-//W3C//DTD SVG 1.1//EN" "http://www.w3.org/Graphics/SVG/1.1/DTD/svg11.dtd">
<svg version="1.1" id="Calque_1" xmlns="http://www.w3.org/2000/svg" xmlns:xlink="http://www.w3.org/1999/xlink" x="0px" y="0px"
	 width="80px" height="80px" viewBox="0 0 80 80" enable-background="new 0 0 80 80" xml:space="preserve">
<path fill="#007DC4" d="M40,74.9c4.188-5.845,16.143-7.987,20.429-9.06c4.285-1.069,3.97-4.14,3.97-4.14V13.1H15.602v48.603
	c0,0-0.317,3.069,3.968,4.14C23.856,66.914,35.812,69.056,40,74.9z"/>
<path fill="none" stroke="#FFFFFF" stroke-width="1.0424" d="M39.964,73.5c-4.297-4.798-13.43-6.912-18.471-8.079
	c-0.665-0.153-1.238-0.286-1.717-0.406c-3.41-0.853-3.346-2.995-3.328-3.236l-0.001,0.012l0.004-0.045V13.952h47.093v47.793
	l0.004,0.045v-0.012c0.019,0.239,0.083,2.383-3.327,3.236c-0.479,0.12-1.052,0.253-1.717,0.406
	C53.452,66.592,44.284,68.712,40,73.538L39.964,73.5z"/>
<path fill="#FFFFFF" d="M40,43.757l7.377-15.803L40,32.629l-7.379-4.675L40,43.757"/>
<path fill="#007DC4" d="M40,33.407l3.432-1.947L40,34.966l-3.434-3.506L40,33.407z"/>
<path fill="#FFFFFF" d="M40,43.757l7.377,15.802L40,54.884l-7.379,4.675L40,43.757"/>
<path fill="#007DC4" d="M40,54.106l3.432,1.948L40,52.547l-3.434,3.506L40,54.106z"/>
<path fill="#FFFFFF" d="M40,43.757l-15.803-7.378l4.675,7.378l-4.675,7.379L40,43.757"/>
<path fill="#007DC4" d="M29.651,43.757l-1.948-3.434l3.506,3.434l-3.506,3.434L29.651,43.757z"/>
<path fill="#FFFFFF" d="M40,43.757l15.802-7.378l-4.675,7.378l4.675,7.379L40,43.757"/>
<path fill="#007DC4" d="M50.348,43.757l1.948-3.434l-3.506,3.434l3.506,3.434L50.348,43.757z"/>
<circle fill="#007DC4" cx="40" cy="43.756" r="7.37"/>
<circle fill="#FFFFFF" cx="40" cy="43.757" r="6.027"/>
<circle fill="#007DC4" cx="40" cy="43.757" r="5.407"/>
<path fill="#FFFFFF" d="M36.955,39.228l-0.291,1.046l-0.876,0.122l0.243-0.413L36.955,39.228z M36.712,41.882l-1.534,2.094
	l1.12,2.338l2.265-0.634l-0.023-2.873L36.712,41.882z M37.979,46.483l0.511,1.68L40,47.652l1.411,0.439l0.756-1.535l-1-0.364v-1.51
	h-2.094v1.461L37.979,46.483z M40,43.757h-0.926l-0.024-1.291l-0.975-0.512l1.047-1.509l1.194,0.438l1.168-0.365l0.95,1.632
	l-1.096,0.485v1.121H40z M41.776,43.026v2.752l2.046,0.631l1.145-1.899l-1.12-2.336L41.776,43.026z M45.405,42.71l0.146,1.362
	l-0.463-0.681L45.405,42.71z M44.018,40.007l0.023,0.73l0.658,0.122L44.018,40.007z M43.311,39.714l-0.268-0.072v0.291l-0.705,0.316
	l0.947,1.486l0.756-0.244l0.511,0.877l0.318-0.778l-1.268-0.561L43.311,39.714z M35.007,42.004l0.245,1.022l-0.731,0.926
	l0.049-1.316L35.007,42.004z M34.741,44.072l0.438,0.951l-0.365,0.536l-0.268-1.097L34.741,44.072z M35.543,45.949l0.512,0.899
	l1.144-0.169l0.561,1.728l-0.194,0.17l-0.975-0.608l-0.95-0.924l-0.389-0.635L35.543,45.949z M38.197,48.822l1.875-0.683
	l1.631,0.683l-0.73,0.292l-1.827,0.023L38.197,48.822z M38.758,38.521l-0.487,0.973l2.094,0.853l1.948-0.706l-0.316-0.901
	l-1.193-0.439l-1.022-0.024L38.758,38.521z M42.167,48.432l0.828-1.583l0.974,0.244l0.607-0.901l0.172,0.219l-0.562,0.853
	l-0.583,0.632l-0.829,0.609l-0.34,0.122L42.167,48.432z M35.52,40.956l0.341,1.169l0.754-0.876l0.78,0.315l0.949-1.363l-0.706-0.438
	l0.122-0.391l-0.365-0.097l-0.415,1.412L35.52,40.956z"/>
<path fill="none" stroke="#FFFFFF" stroke-width="0.2091" d="M35.154,41.639l0.341,1.509L34.911,44l0.536,1.169l-0.341,0.511
	 M35.178,46.118l0.439-0.511l0.632,1.048l1.047-0.244l0.731,2.144l-0.073,0.193"/>
<path fill="none" stroke="#FFFFFF" stroke-width="0.2091" d="M38.856,44.487h2.532v1.583l1.047,0.413l-0.95,1.874l-1.413-0.511
	l-1.704,0.536l-0.634-2.07l1.096-0.414L38.856,44.487z M42.118,48.748L41.85,48.48l1.022-1.875l0.975,0.219l1.46-2.313l-0.511-0.998
	l0.487-1.168 M45.136,41.81L44.6,42.952l-0.582-1.143l-0.805,0.291l-1.217-1.972l0.729-0.341l-0.097-0.316l0.754-0.025
	 M43.579,39.788l0.171,1.121l1.047,0.414 M37.199,39.228l-0.389,1.266l-1.267,0.169 M35.252,41.078l0.536,1.534l0.876-1.072
	l0.827,0.316l1.194-1.753l-0.78-0.438l0.123-0.462l-0.682-0.171"/>
<path fill="none" stroke="#FFFFFF" stroke-width="0.2091" d="M37.76,41.979l1.071,0.633l0.048,1.486h2.582l0.072-1.268l1.29-0.609
	l-1.17-1.947l-1.337,0.389l-1.242-0.51L37.76,41.979z"/>
<path fill="#007DC4" d="M40,38.179c-3.081,0-5.579,2.498-5.579,5.578c0,3.081,2.497,5.578,5.579,5.578
	c3.081,0,5.578-2.497,5.578-5.578C45.578,40.677,43.08,38.179,40,38.179z M40,49.077c-2.938,0-5.32-2.382-5.32-5.32
	s2.382-5.321,5.32-5.321c2.939,0,5.32,2.382,5.32,5.321C45.319,46.694,42.939,49.077,40,49.077z"/>
<path fill="none" stroke="#FFFFFF" stroke-width="0.4171" d="M64.398,61.703"/>
<path fill="#FFFFFF" d="M17.426,14.999h44.999v8.376H17.426V14.999z"/>
<path fill="#007DC4" d="M20.838,16.779l2.553,4.712l-1.194,0.241l-0.483-1.014h-1.801l-0.476,1.014l-1.138-0.241l2.525-4.712H20.838
	z M20.195,19.842h1.256l-0.628-1.159L20.195,19.842z M23.641,20.926l0.807-0.794l0.808,0.794l-0.809,0.793L23.641,20.926z
	 M26.896,16.89l1.173-0.111v3.181c0,1.069-0.58,1.772-1.677,1.772c-0.145,0-0.296,0-0.435-0.048l-0.282-1.173
	c0.159,0.062,0.338,0.083,0.511,0.083c0.586,0,0.71-0.304,0.71-0.869L26.896,16.89L26.896,16.89z M28.933,20.926l0.808-0.794
	l0.807,0.794L29.74,21.72L28.933,20.926z M33.341,16.779l2.553,4.712l-1.194,0.241l-0.483-1.014h-1.8l-0.477,1.014l-1.138-0.241
	l2.526-4.712H33.341z M32.7,19.842h1.255l-0.627-1.159L32.7,19.842z M40.256,19.98c0,1.104-0.862,1.753-2.05,1.753
	c-1.103,0-1.876-0.517-1.876-1.67V16.89l1.173-0.111v2.953c0,0.504,0.145,0.924,0.731,0.924c0.759,0,0.848-0.532,0.848-1.181v-2.587
	l1.173-0.111V19.98z M42.362,19.167l-1.422-2.042l1.16-0.346l0.965,1.463l0.954-1.463l1.116,0.386l-1.399,1.98l1.515,2.201
	l-1.195,0.386l-1.013-1.601l-1.063,1.601l-1.126-0.414L42.362,19.167L42.362,19.167z M45.868,21.622v-4.733h2.677l0.207,1.001
	h-1.711v0.82h1.221v1.001h-1.221v0.911h1.856l-0.289,1L45.868,21.622L45.868,21.622z M49.554,16.89h1.332
	c1.104,0,1.909,0.386,1.909,1.462c0,0.49-0.282,1.021-0.765,1.201l1.274,1.801l-1.185,0.379l-1.38-2.235h-0.015v2.071l-1.176,0.11
	v-4.79H49.554L49.554,16.89z M50.728,19.215c0.502,0.034,0.896-0.131,0.896-0.69c0-0.565-0.415-0.655-0.896-0.634V19.215z
	 M53.736,16.89h1.331c1.104,0,1.911,0.386,1.911,1.462c0,0.49-0.282,1.021-0.765,1.201l1.276,1.801l-1.188,0.379l-1.38-2.235h-0.014
	v2.071l-1.175,0.11L53.736,16.89L53.736,16.89z M54.909,19.215c0.504,0.034,0.896-0.131,0.896-0.69c0-0.565-0.414-0.655-0.896-0.634
	V19.215z M58.029,21.622v-4.733h2.678l0.207,1.001h-1.712v0.82h1.223v1.001h-1.223v0.911h1.856l-0.289,1L58.029,21.622
	L58.029,21.622z"/>
</svg>
