<?xml version="1.0" encoding="utf-8"?>
<!-- Generator: Adobe Illustrator 16.0.0, SVG Export Plug-In . SVG Version: 6.00 Build 0)  -->
<!DOCTYPE svg PUBLIC "-//W3C//DTD SVG 1.1//EN" "http://www.w3.org/Graphics/SVG/1.1/DTD/svg11.dtd">
<svg version="1.1" id="Calque_2" xmlns="http://www.w3.org/2000/svg" xmlns:xlink="http://www.w3.org/1999/xlink" x="0px" y="0px"
	 width="80px" height="80px" viewBox="0 0 80 80" enable-background="new 0 0 80 80" xml:space="preserve">
<g>
	<path d="M39.792,72.797l8.688-4.456c9.362-0.201,15.264-5.458,15.264-5.458c6.652-5.299,3.976-15.379,3.976-15.379l2.485-1.993
		c-4.597-2.081-1.435-5.652-1.435-5.652c-7.102-1.312-5.036-8.468-5.036-8.468c1.602-6.617,5.559-11.407,5.559-11.407l-2.2-2.898
		c-9.351,2.339-14.214-3.328-14.214-3.328H48.22c0,0-2.403,2.051-8.428,2.079c-5.335,0.024-8.581-2.079-8.581-2.079h-4.603
		c0,0-4.837,5.621-14.199,3.328l-2.185,2.898c0,0,3.933,4.499,5.618,11.552c0,0,2.106,6.692-4.993,8.323
		c0,0,3.433,2.595-1.404,5.652l2.497,1.993c0,0-2.668,10.855,4.056,15.522c0,0,5.93,5.351,15.291,5.504L39.792,72.797z"/>
	<g>
		<path fill-rule="evenodd" clip-rule="evenodd" fill="#F2F2F2" d="M39.667,16.424c-5.149,0.082-8.768-2.023-8.768-2.023h-4.209
			c0,0-4.967,5.499-13.969,3.374l-1.639,2.187c0,0,4.197,5.35,5.596,11.935c0,0,1.456,6.41-4.826,8.32c0,0,1.881,2.452-0.638,4.693
			h28.453V16.424z"/>
		<path fill-rule="evenodd" clip-rule="evenodd" fill="#F2F2F2" d="M68.177,44.908h-28.51v26.993l8.49-4.175
			c8.813-0.194,14.619-5.048,14.619-5.048c6.891-5.194,4.118-15.411,4.118-15.411l2.274-1.687
			C68.603,45.337,68.268,45.016,68.177,44.908z"/>
		<path fill-rule="evenodd" clip-rule="evenodd" fill="#808080" d="M68.177,44.908c-2.141-2.018-0.418-4.693-0.418-4.693
			c-6.81-1.666-4.741-8.949-4.741-8.949c1.464-6.532,5.297-11.244,5.297-11.244l-1.696-2.202C57.455,19.808,52.422,14.4,52.422,14.4
			h-4.138c0,0-2.864,2.032-8.557,2.024c-0.021,0-0.041-0.001-0.061-0.001v28.484H68.177z"/>
		<path fill-rule="evenodd" clip-rule="evenodd" fill="#808080" d="M11.214,44.908c-0.232,0.207-0.5,0.412-0.811,0.612l2.228,1.747
			c0,0-2.645,10.884,3.82,15.184c0,0,6.206,5.314,15.021,5.464l8.195,3.986V44.908H11.214z"/>
	</g>
	<g>
		<path d="M38.074,30.904c-0.772-0.23-0.91-0.3-2.414-1.268c-1.504-0.967-1.531-1.577-2.287-1.647
			c-0.756-0.071-1.785,0.347-2.548,0.32s-1.812-0.128-1.812-0.128s-0.546-0.57-1.139-0.856c-0.593-0.287-1.275-0.72-1.275-0.72
			s-0.494-0.319-0.682-0.599c-0.189-0.28-0.55-0.548-0.55-0.548s0.137,0.07,0.384,0.002c0.245-0.067,0.288-0.194,0.288-0.194
			l1.911,1.602c0,0-0.877-1.223-0.594-1.257c0.151-0.018,0.208,0.144,0.344,0.036c-0.394,0.311,0.935,0.411,0.938,0.443
			c-0.042-0.522,0.412-0.945-0.438-2.511c-0.851-1.565-1.248-2.422-1.248-2.422l4.597-3.441l-5.772,2.421
			c0,0-0.625-1.122-0.968-1.116c-0.342,0.005-0.633,1.385-0.633,1.385s-2.442,1.619-2.565,3.859s0.575,3.445,1.266,5.823
			c0.692,2.378-1.546,5.63-3.867,6.64c-2.32,1.011-0.925,0.437-1.725,0.627c-0.799,0.19-1.534,0.773-1.891,2.029
			c-0.356,1.256-0.276,1.807-0.276,1.807l0.339-0.117c0,0-0.06,0.885,0.056,1.6c0.116,0.716,0.762,1.46,0.762,1.46l0.049-0.169
			c0,0,0.127,0.134,0.268,0.316c0.141,0.183,0.464,0.285,0.464,0.285s0.001-0.134,0.012-0.199c0.01-0.065,0.133,0.227,0.691,0.464
			c0.559,0.234,0.879,0.359,0.879,0.359l0.993,1.48c0,0,1.22,1.654,1.032,2.404c-0.188,0.748-0.262,0.937-0.262,0.937l2.011,0.611
			c0,0,0.04-0.373-0.367-1.007c-0.407-0.632-0.466-0.667-0.466-0.667s-0.36-1.05-0.798-1.623c-0.439-0.57-0.729-1.788-0.729-1.788
			s0.808-0.369,1.13-0.132c0.306,0.227,0.973-0.338,0.973-0.338s0.867,0.047,1.054,0.595c0.187,0.55,0.86,0.471,0.404,0.007
			c-0.457-0.463-1.384-1.818-1.384-1.818l0.015-0.222l-0.725-0.132l1.238-1.298c0,0,1.594,0.94,1.826,1.988
			c0.232,1.051-0.521,2.257-0.646,2.884c-0.125,0.627,1.061,1.066,1.061,1.066s0.88,0.741,1.101,1.341
			c0.222,0.601,0.033,0.835,0.033,0.835l1.904,0.346c0,0-0.062-0.525-0.563-0.976c-0.502-0.449-1.087-1.294-1.087-1.294
			s-1.164-1.085-1.069-2.052c0.096-0.97,1.856-2.978,1.51-3.465c-0.346-0.488-1.46-2.394-1.46-2.394s-0.961-1.54-0.406-2.447
			c0.555-0.906,2.908-0.433,4.099-2.747c1.192-2.313,1.208-3.318,1.477-3.784c0.269-0.467,1.802-1.486,2.143-1.357
			c0.341,0.129,0.937,1.044,0.844,1.475c-0.092,0.431-0.554,1.422-1.254,1.652c-0.698,0.232-1.281,0.529-1.281,0.529l0.602,1.654
			c0,0,0.484-0.091,0.767-0.51c0.282-0.419-0.162-0.567,0.793-1.58c0.956-1.013,1.651-1.088,1.684-1.418
			c0.033-0.33-0.266-0.586-0.63-1.481c-0.364-0.895-0.191-0.907-0.191-0.907s0.62,0.247,1.464,0.691
			c0.843,0.444,1.516,0.633,1.681,1.313s-0.167,0.753-0.167,0.753l1.788,0.28C38.776,32.599,38.847,31.134,38.074,30.904z
			 M18.185,41.213c-0.131-0.139-0.321-0.124-0.321-0.124l0.06-0.102c0,0-0.359-0.674-0.399-0.812
			c-0.034-0.12-0.085-0.643-0.085-0.643l0.127,0.001c0,0-0.013-1.044,0.042-1.157c0.129-0.268,0.857-0.157,0.857-0.157
			s-0.189,1.018,0.203,1.738c0.394,0.722,0.964,2.303,0.964,2.303S18.566,41.618,18.185,41.213z"/>
		<path fill="#CCCCCC" stroke="#000000" stroke-width="0.0618" d="M24.596,38.244c0,0-0.102,1.392,0.634,2.49
			c0.736,1.095,0.955,1.449,1.088,2.189c0.134,0.741-1.059,2.674-1.136,3.397c-0.077,0.726,0.682,1.558,1.038,1.98
			c0.357,0.424,0.785,1.062,0.785,1.062s0.452,0.238,0.707,0.754c0.256,0.518,0.149,0.385,0.149,0.385l-1.052-0.212
			c0,0-0.527-1.328-1.128-1.817c-0.602-0.49-1.014-0.834-1.146-1.328c-0.132-0.494,0.484-1.904,0.56-2.875
			c0.075-0.974-2.221-2.309-2.221-2.309s0.412-0.304,0.649-1.224c0.237-0.92,0.174-0.932,0.327-1.464
			C24.002,38.74,24.596,38.244,24.596,38.244z"/>
		<path fill="#CCCCCC" stroke="#000000" stroke-width="0.0618" d="M26.791,21.308c0,0,0.877,1.355,1.649,2.616
			c0.916,1.496,0.833,1.37,0.877,2.004c-0.002-0.037-0.593,0.858-0.593,0.858s-0.143-0.352-0.207-0.397
			c-0.253-0.183-0.588-0.563-0.645-0.515c-0.088,0.075-0.04-0.013-0.155,0.027c-0.293,0.101,0.452,0.433,0.491,0.705
			c0.035,0.244,0.309,0.17,0.284,0.203c-0.116,0.149-0.464,0.285-0.464,0.285l-0.361-0.487l-1.213-1.301c0,0-0.461,0.05-0.792-0.021
			c-0.659-0.142-0.529,0.239-0.529,0.239s0.206-0.343,0.722,0.534c0.516,0.878,0.489,0.783,0.489,0.783s0.787,0.143,1.5,0.474
			c0.713,0.332,1.193,0.911,1.193,0.911s1.177,0.102,2.117,0.094c0.939-0.008,1.622-0.265,2.128-0.105
			c0.507,0.159,2.401,1.601,3.553,2.124c1.15,0.522,1.118,0.584,1.392,1.126c0.273,0.543,0.067,0.886,0.067,0.886L37.1,32.199
			c0,0,0.162-1.086-0.313-1.333c-0.864-0.448-1.519-0.746-1.519-0.746l-1.371-0.679c0,0-0.003-0.69-0.859-0.801
			c-0.638-0.139-1.147-0.02-1.924,0.035c-0.777,0.056-1.998-0.185-1.998-0.185l1.945,0.382c0,0,1.753-0.125,2.263-0.041
			c0.303,0.049,0.737,1.544,0.821,1.755c0.242,0.604,0.52,0.856,0.476,1.251c-0.044,0.395-0.914,0.751-1.268,1.09
			c-0.355,0.338-0.812,1.174-0.812,1.174s-0.168,0.372-0.422,0.617c-0.391,0.377-0.401,0.106-0.401,0.106l-0.415-1.106
			c0,0,0.613-0.201,1.188-0.612c0.75-0.536,0.894-0.89,1.066-1.553c0.173-0.663-0.925-1.758-0.925-1.758
			c-0.235-0.065-1.682,0.825-2.094,1.511c-0.206,0.343-0.511,1.452-1.008,2.459c-0.497,1.006-0.486,1.49-1.444,2.256
			c-0.958,0.766-3.324,1.276-3.902,1.551c-0.579,0.276-0.865,2.53-1.108,3.359c-0.244,0.828-1.127,1.921-1.822,2.511
			s-1.229,1.636-1.229,1.636s0.579-0.672,0.78-0.918c0.201-0.248,0.739-0.664,0.739-0.664l0.679,0.146l-0.056,0.213l0.456,0.598
			l1.046,1.288c0,0-0.111,0.672-0.424-0.145c-0.222-0.58-1.11-0.896-1.11-0.896s-0.532,0.658-0.918,0.527
			c-1.01-0.341-1.127,0.243-1.127,0.243s0.075,0.707,0.389,1.391s0.453,0.62,0.622,1.009c0.171,0.39,0.45,1.023,0.45,1.023
			s0.332,0.44,0.588,0.957c0.256,0.517,0.196,0.617,0.196,0.617l-1.823-0.577c0,0,0.231-0.495,0.279-1.047
			c0.048-0.552-0.42-1.33-0.921-2.429c-0.781-1.082-0.801-1.221-0.788-1.821c0.014-0.603,1.06-1.511,1.116-2.238
			c0.056-0.729-0.349-1.116-0.948-2.144c-0.598-1.025-0.564-2.139-0.564-2.139s-0.403-0.141-0.912-0.032
			c-0.417,0.089-0.273,1.271-0.273,1.271s-0.203-0.077-0.201,0.053c0.01,0.718,0.156,1.125,0.156,1.125l0.336,0.418l-0.197,0.033
			l2.001,1.438c0,0,0.19,0.146-0.016,0.49c-0.206,0.343-0.436,0.704-0.774,1.202c-0.338,0.498-0.203,0.836-0.203,0.836l-1.532-0.792
			l-0.091,0.162l-0.663-0.561l-0.06,0.16c0,0-0.184-0.385-0.579-1.27c-0.219-0.488-0.163-1.732-0.163-1.732
			s-0.154,0.146-0.142-0.047c0.028-0.424,0.142-1.252,0.53-1.919c0.565-0.972,1.003-1.295,1.75-1.563
			c0.748-0.267,2.302-0.769,3.6-1.786c2.229-1.878,2.765-2.46,2.441-4.975c-0.324-2.514-1.731-4.083-1.664-6.594
			c0.068-2.51,2.277-3.804,2.277-3.804s0.33-1.006,0.505-1.042c0.177-0.035,1.334,1.609,1.334,1.609l4.946-2.724L26.791,21.308z"/>
		<path stroke="#000000" stroke-width="0.1102" d="M25.799,22.082l0.134-0.125c0,0,0.36-0.042,0.595,0.26
			c0.235,0.302,0.261,0.945,0.261,0.945s-0.208-0.411-0.4-0.733C26.198,22.107,25.799,22.082,25.799,22.082z"/>
	</g>
	<g>
		<path d="M59.751,42.263c0,0,0.571-1.581,0.964-2.302c0.394-0.72,0.204-1.738,0.204-1.738s0.728-0.11,0.857,0.157
			c0.055,0.112,0.042,1.157,0.042,1.157l0.127-0.002c0,0-0.051,0.523-0.086,0.643c-0.039,0.139-0.398,0.811-0.398,0.811l0.06,0.101
			c0,0-0.19-0.013-0.32,0.125C60.818,41.622,59.751,42.263,59.751,42.263z M40.609,32.602l1.786-0.281c0,0-0.331-0.074-0.166-0.753
			c0.165-0.679,0.838-0.869,1.682-1.313c0.844-0.444,1.464-0.692,1.464-0.692s0.172,0.014-0.192,0.908
			c-0.363,0.895-0.662,1.151-0.629,1.48c0.033,0.33,0.728,0.405,1.684,1.418s0.512,1.161,0.793,1.579
			c0.282,0.419,0.766,0.51,0.766,0.51l0.603-1.654c0,0-0.582-0.297-1.282-0.528c-0.698-0.23-1.16-1.222-1.253-1.652
			c-0.092-0.431,0.504-1.346,0.845-1.475s1.875,0.89,2.144,1.356c0.269,0.466,0.284,1.471,1.477,3.784
			c1.192,2.313,3.545,1.84,4.1,2.747c0.554,0.907-0.406,2.447-0.406,2.447s-1.115,1.903-1.461,2.393
			c-0.347,0.488,1.414,2.497,1.509,3.465c0.097,0.968-1.068,2.053-1.068,2.053s-0.586,0.845-1.087,1.295
			c-0.501,0.449-0.563,0.976-0.563,0.976l1.903-0.347c0,0-0.187-0.234,0.033-0.834c0.222-0.601,1.102-1.343,1.102-1.343
			s1.185-0.439,1.061-1.065c-0.124-0.627-0.878-1.833-0.646-2.883c0.231-1.051,1.827-1.989,1.827-1.989l1.237,1.297l-0.727,0.133
			l0.017,0.222c0,0-0.928,1.354-1.386,1.818c-0.455,0.464,0.218,0.542,0.405-0.007s1.053-0.595,1.053-0.595s0.667,0.563,0.974,0.339
			c0.323-0.238,1.129,0.13,1.129,0.13s-0.289,1.218-0.728,1.789c-0.438,0.572-0.799,1.623-0.799,1.623s-0.058,0.033-0.465,0.667
			c-0.409,0.634-0.368,1.007-0.368,1.007l2.011-0.611c0,0-0.074-0.188-0.262-0.938c-0.188-0.748,1.032-2.403,1.032-2.403
			l0.993-1.479c0,0,0.32-0.125,0.878-0.361c0.558-0.235,0.682-0.526,0.692-0.462c0.011,0.065,0.011,0.2,0.011,0.2
			s0.325-0.104,0.466-0.286c0.14-0.183,0.267-0.317,0.267-0.317l0.049,0.17c0,0,0.645-0.744,0.762-1.46
			c0.117-0.714,0.057-1.6,0.057-1.6l0.339,0.118c0,0,0.079-0.552-0.277-1.809c-0.356-1.255-1.092-1.838-1.892-2.029
			c-0.798-0.19,0.598,0.384-1.724-0.626c-2.319-1.012-4.559-4.263-3.867-6.641s1.389-3.584,1.266-5.824
			c-0.122-2.24-2.564-3.858-2.564-3.858s-0.291-1.38-0.633-1.385c-0.343-0.005-0.968,1.117-0.968,1.117l-5.772-2.421l4.598,3.44
			c0,0-0.396,0.857-1.247,2.423c-0.851,1.564-0.397,1.988-0.439,2.51c0.003-0.032,1.332-0.132,0.938-0.442
			c0.138,0.107,0.193-0.054,0.345-0.036c0.282,0.034-0.593,1.257-0.593,1.257l1.909-1.602c0,0,0.043,0.126,0.288,0.194
			c0.246,0.067,0.384-0.002,0.384-0.002s-0.36,0.267-0.55,0.548c-0.188,0.28-0.683,0.599-0.683,0.599s-0.683,0.433-1.274,0.72
			c-0.593,0.287-1.139,0.856-1.139,0.856s-1.049,0.102-1.812,0.128c-0.765,0.027-1.792-0.39-2.549-0.32
			c-0.756,0.07-0.782,0.68-2.286,1.647s-1.643,1.037-2.414,1.267S40.609,32.602,40.609,32.602z"/>
		<path fill="#CCCCCC" stroke="#000000" stroke-width="0.0618" d="M54.789,38.247c0,0,0.103,1.392-0.635,2.488
			c-0.735,1.098-0.955,1.451-1.088,2.191c-0.135,0.74,1.059,2.674,1.136,3.397c0.077,0.726-0.682,1.558-1.039,1.981
			c-0.355,0.422-0.783,1.06-0.783,1.06s-0.451,0.239-0.707,0.756c-0.257,0.517-0.15,0.385-0.15,0.385l1.053-0.213
			c0,0,0.526-1.328,1.129-1.816c0.602-0.492,1.015-0.835,1.146-1.329c0.131-0.495-0.486-1.903-0.562-2.876
			c-0.074-0.972,2.223-2.307,2.223-2.307s-0.414-0.306-0.651-1.226c-0.236-0.92-0.175-0.932-0.325-1.462
			C55.383,38.743,54.789,38.247,54.789,38.247z"/>
		<path fill="#CCCCCC" stroke="#000000" stroke-width="0.0618" d="M52.595,21.31c0,0-0.878,1.354-1.649,2.616
			c-0.916,1.497-0.877,2.005-0.877,2.005l0.594,0.858c0,0,0.142-0.352,0.206-0.397c0.253-0.183,0.589-0.563,0.646-0.515
			c0.088,0.075,0.039-0.013,0.154,0.027c0.293,0.101-0.452,0.434-0.491,0.705c-0.034,0.244-0.309,0.17-0.283,0.203
			c0.117,0.149,0.465,0.284,0.465,0.284l0.361-0.487l1.212-1.301c0,0,0.461,0.049,0.793-0.022c0.658-0.142,0.53,0.239,0.53,0.239
			s-0.18-0.325-0.723,0.535c-0.458,0.727-0.489,0.783-0.489,0.783s-0.786,0.143-1.5,0.475c-0.713,0.331-1.192,0.911-1.192,0.911
			s-1.177,0.103-2.116,0.094c-0.94-0.008-1.622-0.265-2.129-0.105c-0.507,0.16-2.402,1.601-3.552,2.124
			c-1.15,0.522-1.118,0.584-1.393,1.126c-0.272,0.542-0.068,0.886-0.068,0.886l1.191-0.149c0,0-0.161-1.086,0.313-1.333
			c0.864-0.448,1.519-0.746,1.519-0.746l1.37-0.679c0,0,0.003-0.69,0.859-0.801c0.638-0.139,1.148-0.02,1.925,0.036
			c0.778,0.055,1.998-0.185,1.998-0.185l-1.945,0.382c0,0-1.752-0.124-2.264-0.041c-0.303,0.049-0.736,1.545-0.821,1.755
			c-0.241,0.604-0.52,0.856-0.475,1.251c0.043,0.396,0.913,0.752,1.266,1.09c0.354,0.339,0.813,1.173,0.813,1.173
			s0.169,0.373,0.421,0.618c0.392,0.377,0.402,0.106,0.402,0.106l0.415-1.105c0,0-0.614-0.201-1.188-0.612
			c-0.749-0.536-0.893-0.89-1.066-1.552c-0.174-0.663,0.926-1.759,0.926-1.759c0.234-0.064,1.682,0.825,2.093,1.512
			c0.206,0.342,0.512,1.452,1.009,2.458c0.496,1.007,0.485,1.49,1.442,2.256c0.959,0.766,3.324,1.277,3.903,1.552
			c0.578,0.275,0.864,2.529,1.107,3.357c0.243,0.83,1.128,1.923,1.822,2.514c0.695,0.589,1.229,1.634,1.229,1.634
			s-0.58-0.671-0.78-0.918c-0.201-0.247-0.738-0.664-0.738-0.664l-0.68,0.146l0.056,0.213l-0.456,0.598l-1.046,1.288
			c0,0,0.112,0.674,0.424-0.144c0.223-0.58,1.11-0.896,1.11-0.896s0.533,0.657,0.92,0.526c1.01-0.339,1.127,0.243,1.127,0.243
			s-0.076,0.708-0.389,1.392c-0.313,0.684-0.452,0.619-0.623,1.008c-0.17,0.391-0.45,1.023-0.45,1.023s-0.332,0.441-0.587,0.957
			c-0.257,0.519-0.197,0.617-0.197,0.617l1.824-0.577c0,0-0.231-0.494-0.28-1.046c-0.048-0.551,0.42-1.33,0.922-2.429
			c0.781-1.083,0.801-1.221,0.787-1.822c-0.015-0.603-1.059-1.51-1.115-2.237c-0.057-0.729,0.35-1.115,0.947-2.143
			s0.563-2.141,0.563-2.141s0.403-0.14,0.912-0.031c0.417,0.089,0.273,1.271,0.273,1.271s0.202-0.077,0.201,0.052
			c-0.01,0.719-0.155,1.126-0.155,1.126l-0.337,0.419l0.198,0.031l-2.003,1.438c0,0-0.188,0.146,0.018,0.49
			c0.206,0.343,0.436,0.704,0.773,1.202s0.201,0.837,0.201,0.837l1.533-0.795l0.091,0.163l0.663-0.56l0.061,0.16
			c0,0,0.183-0.386,0.579-1.271c0.218-0.487,0.162-1.73,0.162-1.73s0.153,0.146,0.142-0.049c-0.027-0.424-0.142-1.25-0.529-1.918
			c-0.566-0.972-1.004-1.295-1.751-1.563c-0.748-0.267-2.302-0.768-3.6-1.786c-2.229-1.879-2.766-2.46-2.441-4.974
			S57.419,26.509,57.35,24c-0.066-2.511-2.275-3.804-2.275-3.804s-0.329-1.006-0.506-1.041c-0.176-0.035-1.334,1.608-1.334,1.608
			l-4.945-2.724L52.595,21.31z"/>
		<path stroke="#000000" stroke-width="0.1102" d="M53.586,22.085l-0.134-0.124c0,0-0.36-0.043-0.596,0.259
			c-0.234,0.303-0.261,0.945-0.261,0.945s0.208-0.411,0.398-0.733C53.188,22.111,53.586,22.085,53.586,22.085z"/>
	</g>
	<g>
		<g>
			<path fill-rule="evenodd" clip-rule="evenodd" fill="#0075BB" stroke="#000000" stroke-width="0.1237" d="M50.68,50.725
				c-0.569,0.564-1.091,0.985-1.566,1.264c-0.827,0.494-1.732,0.739-2.716,0.739c-0.541,0-1.045-0.088-1.513-0.257
				c-0.702-0.254-1.321-0.696-1.854-1.333c-0.05-0.06-0.094-0.126-0.142-0.188C42.1,49.91,41.7,48.559,41.7,46.881
				c0-0.028,0.003-0.054,0.003-0.081l-0.031-1.809c0.059,0.038,0.113,0.077,0.171,0.114c0.187-1.11,0.558-2.04,1.122-2.778
				c0.303-0.396,0.637-0.716,1-0.97c-0.13-0.37-0.276-0.707-0.439-1.013c-0.863,0.345-1.625,0.878-2.279,1.612
				c-1.167,1.317-1.751,2.944-1.751,4.885c0,0.019,0.001,0.036,0.001,0.056l-0.279-0.183l0.122,0.553
				c0.066,0.165,0.08,0.548,0.195,0.88c0.116,0.332,0.196,0.674,0.196,0.732c0,0.031,0.008,0.048,0.023,0.051
				c0.265,0.999,0.731,1.883,1.401,2.65c0.394,0.449,0.837,0.816,1.32,1.117c0.519,0.325,1.09,0.563,1.712,0.717
				c0.567,0.142,1.172,0.219,1.824,0.219c1.241,0,2.394-0.357,3.456-1.07c0.624-0.422,1.146-0.911,1.566-1.47L50.68,50.725z"/>
			<path fill-rule="evenodd" clip-rule="evenodd" fill="#0075BB" stroke="#000000" stroke-width="0.1237" d="M46.223,40.673
				c1.315,0,2.363,0.513,3.142,1.537c0.407,0.546,0.739,1.262,0.991,2.15h0.435l-0.176-4.475h-0.398
				c-0.062,0.22-0.173,0.383-0.333,0.487c-0.162,0.102-0.33,0.155-0.51,0.155c-0.086,0-0.49-0.108-1.214-0.322
				c-0.723-0.214-1.427-0.32-2.112-0.32c-0.489,0-0.956,0.042-1.4,0.127l0.092,0.933C45.195,40.766,45.688,40.673,46.223,40.673z"/>
		</g>
		<path fill-rule="evenodd" clip-rule="evenodd" fill="#0075BB" stroke="#000000" stroke-width="0.1237" d="M38.121,38.238
			l-0.497-1.187l-1.26-3.013h-0.445L31.17,45.772c-0.712,1.761-1.214,2.837-1.507,3.233c-0.292,0.397-0.732,0.632-1.317,0.701v0.432
			h4.514v-0.432c-0.534-0.046-0.897-0.116-1.089-0.211c-0.311-0.154-0.467-0.435-0.467-0.839c0-0.204,0.058-0.477,0.173-0.824
			c0.114-0.347,0.469-1.302,1.062-2.867h4.1c-0.308-0.25-0.579-0.499-0.8-0.753c-0.061-0.071-0.115-0.143-0.171-0.216h-2.729
			l2.602-6.585l0.342,0.854l1.1,2.748c0,0,0.395,0.713,0.623,0.993c0.396,0.493,1.009,1.009,1.841,1.544l1.23,0.797L38.121,38.238z"
			/>
		<g>
			<path fill-rule="evenodd" clip-rule="evenodd" fill="#CCCCCC" stroke="#000000" stroke-width="0.1237" d="M44.61,47.47
				c-0.543-0.72-1.47-1.509-2.768-2.364c-0.058-0.037-1.166-0.757-1.166-0.757l0,0l-1.23-0.797
				c-0.832-0.535-1.403-1.089-1.841-1.544c-0.253-0.263-0.623-0.993-0.623-0.993l-1.1-2.748c-0.743,0.861-1.12,1.917-1.12,3.171
				c0,0.926,0.305,1.778,0.905,2.56c0.056,0.073,0.11,0.145,0.171,0.216c0.221,0.254,0.492,0.503,0.8,0.753
				c0.229,0.187,0.479,0.373,0.757,0.557l1.821,1.192l0.341,0.223c1.244,0.813,2.06,1.423,2.447,1.829
				c0.38,0.411,0.637,0.869,0.773,1.372c0.069,0.258,0.104,0.529,0.11,0.811c0.048,0.063,0.092,0.129,0.142,0.188
				c0.533,0.637,1.152,1.079,1.854,1.333c0.377-0.682,0.566-1.448,0.566-2.303C45.451,49.131,45.172,48.23,44.61,47.47z"/>
			<path fill-rule="evenodd" clip-rule="evenodd" fill="#CCCCCC" stroke="#000000" stroke-width="0.1237" d="M42.011,53.269
				c-0.589,0.536-1.287,0.805-2.095,0.805c-1.492,0-2.739-0.619-3.744-1.855c-0.577-0.709-1.079-1.661-1.507-2.854h-0.58
				l0.753,5.657h0.556c0.033-0.218,0.101-0.42,0.204-0.61c0.103-0.19,0.303-0.285,0.599-0.285c0.124,0,0.611,0.155,1.464,0.467
				c0.853,0.312,1.669,0.467,2.452,0.467c1.559,0,2.835-0.467,3.837-1.401c0.084-0.078,0.159-0.16,0.235-0.242
				c-0.622-0.154-1.193-0.392-1.712-0.717C42.347,52.909,42.195,53.1,42.011,53.269z"/>
			<path fill-rule="evenodd" clip-rule="evenodd" fill="#CCCCCC" stroke="#000000" stroke-width="0.1237" d="M39.595,37.83
				c0.89,0,1.789,0.337,2.699,1.012c0.482,0.356,0.89,0.861,1.231,1.503c0.163,0.306,0.31,0.643,0.439,1.013
				c0.116,0.327,0.221,0.675,0.313,1.053h0.605l-0.145-1.465l-0.092-0.933l-0.319-3.259h-0.52c-0.065,0.286-0.158,0.506-0.278,0.662
				c-0.12,0.155-0.336,0.233-0.647,0.233c-0.115,0-0.579-0.149-1.39-0.447c-0.813-0.298-1.506-0.447-2.083-0.447
				c-0.657,0-1.25,0.102-1.786,0.297l0.497,1.187C38.557,37.97,39.047,37.83,39.595,37.83z"/>
		</g>
	</g>
	<path d="M31.63,24.318c0.041,0.439,0.056,0.807,0.115,1.196c-0.079,0.031-0.155,0.055-0.231,0.091
		c-0.076,0.037-0.148,0.083-0.222,0.125l-0.138-4.121c0.066-0.02,0.126-0.042,0.188-0.072s0.117-0.062,0.174-0.1l2.835,2.845
		c-0.142,0.056-0.282,0.104-0.421,0.17c-0.138,0.066-0.265,0.144-0.399,0.22c-0.271-0.318-0.518-0.611-0.791-0.885L31.63,24.318z
		 M32.5,23.535l-0.93-0.964l0.057,1.38L32.5,23.535z"/>
	<path d="M37.242,19.822c0.074-0.004,0.149-0.003,0.221-0.018c0.071-0.015,0.146-0.047,0.215-0.074
		c0.435,1.417,0.776,2.568,1.154,3.604c-0.146,0.02-0.288,0.033-0.431,0.063c-0.144,0.03-0.27,0.073-0.411,0.114
		c-0.204-0.849-0.463-1.652-0.698-2.466c-0.234,0.906-0.462,1.813-0.668,2.725c-0.069,0.003-0.131,0.01-0.195,0.041
		c-0.47-0.675-1.034-1.427-1.585-2.191c0.062,0.974,0.122,1.74,0.25,2.499c-0.083,0.006-0.164,0.006-0.246,0.023
		c-0.083,0.017-0.151,0.048-0.231,0.076c-0.021-1.122-0.095-2.408-0.179-3.808c0.074-0.004,0.144-0.002,0.216-0.017
		c0.072-0.016,0.141-0.047,0.21-0.073c0.531,0.769,1.096,1.525,1.663,2.287C36.751,21.763,37.027,20.825,37.242,19.822z"/>
	<path d="M39.245,19.671c0.131,0.008,0.262,0.022,0.394,0.02c0.13-0.002,0.262-0.022,0.392-0.035l0.07,3.771
		c-0.13-0.008-0.263-0.022-0.393-0.02c-0.13,0.003-0.261,0.022-0.392,0.036L39.245,19.671z"/>
	<path d="M42.977,19.882c-0.019,0.075-0.042,0.156-0.048,0.232c-0.007,0.077,0,0.161,0.003,0.238
		c-0.313-0.077-0.664-0.158-1.195-0.203l-0.114,1.176l0.542,0.057c0.235,0.024,0.451,0.025,0.646,0.019
		c-0.017,0.076-0.041,0.156-0.048,0.232s0,0.16,0.004,0.238c-0.19-0.047-0.402-0.092-0.637-0.116l-0.542-0.057l-0.133,1.39
		c0.531,0.05,0.889,0.061,1.211,0.05c-0.018,0.076-0.041,0.156-0.048,0.232c-0.008,0.077,0,0.16,0.004,0.238l-1.985-0.21
		l0.356-3.727L42.977,19.882z"/>
	<path d="M44.121,20.068l0.497,0.154c0.482,1.039,1.007,2.073,1.475,3.142l0.695-2.467c0.063,0.031,0.132,0.058,0.196,0.078
		c0.065,0.02,0.138,0.037,0.206,0.047l-1.021,3.617l-0.426-0.137c-0.39-0.862-0.749-1.679-1.141-2.482l-0.377-0.771l-0.72,2.552
		c-0.063-0.025-0.132-0.059-0.196-0.079c-0.065-0.02-0.14-0.032-0.206-0.047L44.121,20.068z"/>
	<path d="M49.537,23.022c0.033-0.31-0.062-0.571-0.327-0.714c-0.368-0.199-0.611-0.076-0.747,0.202
		c-0.324,0.66,1.15,1.303,0.602,2.421c-0.308,0.626-1.039,0.799-1.76,0.408c-0.256-0.138-0.501-0.35-0.646-0.615
		c0.155-0.176,0.308-0.353,0.439-0.548l0.088,0.048c-0.096,0.375,0.058,0.711,0.378,0.885c0.289,0.156,0.629,0.123,0.794-0.214
		c0.384-0.782-1.142-1.249-0.564-2.426c0.275-0.562,0.871-0.828,1.578-0.445c0.335,0.181,0.568,0.474,0.621,0.632
		c-0.133,0.126-0.259,0.263-0.388,0.404L49.537,23.022z"/>
	<path d="M26.705,56.676c-0.093-0.108-0.181-0.222-0.282-0.321c-0.1-0.101-0.212-0.188-0.32-0.28l2.623-2.892l1.529,1.53
		c-0.062,0.051-0.131,0.102-0.184,0.16c-0.054,0.06-0.1,0.136-0.145,0.203c-0.218-0.274-0.452-0.566-0.873-0.987l-0.822,0.906
		l0.425,0.427c0.156,0.154,0.332,0.3,0.52,0.446c-0.062,0.051-0.131,0.102-0.185,0.16c-0.053,0.06-0.099,0.136-0.144,0.202
		c-0.153-0.185-0.294-0.367-0.455-0.528l-0.422-0.421L26.705,56.676z"/>
	<path d="M30.158,59.523c-1.059-0.647-1.409-1.738-0.776-2.881c0.556-1,1.699-1.386,2.892-0.655
		c1.365,0.835,1.207,2.093,0.779,2.876C32.513,59.847,31.332,60.241,30.158,59.523z M30.096,57.275
		c-0.363,0.654-0.465,1.521,0.253,1.961c0.737,0.451,1.499-0.121,1.961-0.956c0.36-0.648,0.486-1.569-0.232-2.009
		C31.412,55.865,30.721,56.148,30.096,57.275z"/>
	<path d="M35.157,61.65c-1.192-0.299-1.829-1.238-1.536-2.522c0.257-1.127,1.246-1.843,2.59-1.506
		c1.537,0.386,1.73,1.639,1.536,2.518C37.501,61.244,36.478,61.982,35.157,61.65z M34.479,59.518
		c-0.167,0.735-0.028,1.598,0.782,1.8c0.83,0.209,1.401-0.569,1.615-1.51c0.166-0.731,0.033-1.65-0.776-1.854
		C35.352,57.767,34.768,58.248,34.479,59.518z"/>
	<path d="M40.092,62.132c-0.139-0.01-0.279-0.026-0.417-0.025s-0.277,0.02-0.416,0.03l-0.019-3.58
		c-0.394,0.003-0.743,0.046-1.03,0.089c0.01-0.083,0.027-0.163,0.026-0.251c0-0.082-0.018-0.163-0.029-0.244l2.855-0.018
		c-0.011,0.082-0.026,0.164-0.026,0.245c0,0.087,0.019,0.169,0.028,0.25c-0.326-0.038-0.654-0.078-0.993-0.075L40.092,62.132z"/>
	<path d="M41.543,58.069l1.399-0.313c0.547-0.122,1.117-0.046,1.254,0.62c0.107,0.535-0.259,0.938-0.707,1.109l0.012,0.051
		c0.409-0.049,1.023,0.016,1.166,0.722c0.159,0.786-0.446,1.267-1.087,1.41l-1.252,0.28L41.543,58.069z M42.695,59.563
		c0.233-0.051,0.443-0.075,0.595-0.28c0.139-0.187,0.158-0.424,0.112-0.646c-0.082-0.408-0.349-0.582-0.707-0.502
		c-0.087,0.02-0.167,0.044-0.272,0.085L42.695,59.563z M43.074,61.437l0.271-0.061c0.3-0.067,0.586-0.417,0.49-0.89
		c-0.127-0.626-0.501-0.769-1.073-0.594L43.074,61.437z"/>
	<path d="M46.094,59.602c0.047,0.465,0.066,0.854,0.132,1.265c-0.082,0.034-0.163,0.06-0.243,0.1
		c-0.08,0.039-0.155,0.089-0.234,0.134l-0.184-4.36c0.069-0.021,0.132-0.046,0.197-0.077c0.066-0.033,0.125-0.067,0.185-0.109
		l3.028,2.982c-0.15,0.061-0.299,0.113-0.443,0.185c-0.146,0.071-0.28,0.156-0.421,0.238c-0.29-0.334-0.555-0.642-0.847-0.929
		L46.094,59.602z M47.005,58.764l-0.992-1.011l0.074,1.461L47.005,58.764z"/>
	<path d="M50.263,58.004c0.386-0.302,0.693-0.592,0.972-0.86c0.038,0.071,0.074,0.151,0.12,0.218
		c0.048,0.064,0.111,0.126,0.166,0.183l-1.688,1.317l-2.251-3.183c0.117-0.077,0.238-0.15,0.35-0.236
		c0.111-0.087,0.212-0.188,0.316-0.284L50.263,58.004z"/>
	<path d="M52.642,55.81c0.332-0.368,0.585-0.71,0.815-1.026c0.049,0.065,0.098,0.137,0.154,0.193
		c0.056,0.057,0.129,0.103,0.192,0.152l-1.443,1.603l-2.745-2.723c0.104-0.098,0.211-0.191,0.307-0.298
		c0.094-0.104,0.177-0.224,0.265-0.336L52.642,55.81z"/>
	<g>
		<g>
			<path fill="#CCCCCC" stroke="#000000" stroke-width="0.0433" d="M58.644,54.367l0.491-0.332c-0.023,0.236-0.169,0.64-0.177,0.884
				c0.289,0,0.675,0.188,0.828,0.442c-0.328-0.025-0.7,0-0.841,0.41c-0.064,0.177,0.004,0.437,0.035,0.641
				c0,0-0.171,0.098-0.211,0.053c-0.044-0.047-0.093-0.318-0.105-0.325c-0.138-0.111-0.26-0.221-0.49-0.079l-0.405,0.563
				c-0.04-0.345-0.131-0.721,0.115-1.022c-0.061-0.056-0.191-0.118-0.191-0.118c-0.241-0.11-0.563-0.249-0.796-0.399
				c0.224-0.125,0.44-0.19,0.621-0.468c0.381-0.716,0.342-1.564,0.125-2.372C58.045,52.865,58.33,53.711,58.644,54.367z"/>
			<path fill="#CCCCCC" stroke="#000000" stroke-width="0.0433" d="M59.19,57.704c0.353,0,0.731-0.531,1.052-0.733l0.13,0.167
				c-0.36,0.294-1.18,1.127-1.724,1.977c0.113,0.076,0.325,0.081,0.469,0.014l-0.026,0.491c-1.42,0.496-2.474,1.138-3.355,2.652
				l0.149,0.166c0.501-0.329,1.075-0.424,1.652-0.424c0.268-0.281,0.267-0.61,0.219-0.922c0.199,0.169,0.413,0.463,0.413,0.463
				c0.152-0.345,0.644-0.793,0.948-0.996c-0.055,0.177-0.161,0.436-0.239,0.78c-0.024,0.042,0.376-0.068,0.399-0.009
				c0.577-0.009,1.144-0.087,1.695,0.309c-0.544,0.051-1.469,0.028-1.935,0.382c0.016,0.327,0.106,0.682,0.227,0.95
				c-0.386-0.034-0.779-0.156-0.956-0.568c-0.296,0.144-0.405,0.521-0.871,0.642c0.017-0.184,0.214-0.544,0.094-0.696
				c-0.217-0.1-0.602,0.049-0.858,0.09c-0.953,0.271-1.762,0.691-2.611,1.237c-0.076-0.149-0.188-0.551-0.15-0.661
				c0.731-0.427,0.957-0.584,1.367-0.979c0.861-0.926,1.604-1.693,2.265-2.367c0.721-0.729,1.442-1.647,1.402-2.751l0.171-0.03
				L59.19,57.704z"/>
			<path fill="#CCCCCC" stroke="#000000" stroke-width="0.0433" d="M62.725,58.226c0.884-0.346,1.344-0.156,1.895,0.117
				c-0.657-0.009-1.011,0.147-1.895,0.572c-0.177,0.244-0.1,0.57,0.013,0.848c-0.425,0.067-0.814-0.116-1.087-0.444
				c-0.296,0.444-0.684,0.617-0.948,0.717c0.313-0.325,0.422-0.788,0.241-1.103c-0.448-0.008-0.824,0.221-1.226,0.321
				c0.027-0.133-0.043-0.299,0.055-0.35c0.224-0.119,0.746-0.104,0.971-0.245c0.12,0.032,0.266-0.038,0.291-0.147
				c-0.064-0.186-0.109-0.536-0.241-0.768c0.62,0.052,0.569,0.352,0.801,0.578c0.23-0.368,0.331-0.673,0.992-0.895
				C62.586,57.428,62.612,58.124,62.725,58.226z"/>
			<path fill="#CCCCCC" stroke="#000000" stroke-width="0.0433" d="M54.535,59.382c0.239,0.108,0.639-0.218,0.849-0.303
				c-0.096,0.312-0.501,0.862-0.761,0.999c0,0.273,0.13,0.632,0.17,1.031c-0.23-0.273-0.398-0.433-0.632-0.441
				c-0.184,0.353-0.28,0.749-0.295,1.168h-0.353c0.047-0.328,0.188-0.779,0.1-1.04c-0.223-0.243-0.592,0.095-0.823,0.146
				c0.078-0.211,0.109-0.642,0.271-0.778c-0.137-0.372-0.326-0.963-0.256-1.268c0.17,0.042,0.455,0.486,0.728,0.445
				c0.198-0.86,0.59-1.619,1.2-2.124C54.433,57.597,54.054,59.054,54.535,59.382z"/>
			<path fill="#CCCCCC" stroke="#000000" stroke-width="0.0433" d="M53.23,63.539c0.17,0.053,0.301-0.083,0.301-0.083l0.101,0.515
				c-0.221,0.451-1.211,0.688-1.598,1.003c-1.058,0.501-2.113,0.674-3.451,0.732c-0.266,0.177-1.208,0.317-1.513,0.494
				c-0.737,0.286-1.219,1.239-1.564,1.946c-0.299,0.168-1.117,0.776-1.341,0.915c0.029-1.137,1.341-2.409,1.893-2.925
				c1.183-1.02,4.749-0.777,6.291-1.988c0.38-0.21,0.871-1.473,0.941-1.83l0.23-0.115C53.661,62.183,53.41,63.044,53.23,63.539z"/>
			<path fill="#CCCCCC" stroke="#000000" stroke-width="0.0433" d="M64.242,56.278l-0.086,0.626
				c-0.255-0.027-0.532-0.366-0.694-0.527l-0.763,0.768c0.061-0.469,0.066-0.648-0.055-0.854c-0.138-0.16-0.415-0.153-0.578-0.12
				l-0.285,0.039l-0.537,0.125c-0.259,0.042-0.381,0.576-0.663,0.203c0.438-0.739,0.97-1.392,1.466-2.156
				c0.287-0.536,0.8-1.063,0.322-1.558c-0.389-0.147-0.51-0.232-1.289,0.112c0.395-0.774,0.573-1.03,1.07-1.243
				c-0.284-0.499-0.461-1.101-0.387-1.519c1.446,0.148,1.574-0.431,1.959-0.813c1.042-1.487,0.95-1.786,1.253-2.749
				c0.105,0.1,0.182,0.565,0.194,0.746c0.152,1.228,0.163,1.956-0.071,3.128c-0.104,0.332-0.141,0.458,0.071,0.867
				c0.211,0.238,0.833,0.091,0.938,0.112c-0.161,0.318-0.507,0.583-0.866,0.831c-0.267,0.17-0.546,0.104-0.82,0.272
				c-0.015,0.567,0.222,1.444-0.113,1.833c-0.252-0.484-0.75-1.034-1.203-1.052c-0.729,0.925-1.101,1.837-1.82,2.736l0.461-0.119
				c0.401-0.051,0.597-0.214,1.034-0.205c0.097-0.188,0.009-0.414-0.051-0.723c0.202,0.067,0.374-0.01,0.692,0.394
				c0.057-0.29,0.291-0.484,0.541-0.612l0.041,0.655c1.168,0.175,1.75-0.021,2.275-0.275C66.044,55.484,64.793,56.19,64.242,56.278z
				"/>
		</g>
		<g>
			<path fill="#CCCCCC" stroke="#000000" stroke-width="0.0433" d="M20.862,54.121l-0.492-0.332
				c0.024,0.235,0.169,0.638,0.177,0.883c-0.288,0-0.676,0.189-0.829,0.442c0.329-0.026,0.701,0,0.842,0.41
				c0.064,0.176-0.005,0.436-0.035,0.642c0,0,0.17,0.096,0.21,0.053c0.044-0.049,0.094-0.32,0.105-0.326
				c0.139-0.111,0.26-0.221,0.491-0.08l0.405,0.563c0.041-0.345,0.13-0.72-0.116-1.023c0.062-0.055,0.192-0.118,0.192-0.118
				c0.24-0.108,0.563-0.248,0.795-0.399c-0.222-0.123-0.44-0.188-0.621-0.468c-0.381-0.715-0.343-1.563-0.126-2.372
				C21.461,52.618,21.175,53.464,20.862,54.121z"/>
			<path fill="#CCCCCC" stroke="#000000" stroke-width="0.0433" d="M20.315,57.456c-0.352,0-0.731-0.531-1.052-0.732l-0.13,0.166
				c0.36,0.294,1.179,1.127,1.723,1.978c-0.112,0.076-0.324,0.081-0.468,0.015l0.027,0.49c1.418,0.496,2.473,1.138,3.356,2.652
				l-0.15,0.166c-0.501-0.329-1.075-0.423-1.652-0.423c-0.268-0.281-0.265-0.612-0.218-0.923c-0.2,0.168-0.414,0.462-0.414,0.462
				c-0.152-0.344-0.644-0.794-0.949-0.995c0.055,0.178,0.161,0.435,0.239,0.78c0.024,0.041-0.375-0.067-0.399-0.009
				c-0.577-0.008-1.143-0.086-1.696,0.308c0.545,0.052,1.471,0.028,1.936,0.383c-0.016,0.328-0.105,0.681-0.226,0.95
				c0.384-0.033,0.778-0.155,0.955-0.567c0.295,0.141,0.406,0.52,0.871,0.641c-0.016-0.186-0.214-0.545-0.094-0.695
				c0.217-0.102,0.603,0.047,0.859,0.089c0.954,0.269,1.762,0.691,2.611,1.238c0.076-0.151,0.188-0.552,0.151-0.664
				c-0.731-0.426-0.957-0.582-1.368-0.977c-0.861-0.926-1.602-1.694-2.264-2.367c-0.721-0.729-1.442-1.648-1.402-2.75l-0.17-0.032
				L20.315,57.456z"/>
			<path fill="#CCCCCC" stroke="#000000" stroke-width="0.0433" d="M16.781,57.978c-0.883-0.345-1.344-0.154-1.895,0.118
				c0.657-0.008,1.012,0.147,1.895,0.571c0.177,0.245,0.101,0.571-0.012,0.849c0.425,0.067,0.813-0.115,1.085-0.443
				c0.297,0.443,0.684,0.616,0.948,0.717c-0.311-0.326-0.421-0.789-0.24-1.104c0.449-0.009,0.825,0.222,1.226,0.323
				c-0.026-0.134,0.042-0.3-0.054-0.351c-0.225-0.12-0.747-0.104-0.972-0.246c-0.12,0.033-0.266-0.038-0.291-0.146
				c0.064-0.186,0.11-0.537,0.241-0.769c-0.621,0.053-0.569,0.352-0.802,0.578c-0.23-0.367-0.33-0.673-0.992-0.894
				C16.919,57.181,16.894,57.877,16.781,57.978z"/>
			<path fill="#CCCCCC" stroke="#000000" stroke-width="0.0433" d="M24.971,59.135c-0.24,0.11-0.639-0.218-0.849-0.303
				c0.096,0.312,0.5,0.862,0.761,0.999c0,0.274-0.13,0.631-0.17,1.031c0.23-0.274,0.398-0.434,0.631-0.442
				c0.185,0.354,0.28,0.749,0.296,1.17h0.353c-0.048-0.327-0.188-0.78-0.1-1.042c0.223-0.244,0.591,0.096,0.824,0.146
				c-0.081-0.211-0.11-0.642-0.271-0.778c0.136-0.369,0.326-0.962,0.255-1.268c-0.17,0.042-0.456,0.487-0.728,0.446
				c-0.199-0.861-0.59-1.619-1.201-2.123C25.073,57.349,25.453,58.808,24.971,59.135z"/>
			<path fill="#CCCCCC" stroke="#000000" stroke-width="0.0433" d="M26.276,63.291c-0.17,0.054-0.301-0.084-0.301-0.084l-0.1,0.517
				c0.22,0.452,1.21,0.688,1.597,1.003c1.058,0.5,2.114,0.673,3.452,0.731c0.264,0.177,1.208,0.318,1.512,0.495
				c0.737,0.286,1.219,1.238,1.563,1.945c0.3,0.168,1.118,0.776,1.342,0.915c-0.03-1.136-1.342-2.409-1.893-2.923
				c-1.182-1.021-4.749-0.78-6.291-1.988c-0.38-0.211-0.871-1.473-0.942-1.831l-0.23-0.116
				C25.845,61.935,26.096,62.797,26.276,63.291z"/>
			<path fill="#CCCCCC" stroke="#000000" stroke-width="0.0433" d="M13.226,54.953c0.526,0.257,1.108,0.45,2.276,0.274l0.04-0.654
				c0.251,0.129,0.485,0.324,0.542,0.612c0.318-0.403,0.49-0.324,0.692-0.393c-0.061,0.307-0.147,0.536-0.051,0.723
				c0.438-0.009,0.632,0.153,1.034,0.206l0.461,0.119c-0.72-0.901-1.09-1.813-1.821-2.737c-0.453,0.017-0.951,0.567-1.202,1.052
				c-0.336-0.389-0.1-1.267-0.114-1.833c-0.275-0.17-0.554-0.103-0.822-0.272c-0.36-0.247-0.704-0.513-0.866-0.831
				c0.106-0.022,0.729,0.126,0.939-0.112c0.212-0.41,0.176-0.535,0.07-0.867c-0.234-1.172-0.222-1.901-0.07-3.126
				c0.012-0.182,0.089-0.647,0.194-0.75c0.302,0.966,0.21,1.263,1.252,2.749c0.385,0.383,0.513,0.963,1.96,0.815
				c0.074,0.419-0.104,1.019-0.386,1.52c0.496,0.211,0.674,0.467,1.069,1.243c-0.779-0.348-0.9-0.261-1.289-0.113
				c-0.478,0.492,0.034,1.021,0.323,1.557c0.496,0.765,1.029,1.417,1.466,2.157c-0.283,0.374-0.405-0.162-0.664-0.204l-0.537-0.125
				l-0.286-0.038c-0.162-0.034-0.44-0.042-0.578,0.121c-0.121,0.203-0.115,0.384-0.054,0.851l-0.763-0.765
				c-0.162,0.16-0.44,0.498-0.694,0.526l-0.085-0.628C14.713,55.943,13.462,55.238,13.226,54.953z"/>
		</g>
		<g>
			<g>
				<path fill-rule="evenodd" clip-rule="evenodd" fill="#FCC551" stroke="#000000" stroke-width="0.0873" d="M49.371,65.536
					c0.573-0.015,1.073,0.243,1.649,0.567c0.577,0.32,1.074,0.393,1.647,0.339c-0.634,0.216-1.183,0.219-1.82,0.012
					c-0.635-0.207-1.186-0.207-1.818,0.009c-0.636,0.216-1.186,0.228-1.822,0.021c-0.635-0.207-1.186-0.216-1.82,0
					c-0.003-0.711-0.007-1.391-0.01-2.102c0.623-0.21,1.163-0.212,1.787-0.008c0.624,0.205,1.164,0.227,1.788,0.017
					c0.621-0.212,1.16-0.262,1.786-0.062c0.624,0.204,1.165,0.273,1.788,0.069c-0.036,0.025-0.66,0.418-1.412,0.367
					c-0.752-0.062-1.478,0.056-1.737,0.201c-0.517,0.299-1.086,0.479-1.115,0.639C48.648,65.648,48.983,65.564,49.371,65.536z"/>
			</g>
			<g>
				<path fill-rule="evenodd" clip-rule="evenodd" fill="#FCC551" stroke="#000000" stroke-width="0.0873" d="M30.118,65.186
					c-0.574-0.013-1.072,0.248-1.646,0.575c-0.575,0.321-1.072,0.397-1.646,0.346c0.636,0.213,1.185,0.213,1.821,0.002
					c0.635-0.21,1.185-0.212,1.82,0c0.635,0.213,1.185,0.222,1.82,0.012c0.635-0.211,1.185-0.222,1.82-0.011c0-0.71,0-1.39,0-2.101
					c-0.624-0.207-1.163-0.206-1.787,0.002s-1.163,0.231-1.788,0.024c-0.624-0.207-1.163-0.254-1.787-0.051
					c-0.624,0.207-1.164,0.279-1.788,0.078c0.036,0.026,0.662,0.414,1.414,0.359c0.752-0.065,1.478,0.05,1.738,0.193
					c0.518,0.295,1.089,0.474,1.12,0.633C30.842,65.292,30.505,65.21,30.118,65.186z"/>
			</g>
			<polygon fill-rule="evenodd" clip-rule="evenodd" stroke="#000000" stroke-width="0.0873" points="34.148,66.199 34.148,64.105 
				32.46,64.541 32.46,66.199 			"/>
			<polygon fill-rule="evenodd" clip-rule="evenodd" stroke="#000000" stroke-width="0.0873" points="46.976,66.513 46.991,64.596 
				45.288,64.418 45.288,66.513 			"/>
			<path fill="#FCC551" stroke="#000000" stroke-width="0.0873" d="M47.102,66.872c0-0.777,0-1.521,0-2.298
				c-0.672,0.124-1.314,0.23-1.986,0.23c-0.672-0.002-0.442-0.085-1.114-0.21c-0.671-0.124-1.313-0.231-1.984-0.232
				c-0.672,0.001-1.314,0.111-1.986,0.235c-0.671,0.124-1.313,0.233-1.984,0.233s-1.313-0.106-1.985-0.231
				c-0.671-0.125-1.021-0.262-1.692-0.265c-0.671,0-1.313,0.106-1.985,0.23c0,0.777,0,1.521,0,2.299
				c0.671-0.124,1.313-0.231,1.985-0.231c0.672,0.003,1.021,0.14,1.692,0.265c0.672,0.126,1.313,0.232,1.985,0.232
				c0.672-0.001,1.313-0.109,1.984-0.234c0.672-0.125,1.314-0.233,1.986-0.235c0.672,0,1.313,0.107,1.984,0.233
				c0.672,0.124,0.442,0.206,1.114,0.209C45.787,67.104,46.43,66.996,47.102,66.872z"/>
			<path d="M38.134,65.564c-0.076,0.051-0.137,0.085-0.204,0.119c-0.02-0.032-0.043-0.058-0.072-0.083c0-0.005,0-0.009,0-0.015
				c0.178-0.065,0.338-0.154,0.503-0.254c0.004,0.002,0.009,0.004,0.014,0.007c0,0.401,0,0.786,0,1.188
				c-0.041,0.001-0.08,0.001-0.121,0.004c-0.041,0.004-0.08,0.013-0.121,0.021C38.134,66.217,38.134,65.898,38.134,65.564z"/>
			<path d="M38.9,66.325c0.044,0.024,0.097,0.053,0.154,0.043c0.226-0.043,0.294-0.333,0.304-0.513c0-0.007,0-0.013,0-0.019
				c-0.005-0.001-0.008-0.001-0.013-0.002c-0.053,0.066-0.129,0.112-0.208,0.124c-0.193,0.03-0.341-0.065-0.344-0.266
				c0-0.129,0.024-0.21,0.117-0.319c0.075-0.083,0.167-0.125,0.27-0.143c0.131-0.022,0.251-0.007,0.333,0.083
				c0.07,0.082,0.098,0.205,0.098,0.322c-0.002,0.171-0.036,0.356-0.133,0.519c-0.092,0.152-0.254,0.261-0.417,0.29
				c-0.035,0.006-0.065,0.009-0.099,0.003c-0.025-0.011-0.03,0.004-0.037-0.022c-0.011-0.03-0.022-0.059-0.039-0.086
				C38.893,66.335,38.897,66.33,38.9,66.325z M39.206,65.306c-0.122,0.024-0.16,0.197-0.154,0.288
				c0.001,0.087,0.018,0.272,0.156,0.253c0.121-0.025,0.145-0.183,0.147-0.274C39.355,65.47,39.348,65.285,39.206,65.306z"/>
			<path d="M40.59,65.543c-0.002,0.177-0.01,0.363-0.129,0.524c-0.077,0.102-0.173,0.157-0.287,0.178
				c-0.149,0.025-0.25-0.008-0.326-0.127c-0.075-0.12-0.09-0.244-0.09-0.395c0-0.121,0.023-0.306,0.083-0.42
				c0.08-0.145,0.188-0.227,0.338-0.254C40.509,64.999,40.588,65.266,40.59,65.543z M40.176,66.166
				c0.13-0.027,0.155-0.211,0.155-0.548c0-0.382-0.033-0.508-0.151-0.49c-0.14,0.028-0.165,0.215-0.165,0.568
				C40.015,66.019,40.029,66.188,40.176,66.166z"/>
			<path d="M41.045,65.117c-0.077,0.053-0.137,0.09-0.203,0.128c-0.021-0.03-0.044-0.057-0.073-0.078c0-0.004,0-0.009,0-0.014
				c0.179-0.081,0.338-0.175,0.503-0.269c0.005,0.003,0.011,0.006,0.015,0.008c0,0.402,0,0.786,0,1.188
				c-0.042,0-0.08-0.001-0.121,0.001c-0.04,0.006-0.079,0.014-0.12,0.021C41.045,65.77,41.045,65.451,41.045,65.117z"/>
		</g>
	</g>
</g>
</svg>
