<?xml version="1.0" encoding="utf-8"?>
<!-- Generator: Adobe Illustrator 16.0.0, SVG Export Plug-In . SVG Version: 6.00 Build 0)  -->
<!DOCTYPE svg PUBLIC "-//W3C//DTD SVG 1.1//EN" "http://www.w3.org/Graphics/SVG/1.1/DTD/svg11.dtd">
<svg version="1.1" id="Calque_1" xmlns="http://www.w3.org/2000/svg" xmlns:xlink="http://www.w3.org/1999/xlink" x="0px" y="0px"
	 width="80px" height="80px" viewBox="0 0 80 80" enable-background="new 0 0 80 80" xml:space="preserve">
<path fill="#FFFFFF" d="M18.162,12.217c0,0,20.975-7.034,43.511,0.914c0,0,4.168,29.182-0.391,45.726
	c0,0-14.33,13.811-22.537,15.764c0,0-16.154-10.161-20.844-16.675C17.901,57.944,14.905,33.844,18.162,12.217z"/>
<path fill="#231F20" d="M40.239,75.766l-0.567-0.007l-0.201-0.097c-6.812-3.329-12.469-7.773-16.014-10.918
	c-3.845-3.405-6.055-5.997-6.147-6.105l-0.167-0.2l-0.048-0.255c-2.098-10.933-1.945-22.782-1.447-30.798
	c0.538-8.675,1.587-14.869,1.598-14.932l0.095-0.558l0.53-0.2c8.735-3.293,19.75-3.459,21.87-3.459l0.259,0.001H40l0.26-0.001
	c2.119,0,13.135,0.166,21.87,3.461l0.529,0.2l0.097,0.559c0.011,0.063,1.06,6.257,1.597,14.932
	c0.498,8.016,0.65,19.866-1.445,30.798l-0.049,0.257l-0.168,0.199c-0.094,0.109-2.316,2.699-6.177,6.107
	c-3.563,3.143-9.238,7.587-16.063,10.914L40.239,75.766z M18.985,57.548c1.26,1.425,9.487,10.428,20.978,16.149
	c11.51-5.72,19.783-14.722,21.054-16.149c2.003-10.647,1.85-22.183,1.366-30.013c-0.44-7.086-1.22-12.487-1.484-14.186
	c-8.326-2.984-18.623-3.138-20.635-3.138h-0.522c-2.016,0-12.311,0.154-20.637,3.138c-0.264,1.699-1.047,7.1-1.484,14.186
	C17.134,35.366,16.981,46.902,18.985,57.548L18.985,57.548z"/>
<path fill="none" d="M39.892,69.512c12.712-17.707,20.966-36.013,20.966-36.013c-3.101-7.657-6.203-11.006-6.203-11.006
	c-4.949-0.614-9.845-0.82-14.109-0.822h-0.681c-4.268,0.003-9.162,0.209-14.112,0.822c0,0-3.102,3.35-6.202,11.006
	c0,0,7.607,18.272,20.323,35.979L39.892,69.512z"/>
<path fill="#231F20" d="M51.125,22.123c-2.82-0.249-5.557-0.371-8.137-0.419v5.059h-5.741v-5.056
	c-2.583,0.052-5.322,0.183-8.135,0.437v4.619h-6.296c-0.986,1.698-2.124,3.925-3.263,6.738c0,0,1.036,2.485,2.976,6.503h6.583
	v12.551c2.335,4.121,5.059,8.608,8.135,13.148v-25.7h5.741v25.057c3.045-4.506,5.776-8.944,8.137-13.01V40.003h6.564
	c2.049-4.018,3.169-6.503,3.169-6.503c-1.141-2.814-2.277-5.04-3.262-6.738h-6.472V22.123z"/>
<g>
	<path fill="#231F20" d="M25.396,19.099l1.294-4.514l0.908-0.083l2.096,4.201l-0.93,0.086l-0.561-1.121L26.4,17.833l-0.346,1.207
		L25.396,19.099z M26.572,17.233l1.354-0.125l-0.838-1.674L26.572,17.233z M31.478,18.587l-0.22-4.372l0.799-0.041l2.176,2.885
		l-0.15-2.986l0.73-0.036l0.218,4.37l-0.815,0.041l-2.161-2.884l0.151,2.985L31.478,18.587z M40.791,18.2
		c-0.547,0.148-1.019,0.224-1.417,0.229c-0.755,0.007-1.337-0.184-1.747-0.576c-0.41-0.395-0.618-0.962-0.626-1.702
		c-0.007-0.736,0.188-1.304,0.588-1.705c0.401-0.401,0.977-0.605,1.725-0.613c0.479-0.006,0.955,0.045,1.426,0.153l0.008,0.712
		c-0.546-0.181-0.996-0.27-1.348-0.266c-0.461,0.006-0.819,0.158-1.067,0.456c-0.249,0.298-0.371,0.718-0.365,1.26
		c0.006,0.524,0.146,0.935,0.419,1.23c0.273,0.296,0.647,0.441,1.122,0.437l0.367-0.049l-0.016-1.441l0.911-0.009L40.791,18.2z
		 M42.984,18.326l0.104-4.375l2.736,0.065l-0.016,0.598l-1.823-0.042l-0.029,1.22l1.497,0.035l-0.016,0.585l-1.494-0.035
		l-0.031,1.349l1.96,0.047l-0.013,0.621L42.984,18.326z M47.795,18.475l0.257-4.37l1.635,0.097c0.889,0.052,1.311,0.44,1.27,1.16
		c-0.015,0.271-0.105,0.512-0.269,0.724c-0.162,0.213-0.381,0.371-0.651,0.473l1.31,2.125l-1.107-0.066l-0.978-1.849l-0.5-0.029
		l-0.106,1.787L47.795,18.475z M48.793,16.138l0.211,0.014c0.659,0.038,1.007-0.209,1.035-0.742
		c0.024-0.389-0.259-0.601-0.849-0.636l-0.313-0.019L48.793,16.138z M52.894,18.772l0.071-0.747
		c0.448,0.242,0.843,0.377,1.177,0.409c0.232,0.023,0.421-0.012,0.566-0.104c0.144-0.091,0.225-0.226,0.242-0.404
		c0.014-0.141-0.018-0.263-0.092-0.368c-0.075-0.106-0.225-0.237-0.447-0.393l-0.274-0.19c-0.368-0.256-0.626-0.493-0.767-0.71
		c-0.142-0.216-0.201-0.459-0.174-0.729c0.034-0.357,0.192-0.633,0.479-0.825c0.283-0.192,0.646-0.268,1.078-0.226
		c0.349,0.032,0.732,0.121,1.16,0.262l-0.068,0.698c-0.431-0.211-0.774-0.326-1.033-0.353c-0.199-0.02-0.364,0.011-0.491,0.088
		c-0.131,0.077-0.204,0.189-0.215,0.334c-0.013,0.119,0.021,0.229,0.096,0.327c0.076,0.099,0.225,0.224,0.446,0.38l0.295,0.203
		c0.396,0.276,0.667,0.52,0.807,0.734c0.141,0.213,0.196,0.461,0.168,0.747c-0.039,0.404-0.22,0.706-0.54,0.907
		c-0.323,0.202-0.749,0.277-1.277,0.227C53.747,19.003,53.345,18.916,52.894,18.772L52.894,18.772z"/>
</g>
<g>
	<path fill="#FFFFFF" stroke="#FFFFFF" stroke-width="0.9612" d="M25.432,30.022c0.578-0.334,1.413-0.541,2.507-0.621
		c0.758-0.021,1.456,0.006,2.094,0.075c0.637,0.07,1.309,0.194,2.014,0.375c-0.072,0.283-0.133,0.604-0.184,0.967
		c-0.23-0.104-0.454-0.195-0.672-0.271c-0.22-0.075-0.462-0.146-0.729-0.209c-0.268-0.063-0.575-0.118-0.921-0.166
		c-0.347-0.046-0.767-0.092-1.261-0.139c-0.285,0.022-0.562,0.062-0.825,0.119c-0.264,0.058-0.496,0.142-0.697,0.25
		c-0.2,0.11-0.356,0.241-0.47,0.394c-0.115,0.156-0.165,0.331-0.149,0.53c0.002,0.125,0.063,0.25,0.181,0.372
		c0.115,0.123,0.267,0.243,0.452,0.359c0.186,0.118,0.402,0.226,0.652,0.322c0.25,0.096,0.507,0.182,0.775,0.258l2.205,0.631
		c0.358,0.103,0.664,0.235,0.919,0.398c0.256,0.165,0.465,0.341,0.628,0.532c0.163,0.192,0.279,0.392,0.347,0.6
		c0.069,0.208,0.103,0.412,0.098,0.611c-0.011,0.342-0.11,0.645-0.295,0.915c-0.186,0.271-0.437,0.503-0.752,0.699
		c-0.316,0.196-0.687,0.35-1.112,0.459c-0.427,0.11-0.886,0.172-1.379,0.183c-0.68,0.017-1.35-0.02-2.007-0.111
		c-0.659-0.09-1.319-0.204-1.983-0.343l0.092-0.457l0.089-0.522c0.251,0.157,0.514,0.283,0.788,0.378
		c0.273,0.096,0.556,0.172,0.848,0.228c0.293,0.056,0.599,0.094,0.919,0.116c0.321,0.022,0.658,0.031,1.015,0.029
		c0.296-0.008,0.572-0.034,0.833-0.081c0.26-0.048,0.485-0.119,0.675-0.216c0.188-0.098,0.336-0.228,0.441-0.393
		s0.148-0.374,0.132-0.624c-0.002-0.104-0.03-0.229-0.083-0.375c-0.052-0.146-0.133-0.29-0.239-0.43
		c-0.107-0.142-0.25-0.275-0.424-0.399c-0.176-0.124-0.397-0.22-0.666-0.288l-2.351-0.573c-0.795-0.193-1.387-0.468-1.781-0.824
		c-0.394-0.354-0.584-0.743-0.577-1.164C24.568,30.891,24.853,30.357,25.432,30.022z M44.225,36.884
		c-0.236,0.103-0.504,0.195-0.806,0.277c-0.302,0.08-0.605,0.151-0.916,0.21c-0.312,0.059-0.614,0.105-0.915,0.138
		c-0.303,0.034-0.57,0.051-0.806,0.051c-0.837,0.001-1.626-0.089-2.368-0.271c-0.739-0.18-1.385-0.446-1.936-0.801
		c-0.553-0.354-0.988-0.79-1.31-1.31c-0.32-0.52-0.481-1.114-0.482-1.787c0-0.656,0.155-1.242,0.466-1.758
		c0.31-0.517,0.728-0.955,1.257-1.313c0.527-0.357,1.141-0.631,1.84-0.819c0.7-0.189,1.444-0.282,2.232-0.284
		c0.622,0,1.276,0.045,1.966,0.138c0.69,0.092,1.374,0.226,2.055,0.403l-0.096,0.442l-0.095,0.487
		c-0.229-0.073-0.45-0.155-0.668-0.243c-0.217-0.088-0.465-0.171-0.745-0.249c-0.281-0.077-0.616-0.146-0.998-0.205
		c-0.385-0.06-0.848-0.099-1.39-0.121c-0.621,0-1.178,0.083-1.67,0.249c-0.494,0.167-0.91,0.396-1.25,0.688
		c-0.34,0.292-0.601,0.638-0.783,1.04c-0.183,0.402-0.274,0.835-0.274,1.3c0,0.539,0.112,1.029,0.333,1.471
		c0.221,0.443,0.54,0.824,0.955,1.146c0.415,0.319,0.915,0.569,1.5,0.745c0.586,0.177,1.239,0.266,1.958,0.265
		c0.523,0,1.037-0.063,1.545-0.188c0.507-0.126,0.999-0.306,1.471-0.542L44.225,36.884L44.225,36.884z M55.217,34.851
		c-0.013,0.448-0.115,0.851-0.307,1.204c-0.198,0.353-0.48,0.651-0.851,0.894c-0.37,0.242-0.82,0.425-1.343,0.549
		c-0.525,0.124-1.116,0.18-1.779,0.165c-1.409-0.032-2.479-0.318-3.213-0.856c-0.729-0.536-1.088-1.253-1.064-2.153l0.056-2.49
		c0.021-0.899,0.408-1.6,1.166-2.103c0.756-0.503,1.838-0.738,3.25-0.705c0.659,0.016,1.247,0.097,1.767,0.246
		s0.959,0.352,1.318,0.611c0.356,0.259,0.628,0.57,0.806,0.931c0.178,0.362,0.264,0.769,0.256,1.218L55.217,34.851z M48.559,35.966
		c0.147,0.25,0.342,0.451,0.586,0.605c0.242,0.152,0.517,0.265,0.82,0.334c0.304,0.069,0.61,0.104,0.914,0.104
		c0.306,0.014,0.614-0.004,0.924-0.057c0.313-0.052,0.593-0.148,0.844-0.289c0.251-0.142,0.453-0.337,0.611-0.584
		c0.16-0.248,0.243-0.556,0.253-0.924l0.07-3.174c0.011-0.369-0.06-0.68-0.208-0.934c-0.146-0.255-0.342-0.458-0.587-0.611
		c-0.241-0.154-0.518-0.263-0.826-0.329c-0.307-0.066-0.616-0.099-0.921-0.099c-0.304-0.014-0.612,0.007-0.917,0.062
		c-0.305,0.057-0.587,0.156-0.836,0.297c-0.248,0.143-0.452,0.334-0.611,0.579c-0.161,0.243-0.243,0.549-0.253,0.917l-0.07,3.174
		C48.34,35.405,48.411,35.714,48.559,35.966z"/>
</g>
<g>
	<path fill="#231F20" d="M39.239,45.689v-0.362h0.622v-2.294l-0.622,0.154v-0.372l1.246-0.311v2.823h0.621v0.363h-1.866V45.689z
		 M39.071,51.786v-0.45c0.265,0.111,0.512,0.162,0.742,0.162c0.245,0,0.439-0.102,0.582-0.305c0.142-0.205,0.213-0.48,0.213-0.832
		c-0.198,0.236-0.441,0.354-0.731,0.354c-0.274,0-0.502-0.095-0.689-0.284c-0.188-0.188-0.28-0.422-0.28-0.699
		c0-0.323,0.105-0.588,0.316-0.797c0.21-0.208,0.479-0.312,0.807-0.312c0.384,0,0.683,0.136,0.901,0.41
		c0.217,0.27,0.325,0.648,0.325,1.128c0,0.538-0.125,0.963-0.382,1.266c-0.259,0.307-0.611,0.46-1.062,0.46
		C39.624,51.887,39.375,51.854,39.071,51.786L39.071,51.786z M39.53,49.635c0,0.215,0.047,0.385,0.139,0.51
		c0.094,0.125,0.22,0.186,0.38,0.186c0.151,0,0.277-0.055,0.382-0.169c0.103-0.113,0.155-0.252,0.155-0.417
		c0-0.22-0.048-0.396-0.15-0.531s-0.234-0.203-0.4-0.203c-0.154,0-0.277,0.057-0.368,0.168S39.53,49.443,39.53,49.635z
		 M39.239,57.929v-0.363h0.622v-2.295l-0.622,0.155v-0.373l1.246-0.312v2.826h0.621v0.361H39.239L39.239,57.929z M39.071,64.024
		v-0.449c0.265,0.109,0.512,0.16,0.742,0.16c0.245,0,0.439-0.101,0.582-0.303c0.142-0.206,0.213-0.482,0.213-0.834
		c-0.198,0.236-0.441,0.355-0.731,0.355c-0.274,0-0.502-0.096-0.689-0.284c-0.188-0.188-0.28-0.422-0.28-0.7
		c0-0.323,0.105-0.588,0.316-0.796c0.21-0.209,0.479-0.313,0.807-0.313c0.384,0,0.683,0.137,0.901,0.41
		c0.217,0.271,0.325,0.649,0.325,1.13c0,0.54-0.125,0.96-0.382,1.265c-0.259,0.306-0.611,0.461-1.062,0.461
		C39.624,64.126,39.375,64.092,39.071,64.024L39.071,64.024z M39.53,61.872c0,0.216,0.047,0.387,0.139,0.51
		c0.094,0.127,0.22,0.187,0.38,0.187c0.151,0,0.277-0.054,0.382-0.168c0.103-0.115,0.155-0.254,0.155-0.418
		c0-0.221-0.048-0.397-0.15-0.532s-0.234-0.203-0.4-0.203c-0.154,0-0.277,0.059-0.368,0.168
		C39.576,61.528,39.53,61.681,39.53,61.872z"/>
</g>
<path fill="#C1B300" d="M19.264,37.665c0,0,6.517,15.04,15.205,27.404C34.468,65.069,22.841,55.221,19.264,37.665z M60.661,37.665
	c0,0-6.515,15.04-15.203,27.404C45.458,65.069,57.085,55.221,60.661,37.665z"/>
<path fill="none" stroke="#231F20" stroke-width="0.9961" d="M39.87,69.694c12.773-17.791,21.067-36.179,21.067-36.179
	c-3.115-7.693-6.229-11.059-6.229-11.059c-4.974-0.619-9.893-0.822-14.177-0.827h-0.686c-4.287,0.004-9.203,0.208-14.178,0.827
	c0,0-3.117,3.366-6.232,11.059c0,0,7.645,18.361,20.419,36.148L39.87,69.694z"/>
</svg>
