<?xml version="1.0" encoding="utf-8"?>
<!-- Generator: Adobe Illustrator 16.0.0, SVG Export Plug-In . SVG Version: 6.00 Build 0)  -->
<!DOCTYPE svg PUBLIC "-//W3C//DTD SVG 1.1//EN" "http://www.w3.org/Graphics/SVG/1.1/DTD/svg11.dtd">
<svg version="1.1" id="Calque_1" xmlns="http://www.w3.org/2000/svg" xmlns:xlink="http://www.w3.org/1999/xlink" x="0px" y="0px"
	 width="80px" height="80px" viewBox="0 0 80 80" enable-background="new 0 0 80 80" xml:space="preserve">
<path fill="#D1A32C" d="M49.198,24.625c0,0-3.95-0.398-9.175-0.398c-5.231,0-9.223,0.398-9.223,0.398v-1.697
	c0,0,4.032-0.399,9.223-0.399c5.182,0,9.175,0.399,9.175,0.399V24.625z"/>
<path fill="#D1A32C" d="M27.11,19.627c-1.178-1.309-1.746-2.441-1.517-3.144c0.183-0.568,0.576-0.942,1.191-1.129
	c-0.245-0.444-0.424-0.872-0.543-1.289c-0.416-0.028-0.801-0.02-1.158,0.021c-0.6,0.068-1.119,0.234-1.531,0.485
	c-0.589,0.36-1.028,0.893-1.182,1.539c-0.686,2.809,4.35,5.181,6.494,6.227l0.225,0.046c0.087-0.005,0.15-0.046,0.208-0.117
	c0.088-0.111,0.067-0.249-0.025-0.36C29.233,21.857,28.159,20.792,27.11,19.627z M35.97,11.902c0.089-0.149-0.109-0.354-0.137-0.382
	c-1.806-1.793-3.445-2.2-4.506-2.2l-0.214,0.006c-1.604,0.084-2.855,0.82-3.557,2.121c-1.318,2.432,0.955,4.965,2.418,6.649
	c1.732,1.991,3.967,3.494,4.202,3.66c0.11,0.072,0.229,0.072,0.235,0.072l0.212-0.076c0.127-0.101,0.142-0.26,0.042-0.379
	c-1.714-2.008-4.83-6.062-3.702-8.579c0.946-1.73,3.6-0.951,4.22-0.787C35.526,12.097,35.786,12.168,35.97,11.902z"/>
<path fill="#D71920" d="M29.338,18.504l-0.081-0.091l-0.427-0.494c-0.284,0.497-0.204,1.191,0.256,1.999
	c0.84,1.458,1.191,1.854,1.191,1.854s0.885-0.095,2.455-0.202C31.379,20.545,30.225,19.523,29.338,18.504z M50.663,18.504
	l0.08-0.091l0.427-0.494c0.285,0.497,0.203,1.191-0.255,1.999c-0.841,1.458-1.192,1.854-1.192,1.854s-0.885-0.095-2.456-0.202
	C48.619,20.545,49.774,19.523,50.663,18.504z M37.525,14.809c-1.68,0.141-3.972,0.732-5.429,1.321
	c0.75,1.681,2.036,3.567,3.312,5.071l0.198,0.217c1.025-0.042,2.067-0.076,3.202-0.086C38.66,20.923,37.625,17.984,37.525,14.809z
	 M42.436,14.809c1.679,0.141,3.969,0.732,5.426,1.321c-0.751,1.681-2.035,3.567-3.311,5.071l-0.199,0.217
	c-1.023-0.042-2.066-0.076-3.203-0.086C41.298,20.923,42.336,17.984,42.436,14.809z"/>
<path fill="#D1A32C" d="M52.89,19.627c1.178-1.309,1.749-2.441,1.519-3.144c-0.185-0.568-0.58-0.942-1.191-1.129
	c0.243-0.444,0.421-0.872,0.543-1.289c0.416-0.028,0.8-0.02,1.156,0.021c0.599,0.068,1.118,0.234,1.529,0.485
	c0.59,0.36,1.027,0.893,1.187,1.539c0.682,2.809-4.355,5.181-6.496,6.227l-0.226,0.046c-0.09-0.005-0.151-0.046-0.208-0.117
	c-0.089-0.111-0.067-0.249,0.026-0.36C50.768,21.857,51.841,20.792,52.89,19.627z M44.03,11.902
	c-0.093-0.149,0.106-0.354,0.137-0.382c1.806-1.793,3.445-2.2,4.507-2.2l0.212,0.006c1.604,0.084,2.855,0.82,3.557,2.121
	c1.317,2.432-0.953,4.965-2.416,6.649c-1.734,1.991-3.97,3.494-4.202,3.66c-0.111,0.072-0.229,0.072-0.233,0.072l-0.216-0.076
	c-0.125-0.101-0.141-0.26-0.044-0.379c1.716-2.008,4.831-6.062,3.707-8.579c-0.949-1.73-3.603-0.951-4.223-0.787
	C44.474,12.097,44.214,12.168,44.03,11.902z M41.881,6.428V5.573h-1.45V4.179h-0.899v1.394h-1.449v0.855h1.449v1.363
	c-0.681,0.189-1.177,0.797-1.177,1.517c0,0.872,0.728,1.58,1.629,1.58c0.895,0,1.624-0.708,1.624-1.58
	c0-0.721-0.498-1.327-1.177-1.517V6.428H41.881L41.881,6.428z M41.437,15.469c0.037-2.711-0.63-4.042-1.444-4.042h-0.025
	c-0.816,0-1.485,1.33-1.445,4.042c0.024,1.666,0.755,5.173,1.257,6.033c0.072,0.124,0.141,0.173,0.198,0.173
	c0.06,0,0.126-0.046,0.199-0.165C40.679,20.662,41.413,17.14,41.437,15.469z M59.334,27.683c-0.227-0.117-6.093-2.229-19.334-2.229
	c-13.242,0-19.106,2.113-19.333,2.229c-0.174,0.176-1.233,6.32-1.233,12.489c0,6.167,1.229,14.155,5.561,20.473
	C29.325,66.962,38.398,74.931,40,75.821c1.602-0.891,10.674-8.859,15.007-15.177c4.332-6.318,5.56-14.306,5.56-20.473
	C60.566,34.003,59.506,27.859,59.334,27.683z"/>
<path fill="#FFFFFF" d="M57.332,29.322c-0.199-0.093-5.597-1.604-17.332-1.607c-11.737,0.003-17.131,1.515-17.333,1.607
	c-0.155,0.156-0.937,6.256-0.937,11.676s1.091,12.754,4.94,18.315C30.483,64.816,38.474,71.988,40,72.876
	c1.524-0.888,9.519-8.06,13.331-13.563c3.847-5.562,4.939-12.896,4.939-18.315S57.486,29.478,57.332,29.322L57.332,29.322z
	 M52.473,58.006C48.883,63.131,41.331,70.148,40,70.871c-1.333-0.722-8.882-7.739-12.473-12.863
	c-3.593-5.127-4.615-11.896-4.615-16.898c0-5,0.717-10.638,0.862-10.782c0.194-0.086,5.24-1.399,16.225-1.4
	c10.987,0.001,16.031,1.313,16.225,1.399c0.146,0.144,0.863,5.782,0.863,10.78C57.088,46.11,56.066,52.88,52.473,58.006z
	 M55.935,38.908h-31.87c-0.025,0.731-0.041,1.471-0.041,2.199c0,3,0.43,10.589,4.417,16.28C31.69,62.021,37.961,67.918,40,69.53
	c2.038-1.612,8.311-7.509,11.558-12.144c3.988-5.691,4.42-13.28,4.42-16.28C55.978,40.378,55.962,39.639,55.935,38.908z"/>
<path fill="#D71920" d="M26.237,39.848v12.31c0.617,1.72,1.438,3.432,2.535,4.996c0.979,1.398,2.232,2.908,3.56,4.373V39.848H26.237
	z M53.766,39.848v12.31c-0.621,1.72-1.439,3.432-2.535,4.996c-0.979,1.398-2.237,2.908-3.563,4.373V39.848H53.766z M55.28,31.218
	c-1.551-0.337-6.4-1.202-15.28-1.203c-8.881,0.001-13.73,0.866-15.279,1.203c-0.194,1.26-0.537,4.396-0.657,7.69h31.87
	C55.817,35.613,55.473,32.477,55.28,31.218z M40,39.848h-3.525V65.8c1.465,1.418,2.745,2.565,3.525,3.21
	c0.781-0.644,2.062-1.793,3.525-3.21V39.848H40z"/>
<path fill="#FFFFFF" d="M28.465,34.217c0-0.229,0.146-0.372,0.378-0.372c0.137,0,0.265,0.048,0.378,0.117l0.167-0.606
	c-0.208-0.122-0.422-0.184-0.665-0.184c-0.644,0-0.992,0.518-0.992,1.116c0,0.554,0.267,0.837,0.7,1.129
	c0.211,0.15,0.443,0.26,0.443,0.554c0,0.252-0.192,0.411-0.431,0.411c-0.135,0-0.25-0.027-0.359-0.077l-0.211,0.593
	c0.171,0.124,0.432,0.189,0.644,0.189c0.707,0,1.093-0.508,1.093-1.181C29.608,34.876,28.465,34.842,28.465,34.217z M29.995,37.028
	h1.081l0.132-3.281h0.013v0.085l0.648,3.195h0.579l0.59-3.281h0.012l0.219,3.281h1.037c0,0-0.124-0.174-0.159-0.464
	c-0.034-0.274-0.383-3.879-0.427-4.332l-1.221,0.078l-0.353,2.853h-0.014l-0.431-2.795l-1.203,0.101
	c-0.053,0.642-0.328,3.879-0.351,4.115C30.122,36.847,29.995,37.028,29.995,37.028z M37.932,37.028h1.015v-2.229l-0.007-0.199
	l-0.042-0.49l0.013-0.012l1.111,2.931h0.852V32.57c0-0.218,0.076-0.402,0.135-0.508l-1.016-0.007l-0.021,0.001v2.298
	c0,0.25,0.021,0.502,0.073,0.735l-0.01,0.011l-1.079-3.038l-0.912,0.011v4.504C38.045,36.884,37.932,37.028,37.932,37.028z
	 M44.438,34.617c0,1.243,0.735,2.46,2.063,2.46c0.33,0,0.496-0.052,0.641-0.137l-0.212-0.829c-0.121,0.038-0.236,0.068-0.356,0.068
	c-0.801,0-1.153-0.864-1.153-1.567c0-0.728,0.353-1.475,1.161-1.475l0.349,0.05l0.229-0.777c-0.138-0.069-0.325-0.127-0.514-0.154
	l-0.208-0.012C45.196,32.257,44.438,33.452,44.438,34.617z M52.581,33.936l0.229-0.704h-1.805v3.796h0.755v-1.577h0.631v-0.704
	h-0.631v-0.812H52.581z M54.466,36.401c-0.642,0.021-0.994-0.622-1.016-1.256c-0.021-0.68,0.345-1.244,0.925-1.244l0.279,0.02
	l0.159-0.571c-0.146-0.069-0.296-0.104-0.511-0.096c-0.998,0.03-1.577,0.998-1.551,1.917c0.03,0.975,0.647,1.913,1.705,1.878
	c0.266-0.008,0.407-0.058,0.501-0.14L54.76,36.34C54.686,36.375,54.607,36.396,54.466,36.401L54.466,36.401z M36.021,32.078
	c-0.803,0-1.603,0.68-1.603,2.496c0,1.816,0.799,2.496,1.603,2.496c0.804,0,1.601-0.679,1.601-2.496
	C37.622,32.758,36.826,32.078,36.021,32.078z M36.021,36.185c-0.598,0-0.642-1.225-0.642-1.612c0-0.429,0.044-1.61,0.642-1.61
	c0.598,0,0.641,1.18,0.641,1.61C36.664,34.959,36.619,36.185,36.021,36.185z M26.68,33.295H25.9l-0.865,3.732h0.732l0.131-0.742
	h0.75l0.139,0.742h0.855c0,0-0.099-0.108-0.141-0.302C27.461,36.532,26.68,33.295,26.68,33.295z M26.02,35.702l0.159-0.996
	l0.079-0.451h0.01l0.085,0.451l0.187,0.996H26.02z M42.239,37.028l0.165-0.939h0.909l0.171,0.939h1.019c0,0-0.147-0.181-0.213-0.449
	c-0.058-0.249-0.859-3.91-0.98-4.474l-0.965-0.024l-1.056,4.946H42.239z M42.741,34.032l0.097-0.614h0.013l0.1,0.614l0.23,1.296
	h-0.632L42.741,34.032z M48.811,32.422c-0.811,0-1.616,0.637-1.616,2.336c0,1.705,0.806,2.341,1.616,2.341s1.614-0.636,1.614-2.341
	C50.425,33.06,49.621,32.422,48.811,32.422z M48.811,36.271c-0.604,0-0.646-1.148-0.646-1.512c0-0.4,0.042-1.507,0.646-1.507
	c0.603,0,0.645,1.106,0.645,1.507C49.455,35.122,49.413,36.271,48.811,36.271z"/>
</svg>
