<?xml version="1.0" encoding="utf-8"?>
<!-- Generator: Adobe Illustrator 16.0.0, SVG Export Plug-In . SVG Version: 6.00 Build 0)  -->
<!DOCTYPE svg PUBLIC "-//W3C//DTD SVG 1.1//EN" "http://www.w3.org/Graphics/SVG/1.1/DTD/svg11.dtd">
<svg version="1.1" id="Calque_1" xmlns="http://www.w3.org/2000/svg" xmlns:xlink="http://www.w3.org/1999/xlink" x="0px" y="0px"
	 width="80px" height="80px" viewBox="0 0 80 80" enable-background="new 0 0 80 80" xml:space="preserve">
<path fill="#FFFFFF" d="M13.203,15.234l-0.171,0.674c-1.329,5.205-2.063,10.255-2.445,13.577c-0.357,3.115-0.47,5.235-0.47,5.656
	c0,3.382,0.516,10.198,3.964,17.846c4.647,10.309,12.812,18.232,24.264,23.55L39,76.766l0.656-0.229
	c11.453-5.317,19.616-13.241,24.266-23.55c3.446-7.648,3.961-14.465,3.961-17.846c0-0.42-0.112-2.542-0.469-5.656
	c-0.384-3.32-1.117-8.372-2.445-13.577l-0.173-0.674l-0.617-0.32c-6.565-3.385-16.682-5.658-25.183-5.658
	c-8.494,0-18.611,2.274-25.175,5.658L13.203,15.234"/>
<path fill="#FFFFFF" d="M65.877,29.66c-0.411-3.558-1.146-8.421-2.406-13.371c-5.974-3.079-15.772-5.487-24.468-5.487h-0.007
	c-8.695,0-18.494,2.408-24.466,5.487c-1.262,4.949-1.997,9.813-2.405,13.371c-0.349,3.016-0.46,5.093-0.46,5.479
	c0,4.753,1.093,27.81,27.332,39.991L39,75.13l0.003,0.001c26.24-12.182,27.332-35.24,27.332-39.991
	C66.335,34.754,66.223,32.676,65.877,29.66z"/>
<g>
	<path fill="#E93526" d="M14.53,16.291c-1.262,4.949-1.997,9.813-2.405,13.371c-0.349,3.017-0.46,5.093-0.46,5.479
		c0,4.753,1.093,27.809,27.332,39.991L39,75.131v-1.552l-0.004,0.001c-6.125-3.165-10.645-7.104-13.981-11.252l-1.498-1.98
		c-1.327-1.871-2.445-3.795-3.364-5.663c-4.207-8.591-4.516-16.626-4.516-19.16c0-0.396,0.111-2.644,0.461-5.863
		c0.361-3.315,0.976-7.66,1.988-12.075c5.104-2.931,13.479-5.221,20.909-5.221H39v-1.563h-0.004
		C30.301,10.803,20.502,13.21,14.53,16.291z M65.877,29.66c-0.411-3.558-1.146-8.421-2.406-13.371
		c-1.268-0.653-2.707-1.276-4.271-1.852v2.754l0.715,0.393c1.009,4.415,1.625,8.758,1.987,12.075
		c0.352,3.219,0.461,5.467,0.461,5.863c0,2.229-0.239,8.715-3.163,16.091v6.732c6.709-10.138,7.136-20.239,7.136-23.207
		C66.335,34.754,66.223,32.676,65.877,29.66z M39.003,12.365h0.034v-1.562l-0.034-0.001H39v1.563H39.003z"/>
</g>
<path fill="#E93526" d="M40.281,76.243c3.09-1.524,5.814-3.003,8.217-4.781v-4.397c-2.325,2.095-5.043,4.068-8.217,5.83V76.243z
	 M57.98,54.405l-0.134,0.279c-0.918,1.868-2.038,3.792-3.364,5.663l-1.497,1.98c-0.976,1.213-2.056,2.405-3.245,3.568v4.661
	c3.458-2.671,5.899-4.971,8.217-7.879v-8.224L57.98,54.405z M40.281,12.388c2.713,0.092,5.519,0.469,8.217,1.056v-3.386
	c-2.726-0.459-5.511-0.75-8.217-0.821V12.388z M49.74,10.278v3.451c3.011,0.733,5.844,1.718,8.217,2.842v-4.157
	C55.432,11.558,52.636,10.826,49.74,10.278z"/>
<path fill="#FFFFFF" d="M59.199,51.614l-1.219,2.791C58.433,53.466,58.838,52.533,59.199,51.614z M26.51,20.763h-3.556l-0.278,1.2
	h3.558L26.51,20.763z"/>
<path fill="#E93526" d="M39.333,21.991c-0.298-0.105-0.68-0.158-1.149-0.158h-4.325l0.256-1.07h6.013l0.634-2.605h-6.124
	c-2.064,0-3.192,0.478-3.533,1.897l-0.553,2.309c-0.376,1.561,0.615,1.754,2.651,1.754h3.6l-0.259,1.045h-6.737l-0.631,2.632h7.617
	c1.245,0,2.144-0.487,2.542-1.284c0.071-0.139,0.128-0.287,0.165-0.444l0.563-2.361C40.274,22.797,40.041,22.243,39.333,21.991
	L39.333,21.991z M49.621,18.158l-0.791,3.251c-0.144,0.605-0.248,1.2-0.256,1.793c-0.153-0.554-0.274-0.979-0.386-1.251
	l-1.624-3.792h-3.991l-2.323,9.637h3.099l1.082-4.516c0.144-0.604,0.253-1.187,0.271-1.78c0.157,0.659,0.291,1.071,0.374,1.25
	l2.219,5.044h3.098l2.324-9.637H49.621z M60.128,27.793l0.631-2.632h-5.008l1.694-7.004h-3.447l-2.323,9.636H60.128z M28.066,18.158
	h-5.385c-1.491,0-2.515,0.787-2.807,1.987l-1.847,7.649h3.237l0.941-3.882h3.557l-0.942,3.882h3.251l1.846-7.649
	C30.209,18.944,29.558,18.158,28.066,18.158z M26.234,21.963h-3.558l0.278-1.199h3.556L26.234,21.963z"/>
<g>
	<path fill="#E93526" d="M21.053,30.445h-1.082c-0.298,0-0.427-0.156-0.366-0.395l0.388-1.523h0.651L20.29,29.92h0.712l0.355-1.393
		h0.646l-0.387,1.523C21.555,30.29,21.351,30.445,21.053,30.445z M22.421,30.445h-0.652l0.489-1.917h0.651L22.421,30.445z
		 M32.331,29.046h-1.086l-0.055,0.222h1.086l-0.108,0.434H31.08l-0.191,0.744h-0.654l0.488-1.917h1.739L32.331,29.046z
		 M42.75,29.268l-0.11,0.434h-1.081l-0.056,0.221h1.079l-0.135,0.523h-1.73l0.487-1.917h1.74l-0.133,0.518h-1.087l-0.056,0.222
		H42.75z M40.889,29.046h-0.613l-0.356,1.399h-0.684l0.354-1.399h-0.64l0.134-0.518h1.936L40.889,29.046z M44.56,29.713
		c-0.408,0-0.607-0.038-0.528-0.35l0.118-0.459c0.069-0.283,0.297-0.376,0.712-0.376h1.224l-0.133,0.517h-1.2l-0.057,0.214h0.867
		c0.317,0,0.437,0.116,0.371,0.373l-0.117,0.47c-0.055,0.21-0.254,0.343-0.547,0.343h-1.524l0.131-0.523h1.351l0.054-0.208
		L44.56,29.713L44.56,29.713z M47.229,28.528h0.75l0.201,0.721l0.567-0.721h0.754l-1.116,1.224l-0.175,0.693H47.54l0.175-0.693
		L47.229,28.528z M52.38,30.445l0.487-1.917h0.649l-0.487,1.917H52.38z M57.026,30.445h-1.083c-0.299,0-0.427-0.156-0.363-0.395
		l0.387-1.523h0.649l-0.354,1.393h0.712l0.355-1.393h0.648l-0.389,1.523C57.529,30.29,57.325,30.445,57.026,30.445L57.026,30.445z
		 M59.83,29.046h-1.086l-0.058,0.222h1.081l-0.108,0.434h-1.08l-0.057,0.221h1.076l-0.133,0.523h-1.729l0.486-1.917h1.739
		L59.83,29.046z M25.94,29.046l0.132-0.518h-1.227c-0.412,0-0.639,0.094-0.711,0.377l-0.117,0.459
		c-0.078,0.311,0.118,0.35,0.528,0.35h0.72l-0.053,0.208h-1.35l-0.131,0.523h1.524c0.293,0,0.494-0.133,0.546-0.343l0.117-0.47
		c0.064-0.258-0.052-0.373-0.371-0.373h-0.866l0.053-0.213H25.94z M26.112,29.064h0.336l-0.025,0.105h-0.37l-0.06,0.231h0.332
		c0.211,0,0.327-0.087,0.373-0.272l0.152-0.6h-0.6L26.112,29.064z M28.196,30.445l0.177-0.693l1.116-1.224h-0.753l-0.568,0.721
		l-0.201-0.721h-0.752l0.488,1.224l-0.175,0.693H28.196z M37.03,28.528l-0.133,0.518h0.64l-0.353,1.399h0.683l0.354-1.399h0.612
		l0.134-0.518H37.03z M46.066,29.169L46.006,29.4h0.331c0.212,0,0.326-0.087,0.372-0.272l0.155-0.6h-0.603l-0.135,0.537h0.336
		l-0.028,0.105L46.066,29.169L46.066,29.169z M52.563,28.92c0.07-0.283-0.036-0.393-0.326-0.393h-1.511l-0.489,1.916h0.65
		l0.161-0.623h0.874c0.275,0,0.442-0.12,0.508-0.373L52.563,28.92z M51.789,29.378h-0.638l0.083-0.334h0.639L51.789,29.378z
		 M55.42,29.962l0.234-0.916c0.089-0.354-0.029-0.518-0.376-0.518h-0.96c-0.343,0-0.549,0.166-0.639,0.518l-0.225,0.883
		c-0.087,0.345,0.043,0.516,0.379,0.516h0.805c-0.018,0.189,0.063,0.247,0.269,0.247h0.468l0.131-0.521H55.3
		C55.382,30.12,55.395,30.057,55.42,29.962z M54.782,29.922H54.11l0.221-0.876h0.671L54.782,29.922z M19.448,29.962l0.232-0.916
		c0.089-0.354-0.028-0.518-0.375-0.518h-0.961c-0.344,0-0.548,0.166-0.638,0.518l-0.224,0.883c-0.087,0.345,0.042,0.516,0.377,0.516
		h0.806c-0.017,0.189,0.062,0.247,0.269,0.247h0.469l0.129-0.521h-0.206C19.407,30.12,19.42,30.057,19.448,29.962z M18.809,29.922
		h-0.671l0.222-0.876h0.67L18.809,29.922z M36.354,28.528h-0.961c-0.345,0-0.551,0.166-0.64,0.518l-0.224,0.883
		c-0.087,0.345,0.042,0.516,0.377,0.516h0.961c0.335,0,0.547-0.171,0.635-0.516l0.224-0.883
		C36.817,28.691,36.701,28.528,36.354,28.528L36.354,28.528z M35.854,29.922h-0.671l0.223-0.876h0.67L35.854,29.922z M34.17,28.528
		h-1.464l-0.487,1.917h0.645l0.181-0.714h0.67l-0.18,0.714h0.64l0.164-0.649c0.042-0.168,0.022-0.252-0.166-0.318
		c0.205-0.06,0.282-0.142,0.327-0.314l0.064-0.245C34.635,28.649,34.508,28.528,34.17,28.528L34.17,28.528z M33.823,29.294h-0.667
		l0.062-0.25h0.669L33.823,29.294z"/>
</g>
<path fill="none" d="M39,10.803h-0.004c-8.695,0-18.494,2.408-24.466,5.487c-1.262,4.949-1.997,9.813-2.405,13.371
	c-0.349,3.017-0.46,5.093-0.46,5.479c0,4.753,1.093,27.809,27.332,39.992L39,75.131l0.003,0.002
	c26.24-12.184,27.332-35.24,27.332-39.992c0-0.387-0.112-2.463-0.458-5.479c-0.411-3.558-1.146-8.421-2.406-13.371
	c-5.974-3.079-15.772-5.487-24.468-5.487H39z"/>
<path opacity="0.25" fill="#F2F2F3" enable-background="new    " d="M38.996,10.803h0.007c8.695,0,18.496,2.408,24.468,5.487
	l1.325-1.056l-0.617-0.32c-6.565-3.384-16.682-5.658-25.183-5.658c-8.494,0-18.611,2.275-25.175,5.658l-0.619,0.32l1.327,1.056
	C20.502,13.21,30.301,10.803,38.996,10.803z"/>
<path fill="#D0D2D3" d="M39,75.131v1.635l0.656-0.229c11.453-5.317,19.616-13.241,24.266-23.55
	c3.446-7.647,3.961-14.465,3.961-17.846c0-0.42-0.112-2.542-0.469-5.656c-0.384-3.32-1.117-8.372-2.445-13.577l-0.173-0.674
	L63.47,16.29c1.26,4.949,1.996,9.813,2.407,13.371c0.346,3.016,0.458,5.093,0.458,5.479c0,4.753-1.092,27.81-27.332,39.991H39
	l-0.004,0.001"/>
<path fill="#E6E6E6" d="M39,75.131v1.635l-0.656-0.229c-11.453-5.317-19.617-13.241-24.264-23.55
	c-3.448-7.647-3.964-14.465-3.964-17.846c0-0.42,0.113-2.542,0.47-5.656c0.383-3.32,1.116-8.372,2.445-13.577l0.171-0.674
	l1.327,1.056c-1.262,4.949-1.997,9.813-2.405,13.371c-0.349,3.016-0.46,5.093-0.46,5.479c0,4.753,1.093,27.81,27.332,39.991H39
	l0.003,0.001"/>
<path opacity="0.25" fill="none" stroke="#FFFFFF" stroke-width="1.2133" stroke-miterlimit="10" enable-background="new    " d="
	M38.993,10.803h-0.006c-8.694,0-18.492,2.408-24.464,5.487c-1.263,4.948-1.997,9.813-2.407,13.371
	c-0.347,3.017-0.458,5.093-0.458,5.479c0,4.753,1.093,27.809,27.33,39.991l0.006-0.001l0.003,0.001
	c26.241-12.183,27.33-35.239,27.33-39.991c0-0.387-0.111-2.463-0.459-5.479c-0.408-3.558-1.144-8.422-2.406-13.371
	c-5.974-3.079-15.771-5.487-24.465-5.487H38.993z"/>
<g>
	<path fill="#E93526" d="M32.068,38.838L31.2,39.55l1.174,0.382l-0.653,0.835l1.251,0.188l-0.412,0.918l1.497-0.408l0.67,0.939
		l1.068-1.09l1.09,1.09l1.088-1.09l1.088,1.09l1.088-1.09l1.09,1.09l1.089-1.09l1.089,1.09l0.761-1.09l1.391,0.559l-0.412-0.918
		l1.252-0.188l-0.656-0.836l1.174-0.382l-0.868-0.712l1.046-0.56l-1.046-0.559l0.868-0.713l-1.174-0.381l0.653-0.834l-1.251-0.188
		l0.412-0.918l-1.276,0.014l0.152-0.964l-1.244,0.215l-0.117-0.967l-1.156,0.407l-0.377-0.927l-1.022,0.582l-0.623-0.849
		l-0.84,0.731l-0.84-0.731l-0.623,0.849l-1.021-0.582l-0.376,0.927l-1.158-0.407l-0.116,0.967l-1.245-0.215l0.153,0.964
		l-1.278-0.014l0.412,0.918l-1.251,0.188l0.653,0.834L31.2,37.006l0.869,0.713l-1.043,0.559L32.068,38.838z M37.036,37.582h4.035
		c0.533,0.761,0,0.758-0.329,0.76l-0.208,1.123l-0.636-1.123l-0.353,1.128l-0.493-1.128l-0.494,1.128l-0.35-1.128l-0.638,1.123
		l-0.207-1.123C37.036,38.338,36.501,38.341,37.036,37.582z M55.937,46.594c-3.259-0.901-1.512-2.104,0.293-2.981
		c-3.9-2.577-3.026-3.614-3.96-6.535c-0.407,2.387-0.931,5.045-4.366,6.205c2.678,1.771,2.854,3.723,1.515,4.002
		s-2.096-1.289-2.096-1.289c0,1.408,1.047,3.842-0.758,3.852l-2.621-2.585c0.35,4.226,0.408,6.881-1.047,6.889
		c-1.406,0.01-1.725-1.809-1.588-2.276c-0.476,1.339-1.604,2.429-0.682,4.619c0.43,0.698,0.314,1.811-0.759,2.074h-0.136V49.03
		c0.622-1.155,2.932-5.37,3.686-5.601l-1.091-1.08l-1.089,1.09l-1.09-1.09l-1.089,1.09l-1.088-1.09l-1.088,1.09l-1.089-1.09
		l-1.1,1.08c0.705,0.223,2.772,4.175,3.541,5.601v9.537c-1.069-0.262-1.187-1.376-0.757-2.074c0.921-2.19-0.207-3.28-0.681-4.619
		c0.136,0.468-0.183,2.286-1.589,2.276c-1.456-0.008-1.395-2.663-1.049-6.889c0,0-0.815,2.598-2.619,2.585
		c-1.805-0.01-0.757-2.443-0.758-3.852c0,0-0.756,1.568-2.095,1.289c-1.338-0.279-1.164-2.229,1.515-4.002
		c-3.437-1.157-3.959-3.818-4.366-6.205c-0.933,2.92-0.06,3.958-3.96,6.535c1.806,0.877,3.551,2.08,0.292,2.981
		c2.446,1.966,5.24,3.391,1.106,5.589c2.445,1.1,7.044,2.86,2.737,4.786c-0.64,0.32-1.282,1.186-1.282,1.186
		c3.727,0.454,10.364,1.469,14.324,5.829c3.959-4.36,10.597-5.373,14.323-5.829c0,0-0.638-0.865-1.282-1.186
		c-4.306-1.926,0.293-3.687,2.737-4.786C50.699,49.984,53.492,48.56,55.937,46.594L55.937,46.594z M39.833,44.143
		c2.735,0.018,0,1.735,0,1.735V44.143z M38.236,44.133v1.733C38.233,45.863,35.502,44.114,38.236,44.133z"/>
</g>
<g>
	<path fill="#E93526" d="M33.854,66.538h-0.305l-0.013-0.494l0.82-0.71h0.415l0.083,3.271h-0.95L33.854,66.538z M35.548,67.692
		h1.813l-0.01-0.406h-1.163c-0.621,0-0.793-0.097-0.803-0.666l-0.013-0.525c-0.012-0.521,0.172-0.762,0.711-0.762h1.336
		c0.617,0,0.799,0.171,0.814,0.818l0.044,1.722c0.017,0.569-0.175,0.731-0.698,0.731h-2.01L35.548,67.692z M36.291,66.243
		l0.013,0.403h1.032l-0.013-0.403H36.291z M39.036,66.123c-0.016-0.592,0.183-0.789,0.72-0.789h2.009l0.022,0.909h-1.815
		l0.012,0.404h1.163c0.607,0,0.791,0.114,0.804,0.665l0.014,0.53c0.015,0.508-0.202,0.764-0.716,0.764h-1.331
		c-0.658,0-0.82-0.215-0.833-0.814L39.036,66.123z M41.04,67.692l-0.009-0.406h-1.033l0.011,0.406H41.04z M44.004,66.243h-1.757
		l-0.022-0.91h2.787l0.023,0.91l-1.039,2.362h-1.129L44.004,66.243L44.004,66.243z"/>
</g>
<path fill="none" stroke="#D0D2D3" stroke-width="1.2133" stroke-miterlimit="10" d="M13.203,15.234l-0.171,0.674
	c-1.329,5.205-2.063,10.255-2.445,13.577c-0.357,3.115-0.47,5.235-0.47,5.656c0,3.382,0.516,10.198,3.964,17.846
	c4.647,10.309,12.812,18.232,24.264,23.55L39,76.766l0.656-0.229c11.453-5.317,19.616-13.241,24.266-23.55
	c3.446-7.648,3.961-14.465,3.961-17.846c0-0.42-0.112-2.542-0.469-5.656c-0.384-3.32-1.117-8.372-2.445-13.577l-0.173-0.674
	l-0.617-0.32c-6.565-3.385-16.682-5.658-25.183-5.658c-8.494,0-18.611,2.274-25.175,5.658L13.203,15.234"/>
</svg>
