<?xml version="1.0" encoding="utf-8"?>
<!-- Generator: Adobe Illustrator 16.0.0, SVG Export Plug-In . SVG Version: 6.00 Build 0)  -->
<!DOCTYPE svg PUBLIC "-//W3C//DTD SVG 1.1//EN" "http://www.w3.org/Graphics/SVG/1.1/DTD/svg11.dtd">
<svg version="1.1" xmlns="http://www.w3.org/2000/svg" xmlns:xlink="http://www.w3.org/1999/xlink" x="0px" y="0px" width="80px"
	 height="80px" viewBox="0 0 80 80" enable-background="new 0 0 80 80" xml:space="preserve">
<g id="AS_Saint-Etienne-Layer_1">
	<g>
		<path fill="#3B2191" d="M40.014,3.987h0.166c0.798,2.464,1.629,4.919,2.41,7.388c0.092,0.259,0.178,0.523,0.32,0.756
			c3.087,0.077,6.182-0.009,9.27,0.039c-2.485,1.881-5.049,3.659-7.543,5.523c0.955,2.87,1.915,5.742,2.819,8.63
			c-2.476-1.731-4.913-3.521-7.371-5.276c-2.462,1.756-4.896,3.547-7.374,5.28c0.907-2.887,1.862-5.76,2.825-8.631
			c-2.496-1.869-5.058-3.643-7.542-5.523c3.102-0.029,6.206-0.008,9.31-0.011c0.916-2.722,1.765-5.465,2.711-8.175L40.014,3.987
			L40.014,3.987z"/>
		<path fill="#FFFFFF" d="M37.828,12.951c0.756-2.325,1.476-4.664,2.256-6.983c0.778,2.319,1.498,4.656,2.253,6.983
			c2.514,0.005,5.028-0.012,7.54,0.007c-2.008,1.525-4.078,2.965-6.102,4.465c0.778,2.329,1.529,4.667,2.298,7.001
			c-2.025-1.386-3.987-2.858-5.993-4.272c-2,1.419-3.967,2.885-5.985,4.273c0.765-2.334,1.517-4.674,2.297-7.004
			c-2.024-1.5-4.095-2.937-6.098-4.465C32.807,12.942,35.318,12.956,37.828,12.951L37.828,12.951z"/>
		<path fill="#E30033" d="M40.063,7.618c0.728,1.917,1.252,3.907,1.907,5.85c2.122,0.004,4.243-0.018,6.363,0.014
			c-1.695,1.275-3.434,2.494-5.142,3.757c0.609,1.969,1.294,3.917,1.913,5.886c-1.718-1.126-3.337-2.391-5.021-3.569
			c-1.686,1.171-3.3,2.446-5.021,3.564c0.623-1.967,1.3-3.914,1.912-5.882c-1.705-1.262-3.443-2.479-5.137-3.757
			c2.119-0.034,4.242-0.008,6.362-0.014C38.828,11.52,39.417,9.559,40.063,7.618L40.063,7.618z"/>
		<path fill="#FFFFFF" d="M40.001,10.148c0.042-0.347,0.218,0.082,0.223,0.168c0.402,1.328,0.819,2.654,1.214,3.983
			c1.541,0.017,3.085,0.012,4.624-0.044c-1.223,0.935-2.477,1.838-3.735,2.724c0.434,1.435,0.93,2.848,1.377,4.281
			c-1.231-0.813-2.414-1.691-3.619-2.538c-1.211,0.841-2.388,1.728-3.621,2.536c0.419-1.354,0.881-2.695,1.313-4.047
			c0.139-0.255-0.182-0.378-0.329-0.509c-1.121-0.802-2.243-1.602-3.342-2.437c1.542-0.043,3.079,0.032,4.62,0.04
			C39.145,12.919,39.568,11.531,40.001,10.148L40.001,10.148z"/>
		<path fill="#269145" d="M36.639,25.792c4.984-0.695,10.187,0.14,14.678,2.437c5.4,2.701,9.746,7.436,11.976,13.046
			c2.086,5.149,2.344,11.003,0.776,16.332c-1.498,5.13-4.715,9.722-8.985,12.925c-3.631,2.742-8.028,4.471-12.563,4.894
			c-0.874,0.072-1.744,0.257-2.625,0.19c-1.886-0.136-3.78-0.285-5.619-0.75c-5.167-1.219-9.896-4.168-13.309-8.229
			c-3.746-4.411-5.889-10.164-5.87-15.955c-0.076-5.728,1.96-11.436,5.578-15.864C24.608,29.945,30.427,26.627,36.639,25.792
			L36.639,25.792z"/>
		<g>
			<path fill="#FFFFFF" d="M36.564,27.969c1.107-0.087,2.213-0.196,3.318-0.31c0.016,0.161,0.045,0.48,0.057,0.638
				c-0.9,0.086-1.801,0.168-2.699,0.266c0.042,0.43,0.084,0.86,0.121,1.291c0.823-0.076,1.647-0.15,2.473-0.24
				c0.014,0.187,0.03,0.375,0.044,0.56c-0.826,0.064-1.649,0.148-2.474,0.226c0.057,0.494,0.107,0.982,0.167,1.478
				c0.909-0.094,1.816-0.177,2.726-0.262c0.016,0.147,0.049,0.444,0.065,0.592c-1.129,0.1-2.255,0.208-3.379,0.32
				C36.844,31.008,36.673,29.491,36.564,27.969L36.564,27.969z"/>
			<path fill="#FFFFFF" d="M41.035,27.705c1.205,0.18,2.422,0.283,3.619,0.49c0.017,0.143,0.046,0.43,0.059,0.575
				c-0.511-0.054-1.02-0.119-1.528-0.188c-0.195,1.314-0.344,2.631-0.525,3.943c-0.226-0.03-0.449-0.064-0.673-0.097
				c0.168-1.311,0.34-2.618,0.509-3.928c-0.507-0.072-1.012-0.14-1.518-0.203C40.992,28.147,41.021,27.85,41.035,27.705
				L41.035,27.705z"/>
			<path fill="#FFFFFF" d="M30.557,29.788c1.184-0.411,2.358-0.848,3.546-1.241c0.03,0.151,0.081,0.452,0.11,0.604
				c-0.46,0.143-0.912,0.307-1.357,0.48c0.459,1.23,0.878,2.472,1.321,3.708c-0.216,0.087-0.428,0.172-0.643,0.259
				c-0.439-1.252-0.885-2.503-1.323-3.757c-0.482,0.167-0.965,0.338-1.448,0.505C30.694,30.161,30.625,29.974,30.557,29.788
				L30.557,29.788z"/>
			<path fill="#FFFFFF" d="M45.687,28.544c0.158,0.027,0.472,0.079,0.627,0.107c-0.349,1.485-0.726,2.966-1.07,4.454
				c-0.214-0.046-0.423-0.091-0.634-0.135C44.959,31.494,45.325,30.02,45.687,28.544L45.687,28.544z"/>
			<path fill="#FFFFFF" d="M46.41,33.456c0.591-1.407,1.22-2.801,1.856-4.189c1.003,0.454,2.01,0.901,3.021,1.338
				c-0.067,0.208-0.135,0.417-0.205,0.621c-0.841-0.359-1.669-0.745-2.515-1.097c-0.164,0.379-0.341,0.755-0.471,1.151
				c0.726,0.422,1.525,0.684,2.276,1.063c-0.075,0.108-0.226,0.322-0.299,0.43c-0.773-0.261-1.493-0.653-2.249-0.954
				c-0.2,0.447-0.393,0.896-0.591,1.345c0.841,0.366,1.674,0.744,2.515,1.109c-0.078,0.181-0.155,0.36-0.233,0.542
				C48.473,34.385,47.45,33.9,46.41,33.456L46.41,33.456z"/>
			<path fill="#FFFFFF" d="M28.88,30.701c0.178-0.123,0.355-0.241,0.534-0.36c0.835,1.278,1.656,2.565,2.484,3.85
				c-0.203,0.128-0.403,0.259-0.603,0.391c-1.279-0.568-2.538-1.181-3.827-1.722c0.6,1.01,1.26,1.98,1.895,2.967
				c-0.166,0.103-0.336,0.2-0.51,0.29c-0.866-1.25-1.681-2.538-2.47-3.84c0.212-0.126,0.425-0.252,0.64-0.38
				c1.25,0.583,2.486,1.198,3.741,1.779C30.175,32.658,29.504,31.695,28.88,30.701L28.88,30.701z"/>
			<path fill="#FFFFFF" d="M34.461,30.592c0.518-0.142,1.042-0.264,1.565-0.385c0.049,0.21,0.097,0.42,0.146,0.632
				c-0.496,0.107-0.988,0.243-1.493,0.287C34.601,30.95,34.527,30.774,34.461,30.592L34.461,30.592z"/>
			<path fill="#FFFFFF" d="M52.862,31.769c0.212,0.138,0.422,0.281,0.631,0.424c-0.147,1.392-0.331,2.778-0.471,4.169
				c0.75-0.894,1.454-1.824,2.182-2.735c0.181,0.103,0.359,0.207,0.541,0.31c-0.901,1.26-1.909,2.439-2.851,3.67
				c-0.204-0.225-0.605-0.375-0.518-0.74c0.097-1.314,0.265-2.625,0.372-3.938c-0.76,0.914-1.481,1.859-2.217,2.79
				c-0.121-0.095-0.357-0.285-0.476-0.38C50.991,34.148,51.946,32.975,52.862,31.769L52.862,31.769z"/>
			<path fill="#FFFFFF" d="M24.265,34.102c0.158-0.144,0.316-0.291,0.476-0.433c1.012,1.133,2.076,2.221,3.046,3.393
				c-0.142,0.16-0.312,0.294-0.477,0.432C26.322,36.337,25.272,35.237,24.265,34.102L24.265,34.102z"/>
			<path fill="#FFFFFF" d="M37.583,34.581c3.229-0.509,6.609-0.014,9.546,1.423c3.566,1.723,6.456,4.801,7.936,8.476
				c1.43,3.495,1.563,7.494,0.389,11.084c-0.953,2.896-2.733,5.521-5.094,7.452c-2.859,2.375-6.562,3.728-10.282,3.685
				c-3.761,0.041-7.501-1.345-10.371-3.764c-2.313-1.927-4.059-4.517-4.995-7.376c-1.236-3.768-1.021-7.992,0.614-11.607
				C27.495,39.037,32.259,35.373,37.583,34.581L37.583,34.581z"/>
		</g>
		<path fill="#269145" d="M37.894,35.472c1.455-0.195,2.925-0.194,4.379,0c0.018,3.499-0.004,6.995,0.012,10.493
			c1.504-0.002,3.011-0.005,4.521,0.001c0.011-3.021-0.003-6.043,0.008-9.066c1.636,0.86,3.238,1.925,4.408,3.365
			c0.064,1.898-0.008,3.802,0.031,5.701c0.784-0.003,1.57-0.006,2.354,0.005c0.152,2.811,0.02,5.633,0.071,8.447
			c-0.05,0.204,0.092,0.603-0.187,0.672c-0.742,0.072-1.497,0.012-2.244,0.027c-0.003,1.923,0,3.85-0.003,5.774
			c-1.272,1.349-2.773,2.479-4.433,3.312c-0.007-3.027,0-6.056-0.004-9.086H42.28c-0.003,3.503-0.003,7.004,0,10.51
			c-1.457,0.191-2.935,0.191-4.394,0c0.002-3.506,0.002-7.007,0-10.51c-1.509,0-3.017,0-4.526,0c-0.002,3.03,0,6.059-0.002,9.089
			c-1.661-0.835-3.161-1.965-4.434-3.316c0-1.923,0-3.85,0-5.772c-0.747-0.018-1.495,0.039-2.239-0.024
			c-0.283-0.086-0.154-0.451-0.196-0.664c0.048-2.817-0.075-5.644,0.066-8.459c0.788-0.014,1.573-0.01,2.361-0.007
			c0.033-1.9-0.035-3.805,0.03-5.702c1.174-1.437,2.773-2.502,4.409-3.364c0.011,3.023,0,6.047,0.007,9.067
			c1.507-0.005,3.01-0.007,4.517,0.002c0.024-3.503-0.002-7,0.016-10.498L37.894,35.472z"/>
		<path fill="#FFFFFF" d="M53.386,38.077c1.193-0.957,2.419-1.87,3.607-2.831c0.148,0.247,0.532,0.467,0.406,0.795
			c-0.425,1.246-0.938,2.457-1.355,3.704c0.964-0.69,1.865-1.459,2.827-2.149c0.114,0.18,0.229,0.363,0.343,0.545
			c-1.196,0.926-2.404,1.838-3.573,2.795c-0.166-0.256-0.546-0.488-0.371-0.83c0.407-1.248,0.895-2.467,1.29-3.719
			c-0.95,0.695-1.862,1.434-2.793,2.15C53.669,38.422,53.482,38.19,53.386,38.077L53.386,38.077z"/>
		<path fill="#FFFFFF" d="M21.891,36.903c1.56,0.451,3.113,0.922,4.664,1.404c-0.143,0.194-0.286,0.387-0.43,0.583
			c-0.452-0.149-0.906-0.295-1.359-0.44c-0.339,0.46-0.675,0.92-1.017,1.379c0.273,0.415,0.54,0.833,0.793,1.258
			c-0.152,0.161-0.301,0.323-0.45,0.485c-0.855-1.379-1.754-2.734-2.614-4.112C21.613,37.275,21.752,37.087,21.891,36.903
			L21.891,36.903z"/>
		<path fill="#269145" d="M22.35,37.687c0.615,0.198,1.23,0.393,1.847,0.586c-0.261,0.352-0.524,0.703-0.784,1.06
			C23.047,38.79,22.695,38.241,22.35,37.687L22.35,37.687z"/>
		<g>
			<path fill="#FFFFFF" d="M55.983,41.661c1.388-0.635,2.772-1.267,4.154-1.914c0.466,1.034,0.951,2.054,1.413,3.088
				c-0.211,0.065-0.421,0.127-0.632,0.189c-0.352-0.808-0.736-1.604-1.083-2.417c-0.396,0.184-0.793,0.366-1.188,0.543
				c0.346,0.762,0.715,1.515,1.025,2.29c-0.126,0.045-0.381,0.133-0.509,0.179c-0.337-0.753-0.679-1.504-1.048-2.243
				c-0.436,0.218-0.878,0.424-1.317,0.642c0.373,0.834,0.816,1.635,1.116,2.494c-0.176,0.083-0.354,0.158-0.533,0.225
				C56.928,43.705,56.449,42.687,55.983,41.661L55.983,41.661z"/>
			<path fill="#FFFFFF" d="M19.045,41.177c0.119-0.599,0.592-1.179,1.23-1.246c0.32,0.005,0.628,0.108,0.941,0.177
				c-0.052,0.157-0.107,0.316-0.161,0.477c-0.48-0.118-1.072-0.12-1.3,0.409c-0.372,0.449-0.004,1.106,0.544,1.152
				c0.662-0.271,1.01-0.984,1.666-1.261c0.609-0.124,1.268,0.191,1.564,0.732c0.342,0.739-0.07,1.635-0.702,2.069
				c-0.499,0.323-1.08,0.085-1.58-0.096c0.082-0.148,0.162-0.295,0.245-0.439c0.332,0.051,0.702,0.247,1.022,0.037
				c0.445-0.244,0.65-0.799,0.57-1.284c-0.176-0.267-0.488-0.38-0.745-0.547c-0.571,0.429-1.026,1.025-1.676,1.343
				C19.811,42.897,18.889,42.049,19.045,41.177L19.045,41.177z"/>
			<path fill="#FFFFFF" d="M26.966,46.433c8.743,0.001,17.487,0.003,26.231-0.004c0.017,2.741,0.005,5.479,0.007,8.22
				c-8.748,0.002-17.491,0.002-26.239,0C26.964,51.909,26.958,49.171,26.966,46.433L26.966,46.433z"/>
		</g>
		<g>
			<path fill="#269145" d="M30.385,47.199c0.272-0.002,0.541,0,0.811,0c0.564,2.218,1.156,4.433,1.721,6.652
				c-0.259-0.012-0.518-0.023-0.778-0.034c-0.143-0.651-0.295-1.301-0.463-1.945c-0.608,0.002-1.219,0.002-1.829,0.002
				c-0.184,0.645-0.361,1.294-0.527,1.943c-0.249,0.014-0.499,0.025-0.748,0.037C29.169,51.632,29.792,49.419,30.385,47.199
				L30.385,47.199z"/>
			<path fill="#269145" d="M36.119,47.273c0.728-0.403,1.783-0.295,2.312,0.39c0.352,0.423,0.387,0.991,0.454,1.513
				c-0.162-0.006-0.491-0.015-0.657-0.018c-0.111-0.357-0.151-0.774-0.452-1.031c-0.502-0.453-1.464-0.359-1.724,0.32
				c-0.088,0.354-0.135,0.797,0.101,1.108c0.814,0.614,2.15,0.434,2.666,1.447c0.339,0.813,0.263,1.874-0.354,2.541
				c-0.748,0.729-2.156,0.745-2.821-0.106c-0.427-0.478-0.479-1.148-0.526-1.758c0.164,0.005,0.493,0.011,0.656,0.016
				c0.092,0.481,0.12,1.104,0.626,1.36c0.774,0.485,2.087-0.045,1.919-1.074c0.013-0.688-0.725-0.876-1.246-1.052
				c-0.641-0.221-1.489-0.378-1.696-1.134C35.151,48.923,35.298,47.793,36.119,47.273L36.119,47.273z"/>
			<path fill="#269145" d="M41.823,47.933c0.514-1.148,2.351-1.192,2.997-0.15c0.259,0.411,0.308,0.904,0.388,1.373
				c-0.168,0.006-0.5,0.012-0.667,0.018c-0.114-0.579-0.386-1.283-1.082-1.314c-0.931-0.232-1.564,1.053-0.975,1.725
				c0.49,0.323,1.084,0.416,1.624,0.619c1.746,0.447,1.549,3.413-0.144,3.791c-0.78,0.244-1.744-0.014-2.163-0.747
				c-0.314-0.46-0.332-1.026-0.38-1.56c0.214-0.005,0.427-0.012,0.642-0.012c0.049,0.699,0.36,1.541,1.197,1.547
				c0.952,0.188,1.729-0.894,1.219-1.73c-0.679-0.676-1.801-0.568-2.517-1.193C41.438,49.633,41.511,48.67,41.823,47.933
				L41.823,47.933z"/>
			<path fill="#269145" d="M47.991,47.197c1.179,0.009,2.358-0.015,3.535,0.015c-0.007,0.277-0.013,0.556-0.015,0.832
				c-0.956,0.005-1.904,0.005-2.857,0.003c-0.002,0.667-0.002,1.335,0.019,2.007c0.885-0.011,1.773-0.009,2.66-0.009
				c-0.004,0.268-0.009,0.533-0.011,0.802c-0.889,0.003-1.777,0.001-2.667,0.001c-0.001,0.731-0.004,1.461,0.018,2.193
				c0.976-0.008,1.953-0.003,2.93-0.008c-0.005,0.271-0.007,0.543-0.012,0.813c-1.201-0.017-2.402-0.003-3.604-0.012
				c0.017-2.215,0.004-4.43,0.004-6.64V47.197z"/>
		</g>
		<path fill="#FFFFFF" d="M30.034,51.124c0.235-0.909,0.444-1.821,0.717-2.718c0.263,0.898,0.479,1.81,0.708,2.718
			C30.981,51.12,30.507,51.12,30.034,51.124L30.034,51.124z"/>
		<g>
			<path fill="#269145" d="M33.504,52.816c0.255-0.012,0.512-0.021,0.768-0.028c0.001,0.354,0.001,0.709,0.003,1.064
				c-0.257-0.013-0.516-0.022-0.772-0.033C33.507,53.481,33.507,53.148,33.504,52.816L33.504,52.816z"/>
			<path fill="#269145" d="M39.82,52.804c0.253-0.004,0.503-0.009,0.756-0.01c0.002,0.349,0.004,0.696,0.008,1.044
				c-0.258-0.004-0.512-0.007-0.771-0.012C39.815,53.483,39.82,53.144,39.82,52.804L39.82,52.804z"/>
			<path fill="#269145" d="M46.126,52.797c0.253,0.002,0.503,0.003,0.759,0.006c0.002,0.34,0.002,0.679,0.008,1.022
				c-0.255,0.006-0.514,0.01-0.77,0.018C46.125,53.492,46.126,53.144,46.126,52.797L46.126,52.797z"/>
		</g>
		<g>
			<path fill="#FFFFFF" d="M45.518,67.999c1.047-0.413,2.1-0.806,3.143-1.215c0.068,0.207,0.134,0.418,0.198,0.625
				c-0.838,0.31-1.678,0.627-2.504,0.972c0.154,0.399,0.31,0.796,0.464,1.193c0.769-0.298,1.534-0.585,2.296-0.892
				c0.061,0.127,0.175,0.382,0.23,0.511c-0.77,0.307-1.548,0.599-2.324,0.893c0.174,0.463,0.35,0.924,0.527,1.386
				c0.86-0.329,1.718-0.674,2.584-0.987c0.047,0.143,0.137,0.424,0.18,0.566c-1.052,0.403-2.104,0.81-3.155,1.212
				C46.615,70.842,46.065,69.42,45.518,67.999L45.518,67.999L45.518,67.999z"/>
			<path fill="#FFFFFF" d="M31.631,71.713c0.45-1.488,0.95-2.959,1.456-4.427c0.133,0.086,0.397,0.263,0.529,0.35
				c-0.377,1.239-0.811,2.462-1.191,3.697c0.715,0.229,1.422,0.475,2.143,0.692c-0.027,0.145-0.083,0.435-0.111,0.58
				C33.512,72.318,32.576,72,31.631,71.713L31.631,71.713z"/>
			<path fill="#FFFFFF" d="M41.334,68.797c1.02-0.075,2.062-0.487,3.068-0.208c0.852,0.284,0.772,1.372,0.441,2.032
				c0.516,0.628,0.492,1.477,0.821,2.192c-0.255,0.029-0.511,0.063-0.764,0.095c-0.189-0.575-0.077-1.377-0.609-1.768
				c-0.629-0.135-1.289,0.108-1.923,0.166c0.098,0.645,0.18,1.291,0.258,1.939c-0.166,0.021-0.495,0.051-0.662,0.07
				C41.756,71.81,41.524,70.307,41.334,68.797L41.334,68.797z"/>
			<path fill="#FFFFFF" d="M36.047,68.688c1.035-0.417,2.499-0.148,3.024,0.928c0.424,0.959,0.232,2.15-0.421,2.958
				c-0.971,1.189-3.222,0.858-3.722-0.621C34.554,70.802,34.906,69.263,36.047,68.688L36.047,68.688L36.047,68.688z"/>
			<path fill="#FFFFFF" d="M39.946,68.832c0.205,0.011,0.408,0.026,0.613,0.042c-0.014,1.503-0.014,3.013,0,4.518
				c-0.203,0.016-0.406,0.03-0.611,0.046C39.941,71.901,39.941,70.365,39.946,68.832L39.946,68.832z"/>
		</g>
		<path fill="#269145" d="M36.409,69.233c0.791-0.395,1.916,0.038,2.134,0.924c0.165,0.823-0.022,1.832-0.754,2.334
			c-0.506,0.357-1.206,0.245-1.701-0.072C35.046,71.666,35.354,69.829,36.409,69.233L36.409,69.233z"/>
		<path fill="#269145" d="M42.112,69.276c0.625-0.067,1.25-0.221,1.884-0.185c0.556,0.158,0.674,1.082,0.136,1.327
			c-0.581,0.239-1.229,0.231-1.844,0.341C42.223,70.267,42.159,69.771,42.112,69.276L42.112,69.276z"/>
	</g>
</g>
<g id="Calque_1">
</g>
</svg>
