<?xml version="1.0" encoding="utf-8"?>
<!-- Generator: Adobe Illustrator 16.0.0, SVG Export Plug-In . SVG Version: 6.00 Build 0)  -->
<!DOCTYPE svg PUBLIC "-//W3C//DTD SVG 1.1//EN" "http://www.w3.org/Graphics/SVG/1.1/DTD/svg11.dtd">
<svg version="1.1" id="Calque_1" xmlns="http://www.w3.org/2000/svg" xmlns:xlink="http://www.w3.org/1999/xlink" x="0px" y="0px"
	 width="80px" height="80px" viewBox="0 0 80 80" enable-background="new 0 0 80 80" xml:space="preserve">
<path fill="#FFFFFF" d="M39.411,74.564l0.753,0.855l0.076-0.03c7.544-3.131,13.99-8.607,18.643-15.836
	c4.753-7.386,7.266-16.071,7.266-25.121c0-7.402-1.726-14.718-4.996-21.16l-0.192-0.381l-0.426,0.039
	c-1.03,0.091-2.097,0.135-3.258,0.135c-4.349,0-6.554-0.604-8.689-1.187l-1.069-0.307c-1.835-0.542-3.916-1.158-7.521-1.158
	c-3.603,0-5.686,0.617-7.522,1.16c-0.359,0.105-0.713,0.21-1.069,0.306c-2.133,0.583-4.337,1.188-8.687,1.188
	c-1.166,0-2.231-0.045-3.258-0.137l-0.425-0.037l-0.191,0.378c-3.27,6.446-4.998,13.761-4.998,21.161
	c0,9.049,2.513,17.734,7.267,25.121c4.583,7.116,10.901,12.537,18.291,15.688v-0.678H39.411L39.411,74.564z M40,76.766l-0.351-0.146
	l-0.34-0.142c-7.764-3.223-14.397-8.855-19.182-16.287c-4.876-7.577-7.456-16.485-7.456-25.76c0-7.583,1.772-15.084,5.126-21.692
	l0.552-1.09l1.22,0.108c0.99,0.087,2.022,0.131,3.153,0.131c4.191,0,6.318-0.583,8.376-1.146l1.046-0.3
	C34.059,9.876,36.227,9.235,40,9.235h0.004c3.774,0,5.94,0.64,7.852,1.205c0.354,0.104,0.697,0.206,1.048,0.301
	c2.06,0.563,4.188,1.146,8.377,1.146c1.125,0,2.156-0.043,3.152-0.131l1.224-0.109l0.55,1.091
	c3.354,6.606,5.123,14.106,5.123,21.692c0,9.277-2.575,18.184-7.45,25.76c-4.784,7.431-11.418,13.061-19.185,16.287l-0.104,0.044
	L40,76.766z"/>
<path fill="#B7BEC5" d="M61.68,13.004l-0.371-0.736l-0.821,0.073c-1,0.088-2.047,0.134-3.207,0.134
	c-4.267,0-6.437-0.592-8.533-1.166c-0.353-0.095-0.701-0.198-1.056-0.306c-1.873-0.553-4.002-1.182-7.689-1.182v0.001
	c-3.686,0-5.813,0.628-7.688,1.184l-1.057,0.302c-2.094,0.574-4.264,1.166-8.531,1.166c-1.157,0-2.206-0.044-3.206-0.134
	l-0.822-0.072l-0.375,0.736c-3.311,6.524-5.062,13.933-5.062,21.426c0,9.164,2.547,17.961,7.361,25.441
	c4.719,7.329,11.258,12.883,18.913,16.062L40,76.127v-0.002v0.002l0.467-0.192c7.655-3.179,14.195-8.734,18.913-16.062
	c4.814-7.48,7.358-16.279,7.358-25.441C66.738,26.938,64.99,19.529,61.68,13.004"/>
<path fill="#005CB9" d="M32.667,12.488l-1.008,0.29c-1.998,0.545-4.067,1.112-8.137,1.112c-1.103,0-2.103-0.042-3.056-0.127
	l-0.786-0.071l-0.353,0.701C16.17,20.615,14.5,27.682,14.5,34.826c0,8.739,2.429,17.13,7.02,24.263
	c4.5,6.989,10.736,12.288,18.036,15.317L40,74.591l0.596-33.443L40,11.36C36.484,11.36,34.456,11.958,32.667,12.488"/>
<path fill="#004A97" d="M40.446,74.406c7.299-3.031,13.539-8.329,18.036-15.318c4.592-7.133,7.019-15.523,7.019-24.263
	c0-7.145-1.668-14.211-4.824-20.434l-0.355-0.7l-0.784,0.071c-0.951,0.085-1.949,0.126-3.056,0.126
	c-4.069,0-6.139-0.566-8.135-1.111l-1.011-0.29c-1.789-0.53-3.815-1.128-7.334-1.128v63.231L40.446,74.406z"/>
<path fill="#FFFFFF" d="M41.662,34.017h0.424v3.451h-0.424V34.017z M37.25,19.201v-3.024l0.235-0.024v3.048H37.25z"/>
<g>
	<path fill="#FFFFFF" d="M38.21,17.405c0,0.194,0.159,0.352,0.353,0.352c0.193,0,0.353-0.159,0.353-0.352v-0.708
		c0-0.195-0.16-0.353-0.353-0.353c-0.195,0-0.353,0.159-0.353,0.353V17.405z M37.975,16.697c0-0.328,0.262-0.587,0.587-0.587
		c0.324,0,0.586,0.26,0.586,0.587v1.962c0,0.327-0.262,0.587-0.586,0.587c-0.326,0-0.587-0.26-0.587-0.587v-0.253l0.235-0.026v0.279
		c0,0.195,0.159,0.353,0.353,0.353c0.193,0,0.353-0.159,0.353-0.353V17.88c-0.101,0.072-0.221,0.112-0.353,0.112
		c-0.326,0-0.587-0.261-0.587-0.587V16.697z M40.535,16.697c0-0.195-0.156-0.353-0.352-0.353c-0.194,0-0.353,0.159-0.353,0.353
		v0.369l-0.235,0.026v-0.396c0-0.328,0.262-0.587,0.587-0.587s0.586,0.26,0.586,0.587v0.284c0,0.113-0.12,0.343-0.12,0.343
		l-0.736,1.369c0,0-0.081,0.155-0.081,0.276h0.917v0.234h-1.152v-0.234c0-0.18,0.11-0.383,0.11-0.383l0.735-1.374l0.095-0.23v-0.284
		H40.535z M41.408,16.389v1.008c0.099-0.073,0.221-0.114,0.352-0.114c0.326,0,0.587,0.261,0.587,0.587v0.789
		c0,0.327-0.261,0.587-0.587,0.587c-0.327,0-0.586-0.261-0.586-0.587v-0.273l0.235-0.025v0.301c0,0.195,0.158,0.353,0.351,0.353
		c0.196,0,0.354-0.159,0.354-0.353v-0.789c0-0.195-0.159-0.353-0.354-0.353c-0.168,0-0.313,0.126-0.347,0.295l-0.239-0.051v-1.608
		h1.089v0.235h-0.854V16.389L41.408,16.389z M42.975,21.069l0.103,0.002v0.003h0.055v0.004h0.052v0.001h0.032l0.066,0.006v0.004
		h0.05v0.002l0.068,0.003h0.031v0.003h0.047v0.004h0.045v0.004h0.044v0.003h0.051v0.002h0.044v0.002l0.013,0.001h0.028v0.004h0.049
		v0.004l0.084,0.002v0.003h0.044l0.007,0.005h0.035v0.003h0.039l0.007,0.003h0.034v0.003h0.041v0.004h0.039v0.004h0.039v0.002h0.04
		v0.003h0.04v0.005l0.079,0.003v0.001l0.034,0.001v0.004h0.04v0.003h0.033v0.003h0.037v0.004h0.038v0.003h0.035v0.005h0.036v0.003
		l0.035,0.001v10.651l-0.015,0.002l-0.035-0.002v-0.007h-0.037v-0.003h-0.035V31.83h-0.035v-0.005h-0.04v-0.003h-0.037v-0.003h-0.04
		v-0.003h-0.034V31.81l-0.078-0.001v-0.006h-0.036v-0.002h-0.043v-0.002l-0.039-0.001v-0.003h-0.037v-0.003h-0.046V31.79h-0.036
		v-0.006h-0.044v-0.001l-0.086-0.005v-0.003h-0.041v-0.002h-0.042v-0.004h-0.047v-0.003H43.64v-0.003h-0.046v-0.004h-0.043v-0.002
		h-0.048v-0.003h-0.048v-0.004h-0.049v-0.003l-0.063-0.004h-0.031v-0.003h-0.051v-0.004H43.21v-0.004l-0.085-0.003l0.007-0.417
		h0.007v-0.027l0.001-0.169l0.004-0.11v-0.076l0.003-0.135l0.004-0.092v-0.118l0.006-0.205l0.002-0.136l0.024-1.219l0.004-0.119
		v-0.033l0.003-0.118l0.007-0.202l0.003-0.137v-0.152l0.004-0.118l0.009-0.202l0.002-0.137v-0.152l0.004-0.093l0.003-0.135v-0.074
		l0.002-0.104l0.005-0.198l0.005-0.109v-0.049l0.004-0.127v-0.024h0.003v-0.152h0.003v-0.018l0.003-0.177l0.004-0.112V26.25
		l0.004-0.117v-0.034l0.002-0.118v-0.076l0.007-0.137v-0.096v-0.116l0.01-0.2l0.004-0.139v-0.118l0.003-0.205v-0.108l-0.017,0.076
		l0,0l-0.007,0.033h-0.002l-0.004,0.029h-0.008v0.013h-0.002l-0.003,0.03h-0.004l-0.012,0.062l-0.046,0.194l-0.002,0.033
		l-0.034,0.149l-0.007,0.031l-0.028,0.119L43.1,25.587h-0.002l-0.006,0.031H43.09v0.012h-0.003l-0.003,0.03H43.08l-0.003,0.033
		h-0.004l-0.002,0.029h-0.005v0.014h-0.002v0.015h-0.007v0.018h-0.002l-0.005,0.029H43.05v0.015h-0.001v0.016h-0.005v0.016
		l-0.052,0.224l-0.004,0.033l-0.047,0.195l-0.01,0.062l-0.045,0.195l-0.012,0.063l-0.047,0.194l-0.002,0.033l-0.028,0.118
		l-0.004,0.032h-0.005l-0.004,0.031h-0.002v0.013h-0.002v0.017h-0.004l-0.005,0.029H42.77v0.017h-0.004l-0.003,0.028h-0.004v0.014
		h-0.002v0.016h-0.003v0.017l-0.045,0.196l-0.017,0.075H42.69l-0.002,0.031l-0.03,0.119l-0.01,0.063l-0.048,0.194l-0.005,0.046
		h-0.004l-0.013,0.064l-0.026,0.118l-0.004,0.031l-0.029,0.12l-0.004,0.032h-0.002l-0.006,0.028l0,0v0.015h-0.005v0.016h-0.004
		l-0.006,0.029h-0.002v0.016h-0.003v0.015h-0.001v0.016h-0.003v0.017h-0.003v0.014h-0.003v0.017L42.42,28.69l-0.004,0.034
		l-0.028,0.117l-0.002,0.032h-0.004l-0.003,0.03h-0.004v0.013h-0.004v0.017h-0.002v0.017l-0.049,0.195l-0.014,0.075h-0.002
		l-0.002,0.033h-0.007l-0.002,0.029h-0.005v0.012h-0.004v0.017h-0.004v0.019l-0.045,0.194l-0.002,0.033H42.23l-0.006,0.03h-0.003
		V29.6H42.22v0.017h-0.005l-0.003,0.028h-0.003v0.018h-0.003l-0.017,0.085l-0.078-0.003h-0.078v-0.003h-0.084v-0.005h-0.084v-0.003
		l-0.792-0.023l-0.011-0.037l-0.002-0.03h-0.005L41.048,29.6l0,0l-0.005-0.032h-0.004v-0.014h-0.003v-0.018h-0.001V29.52h-0.003
		v-0.014h-0.003l-0.003-0.032l-0.036-0.153l-0.015-0.079l-0.045-0.197l-0.003-0.031h-0.007v-0.015h-0.002v-0.017h-0.002v-0.017
		h-0.005v-0.014H40.91v-0.017h-0.005V28.92h-0.002v-0.012h-0.006v-0.017h-0.003v-0.018h-0.003V28.86h-0.006l-0.002-0.034h-0.002
		v-0.013h-0.005v-0.017H40.87V28.78h-0.002v-0.014l0,0l-0.004-0.032l-0.047-0.199l-0.004-0.032l-0.035-0.152l-0.005-0.031
		l-0.024-0.106l-0.002-0.033h-0.005l-0.004-0.031h-0.002v-0.014h-0.004V28.12h-0.003l-0.004-0.027l0,0l-0.007-0.033h0.003v-0.014
		h-0.005v-0.016h-0.006v-0.016H40.71V28h-0.004l-0.005-0.033H40.7v-0.012h-0.002v-0.017h-0.005v-0.017H40.69v-0.014h-0.002
		l-0.005-0.032l-0.047-0.2l-0.006-0.046h-0.002l-0.017-0.078l-0.045-0.18l-0.01-0.079l-0.045-0.198l-0.015-0.081l-0.042-0.179
		l-0.005-0.033l-0.035-0.15l-0.006-0.034h-0.003l-0.002-0.029v-0.014H40.4v-0.016h-0.004l-0.003-0.03h-0.005l-0.002-0.032h-0.003
		v-0.015h-0.003v-0.016h-0.002v-0.017h-0.003v-0.013h-0.006l-0.001-0.033l-0.044-0.183l-0.006-0.043h-0.001l-0.003-0.035
		l-0.025-0.104l-0.004-0.032l-0.031-0.134l-0.005-0.034l-0.036-0.152l-0.004-0.033l-0.032-0.135l-0.003-0.032h-0.003v-0.015h-0.003
		v-0.018h-0.003v-0.017h-0.003v-0.014h-0.003l-0.004-0.032h-0.003v-0.013h-0.004V25.36h-0.001v-0.017h-0.003v-0.014h-0.005v-0.015
		l-0.045-0.199l-0.014-0.076h-0.003l-0.014-0.079l-0.042-0.18v-0.014l-0.018-0.064l-0.007-0.029l0.151,6.954l-0.067,0.003h-0.598
		l-0.058,0.003h-0.154l-0.411,0.006l-0.112,0.004l-0.05,0.004V20.992l0.257-0.007h0.167v-0.003h0.224v-0.002h0.298l0.071-0.003
		h0.511l0.068,0.003l0.006,0.002l0.013,0.06v0.017h0.003v0.016h0.003v0.015h0.003l0.005,0.033l0.025,0.106l0.012,0.079h0.003v0.013
		h0.004v0.017h0.001v0.016h0.006v0.014h0.004l0.002,0.034l0.046,0.198l0.011,0.063h0.003l0.003,0.032l0.036,0.152l0.003,0.033
		l0.035,0.151l0.006,0.032l0.023,0.106l0.004,0.032h0.005v0.013h0.003v0.017h0.004v0.017h0.001l0.006,0.03h0.002l0.007,0.033h0.002
		v0.013h0.004v0.033h0.006v0.015h0.002l0.004,0.032l0.046,0.198l0.005,0.031l0.028,0.124l0.002,0.031h0.007v0.014h0.002v0.017h0.003
		v0.017h0.004v0.014h0.004v0.016H40.7v0.018h0.003v0.013h0.001v0.016h0.006v0.019h0.003v0.013h0.004l0.005,0.033l0.048,0.214
		l0.009,0.045h0.002l0.002,0.033h0.005v0.014l0,0v0.017h0.004v0.018h0.002v0.013h0.003v0.017H40.8v0.018h0.005v0.013h0.001v0.017
		h0.003v0.019h0.005v0.012h0.002l0.004,0.032h0.005v0.015l0,0v0.016h0.007v0.018h0.002v0.017l0.044,0.197l0.011,0.046h0.003v0.017
		l0.02,0.062v0.018l0.047,0.198l0.006,0.048h0.002v0.016h0.002v0.017h0.004v0.017h0.005v0.014h0.005l0.014,0.078l0.047,0.215
		l0.007,0.045h0.005l0.012,0.08l0.051,0.213l0.003,0.034L41.16,25l0.003,0.033l0.024,0.122l0.008,0.031l0.023,0.105l0.002,0.034
		h0.005v0.013h0.006v0.017h0.003v0.017h0.004v0.029l0,0l0.004,0.033l0.05,0.215l0.007,0.045h0.006l0.003,0.033l0.036,0.167
		l0.004,0.034l0.039,0.167l0.002,0.034l0.031,0.121l0.002,0.032l0.031,0.122l0.002,0.033h0.005v0.013h0.002v0.016h0.004v0.02h0.002
		v0.011h0.005v0.019h0.002l0.005,0.031h0.004v0.016h0.003v0.015h0.002v0.017h0.007v0.014h0.003l0.003,0.034l0.049,0.213l0.006,0.05
		l0.054,0.212l0.004,0.045h0.004v0.018l0.016,0.063l0.005,0.026l0.008-0.029v-0.017h0.003v-0.025h0.003l0.006-0.028h0.002v-0.015
		h0.003l0.004-0.032h0.005v-0.015h0.002v-0.015h0.002v-0.017h0.006v-0.013h0.003l0.003-0.031h0.003l0.014-0.078l0.051-0.212
		l0.006-0.047h0.004l0.004-0.032l0.033-0.134l0.004-0.032l0.037-0.165l0.007-0.033l0.029-0.134l0.003-0.032h0.004l0.004-0.031h0.004
		v-0.013h0.005v-0.017h0.004v-0.029h0.007l0.002-0.033h0.004v-0.013h-0.001v-0.017h0.006v-0.017h0.002v-0.014h0.005v-0.017
		l0.042-0.181l0.012-0.075h0.005l0.015-0.079l0.05-0.211l0.005-0.045h0.004l0.011-0.063l0.048-0.211l0.017-0.08l0.043-0.18
		l0.009-0.063l0.04-0.165l0.006-0.032l0.037-0.164l0.004-0.033h0.006v-0.013l0,0v-0.019h0.004v-0.015h0.002v-0.015h0.004
		l0.002-0.029h0.005l0.005-0.033h0.004l0.004-0.028h0.001v-0.015h0.005v-0.017h0.002l0.002-0.029h0.004l0.004-0.031h0.003
		l0.008-0.03h0.004v-0.013h0.003v-0.017h0.002v-0.018l0.048-0.21l0.004-0.034h0.003l0.006-0.029h0.006V23.74h0.002v-0.017h0.002
		v-0.017h0.004v-0.013h0.002v-0.018h0.004v-0.017h0.002v-0.013h0.002v-0.017l0.05-0.211l0.012-0.08l0.039-0.164l0.002-0.034
		l0.041-0.165l0.004-0.034h0.003l0.003-0.029h0.003V22.9h0.004v-0.013h0.003l0.005-0.03h0.002l0.003-0.032h0.004l0.005-0.029h0.002
		v-0.014h0.006v-0.018h0.003l0.004-0.028h0.003v-0.018h0.003v-0.015h0.004v-0.016h0.003v-0.017h0.003v-0.015h0.005l0.002-0.031
		l0.058-0.241l0.002-0.034l0.042-0.164l0.004-0.033h0.002l0.002-0.029h0.005V22.11h0.002v-0.017h0.006l0.003-0.031h0.002v-0.016
		h0.004v-0.014h0.004v-0.017h0.002v-0.018h0.004v-0.012h0.004l0.003-0.035l0.059-0.24l0.002-0.033h0.003l0.005-0.028h0.004v-0.014
		h0.002v-0.017h0.005v-0.017l0.049-0.21l0.013-0.063l0.026-0.119l0.003-0.032h0.003v-0.015h0.006v-0.017h0.004V21.13h0.002v-0.012
		h0.004v-0.016L42.975,21.069 M30.918,32.448v-4.834h-0.001L30.88,27.62l-0.072,0.017h-0.017l-0.053,0.013h-0.021l-0.207,0.042
		l-0.071,0.011l-0.063,0.017l-0.038,0.003l-0.066,0.018h-0.017l-0.066,0.017H30.17L29.973,27.8l-0.129,0.023v0.004H29.83v0.002
		h-0.016v0.004h-0.017v0.003H29.78v0.004h-0.016l-0.188,0.041l-0.078,0.014l-0.152,0.036l-0.034,0.004v0.004l-0.027,0.003v0.002
		H29.27v0.004h-0.017v0.004h-0.016l-0.069,0.017v4.837l-0.072,0.013v0.005h-0.019v0.002l-0.028,0.004v0.003h-0.015v0.004
		l-0.029,0.002v0.003h-0.013v0.002h-0.014v0.004l-0.018,0.001l-0.201,0.05h-0.017v0.003H28.73v0.004h-0.02v0.002h-0.012v0.002
		h-0.014v0.006h-0.018l-0.223,0.054H28.43l-0.05,0.018h-0.018l-0.206,0.052l-0.041,0.008l-0.368,0.092V22.491h0.004v-0.009
		l0.035-0.011H27.8l0.055-0.018l0.041-0.005l0.106-0.03h0.013v-0.003h0.012v-0.003h0.016v-0.003h0.013v-0.003h0.012v-0.003h0.017
		l0.313-0.079h0.017v-0.004h0.013v-0.004h0.014v-0.002h0.012v-0.003l0.03-0.004v-0.005H28.5v-0.002h0.017l0.255-0.063h0.017v-0.003
		H28.8V22.23h0.018v-0.002l0.014-0.001v-0.003h0.014v-0.003h0.016v-0.006h0.013v-0.002h0.018v-0.002l0.013-0.001v-0.003h0.014
		v-0.003l0.031-0.003v-0.004l0.028-0.004V22.19h0.018v-0.003h0.013v-0.003h0.016V22.18l0.028-0.003v-0.004h0.016V22.17l0.027-0.003
		v-0.004l0.03-0.003v-0.003h0.016v-0.003l0.034-0.008v4.526l0.039-0.011h0.019v-0.003h0.013v-0.003h0.016v-0.003h0.017v-0.002h0.016
		v-0.005h0.014v-0.003h0.015V26.64l0.017-0.001l0.107-0.027l0.078-0.013v-0.004l0.064-0.01l0.169-0.04l0.033-0.003l0.095-0.024
		l0.034-0.004l0.064-0.016h0.019l0.21-0.045h0.02l0.116-0.027l0.033-0.002l0.085-0.021l0.07-0.011l0.192-0.04h0.02l0.053-0.011
		h0.017l0.073-0.019l0.037-0.006l0.001-0.079v-4.442h0.004v0.001l0.068-0.014h0.019l0.052-0.014h0.021l0.11-0.022l0.039-0.003
		v-0.002h0.015v-0.005h0.021v-0.002l0.02-0.001l0.187-0.036l0.101-0.014l0.061-0.012h0.018l0.179-0.033l0.06-0.008v-0.002
		l0.101-0.01V21.61h0.021v-0.002l0.024-0.001v-0.003h0.019l0.145-0.026l0.063-0.007v-0.003h0.023v-0.004l0.043-0.002v-0.002h0.003
		v-0.005l0.007,0.005l0.001,0.048v10.599h-0.001v0.003l-0.065,0.012h-0.018l-0.064,0.014l-0.043,0.002l-0.144,0.025l-0.104,0.015
		l-0.063,0.013h-0.02v0.002l-0.021,0.001v0.004h-0.016v0.003h-0.021l-0.176,0.032l-0.08,0.01l-0.171,0.034h-0.018v0.003h-0.018
		v0.003h-0.02v0.002l-0.077,0.011l-0.128,0.026h-0.02l-0.053,0.014h-0.021L30.918,32.448"/>
	<path fill="#FFFFFF" d="M51.169,22.242l0.024,0.006h0.018v0.003h0.014v0.002h0.013v0.006h0.018v0.003h0.016v0.002h0.014v0.003
		l0.059,0.012l0.125,0.033l0.029,0.003l0.095,0.026h0.019l0.241,0.063h0.021v0.003h0.012v0.003h0.015v0.003h0.014v0.003h0.015v0.003
		l0.024,0.004l0.067,0.018l0.041,0.008v0.003h0.018l0.052,0.016h0.013l0.221,0.062l0.066,0.013l0.073,0.024l0.026,0.003l0.065,0.017
		V33.24l-0.068-0.018l-0.025-0.002v-0.004l-0.026-0.003v-0.004h-0.013v-0.003h-0.014v-0.003h-0.014v-0.004h-0.018v-0.002h-0.012
		v-0.004h-0.014v-0.007h-0.013v-0.004h-0.014v-0.004h-0.014l-0.198-0.051l-0.069-0.016l-0.24-0.061l-0.057-0.012l-0.188-0.046
		l-0.044-0.009l-0.139-0.035l-0.026-0.003V32.94h-0.017v-0.003h-0.014v-0.004h-0.017v-0.004h-0.009v-0.002h-0.015v-0.004h-0.015
		V32.92h-0.021l-0.117-0.028L51.169,22.242L51.169,22.242z M36.344,23.038v3.529l-0.088,0.003v0.005h-0.047v0.003h-0.043v0.003
		h-0.042v0.003h-0.037l-0.005,0.003h-0.044v0.003h-0.042v0.003h-0.038V26.6h-0.044v0.003h-0.038v0.004h-0.042v0.001l-0.077,0.006
		v0.002h-0.041v0.003h-0.04v0.004H35.64v0.003h-0.041v0.002h-0.037v0.006h-0.036v0.001l-0.074,0.004v0.004h-0.035v0.002h-0.038
		v0.004h-0.036v0.004h-0.033v0.002h-0.037v0.002l-0.035,0.001v0.003h-0.033v0.004h-0.037v0.004L35.1,26.673v0.003h-0.031v0.004
		h-0.034v0.001h-0.031v0.004h-0.033v0.003h-0.033v0.005h-0.037v0.001h-0.035v0.003h-0.033v0.003h-0.029v0.004h-0.033v0.003
		l-0.08,0.007v-3.551l0.005-0.075v-0.036H34.7l0.005-0.07l0.021-0.056v-0.012h0.003v-0.011h0.003v-0.009h0.002v-0.011h0.005
		l0.003-0.021h0.004V22.86h0.001v-0.011h0.003v-0.006h0.004v-0.012h0.002l0.01-0.021h0.001v-0.008h0.004l0.007-0.02l0.008-0.002
		l0.003-0.014l0.005-0.004l0.005-0.013h0.002l0.004-0.01l0.008-0.003v-0.008l0.004-0.003l0.005-0.009l0.014-0.011v-0.008
		l0.028-0.025l0.004-0.011h0.005l0.027-0.028h0.008l0.008-0.015h0.007l0.006-0.009h0.008l0.003-0.007L34.95,22.6v-0.004h0.007
		l0.003-0.007l0.015-0.002l0.003-0.007l0.021-0.007l0.003-0.008l0.015-0.002V22.56l0.014-0.003v-0.003h0.009V22.55h0.005v-0.004
		l0.015-0.003v-0.005h0.012v-0.002h0.005v0.002l0.019-0.005v-0.003h0.012v-0.002h0.01v-0.003h0.01v-0.003h0.01v-0.004h0.012v-0.004
		l0.025-0.002l0.082-0.021h0.023v-0.003h0.025v-0.002l0.252-0.02v-0.003h0.035v-0.003h0.038v-0.005h0.037V22.45h0.039v-0.001h0.043
		l0.092-0.003h0.037v0.003h0.036v0.003h0.026v0.002h0.02v0.005h0.016v0.003h0.015v0.003h0.014v0.002h0.014
		c0.087,0.033,0.163,0.07,0.214,0.139l0.012,0.011l0.003,0.01l0.007,0.002v0.008l0.007,0.002l0.003,0.01h0.001l0.003,0.015
		l0.009,0.002l0.007,0.021h0.002v0.005h0.003l0.009,0.021H36.3v0.01h0.003v0.006h0.003v0.011h0.004v0.006h0.005l0.005,0.029h0.003
		l0.021,0.112l0.006,0.069L36.344,23.038 M37.786,22.709v-0.066h-0.003v-0.05H37.78v-0.039h-0.004v-0.036h-0.002v-0.03h-0.002
		l-0.004-0.055l-0.024-0.121V22.29H37.74v-0.016h-0.001v-0.017h-0.006v-0.014h-0.001l-0.006-0.03h-0.003v-0.017l-0.054-0.191h-0.006
		v-0.006h-0.004l-0.005-0.031h-0.003v-0.004h-0.003v-0.009h-0.002l-0.006-0.018h-0.003V21.93h-0.003v-0.01h-0.002l-0.007-0.014
		h-0.002v-0.01h-0.003l-0.003-0.014h-0.003v-0.008h-0.005v-0.008h-0.004l-0.003-0.013H37.6v-0.007h-0.001V21.84h-0.003v-0.008
		h-0.006v-0.006h-0.002V21.82h-0.003v-0.008h-0.004v-0.006h-0.002v-0.007h-0.006v-0.003l-0.006-0.007v-0.007l-0.006-0.003v-0.006
		l-0.007-0.007v-0.006h-0.004v-0.007l-0.006-0.003l-0.003-0.014l-0.005-0.002v-0.007h0.001v-0.007l-0.006-0.004v-0.006l-0.008-0.003
		v-0.008l-0.007-0.003v-0.006l-0.006-0.002v-0.01L37.5,21.676v-0.007l-0.006-0.005v-0.005l-0.006-0.003v-0.009l-0.009-0.006v-0.003
		l-0.006-0.003v-0.009l-0.014-0.008V21.61l-0.01-0.006v-0.007l-0.014-0.01v-0.005l-0.009-0.008l-0.007-0.01h-0.004v-0.005
		l-0.025-0.023v-0.007L37.355,21.5l-0.026-0.03h-0.008l-0.022-0.025h-0.007v-0.004l-0.01-0.006l-0.006-0.011h-0.009l-0.01-0.012
		H37.25l-0.003-0.011h-0.01l-0.006-0.011h-0.007l-0.007-0.01h-0.006l-0.006-0.01h-0.009l-0.001-0.007l-0.01-0.002v-0.004h-0.008
		l-0.002-0.007l-0.011-0.004v-0.003h-0.007l-0.001-0.006l-0.016-0.003l-0.004-0.008l-0.012-0.003l-0.003-0.006L37.1,21.31
		l-0.003-0.006h-0.007l-0.006-0.009h-0.007v-0.003h-0.007v-0.003h-0.005l-0.003-0.005h-0.008v-0.005l-0.015-0.002v-0.004h-0.009
		v-0.006h-0.008v-0.001l-0.019-0.008v-0.002h-0.009V21.25l-0.015-0.002v-0.004h-0.011v-0.003l-0.011-0.003v-0.002l-0.024-0.005
		v-0.004h-0.004v-0.002l-0.021-0.004v-0.003H36.9v-0.003l-0.02-0.003h-0.009v-0.005h-0.01v-0.002l-0.01-0.001v-0.004H36.84v-0.003
		l-0.023-0.003v-0.004l-0.023-0.001v-0.003l-0.038-0.007v-0.004h-0.013v-0.003h-0.015v-0.002l-0.013-0.002v-0.003h-0.013V21.16
		l-0.033-0.003v-0.004l-0.036-0.004v-0.002h-0.02v-0.003H36.59v-0.004h-0.022v-0.002l-0.024-0.001V21.13h-0.032v-0.002h-0.031
		v-0.004l-0.105-0.003l-0.066-0.002l-0.137,0.002h-0.038l-0.076,0.003v0.004h-0.043v0.002h-0.039l-0.008,0.005h-0.035v0.003h-0.038
		v0.004l-0.078,0.003v0.002h-0.042v0.004h-0.037v0.004h-0.042v0.003h-0.039v0.001l-0.037,0.001v0.003l-0.152,0.012v0.002H35.43
		v0.005h-0.038v0.003h-0.035v0.001h-0.032v0.004H35.29v0.003h-0.036v0.003H35.22v0.004h-0.035v0.003h-0.032v0.005h-0.037v0.002
		h-0.031v0.002l-0.034,0.001v0.003H35.02v0.003l-0.124,0.01l-0.108,0.021h-0.022l-0.069,0.015H34.68l-0.134,0.039H34.53v0.003
		h-0.012v0.003h-0.01v0.003h-0.013v0.003h-0.009v0.003l-0.034,0.006v0.003h-0.007v0.004h-0.013v0.004h-0.01v0.003l-0.022,0.003
		v0.003h-0.005v0.003h-0.011v0.004h-0.01v0.003h-0.009v0.004h-0.01v0.003h-0.008v0.003h-0.009v0.003h-0.01v0.004H34.32v0.002
		l-0.017,0.004v0.003h-0.004v0.003h-0.016v0.005h-0.01v0.003l-0.01,0.003v0.003h-0.008v0.004h-0.01v0.002l-0.02,0.007v0.003h-0.007
		v0.003h-0.01v0.003l-0.021,0.008v0.003h-0.004v0.002h-0.006v0.004h-0.005v0.002h-0.008v0.004h-0.006l-0.007,0.006h-0.006
		l-0.004,0.007h-0.006l-0.007,0.005H34.12v0.003h-0.008v0.003h-0.007l-0.004,0.006l-0.019,0.008l-0.003,0.006h-0.007V21.5h-0.007
		l-0.003,0.006l-0.014,0.004l-0.004,0.008h-0.007v0.002H34.03v0.003l-0.008,0.003l-0.003,0.006h-0.007l-0.003,0.007h-0.007
		l-0.004,0.007h-0.006l-0.003,0.007H33.98v0.001l-0.01,0.006l-0.002,0.004h-0.006l-0.008,0.011h-0.008l-0.002,0.008h-0.007
		l-0.003,0.006l-0.01,0.003l-0.006,0.011h-0.006l-0.012,0.015l-0.011,0.002l-0.004,0.006H33.88l-0.014,0.017l-0.014,0.018h-0.008
		l-0.021,0.026l-0.076,0.069l-0.035,0.034v0.006l-0.024,0.021v0.006h-0.003l-0.005,0.01l-0.011,0.007v0.006l-0.013,0.01v0.007
		l-0.008,0.003v0.004l-0.006,0.003v0.007l-0.011,0.006v0.006l-0.009,0.006v0.007l-0.009,0.007v0.007l-0.011,0.007v0.007
		l-0.006,0.003v0.007l-0.011,0.006v0.007l-0.007,0.005l-0.003,0.009h-0.003v0.006l-0.007,0.004l-0.004,0.01h0.001l-0.003,0.014
		l-0.007,0.003l-0.004,0.01h-0.002l-0.003,0.014l-0.007,0.003l-0.003,0.014l-0.006,0.003l-0.007,0.021l-0.008,0.002v0.008
		l-0.004,0.006v0.008h-0.003v0.004l-0.008,0.004v0.007l-0.006,0.007v0.006h-0.004v0.006h-0.001v0.007h-0.004v0.007h-0.003v0.007
		h-0.003v0.005h-0.004v0.009h-0.003v0.006h-0.004l-0.007,0.02h-0.002v0.011H33.45v0.006h-0.004v0.008h-0.002L33.44,22.23h-0.004
		v0.012h-0.004l-0.004,0.014h-0.003v0.009h-0.002v0.008h-0.004v0.008h-0.002v0.009h-0.002v0.009h-0.005v0.005h-0.005l-0.001,0.019
		h-0.003l-0.004,0.021h-0.003v0.006h-0.003v0.009h-0.003v0.01h-0.002v0.011h-0.004v0.01h-0.002v0.012l-0.06,0.198v0.017
		l-0.023,0.095l-0.028,0.178v0.033h-0.002v0.033H33.26v0.036h-0.004v0.046h-0.003v0.056h-0.004v0.088l-0.004,0.128v8.788
		l0.073-0.011h0.026v-0.004h0.023v-0.001h0.024v-0.006h0.026v-0.003h0.023v-0.003h0.026v-0.001h0.027l0.15-0.024l0.055-0.003v-0.004
		l0.052-0.003l0.133-0.021h0.027v-0.019h0.026v-0.004l0.085-0.005l0.141-0.021h0.028v-0.004h0.026v-0.003h0.03v-0.002l0.026-0.001
		v-0.004l0.091-0.007v-0.004h0.027v-0.002h0.029v-0.003h0.033V31.93h0.029v-0.005h0.03v-0.002h0.029v-0.003h0.028v-0.002h0.034
		v-0.005h0.03v-0.003l0.047-0.002v-3.904l0.052-0.004v-0.003h0.032v-0.003h0.03V27.99h0.031v-0.003h0.033v-0.001h0.035v-0.004h0.031
		v-0.003l0.032-0.001v-0.002h0.033v-0.004h0.032v-0.004h0.032v-0.002h0.033v-0.004h0.037v-0.002h0.031v-0.003h0.033v-0.003
		l0.071-0.004v-0.003h0.034v-0.004h0.037v-0.002h0.035v-0.003h0.035V27.93h0.038v-0.003h0.037v-0.001l0.034-0.001v-0.003
		l0.077-0.003v-0.005h0.038v-0.002h0.036v-0.003h0.041v-0.004h0.038V27.9h0.038v-0.003h0.063v-0.002h0.038V27.89h0.045v-0.002
		L36,27.883v-0.002h0.039v-0.004h0.042v-0.002h0.044v-0.003h0.042v-0.004h0.047v-0.004h0.041v-0.002l0.087-0.003v3.898l0.088-0.003
		v-0.004h0.048v-0.003h0.032l0.063-0.004v-0.003h0.033l0.065-0.003v-0.005l0.377-0.018v-0.005h0.035l0.079-0.004v-0.002h0.06V31.7
		h0.06l0.129-0.011h0.066v-0.004l0.091-0.003h0.043l0.071-0.004v-0.004l0.108-0.002v-8.818L37.786,22.709"/>
	<path fill="#FFFFFF" d="M48.844,30.622l-0.002,0.054h-0.005v0.017h-0.003v0.017h-0.002v0.016H48.83v0.014h-0.005v0.013h-0.004
		v0.011h-0.003l-0.002,0.022h-0.006v0.007H48.81l-0.006,0.02h-0.003l-0.002,0.014h-0.004l-0.011,0.029l-0.009,0.003l-0.009,0.02l0,0
		l-0.001,0.012l-0.008,0.002v0.008l-0.009,0.006v0.006l-0.021,0.014v0.006l-0.02,0.018v0.006H48.7l-0.014,0.018h-0.008l-0.004,0.006
		h-0.004l-0.003,0.007h-0.01l-0.006,0.006l-0.011,0.003l-0.004,0.005h-0.005v0.007h-0.008v0.003h-0.011v0.001l-0.01,0.003v0.004
		h-0.016v0.004h-0.002v0.003h-0.01v0.004h-0.01v0.003l-0.027,0.004v0.003h-0.017v0.002l-0.066,0.005v0.001l-0.109-0.001v-0.014
		H48.32l-0.104-0.019l-0.038-0.003l-0.1-0.02l-0.039-0.004l-0.165-0.028l-0.039-0.004l-0.19-0.033h-0.021l-0.067-0.014l-0.071-0.01
		v-0.003l-0.03-0.002v-0.003l-0.039-0.007V30.88l-0.022-0.003v-0.003h-0.012v-0.005h-0.012v-0.002h-0.007v-0.004H47.35V30.86
		l-0.021-0.002c-0.105-0.045-0.209-0.103-0.271-0.189l-0.014-0.01l-0.002-0.01l-0.007-0.002v-0.005l-0.013-0.005v-0.007
		l-0.008-0.005l-0.002-0.009h-0.002v-0.006l-0.006-0.005l-0.007-0.021l-0.012-0.002l-0.004-0.019h-0.004v-0.007h-0.003l-0.008-0.021
		h-0.002v-0.009h-0.004v-0.007h-0.002v-0.013h-0.006v-0.004h-0.003v-0.01h0.003v-0.007h-0.007v-0.009h-0.001v-0.011h-0.003v-0.011
		h-0.005l-0.024-0.106l-0.006-0.082v-0.036l-0.003-0.094v-6.642l0.003-0.156v-0.058l0.019-0.111h0.003v-0.013h0.003v-0.014h0.005
		v-0.01h0.002l0.005-0.023h0.003v-0.007h0.001l0.009-0.019h0.003l0.002-0.015h0.004v-0.01h0.002l0.004-0.012h0.002l0.004-0.015
		l0.007-0.002l0.003-0.013l0.007-0.004v-0.007H47v-0.005l0.01-0.008v-0.006l0.009-0.008v-0.005l0.019-0.014v-0.002l0.007-0.003
		l0.015-0.016h0.008l0.014-0.018l0.007-0.003l0.007-0.008h0.008l0.004-0.005l0.008-0.004v-0.004h0.005l0.005-0.007l0.021-0.005
		v-0.004h0.008v-0.004l0.022-0.006v-0.002l0.008-0.001v-0.004h0.007v-0.005l0.087-0.023l0.046-0.005l0.271,0.02h0.023l0.107,0.02
		l0.042,0.002l0.165,0.031l0.063,0.005v0.005l0.063,0.006l0.139,0.025l0.06,0.007v0.003h0.021v0.004h0.012v0.003h0.017v0.002
		l0.04,0.008v0.003l0.022,0.003v0.002h0.01v0.003h0.012v0.005h0.009v0.003l0.029,0.007c0.117,0.049,0.22,0.109,0.291,0.204
		l0.013,0.011l0.002,0.009l0.012,0.004v0.008l0.004,0.003l0.006,0.011l0,0v0.005l0.007,0.004v0.006l0.009,0.004l0.007,0.021
		l0.009,0.002l0.002,0.014l0,0v0.008h0.007l0.006,0.02h0.002v0.01h0.007l0.002,0.014h0.005v0.01h0.004v0.006h0.002l0.002,0.021
		h0.006v0.01h0.002v0.01h0.004v0.009h0.003v0.011h0.005l0.02,0.093l0.008,0.059v0.033l0.004,0.11v6.755L48.844,30.622
		 M50.284,30.668v-6.756l-0.006-0.131v-0.089h-0.003v-0.061h-0.005v-0.043h-0.003v-0.04l-0.015-0.116l-0.004-0.05l-0.025-0.115
		l-0.003-0.033l-0.027-0.114l-0.005-0.025h-0.003l-0.007-0.037h-0.004l-0.003-0.031h-0.006v-0.01h-0.004v-0.011h-0.004v-0.009
		h-0.003v-0.009h-0.004l-0.002-0.024h-0.004v-0.006h-0.002v-0.009h-0.006v-0.011h-0.003v-0.011h-0.003v-0.01h-0.005v-0.011h-0.002
		v-0.005h-0.003l-0.003-0.02h-0.005v-0.017h-0.007l-0.002-0.017h-0.002v-0.006h-0.005V22.83h-0.002l-0.007-0.014h-0.003v-0.009
		h-0.003l-0.002-0.013h-0.004v-0.011h-0.002l-0.008-0.02h-0.005l-0.002-0.017h-0.005l-0.004-0.021h-0.005v-0.006h-0.003v-0.001
		H50.04v-0.007h-0.003v-0.008h-0.004v-0.006H50.03V22.69h-0.002v-0.005h-0.004v-0.007l-0.007-0.007v-0.007l-0.007-0.002v-0.007
		l-0.009-0.007v-0.005h-0.003v-0.007l-0.005-0.003l-0.007-0.02l-0.007-0.004l-0.005-0.013l-0.009-0.005l-0.002-0.012l-0.007-0.004
		l-0.002-0.013l-0.009-0.003V22.55l-0.008-0.004v-0.008l-0.006-0.002v-0.008l-0.004-0.003v-0.006l-0.007-0.003v-0.008l-0.006-0.002
		v-0.001h-0.002l-0.009-0.01L49.9,22.49v-0.006l-0.01-0.007V22.47l-0.006-0.004V22.46l-0.014-0.008v-0.004l-0.008-0.008v-0.006
		l-0.009-0.006v-0.006l-0.008-0.004v-0.003l-0.007-0.003v-0.007l-0.014-0.01v-0.008l-0.016-0.013v-0.004l-0.019-0.018v-0.005
		l-0.028-0.025l-0.065-0.071l-0.029-0.03h-0.005l-0.027-0.03h-0.006l-0.018-0.02h-0.005l-0.015-0.017h-0.007l-0.011-0.014H49.57
		l-0.012-0.013h-0.007l-0.008-0.012h-0.007l-0.008-0.009h-0.006l-0.005-0.01h-0.007l-0.01-0.01h-0.006l-0.002-0.006h-0.006
		l-0.009-0.01h-0.01l-0.002-0.008h0.006l-0.005-0.005l-0.007-0.005v-0.002h-0.007v-0.006h-0.006l-0.006-0.007h-0.008l-0.004-0.005
		l-0.013-0.004l-0.003-0.007h-0.008l-0.002-0.008h-0.01v-0.002h-0.006L49.389,22l-0.014-0.003l-0.005-0.005l-0.021-0.007v-0.007
		l-0.025-0.007l-0.001-0.007l-0.015-0.002v0.003H49.3v-0.005h-0.006v-0.003h0.002v-0.001l-0.018-0.008l-0.006-0.007l-0.014-0.003
		v-0.003l-0.014-0.004v-0.003h-0.011v-0.004l-0.021-0.006v-0.003h-0.006v-0.003h-0.008v-0.003l-0.013-0.003v-0.003h-0.011v-0.003
		l-0.014-0.003v-0.003h-0.008v-0.003H49.15v-0.004l-0.012-0.003v-0.004h-0.012v-0.001H49.12V21.87h-0.008v-0.003l-0.02-0.003V21.86
		h-0.008v-0.003h-0.008v-0.003h-0.006v-0.002l-0.021-0.003v-0.002h-0.005v-0.004l-0.03-0.007v-0.003h-0.008v-0.003l-0.029-0.005
		v-0.005h-0.011v-0.004h-0.009v-0.002h-0.009v-0.004H48.94v-0.004h-0.009v-0.002l-0.035-0.006v-0.003l-0.032-0.006v-0.004
		l-0.025-0.003v-0.002H48.83v-0.002h-0.014V21.77h-0.016v-0.004h-0.013v-0.003h-0.015v-0.002l-0.024-0.004v-0.004l-0.025-0.003
		v-0.003h-0.018l-0.11-0.025h-0.023l-0.171-0.031h-0.021v-0.004h-0.02V21.68h-0.018v-0.001h-0.021v-0.003l-0.024-0.001v-0.003
		h-0.019v-0.003h-0.017v-0.005h-0.021l-0.063-0.012h-0.021l-0.1-0.021l-0.165-0.024l-0.164-0.029h-0.022v-0.004h-0.021V21.57h-0.023
		v-0.003h-0.021l-0.064-0.014l-0.091-0.01l-0.171-0.028l-0.048-0.004l-0.113-0.02h-0.025v-0.005h-0.025v-0.004h-0.028V21.48h-0.031
		v-0.003h-0.038v-0.003L46.93,21.47h-0.035l-0.151-0.003l-0.047,0.003l-0.094,0.007v0.003h-0.019v0.003H46.56v0.004h-0.021v0.005
		h-0.021l-0.07,0.016H46.43v0.004l-0.037,0.006v0.003h-0.016v0.003l-0.024,0.003v0.003h-0.007v0.004h-0.011v0.003h-0.014v0.003
		h-0.009v0.003h-0.011v0.003h-0.009v0.004h-0.011v0.001l-0.006,0.001v0.005l-0.02,0.002v0.002H46.25v0.004h-0.011v0.003H46.23v0.003
		h-0.007v0.004h-0.005v0.004h-0.012v0.003l-0.021,0.006v0.005H46.18v0.002h-0.012v0.003l-0.021,0.006v0.003h-0.006v0.004
		l-0.021,0.006l-0.003,0.004h-0.006l-0.007,0.009h-0.01v0.003h-0.006l-0.005,0.006l-0.012,0.003l-0.002,0.008h-0.008v0.004h-0.009
		l-0.003,0.005h-0.007l-0.003,0.008h-0.006l-0.005,0.007h-0.004l-0.002,0.006h-0.007l-0.002,0.006h-0.007l-0.007,0.01h-0.006
		l-0.007,0.008h-0.002l-0.007,0.009h-0.006l-0.009,0.013h-0.007l-0.015,0.017h-0.007L45.92,21.77h-0.009l-0.051,0.058l-0.026,0.023
		v0.006l-0.023,0.02l-0.004,0.011l-0.01,0.007V21.9l-0.016,0.011v0.006l-0.008,0.006v0.007l-0.012,0.007v0.007l-0.008,0.006v0.007
		l-0.008,0.005l-0.007,0.009h-0.002v0.005l-0.007,0.005v0.007l-0.006,0.003v0.007l-0.006,0.003v0.007l-0.007,0.002l-0.006,0.014
		L45.7,22.028v0.007l-0.007,0.003l-0.006,0.021l-0.01,0.003l-0.002,0.013h-0.004v0.009l0,0v0.005l-0.004,0.008v0.004l-0.008,0.004
		l-0.002,0.014h0.002l-0.002,0.012h-0.004v0.011h-0.002l-0.008,0.021h-0.004v0.007h-0.003v0.006h-0.004v0.009h-0.003l-0.003,0.015
		h-0.004v0.01h-0.003l-0.003,0.014h-0.004l-0.003,0.02h-0.006v0.006l0,0v0.011h-0.005v0.005h-0.002l-0.009,0.031h-0.003v0.011
		h-0.003v0.008h-0.005v0.012h-0.004v0.009h-0.003v0.011h-0.001v0.009h-0.003l-0.003,0.02h-0.004v0.015h-0.004l-0.004,0.036h-0.006
		v0.011h-0.002v0.012h-0.002l-0.005,0.026h-0.003l-0.01,0.059h-0.002l-0.035,0.206v0.028h-0.002v0.034h-0.003v0.034h-0.007v0.045
		h-0.001v0.052h-0.004v0.085l-0.006,0.082v7.064l0.006,0.069v0.083h0.004v0.056h0.001v0.041h0.007v0.038h0.003v0.031l0.019,0.125
		l0.002,0.042l0.028,0.117v0.017h0.003l0.007,0.039h0.002l0.008,0.04h0.004v0.013h0.002l0.007,0.024h0.002v0.01h0.003v0.011h0.003
		v0.01h0.004v0.012h0.004v0.009h0.004v0.011h0.004v0.011h0.003v0.011h0.004v0.009h0.004v0.009h0.003l0.004,0.03h0.008v0.007h0.002
		l0.003,0.021h0.004v0.006h0.003v0.011h-0.001v0.006h0.003v0.01h0.003v0.007h0.004v0.011h0.005v0.005h0.002v0.012h0.003v0.006h0.005
		v0.007h0.004v0.006h0.004v0.01h0.004l0.005,0.02h0.004v0.008h0.004v0.009h0.001l0.012,0.021h0.002v0.006h0.002v0.006h0.004v0.007
		h0.005v0.007l0.004,0.007v0.008l0.008,0.002v0.007l0.008,0.008v0.004h0.005v0.008h0.003v0.007l0.006,0.003v0.007h0.004l0.002,0.013
		l0.007,0.003l0.006,0.013l0.008,0.004l0.002,0.013l0.005,0.002l0.004,0.015l0.006,0.003v0.007l0.013,0.003v0.006l0.004,0.003v0.007
		l0.006,0.004v0.006l0.008,0.003v0.006l0.006,0.004v0.007l0.009,0.004v0.006l0.009,0.006l0.002,0.011l0.006,0.004v0.005l0.007,0.004
		v0.006l0.017,0.01v0.006l0.01,0.006v0.008l0.018,0.01v0.007l0.014,0.012v0.009l0.021,0.018v0.004l0.029,0.027v0.007l0.034,0.033
		l0.087,0.079l0.017,0.022h0.006l0.011,0.013h0.006l0.011,0.011h0.008l0.011,0.015h0.006l0.007,0.01h0.009l0.006,0.01h0.008
		l0.009,0.012h0.004l0.003,0.005h0.008l0.007,0.011h0.007l0.005,0.006l0.007,0.003v0.003h0.01l0.003,0.008h0.006l0.005,0.005h0.007
		l0.006,0.007h0.005l0.002,0.008l0.012,0.002v0.003h0.008v0.003h0.007l0.002,0.007l0.002,0.003l0.003,0.006l0.017,0.004l0.003,0.007
		l0.012,0.004l0.004,0.007h0.008l0.008,0.007h0.007v0.003h0.004l0.007,0.007l0.012,0.005v0.001h0.008v0.004h0.005v0.003h0.008v0.004
		h0.007v0.003h0.008v0.003l0.015,0.004v0.001l0.015,0.004v0.002h0.004v0.005h0.008v0.003h0.008v0.002h0.006v0.003h0.007v0.005
		l0.013,0.002v0.004h0.008v0.004h0.011v0.004l0.014,0.003v0.003h0.009v0.004h0.009V31.97l0.014,0.003v0.003h0.011v0.002h0.005v0.005
		h0.013v0.002h0.007v0.003h0.01v0.004h0.007v0.003l0.021,0.005v0.002l0.02,0.003v0.004h0.005v0.005l0.021,0.002l0.044,0.021
		l0.031,0.008v0.001h0.013v0.005l0.044,0.008v0.006h0.009v0.001h0.01v0.004l0.024,0.002v0.002l0.049,0.012v0.004l0.028,0.003v0.004
		h0.011v0.003h0.017v0.003h0.016v0.005h0.012v0.001l0.029,0.004v0.004h0.019l0.079,0.019l0.041,0.004l0.104,0.021l0.046,0.003
		l0.068,0.014h0.024v0.004h0.02v0.003h0.024v0.002h0.024v0.003h0.02v0.003h0.024v0.004h0.024l0.188,0.034h0.023v0.003h0.023v0.003
		h0.021l0.093,0.019h0.023l0.058,0.013h0.024l0.179,0.034h0.021v0.003h0.023v0.003h0.018v0.004l0.102,0.011l0.177,0.035l0.06,0.005
		l0.142,0.026l0.052,0.003v0.004h0.026v0.002h0.027v0.003h0.034v0.004h0.039v0.003h0.051v0.005h0.106v0.002h0.035v-0.002h0.097
		v-0.005l0.083-0.003l0.176-0.028v-0.004l0.026-0.002v-0.005h0.012v-0.003l0.025-0.003v-0.002h0.008v-0.005h0.017v-0.003
		l0.059-0.018v-0.001l0.008-0.001v-0.004h-0.019v-0.004l0.019-0.002v-0.006h0.007v-0.002H49.6v-0.001h0.008v-0.005l0.02-0.003
		v-0.003l0.019-0.007v-0.004h0.006v-0.003h0.007v-0.003h0.008v-0.004h0.006v-0.003h0.007v-0.004h0.006l0.008-0.007h0.009
		l0.003-0.006l0.021-0.008l0.006-0.006h0.006v-0.004h0.009v-0.001l0.008-0.005l0.002-0.006h0.008l0.005-0.007h0.007l0.004-0.006
		h0.004v-0.002l0.01-0.006l0.006-0.005h0.008l0.007-0.012h0.007l0.009-0.009h0.006l0.003-0.007h0.003l0.005-0.006h0.006l0.013-0.017
		h0.006l0.03-0.033h0.005l0.022-0.023l0.011-0.007v-0.007l0.031-0.03v-0.005l0.019-0.015V32.03l0.015-0.01v-0.006l0.011-0.009
		v-0.006l0.01-0.008v-0.006l0.009-0.007v-0.005l0.007-0.003v-0.007l0.007-0.003v-0.006l0.008-0.004v-0.007l0.007-0.004v-0.005
		l0.006-0.003l0.006-0.013l0.007-0.004l0.002-0.014l0.007-0.005l0.003-0.012l0.009-0.003V31.87l0.007-0.006v-0.008h0.002v-0.007
		h0.005v-0.006h0.002v-0.007h0.004v-0.001h0.002V31.83h0.005v-0.008h0.004v-0.007h0.003l0.006-0.014l0.006-0.012h0.002V31.78h0.004
		v-0.008h0.002l0.004-0.015h0.003v-0.01h0.002V31.74h0.007l0.003-0.018h0.003v-0.008h0.005v-0.009h0.004l0.002-0.019h0.003v-0.007
		h0.004l0.005-0.021h0.002v-0.008h0.002v-0.006h0.004v-0.01h0.006v-0.011h0.003V31.61h0.002v-0.011h0.004v-0.011h0.004l0.004-0.021
		h0.004v-0.015h0.002l0.007-0.039h0.004l0.007-0.04h0.004v-0.016l0.018-0.068l0.001-0.039l0.022-0.12v-0.035h0.004v-0.035h0.003
		v-0.043h0.004l0.002-0.141l0.006-0.103v-0.206H50.284z M25.606,26.08v-1.111l-0.003-0.106l-0.02-0.103H25.58v-0.01h-0.004v-0.01
		h-0.004v-0.008h-0.003l-0.004-0.02h-0.003l-0.003-0.014h-0.005v-0.006h-0.002v-0.011l-0.005-0.003v-0.007h-0.004l-0.006-0.021
		l-0.006-0.003v-0.005l-0.006-0.003v-0.008l-0.013-0.006v-0.005l-0.021-0.022l-0.023-0.025h-0.009l-0.007-0.009h-0.003l-0.002-0.008
		l-0.012-0.002l-0.005-0.007l-0.029-0.01v-0.003h-0.006V24.53l-0.018-0.002v-0.003h-0.014v-0.004H25.35v-0.002h-0.016v-0.004h-0.017
		v-0.003h-0.026v-0.003h-0.058l-0.151,0.02h-0.017v0.002h-0.012v0.005h-0.014v0.002l-0.023,0.004v0.003h-0.014v0.003l-0.034,0.007
		v0.002h-0.009v0.004h-0.008v0.003h-0.012v0.004h-0.008v0.003h-0.013v0.002h-0.011v0.004h-0.009v0.004h-0.013v0.004h-0.009v0.002
		l-0.01,0.001v0.003h-0.015v0.003h-0.008v0.003h-0.012v0.002h-0.01v0.004h-0.011v0.004h-0.006v0.003h-0.014v0.003h-0.01v0.005h-0.01
		v0.003H24.76v0.004h-0.01v0.002h-0.01v0.003h-0.012v0.004h-0.01v0.004h-0.011v0.003h-0.01v0.003h-0.009v0.003h-0.012v0.004
		l-0.019,0.004v0.002H24.65v0.004h-0.01v0.003l-0.018,0.002v0.006h-0.006v0.003h-0.009v0.003l-0.02,0.006v0.003h-0.007v0.004h-0.006
		v0.003h-0.011v0.002h-0.008l-0.003,0.008l-0.011,0.004v0.002H24.53v0.004h-0.007l-0.005,0.007H24.51l-0.002,0.006l-0.015,0.005
		v0.001l-0.009,0.003l-0.003,0.009h-0.007l-0.003,0.005h-0.008v0.004l-0.008,0.002l-0.004,0.008h-0.006l-0.003,0.007l-0.009,0.003
		l-0.012,0.014c-0.101,0.071-0.165,0.173-0.217,0.294l-0.004,0.021h-0.001v0.009h-0.004v0.011H24.19v0.01h-0.002v0.009h-0.004v0.015
		c-0.058,0.158-0.041,0.419-0.041,0.634v6.375l0.003,0.132v0.039l0.007,0.09h0.004v0.019h0.004v0.022h0.003l0.004,0.03h0.003v0.012
		l0.11,0.178l0.008,0.014h0.008l0.005,0.006h0.005l0.003,0.007c0.05,0.028,0.169,0.056,0.247,0.033l0.04-0.005v-0.003l0.028-0.003
		v-0.003h0.014v-0.013h0.014v-0.003h0.011v-0.005h0.011l0.284-0.09h0.011v-0.003h0.011v-0.005h0.011v-0.002h0.009v-0.005h0.011
		v-0.003h0.012v-0.001h0.01v-0.006h0.012V32.6h0.01v-0.002h0.01v-0.005h0.012v-0.003h0.009v-0.001l0.028-0.01v-0.003h0.006v-0.003
		h0.011V32.57h0.006v-0.004h0.011v-0.005l0.013-0.002v-0.003h0.007v-0.003h0.011V32.55l0.02-0.008v-0.003h0.005v-0.002l0.021-0.008
		l0.005-0.006h0.005V32.52h0.007l0.008-0.008h0.006v-0.002l0.011-0.004l0.003-0.005l0.012-0.005l0.004-0.006h0.006l0.003-0.007
		h0.007l0.008-0.01h0.008l0.002-0.007h0.005l0.004-0.007h0.001l0.007-0.007h0.004l0.01-0.015h0.008l0.043-0.043l0.034-0.031v-0.005
		l0.011-0.011v-0.004l0.011-0.006v-0.005l0.01-0.008v-0.008l0.007-0.002l0.003-0.008h0.001v-0.007l0.009-0.004l0.004-0.01h0.001
		l0.006-0.021l0.008-0.002v-0.007l0.005-0.008V32.24h0.005v-0.008h0.005v-0.007h0.003v-0.006h0.002l0.007-0.021h0.004v-0.01h0.001
		v-0.003h0.004l0.004-0.016h0.003v-0.011h0.003v-0.006h0.002l0.007-0.03h0.003v-0.015h0.004v-0.008h0.003v-0.014h0.003v-0.013
		c0.033-0.095,0.03-0.221,0.03-0.35v-0.49l0.008-0.004v-0.003l0.034-0.006v-0.004h0.015V31.21h0.01v-0.003l0.031-0.006v-0.005
		l0.024-0.003h0.012l0.211-0.067l0.061-0.012l0.331-0.1l0.027-0.004l0.139-0.042l0.026-0.003v-0.003h0.009v-0.004l0.037-0.008
		v-0.003l0.023-0.002v-0.004l0.025-0.004l0.155-0.045l0.063-0.014v-0.003h0.01v-0.005h0.016v-0.002h0.012v-0.004l0.023-0.003v-0.002
		l0.028-0.004V30.85l0.079-0.02v0.76h-0.001v0.098h-0.005l-0.006,0.105h-0.001v0.04h-0.003v0.033l-0.018,0.109l-0.003,0.047
		l-0.035,0.187h-0.003l-0.006,0.026h-0.001l-0.003,0.026h-0.005l-0.003,0.027h-0.002V32.3h-0.004v0.009h-0.003l-0.003,0.024h-0.003
		v0.013h-0.006v0.011h-0.001v0.012h-0.003l-0.002,0.02h-0.004v0.011h-0.003v0.011h-0.003v0.01h-0.001v0.009h-0.006v0.009h-0.003
		v0.013h-0.001l-0.009,0.028h-0.002v0.008h-0.005l-0.002,0.019h-0.003v0.007h-0.005l-0.004,0.021l-0.003,0.018h-0.002v0.007h-0.005
		v0.01h-0.004l-0.003,0.012h-0.004v0.01h-0.003l-0.001,0.013h-0.003v0.01h-0.006l-0.003,0.015h-0.001v0.01h-0.006l-0.002,0.013
		h-0.004v0.007h-0.002v0.005h-0.005v0.007h-0.005l-0.002,0.02h-0.005v0.011h-0.003v0.006h-0.004v0.007l-0.007,0.006l-0.022,0.052
		l-0.009,0.003v0.005h-0.003v0.01l-0.005,0.004v0.008l-0.007,0.002l-0.003,0.014l-0.006,0.003l-0.007,0.021H26.69l-0.004,0.01
		l-0.006,0.003l-0.001,0.013h-0.005l-0.004,0.01l-0.006,0.005l-0.001,0.012h-0.004l-0.003,0.012l-0.007,0.003v0.004h-0.004
		l-0.003,0.012l-0.007,0.003v0.007l-0.01,0.007v0.006H26.62l-0.004,0.012l-0.008,0.003v0.007l-0.006,0.002l-0.001,0.012
		l-0.011,0.005v0.008l-0.007,0.004v0.004l-0.013,0.01v0.006l-0.011,0.007v0.007l-0.014,0.009v0.007l-0.011,0.01v0.007l-0.018,0.014
		v0.006l-0.021,0.018v0.005l-0.023,0.019v0.009l-0.047,0.044v0.005l-0.018,0.015l-0.024,0.03h-0.009l-0.04,0.044h-0.007
		l-0.023,0.026h-0.007l-0.017,0.021h-0.008l-0.014,0.016h-0.005l-0.011,0.014h-0.006l-0.011,0.013h-0.006l-0.01,0.012h-0.007
		l-0.008,0.012h-0.006l-0.004,0.01h-0.009l-0.006,0.009h-0.006l-0.008,0.012h-0.006l-0.003,0.006h-0.007l-0.007,0.01h-0.005
		l-0.003,0.007h-0.007v0.003l-0.011,0.002l-0.003,0.008h-0.006l-0.007,0.01H26.08l-0.002,0.007l-0.013,0.003l-0.003,0.007h-0.007
		l-0.003,0.007h-0.009l-0.001,0.006h-0.008l-0.006,0.006l-0.011,0.004v0.003l-0.012,0.005l-0.001,0.006h-0.006v0.003H25.99
		l-0.003,0.007l-0.014,0.003l-0.003,0.006l-0.02,0.006l-0.003,0.007l-0.021,0.007l-0.001,0.006h-0.007v0.002H25.91l-0.009,0.006
		h-0.006l-0.003,0.007h-0.007l-0.006,0.009h-0.007v0.003h-0.008v0.001h0.012l-0.005,0.009h-0.007l-0.003,0.005h-0.008l-0.008,0.006
		h-0.005v0.004h-0.007v0.003h-0.007v0.004H25.82v0.005l-0.023,0.005v0.004h-0.008v0.002l-0.014,0.005v0.002h-0.007v0.002h-0.007
		v0.004l-0.02,0.006v0.005H25.73v0.003h-0.002v0.002l-0.014,0.005v0.002l-0.011,0.001v0.003l-0.013,0.003v0.003H25.68V33.7
		l-0.012,0.006v0.003h-0.011v0.004l-0.014,0.001v0.004h-0.011v0.005h-0.006v0.002l-0.016,0.003v0.004H25.6v0.001h-0.006v0.003
		h-0.012v0.005h-0.005v0.002l-0.022,0.004v0.003h-0.006v0.004h-0.011v0.003h-0.008v0.003h-0.008v0.003l-0.029,0.007v0.007h-0.014
		v0.004h-0.008v0.002h-0.012v0.003H25.45v0.004h-0.01v0.004h-0.008v0.002h-0.013v0.005H25.41v0.003h-0.011v0.002h-0.01v0.003
		l-0.019,0.005v0.003l-0.056,0.014v0.003h-0.01v0.005h-0.012v0.002l-0.042,0.01v0.004l-0.042,0.01v0.002l-0.043,0.01v0.003
		l-0.056,0.015v0.003h-0.011v0.003h-0.01v0.004h-0.008v0.003h-0.014v0.003h-0.01v0.002h-0.01v0.005h-0.012v0.004h-0.01v0.001h-0.012
		v0.003H25v0.004h-0.003v0.005h-0.01v0.004h-0.011v0.001h-0.011v0.004h-0.013v0.003h-0.008v0.003h-0.011v0.004h-0.009v0.004h-0.014
		v0.003l-0.019,0.003v0.003h-0.013v0.004h-0.01v0.004l-0.033,0.006v0.003h-0.008v0.004h-0.012v0.003L24.792,34l-0.419,0.136h-0.014
		v0.003h-0.003v0.005h-0.011v0.003l-0.023,0.004v0.002l-0.023,0.004v0.003l-0.024,0.003v0.003l-0.035,0.008v0.003L24.2,34.184
		l-0.152,0.039h-0.019l-0.063,0.011h-0.024v0.003l-0.025,0.001v0.005h-0.029v0.002h-0.039v0.003h-0.052v-0.027h-0.132v-0.004h-0.014
		c-0.111-0.003-0.217-0.028-0.297-0.063h-0.009v-0.002h-0.008v-0.004h-0.009v-0.003l-0.021-0.007v-0.003H23.3v-0.004l-0.017-0.003
		l-0.003-0.007h-0.006v-0.003h-0.007v-0.004h-0.008l-0.003-0.005H23.25l-0.004-0.005L23.232,34.1l-0.002-0.008l-0.016-0.002
		l-0.001-0.006h-0.006l-0.003-0.007h-0.008l-0.007-0.01h-0.004l-0.008-0.009h-0.007l-0.006-0.012h-0.007l-0.009-0.013H23.14
		l-0.027-0.03h-0.006l-0.007-0.01l-0.023-0.021v-0.006l-0.026-0.023v-0.008l-0.009-0.003v-0.003l-0.008-0.007v-0.004l-0.01-0.004
		v-0.009l-0.008-0.004v-0.008l-0.011-0.007v-0.006l-0.006-0.003v-0.008l-0.008-0.003v-0.007l-0.008-0.003v-0.006l-0.003-0.004
		v-0.005l-0.009-0.002l-0.002-0.015l-0.007-0.003l-0.008-0.021l-0.005-0.003v-0.008l-0.007-0.005v-0.008h-0.006v-0.006H22.93v-0.006
		h-0.001v-0.007h-0.003v-0.007h-0.003v-0.006h-0.005l-0.006-0.022h-0.003l-0.002-0.015h-0.004L22.9,33.689h-0.004v-0.01h-0.005
		v-0.006h-0.003v-0.011h-0.002v-0.007h-0.004l-0.003-0.021h0.002v0.001h-0.003l-0.007-0.031h-0.005v-0.01h-0.003v-0.01h-0.001
		v-0.008h-0.005v-0.012h-0.003v-0.009h-0.001l-0.003-0.023h-0.007l-0.003-0.022h-0.003l-0.003-0.025l-0.029-0.123l-0.002-0.039
		l-0.019-0.093V33.2H22.78v-0.031h-0.004v-0.04h-0.004v-0.042h-0.003l-0.003-0.079v-0.062l-0.003-0.118v-7.012l0.003-0.091v-0.09
		h0.003v-0.055h0.003v-0.047l0.004-0.005v-0.034h0.004V25.46h0.003v-0.028h0.003v-0.029l0.018-0.096l0.001-0.043l0.031-0.135v-0.017
		h0.003v-0.014h0.003v-0.017h0.007l0.003-0.026h0.001l0.003-0.027h0.005l0.001-0.025h0.003v-0.01h0.005l0.003-0.024h0.003v-0.015
		h0.003v-0.01h0.004v-0.012h0.003v-0.01h0.003l0.006-0.033h0.005v-0.01h0.004v-0.01h0.001V24.86h0.004l0.005-0.029h0.006v-0.007
		h0.001l0.007-0.028h0.003v-0.008h0.001l0.004-0.02h0.006v-0.007h0.003v-0.01h0.003v-0.01h0.001l0.005-0.019h0.004l0.003-0.011
		h0.005V24.7h0.002v-0.007h0.002v-0.01h0.003l0.005-0.014h0.001V24.66h0.002v-0.009h0.007l0.002-0.011h0.004v-0.011h0.003v-0.006
		h0.002l0.004-0.014h0.004l0.002-0.015h0.004v-0.005h0.003v-0.008h0.003v-0.006h0.002v-0.007h0.004l0.002-0.013h0.003l0.003-0.014
		h0.005v-0.006h0.005v-0.007h0.003v-0.007h0.003v-0.006h0.005l0.003-0.013l0.006-0.004v-0.006h0.003v-0.008l0.008-0.005V24.47
		l0.006-0.001l0.007-0.021l0.005-0.003l0.004-0.013l0.006-0.004l0.003-0.015l0.007-0.003l0.004-0.013h0.002l0.004-0.01l0.007-0.002
		l0.002-0.014l0.008-0.003V24.36l0.007-0.004v-0.005l0.005-0.006v-0.006l0.006-0.003v-0.007h0.003l0.005-0.011l0.006-0.004v-0.005
		l0.009-0.004v-0.007l0.009-0.006v-0.007l0.007-0.003v-0.007l0.007-0.003l0.003-0.01l0.01-0.006v-0.007l0.011-0.005v-0.007
		l0.009-0.009v-0.005l0.01-0.006v0.001l0.014-0.01v-0.007l0.015-0.01v-0.007l0.016-0.012v-0.007l0.022-0.016v-0.008l0.011-0.01
		l0.014-0.02l0.036-0.033v-0.006l0.025-0.025l0.052-0.056h0.009l0.031-0.036h0.01l0.021-0.026h0.006l0.014-0.017h0.005l0.016-0.017
		h0.006l0.012-0.017h0.008l0.009-0.013h0.008l0.007-0.009h0.007l0.009-0.014h0.007l0.006-0.012l0.01-0.002l0.002-0.006h0.008
		l0.004-0.005h0.006l0.008-0.011H23.7l0.001-0.006h0.008l0.007-0.01h0.006l0.004-0.008l0.009-0.002v0.001h0.008l0.003-0.007h0.006
		l0.007-0.01l0.013-0.004l0.003-0.005h0.007v-0.003l0.01-0.003l0.003-0.007h0.007l0.006-0.006l0.007-0.005v-0.002l0.014-0.003
		l0.003-0.009l0.013-0.002l0.004-0.007l0.016-0.003l0.002-0.006l0.014-0.003l0.003-0.007l0.015-0.004l0.003-0.006l0.02-0.007
		l0.004-0.007h0.008v-0.003h0.002v-0.003h0.008l0.009-0.007h0.006l0.002-0.007l0.013-0.002l0.009-0.008h0.005v-0.002h0.006v-0.003
		h0.009v-0.005h0.004v-0.003l0.016-0.003v-0.003h0.005l0.005-0.006h-0.017v-0.002h0.012v-0.005l0.019-0.005v-0.004h0.007v-0.002
		h0.006v-0.005h0.008v-0.002h0.006v-0.003h0.006v-0.004h0.008v-0.002l0.006-0.001V23.56h0.008v-0.003h0.008v-0.003l0.013-0.002
		v-0.005h0.01v-0.003h0.008v-0.002l0.011-0.004v-0.004h0.011V23.53l0.014-0.002v-0.003l0.032-0.01v-0.004h0.009v-0.003h0.009v-0.002
		h0.006v0.002h0.01v-0.002h0.008V23.5l0.019-0.004v-0.002h0.006v-0.004h0.01v-0.003h0.006v-0.002l0.031-0.009v-0.003h0.007v-0.003
		h0.009v-0.003h0.013v-0.005h0.007V23.46h0.013v-0.004h0.005v-0.002h0.01v-0.003h0.01v-0.004h0.01v-0.004h0.012l0.12-0.042
		l0.02-0.003v-0.004h0.014l0.391-0.128h0.013v-0.004h0.012v-0.004h0.009v-0.002h0.011v-0.004h0.01v-0.003h0.012v-0.002h0.01v-0.005
		h0.012v-0.003h0.009v-0.002h0.011v-0.003l0.041-0.012v-0.002l0.057-0.014v-0.002h0.01V23.2h0.011v-0.005h0.01v-0.002l0.042-0.01
		V23.18l0.043-0.011v-0.003l0.033-0.007v-0.003h0.014v-0.002h0.01v-0.005h0.011v-0.002h0.011l0.135-0.039h0.014v-0.005h0.015V23.1
		h0.014v-0.002l0.029-0.003v-0.003h0.018v-0.004l0.032-0.002v-0.004l0.035-0.003l0.106-0.02h0.029v-0.004h0.028v-0.004h0.041v-0.002
		h0.229v0.002h0.032v0.004h0.026v0.004h0.023l0.057,0.012h0.017v0.004h0.012v0.004h0.014v0.004h0.013v0.003h0.014v0.002h0.011v0.004
		h0.013v0.003h0.009v0.003h0.012v0.002h0.01v0.003l0.019,0.004v0.003h0.007v0.002h0.01v0.005h0.005v0.002h0.012v0.003h0.005v0.005
		h0.01v0.002l0.021,0.008v0.002h0.006v0.004h0.008v0.004h0.006v0.003h0.008v0.004h0.006v0.002h0.005v0.004h0.006l0.008,0.006h0.005
		l0.004,0.008l0.014,0.004l0.003,0.006l0.014,0.003v0.003l0.012,0.004l0.003,0.007h0.006l0.002,0.005h0.007l0.007,0.01h0.007
		l0.003,0.007h0.007l0.01,0.014h0.006l0.011,0.013h0.005l0.018,0.021h0.007l0.029,0.031l0.036,0.034v0.006l0.02,0.017v0.006
		l0.013,0.011v0.006l0.016,0.011v0.007l0.007,0.005v0.008h0.003l0.005,0.009l0.007,0.005v0.007l0.012,0.006v0.008l0.002,0.002
		l0.004,0.015h0.005l0.002,0.008l0.007,0.004v0.007h0.005v0.006l0.005,0.003l0.009,0.022l0.004,0.002v0.007l0.008,0.007v0.006h0.003
		v0.005h0.005v0.009h0.002v0.005h0.004v0.007h0.001v0.007h0.004v0.006h0.004l0.006,0.021h0.005v0.01h0.002l0.003,0.012h0.005v0.011
		H26.9l0.004,0.014h0.005v0.009h0.001v0.007h0.003v0.011h0.004v0.005h0.005l0.005,0.029h0.001v0.012h0.006v0.005h0.004l0.006,0.034
		h0.003v0.009h0.004v0.01h0.003v0.012h0.004l0.003,0.022h0.001l0.041,0.174l0.003,0.039l0.021,0.125v0.031h0.003l0.006,0.137h0.004
		v0.097l0.001,0.123v1.155l-0.001,0.004l-0.051,0.011v0.003H26.98v0.002h-0.016v0.004h-0.012v0.004h-0.01v0.002l-0.027,0.003
		l-0.166,0.05l-0.027,0.004v0.002h-0.011v0.003l-0.035,0.008v0.003l-0.037,0.007v0.004l-0.023,0.002v0.004L26.59,25.82v0.003h-0.01
		v0.006l-0.037,0.005v0.003l-0.023,0.003v0.003l-0.022,0.006v0.002l-0.026,0.004l-0.267,0.079l-0.07,0.016v0.004h-0.015v0.002H26.11
		v0.003H26.1v0.003l-0.023,0.004v0.003h-0.01v0.005h-0.01v0.002l-0.023,0.003v0.004H26.02l-0.226,0.069h-0.013v0.003h-0.01v0.005
		h-0.016v0.002h-0.007v0.002h-0.012v0.004l-0.033,0.006v0.004h-0.012v0.004l-0.01,0.001v0.002h-0.015L25.606,26.08"/>
	<path fill="#FFFFFF" d="M57.602,27.032l-0.033-0.014l-0.021-0.004v-0.002h-0.006v-0.003l-0.021-0.004v-0.002h-0.008v-0.004
		l-0.02-0.004v-0.004h-0.009v-0.003l-0.017-0.002v-0.002h-0.009V26.98l-0.021-0.003v-0.003h-0.003v-0.003l-0.021-0.005v-0.002
		h-0.012l-0.195-0.076l-0.028-0.005v-0.004h-0.006v-0.002l-0.029-0.008v-0.002h-0.008v-0.004l-0.021-0.004v-0.002h-0.011v-0.002
		h-0.006v-0.005h-0.01v-0.003l-0.028-0.006l-0.266-0.1l-0.026-0.006l-0.047-0.021L56.7,26.708v-0.003h-0.007v-0.003h-0.011v-0.005
		h-0.009v-0.003h-0.012V26.69h-0.011l-0.047-0.019l-0.028-0.007v-0.003H56.57v-0.003l-0.07-0.02v-0.004l0,0v-0.005l-0.06-0.016
		V26.61h-0.009v-0.002h-0.006v-0.005l-0.021-0.001h-0.011v-0.003h-0.009v-0.004h-0.011v-0.003h-0.008v-0.003l-0.03-0.006v-0.003
		H56.33v-0.004h-0.011v-0.005l-0.02-0.003v-0.002h-0.01v-0.003h-0.013v-0.002h-0.01v-0.004h-0.011v-0.003h-0.013v-0.004h-0.009
		v-0.002l-0.017-0.003v-0.004l-0.003-0.068v-0.927l-0.007-0.051h-0.002v-0.028l0,0v-0.027h-0.005v-0.022h-0.004v-0.018h-0.002v-0.02
		l-0.004-0.03h-0.006v-0.013h-0.001v-0.013h-0.003v-0.011h-0.006v-0.012h-0.002v-0.011H56.17v-0.011h-0.001v-0.009h-0.006v-0.011
		h-0.002V25.25h-0.002l-0.004-0.021h-0.004v-0.005h-0.004v-0.008h-0.006l-0.005-0.02h-0.001V25.19H56.13v-0.008h-0.002v-0.009
		l-0.006-0.003v-0.007h-0.004v-0.006h-0.004V25.15h-0.002v-0.007l-0.008-0.008v-0.007L56.1,25.127l-0.008-0.015H56.09l-0.003-0.009
		L56.08,25.1v-0.008h-0.002l-0.005-0.01l-0.009-0.002v-0.008l-0.009-0.006V25.06l-0.01-0.007v-0.007l-0.015-0.01v-0.007
		l-0.023-0.021v-0.006l-0.019-0.013l-0.027-0.034H55.96l-0.02-0.019h-0.004l-0.012-0.017h-0.01l-0.008-0.011h-0.005l-0.006-0.009
		h-0.004l-0.003-0.008h-0.01l-0.007-0.01h-0.005l-0.004-0.005l-0.012-0.004v-0.001l-0.011-0.004l-0.006-0.007l-0.013-0.003
		l-0.002-0.008h-0.004v-0.003h-0.012l-0.008-0.005h-0.005l-0.005-0.007l-0.019-0.006V24.82h-0.01v-0.004h-0.004v-0.002l-0.021-0.006
		v0.004h-0.011v-0.003h-0.003v-0.002l-0.015-0.004v-0.003h-0.012v-0.003h-0.006v-0.004h-0.01v-0.004h-0.01v-0.002h-0.002v-0.003
		H55.66v-0.003l-0.028-0.006v-0.004h-0.01v-0.001h-0.009v-0.004h-0.012v-0.003l-0.022-0.004v-0.002l-0.022-0.004v-0.004h-0.009
		v-0.002h-0.011v-0.003h-0.008v-0.004h-0.012v-0.001h-0.012V24.73h-0.01v-0.005l-0.028-0.006v-0.003h-0.015v-0.003h-0.008v-0.004
		h-0.013v-0.002h-0.009v-0.003h-0.005V24.7l-0.009-0.001v-0.004h-0.012v-0.002l-0.021-0.004v-0.004h-0.015v-0.003h-0.008v-0.003
		l-0.024-0.003v-0.004l-0.022-0.004v-0.003l-0.051-0.005v-0.004h-0.023v-0.003h-0.022v-0.004H55.18l-0.087,0.004h-0.02v0.003h-0.019
		v0.004H55.04v0.003h-0.014v0.002h-0.008v0.004h-0.004v0.004h-0.012v0.003l-0.02,0.006v0.003l-0.015,0.003l-0.003,0.006L54.953,24.7
		l-0.003,0.007l-0.012,0.003l-0.011,0.012H54.92l-0.003,0.009l-0.02,0.016v0.007l-0.014,0.01v0.007l-0.011,0.006v0.007l-0.007,0.003
		l-0.004,0.014l-0.007,0.003l-0.005,0.014h-0.004l-0.004,0.021h-0.002c-0.069,0.147-0.053,0.387-0.053,0.598v1.453l0.016,0.199v0.02
		l0.023,0.084v0.009h0.002l0.007,0.029h0.005l0.002,0.014h0.002v0.01h0.004l0.008,0.021h0.004l0.003,0.014l0.008,0.003l0.003,0.014
		l0.008,0.003l0.004,0.012l0.007,0.004l0.003,0.011l0.012,0.005v0.007l0.019,0.018v0.006l0.022,0.017v0.008l0.031,0.029v0.005
		l0.043,0.04l0.006,0.011l0,0v0.006l0.075,0.07l0.076,0.08h0.007l0.003,0.007h0.005l0.063,0.068h0.007l0.033,0.038h0.009l0.02,0.023
		h0.006l0.021,0.02h0.006l0.02,0.022h0.005l0.021,0.024h0.008l0.021,0.022h0.007l0.021,0.023h0.007l0.007,0.009l0.014,0.011v0.002
		h0.008l0.019,0.023h0.008l0.021,0.024l0.112,0.091l0.026,0.028h0.002l0.021,0.021h0.008l0.019,0.023h0.007l0.023,0.025h0.007
		l0.005,0.01l0.016,0.01v0.003h0.007l0.024,0.027h0.006l0.004,0.009l0.017,0.012v0.003h0.009l0.023,0.026h0.008l0.023,0.024h0.006
		l0.019,0.023h0.01l0.022,0.027h0.007l0.023,0.024h0.007l0.024,0.025h0.009l0.021,0.027h0.008l0.023,0.024h0.007l0.024,0.026h0.004
		l0.025,0.026h0.008l0.024,0.026h0.005l0.023,0.029h0.009l0.021,0.026h0.005l0.028,0.029h0.005l0.021,0.026h0.011l0.024,0.029h0.006
		l0.014,0.013l0.011,0.01v0.003l0.009,0.001l0.026,0.029h0.006l0.026,0.03h-0.003l0.026,0.029h0.005l0.026,0.029h0.008l0.024,0.029
		h0.008l0.024,0.029h0.008l0.022,0.026h0.004l0.003,0.006h0.008l0.031,0.034h0.007l0.02,0.023l0.053,0.047l0.031,0.037l0.056,0.051
		l0.021,0.021h0.008l0.027,0.029l0.059,0.059l0.056,0.057h0.004l0.061,0.065l0.09,0.093l0.036,0.032l0.01,0.015h0.005v0.005
		l0.032,0.029v0.006l0.025,0.023v0.009l0,0l0.009,0.009l0.014,0.007v0.007l0.014,0.014v0.006h0.006l0.007,0.01l0.004,0.003v0.009
		l0.01,0.001l0.004,0.011l0.012,0.008v0.009l0.011,0.006v0.007l0.011,0.005v0.008l0.008,0.006v0.007l0.007,0.004v0.007l0.015,0.005
		v0.008l0.006,0.003v0.007l0.008,0.002v0.007l0.007,0.003v0.006l0.008,0.004v0.007l0.006,0.003v0.007l0.006,0.003l0.003,0.013
		l0.006,0.003v0.006l0.007,0.005l0.005,0.013l0.008,0.004l0.002,0.012l0.009,0.003l0.006,0.021l0.006,0.003l0.006,0.02h0.007v0.006
		l0.006,0.008v0.006l0.006,0.004v0.007l0.006,0.005v0.007h0.002v0.007h0.007v0.008h0.003v0.006h0.006v0.01H57.5v0.006h0.003v0.007
		h0.004l0.004,0.021h0.002v0.009h0.008l0.002,0.015h0.002v0.01h0.006l0.002,0.014h0.005l0.003,0.019h0.003v0.011h0.003v0.011h0.003
		v0.008h0.003v0.012h0.006v0.009h0.005l0.004,0.024h0.002l0.031,0.165l0.004,0.049h0.005v0.027h0.002v0.029h0.004v0.036h0.002v0.039
		h0.005v0.045h0.002l0.007,0.099v0.048v0.098v2.296v0.155l-0.007,0.074v0.03l-0.002,0.062h-0.005v0.032l-0.024,0.105v0.023h-0.004
		v0.02h-0.005v0.02h-0.002v0.018h-0.002v0.02h-0.006v0.018h-0.002l-0.003,0.028h-0.004v0.013h-0.002v0.018h-0.005l-0.006,0.038
		h-0.004l-0.004,0.025h-0.003l-0.003,0.021h-0.003v0.01h-0.022v0.011h-0.004v0.011h-0.002l-0.02,0.059h-0.003v0.007h-0.003v0.01
		h-0.004l-0.004,0.018h-0.002v0.006h-0.004v0.01h-0.004l-0.002,0.013h-0.006l-0.003,0.017h-0.002l-0.007,0.019h-0.003v0.009h-0.003
		v0.007h-0.002l-0.001,0.007h-0.005v0.006h-0.002v0.006l-0.004,0.008v0.006l-0.009,0.003l-0.011,0.022l-0.004,0.002l-0.002,0.012
		l-0.007,0.005l-0.002,0.013h-0.008l-0.002,0.011l-0.007,0.003v0.007l-0.006,0.003v0.007l-0.01,0.006v0.007l-0.008,0.003
		l-0.004,0.01l-0.014,0.008v0.006l-0.008,0.007l-0.004,0.01l-0.021,0.016v0.007l-0.027,0.027l-0.026,0.027h-0.004l-0.018,0.021
		h-0.008l-0.012,0.015h-0.005l-0.011,0.011h-0.004l-0.008,0.009h-0.007l-0.002,0.006l-0.012,0.003v0.004h-0.005l-0.005,0.006
		l-0.009,0.002v0.004l-0.015,0.005l-0.005,0.005h-0.007v0.004h0.002l-0.009,0.007h-0.008l-0.002,0.007l-0.028,0.009v0.004h-0.007
		v0.004l-0.017,0.003v0.002h-0.009v0.005l-0.012,0.002v0.004l-0.021,0.003v0.002h-0.006v0.006l-0.045,0.007v0.003h-0.006v0.004
		h-0.016v0.005h-0.014v0.003h-0.016v0.002H56.89v0.004h-0.018v0.004l-0.033,0.003v0.002h-0.021v0.004h-0.025v0.002l-0.074,0.004
		h-0.196v-0.003h-0.035v-0.003H56.46v-0.004h-0.025l-0.066-0.014h-0.021l-0.212-0.046v-0.002l-0.033-0.007v-0.004l-0.046-0.009
		v-0.003h-0.01v-0.033h-0.012v-0.002l-0.042-0.012V34.25h-0.013l-0.365-0.125l-0.025-0.003l-0.151-0.053l-0.019-0.003v-0.002H55.41
		v-0.004h-0.012v-0.001h-0.002v-0.005h-0.01V34.05h-0.009v-0.003h-0.015v-0.003l-0.021-0.003l-0.121-0.042l-0.022-0.004V33.99
		l-0.029-0.008l-0.156-0.052l-0.06-0.016v-0.003h-0.007v-0.004l-0.03-0.008v-0.002H54.91v-0.002l-0.021-0.006v-0.002h-0.007v-0.004
		l-0.021-0.003v-0.003h-0.005v-0.003h-0.01v-0.001h-0.006V33.87l-0.019-0.005v-0.003h-0.01v-0.004h-0.007v-0.004h-0.012v-0.002
		l-0.011-0.004v-0.004h-0.013v-0.002l-0.014-0.004v-0.002h-0.008v-0.004l-0.018-0.004v-0.001h-0.01v-0.004h-0.006v-0.004
		l-0.021-0.007v-0.003h-0.008v-0.003h-0.007v-0.004l-0.014-0.003v-0.004l-0.014-0.003v-0.005h-0.006v-0.003h-0.006v-0.002h-0.008
		V33.78h-0.009v-0.006H54.62v-0.003l-0.014-0.003v-0.004l-0.017-0.002V33.76h-0.004v-0.004H54.58v-0.003h-0.007v-0.004h0.003v-0.003
		h-0.005v-0.003l-0.016-0.004l-0.004-0.006h-0.008v-0.003h-0.006v-0.004h-0.006l-0.012-0.007h-0.002l-0.004-0.007l-0.02-0.005
		l-0.003-0.007l-0.015-0.004l-0.006-0.005l-0.021-0.008v-0.004l-0.01-0.002l-0.002-0.007h-0.008v-0.004H54.43l-0.004-0.007
		l-0.015-0.003l-0.002-0.008h-0.008l-0.005-0.005h-0.006l-0.004-0.007H54.38l-0.002-0.007h-0.006L54.37,33.62h-0.007l-0.005-0.006
		h-0.006V33.61l-0.011-0.003l-0.005-0.008H54.33v-0.002l-0.006-0.003l-0.004-0.005h-0.009l-0.009-0.011h-0.008l-0.001-0.007h-0.007
		l-0.005-0.006l-0.012-0.006l-0.005-0.009H54.26l-0.008-0.01h-0.005l-0.007-0.011h-0.01l-0.008-0.013l-0.014-0.002l-0.003-0.008
		h-0.005l-0.016-0.017H54.18l-0.016-0.017h-0.006l-0.014-0.017h-0.006l-0.021-0.023H54.11l-0.031-0.035h-0.008l-0.035-0.038
		l-0.08-0.094l-0.023-0.021v-0.006l-0.018-0.013v-0.008l-0.016-0.013v-0.007l-0.015-0.01V33.18l-0.006-0.003v-0.003l-0.006-0.004
		v0.006l-0.012-0.007l-0.004-0.011l-0.007-0.002v-0.008l-0.004-0.002l-0.005-0.012l-0.014-0.005V33.12l-0.009-0.009v-0.004
		l-0.006-0.004v-0.006l-0.01-0.006v-0.006l-0.008-0.005l-0.005-0.008h-0.003v-0.008l-0.007-0.004v-0.006l-0.007-0.003v-0.008
		l-0.004-0.004l-0.004-0.008l0,0l-0.002-0.014h-0.006l-0.003-0.011l-0.01-0.003l-0.003-0.012l-0.005-0.004v-0.007l-0.006-0.004
		l-0.009-0.02l-0.007-0.002l-0.002-0.015l-0.009-0.003l-0.007-0.021l-0.007-0.003v-0.008l-0.008-0.004v-0.006h-0.003v-0.008H53.68
		l-0.005-0.013l-0.006-0.004v-0.005l-0.007-0.009v-0.007H53.66v-0.004h-0.004v-0.009h-0.004v-0.005h-0.006v-0.007h-0.001v-0.007
		h-0.005l-0.007-0.021h-0.002v-0.011h-0.007v-0.004h-0.003V32.77h-0.004v-0.02h-0.004v-0.017h-0.008v-0.008h-0.003v-0.006h-0.003
		v-0.012h-0.003l-0.004-0.013h-0.003v-0.008h-0.004v-0.008h-0.004v0.001h-0.004v-0.008h-0.002l-0.005-0.016h-0.003v-0.01h-0.002
		v-0.007h-0.006l-0.001-0.021h-0.004V32.61h-0.005v-0.02h-0.005v-0.006h-0.002l-0.02-0.061l-0.067-0.219v-0.017l-0.023-0.11v-0.021
		l-0.026-0.141l-0.003-0.053h0.01v-0.027h-0.004v-0.027h-0.002v-0.033h-0.003v-0.037h-0.003v-0.043h-0.004v-0.049l-0.002-0.068
		l-0.007-0.063v-0.048l-0.004-0.07v-0.536l0.05,0.008v0.005h0.012v0.001l0.01,0.001v0.004l0.023,0.002v0.003l0.035,0.007v0.002
		h0.016v0.005h0.012v0.004l0.023,0.001v0.004h0.01v0.004h0.015l0.149,0.046l0.027,0.003l0.111,0.036h0.015v0.004h0.013v0.002h0.012
		l0.11,0.036h0.014v0.004h0.011v0.003h0.014v0.003h0.012v0.005h0.012v0.002l0.022,0.004v0.004l0.033,0.006v0.003h0.013v0.003h0.01
		v0.001h0.015l0.262,0.082h0.015v0.004h0.01v0.003h0.011v0.003l0.032,0.006v0.003h0.013l0.181,0.061h0.015v0.003h0.011v0.003h0.012
		v0.002l0.022,0.005v0.004h0.011v0.003h0.01v0.003l0.02,0.004v0.002l0.005,0.046v0.613l0.002,0.036h0.005v0.03h0.005v0.02h0.003
		v0.02h0.003v0.021l0.033,0.118h-0.005v0.007h0.003v0.01h0.003v0.006h0.003v0.011h0.004l0.004,0.012h0.003v0.01h0.004l0.006,0.02
		h0.003v0.008h0.004l0.005,0.013l0.009,0.004l0.005,0.021l0.007,0.002l0.002,0.015h0.004l0.004,0.01l0.007,0.003v0.004h0.006
		l0.002,0.011l0.008,0.004v0.007l0.01,0.007v0.007l0.01,0.007v0.006l0.014,0.011v0.007l0.025,0.019l0.003,0.012l0.009,0.006
		l0.023,0.023h0.005l0.021,0.026h0.009l0.013,0.019H55.1l0.008,0.01h0.009l0.006,0.009h0.006l0.009,0.01h0.005l0.004,0.005h0.008
		l0.002,0.009h0.008l0.002,0.006h0.004l0.008,0.007l0.015,0.003l0.002,0.006H55.2v0.003h0.007l0.005,0.007h0.009v0.004h0.005
		l0.004,0.007h0.009l0.004,0.006l0.018,0.008v0.002h0.009v0.004h0.007v0.002l0.021,0.007v0.005h0.02v0.004l0.013,0.004v0.003h0.011
		v0.003h0.007v0.003h0.01v0.002l0.006,0.001v0.005l0.019,0.003v0.002h0.01v0.004h0.009v0.004h0.012v-0.009h0.006v0.003h0.012v0.002
		h0.01l0.143,0.05h0.009v0.003h0.013v0.005h0.01v0.002h0.01v0.004h0.011l0.152,0.049l0.074,0.009L56,32.882h0.019v-0.003h0.011
		v-0.002h0.009v-0.004h0.012v-0.003h0.006v-0.002h0.009v-0.004h0.007v-0.003h0.009l0.004-0.008l0.014-0.002l0.004-0.007h0.007
		l0.008-0.009h0.006l0.025-0.026l0.018-0.017v-0.005l0.008-0.006v-0.004l0.011-0.008l0.002-0.013
		c0.082-0.131,0.075-0.326,0.075-0.535v-1.312c0-0.207,0.013-0.442-0.04-0.594v-0.012h-0.002v-0.007h-0.007l-0.003-0.021h-0.004
		v-0.005h-0.02v-0.01h-0.002l-0.01-0.021H56.17v-0.006h-0.005l-0.002-0.014l-0.004-0.002l-0.004-0.015l-0.008-0.002l-0.005-0.015
		l-0.008-0.003l-0.004-0.009l-0.007-0.007v-0.006l-0.02-0.015v-0.005l-0.017-0.014v-0.008l-0.023-0.019v-0.008l-0.028-0.024v-0.007
		l-0.045-0.04l-0.078-0.083l-0.156-0.162h-0.006l-0.034-0.035h-0.028l-0.023-0.029h-0.008l-0.023-0.029h-0.011l-0.021-0.029h-0.007
		l-0.027-0.029h-0.006l-0.024-0.031h-0.008l-0.025-0.024h-0.006l-0.026-0.031l-0.131-0.111l-0.022-0.03l-0.126-0.105l-0.025-0.027
		h-0.004l-0.022-0.025H55.13l-0.021-0.026h-0.007l-0.022-0.025H55.07l-0.021-0.025H55.04l-0.02-0.024h-0.006l-0.025-0.024h-0.008
		l-0.022-0.027h-0.007l-0.006-0.008l-0.017-0.011V29.06h-0.006l-0.024-0.026l-0.141-0.119l-0.023-0.025h-0.007l-0.021-0.024h-0.004
		l-0.021-0.023h-0.005l-0.021-0.023l-0.113-0.093l-0.023-0.023h-0.002l-0.017-0.021h-0.005l-0.023-0.024H54.47l-0.023-0.022H54.44
		l-0.022-0.023h-0.005l-0.018-0.02h-0.007l-0.003-0.008H54.38l-0.004-0.009l-0.168-0.139l-0.019-0.023h-0.006l-0.024-0.024h-0.007
		l-0.021-0.022l-0.022-0.026H54.1l-0.023-0.03H54.07l-0.023-0.026l0,0l-0.004-0.007h-0.007l-0.035-0.04h-0.01l-0.053-0.056h-0.005
		l-0.06-0.063l-0.066-0.071l-0.035-0.031l-0.017-0.021l-0.016-0.012v-0.008l-0.017-0.013v-0.007l-0.009-0.002V27.95l-0.007-0.003
		v-0.006l-0.014-0.011v-0.007l-0.01-0.005v-0.009l-0.01-0.005v-0.008l-0.008-0.005v-0.007l-0.011-0.004v-0.007l-0.009-0.005v-0.008
		l-0.007-0.002v-0.008l-0.009-0.003v-0.006l-0.007-0.005v-0.005l-0.007-0.003v-0.015l-0.009-0.002l-0.005-0.014l-0.006-0.003v0.002
		h-0.004v-0.006l-0.008-0.004l-0.006-0.02l-0.007-0.004v-0.005l-0.007-0.009V27.74h-0.002v-0.006H53.56v-0.007h-0.004v-0.011H53.55
		v-0.007h-0.002v-0.007h-0.004v-0.007h0.002v-0.005h-0.003l-0.003-0.015h-0.006v-0.005H53.53V27.66h-0.005v-0.007h-0.002
		l-0.005-0.015l0,0v-0.009h-0.004v-0.007h0.002l-0.003-0.018h-0.003v-0.01h-0.003v-0.006h-0.002l-0.007-0.03h-0.005v-0.011H53.49
		V27.54h-0.002v-0.011h-0.005v-0.011h-0.002v-0.009h-0.004v-0.011h-0.002v-0.009h-0.002l-0.005-0.024h-0.006l-0.006-0.034h-0.004
		L53.449,27.4h-0.003v-0.011h-0.002v-0.013H53.44v-0.017h-0.002v-0.018h-0.004l-0.002-0.033h-0.007l-0.002-0.038h-0.005v-0.021
		h-0.004v-0.023l0,0v-0.023h-0.004v-0.026h-0.002v-0.028h-0.003v-0.033h-0.003V27.08h-0.004v-0.046h-0.002v-0.056h-0.007v-0.105
		l-0.004-0.149V24.63l0.004-0.073v-0.045l0.007-0.113h0.002v-0.045h0.004v-0.039h0.003v-0.032h0.003v-0.029l0.021-0.117l0.004-0.041
		l0.029-0.13l0.006-0.026h0.004l0.002-0.023h0.004l0.006-0.034h0.003v-0.009h0.004v-0.01h0.005v-0.008h0.005l0.003-0.021h0.002
		v-0.007h0.002l0.006-0.028h0.004v-0.008h0.005v-0.01h0.004v-0.004l0,0v-0.01h0.005l0.002-0.014h0.006v-0.009h0.005v-0.007h0.003
		l0.003-0.014h0.003v-0.011h0.004l0.008-0.019h0.007v-0.015h0.005l0.004-0.021l0.006-0.003v-0.006h0.005v-0.007l0.007-0.005v-0.008
		l0.007-0.002v-0.008h0.004v-0.006l0.007-0.003l0.004-0.014l0.007-0.003v-0.006l0.005-0.002v-0.007l0.009-0.003v-0.008h0.003
		l0.003-0.01l0.009-0.002v-0.008l0.012-0.006V23.53l0.01-0.006v-0.008l0.01-0.007v-0.005l0.011-0.008v-0.004l0.006-0.003v-0.006
		l0.018-0.017v-0.008l0.031-0.025l0.029-0.033h0.008l0.021-0.023h0.006l0.01-0.012h0.01l0.005-0.011h0.009l0.004-0.009h0.007
		l0.008-0.008h0.007l0.004-0.01l0.015-0.003l0.002-0.007l0.013-0.005V23.31l0.013-0.003l0.002-0.007l0.022-0.008l0.004-0.006
		l0.02-0.008v-0.002h0.007v-0.003h0.008V23.27l0.019-0.007v0.007l0.019-0.004v-0.004h0.007v-0.004h0.012v-0.002h0.007v-0.004
		l0.019-0.003v-0.002h0.008v-0.005l0.044-0.008v-0.004h0.008v-0.003h0.012v-0.004l0.023-0.002v-0.004l0.029-0.002v-0.003h0.016
		l0.056-0.015h0.023v-0.002h0.027v-0.003h0.041v-0.004h0.055l0.07-0.003v0.003h0.074v0.004h0.043v0.003h0.031v0.002h0.027v0.005
		h0.022l0.067,0.013h0.018v0.002l0.035,0.004v0.002l0.034,0.004v0.003h0.015v0.004h0.016v0.003h0.016v0.002h0.012v0.003h0.019v0.005
		h0.014v0.002h0.015v0.003h0.014v0.004h0.013v0.002l0.037,0.008v0.004l0.022,0.003v0.002l0.025,0.005v0.003l0.02,0.003v0.002h0.016
		v0.004h0.008v0.004h-0.004V23.3h0.014l0.389,0.127l0.023,0.005l0.182,0.062h0.011v0.002h0.013v0.004h0.008v0.004h0.013v0.002h0.011
		l0.195,0.071l0.072,0.02v0.003h0.006v0.004l0.027,0.006v0.003h0.01v0.003l0.018,0.004v0.003h0.009v0.004l0.02,0.003v0.002h0.005
		v0.003h-0.013v0.004h0.011v-0.001l0.014,0.003v0.004h0.012v0.003h0.009v0.003h0.009v0.003h0.008v0.003h0.01v0.005l0.017,0.002
		v0.003h0.008v0.003h0.007v0.003l0.011,0.003v0.004h0.015v0.002h0.007v0.004h0.004v0.004h0.01v0.002h0.013v0.003h0.004v0.003h0.006
		v0.003l0.023,0.007v0.003h0.008v0.005h0.008v0.002l0.013,0.003v0.005h0.004v0.003h0.005v0.004h0.008v0.002h0.006v0.004h0.008v0.003
		h0.004v0.003h0.012v0.002h0.005v0.004h0.007l0.01,0.008h0.005l0.002,0.005h0.007l0.008,0.007h0.006v0.005h0.009v0.002l0.012,0.003
		l0.005,0.007h-0.005v0.005h0.007l0.006,0.005h0.009l0.004,0.009l0.021,0.006l0.005,0.005l0.012,0.005l0.004,0.004l0.013,0.004
		l0.004,0.006l0.015,0.004l0.004,0.007l0.015,0.004l0.003,0.007h0.006l0.005,0.005l0.009,0.004v0.003l0.014,0.003l0.004,0.005h0.006
		l0.007,0.008h0.007v0.003l0.01,0.004l0.002,0.007h0.008v0.003l0.008,0.002l0.005,0.006h0.009l0.007,0.011h0.005v0.003l0.012,0.003
		l0.004,0.008h0.007l0.006,0.009h0.007l0.006,0.01h0.01l0.005,0.01h0.008l0.005,0.011h0.011L56.743,24h0.008l0.006,0.009h0.009
		l0.01,0.014h0.007l0.01,0.014h0.009l0.012,0.018h0.007l0.007,0.008h0.004l0.002,0.009h0.007l0.023,0.022l0.102,0.096l0.111,0.123
		l0.021,0.016v0.005l0.006,0.006v0.001l0.007,0.005v0.007l0.016,0.009v0.008l0.013,0.01v0.007l0.011,0.006v0.007l0.011,0.008v0.005
		l0.011,0.007v0.005l0.009,0.008v0.006l0.01,0.004v0.006l0.008,0.006v0.007l0.009,0.004v0.007l0.008,0.006v0.006l0.009,0.005v0.006
		l0.006,0.002v0.007l0.009,0.002v0.008l0.005,0.003v0.006l0.006,0.003l0.006,0.014h0.004l0.002,0.009l0.008,0.004l0.005,0.014
		l0.007,0.002l0.002,0.015l0.008,0.002l0.002,0.015l0.009,0.003v0.013l0.009,0.004l0.008,0.02l0.006,0.003v0.008h0.004v0.006h0.004
		v0.006l0.006,0.007v0.007l0.006,0.002v0.009l0.007,0.006v0.007h0.006v0.007h0.003v0.006h0.004v0.008h0.001l0.005,0.013h0.004v0.007
		h0.004v0.007l0,0v0.006h0.007v0.006l0,0l0.01,0.015h0.002v-0.014h0.004v0.009h0.002v0.007h0.004l0.005,0.021h0.004v0.009h0.003
		v0.008h0.005l0.002,0.013h0.006v0.01h0.004l0.002,0.013h0.004v0.011h0.004v0.007h0.002v0.009h0.002v0.006h0.002v0.01h0.008v0.008
		h0.005l0.003,0.02h0.004v0.007h0.002l0.002,0.019h0.002v0.007h0.004v0.011h0.005v0.01h0.002v0.009h0.006v0.011h0.002v0.007h0.008
		l0.007,0.043h0.004v0.01h0.004v0.01h0.002v0.009h0.006v0.01h0.002v0.015h0.004v0.009h0.003v0.013h0.002v0.011h0.007l0.002,0.024
		h0.002v0.013h0.004l0.006,0.035h0.006v0.006h0.002v0.016h0.005v0.014h0.002v0.015h0.005l0.004,0.028h0.003l0.004,0.029h0.002
		l0.003,0.036l0.023,0.111l0.004,0.047l0.019,0.109v0.033h0.004v0.04h0.002v0.042h0.005l0.004,0.068v0.062l0.002,0.098v1.066H57.602
		z"/>
</g>
<path fill="#FFFFFF" d="M32.279,37.467l-0.909-2.361v2.361h-0.426v-3.451h0.398l0.902,2.36l-0.006-2.36h0.425v3.451H32.279z
	 M33.177,34.017h0.425v3.451h-0.425V34.017z"/>
<g>
	<path fill="#FFFFFF" d="M35.181,34.481c-0.06-0.077-0.148-0.131-0.287-0.131s-0.228,0.054-0.286,0.131
		c-0.124,0.164-0.147,0.441-0.147,1.26c0,0.819,0.024,1.095,0.147,1.26c0.059,0.078,0.148,0.131,0.286,0.131
		s0.227-0.054,0.287-0.131c0.123-0.165,0.148-0.442,0.148-1.26C35.329,34.921,35.304,34.646,35.181,34.481 M35.501,37.257
		c-0.132,0.145-0.325,0.248-0.607,0.248c-0.281,0-0.469-0.103-0.604-0.248c-0.242-0.261-0.258-0.654-0.258-1.517
		c0-0.863,0.016-1.256,0.258-1.519c0.135-0.146,0.323-0.248,0.604-0.248c0.282,0,0.475,0.101,0.607,0.248
		c0.244,0.261,0.254,0.655,0.254,1.519C35.755,36.604,35.745,36.996,35.501,37.257"/>
	<path fill="#FFFFFF" d="M36.979,34.39h-0.375v1.225h0.375c0.326,0,0.401-0.245,0.401-0.615
		C37.381,34.635,37.305,34.39,36.979,34.39 M37.475,37.467l-0.486-1.484h-0.385v1.484h-0.426v-3.451h0.795
		c0.535,0,0.831,0.228,0.831,0.982c0,0.479-0.118,0.762-0.424,0.904l0.539,1.565L37.475,37.467L37.475,37.467z"/>
</g>
<path fill="#FFFFFF" d="M39.021,34.39v3.078h-0.425V34.39h-0.592v-0.373h1.606v0.373H39.021z M40.418,34.688l-0.328,1.59h0.656
	L40.418,34.688z M40.994,37.467l-0.17-0.817h-0.816l-0.166,0.817h-0.444l0.819-3.451h0.412l0.816,3.451H40.994z M43.93,37.291
	c-0.134,0.127-0.34,0.21-0.625,0.21c-0.271,0-0.481-0.073-0.616-0.21c-0.165-0.158-0.221-0.356-0.221-0.726h0.427
	c0,0.228,0.023,0.353,0.119,0.45c0.06,0.063,0.159,0.107,0.291,0.107c0.145,0,0.24-0.043,0.303-0.112
	c0.094-0.103,0.117-0.232,0.117-0.462c0-0.396-0.062-0.518-0.35-0.633l-0.4-0.16c-0.361-0.146-0.479-0.339-0.479-0.864
	c0-0.301,0.089-0.546,0.268-0.708c0.136-0.125,0.325-0.199,0.56-0.199c0.258,0,0.449,0.073,0.585,0.199
	c0.175,0.17,0.231,0.395,0.231,0.708h-0.427c0-0.184-0.019-0.311-0.108-0.418c-0.059-0.071-0.154-0.114-0.286-0.114
	c-0.124,0-0.214,0.043-0.273,0.106c-0.084,0.091-0.122,0.231-0.122,0.412c0,0.337,0.053,0.441,0.336,0.557l0.398,0.161
	c0.397,0.16,0.494,0.4,0.494,0.943C44.15,36.9,44.1,37.127,43.93,37.291"/>
<path fill="#FFFFFF" d="M46.558,34.39v1.157h0.804v0.373h-0.804v1.548h-0.425v-3.451h1.356v0.373H46.558z"/>
<path fill="#FFFFFF" d="M49.15,37.315c-0.139,0.127-0.305,0.19-0.542,0.19c-0.282,0-0.47-0.103-0.603-0.248
	c-0.241-0.261-0.258-0.654-0.258-1.517c0-0.863,0.017-1.256,0.258-1.519c0.133-0.146,0.32-0.248,0.603-0.248
	c0.242,0,0.419,0.072,0.56,0.204c0.162,0.156,0.249,0.401,0.252,0.689h-0.428c0-0.151-0.027-0.3-0.107-0.399
	c-0.062-0.073-0.142-0.12-0.276-0.12c-0.137,0-0.228,0.054-0.288,0.131c-0.123,0.164-0.145,0.44-0.145,1.26
	c0,0.819,0.021,1.094,0.145,1.259c0.061,0.078,0.151,0.132,0.288,0.132c0.135,0,0.215-0.054,0.276-0.126
	c0.078-0.099,0.114-0.242,0.114-0.393h0.425C49.418,36.904,49.323,37.162,49.15,37.315"/>
<path fill="#FFFFFF" d="M55.75,55.78c-5.618,9.586-16.049,11.414-21.625,11.666c-1.972,0.09-3.335-0.018-3.665-0.045
	c0.918,0.781,1.871,1.523,2.853,2.213c0.394,0.257,0.799,0.518,1.235,0.786c0,0,1.174-0.195,3.005-0.752
	C42.174,68.245,50.989,64.528,55.75,55.78"/>
<path fill="#FFFFFF" d="M60.059,15.557l-0.313-0.68l-0.749,0.034c-0.601,0.026-1.217,0.041-1.876,0.041
	c-4.556,0-6.971-0.66-9.104-1.243l-1.102-0.318c-1.712-0.505-3.648-1.078-6.976-1.078c-3.327,0-5.264,0.574-6.974,1.079l-1.1,0.317
	c-2.132,0.583-4.546,1.243-9.104,1.243c-0.659,0-1.273-0.015-1.875-0.041l-0.747-0.033l-0.315,0.68
	c-2.69,5.807-4.111,12.33-4.111,18.864c0,8.66,2.403,16.964,6.942,24.02c0.836,1.298,1.735,2.537,2.69,3.716
	c1.031,1.271,2.133,2.466,3.29,3.588c1.228,0.11,2.406,0.165,3.536,0.184c16.903,0.226,22.74-9.305,22.74-9.305
	s-2.58,4.07-9.439,6.093l-0.439-1.201c0,0-0.297-3.271,1.657-7.39c0,0-1.207,2.323-2.593,3.279
	c-0.009,0.794,0.026,1.339,0.026,1.339c0.24,0.26,0.213,0.473,0.227,0.585l0.002,0.034v0.014c0.018,0.621-0.018,1.35-0.165,2.129
	c0,0,0.308,0.103,0.293,0.503l-0.019,0.985c-0.413,0.104-0.839,0.198-1.28,0.286l-0.421-1.014c0,0-0.647-3.308,1.834-7.042
	c0,0,2.801-1.332,2.792-4.395c-0.008-1.359-1.803-6.044-1.803-6.044l1.383-0.833l0.207,0.015l0.494-0.301l0.011-0.342l0.057-0.4
	l-0.273-0.383l-0.563-0.022c-1.662-0.019-2.085-0.837-2.085-0.837l-0.638-0.016l-0.747-2.32c-0.079-0.428-0.433-0.749-0.848-0.755
	c-0.122-0.002-0.234,0.025-0.331,0.076c-0.109-0.055-0.228-0.085-0.353-0.087c-0.416-0.008-0.897,0.384-0.845,0.793l0.012,0.069
	c-0.041-0.327,0.354-0.655,0.656-0.648c0.105,0.001,0.208,0.034,0.297,0.091c-0.074,0.12-0.301,0.338-0.277,0.501l0.012,0.07
	c-0.023-0.189,0.219-0.42,0.332-0.528c0.138,0.112,0.24,0.28,0.265,0.466l0.605,2.215l-0.114-0.006
	c-0.523-0.527-1.148-0.673-1.148-0.673s0.037,0.52,0.258,1.085c-0.104-0.334-0.099-0.64-0.099-0.64s0.571,0.036,0.863,0.499
	c0.21,0.336,0.24,0.962,0.24,0.962c-0.097,0.007-0.495,0.009-0.776-0.366l0.128,0.193c0.205,0.273,0.444,0.473,0.671,0.611
	l0.4,4.124c0,0,0.267,1.567-1.493,1.859c0,0-6.62,0.516-8.262,3.466c0,0-0.854,1.416-0.444,2.718c0,0,0.38-0.518,0.585-1.049
	l-0.211-0.776c0.644,1.02,0.554,2.174,0.55,2.239c-0.156,1.55-1.148,2.803-1.148,2.803s1.012,0.727-0.101,4.176
	c0.158,0.162,0.133,0.469,0.063,0.747c-1.225-0.134-2.507-0.323-3.852-0.585c-1.664-1.751-3.183-3.676-4.529-5.767
	c-4.306-6.694-6.584-14.582-6.584-22.813c0-5.961,1.242-11.909,3.597-17.253c0.394,0.01,0.796,0.015,1.215,0.015
	c4.856,0,7.427-0.701,9.691-1.318l1.146-0.329c1.715-0.509,3.337-0.989,6.34-0.989s4.625,0.479,6.341,0.986
	c0.387,0.116,0.767,0.227,1.15,0.332c2.267,0.618,4.834,1.318,9.688,1.318c0.421,0,0.821-0.005,1.217-0.015
	c2.359,5.345,3.598,11.292,3.598,17.253c0,8.229-2.276,16.116-6.587,22.813c-2.97,4.612-6.757,8.436-11.121,11.267l0.014-0.002
	l-0.711,0.444c-0.553,0.345-1.115,0.665-1.688,0.976l-0.609,0.324l-0.236,0.12c-0.338,0.172-0.689,0.346-1.045,0.508l-0.013,0.007
	h-0.001c-0.977,0.45-1.995,0.847-2.896,1.041c0.804,0.436,2.96,1.387,2.96,1.387l0.398-0.178
	c6.777-3.023,12.593-8.104,16.829-14.682c4.541-7.057,6.942-15.36,6.942-24.02C64.17,27.889,62.747,21.365,60.059,15.557"/>
<path fill="#FFFFFF" d="M44.396,42.989l0.239-0.041l0.044-0.044l0.004-0.067c-0.105-0.296-0.365-0.339-0.51-0.339l-0.089,0.004
	l-0.061,0.086C44.024,42.844,44.158,42.992,44.396,42.989"/>
<path fill="#005CB9" d="M33.623,62.827l0.775-3.467c0,0,0.88-1.541,2.146-2.535c0,0,1.638-0.974,1.366-2.729
	c0,0,0.22,0.348,0.344,0.698c2.191-0.34,3.443,0.518,3.443,0.518c-2.354-0.098-4.159,1.147-4.159,1.147
	c1.156-0.66,2.975-0.884,4.135-0.44c0.093,1.071,0.079,3.128,0.079,3.128s0.533,0.39,0.045,3.104c0,0,0.351,0.102,0.332,0.503
	l-0.019,0.71c-0.492,0.075-0.999,0.143-1.522,0.195l-0.535-1.056l-2.191-3.618c0,0-0.079-1.675,0.909-2.387
	c0,0-1.249-0.071-2.456,1.077c0.023,0.676-0.089,1.879-0.089,1.879c2.368,0.795,2.845,3.218,2.845,3.218
	c0.434-0.009,0.493,0.421,0.53,0.59l0.064,0.373c-1.775,0.129-3.731,0.119-5.882-0.07L33.623,62.827z"/>
<path fill="#004A97" d="M42.743,39.332c-0.037-0.211-0.143-0.394-0.288-0.528c0.284,0.032,0.538,0.29,0.576,0.6l0.608,2.233
	l-0.153-0.008L42.743,39.332z"/>
<path fill="#004A97" d="M46.793,42.74l0.051,0.383c0,0-1.931,0.879-3.04,0.33l-0.271-1.566
	C43.533,41.887,44.514,42.693,46.793,42.74"/>
<g>
	<path fill="#004A97" d="M40.592,63.659c0.522-0.053,1.03-0.119,1.521-0.195l0.018-0.71c0.02-0.401-0.332-0.503-0.332-0.503
		c0.489-2.714-0.045-3.104-0.045-3.104s0.014-2.057-0.079-3.128c-0.474-0.182-1.066-0.226-1.673-0.2v6.692l0.056,0.092
		L40.592,63.659z"/>
	<path fill="#004A97" d="M40.001,54.77v0.695c0.515-0.111,1.086-0.179,1.697-0.152C41.698,55.313,41.092,54.911,40.001,54.77z"/>
</g>
</svg>
