<?xml version="1.0" encoding="utf-8"?>
<!-- Generator: Adobe Illustrator 16.0.0, SVG Export Plug-In . SVG Version: 6.00 Build 0)  -->
<!DOCTYPE svg PUBLIC "-//W3C//DTD SVG 1.1//EN" "http://www.w3.org/Graphics/SVG/1.1/DTD/svg11.dtd">
<svg version="1.1" id="Calque_4" xmlns="http://www.w3.org/2000/svg" xmlns:xlink="http://www.w3.org/1999/xlink" x="0px" y="0px"
	 width="80px" height="80px" viewBox="0 0 80 80" enable-background="new 0 0 80 80" xml:space="preserve">
<g>
	<path fill="#00458E" d="M40.074,74.291c-18.185,0-32.98-14.797-32.98-32.982c0-18.185,14.796-32.98,32.98-32.98
		c18.186,0,32.982,14.796,32.982,32.98C73.057,59.495,58.26,74.291,40.074,74.291"/>
	<path fill="#E1001A" d="M40.075,72.643c-17.275,0-31.333-14.059-31.333-31.334c0-17.277,14.057-31.333,31.333-31.333
		s31.334,14.056,31.334,31.333C71.409,58.584,57.354,72.643,40.075,72.643"/>
	<path fill="#FFFFFF" d="M40.076,70.992c-16.368,0-29.684-13.316-29.684-29.684c0-16.369,13.316-29.686,29.684-29.686
		c16.367,0,29.683,13.317,29.683,29.686C69.759,57.676,56.443,70.992,40.076,70.992"/>
	<g>
		<g>
			<g>
				<path fill="#00458E" d="M20.291,41.309c0-10.912,8.878-19.79,19.789-19.79v39.579C29.169,61.098,20.291,52.221,20.291,41.309"/>
				<path fill="#E1001A" d="M59.859,41.309c0,10.912-8.877,19.789-19.789,19.789V21.519C50.982,21.519,59.859,30.396,59.859,41.309"
					/>
			</g>
		</g>
	</g>
</g>
<g>
	<g>
		<path fill="#FFFFFF" d="M51,40.795v-0.479h0.457v-1.473l-0.35,0.352l-0.336-0.34l1.158-1.167v2.628h0.457v0.479H51z"/>
	</g>
	<g>
		<path fill="#FFFFFF" d="M54.499,39.335l-1.054,1.456h-0.588l0.746-1.032c-0.133-0.006-0.261-0.036-0.379-0.089
			c-0.119-0.054-0.225-0.125-0.313-0.214c-0.091-0.088-0.161-0.193-0.214-0.313c-0.055-0.12-0.08-0.251-0.08-0.393
			s0.025-0.274,0.084-0.396c0.056-0.124,0.131-0.229,0.229-0.319c0.094-0.089,0.203-0.159,0.326-0.21
			c0.126-0.051,0.26-0.077,0.396-0.077c0.138,0,0.27,0.026,0.396,0.077c0.126,0.051,0.237,0.121,0.331,0.212
			c0.096,0.09,0.171,0.196,0.229,0.318c0.057,0.122,0.084,0.255,0.084,0.399C54.691,38.969,54.627,39.163,54.499,39.335z
			 M54.172,38.543c-0.031-0.064-0.072-0.119-0.124-0.166c-0.051-0.047-0.11-0.083-0.181-0.11c-0.068-0.027-0.139-0.041-0.213-0.041
			c-0.071,0-0.143,0.014-0.211,0.041c-0.068,0.027-0.129,0.063-0.18,0.11c-0.053,0.047-0.096,0.102-0.125,0.166
			c-0.031,0.063-0.047,0.134-0.047,0.21c0,0.077,0.016,0.147,0.047,0.212c0.029,0.065,0.072,0.121,0.125,0.167
			c0.055,0.046,0.113,0.083,0.182,0.108c0.066,0.026,0.138,0.039,0.209,0.039c0.074,0,0.145-0.013,0.213-0.039
			c0.068-0.025,0.13-0.062,0.181-0.108c0.052-0.046,0.093-0.103,0.124-0.167s0.046-0.136,0.046-0.212
			C54.218,38.677,54.203,38.607,54.172,38.543z"/>
	</g>
	<g>
		<path fill="#FFFFFF" d="M51,44.414v-0.479h0.457v-1.475l-0.35,0.354l-0.336-0.34l1.158-1.166v2.627h0.457v0.479H51z"/>
	</g>
	<g>
		<path fill="#FFFFFF" d="M54.656,43.758c-0.032,0.098-0.081,0.189-0.145,0.275c-0.1,0.135-0.225,0.24-0.373,0.314
			c-0.148,0.07-0.309,0.107-0.478,0.107c-0.103,0-0.204-0.018-0.306-0.045c-0.1-0.029-0.191-0.074-0.281-0.135
			c-0.141-0.094-0.249-0.213-0.327-0.355s-0.117-0.301-0.117-0.471c0-0.104,0.017-0.207,0.05-0.305
			c0.03-0.098,0.077-0.189,0.141-0.275l1.15-1.584l0.381,0.283l-0.635,0.873c0.198,0.012,0.379,0.068,0.537,0.18
			c0.143,0.094,0.252,0.215,0.331,0.357c0.078,0.146,0.117,0.307,0.117,0.475C54.704,43.557,54.688,43.658,54.656,43.758z
			 M54.186,43.242c-0.033-0.064-0.072-0.119-0.125-0.166c-0.052-0.047-0.109-0.084-0.181-0.109
			c-0.067-0.027-0.139-0.041-0.212-0.041c-0.072,0-0.145,0.014-0.212,0.041c-0.067,0.025-0.129,0.063-0.181,0.109
			c-0.053,0.046-0.092,0.102-0.125,0.166c-0.029,0.063-0.045,0.133-0.045,0.209s0.016,0.146,0.045,0.213
			c0.033,0.064,0.074,0.121,0.127,0.168c0.055,0.045,0.113,0.082,0.181,0.107c0.067,0.023,0.138,0.039,0.21,0.039
			c0.073,0,0.145-0.016,0.212-0.039c0.069-0.025,0.129-0.063,0.181-0.107c0.053-0.047,0.092-0.104,0.125-0.168
			c0.03-0.066,0.045-0.137,0.045-0.213S54.216,43.305,54.186,43.242z"/>
	</g>
	<polygon fill="#FFFFFF" points="36.637,40.945 36.637,34.206 35.337,34.206 35.337,42.26 37.936,42.26 37.936,40.945 	"/>
	<path fill="#FFFFFF" d="M40.063,37.066v7.077c0.628-0.151,1.23-0.438,1.809-0.861l0.878,1.244c-0.779,0.57-1.677,0.976-2.687,1.216
		v2.739l-1.554,1.396V45.92c-1.021,0-1.979-0.186-2.872-0.559c-0.894-0.371-1.701-0.922-2.42-1.648
		c-0.719-0.727-1.278-1.557-1.679-2.486c-0.369-0.962-0.553-1.929-0.553-2.89c0-1.387,0.333-2.659,1.003-3.817
		c0.669-1.159,1.576-2.081,2.721-2.764c1.146-0.685,2.396-1.029,3.749-1.029h1.631c0.567,0,1.087,0.142,1.554,0.419
		c0.471,0.277,0.851,0.665,1.143,1.154c0.293,0.491,0.439,1.023,0.439,1.598c0,0.729-0.233,1.379-0.703,1.954
		c1.756,0.524,3.191,1.539,4.314,3.043c1.119,1.504,1.682,3.212,1.682,5.123c0,1.521-0.379,2.943-1.129,4.264
		c-0.754,1.316-1.781,2.357-3.087,3.117c-1.305,0.764-2.709,1.145-4.213,1.145c-1.338,0-2.601-0.311-3.788-0.926
		c-1.187-0.617-2.165-1.441-2.932-2.475l1.252-0.887c0.182,0.252,0.487,0.578,0.911,0.975c0.426,0.396,1.077,0.787,1.953,1.17
		c0.876,0.377,1.74,0.566,2.59,0.566c1.901,0,3.339-0.48,4.308-1.445c0.967-0.963,1.639-1.891,2.016-2.789
		c0.375-0.895,0.563-1.801,0.563-2.715c0-1.23-0.303-2.385-0.91-3.461c-0.609-1.074-1.447-1.924-2.523-2.545
		C42.451,37.38,41.298,37.066,40.063,37.066 M38.51,44.348V32.299c-1.755,0-3.19,0.622-4.302,1.865
		c-1.111,1.243-1.665,2.625-1.665,4.146c0,1.776,0.612,3.227,1.841,4.35C35.613,43.785,36.989,44.348,38.51,44.348 M40.063,35.571
		c0.446,0,0.822-0.163,1.136-0.485c0.313-0.324,0.471-0.709,0.471-1.15c0-0.46-0.152-0.849-0.456-1.164
		c-0.306-0.314-0.688-0.473-1.15-0.473L40.063,35.571L40.063,35.571z"/>
	<path fill="#FFFFFF" d="M40.295,54.449c-3.569,0.061-6.658-1.225-9.261-3.855c-0.928-0.938-1.685-1.951-2.272-3.045
		c-0.934-1.738-1.439-3.682-1.52-5.826c-0.004-0.102-0.01-0.201-0.012-0.307c-0.061-3.615,1.213-6.742,3.819-9.376
		c2.457-2.484,5.476-3.765,9.049-3.839c3.573-0.073,6.666,1.212,9.274,3.85l1.537-1.554c-1.421-1.436-3.085-2.552-4.993-3.344
		c-1.907-0.795-3.829-1.181-5.76-1.165c-1.934,0.017-3.837,0.414-5.712,1.189c-1.876,0.777-3.523,1.885-4.944,3.322
		c-0.167,0.168-0.328,0.341-0.485,0.516c-0.02,0.021-0.04,0.042-0.06,0.065c-1.187,1.328-2.106,2.81-2.753,4.445
		c-0.003,0.009-0.007,0.016-0.01,0.023c-0.784,1.93-1.169,3.872-1.152,5.825c0.008,0.794,0.079,1.585,0.21,2.37
		c0.08,0.526,0.188,1.055,0.322,1.577c0.607,2.341,1.742,4.429,3.399,6.267c0.009,0.013,0.019,0.021,0.027,0.031
		c0.157,0.174,0.316,0.344,0.483,0.512c0.006,0.009,0.013,0.015,0.019,0.021c1.934,1.953,4.221,3.275,6.865,3.961
		c2.642,0.686,5.238,0.688,7.792,0.014c2.554-0.68,4.805-2.002,6.752-3.975l-1.537-1.555C46.896,53.104,43.871,54.387,40.295,54.449
		"/>
</g>
<g>
	<path fill="#00458E" d="M14.46,32.172l0.38-0.89l3.235,1.384l0.863-2.017l0.809,0.347l-1.243,2.905L14.46,32.172z"/>
	<path fill="#00458E" d="M17.146,26.792l0.496-0.741l4.73,0.896l-0.563,0.84l-1.043-0.214l-1.035,1.546l0.597,0.883l-0.549,0.82
		L17.146,26.792z M19.863,27.385l-1.511-0.308l0.861,1.279L19.863,27.385z"/>
	<path fill="#00458E" d="M21.1,21.95l1.554-1.324c0.382-0.326,0.773-0.477,1.128-0.448c0.283,0.022,0.519,0.144,0.714,0.373
		l0.008,0.01c0.321,0.378,0.3,0.759,0.175,1.097c0.513-0.181,0.944-0.16,1.327,0.29l0.008,0.01c0.521,0.612,0.285,1.341-0.471,1.985
		l-1.593,1.356L21.1,21.95z M23.648,22.114c0.326-0.276,0.441-0.557,0.229-0.806l-0.008-0.009c-0.188-0.22-0.465-0.198-0.777,0.066
		l-0.727,0.619l0.604,0.708L23.648,22.114z M24.993,23.296c0.325-0.277,0.424-0.559,0.211-0.808l-0.008-0.009
		c-0.191-0.225-0.477-0.221-0.854,0.101l-0.852,0.725l0.627,0.736L24.993,23.296z"/>
	<path fill="#00458E" d="M25.125,18.742l2.874-1.656l0.43,0.746l-2.041,1.176l0.445,0.773l1.796-1.035l0.43,0.746l-1.797,1.035
		l0.461,0.8l2.069-1.191l0.429,0.746l-2.901,1.671L25.125,18.742z"/>
	<path fill="#00458E" d="M29.371,16.454l1.896-0.668c0.528-0.185,0.989-0.181,1.357-0.005c0.313,0.149,0.552,0.432,0.689,0.823
		l0.004,0.012c0.236,0.67,0.023,1.217-0.436,1.599l1.536,1.125l-1.066,0.375l-1.357-1.014l-0.012,0.004l-0.706,0.249l0.468,1.327
		l-0.913,0.322L29.371,16.454z M31.917,17.821c0.444-0.157,0.616-0.484,0.493-0.833l-0.004-0.012
		c-0.137-0.391-0.481-0.497-0.926-0.34l-0.907,0.319l0.419,1.191L31.917,17.821z"/>
	<path fill="#00458E" d="M34.314,14.884l1.988-0.295c0.554-0.083,1.006,0.009,1.334,0.253c0.277,0.206,0.459,0.529,0.52,0.938
		l0.003,0.013c0.104,0.702-0.21,1.2-0.732,1.487l1.293,1.396l-1.118,0.166l-1.139-1.253L36.45,17.59l-0.739,0.11l0.207,1.392
		l-0.957,0.143L34.314,14.884z M36.555,16.71c0.466-0.069,0.697-0.357,0.643-0.724l-0.003-0.013c-0.061-0.41-0.378-0.579-0.844-0.51
		l-0.95,0.141l0.185,1.249L36.555,16.71z"/>
	<path fill="#00458E" d="M39.284,14.339l0.968-0.016l0.072,4.397l-0.967,0.016L39.284,14.339z"/>
	<path fill="#00458E" d="M41.381,16.496v-0.013c0.162-1.24,1.229-2.134,2.569-1.959c0.823,0.107,1.278,0.446,1.632,0.897
		l-0.702,0.625c-0.297-0.35-0.614-0.582-1.051-0.638c-0.735-0.096-1.347,0.446-1.442,1.194v0.012
		c-0.1,0.748,0.338,1.439,1.086,1.536c0.498,0.066,0.828-0.094,1.213-0.36l0.529,0.696c-0.512,0.421-1.049,0.655-1.891,0.545
		C42.041,18.863,41.216,17.748,41.381,16.496z"/>
	<path fill="#00458E" d="M47.092,15.177l0.915,0.312l-0.56,1.647l1.688,0.575l0.561-1.647l0.916,0.312l-1.416,4.163l-0.916-0.311
		l0.568-1.672L47.16,17.98l-0.57,1.672l-0.915-0.312L47.092,15.177z"/>
	<path fill="#00458E" d="M50.932,18.891l0.006-0.011c0.646-1.072,2.017-1.443,3.181-0.745c1.161,0.698,1.479,2.066,0.835,3.138
		l-0.008,0.011c-0.643,1.072-2.016,1.442-3.178,0.745C50.602,21.331,50.287,19.963,50.932,18.891z M54.07,20.774l0.008-0.011
		c0.387-0.646,0.236-1.469-0.434-1.87c-0.666-0.4-1.446-0.151-1.834,0.496L51.805,19.4c-0.389,0.646-0.236,1.469,0.432,1.87
		C52.902,21.671,53.684,21.421,54.07,20.774z"/>
	<path fill="#00458E" d="M57.313,20.387l0.65,0.611l-0.354,3.384l1.854-1.973l0.696,0.654l-3.013,3.204l-0.602-0.564l0.364-3.496
		l-1.915,2.037L54.3,23.59L57.313,20.387z"/>
	<path fill="#00458E" d="M61.313,24.397l0.512,0.732l-1.042,3.238l2.221-1.548l0.546,0.783l-3.605,2.516l-0.471-0.675l1.073-3.346
		l-2.292,1.599l-0.547-0.783L61.313,24.397z"/>
	<path fill="#00458E" d="M64.354,29.101l1.346,3.034l-0.787,0.349l-0.954-2.154l-0.815,0.36l0.84,1.896l-0.787,0.349l-0.84-1.896
		l-0.846,0.375l0.969,2.184l-0.787,0.349l-1.356-3.063L64.354,29.101z"/>
</g>
<g>
	<path fill="#E1001A" d="M15.68,47.297l0.015-0.004c1.487-0.518,3.095,0.178,3.654,1.783c0.344,0.986,0.221,1.693-0.088,2.344
		l-1.099-0.438c0.226-0.531,0.306-1.021,0.124-1.543c-0.307-0.883-1.26-1.262-2.157-0.949l-0.015,0.004
		c-0.896,0.314-1.428,1.193-1.115,2.09c0.208,0.598,0.575,0.881,1.092,1.162l-0.485,0.99c-0.763-0.338-1.329-0.813-1.68-1.818
		C13.389,49.377,14.178,47.82,15.68,47.297z"/>
	<path fill="#E1001A" d="M20.184,51.545l0.711,0.99l-1.779,1.279l1.312,1.824l1.78-1.279l0.711,0.99l-4.496,3.23l-0.712-0.986
		l1.806-1.301l-1.313-1.822l-1.805,1.299l-0.712-0.99L20.184,51.545z"/>
	<path fill="#E1001A" d="M24.888,57.465l0.834,0.752l-1.976,5.73L22.8,63.094l0.457-1.263l-1.738-1.567l-1.208,0.582l-0.922-0.832
		L24.888,57.465z M23.656,60.742l0.657-1.826l-1.75,0.842L23.656,60.742z M25.98,56.242l0.845,0.764l-0.11,1.574l-0.687-0.619
		l-0.114-0.807l-0.813-0.031l-0.676-0.609L25.98,56.242z"/>
	<path fill="#E1001A" d="M28.432,61.563L26.95,60.76l0.535-0.988l4.034,2.188l-0.535,0.984l-1.481-0.801l-2.102,3.881l-1.071-0.58
		L28.432,61.563z"/>
	<path fill="#E1001A" d="M31.982,62.105l4.025,1.117l-0.29,1.045l-2.859-0.795l-0.301,1.084l2.516,0.695l-0.29,1.045L32.269,65.6
		l-0.311,1.121l2.896,0.805l-0.29,1.045l-4.063-1.129L31.982,62.105z"/>
	<path fill="#E1001A" d="M38.549,63.367l1.123,0.041l2.168,5.662l-1.273-0.047l-0.459-1.26l-2.341-0.086L37.213,68.9l-1.241-0.045
		L38.549,63.367z M39.71,66.672l-0.669-1.822l-0.802,1.771L39.71,66.672z"/>
	<path fill="#E1001A" d="M42.768,66.572l-0.642-3.098l1.192-0.248l0.636,3.066c0.183,0.885,0.719,1.248,1.446,1.1
		c0.729-0.148,1.078-0.684,0.899-1.543l-0.643-3.107l1.192-0.246l0.633,3.061c0.341,1.645-0.416,2.639-1.873,2.939
		C44.156,68.799,43.098,68.168,42.768,66.572z"/>
	<path fill="#E1001A" d="M47.6,62.232l2.303-1.053c0.642-0.291,1.222-0.342,1.701-0.16c0.408,0.15,0.74,0.479,0.959,0.955
		l0.006,0.016c0.371,0.813,0.166,1.523-0.364,2.055l2.053,1.236l-1.296,0.592l-1.814-1.119L51.13,64.76l-0.854,0.393l0.736,1.611
		L49.9,67.271L47.6,62.232z M50.948,63.66c0.54-0.246,0.718-0.676,0.522-1.102l-0.008-0.016c-0.218-0.477-0.658-0.566-1.197-0.32
		l-1.104,0.504l0.661,1.445L50.948,63.66z"/>
	<path fill="#E1001A" d="M53.898,62.35l-0.01-0.014c-1.002-1.215-0.861-3,0.457-4.088c1.317-1.086,3.074-0.883,4.075,0.332
		l0.011,0.014c1.002,1.215,0.862,3-0.455,4.088C56.657,63.768,54.9,63.564,53.898,62.35z M57.46,59.416l-0.01-0.014
		c-0.604-0.732-1.646-0.9-2.401-0.275c-0.758,0.623-0.79,1.654-0.186,2.387l0.009,0.012c0.604,0.734,1.646,0.902,2.403,0.277
		C58.032,61.18,58.063,60.148,57.46,59.416z"/>
	<path fill="#E1001A" d="M59.621,57.857l-2.586-1.824l0.703-0.996l2.559,1.807c0.739,0.52,1.381,0.42,1.811-0.186
		c0.43-0.609,0.319-1.238-0.396-1.744l-2.594-1.83l0.701-0.994l2.557,1.801c1.37,0.967,1.499,2.211,0.645,3.428
		C62.157,58.533,60.954,58.799,59.621,57.857z"/>
	<path fill="#E1001A" d="M63.174,51.043l-3.203,0.762l0.508-1.332l2.092-0.445l-1.26-1.732L61.803,47l1.869,2.693l3.334-0.795
		l-0.508,1.33l-2.217,0.484l1.33,1.844l-0.493,1.295L63.174,51.043z"/>
</g>
</svg>
