<?xml version="1.0" encoding="utf-8"?>
<!-- Generator: Adobe Illustrator 16.0.0, SVG Export Plug-In . SVG Version: 6.00 Build 0)  -->
<!DOCTYPE svg PUBLIC "-//W3C//DTD SVG 1.1//EN" "http://www.w3.org/Graphics/SVG/1.1/DTD/svg11.dtd">
<svg version="1.1" id="Calque_1" xmlns="http://www.w3.org/2000/svg" xmlns:xlink="http://www.w3.org/1999/xlink" x="0px" y="0px"
	 width="80px" height="80px" viewBox="0 0 80 80" enable-background="new 0 0 80 80" xml:space="preserve">
<path fill="#002D6A" d="M67.685,19.475C55.396,8.236,39.812,8.985,39.812,8.985c-13.635,0.149-27.27,10.489-27.27,10.489
	c-0.267,3.068-0.291,6.01-0.114,8.83h54.607C67.708,22.981,67.685,19.475,67.685,19.475"/>
<path fill="#C50C46" d="M12.428,28.304c1.919,30.52,27.534,46.467,27.534,46.467C59.75,64.403,65.413,41.1,67.034,28.304H12.428
	 M13.531,24.65c0-1.499,0.062-3.007,0.18-4.524c1.063-0.76,4.004-2.775,7.947-4.78c4.537-2.305,11.374-5.071,18.166-5.147h0.023
	l0.022-0.001c0.038-0.001,3.857-0.161,9.083,1.02c4.687,1.06,11.479,3.451,17.509,8.802c-0.023,1.171-0.134,4.197-0.657,8.283h2.462
	c0.647-5.163,0.638-8.596,0.635-8.837l-0.002-0.53l-0.396-0.358c-6.545-5.987-13.996-8.606-19.099-9.749
	c-5.424-1.217-9.335-1.073-9.637-1.06l0.032-0.001L39.754,7.77h0.013c-7.269,0.088-14.481,3.001-19.256,5.434
	c-5.15,2.623-8.562,5.195-8.704,5.303l-0.43,0.325L11.33,19.37c-0.261,3.009-0.298,5.99-0.118,8.935h2.438
	C13.571,27.093,13.531,25.875,13.531,24.65"/>
<path fill="#002D6A" d="M65.804,28.304c-0.474,3.681-1.281,8.221-2.661,13.039c-1.957,6.831-4.669,12.869-8.06,17.949
	c-4.065,6.093-9.133,10.818-15.06,14.062c-1.898-1.299-8.143-5.862-14.047-13.45c-4.111-5.288-7.258-10.988-9.348-16.944
	c-1.659-4.729-2.653-9.633-2.976-14.656h-2.438c0.33,5.316,1.376,10.509,3.139,15.516c2.188,6.213,5.472,12.152,9.762,17.652
	C31.412,70.825,39,75.604,39.321,75.804l0.59,0.369l0.619-0.323c6.574-3.446,12.156-8.574,16.599-15.24
	c3.53-5.3,6.349-11.577,8.373-18.662c1.458-5.098,2.292-9.842,2.768-13.645L65.804,28.304"/>
<path fill="#FFFFFF" d="M18.678,19.419c-0.155,0.06-0.294,0.128-0.426,0.219c-0.82,0.558-0.803,1.612-0.244,2.343
	c0.526,0.684,1.5,1.185,2.299,0.649c0.119-0.082,0.219-0.196,0.315-0.317l0.59,0.876c-0.1,0.147-0.225,0.27-0.371,0.372
	c-1.27,0.887-2.943,0.355-3.856-0.774c-0.98-1.211-0.793-3.024,0.515-3.933c0.186-0.129,0.387-0.223,0.605-0.288L18.678,19.419
	 M19.73,17.488l2.375,3.935c0.408-0.247,0.612-0.366,1.028-0.598l0.511,0.916c-0.788,0.439-1.175,0.674-1.938,1.169l-3.069-4.736
	C19.07,17.892,19.288,17.755,19.73,17.488 M23.7,15.384l0.437,0.952c-0.457,0.21-0.682,0.317-1.133,0.542l0.548,1.099
	c0.385-0.193,0.578-0.286,0.965-0.465l0.442,0.949c-0.378,0.176-0.565,0.265-0.94,0.454l0.569,1.139
	c0.414-0.208,0.625-0.308,1.042-0.501l0.438,0.953c-0.805,0.369-1.203,0.567-1.986,0.991l-2.681-4.967
	C22.312,16.042,22.771,15.81,23.7,15.384 M26.672,20.236l-2.256-5.174c0.469-0.204,0.703-0.302,1.176-0.49
	c0.958-0.412,2.247-0.457,2.623,0.76c0.178,0.58,0.114,1.174-0.325,1.659c0.608,0.685,1.198,1.387,1.771,2.104
	c-0.434,0.142-0.649,0.217-1.078,0.374c-0.601-0.709-1.22-1.403-1.857-2.078l-0.014,0.005l0.965,2.418L26.672,20.236L26.672,20.236z
	 M26.484,16.828l0.193-0.07c0.505-0.198,0.589-0.591,0.428-1.027c-0.141-0.379-0.458-0.619-1.026-0.362l-0.154,0.062L26.484,16.828
	 M30.508,12.973c0.474,1.023,0.931,2.054,1.373,3.092l0.014-0.003c-0.107-1.117-0.202-2.234-0.283-3.354
	c0.656-0.147,0.984-0.215,1.646-0.335c0.549,1.812,1.073,3.629,1.573,5.454c-0.435,0.073-0.653,0.112-1.087,0.197
	c-0.352-1.31-0.709-2.622-1.076-3.929l-0.016,0.002l0.098,1.401c0.022,0.906,0.057,1.809,0.103,2.713l-0.808,0.193
	c-0.391-0.833-0.794-1.659-1.21-2.478l-0.52-1.162l-0.027-0.101l-0.015,0.004c0.301,1.323,0.608,2.642,0.92,3.962
	c-0.446,0.124-0.669,0.19-1.113,0.331c-0.41-1.846-0.797-3.692-1.164-5.546C29.549,13.223,29.866,13.135,30.508,12.973
	 M38.85,14.579c0.047,1.196-0.351,2.903-1.77,3.042c-1.421,0.14-2.145-1.455-2.333-2.64c-0.208-1.305,0.192-3,1.762-3.155
	C38.079,11.672,38.799,13.26,38.85,14.579z M36.979,16.594c0.727-0.072,0.671-1.495,0.637-1.94c-0.037-0.501-0.2-1.877-1.005-1.798
	c-0.806,0.079-0.697,1.461-0.636,1.958C36.027,15.26,36.25,16.665,36.979,16.594 M40.587,11.724
	c0.512,1.128,0.984,2.274,1.413,3.437l0.018-0.014c-0.06-0.272-0.07-0.564-0.06-0.857l0.104-2.536
	c0.498,0.02,0.748,0.034,1.246,0.07l-0.404,5.629c-0.408-0.03-0.608-0.04-1.014-0.057c-0.396-1.162-0.832-2.306-1.312-3.437
	l-0.017,0.014l0.054,0.569l0.009,0.231l-0.016,2.59c-0.43-0.002-0.643,0-1.071,0.012c-0.049-1.882-0.098-3.763-0.147-5.642
	C39.87,11.724,40.11,11.722,40.587,11.724 M47.061,12.272l-0.171,1.035l-0.953-0.147l-0.647,4.549
	c-0.425-0.061-0.638-0.088-1.066-0.134l0.506-4.568l-0.95-0.094l0.09-1.043C44.938,11.977,45.998,12.109,47.061,12.272
	 M52.096,13.453l-0.306,1.002c-0.479-0.146-0.72-0.214-1.2-0.344l-0.316,1.163c0.423,0.113,0.634,0.173,1.052,0.299l-0.303,1.004
	c-0.408-0.122-0.612-0.181-1.021-0.291l-0.609,2.263c-0.415-0.112-0.626-0.166-1.044-0.264l1.292-5.492
	C50.63,13.024,51.122,13.156,52.096,13.453 M55.685,17.802c-0.503,1.107-1.636,2.428-2.98,1.916
	c-1.346-0.514-1.298-2.257-0.935-3.412c0.402-1.277,1.532-2.595,3.014-2.028C56.264,14.843,56.24,16.579,55.685,17.802z
	 M53.073,18.752c0.695,0.265,1.279-1.031,1.448-1.447c0.192-0.465,0.66-1.771-0.108-2.063c-0.767-0.294-1.288,0.992-1.456,1.465
	C52.808,17.13,52.38,18.486,53.073,18.752 M59.812,19.974c-0.646,1.048-1.942,2.196-3.224,1.513
	c-1.279-0.68-1.036-2.398-0.525-3.511c0.562-1.233,1.86-2.377,3.263-1.627C60.729,17.098,60.522,18.814,59.812,19.974z
	 M57.073,20.575c0.667,0.355,1.412-0.857,1.631-1.248c0.247-0.438,0.872-1.675,0.135-2.068c-0.734-0.392-1.409,0.82-1.635,1.269
	C57.002,18.927,56.408,20.221,57.073,20.575 M64.363,19.645l-0.626,0.84l-0.82-0.594l-2.646,3.757
	c-0.367-0.258-0.556-0.385-0.928-0.629l2.521-3.841l-0.838-0.535l0.556-0.89C62.532,18.342,63.462,18.976,64.363,19.645"/>
<g>
	<g>
		<defs>
			<path id="SVGID_1_" d="M65.804,28.304c-0.474,3.681-1.281,8.221-2.661,13.039c-1.957,6.831-4.669,12.869-8.06,17.949
				c-4.065,6.093-9.133,10.818-15.06,14.062c-1.898-1.299-8.143-5.862-14.047-13.45c-4.111-5.288-7.258-10.988-9.348-16.944
				c-1.659-4.729-2.653-9.633-2.976-14.656L65.804,28.304"/>
		</defs>
		<clipPath id="SVGID_2_">
			<use xlink:href="#SVGID_1_"  overflow="visible"/>
		</clipPath>
		<path clip-path="url(#SVGID_2_)" fill="#FFFFFF" d="M49.814,69.892l-2.216-3.84l2.216-3.838h0.506
			c-0.4-1.042-0.963-2.006-1.651-2.859l-0.253,0.436h-4.433l-2.217-3.841l0.256-0.438c-0.542-0.085-1.09-0.128-1.653-0.128
			c-0.563,0-1.114,0.043-1.653,0.128l0.253,0.438l-2.216,3.841h-4.432l-0.251-0.436c-0.69,0.853-1.251,1.813-1.654,2.859h0.507
			l2.216,3.837l-2.216,3.841h-0.507c0.402,1.043,0.963,2.006,1.654,2.858l0.251-0.435l4.432-0.002l2.216,3.842l-0.253,0.44
			c0.539,0.082,1.09,0.125,1.653,0.125c0.561,0,1.111-0.043,1.653-0.125l-0.254-0.44l2.215-3.84h4.433l0.253,0.435
			c0.69-0.85,1.251-1.813,1.651-2.858H49.814z"/>
	</g>
</g>
<g>
	<g>
		<defs>
			<path id="SVGID_3_" d="M65.804,28.304c-0.474,3.681-1.281,8.221-2.661,13.039c-1.957,6.831-4.669,12.869-8.06,17.949
				c-4.065,6.093-9.133,10.818-15.06,14.062c-1.898-1.299-8.143-5.862-14.047-13.45c-4.111-5.288-7.258-10.988-9.348-16.944
				c-1.659-4.729-2.653-9.633-2.976-14.656L65.804,28.304"/>
		</defs>
		<clipPath id="SVGID_4_">
			<use xlink:href="#SVGID_3_"  overflow="visible"/>
		</clipPath>
		<path clip-path="url(#SVGID_4_)" fill="#002D6A" d="M47.599,66.052l2.216,3.84h0.506c0.459-1.191,0.714-2.485,0.714-3.84
			c0-1.353-0.255-2.646-0.714-3.838h-0.506L47.599,66.052 M43.983,59.793h4.433l0.253-0.437c-1.629-2.016-3.976-3.427-6.646-3.843
			l-0.256,0.44L43.983,59.793 M36.751,59.793l2.216-3.84l-0.253-0.439c-2.675,0.415-5.02,1.827-6.646,3.842l0.251,0.437
			L36.751,59.793 M33.138,66.051l-2.217-3.837h-0.506c-0.459,1.189-0.715,2.485-0.715,3.838c0,1.354,0.255,2.648,0.715,3.84h0.506
			L33.138,66.051"/>
	</g>
</g>
<path fill="#FFFFFF" d="M50.561,51.786v-1.932c0.064-0.112,0.334,0.021,0.292-0.267l0.021-0.045
	c0.653-0.063,0.928-0.396,1.303-0.718l-0.022-0.043l-1.729-0.72c-0.337-0.093-1.755,0.376-2.065,0.47
	c-1.166,0.36-2.231,0.648-3.346,1.102l-1.236,0.47l-0.292,0.204c-0.225,0.062-0.446-0.046-0.582-0.091
	c-0.914,0.262-1.865,0.459-2.898,0.653l-1.839,0.111c-1.049,0.25-1.587,1.221-2.583,1.572c-0.803,0.282-1.937,0.335-2.852,0.112
	c-0.465-0.112-1.149-0.557-1.729-0.247c-0.722,0.385-0.264,1.817-0.741,2.381c-0.366,0.429-1.036,0.545-1.639,0.741
	c-1.229,0.396-3.381,0.852-5.006,0.539v-0.091l0.359-0.448l-0.428-0.359l1.168-0.516c1.247,1.163,2.217-0.169,2.83-1.034
	c0.123-0.172,0.694-1.095,0.583-1.28l-1.1-1.345l1.033-0.517l0.605,0.113c0.652,0.121,1.48-0.026,1.886-0.269
	c1.109-0.663,1.146-1.912,1.572-3.233c0.157-0.485,0.459-0.927,0.605-1.371c-1.61,0.593-2.517,1.929-3.884,2.765
	c-1.15,0.699-2.387,0.943-4.177,0.941l-0.291,0.294c-0.344-0.037-1.929-0.074-2.089-0.224l1.056-0.496l0.942-0.112
	c0.938-0.273,1.879-0.487,2.605-1.009c0.351-0.256,0.425-0.742,0.673-1.1c0.411-0.599,0.989-1.132,1.64-1.482
	c1.912-1.038,4.541-1.17,6.938-1.686l0.291-0.696v-0.028l-3.412,0.046l-0.045-0.023c-0.028-1.826,0.46-3.885,1.302-4.894
	c0.271-0.328,0.592-0.636,0.853-0.966c-0.071-0.184-0.293-0.341-0.247-0.495l1.033-0.449l2.155,0.315v-0.024l-1.438-2.605
	l-0.158-0.627l-1.1-1.348l0.134-0.09L35.4,31.625l0.314-0.18c-0.096-0.191-0.32-0.507-0.291-0.719
	c0.296-0.107,1.022-0.619,1.347-0.56c0.468,0.081,0.592,0.801,0.091,0.919c0.061,0.212,0.236,0.346,0.337,0.516l1.032,1.684
	c0.181,0.285,0.463,0.509,0.583,0.854h0.046l0.72-2.269l1.144-0.537l0.023,0.045c-0.182,0.679-0.313,1.535-0.45,2.087l0.044,0.045
	l0.561-0.247l-0.066-0.18l1.098-0.584c0.508,0.15,1.447,1.598,1.145,2.358c-0.147,0.374-0.466,0.516-0.763,0.742l0.134,0.403
	l0.921-0.427c0.364-0.005,1.226,0.196,1.527-0.021l-1.147-0.765l0.025-0.044c0.381-0.103,0.73-0.323,1.056-0.471h2.896l-0.675-1.256
	c0.315-0.096,0.959-0.543,1.19-0.428l0.876,1.19c0.27-0.131,0.948-0.57,1.188-0.494l2.472,6.265l-0.069,0.024l-0.628,0.223
	c-0.313,0.137-0.594,0.453-0.968,0.494c-0.618-0.227-1.444-0.918-1.974-0.989l-0.247,0.157c-0.046,0.54,0.171,1.085,0.292,1.548
	c0.255,0.994,0.408,1.761,0.718,2.672l0.471,1.529c-0.198,0.138-0.581,0.535-0.65,0.785l0.046,0.046
	c1.114,0.279,1.998-0.865,2.962-0.383c0.27,0.135,0.489,0.456,0.562,0.787c0.026,0.129-0.024,0.237,0.044,0.313l7.186,4.738v0.068
	l-1.235,0.561c-1.361-0.627-2.684-1.279-4.064-1.885l-1.886-0.877C52.959,50.056,51.426,51.683,50.561,51.786"/>
<path fill="#002D6A" d="M39.669,31.779c-0.005,0.718-0.388,1.333-0.425,2.133c0.313-0.045,0.411-0.232,0.785-0.247
	c0.217,0.264,0.452,0.543,0.652,0.854h0.023c0.095-0.401-0.048-1.105,0.113-1.593h0.089c0.415,0.579,1.796,1.704,0.943,2.67
	c-0.181,0.205-0.264,0.392-0.586,0.472c0.016,0.385,0.768,2.243,0.834,2.268c0.33-0.316,0.823-0.256,0.896-0.854
	c-0.185-0.132-0.847-1.223-0.852-1.459c0.733,0.009,2.081,0.169,2.583-0.158l-1.033-1.01v-0.158l3.433,0.023
	c-0.089-0.306-0.171-1.647-0.067-1.773l0.067,0.044c0.393,0.687,1.01,1.484,1.505,2.11l0.07-0.111
	c0.291-0.194,0.363-0.965,0.361-1.303l0.201,0.021c0.036,0.376,0.409,1.312,0.697,1.708c0.11,0.151,0.182,0.655,0.244,0.831
	c0.298,0.792,0.6,1.588,0.944,2.379c0.182,0.415,0.552,0.917,0.563,1.483c-0.391,0.068-1.136,0.867-1.686,0.718
	c-0.539-0.145-0.986-0.391-1.371-0.674c-0.141-0.103-0.413-0.38-0.651-0.292l-0.156,0.091c0.205,1.41,0.522,2.978,0.987,4.177
	c0.205,0.527,0.459,1.131,0.494,1.57l-0.652,0.719c0.157,0.357,1.413-0.065,1.548-0.135c0.602-0.311,1.444-0.463,1.863,0.202
	c0.153,0.24,0.09,0.451,0.181,0.764c0.303,0.019,1.636,1.099,2.02,1.324c1.8,1.042,3.343,2.253,5.122,3.349V52.1h-0.047
	c-0.389,0.16-1.617,0.182-2.108,0.182c-0.611-1.029-2.11-2.023-3.235-2.538l-1.595-0.561c0.048,1.184-1.286,2.041-2.02,2.604
	c-0.24,0.184-0.616,0.531-0.987,0.54v-2.291c0.897-0.034,1.671-0.429,1.796-1.234c-1.614-0.647-2.982,0.104-4.424,0.407
	c-0.59,0.12-1.601,0.448-2.154,0.74l-1.347,0.449c-0.246,0.121-0.619,0.36-0.852,0.428l-0.698-0.045
	c-0.827,0.185-1.811,0.463-2.649,0.604l-2.132,0.157c-1.04,0.397-1.627,1.266-2.74,1.642c-0.435,0.145-1.838,0.292-2.356,0.087
	c-0.492-0.194-1.301-0.623-1.932-0.337c-0.724,0.33-0.23,1.889-0.742,2.402c-0.844,0.847-4.958,1.626-6.715,1.258l-0.021-0.089
	l1.055-1.373h0.067l0.652,0.339c0.192,0.103,0.396,0.025,0.583,0.021l0.134,0.021c1.114-0.479,1.545-1.469,1.999-2.468
	c0.136-0.304,0.342-0.859,0.225-1.371l-0.225-0.696h0.066c0.18-0.031,0.634,0.034,0.831,0.088c0.401,0.117,1.105-0.058,1.37-0.178
	c1.81-0.803,1.276-3.185,2.358-4.604c-0.739,0.132-1.383,0.871-1.863,1.279c-0.593,0.509-1.388,0.969-2,1.523
	c-0.094-0.031-1.317,0.546-1.594,0.63c-1.099,0.345-2.975,0.365-3.93-0.132v-0.114c1.11,0,3.402-0.714,3.818-1.324
	c0.31-0.457,0.447-0.961,0.784-1.372c0.464-0.561,1.162-0.888,1.797-1.28l0.719-0.221c0.612-0.243,1.367-0.352,2.065-0.605
	c0.636-0.229,1.522-0.168,2.043-0.361c0.501-0.185,1.21-0.015,1.663-0.293c-0.005-0.145,0.113-0.4,0.224-0.56h-3.435
	c-0.034-2.083,0.492-3.943,1.325-5.074c0.11-0.149,0.727-0.823,0.831-0.852c0,0,0.148-0.076,0.066-0.112
	c0.206-0.115,0.505-0.251,0.652-0.427l0.068-0.404c0.788-0.008,1.357,0.194,2.111,0.269v-0.069
	c-0.218-0.137-0.266-0.498-0.405-0.718c-0.521-0.835-0.997-1.564-1.234-2.805c-0.054-0.281-0.1-1.475,0.067-1.64
	c0.652-0.148,0.89,0.652,1.145,1.056c0.42,0.666,0.837,1.244,1.303,1.864c0.229,0.302,0.283,0.624,0.516,0.875
	c-0.205-1.251,0.121-2.423,0.674-3.075c0.182-0.216,0.421-0.35,0.561-0.563h0.133"/>
<g>
	<path fill="#002D6A" d="M38.186,62.918c-0.062-0.288-0.195-0.453-0.36-0.555c-0.166-0.093-0.349-0.114-0.503-0.114
		c-1.007,0-1.387,1.006-1.428,1.816h0.021c0.36-0.597,0.996-0.758,1.673-0.758c1.317,0,2.323,1.058,2.323,2.361
		c0,1.706-1.304,2.641-2.866,2.641c-2.118,0-2.857-1.799-2.857-3.627c0-2.005,0.965-3.722,3.134-3.722
		c1.114,0,2.018,0.496,2.376,1.494C39.75,62.604,38.186,62.918,38.186,62.918z M37.066,66.896c0.729,0,1.211-0.516,1.211-1.102
		c0-0.667-0.432-1.201-1.224-1.201c-0.657,0-1.12,0.534-1.12,1.19C35.936,66.402,36.388,66.896,37.066,66.896z M42.923,63.843
		l0.46,0.01c0.511,0,1.162-0.133,1.162-0.749c0-0.462-0.463-0.719-1.028-0.719c-0.709,0-1.123,0.369-1.108,1.018
		c0,0-1.592-0.506-1.529-0.726c0.326-1.128,1.347-1.71,2.63-1.71c1.243,0,2.672,0.523,2.672,1.983c0,0.628-0.341,1.282-0.998,1.396
		v0.022c0.822,0.216,1.223,0.8,1.223,1.643c0,1.624-1.477,2.303-2.895,2.303c-1.52,0-2.772-0.7-2.921-2.199
		c-0.016-0.155,1.624-0.495,1.624-0.495c-0.022,0.852,0.399,1.277,1.283,1.277c0.596,0,1.16-0.26,1.16-0.888
		c0-0.793-0.575-0.975-1.274-0.975l-0.46,0.021V63.843z"/>
</g>
<polygon fill="#FFFFFF" points="36.74,24.952 36.647,24.926 35.623,30.75 36.292,30.503 "/>
<path fill="#FFFFFF" d="M41.001,48.074c0,0,0.967,1.464,1.333,1.669c0,0-0.603,0.575-1.413-0.18L41.001,48.074z"/>
<path fill="#FFFFFF" d="M43.742,42.646L42.1,46.169h-0.262c0,0-0.262-0.519-0.288-0.704c0,0-0.156-0.469,0.104-0.755l0.365-0.627
	c0,0,0.157-0.416-0.025-0.549c0,0-1.254-1.019-1.411-1.33c0,0-0.286-0.47-0.076-0.756c0,0,0.076-0.341,0.676-0.105
	c0,0,2.224,0.888,2.403,0.99C43.587,42.331,43.796,42.489,43.742,42.646z"/>
</svg>
