<?xml version="1.0" encoding="utf-8"?>
<!-- Generator: Adobe Illustrator 16.0.0, SVG Export Plug-In . SVG Version: 6.00 Build 0)  -->
<!DOCTYPE svg PUBLIC "-//W3C//DTD SVG 1.1//EN" "http://www.w3.org/Graphics/SVG/1.1/DTD/svg11.dtd">
<svg version="1.1" id="Calque_1" xmlns="http://www.w3.org/2000/svg" xmlns:xlink="http://www.w3.org/1999/xlink" x="0px" y="0px"
	 width="80px" height="80px" viewBox="0 0 80 80" enable-background="new 0 0 80 80" xml:space="preserve">
<path fill="#CF0A2C" d="M39.999,10c-20.812,0-26.448,6.048-26.682,6.307c-0.065,0.104-4.455,7.595-3.351,18.637
	C10.985,45.122,17,60.487,39.902,75.907l0.097,0.072l0.099-0.072c22.901-15.42,28.915-30.784,29.934-40.963
	C71.136,23.9,66.746,16.411,66.7,16.337C66.453,16.046,60.812,10,39.999,10z"/>
<path fill="#FFFFFF" d="M67.322,15.75l-0.006-0.008l-0.008-0.006c-0.23-0.267-5.939-6.5-27.31-6.5
	c-21.272,0-27.054,6.202-27.293,6.468c-0.057,0.084-4.574,7.78-3.441,19.092c1.039,10.4,7.184,26.107,30.574,41.858L40,76.766
	l0.162-0.112c23.389-15.751,29.539-31.458,30.574-41.858C71.866,23.502,67.367,15.825,67.322,15.75L67.322,15.75z M70.031,34.944
	c-1.019,10.178-7.032,25.543-29.934,40.963l-0.099,0.072l-0.097-0.072C17,60.487,10.985,45.126,9.966,34.944
	C8.864,23.9,13.252,16.411,13.317,16.307C13.551,16.046,19.186,10,39.999,10c20.813,0,26.454,6.048,26.701,6.337
	C66.746,16.411,71.136,23.901,70.031,34.944z"/>
<g>
	<path fill="#FFFFFF" d="M39.999,12.694c10.88,0,17.274,1.777,20.799,3.344h1.15c0.309,0,0.603,0.008,0.886,0.022
		c-3.157-1.769-9.889-4.245-22.836-4.245c-12.909,0-19.641,2.461-22.804,4.223h2.005C22.722,14.473,29.121,12.694,39.999,12.694z
		 M67.954,25.763v1.881c0,0.333-0.064,0.899-0.416,1.483c0.168,1.875,0.193,3.945-0.032,6.175C66.572,44.671,61.03,58.807,40,73.103
		c-21.035-14.297-26.574-28.432-27.508-37.8c-0.387-3.887-0.042-7.28,0.534-9.996v-3.368c-1.01,3.107-1.975,7.785-1.408,13.452
		c0.958,9.61,6.646,24.137,28.289,38.713L40,74.167l0.092-0.064c21.642-14.575,27.331-29.1,28.292-38.713
		C68.748,31.71,68.47,28.448,67.954,25.763z"/>
</g>
<g>
	<path fill="#FFFFFF" d="M41.427,65.341c-1.737-2.242-1.064-5.209-1.064-5.209c-0.289,0.599-0.813,0-0.813,0
		c0.222,0.516,0.511,3.777-1.004,4.995c0,0,1.549,0.25,1.549-1.544C40.094,65.042,41.427,65.341,41.427,65.341z M44.446,49.788
		c-0.064-0.347-1.162-0.999-1.61-1.059c-1.194-0.151,0.984-0.63,0.789-0.781c-0.864-0.763-0.766-0.991-0.766-0.991
		c-1.541-0.534-1.695-0.834-1.695-0.834c-1.236-0.255-2.998,0.174-3.004,0.177l-0.79,0.362c0.089,0.004,0.34,0.034-0.554,0.338
		c-0.375,0.121,0.138,1.268-0.139,1.666c-0.301,0.418-1.17,1.076-1.199,1.325c-0.133,1.1,0.856,3.327,1.3,3.98
		c0.612,0.909,0.937,1.608,1.367,1.949c1.77,1.65,3.161,0.335,3.341,0.163c0.75-0.706,0.941-1.111,1.408-1.767
		c0.25-0.339,1.366-2.447,1.493-3.142C44.486,50.679,44.436,49.739,44.446,49.788z M37.344,48.824
		c0.844-0.345,0.392-0.442,0.611-0.604c0.339-0.264-0.848-0.054-0.599-0.25c0.794-0.607,0.063-0.684,0.063-0.684
		c-0.002-0.254,1.065,0.305,1.168-0.492c0.001-0.005,0.755-0.037,1.378-0.153c0.692-0.132,0.792,0.377,1.379,0.352
		c0,0,0,0.335,0.476,0.508c0,0,0.415-0.113,0.712,0.085c0.181,0.11-1.103,0.159-0.532,0.635c0.104,0.086-0.985,0.104-0.555,0.398
		c0.388,0.256,1.324,0.387,1.395,0.574c-0.309-0.084,0.17,0.313-0.295,0.271c-0.972-0.093-2.277,0.962-2.232,1.25
		c-0.089-0.544-1.512-1.179-3.01-1.345c-0.371-0.019-0.284-0.021-0.659,0.014C36.86,49.145,36.974,48.975,37.344,48.824
		L37.344,48.824z M43.56,51.743c0,0-0.475,1.122-1.097,2.18c-0.652,1.111-1.43,1.788-1.43,1.788s-0.745,0.619-1.728,0.247
		c0,0-0.257-0.027-0.999-0.684c-0.737-0.664-1.185-1.653-1.185-1.653s-1.603-3.462-0.75-3.49c0,0,1.301-0.168,2.231,0.333
		c0,0,1.307,0.458,1.603,1.194c0,0,0.731-0.723,1.53-1.137c0.802-0.422,1.009-0.642,2.165-0.505
		C43.904,50.012,43.917,50.951,43.56,51.743L43.56,51.743z M36.474,50.843l1.448,0.479c0,0-0.225,1.063,0.661,1.114
		c0,0,0.168-0.033,0.298,0.155c0.188,0.286,0.636,1.362,0.638,1.412c0,0,0.276-1.688-0.859-2.545
		C37.673,50.721,36.474,50.843,36.474,50.843z M43.582,50.913l-1.239,0.548c0,0,0.498,0.99-0.861,1.176
		c-0.125,0.019-0.975,1.338-0.984,1.4c0,0,0.2-1.821,0.913-2.394C42.406,50.873,43.582,50.913,43.582,50.913z M40.361,54.813
		c-0.008,0.319-0.325,0.812-0.397,0.813c-0.071-0.002-0.261-0.542-0.254-0.86c0.012-0.322,0.238-0.438,0.309-0.436
		C40.093,54.332,40.374,54.494,40.361,54.813z M37.884,61.485c-1.083,0-1.933,3.46-1.869,3.016
		C36.015,64.501,38.237,62.845,37.884,61.485z M38.227,64.479l0.779-1.807C39.005,62.673,39.253,64.326,38.227,64.479L38.227,64.479
		z"/>
	<path fill="#FFFFFF" d="M38.535,69.429c1.208-0.101,1.614-0.697,1.126-1.395c-0.075-0.108-0.412-0.229-0.472-0.362
		c0.093-0.1,0.025-0.772-0.036-0.959c-0.074-0.273-0.526-0.401-0.611-0.597c-0.087-0.193-0.183-0.558-0.316-0.844
		c-1.042-2.198-1.918-0.252-1.125,0.112c-0.163-0.074,0.14-0.397,0.276-0.389c0.074,0.156-0.091,0.148,0.057,0.596
		c0.286,0.809,0.559,0.444,0.088,0.539c-0.717,0.331-1.454-1.102-2.081-1.071c-1.403,0.066-0.633,1.289-0.592,1.318
		c0.012-0.688,0.368-0.788,0.458-0.767c-0.085,0.403,0.221,0.566,0.64,0.66c0.413,0.096,0.507,0.577,0.504,0.588
		c-0.184,0.036-1.015,0.391-1.319,0.484c-1.128,0.339-0.835,1.339-0.796,1.295c0.002-0.231,0.387-0.567,0.735-0.601
		c0.18,0.048,0.272,0.357,0.735,0.184c0.602-0.23,0.499-0.432,0.819-0.466c0.399-0.045,0.497,0.332,0.809,0.212l1.016-0.168
		c0.272,0.171-0.018,0.075,0,0.445c0.022,0.442,0.419,0.412,0.479,0.532C38.931,68.777,39.054,68.994,38.535,69.429z"/>
	<path fill="#FFFFFF" d="M42.187,61.485c1.085,0,1.934,3.46,1.869,3.016C44.056,64.501,41.836,62.845,42.187,61.485z M41.542,63.917
		l-0.777-1.808C40.765,62.109,40.515,63.763,41.542,63.917z"/>
	<path fill="#FFFFFF" d="M41.538,69.429c-1.208-0.101-1.614-0.697-1.127-1.395c0.074-0.108,0.411-0.229,0.472-0.362
		c-0.093-0.1-0.025-0.772,0.036-0.959c0.073-0.273,0.525-0.401,0.611-0.597c0.087-0.193,0.183-0.558,0.313-0.844
		c1.043-2.198,1.919-0.252,1.126,0.112c0.162-0.074-0.141-0.397-0.274-0.389c-0.074,0.156,0.088,0.148-0.061,0.596
		c-0.286,0.809-0.558,0.444-0.086,0.539c0.716,0.331,1.451-1.102,2.08-1.071c1.404,0.066,0.634,1.289,0.592,1.318
		c-0.014-0.688-0.367-0.788-0.457-0.767c0.083,0.403-0.22,0.566-0.641,0.66c-0.414,0.096-0.506,0.577-0.504,0.588
		c0.183,0.036,1.015,0.391,1.32,0.484c1.129,0.339,0.835,1.339,0.796,1.295c-0.003-0.231-0.389-0.567-0.734-0.601
		c-0.177,0.048-0.271,0.357-0.734,0.184c-0.602-0.23-0.497-0.432-0.819-0.466c-0.398-0.045-0.496,0.332-0.811,0.212L41.62,67.8
		c-0.27,0.171,0.021,0.075,0,0.445c-0.021,0.442-0.417,0.412-0.478,0.532C41.143,68.777,41.021,68.994,41.538,69.429z"/>
	<path fill="#FFFFFF" d="M66.846,31.4c-0.033-0.002-7.767-0.508-14.51,1.934c-0.185,0.067-2.705,1.273-4.102,2.179v-0.862
		c0-0.099-0.023-0.262-0.133-0.431c0.084-0.138,0.133-0.299,0.133-0.468V32.54c0-0.464-0.239-1.242-1.835-1.242h-1.392
		c-0.578,0-1.024,0.102-1.338,0.302c-0.097-0.066-0.206-0.12-0.326-0.163c-0.243-0.094-0.573-0.14-1.04-0.14h-1.392
		c-0.392,0-0.727,0.056-1.019,0.173l-0.289,0.145c-0.101-0.073-0.215-0.133-0.344-0.176c-0.248-0.096-0.58-0.141-1.048-0.141H36.83
		c-0.39,0-0.737,0.059-1.032,0.174c-0.125,0.05-0.238,0.111-0.336,0.181l-0.321-0.165c-0.298-0.125-0.641-0.19-1.022-0.19h-2.569
		l1.256,2.061h0.35v3.143c-0.128-0.098-0.247-0.195-0.334-0.292c-0.361-0.393-4.834-2.778-5.085-2.875
		c-6.318-2.44-14.478-1.937-14.51-1.934l0.186,0.4c-0.172,0.695-0.654,2.493,1.213,3.162c-0.141,0.816-0.302,2.481,1.336,3.074
		l0.1,0.039c-0.003,0.816,0.421,2.362,2.581,3.198c0.197,1.078,0.918,3.098,3.58,3.793c0.159,1.406,0.696,3.774,4.146,4.283
		l0.171,0.377l0.347,0.054c0.613,1.245,1.19,3.173,2.208,4.262l0.136,0.144c0.825,0.846,1.568,2.172,2.686,2.646l0.118,0.053
		l0.204-0.03c0.648-0.378,2.285-1.324,2.852-1.591c0.25,0.518,0.352,0.612,0.446,1.209c-3.063,1.247-6.257,4.958-6.317,5.049
		c-0.27,0.399,0.224,1.567,2.445,1.919c0.298,0.489,1.023,1.058,2.227,0.975c0.178,0.177,0.561,0.224,0.89,0.381h0.818
		c-0.227-0.065-0.419-0.526-0.687-0.611l-0.145-0.339c0.093-0.591,0.899-1.454,1.29-3.291c0,0-2.413,3.297-2.308,3.417
		c-0.534-0.136-0.735-0.34-1.248-0.844l0.128-0.265c1.026-1.457,2.977-3.88,3.22-4.552c0,0-4.306,4.222-4.155,4.531
		c-0.498-0.265-1.108-0.451-1.471-1.251c0,0,3.776-3.947,5.515-4.648c0.017,0.164,0.308,1.186,0.274,1.313
		c0.041-0.116,0.492-0.679,0.506-0.895c0.127-0.38-0.083-1.682-0.34-2.561c-0.072-0.248-0.788-1.872-0.996-1.556
		c-0.021,0.033-0.306,1.195-0.306,1.195c-0.855,0.323-1.904,1.241-2.505,1.274c-0.396,0.022-0.857-0.76-1.965-2.01
		c0.595-1.593,1.475-3.488,3.407-6.629c-1.159,1.885-3.735,3.839-4.316,5.573c-0.783-0.91-1.169-1.543-1.963-3.005l0.173-0.301
		c0.224,0.013,0.46,0.017,0.711,0.015c0,0-0.257-0.024-0.66-0.115c1.586-2.839,2.751-4.406,6.469-6.415c0,0-5.929,1.17-7.303,5.637
		c-0.327-0.631-0.319-0.707-0.631-1.452l-0.077-0.203c-0.24-0.586-0.474-1.216-0.694-1.883c0,0,0.127,0.716,0.443,1.778l0.068,0.215
		c0.185,0.608,0.427,1.302,0.735,2.04c-1.422-0.495-2.91-1.481-3.63-3.955l0.359,0.068l-0.278-0.153
		c1.81-1.319,2.89-2.027,4.383-2.461c0.708,0.243,1.834,0.269,2.651,0.443c0,0-0.694-0.248-1.758-0.779
		c1.455-0.379,2.446-0.43,2.446-0.43c0.107-0.674-1.525-0.458-3.552-0.05c-0.402,0.08-1.63-1.023-3.05-2.15
		c2.002-0.28,3.382-0.211,3.382-0.211c0.712-0.62-1.606-0.553-3.946-0.206c-0.14,0.021-1.157-1.002-1.967-1.915
		c2.211-0.032,3.666,0.05,3.666,0.05c0.556-0.487-1.599-0.622-4.032-0.464c-0.586-0.674-0.598-0.853-1.333-1.887
		c0.168,0.236,2.108,0.048,2.108,0.048c0.515-0.451-0.733-0.617-2.468-0.604c-0.238-0.388-0.561-0.885-0.776-1.302
		c0,0-0.031,0.568,0.266,1.308c-1.584,0.024-3.191,0.12-4.164,0.341l-0.083-0.542c0,0-0.139,0.305-0.191,0.517l-0.017,0.003
		c-0.509-0.493-1.227-1.371-1.301-2.642c8.822,0.129,14.844,3.716,18.884,5.46c2.246,2.69,2.955,3.224,6.967,8.378
		c0,0,0.148-2.85-5.425-8.724h2.06v-0.952l0.586,0.949h1.66c0.383,0,0.721-0.061,1.028-0.187c0.528-0.211,0.723-0.539,0.789-0.805
		l0.606,0.994h1.667c0.382,0,0.727-0.064,1.019-0.188c0.13-0.05,0.243-0.11,0.345-0.18l0.322,0.165
		c0.305,0.134,0.646,0.203,1.017,0.203h1.154c-5.573,5.876-5.425,8.724-5.425,8.724c4.014-5.153,4.72-5.688,6.967-8.377
		c4.04-1.744,10.06-5.332,18.882-5.457c-0.071,1.271-0.792,2.148-1.301,2.641l-0.018-0.003c-0.055-0.211-0.191-0.517-0.191-0.517
		l-0.083,0.542c-0.969-0.222-2.579-0.316-4.163-0.342c0.297-0.739,0.265-1.307,0.265-1.307c-0.214,0.417-0.54,0.914-0.775,1.302
		c-1.735-0.015-2.983,0.152-2.469,0.604c0,0,1.94,0.188,2.108-0.048c-0.732,1.034-0.746,1.213-1.333,1.887
		c-2.431-0.159-4.584-0.023-4.032,0.463c0,0,1.457-0.082,3.668-0.049c-0.813,0.913-1.826,1.935-1.967,1.915
		c-2.34-0.347-4.659-0.413-3.946,0.206c0,0,1.382-0.069,3.383,0.21c-1.422,1.125-2.649,2.23-3.051,2.15
		c-2.026-0.407-3.66-0.624-3.553,0.05c0,0,0.992,0.053,2.447,0.429c-1.063,0.535-1.757,0.78-1.757,0.78
		c0.815-0.173,1.943-0.197,2.649-0.444c1.491,0.435,2.573,1.145,4.384,2.463l-0.278,0.153l0.358-0.068
		c-0.717,2.472-2.208,3.458-3.629,3.954c0.306-0.737,0.549-1.433,0.734-2.039l0.068-0.216c0.314-1.063,0.443-1.778,0.443-1.778
		c-0.222,0.666-0.455,1.295-0.694,1.884l-0.078,0.201c-0.309,0.747-0.304,0.822-0.629,1.454c-1.377-4.471-7.304-5.638-7.304-5.638
		c3.719,2.011,4.885,3.573,6.47,6.416c-0.403,0.091-0.661,0.113-0.661,0.113c0.253,0.004,0.486,0,0.71-0.012l0.173,0.302
		c-0.793,1.459-1.182,2.091-1.963,3.004c-0.583-1.736-3.158-3.69-4.316-5.575c1.934,3.141,2.811,5.035,3.407,6.628
		c-1.105,1.251-1.57,2.032-1.966,2.011c-0.597-0.032-1.65-0.951-2.504-1.274c0,0-0.286-1.161-0.306-1.194
		c-0.207-0.319-0.924,1.308-0.996,1.554c-0.258,0.881-0.488,2.016-0.361,2.394c0.016,0.217,0.465,0.781,0.505,0.896
		c-0.033-0.125,0.28-0.983,0.296-1.146c1.74,0.699,5.517,4.647,5.517,4.647c-0.36,0.799-0.972,0.989-1.47,1.25
		c0.148-0.31-4.156-4.527-4.156-4.527c0.244,0.668,2.193,3.092,3.221,4.552l0.128,0.265c-0.516,0.501-0.718,0.705-1.248,0.84
		c0.104-0.12-2.309-3.415-2.309-3.415c0.39,1.838,1.194,2.696,1.289,3.289l-0.146,0.341c-0.268,0.083-0.46,0.544-0.688,0.608h0.819
		c0.329-0.153,0.712-0.203,0.89-0.38c1.201,0.086,1.929-0.487,2.226-0.975c2.224-0.354,2.718-1.516,2.447-1.918
		c-0.062-0.092-3.255-3.803-6.318-5.052c0.095-0.597,0.198-0.689,0.449-1.209c0.564,0.269,2.202,1.213,2.851,1.593l0.205,0.03
		l0.117-0.053c1.119-0.475,1.861-1.801,2.686-2.644l0.137-0.142c1.018-1.092,1.594-3.021,2.209-4.265l0.347-0.056l0.172-0.377
		c3.448-0.506,3.985-2.877,4.144-4.283c2.663-0.695,3.385-2.715,3.583-3.793c2.16-0.837,2.582-2.381,2.579-3.198l0.102-0.039
		c1.638-0.593,1.476-2.258,1.339-3.074c1.866-0.669,1.381-2.466,1.213-3.161L66.846,31.4L66.846,31.4z M26.158,42.019
		c-1.753,0.595-2.09,0.844-3.411,2.201l-0.176-0.032c-0.07-0.261-0.178-0.328-0.219-0.632c0,0-0.125,0.271-0.089,0.722
		c-0.858-0.539-2.185-1.284-3.036-3.008l0.36,0.022c0,0-0.074-0.275-0.25-0.228c1.673-0.458,2.821-1.01,4.104-1.268
		C24.592,40.765,24.881,41.341,26.158,42.019z M22.921,39.356c-1.485,0.352-2.841,0.774-3.92,1.254l0.003-0.44
		c0,0-0.288,0.248-0.251,0.516c-0.693-0.597-1.569-1.247-1.982-2.418l0.575-0.023l-0.292-0.212l-0.141-0.073
		c2.137-0.337,2.759-0.657,4.095-0.734C21.593,38.073,21.931,38.51,22.921,39.356z M19.447,34.815c0.265,0.634,0.661,1.138,1.242,2
		c-1.572,0.14-3.162,0.397-4.124,0.755l-0.037-0.226l-0.042,0.25l-0.091,0.039c-0.485-0.477-1.074-1.125-1.194-2.323l0.458,0.006
		c0,0-0.325-0.181-0.493-0.335l-0.002-0.045C17.379,35.048,18.093,34.831,19.447,34.815z M45.008,36.815
		c-0.311,0-0.622-0.055-0.906-0.182c-0.2-0.078-0.34-0.172-0.439-0.27c-0.099,0.104-0.24,0.203-0.446,0.282
		c-0.27,0.116-0.578,0.168-0.913,0.168h-1.504l-0.902-1.478h1.735v-0.404H40.91c-0.193,0-0.398-0.025-0.587-0.068
		c-0.209-0.053-0.399-0.128-0.558-0.235v1.235c0,0.242-0.113,0.576-0.633,0.782c-0.281,0.116-0.585,0.168-0.922,0.168h-1.496
		l-0.913-1.478h1.734v-0.404h-0.709c-0.207,0-0.408-0.025-0.585-0.068c-0.219-0.053-0.41-0.126-0.568-0.235v2.185H33.44v-3.747
		h-0.478l-0.902-1.479h2.054c0.336,0,0.64,0.055,0.908,0.167c0.201,0.078,0.343,0.174,0.441,0.275
		c0.096-0.107,0.235-0.207,0.438-0.289c0.267-0.104,0.581-0.153,0.924-0.153h1.382c0.411,0,0.724,0.036,0.943,0.123
		c0.202,0.07,0.337,0.171,0.431,0.285c0.095-0.094,0.229-0.182,0.412-0.254c0.265-0.104,0.569-0.153,0.915-0.153h1.391
		c0.411,0,0.727,0.036,0.938,0.123c0.191,0.066,0.327,0.159,0.422,0.265c0.211-0.223,0.616-0.388,1.341-0.388h1.392
		c1.272,0,1.546,0.513,1.546,0.951v1.213c0,0.188-0.085,0.352-0.233,0.472c0.184,0.145,0.233,0.307,0.233,0.427v1.213
		c0,0.427-0.26,0.921-1.444,0.949l-0.102,0.002H45.008z M57.812,44.275c0.036-0.448-0.09-0.722-0.09-0.722
		c-0.041,0.304-0.15,0.37-0.219,0.634l-0.176,0.031c-1.324-1.357-1.66-1.605-3.412-2.201c1.278-0.68,1.568-1.255,2.72-2.225
		c1.282,0.258,2.429,0.809,4.102,1.268c-0.173-0.048-0.249,0.227-0.249,0.227l0.359-0.021C59.995,42.99,58.67,43.734,57.812,44.275z
		 M61.318,40.688c0.037-0.27-0.253-0.517-0.253-0.517l0.004,0.44c-1.076-0.48-2.432-0.902-3.918-1.254
		c0.99-0.844,1.326-1.283,1.912-2.13c1.336,0.077,1.959,0.397,4.097,0.734l-0.142,0.073l-0.293,0.213l0.577,0.022
		C62.89,39.439,62.014,40.091,61.318,40.688z M64.908,34.982c-0.17,0.155-0.495,0.335-0.495,0.335l0.458-0.006
		c-0.117,1.197-0.709,1.846-1.193,2.323l-0.092-0.039l-0.041-0.25l-0.036,0.225c-0.962-0.358-2.553-0.615-4.125-0.755
		c0.58-0.861,0.977-1.364,1.243-2c1.354,0.015,2.067,0.233,4.284,0.122L64.908,34.982z M39.359,32.54v-0.014
		c-0.005-0.215-0.106-0.348-0.338-0.434c-0.179-0.068-0.446-0.097-0.805-0.097h-1.384c-0.298,0-0.555,0.048-0.778,0.126
		c-0.338,0.132-0.375,0.304-0.375,0.419V34c0,0.035,0,0.143,0.208,0.281c0.123,0.088,0.272,0.146,0.45,0.193
		c0.161,0.038,0.317,0.057,0.493,0.057h1.123v1.214h-1.42l0.411,0.67h1.27c0.277,0,0.532-0.054,0.761-0.152
		c0.384-0.146,0.384-0.323,0.384-0.396v-1.85L39.358,34L39.359,32.54L39.359,32.54z M37.955,33.876h-0.859v-1.215h0.857
		L37.955,33.876L37.955,33.876z M34.879,32.134c-0.227-0.087-0.48-0.14-0.758-0.14h-1.324l0.404,0.667h0.662v3.751h1.402V32.54
		C35.264,32.468,35.264,32.29,34.879,32.134z M43.103,32.09c-0.168-0.067-0.435-0.097-0.797-0.097h-1.392
		c-0.287,0-0.544,0.048-0.768,0.127c-0.34,0.132-0.376,0.304-0.376,0.419v1.459c0,0.035,0,0.143,0.21,0.281
		c0.12,0.088,0.272,0.146,0.446,0.193c0.164,0.038,0.324,0.057,0.488,0.057h1.135v1.214h-1.422l0.404,0.669h1.274
		c0.277,0,0.535-0.054,0.766-0.152c0.38-0.146,0.38-0.323,0.38-0.396V32.54C43.449,32.315,43.344,32.179,43.103,32.09z
		 M42.049,33.876h-0.865v-1.215h0.865V33.876z M47.139,36.32c0.266-0.088,0.356-0.221,0.383-0.328l0.017-0.128v-1.213
		c0-0.017,0-0.063-0.114-0.139c-0.076-0.064-0.168-0.096-0.27-0.109L47.18,34c0.102,0,0.191-0.035,0.266-0.089
		c0.067-0.04,0.091-0.093,0.091-0.159v-1.213c0-0.133,0-0.546-1.137-0.546h-1.392c-1.144,0-1.144,0.413-1.144,0.546v1.213
		c0,0.047,0.01,0.106,0.097,0.157c0.064,0.044,0.162,0.081,0.277,0.091l0.007,0.403c-0.11,0.013-0.198,0.044-0.273,0.105
		c-0.107,0.074-0.107,0.123-0.107,0.143v1.213c0,0.063,0,0.234,0.39,0.392c0.24,0.1,0.492,0.156,0.754,0.156h1.392
		C46.735,36.411,46.971,36.375,47.139,36.32z M46.135,35.743h-0.87v-1.214h0.87V35.743z M46.135,33.876h-0.87v-1.215h0.87V33.876z"
		/>
</g>
<g>
	<path fill="#FFFFFF" d="M23.389,17.832H14.82v11.604h8.569c0.602,0,1.177-0.053,1.732-0.172c0.615-0.112,1.147-0.291,1.601-0.528
		c0.448-0.247,0.726-0.512,0.84-0.794v-8.712C27.271,18.295,25.883,17.832,23.389,17.832z M24.093,26.516
		c-0.32,0.317-0.878,0.334-0.997,0.334h-3.587v-6.454h3.507l0.234-0.005c0.27,0,0.694,0.023,0.842,0.166
		c0.213,0.222,0.164,1.081,0.164,1.081v3.983C24.258,25.621,24.282,26.325,24.093,26.516z M34.643,21.643h5.885v-0.55h-5.885V21.643
		z M28.259,19.124v10.312h5.687v-4.529h4.126l1.656-2.565h-5.781v-1.945h6.582v-0.774l0.021-0.285v-1.506h-12.29v1.292H28.259z
		 M23.251,21.086l-0.19,0.004l-0.023,0.001h-2.832v5.061h2.89c0.16,0,0.337-0.037,0.44-0.087c0.018-0.106,0.029-0.282,0.025-0.42
		v-4.027l0.001-0.021c0.009-0.146,0.003-0.349-0.013-0.498L23.251,21.086z M23.214,21.578l-0.002,4.043l0.001,0.036l-0.001,0.14
		l-0.109,0.008l-0.039-0.001l-2.508,0.001v-4.363h2.461l0.065-0.003l0.136-0.004L23.214,21.578z M61.335,21.093h-2.187l-0.07,0.003
		l0.003,0.041l0.012,0.049v4.724l0.001,0.02l-0.001,0.023l0.005,0.201l0.151,0.007l0.116-0.003l0.027-0.003h1.816l0.024-0.002
		l0.037,0.005h0.013l0.137-0.017l0.017-0.219v-4.609l-0.002-0.031l0.006-0.047l0.004-0.135L61.335,21.093z M61.087,25.805h-1.647
		v-4.363h1.647V25.805z M65.513,17.317c-0.84-0.356-2.006-0.531-3.563-0.531h-4.346c-0.572,0-1.087,0.022-1.554,0.069l0.044-0.069
		H45.463c-1.098,0-2.09,0.138-2.951,0.407c-0.342,0.101-0.646,0.221-0.915,0.36v-0.768H27.214v0.642l-0.244-0.112
		c-0.842-0.355-2.014-0.53-3.582-0.53h-9.614v13.694h9.614c0.697,0,1.333-0.063,1.933-0.19c0.702-0.131,1.336-0.341,1.893-0.632
		v0.823h7.775v-4.529h3.651l1.541-2.384v4.077c0,0.774,0.409,1.821,2.356,2.405c0.904,0.289,1.859,0.431,2.928,0.431h5.962
		l1.174-1.824c0.302,0.512,0.902,1.039,2.063,1.392c0.884,0.287,1.873,0.431,2.942,0.431h4.344c1.122,0,2.117-0.127,2.954-0.381
		c2.001-0.612,2.303-1.801,2.303-2.455v-8.021C67.206,19.029,66.986,17.94,65.513,17.317L65.513,17.317z M66.856,27.644
		c0,0.681-0.357,1.602-2.055,2.122c-0.805,0.243-1.765,0.366-2.853,0.366h-4.346c-1.031,0-1.985-0.139-2.835-0.414
		c-1.537-0.467-1.994-1.223-2.081-1.845l-1.247,1.939l-0.207,0.319h-5.771c-1.031,0-1.952-0.135-2.821-0.414
		c-1.749-0.525-2.115-1.417-2.115-2.074v-5.258l-0.215,0.331l-1.658,2.565l-0.205,0.319h-3.806v4.529h-7.081v-1.117
		c-0.147,0.117-0.313,0.226-0.502,0.329l-0.007,0.004l-0.007,0.005c-0.52,0.27-1.12,0.47-1.788,0.593
		c-0.585,0.124-1.196,0.185-1.869,0.185h-9.266V17.133h9.266c1.52,0,2.648,0.164,3.448,0.501c0.295,0.125,0.533,0.27,0.727,0.424
		v-0.927h13.683v1.059c0.311-0.254,0.75-0.486,1.363-0.666c0.832-0.262,1.792-0.393,2.854-0.393h9.994l-0.112,0.169
		c0.633-0.113,1.377-0.169,2.259-0.169h4.345c1.509,0,2.631,0.164,3.428,0.501c1.222,0.519,1.479,1.365,1.479,1.985v8.025H66.856z
		 M61.949,17.832h-4.346c-1.183,0-2.115,0.106-2.803,0.316c-0.95,0.29-1.43,0.779-1.43,1.475v8.021c0,0.607,0.536,1.083,1.608,1.408
		c0.792,0.257,1.671,0.382,2.624,0.382h4.346c1.022,0,1.909-0.112,2.649-0.337c1.038-0.316,1.56-0.799,1.56-1.454v-8.022
		C66.158,18.427,64.752,17.832,61.949,17.832z M61.962,26.608c-0.209,0.218-0.538,0.245-0.68,0.245l-0.071-0.002h-1.788
		l-0.172,0.006c-0.208,0-0.539-0.025-0.683-0.175c-0.206-0.205-0.167-0.773-0.167-0.773v-4.642c0,0-0.09-0.452,0.167-0.709
		c0.151-0.149,0.49-0.161,0.585-0.161h2.184c0.043,0,0.468,0.003,0.631,0.161c0.23,0.235,0.166,0.754,0.166,0.754v4.598
		C62.13,25.908,62.138,26.44,61.962,26.608L61.962,26.608z M45.463,17.832c-0.984,0-1.873,0.119-2.649,0.362
		c-0.938,0.276-1.459,0.68-1.567,1.215v1.683h-0.023v6.551c0,0.607,0.543,1.083,1.628,1.408c0.8,0.257,1.665,0.382,2.612,0.382h5.39
		l1.664-2.584h-5.605v-6.454h5.605l0.155-0.24V19.62c0-0.547,0.203-1.272,1.099-1.791h-8.308V17.832L45.463,17.832z M47.608,21.093
		v5.061h5.066v-5.061H47.608z M52.325,25.805h-4.37v-4.363h4.37V25.805z"/>
</g>
</svg>
