<?xml version="1.0" encoding="utf-8"?>
<!-- Generator: Adobe Illustrator 16.0.0, SVG Export Plug-In . SVG Version: 6.00 Build 0)  -->
<!DOCTYPE svg PUBLIC "-//W3C//DTD SVG 1.1//EN" "http://www.w3.org/Graphics/SVG/1.1/DTD/svg11.dtd">
<svg version="1.1" id="Calque_2" xmlns="http://www.w3.org/2000/svg" xmlns:xlink="http://www.w3.org/1999/xlink" x="0px" y="0px"
	 width="80px" height="80px" viewBox="0 0 80 80" enable-background="new 0 0 80 80" xml:space="preserve">
<g>
	<path fill="#FFFDFF" d="M69.85,33.57c0-1.52,0-3.03,0-4.55c0-0.04,0-0.08,0-0.12c0-1.59,0-3.19,0-4.78c0-0.11-0.02-0.14-0.14-0.14
		c-12.18,0-24.36,0-36.53,0c-0.04,0-0.08,0-0.12,0c-0.04,0-0.07,0-0.11,0c-6.52,0-13.04,0-19.56,0c-0.12,0-0.14,0.04-0.14,0.15
		c0,6.66,0,13.32,0,19.98c0,0.04,0,0.09,0,0.14c0,0.03,0,0.06,0,0.09c0,1.96,0,3.92,0,5.88c0,0.03,0,0.05,0,0.08
		c0,0.02,0,0.04,0,0.05c0,2.25,0,4.51,0,6.76c0,0.17,0,0.17,0.18,0.17h56.26c0.02,0,0.05,0,0.07,0c0.08,0.01,0.11-0.02,0.11-0.1
		c0-2.29,0-4.59,0-6.88c0-0.03,0-0.05,0-0.08c0-1.96,0-3.92,0-5.88c0-0.03,0-0.06,0-0.09c0-1.78,0-3.56,0-5.34c0-0.03,0-0.05,0-0.08
		c0-1.73,0-3.45,0-5.18C69.85,33.62,69.85,33.6,69.85,33.57"/>
	<path fill="#E20517" d="M69.85,38.91c0,1.78,0,3.56,0,5.34c-0.05,0-0.1,0-0.16,0c-18.76,0-37.52,0-56.28,0c-0.05,0-0.11,0-0.16,0
		c0-0.04,0-0.09,0-0.14c0-6.66,0-13.32,0-19.98c0-0.11,0.02-0.15,0.14-0.15c6.52,0,13.04,0,19.56,0c0.04,0,0.07,0,0.11,0
		c0,1.65,0,3.29,0,4.94c0,0.1,0.04,0.11,0.12,0.11c0.88,0,1.76,0,2.63,0c0,0.04,0,0.08,0,0.12c0,1.37,0,2.74,0,4.12
		c0,0.1,0,0.2,0,0.3c-0.88,0-1.75,0-2.63,0c-0.09,0-0.12,0.03-0.12,0.12c0,1.7,0,3.4,0,5.11c0,0.09,0.02,0.12,0.12,0.12
		c0.88,0,1.76,0,2.63,0c0,0.86,0,1.72,0,2.57c0,0.1,0.03,0.13,0.13,0.13c2.49,0,4.98,0,7.48,0c0.01,0,0.03,0,0.05,0
		c0.07,0.01,0.09-0.02,0.09-0.09c0-0.16,0-0.32,0-0.47c0-0.71,0-1.42,0-2.14c0.54,0,1.08,0,1.63,0c0,0.01,0,0.03-0.01,0.04
		c-0.23,0.85-0.46,1.7-0.69,2.54c-0.03,0.09-0.01,0.11,0.08,0.11c0.87,0,1.73,0,2.6,0c0.08,0,0.11-0.03,0.13-0.1
		c0.23-0.83,0.45-1.66,0.68-2.49c0.02-0.08,0.06-0.11,0.14-0.11c1.6,0,3.21,0,4.81,0c0.09,0,0.13,0.03,0.15,0.12
		c0.23,0.83,0.46,1.65,0.68,2.48c0.02,0.08,0.06,0.11,0.14,0.11c0.85,0,1.71,0,2.57,0c0.13,0,0.15,0.03,0.1-0.14
		c-0.01-0.05-0.03-0.09-0.04-0.14c-0.22-0.81-0.43-1.61-0.65-2.42c0.45,0,0.9,0,1.34,0c0.03,0.4,0.11,0.79,0.3,1.15
		c0.55,1.02,1.41,1.54,2.56,1.56c1.32,0.01,2.63,0,3.95,0c0.13,0,0.25,0,0.38-0.02c1.06-0.12,1.83-0.66,2.31-1.62
		c0.17-0.34,0.24-0.71,0.27-1.08c0.73,0,1.45,0,2.18,0C69.38,38.91,69.62,38.91,69.85,38.91 M23.29,26.21
		c-0.39-0.01-0.86,0.04-1.33,0.13c-1.83,0.35-3.37,1.22-4.56,2.65c-1.56,1.86-2.13,4.01-1.71,6.4c0.3,1.71,1.11,3.15,2.39,4.31
		c1.68,1.53,3.67,2.2,5.94,2.04c1.09-0.08,2.13-0.36,3.08-0.9c2.5-1.41,3.89-3.54,4.12-6.41c0.07-0.92-0.05-1.82-0.32-2.71
		C29.89,28.45,26.84,26.2,23.29,26.21"/>
	<path fill="#E20517" d="M69.85,50.29c0,2.29,0,4.59,0,6.88c0,0.09-0.03,0.12-0.11,0.1c-0.02,0-0.04,0-0.07,0H13.42
		c-0.18,0-0.18,0-0.18-0.17c0-2.25,0-4.51,0-6.76c0-0.02,0-0.04,0-0.05c0.05,0,0.1,0,0.15,0c18.77,0,37.54,0,56.31,0
		C69.75,50.3,69.8,50.29,69.85,50.29 M53.83,54.21c-0.01-0.23,0.02-0.5-0.02-0.77c-0.03-0.24-0.16-0.41-0.4-0.45
		c-0.44-0.09-0.86-0.08-1.2,0.27c-0.04,0.04-0.09,0.05-0.12-0.01c-0.11-0.21-0.31-0.28-0.52-0.3c-0.32-0.03-0.62-0.01-0.89,0.2
		c-0.04,0.03-0.07,0.09-0.13,0.05c-0.06-0.03-0.03-0.09-0.03-0.13c0-0.06-0.02-0.12-0.09-0.11c-0.33,0.05-0.67,0.05-1,0.04
		c-0.03,0-0.06-0.01-0.07,0.04c0,0.04,0.02,0.05,0.06,0.05c0.23,0.04,0.29,0.11,0.29,0.34c0,0.48,0,0.97,0,1.45
		c0,0.2-0.06,0.26-0.26,0.29c-0.04,0.01-0.09-0.02-0.09,0.05c0,0.07,0.06,0.04,0.1,0.04c0.37-0.01,0.73-0.03,1.1,0
		c0.06,0,0.11,0,0.17,0c0.03,0,0.05,0,0.05-0.04c0-0.03-0.01-0.04-0.04-0.05c-0.2-0.06-0.22-0.09-0.22-0.3c0-0.41,0-0.82,0-1.24
		c0-0.25,0.17-0.45,0.41-0.5c0.29-0.06,0.42,0.04,0.42,0.33c0,0.15,0,0.31,0,0.46c0,0.33,0,0.65,0,0.98c0,0.17-0.05,0.23-0.19,0.27
		c-0.03,0.01-0.08-0.01-0.08,0.05c0,0.07,0.06,0.04,0.09,0.04c0.4-0.02,0.8-0.02,1.2,0c0.02,0,0.03,0,0.04,0
		c0.03,0,0.05-0.01,0.05-0.04c0-0.03-0.01-0.04-0.05-0.05c-0.25-0.06-0.28-0.09-0.28-0.34c0-0.39,0-0.78,0-1.17
		c0-0.25,0.16-0.47,0.4-0.52c0.3-0.06,0.46,0.02,0.46,0.26c0.01,0.52,0.01,1.04,0,1.55c0,0.13-0.06,0.19-0.18,0.22
		c-0.04,0.01-0.08,0-0.07,0.06c0.01,0.06,0.05,0.04,0.08,0.04c0.42-0.02,0.84-0.02,1.26,0c0.03,0,0.08,0.02,0.08-0.04
		s-0.05-0.05-0.08-0.05c-0.21-0.03-0.27-0.1-0.28-0.31C53.83,54.67,53.83,54.46,53.83,54.21 M40.62,54.96c0,0.09,0,0.14,0,0.19
		c0,0.17,0,0.18,0.18,0.16c0.29-0.04,0.58-0.05,0.88-0.03c0.03,0,0.09,0.04,0.1-0.03c0.01-0.07-0.05-0.05-0.09-0.06
		c-0.17-0.03-0.23-0.09-0.26-0.26c-0.01-0.06-0.01-0.12-0.01-0.18c0-0.9,0-1.79,0-2.69c0-0.04,0-0.08,0-0.12
		c0-0.07-0.04-0.1-0.1-0.08c-0.32,0.05-0.65,0.04-0.98,0.04c-0.03,0-0.07-0.02-0.08,0.04c0,0.05,0.03,0.05,0.07,0.05
		c0.19,0.03,0.26,0.09,0.28,0.29c0.02,0.21,0.01,0.43,0.01,0.64c0,0.15-0.02,0.16-0.16,0.11c-0.44-0.14-0.86-0.11-1.25,0.15
		c-0.37,0.25-0.46,0.63-0.45,1.05c0.03,0.8,0.55,1.23,1.33,1.12C40.32,55.3,40.49,55.18,40.62,54.96 M26.52,54.74
		c-0.01,0-0.01,0-0.02,0c0-0.15,0-0.31,0-0.46c0-0.04,0.03-0.09-0.05-0.1c-0.07-0.01-0.08,0.03-0.09,0.09
		c-0.04,0.22-0.06,0.45-0.23,0.62c-0.48,0.49-1.48,0.55-1.82-0.31c-0.23-0.58-0.22-1.17,0.01-1.74c0.11-0.27,0.3-0.47,0.58-0.57
		c0.52-0.17,1.37,0.05,1.45,0.82c0,0.02,0.01,0.04,0.01,0.05c0,0.06,0.02,0.09,0.09,0.08c0.08,0,0.05-0.06,0.05-0.1
		c0-0.29,0-0.58,0.02-0.88c0-0.04,0.03-0.09-0.05-0.1c-0.07,0-0.08,0.03-0.09,0.09c-0.04,0.19-0.1,0.22-0.27,0.12
		c-0.29-0.17-0.59-0.26-0.93-0.26c-0.49-0.01-0.95,0.09-1.36,0.37c-0.89,0.6-0.87,1.98-0.04,2.51c0.68,0.43,1.42,0.5,2.18,0.18
		c0.08-0.03,0.15-0.08,0.22-0.11c0.11-0.05,0.16-0.02,0.2,0.09c0.01,0.03,0.02,0.06,0.02,0.09c0,0.06,0.04,0.06,0.08,0.06
		c0.06,0,0.05-0.04,0.05-0.08C26.52,55.05,26.52,54.9,26.52,54.74 M45.83,55.28L45.83,55.28c0.26,0,0.52,0,0.78,0
		c0.03,0,0.07,0.02,0.07-0.03c0-0.03,0-0.05-0.04-0.06c-0.17-0.04-0.25-0.17-0.32-0.31c-0.4-0.83-0.81-1.65-1.21-2.48
		c-0.09-0.19-0.18-0.27-0.39-0.25c-0.09,0.01-0.14,0.04-0.18,0.12c-0.19,0.4-0.39,0.81-0.59,1.21c-0.21,0.42-0.42,0.85-0.62,1.27
		c-0.1,0.19-0.21,0.38-0.43,0.44c-0.04,0.01-0.04,0.03-0.04,0.06c0,0.04,0.04,0.03,0.06,0.03c0.16,0,0.32-0.01,0.47-0.01
		c0.16,0,0.33,0.01,0.5,0.01c0.03,0,0.08,0.03,0.09-0.04c0-0.06-0.04-0.05-0.08-0.05c-0.04-0.01-0.08-0.01-0.12-0.02
		c-0.26-0.05-0.33-0.16-0.27-0.41c0.05-0.22,0.16-0.41,0.25-0.61c0.03-0.06,0.08-0.05,0.13-0.05c0.34,0,0.67,0,1.01,0
		c0.08,0,0.11,0.03,0.14,0.1c0.09,0.21,0.19,0.41,0.28,0.61c0.13,0.29,0.09,0.36-0.23,0.38c-0.03,0-0.08-0.02-0.08,0.04
		c0,0.07,0.06,0.04,0.09,0.04C45.34,55.28,45.59,55.28,45.83,55.28 M55.82,52.95c-0.15,0-0.31,0.01-0.46,0.05
		c-0.45,0.1-0.77,0.34-0.87,0.81c-0.03,0.16-0.04,0.33-0.03,0.49c0.04,0.52,0.32,0.86,0.82,0.99c0.36,0.09,0.71,0.09,1.07,0
		c0.39-0.1,0.67-0.32,0.78-0.73c0.04-0.15,0.05-0.31,0.05-0.47c-0.02-0.6-0.3-0.95-0.87-1.09C56.15,52.96,55.99,52.94,55.82,52.95
		 M28.36,55.35c0.19,0,0.34-0.01,0.48-0.04c0.42-0.09,0.74-0.3,0.86-0.74c0.05-0.17,0.06-0.35,0.05-0.52
		c-0.03-0.57-0.3-0.9-0.85-1.04c-0.36-0.09-0.71-0.08-1.07,0.01c-0.41,0.12-0.69,0.37-0.77,0.8c-0.03,0.15-0.04,0.31-0.02,0.46
		c0.04,0.55,0.31,0.87,0.84,1.01C28.05,55.33,28.22,55.34,28.36,55.35 M33.73,53.92c0.22,0,0.44,0,0.66,0
		c0.06,0,0.12-0.01,0.11-0.09c-0.02-0.31-0.12-0.65-0.51-0.8c-0.21-0.08-0.43-0.1-0.65-0.08c-0.73,0.04-1.17,0.42-1.23,1.1
		c-0.05,0.6,0.21,1.09,0.83,1.24c0.1,0.03,0.21,0.04,0.31,0.05c0.52,0.05,0.99-0.19,1.2-0.59c0.01-0.03,0.06-0.06,0.02-0.09
		c-0.04-0.03-0.08-0.02-0.11,0.03c-0.07,0.09-0.17,0.16-0.27,0.21c-0.47,0.23-0.97,0.03-1.1-0.44c-0.04-0.14-0.04-0.28-0.04-0.42
		c0-0.09,0.04-0.12,0.12-0.12C33.29,53.92,33.51,53.92,33.73,53.92 M34.96,54.88c0,0-0.01,0-0.01,0c0,0.12,0,0.24,0,0.36
		c0,0.03-0.02,0.07,0.04,0.08c0.04,0,0.07,0.01,0.09-0.04c0.04-0.12,0.12-0.12,0.22-0.08c0.18,0.07,0.35,0.14,0.55,0.15
		c0.33,0.02,0.65-0.02,0.93-0.2c0.33-0.21,0.37-0.57,0.1-0.85c-0.06-0.07-0.14-0.13-0.22-0.18C36.5,54,36.32,53.9,36.15,53.8
		c-0.12-0.07-0.25-0.14-0.35-0.25c-0.17-0.18-0.11-0.42,0.12-0.49c0.26-0.08,0.55,0.03,0.71,0.25c0.07,0.11,0.12,0.22,0.15,0.35
		c0.01,0.06,0.04,0.07,0.09,0.07c0.06,0,0.04-0.05,0.04-0.08c0-0.2,0-0.4,0.02-0.61c0-0.03,0.03-0.08-0.03-0.09
		c-0.05-0.01-0.08,0-0.1,0.06c-0.03,0.1-0.1,0.12-0.2,0.08c-0.15-0.08-0.32-0.12-0.48-0.13c-0.3-0.03-0.6,0-0.87,0.15
		c-0.31,0.18-0.37,0.54-0.13,0.81c0.07,0.08,0.14,0.14,0.23,0.2c0.2,0.13,0.39,0.26,0.59,0.39c0.09,0.06,0.17,0.13,0.23,0.21
		c0.14,0.22,0.04,0.46-0.21,0.51c-0.28,0.06-0.55-0.06-0.7-0.31c-0.08-0.13-0.12-0.28-0.15-0.43c-0.01-0.05-0.03-0.06-0.07-0.06
		c-0.06,0-0.06,0.03-0.06,0.07C34.96,54.63,34.96,54.75,34.96,54.88 M48.58,53.1c-0.06,0.05-0.12,0.09-0.16,0.14
		c-0.1,0.13-0.09,0.3,0.02,0.39c0.16,0.13,0.5,0.12,0.65-0.03c0.08-0.08,0.12-0.19,0.09-0.31c-0.04-0.2-0.2-0.33-0.44-0.34
		c-0.26-0.02-0.49,0.06-0.68,0.24c-0.03,0.03-0.05,0.06-0.1,0.03c-0.04-0.02-0.04-0.05-0.04-0.09c0-0.02,0-0.04,0-0.06
		c0-0.09-0.04-0.12-0.13-0.11c-0.14,0.02-0.28,0.03-0.41,0.04c-0.18,0.01-0.37,0-0.55,0c-0.03,0-0.06-0.01-0.07,0.04
		c0,0.03,0.01,0.04,0.04,0.05c0.28,0.08,0.31,0.12,0.31,0.41c0,0.45,0,0.89,0,1.34c0,0.26-0.04,0.3-0.3,0.34
		c-0.03,0.01-0.06,0-0.06,0.05s0.03,0.05,0.06,0.04c0.03,0,0.05,0,0.08,0c0.38-0.01,0.76-0.03,1.15,0c0.1,0,0.2,0.01,0.29,0
		c0.04,0,0.1,0.04,0.1-0.04c0-0.07-0.06-0.04-0.09-0.05c-0.07-0.01-0.14-0.02-0.21-0.04c-0.15-0.04-0.21-0.13-0.22-0.28
		c0-0.42-0.01-0.83,0-1.25C47.95,53.33,48.26,53.07,48.58,53.1 M59.32,53.09c-0.05,0.05-0.09,0.08-0.13,0.12
		c-0.17,0.19-0.1,0.42,0.14,0.49c0.07,0.02,0.15,0.02,0.22,0.02c0.22-0.01,0.37-0.14,0.38-0.32c0.02-0.21-0.1-0.38-0.32-0.42
		c-0.3-0.07-0.56,0.01-0.79,0.21c-0.03,0.03-0.05,0.07-0.11,0.04c-0.04-0.02-0.04-0.07-0.04-0.11c0-0.15,0-0.15-0.16-0.13
		c-0.02,0-0.04,0-0.06,0c-0.29,0.03-0.58,0.03-0.87,0.02c-0.03,0-0.07-0.01-0.07,0.04c0,0.04,0.03,0.04,0.06,0.05
		c0.22,0.03,0.29,0.11,0.29,0.35c0,0.48,0,0.97,0,1.45c0,0.2-0.07,0.27-0.27,0.29c-0.03,0-0.09-0.02-0.09,0.05
		c0,0.07,0.06,0.04,0.09,0.04c0.48-0.02,0.97-0.02,1.45,0c0.04,0,0.12,0.04,0.13-0.03c0.01-0.1-0.08-0.05-0.13-0.06
		c-0.29-0.04-0.39-0.12-0.39-0.36c0-0.39-0.01-0.77,0-1.16C58.69,53.34,58.97,53.08,59.32,53.09 M31.23,54.05c0-0.26,0-0.52,0-0.79
		c0-0.17,0-0.17,0.17-0.17c0.14,0,0.27,0,0.41,0c0.04,0,0.08,0.01,0.08-0.05c0-0.06-0.05-0.04-0.08-0.04c-0.15,0-0.31,0-0.46,0
		c-0.09,0-0.12-0.04-0.12-0.12c0-0.16,0-0.32,0-0.48c0-0.08-0.04-0.11-0.12-0.08c-0.19,0.06-0.39,0.09-0.58,0.1
		c-0.07,0-0.1,0.03-0.1,0.1c0,0.12,0,0.25,0,0.37c0,0.08-0.03,0.12-0.11,0.11c-0.09,0-0.18,0-0.27,0c-0.03,0-0.08-0.02-0.09,0.04
		c0,0.06,0.05,0.04,0.08,0.05c0.08,0,0.15,0,0.23,0c0.16,0,0.16,0,0.16,0.16c0,0.49,0,0.97,0,1.46c0,0.35,0.16,0.54,0.49,0.6
		c0.1,0.02,0.21,0.03,0.31,0.02c0.29-0.02,0.53-0.13,0.67-0.39c0.01-0.02,0.05-0.06-0.01-0.08c-0.04-0.02-0.06-0.02-0.08,0.02
		c-0.03,0.06-0.07,0.11-0.12,0.14c-0.11,0.08-0.24,0.1-0.36,0.05c-0.12-0.05-0.11-0.17-0.11-0.27
		C31.22,54.56,31.23,54.31,31.23,54.05 M42.51,52.11c-0.08,0-0.17,0.01-0.26,0.06c-0.11,0.06-0.18,0.16-0.18,0.29
		c0.01,0.14,0.08,0.23,0.21,0.28c0.14,0.06,0.28,0.06,0.43,0.01c0.04-0.01,0.09-0.08,0.13-0.04c0.05,0.04,0.01,0.11,0,0.17
		c-0.01,0.06-0.05,0.11-0.09,0.16c-0.07,0.08-0.16,0.14-0.26,0.19c-0.02,0.01-0.07,0.01-0.05,0.06c0.02,0.03,0.04,0.05,0.08,0.03
		c0.24-0.1,0.43-0.25,0.51-0.51C43.13,52.42,42.91,52.11,42.51,52.11 M29.36,52.59c0.03,0.01,0.06,0,0.07-0.03
		c0.01-0.04-0.03-0.04-0.06-0.05c-0.36-0.19-0.66-0.44-0.89-0.77c-0.06-0.08-0.11-0.08-0.17,0.01c-0.23,0.32-0.52,0.58-0.87,0.76
		c-0.03,0.01-0.08,0.01-0.06,0.06c0.02,0.05,0.06,0.03,0.1,0.02c0.25-0.07,0.5-0.15,0.72-0.27c0.07-0.04,0.12-0.04,0.19-0.01
		C28.7,52.44,29.03,52.52,29.36,52.59"/>
	<path fill="#010101" d="M69.85,50.29c-0.05,0-0.1,0-0.15,0c-18.77,0-37.54,0-56.31,0c-0.05,0-0.1,0-0.15,0c0-0.03,0-0.05,0-0.08
		c0-1.96,0-3.92,0-5.88c0-0.03,0-0.06,0-0.09c0.05,0,0.1,0,0.16,0c18.76,0,37.52,0,56.28,0c0.05,0,0.1,0,0.16,0
		c0,0.03,0,0.06,0,0.09c0,1.96,0,3.92,0,5.88C69.85,50.24,69.85,50.27,69.85,50.29 M61.9,46.54c0.01,0,0.02,0,0.02,0
		c0.02,0.09,0.04,0.17,0.05,0.26c0.13,0.7,0.26,1.4,0.39,2.1c0.01,0.07,0.03,0.11,0.12,0.1c0.15-0.01,0.29-0.01,0.44,0
		c0.08,0,0.12-0.02,0.13-0.1c0.11-0.62,0.23-1.24,0.34-1.85c0.03-0.17,0.07-0.34,0.1-0.51c0.01,0,0.02,0,0.02,0
		c0,0.04,0,0.08,0,0.12c0,0.74,0,1.49,0,2.23c0,0.07,0,0.12,0.1,0.11c0.22-0.01,0.44,0,0.66,0c0.06,0,0.08-0.02,0.08-0.08
		c0-1.08,0-2.17,0-3.25c0-0.06-0.01-0.09-0.08-0.08c-0.38,0-0.76,0-1.14,0c-0.06,0-0.08,0.02-0.09,0.07
		c-0.07,0.39-0.13,0.77-0.2,1.16c-0.05,0.25-0.09,0.51-0.14,0.76c-0.02-0.02-0.02-0.03-0.02-0.04c-0.11-0.62-0.22-1.24-0.33-1.86
		c-0.01-0.06-0.02-0.1-0.1-0.1c-0.37,0-0.74,0-1.11,0c-0.08,0-0.09,0.03-0.09,0.1c0,1.08,0,2.15,0,3.23c0,0.07,0.02,0.1,0.09,0.1
		c0.21,0,0.43-0.01,0.64,0c0.09,0,0.11-0.03,0.11-0.11c0-0.74,0-1.49,0-2.23C61.9,46.62,61.9,46.58,61.9,46.54 M20.04,47.64
		c-0.01,0-0.01,0-0.02,0c0-0.01-0.01-0.03-0.01-0.04c-0.18-0.64-0.36-1.28-0.53-1.92c-0.02-0.07-0.05-0.09-0.12-0.09
		c-0.27,0-0.55,0-0.82,0c-0.07,0-0.09,0.01-0.09,0.08c0,1.08,0,2.16,0,3.24c0,0.07,0.02,0.1,0.09,0.1c0.21-0.01,0.43-0.01,0.64,0
		c0.09,0,0.11-0.03,0.11-0.11c0-0.62,0-1.23,0-1.84c0-0.04,0-0.08,0-0.11c0.03,0.04,0.04,0.07,0.05,0.1
		c0.18,0.63,0.36,1.25,0.53,1.88c0.02,0.07,0.04,0.09,0.11,0.09c0.27,0,0.54,0,0.81,0c0.07,0,0.09-0.02,0.09-0.09
		c0-1.08,0-2.16,0-3.24c0-0.08-0.02-0.09-0.1-0.09c-0.2,0-0.4,0-0.6,0c-0.15,0-0.15,0-0.15,0.15C20.04,46.37,20.04,47,20.04,47.64
		 M53.94,47.64c-0.01-0.05-0.03-0.08-0.04-0.12c-0.17-0.62-0.34-1.24-0.51-1.86c-0.02-0.06-0.04-0.09-0.1-0.08
		c-0.28,0-0.56,0-0.84,0c-0.06,0-0.08,0.02-0.08,0.08c0,1.08,0,2.17,0,3.25c0,0.07,0.02,0.09,0.09,0.09c0.21,0,0.43-0.01,0.64,0
		c0.09,0,0.11-0.02,0.11-0.11c0-0.62,0-1.25,0-1.87c0-0.03-0.01-0.07,0.02-0.11c0.01,0.04,0.02,0.07,0.03,0.1
		c0.18,0.63,0.36,1.26,0.53,1.89c0.02,0.05,0.02,0.09,0.1,0.09c0.28,0,0.55,0,0.83,0c0.07,0,0.08-0.02,0.08-0.08
		c0-1.08,0-2.17,0-3.25c0-0.07-0.02-0.09-0.09-0.08c-0.22,0-0.44,0.01-0.65,0c-0.09,0-0.1,0.03-0.1,0.11c0,0.61,0,1.21,0,1.82
		C53.95,47.55,53.96,47.59,53.94,47.64 M31.85,46.92c0,0,0.01,0,0.01,0c0.01,0.03,0.02,0.07,0.03,0.1c0.18,0.63,0.36,1.26,0.54,1.9
		c0.02,0.06,0.04,0.09,0.11,0.09c0.27,0,0.54,0,0.81,0c0.07,0,0.09-0.01,0.09-0.09c0-1.08,0-2.17,0-3.25c0-0.08-0.03-0.08-0.09-0.08
		c-0.21,0-0.42,0.01-0.63,0c-0.1,0-0.13,0.02-0.12,0.12c0,0.6,0,1.21,0,1.81c0,0.04,0,0.08,0,0.11c-0.03-0.03-0.04-0.07-0.05-0.1
		c-0.17-0.62-0.34-1.24-0.51-1.86c-0.02-0.06-0.04-0.08-0.1-0.08c-0.28,0-0.55,0-0.83,0c-0.08,0-0.09,0.03-0.09,0.09
		c0,0.3,0,0.6,0,0.9c0,0.77,0,1.54,0,2.32c0,0.09,0.02,0.11,0.11,0.11c0.22-0.01,0.43,0,0.65,0c0.06,0,0.08-0.02,0.08-0.08
		c0-0.15,0-0.3,0-0.45C31.85,47.96,31.85,47.44,31.85,46.92 M37.81,47.29c0,0.54,0,1.07,0,1.61c0,0.05-0.02,0.1,0.07,0.1
		c0.43,0,0.86,0.01,1.29-0.01c0.55-0.02,0.85-0.27,0.96-0.81c0.09-0.45,0.07-0.91,0.05-1.37c-0.01-0.23-0.03-0.46-0.12-0.67
		c-0.12-0.28-0.31-0.46-0.61-0.53c-0.12-0.03-0.24-0.03-0.37-0.03c-0.39,0-0.78,0-1.17,0c-0.09,0-0.11,0.03-0.11,0.11
		C37.81,46.23,37.81,46.76,37.81,47.29 M44.92,47.28v1c0,0.01,0,0.02,0,0.02c0,0.39,0.27,0.68,0.67,0.69c0.33,0.01,0.67,0.01,1,0
		c0.38-0.01,0.65-0.29,0.66-0.67c0-0.37,0-0.74,0-1.11c0-0.05,0-0.09-0.08-0.09c-0.34,0-0.67,0-1.01,0c-0.05,0-0.07,0.02-0.07,0.07
		c0,0.11,0,0.22,0,0.33c0,0.21,0,0.21,0.2,0.21c0.06,0,0.08,0.02,0.08,0.08c0,0.1-0.01,0.2,0,0.3c0.01,0.09-0.03,0.11-0.11,0.1
		c-0.09-0.01-0.17,0-0.26,0c-0.21,0-0.21,0-0.21-0.22c0-0.51,0-1.03,0-1.54c0-0.08,0.02-0.11,0.1-0.1c0.07,0.01,0.14,0,0.21,0
		c0.08,0,0.19-0.04,0.25,0.02c0.05,0.05,0.01,0.15,0.02,0.23c0,0.04,0.01,0.07,0.06,0.07c0.25,0,0.5,0,0.75,0
		c0.03,0,0.05-0.01,0.06-0.05c0.02-0.37-0.08-0.69-0.38-0.93c-0.09-0.08-0.2-0.11-0.32-0.11c-0.31,0-0.61,0-0.92,0
		c-0.42,0-0.7,0.29-0.7,0.71C44.92,46.62,44.92,46.95,44.92,47.28 M55.33,47.29c0,0.33,0,0.67,0,1c0,0.01,0,0.02,0,0.02
		C55.34,48.7,55.61,48.99,56,49c0.33,0.01,0.66,0.01,0.99,0c0.37-0.01,0.65-0.29,0.66-0.65c0.01-0.39,0-0.77,0-1.16
		c0-0.05-0.01-0.08-0.07-0.07c-0.34,0-0.68,0-1.02,0c-0.07,0-0.07,0.03-0.07,0.08c0,0.11,0,0.21,0,0.32c0,0.21,0,0.21,0.21,0.21
		c0.05,0,0.08,0.01,0.08,0.07c0,0.12,0,0.23,0,0.35c0,0.06-0.02,0.07-0.07,0.07c-0.15,0-0.29,0-0.44,0c-0.06,0-0.07-0.02-0.07-0.07
		c0-0.13,0-0.26,0-0.38c0-0.44,0-0.87,0-1.3c0-0.08,0.02-0.11,0.1-0.1c0.08,0.01,0.15,0,0.23,0c0.08,0,0.18-0.03,0.24,0.02
		c0.05,0.05,0.01,0.15,0.02,0.23c0,0,0,0.01,0,0.01c-0.01,0.04,0.01,0.06,0.06,0.06c0.25,0,0.5,0,0.75,0c0.04,0,0.06,0,0.07-0.05
		c0.02-0.36-0.09-0.67-0.37-0.91c-0.1-0.08-0.21-0.13-0.34-0.12c-0.3,0-0.61,0-0.91,0c-0.43,0-0.7,0.28-0.71,0.7
		C55.33,46.62,55.33,46.95,55.33,47.29 M48.68,46.9c0-0.4,0-0.8,0-1.2c0-0.1-0.03-0.12-0.12-0.11c-0.22,0.01-0.45,0.01-0.67,0
		c-0.09,0-0.11,0.02-0.11,0.11c0,0.71,0,1.41,0,2.11c0,0.16,0.01,0.32,0.04,0.47c0.08,0.44,0.32,0.67,0.74,0.75
		c0.27,0.05,0.54,0.04,0.82-0.01c0.32-0.06,0.53-0.25,0.64-0.55c0.07-0.18,0.09-0.36,0.09-0.55c0-0.75,0-1.5,0-2.25
		c0-0.07-0.03-0.08-0.09-0.08c-0.24,0-0.47,0-0.71,0c-0.09,0-0.1,0.02-0.1,0.1c0,0.78,0,1.56,0,2.34c0,0.08,0,0.16-0.02,0.23
		c-0.03,0.13-0.12,0.2-0.24,0.2c-0.13,0-0.22-0.07-0.25-0.21c-0.02-0.07-0.02-0.15-0.02-0.22C48.68,47.66,48.68,47.28,48.68,46.9
		 M25.12,49c-0.28-1.13-0.55-2.24-0.82-3.35c-0.02-0.06-0.05-0.07-0.1-0.07c-0.3,0-0.61,0.01-0.91,0c-0.11,0-0.14,0.03-0.17,0.13
		c-0.18,0.77-0.37,1.54-0.55,2.31c-0.08,0.32-0.15,0.64-0.23,0.97c0.3,0,0.59,0,0.88,0c0.06,0,0.07-0.03,0.07-0.07
		c0.02-0.15,0.04-0.3,0.07-0.45c0.01-0.06,0.03-0.09,0.1-0.09c0.18,0.01,0.37,0,0.55,0c0.06,0,0.09,0.01,0.09,0.08
		c0.02,0.15,0.05,0.3,0.06,0.44c0.01,0.05,0.02,0.08,0.08,0.08C24.53,49,24.82,49,25.12,49 M30.08,49c0.13,0,0.26,0,0.38,0
		c0.08,0,0.1-0.01,0.08-0.09c-0.27-1.08-0.53-2.16-0.8-3.25c-0.02-0.07-0.04-0.08-0.1-0.08c-0.32,0-0.64,0-0.96,0
		c-0.07,0-0.1,0.02-0.11,0.09c-0.26,1.08-0.52,2.17-0.78,3.25c-0.02,0.07,0,0.08,0.06,0.08c0.26,0,0.52,0,0.78,0
		c0.07,0,0.09-0.03,0.1-0.09c0.02-0.14,0.05-0.28,0.06-0.42c0.01-0.07,0.03-0.1,0.1-0.09c0.18,0.01,0.36,0.01,0.54,0
		c0.08,0,0.09,0.03,0.1,0.09c0.02,0.15,0.05,0.3,0.07,0.44C29.6,48.99,29.62,49,29.67,49C29.81,49,29.94,49,30.08,49 M60.24,49
		c0.13,0,0.26,0,0.39,0c0.07,0,0.09-0.01,0.07-0.09c-0.27-1.08-0.54-2.17-0.8-3.26c-0.02-0.06-0.04-0.08-0.1-0.08
		c-0.32,0-0.65,0-0.97,0c-0.07,0-0.09,0.02-0.11,0.08c-0.26,1.08-0.52,2.17-0.78,3.25c-0.02,0.07,0,0.09,0.07,0.09
		c0.25,0,0.51,0,0.76,0c0.07,0,0.09-0.02,0.1-0.09c0.02-0.15,0.05-0.29,0.07-0.44c0.01-0.06,0.03-0.07,0.08-0.07
		c0.19,0,0.38,0,0.56,0c0.06,0,0.08,0.02,0.09,0.08c0.02,0.15,0.05,0.3,0.07,0.46c0.01,0.06,0.03,0.07,0.09,0.07
		C59.98,49,60.11,49,60.24,49 M40.88,47.29c0,0.54,0,1.07,0,1.61c0,0.08,0.02,0.1,0.1,0.1c0.63,0,1.26,0,1.89,0
		c0.08,0,0.11-0.02,0.1-0.1c0-0.18-0.01-0.35,0-0.53c0-0.1-0.03-0.11-0.12-0.11c-0.33,0-0.66,0-0.99,0c-0.07,0-0.09-0.01-0.09-0.09
		c0.01-0.17,0.01-0.34,0-0.51c0-0.08,0.02-0.09,0.09-0.09c0.3,0,0.6,0,0.9,0c0.06,0,0.08-0.02,0.08-0.08c0-0.18-0.01-0.35,0-0.53
		c0-0.08-0.02-0.09-0.1-0.09c-0.29,0-0.59,0-0.89,0c-0.07,0-0.1-0.02-0.09-0.09c0.01-0.13,0.01-0.27,0-0.4
		c0-0.08,0.03-0.09,0.09-0.09c0.32,0,0.64,0,0.96,0c0.08,0,0.1-0.02,0.1-0.1c-0.01-0.18-0.01-0.35,0-0.53c0-0.08-0.02-0.1-0.1-0.1
		c-0.61,0-1.23,0-1.84,0c-0.08,0-0.11,0.02-0.11,0.1C40.88,46.22,40.88,46.76,40.88,47.29 M15.74,47.29c0,0.54,0,1.08,0,1.62
		c0,0.06,0,0.1,0.08,0.1c0.64,0,1.28,0,1.92,0c0.06,0,0.08-0.02,0.08-0.08c0-0.18,0-0.37,0-0.55c0-0.08-0.02-0.1-0.1-0.1
		c-0.33,0-0.67,0-1,0c-0.07,0-0.09-0.02-0.09-0.09c0.01-0.17,0.01-0.33,0-0.49c0-0.09,0.03-0.1,0.11-0.1c0.29,0,0.58,0,0.88,0
		c0.07,0,0.09-0.02,0.09-0.09c0-0.18,0-0.35,0-0.53c0-0.07-0.02-0.09-0.09-0.09c-0.3,0-0.6,0-0.9,0c-0.06,0-0.08-0.01-0.08-0.08
		c0-0.14,0.01-0.28,0-0.42c0-0.07,0.02-0.09,0.09-0.09c0.31,0,0.63,0,0.94,0c0.08,0,0.11-0.01,0.11-0.1c-0.01-0.18-0.01-0.35,0-0.53
		c0-0.08-0.02-0.1-0.1-0.1c-0.61,0-1.23,0-1.84,0c-0.08,0-0.1,0.02-0.1,0.1C15.74,46.22,15.74,46.75,15.74,47.29 M26.45,48.13
		c0,0-0.01,0-0.01,0c-0.02-0.11-0.03-0.23-0.05-0.34c-0.1-0.71-0.2-1.42-0.3-2.13c-0.01-0.06-0.03-0.08-0.09-0.08
		c-0.26,0-0.52,0-0.78,0c-0.08,0-0.08,0.03-0.07,0.09c0.23,1.08,0.46,2.17,0.69,3.25c0.01,0.07,0.04,0.08,0.11,0.08
		c0.33,0,0.65,0,0.98,0c0.08,0,0.1-0.03,0.11-0.1c0.1-0.47,0.2-0.93,0.3-1.39c0.14-0.64,0.28-1.28,0.42-1.93c-0.31,0-0.6,0-0.9,0
		c-0.06,0-0.06,0.04-0.06,0.07c-0.04,0.28-0.08,0.56-0.12,0.85C26.6,47.05,26.52,47.59,26.45,48.13 M65.02,47.28
		c0,0.54,0,1.08,0,1.62c0,0.08,0.02,0.1,0.1,0.1C65.34,49,65.57,49,65.8,49c0.09,0,0.12-0.02,0.12-0.11c-0.01-0.36,0-0.73,0-1.09
		c0-0.09,0.02-0.11,0.11-0.1c0.15,0.01,0.31,0,0.46-0.02c0.46-0.05,0.76-0.31,0.85-0.74c0.03-0.14,0.04-0.29,0.03-0.44
		c-0.05-0.59-0.4-0.92-1-0.92c-0.41,0-0.83,0-1.24,0c-0.09,0-0.1,0.03-0.1,0.11C65.02,46.22,65.02,46.75,65.02,47.28 M35.52,47.67
		c0-0.4,0-0.81,0-1.21c0-0.09,0.01-0.13,0.12-0.13c0.16,0.01,0.32,0,0.48,0c0.06,0,0.08-0.01,0.08-0.07c0-0.2,0-0.41,0-0.61
		c0-0.06-0.02-0.07-0.07-0.07c-0.7,0-1.39,0-2.09,0c-0.05,0-0.07,0.01-0.07,0.07c0,0.21,0,0.41,0,0.62c0,0.05,0.02,0.07,0.07,0.07
		c0.16,0,0.32,0,0.47,0c0.1,0,0.13,0.02,0.13,0.12c-0.01,0.81,0,1.62-0.01,2.43c0,0.1,0.03,0.13,0.12,0.12c0.23-0.01,0.46,0,0.69,0
		c0.08,0,0.09-0.02,0.09-0.09C35.52,48.5,35.52,48.08,35.52,47.67 M51.67,47.28c0-0.54,0-1.07,0-1.61c0-0.07-0.01-0.1-0.09-0.1
		c-0.24,0-0.49,0-0.73,0c-0.06,0-0.08,0.02-0.08,0.08c0,1.09,0,2.17,0,3.26c0,0.06,0.02,0.08,0.08,0.08c0.24,0,0.48,0,0.72,0
		c0.08,0,0.1-0.02,0.1-0.1C51.67,48.36,51.67,47.82,51.67,47.28"/>
	<path fill="#010101" d="M35.81,29.03c-0.88,0-1.75,0-2.63,0c-0.08,0-0.12-0.01-0.12-0.11c0-1.65,0-3.29,0-4.94
		c0.04,0,0.08,0,0.12,0c12.18,0,24.35,0,36.53,0c0.12,0,0.14,0.03,0.14,0.14c0,1.59,0,3.19,0,4.78c0,0.04,0,0.08,0,0.12
		c-0.05,0-0.1,0-0.15,0c-0.91,0-1.82,0-2.73,0c-0.02-0.18-0.03-0.36-0.07-0.53c-0.31-1.3-1.42-2.18-2.78-2.18
		c-1.35-0.01-2.71-0.01-4.06,0c-1.15,0.01-2,0.54-2.55,1.55c-0.2,0.36-0.27,0.76-0.3,1.16c-1.34,0-2.69,0-4.03,0
		c-0.01-0.02-0.02-0.03-0.02-0.05c-0.23-0.85-0.46-1.7-0.69-2.55c-0.02-0.07-0.04-0.1-0.12-0.1c-1.22,0-2.44,0-3.67,0
		c-0.07,0-0.1,0.02-0.11,0.09c-0.07,0.26-0.14,0.51-0.21,0.77c-0.17,0.62-0.34,1.23-0.51,1.85c-0.96,0-1.92,0-2.88,0
		c-0.48,0-0.95,0-1.43,0c0-0.85,0-1.71,0-2.56c0-0.11-0.03-0.13-0.13-0.13c-2.49,0-4.98,0-7.47,0c-0.11,0-0.14,0.02-0.14,0.14
		C35.81,27.32,35.81,28.17,35.81,29.03"/>
	<path fill="#E20517" d="M66.97,29.03c0.91,0,1.82,0,2.73,0c0.05,0,0.1,0,0.15,0c0,1.52,0,3.03,0,4.55c-0.96,0-1.92,0-2.88,0
		c-0.79,0-1.58,0-2.37,0c-0.76,0-1.52,0-2.28,0c-0.79,0-1.59,0-2.38,0c0-0.01,0-0.02,0-0.02c0-1.48,0-2.95,0-4.43
		c0-0.08,0.03-0.09,0.1-0.09c1.37,0,2.75,0,4.12,0c0.08,0,0.11,0.02,0.11,0.11c0,0.46,0,0.93,0,1.4c0,0.09,0.03,0.11,0.11,0.11
		c0.83,0,1.66,0,2.49,0c0.1,0,0.13-0.03,0.13-0.13C66.97,30.02,66.97,29.52,66.97,29.03"/>
	<path fill="#010101" d="M66.97,33.57c0.96,0,1.92,0,2.88,0c0,0.03,0,0.05,0,0.08c0,1.73,0,3.45,0,5.18c0,0.03,0,0.05,0,0.08
		c-0.23,0-0.46,0-0.7,0c-0.73,0-1.45,0-2.18,0c0-0.02,0-0.04,0-0.06C66.97,37.09,66.97,35.33,66.97,33.57"/>
	<path fill="#010101" d="M23.29,26.21c3.55,0,6.6,2.24,7.6,5.52c0.27,0.88,0.39,1.79,0.32,2.71c-0.23,2.87-1.62,5.01-4.12,6.41
		c-0.95,0.53-1.99,0.82-3.08,0.9c-2.27,0.16-4.25-0.52-5.94-2.04c-1.28-1.16-2.09-2.61-2.39-4.31c-0.42-2.39,0.15-4.54,1.71-6.4
		c1.2-1.43,2.73-2.3,4.56-2.65C22.43,26.24,22.91,26.2,23.29,26.21 M24.15,31.16c0-0.23,0.01-0.47,0-0.7
		c-0.04-0.93-0.35-1.75-0.96-2.45c-0.61-0.68-1.37-0.96-2.27-0.77c-0.96,0.21-1.7,0.75-2.21,1.58c-0.37,0.6-0.55,1.26-0.4,1.97
		c0.17,0.82,0.64,1.43,1.44,1.73c0.65,0.24,1.26,0.08,1.83-0.26c1.11-0.67,1.31-2.14,0.37-3.12c-0.29-0.3-0.64-0.41-1.05-0.31
		c-0.53,0.13-0.87,0.57-0.82,1.06c0.03,0.34,0.17,0.65,0.36,0.93c0.04,0.06,0.09,0.1,0.16,0.1c0.14,0,0.24-0.06,0.32-0.18
		c0.07-0.1,0.05-0.2-0.01-0.3c-0.1-0.16-0.17-0.33-0.21-0.52c-0.03-0.15-0.02-0.29,0.11-0.4c0.22-0.19,0.49-0.19,0.69,0.01
		c0.41,0.41,0.57,0.9,0.39,1.46c-0.18,0.55-0.61,0.83-1.14,0.98c-0.51,0.15-0.96,0.03-1.34-0.35c-0.5-0.51-0.67-1.12-0.48-1.81
		c0.26-0.94,0.89-1.55,1.78-1.89c0.82-0.31,1.58-0.1,2.13,0.6c0.66,0.85,0.85,1.8,0.59,2.84c-0.18,0.72-0.57,1.33-1,1.92
		c-0.3,0.4-0.67,0.73-1.09,1c-0.41,0.26-0.85,0.46-1.27,0.7c-0.82,0.45-1.43,1.09-1.79,1.96c-0.38,0.91-0.3,1.78,0.37,2.51
		c0.86,0.94,1.95,1.31,3.21,1.09c0.69-0.12,1.25-0.47,1.63-1.07c0.32-0.5,0.47-1.04,0.33-1.64c-0.15-0.65-0.57-1.1-1.14-1.4
		c-1.26-0.68-2.67,0.1-2.93,1.38c-0.08,0.42,0.12,0.83,0.51,1.08c0.37,0.23,0.78,0.22,1.14-0.04c0.25-0.18,0.43-0.42,0.58-0.68
		c0.08-0.14,0.05-0.25-0.08-0.34c-0.18-0.12-0.35-0.09-0.46,0.09c-0.1,0.16-0.22,0.32-0.37,0.44c-0.09,0.07-0.19,0.13-0.32,0.1
		c-0.29-0.07-0.46-0.31-0.4-0.61c0.11-0.54,0.68-1.04,1.23-1.07c0.62-0.04,1.3,0.36,1.57,0.92c0.11,0.22,0.15,0.46,0.11,0.7
		c-0.1,0.63-0.43,1.11-1.01,1.4c-0.49,0.24-1.01,0.28-1.54,0.18c-0.59-0.11-1.11-0.37-1.53-0.79c-0.74-0.73-0.66-1.68-0.12-2.47
		c0.25-0.37,0.62-0.62,1.01-0.83c0.61-0.32,1.26-0.5,1.94-0.6c1-0.16,1.96-0.02,2.85,0.45c0.38,0.2,0.75,0.43,1.13,0.65
		c0.86,0.48,1.77,0.66,2.74,0.46c0.95-0.19,1.59-0.75,1.84-1.69c0.29-1.09,0.1-2.11-0.6-3c-0.59-0.75-1.36-1.13-2.33-1
		c-0.73,0.1-1.28,0.45-1.6,1.14c-0.14,0.31-0.2,0.63-0.2,0.97c-0.02,1.44,1.35,2.35,2.67,1.92c0.45-0.15,0.71-0.55,0.71-1.04
		c-0.01-0.46-0.26-0.8-0.71-0.96c-0.27-0.09-0.56-0.11-0.84-0.1c-0.05,0-0.1,0.02-0.13,0.06c-0.09,0.11-0.09,0.23-0.04,0.36
		c0.05,0.12,0.13,0.17,0.26,0.17c0.18,0,0.37,0.02,0.54,0.07c0.26,0.08,0.37,0.26,0.32,0.53c-0.04,0.19-0.17,0.31-0.35,0.36
		c-0.5,0.14-1.13,0.03-1.51-0.45c-0.29-0.36-0.34-0.77-0.29-1.21c0.08-0.61,0.46-1.05,1.06-1.19c0.76-0.18,1.4,0.05,1.91,0.63
		c0.55,0.64,0.75,1.39,0.65,2.22c-0.1,0.78-0.51,1.33-1.28,1.58c-0.58,0.19-1.15,0.16-1.71-0.1c-0.76-0.35-1.35-0.92-1.89-1.54
		c-0.46-0.52-0.76-1.13-0.93-1.8C24.15,32.24,24.14,31.7,24.15,31.16"/>
	<path fill="#FFFDFF" d="M66.97,33.57c0,1.76,0,3.52,0,5.28c0,0.02,0,0.04,0,0.06c-0.03,0.38-0.1,0.74-0.27,1.08
		c-0.48,0.96-1.25,1.5-2.31,1.62c-0.13,0.01-0.25,0.02-0.38,0.02c-1.32,0-2.63,0.01-3.95,0c-1.15-0.01-2.01-0.54-2.56-1.56
		c-0.19-0.36-0.27-0.75-0.3-1.15c0-0.01,0-0.02,0-0.03c0-1.74,0-3.48,0-5.22c0-0.03,0-0.06-0.01-0.09c0-0.05,0.01-0.09,0.01-0.13
		c0-1.4,0-2.8,0-4.21c0-0.07,0-0.13,0-0.2c0.03-0.41,0.11-0.8,0.3-1.16c0.55-1.01,1.4-1.54,2.55-1.55c1.35-0.02,2.71-0.01,4.06,0
		c1.36,0.01,2.46,0.88,2.78,2.18c0.04,0.17,0.05,0.35,0.07,0.53c0,0.49,0,0.99,0,1.48c0,0.1-0.03,0.13-0.13,0.13
		c-0.83,0-1.66,0-2.49,0c-0.09,0-0.11-0.02-0.11-0.11c0.01-0.47,0-0.93,0-1.4c0-0.08-0.02-0.11-0.11-0.11c-1.37,0-2.75,0-4.12,0
		c-0.07,0-0.1,0.01-0.1,0.09c0,1.48,0,2.96,0,4.43c0,0.01,0,0.02,0,0.02c0,0.01,0,0.02,0,0.03c0,1.74,0,3.48,0,5.22
		c0,0.1,0.05,0.09,0.11,0.09c1.37,0,2.73,0,4.1,0c0.09,0,0.12-0.02,0.12-0.11c-0.01-0.8,0-1.61,0-2.41c0-0.09-0.02-0.12-0.12-0.12
		c-0.57,0.01-1.15,0-1.72,0c-0.08,0-0.1-0.02-0.1-0.1c0-0.87,0-1.73,0-2.6c0.76,0,1.52,0,2.28,0
		C65.39,33.57,66.18,33.57,66.97,33.57"/>
	<path fill="#FFFDFF" d="M47.86,29.03c0.17-0.61,0.34-1.23,0.51-1.85c0.07-0.26,0.14-0.51,0.21-0.77c0.02-0.06,0.04-0.09,0.11-0.09
		c1.22,0,2.44,0,3.67,0c0.08,0,0.1,0.03,0.12,0.1c0.23,0.85,0.46,1.7,0.69,2.55c0.01,0.02,0.01,0.03,0.02,0.05
		c0,0.02,0,0.04,0.01,0.05c0.29,1.08,0.59,2.16,0.88,3.24c0.11,0.42,0.23,0.83,0.35,1.25c0,0.03,0.01,0.05,0.01,0.08
		c0.25,0.93,0.5,1.85,0.76,2.78c0.23,0.83,0.45,1.66,0.68,2.49c0.22,0.81,0.44,1.61,0.65,2.42c0.01,0.05,0.03,0.09,0.04,0.14
		c0.05,0.17,0.03,0.14-0.1,0.14c-0.86,0-1.71,0-2.57,0c-0.09,0-0.12-0.03-0.14-0.11c-0.23-0.83-0.46-1.65-0.68-2.48
		c-0.02-0.08-0.05-0.12-0.15-0.12c-1.6,0-3.21,0-4.81,0c-0.09,0-0.12,0.03-0.14,0.11c-0.22,0.83-0.45,1.66-0.68,2.49
		c-0.02,0.08-0.05,0.11-0.13,0.1c-0.87,0-1.73,0-2.6,0c-0.1,0-0.11-0.02-0.08-0.11c0.23-0.85,0.46-1.7,0.69-2.54
		c0-0.01,0-0.03,0.01-0.04c0.01-0.02,0.02-0.04,0.02-0.06c0.28-1.02,0.56-2.05,0.83-3.07c0.2-0.74,0.4-1.47,0.6-2.21
		c0-0.01,0.01-0.02,0.01-0.03c0.28-1.02,0.56-2.04,0.83-3.06C47.6,30,47.73,29.51,47.86,29.03 M49.45,33.57
		c-0.01,0.02-0.02,0.03-0.02,0.05c-0.16,0.58-0.32,1.17-0.48,1.75c-0.07,0.27-0.15,0.53-0.22,0.8h3.57
		c-0.12-0.46-0.25-0.91-0.37-1.36c-0.12-0.42-0.23-0.83-0.35-1.25c0-0.02,0-0.04-0.01-0.07c-0.3-1.11-0.6-2.21-0.9-3.32
		c-0.05-0.18-0.1-0.35-0.15-0.56c-0.24,0.86-0.46,1.7-0.69,2.53C49.7,32.62,49.58,33.1,49.45,33.57"/>
	<path fill="#FFFDFF" d="M35.81,29.03c0-0.85,0.01-1.71,0-2.56c0-0.12,0.03-0.14,0.14-0.14c2.49,0,4.98,0,7.47,0
		c0.11,0,0.14,0.02,0.13,0.13c0,0.85,0,1.71,0,2.56c-0.05,0-0.1,0-0.15,0c-1.58,0-3.17,0-4.76,0c-0.1,0-0.12,0.03-0.12,0.12
		c0,1.12,0,2.23,0,3.35c0,0.11,0.03,0.13,0.14,0.13c1.59,0,3.18,0,4.77,0c0.09,0,0.12,0.02,0.12,0.12c0,0.28,0,0.55,0,0.83
		c0,0.54-0.01,1.09,0,1.63c0,0.11-0.03,0.13-0.13,0.13c-1.59,0-3.19,0-4.78,0c-0.09,0-0.11,0.02-0.11,0.11c0,1.12,0,2.24,0,3.36
		c0,0.1,0.03,0.12,0.12,0.12c1.58,0,3.17,0,4.76,0c0.04,0,0.09,0,0.13,0c0,0.71,0,1.42,0,2.14c0,0.16,0,0.31,0,0.47
		c0,0.07-0.02,0.1-0.09,0.09c-0.02,0-0.03,0-0.05,0c-2.49,0-4.99,0-7.48,0c-0.1,0-0.13-0.02-0.13-0.13c0-0.86,0-1.72,0-2.57
		c0-0.03,0-0.07,0-0.1c0-1.71,0-3.42,0-5.14c0-0.03,0-0.07,0-0.1c0-0.1,0-0.2,0-0.3c0-1.37,0-2.74,0-4.12
		C35.81,29.11,35.81,29.07,35.81,29.03"/>
	<path fill="#010101" d="M43.54,38.91c-0.04,0-0.09,0-0.13,0c-1.58,0-3.17,0-4.76,0c-0.09,0-0.12-0.02-0.12-0.12
		c0-1.12,0-2.24,0-3.36c0-0.09,0.03-0.11,0.11-0.11c1.59,0,3.19,0,4.78,0c0.1,0,0.13-0.02,0.13-0.13c0-0.54,0-1.09,0-1.63
		c1.02,0,2.05,0,3.07,0c-0.2,0.74-0.4,1.47-0.6,2.21c-0.28,1.02-0.56,2.04-0.83,3.07c-0.01,0.02-0.02,0.04-0.02,0.06
		C44.63,38.91,44.08,38.91,43.54,38.91"/>
	<path fill="#010101" d="M35.81,33.57c0,0.03,0,0.07,0,0.1c0,1.71,0,3.42,0,5.14c0,0.03,0,0.07,0,0.1c-0.88,0-1.75,0-2.63,0
		c-0.1,0-0.12-0.03-0.12-0.12c0-1.7,0-3.4,0-5.11c0-0.09,0.02-0.12,0.12-0.12C34.05,33.57,34.93,33.57,35.81,33.57"/>
	<path fill="#010101" d="M55.87,38.91c-0.23-0.83-0.46-1.66-0.68-2.49c-0.25-0.93-0.5-1.85-0.76-2.78
		c-0.01-0.02-0.01-0.05-0.01-0.08c0.93,0,1.86,0,2.79,0c0,0.03,0.01,0.06,0.01,0.09c0,1.74,0,3.48,0,5.22c0,0.01,0,0.02,0,0.03
		C56.76,38.91,56.32,38.91,55.87,38.91"/>
	<path fill="#FFFDFF" d="M53.83,54.21c0,0.25,0,0.46,0,0.67c0,0.21,0.07,0.28,0.28,0.31c0.03,0,0.08-0.01,0.08,0.05
		s-0.05,0.04-0.08,0.04c-0.42-0.02-0.84-0.02-1.26,0c-0.03,0-0.07,0.02-0.08-0.04c-0.01-0.06,0.04-0.05,0.07-0.06
		c0.13-0.03,0.18-0.08,0.18-0.22c0-0.52,0.01-1.03,0-1.55c0-0.24-0.16-0.33-0.46-0.26c-0.24,0.05-0.4,0.27-0.4,0.52
		c0,0.39,0,0.78,0,1.17c0,0.26,0.03,0.29,0.28,0.34c0.03,0.01,0.05,0.02,0.05,0.05c0,0.04-0.02,0.05-0.05,0.04
		c-0.01,0-0.03,0-0.04,0c-0.4-0.02-0.8-0.02-1.2,0c-0.03,0-0.09,0.03-0.09-0.04c0-0.06,0.05-0.04,0.08-0.05
		c0.13-0.03,0.18-0.1,0.19-0.27c0-0.33,0-0.65,0-0.98c0-0.15,0-0.31,0-0.46c0-0.29-0.13-0.39-0.42-0.33
		c-0.24,0.05-0.41,0.25-0.41,0.5c0,0.41,0,0.83,0,1.24c0,0.21,0.02,0.24,0.22,0.3c0.03,0.01,0.04,0.02,0.04,0.05
		c0,0.04-0.02,0.04-0.05,0.04c-0.06,0-0.11,0-0.17,0c-0.37-0.03-0.74,0-1.1,0c-0.03,0-0.09,0.03-0.1-0.04
		c-0.01-0.07,0.05-0.05,0.09-0.05c0.2-0.03,0.26-0.09,0.26-0.29c0-0.48,0-0.97,0-1.45c0-0.23-0.07-0.3-0.29-0.34
		c-0.04-0.01-0.06-0.01-0.06-0.05c0-0.05,0.04-0.04,0.07-0.04c0.33,0.01,0.67,0.01,1-0.04c0.08-0.01,0.09,0.04,0.09,0.11
		c0,0.05-0.02,0.1,0.03,0.13c0.06,0.03,0.09-0.02,0.13-0.05c0.26-0.21,0.57-0.24,0.89-0.2c0.21,0.02,0.41,0.09,0.52,0.3
		c0.03,0.06,0.08,0.05,0.12,0.01c0.34-0.36,0.76-0.36,1.2-0.27c0.24,0.05,0.37,0.21,0.4,0.45C53.85,53.71,53.82,53.99,53.83,54.21"
		/>
	<path fill="#FFFDFF" d="M40.62,54.96c-0.13,0.22-0.3,0.34-0.52,0.37c-0.78,0.12-1.31-0.32-1.33-1.12c-0.01-0.42,0.08-0.8,0.45-1.05
		c0.39-0.26,0.81-0.29,1.25-0.15c0.14,0.04,0.16,0.04,0.16-0.11c0-0.21,0.01-0.43-0.01-0.64c-0.02-0.2-0.09-0.26-0.28-0.29
		c-0.04,0-0.07,0-0.07-0.05c0-0.06,0.05-0.04,0.08-0.04c0.33,0.01,0.65,0.02,0.98-0.04c0.06-0.01,0.1,0.02,0.1,0.08
		c0,0.04,0,0.08,0,0.12c0,0.9,0,1.79,0,2.69c0,0.06,0,0.12,0.01,0.18c0.03,0.17,0.09,0.23,0.26,0.26c0.03,0.01,0.09-0.01,0.09,0.06
		c-0.01,0.07-0.07,0.04-0.1,0.03c-0.29-0.02-0.59-0.01-0.88,0.03c-0.17,0.02-0.18,0.02-0.18-0.16
		C40.62,55.1,40.62,55.05,40.62,54.96 M40.62,54.01c0-0.23,0-0.46,0-0.7c0-0.08-0.03-0.13-0.1-0.17c-0.29-0.17-0.64-0.06-0.79,0.26
		c-0.09,0.19-0.12,0.4-0.12,0.61c-0.01,0.3-0.01,0.6,0.12,0.88c0.1,0.21,0.29,0.3,0.52,0.25c0.22-0.05,0.37-0.23,0.37-0.46
		C40.62,54.46,40.62,54.24,40.62,54.01"/>
	<path fill="#FFFDFF" d="M26.52,54.74c0,0.16,0,0.31,0,0.47c0,0.04,0.02,0.08-0.05,0.08c-0.04,0-0.08,0-0.08-0.06
		c0-0.03-0.01-0.06-0.02-0.09c-0.03-0.11-0.09-0.14-0.19-0.09c-0.07,0.03-0.15,0.08-0.22,0.11c-0.76,0.32-1.49,0.25-2.18-0.18
		c-0.83-0.53-0.84-1.91,0.04-2.51c0.41-0.28,0.87-0.38,1.36-0.37c0.33,0,0.64,0.1,0.93,0.26c0.17,0.1,0.23,0.07,0.27-0.12
		c0.01-0.05,0.02-0.09,0.09-0.09c0.08,0.01,0.05,0.06,0.05,0.1c-0.02,0.29-0.02,0.58-0.02,0.88c0,0.04,0.03,0.09-0.05,0.1
		c-0.07,0-0.09-0.02-0.09-0.08c0-0.02-0.01-0.04-0.01-0.05c-0.08-0.77-0.94-1-1.45-0.82c-0.28,0.1-0.47,0.3-0.58,0.57
		c-0.23,0.58-0.24,1.16-0.01,1.74c0.35,0.86,1.35,0.8,1.82,0.31c0.17-0.17,0.2-0.4,0.23-0.62c0.01-0.06,0.02-0.1,0.09-0.09
		c0.08,0.01,0.05,0.07,0.05,0.1c0,0.16,0,0.31,0,0.46C26.5,54.74,26.51,54.74,26.52,54.74"/>
	<path fill="#FFFDFF" d="M45.83,55.28c-0.25,0-0.49,0-0.74,0c-0.03,0-0.09,0.03-0.09-0.04c0-0.06,0.05-0.04,0.08-0.04
		c0.32-0.02,0.36-0.09,0.23-0.38c-0.09-0.2-0.19-0.41-0.28-0.61c-0.03-0.07-0.07-0.1-0.14-0.1c-0.34,0-0.68,0-1.01,0
		c-0.05,0-0.1,0-0.13,0.05c-0.09,0.2-0.21,0.39-0.25,0.61c-0.06,0.25,0.02,0.36,0.27,0.41c0.04,0.01,0.08,0.01,0.12,0.02
		c0.03,0,0.08-0.01,0.08,0.05c-0.01,0.06-0.06,0.04-0.09,0.04c-0.17,0-0.33-0.01-0.5-0.01c-0.16,0-0.31,0-0.47,0.01
		c-0.02,0-0.06,0.01-0.06-0.03c0-0.03,0-0.05,0.04-0.06c0.23-0.07,0.34-0.25,0.43-0.44c0.21-0.42,0.42-0.85,0.62-1.27
		c0.2-0.4,0.4-0.81,0.59-1.21c0.04-0.08,0.08-0.11,0.18-0.12c0.21-0.02,0.3,0.06,0.39,0.25c0.39,0.83,0.8,1.66,1.21,2.48
		c0.07,0.14,0.16,0.27,0.32,0.31c0.04,0.01,0.05,0.03,0.04,0.06c-0.01,0.05-0.05,0.03-0.07,0.03
		C46.35,55.28,46.09,55.28,45.83,55.28L45.83,55.28z M44.38,54.02c0.14,0,0.28,0,0.42,0c0.11,0,0.14-0.04,0.09-0.14
		c-0.13-0.3-0.27-0.59-0.41-0.89c-0.02-0.03-0.03-0.07-0.07-0.07c-0.05,0-0.07,0.04-0.09,0.07c-0.14,0.3-0.29,0.59-0.43,0.89
		c-0.04,0.09-0.02,0.13,0.08,0.13C44.11,54.02,44.24,54.02,44.38,54.02"/>
	<path fill="#FFFDFF" d="M55.82,52.95c0.17,0,0.33,0.01,0.49,0.05c0.56,0.13,0.84,0.49,0.87,1.09c0.01,0.16-0.01,0.32-0.05,0.47
		c-0.1,0.41-0.39,0.63-0.78,0.73c-0.35,0.09-0.71,0.09-1.07,0c-0.51-0.13-0.79-0.47-0.82-0.99c-0.01-0.17,0-0.33,0.03-0.49
		c0.1-0.47,0.42-0.71,0.87-0.81C55.52,52.96,55.67,52.94,55.82,52.95 M56.34,54.13c0-0.09,0-0.21-0.02-0.33
		c-0.02-0.21-0.06-0.41-0.18-0.58c-0.17-0.25-0.47-0.25-0.65,0c-0.07,0.09-0.11,0.2-0.14,0.31c-0.08,0.37-0.08,0.73-0.03,1.1
		c0.03,0.18,0.07,0.34,0.19,0.49c0.16,0.2,0.44,0.2,0.6,0c0.07-0.08,0.11-0.18,0.14-0.28C56.33,54.61,56.34,54.38,56.34,54.13"/>
	<path fill="#FFFDFF" d="M28.36,55.35c-0.14,0-0.31-0.02-0.48-0.06c-0.53-0.13-0.81-0.46-0.85-1.01c-0.01-0.15,0-0.31,0.03-0.46
		c0.08-0.43,0.36-0.69,0.77-0.8c0.35-0.1,0.71-0.1,1.07-0.01c0.55,0.13,0.82,0.47,0.85,1.04c0.01,0.18,0,0.35-0.05,0.52
		c-0.12,0.44-0.44,0.65-0.86,0.74C28.7,55.34,28.55,55.35,28.36,55.35 M28.92,54.13c-0.01-0.11-0.01-0.23-0.02-0.36
		c-0.02-0.18-0.05-0.36-0.15-0.52c-0.18-0.3-0.51-0.3-0.7-0.01c-0.05,0.09-0.09,0.18-0.11,0.28c-0.08,0.35-0.08,0.71-0.03,1.07
		c0.02,0.18,0.07,0.36,0.19,0.51c0.17,0.21,0.44,0.21,0.61,0c0.06-0.08,0.11-0.17,0.14-0.27C28.91,54.61,28.91,54.38,28.92,54.13"/>
	<path fill="#FFFDFF" d="M33.73,53.92c-0.22,0-0.44,0-0.66,0c-0.08,0-0.12,0.03-0.12,0.12c0,0.14,0,0.28,0.04,0.42
		c0.13,0.47,0.63,0.66,1.1,0.44c0.11-0.05,0.2-0.12,0.27-0.21c0.03-0.04,0.07-0.06,0.11-0.03c0.04,0.03,0,0.07-0.02,0.09
		c-0.21,0.41-0.68,0.64-1.2,0.59c-0.1-0.01-0.21-0.02-0.31-0.05c-0.63-0.15-0.89-0.64-0.83-1.24c0.06-0.68,0.5-1.07,1.23-1.1
		c0.22-0.01,0.44,0,0.65,0.08c0.39,0.15,0.49,0.49,0.51,0.8c0.01,0.08-0.05,0.09-0.11,0.09C34.17,53.92,33.95,53.92,33.73,53.92
		 M33.37,53.84c0.11,0,0.22,0,0.32,0c0.08,0,0.12-0.03,0.12-0.11c-0.01-0.15-0.03-0.3-0.08-0.45c-0.05-0.13-0.12-0.23-0.27-0.24
		c-0.14-0.01-0.25,0.05-0.34,0.16c-0.12,0.16-0.16,0.35-0.17,0.55c-0.01,0.07,0.03,0.09,0.1,0.09
		C33.15,53.84,33.26,53.84,33.37,53.84"/>
	<path fill="#FFFDFF" d="M34.96,54.88c0-0.12,0-0.25,0-0.37c0-0.04,0-0.07,0.06-0.07c0.04,0,0.07,0.01,0.07,0.06
		c0.03,0.15,0.07,0.3,0.15,0.43c0.15,0.25,0.42,0.37,0.7,0.31c0.26-0.05,0.36-0.29,0.21-0.51c-0.06-0.09-0.14-0.16-0.23-0.21
		c-0.2-0.13-0.39-0.26-0.59-0.39c-0.08-0.06-0.16-0.12-0.23-0.2c-0.24-0.28-0.18-0.63,0.13-0.81c0.27-0.16,0.57-0.18,0.87-0.15
		c0.17,0.02,0.33,0.06,0.48,0.13c0.09,0.04,0.17,0.02,0.2-0.08c0.02-0.06,0.05-0.07,0.1-0.06c0.06,0.01,0.04,0.06,0.03,0.09
		c-0.02,0.2-0.01,0.4-0.02,0.61c0,0.03,0.02,0.08-0.04,0.08c-0.05,0-0.08-0.01-0.09-0.07c-0.02-0.13-0.07-0.24-0.15-0.35
		c-0.16-0.22-0.45-0.32-0.71-0.25c-0.23,0.07-0.29,0.31-0.12,0.49c0.1,0.1,0.22,0.18,0.35,0.25c0.18,0.1,0.35,0.2,0.52,0.32
		c0.08,0.05,0.15,0.11,0.22,0.18c0.26,0.28,0.23,0.64-0.1,0.85c-0.28,0.18-0.6,0.22-0.93,0.2c-0.19-0.01-0.37-0.09-0.55-0.15
		c-0.1-0.04-0.18-0.04-0.22,0.08c-0.02,0.05-0.05,0.04-0.09,0.04c-0.05,0-0.04-0.05-0.04-0.08c0-0.12,0-0.24,0-0.36
		C34.96,54.88,34.96,54.88,34.96,54.88"/>
	<path fill="#FFFDFF" d="M48.58,53.1c-0.32-0.03-0.63,0.23-0.64,0.53c-0.01,0.42-0.01,0.83,0,1.25c0,0.15,0.07,0.23,0.22,0.28
		c0.07,0.02,0.14,0.02,0.21,0.04c0.03,0.01,0.09-0.03,0.09,0.05c0,0.08-0.07,0.04-0.1,0.04c-0.1,0-0.19,0-0.29,0
		c-0.38-0.02-0.76-0.01-1.15,0c-0.03,0-0.05,0-0.08,0c-0.03,0-0.06,0-0.06-0.04s0.03-0.04,0.06-0.05c0.26-0.04,0.3-0.09,0.3-0.34
		c0-0.45,0-0.89,0-1.34c0-0.29-0.03-0.33-0.31-0.41c-0.03-0.01-0.04-0.02-0.04-0.05c0-0.05,0.04-0.04,0.07-0.04
		c0.18,0,0.37,0.01,0.55,0c0.14,0,0.28-0.02,0.41-0.04c0.09-0.01,0.13,0.02,0.13,0.11c0,0.02,0,0.04,0,0.06c0,0.03,0,0.07,0.04,0.09
		c0.04,0.02,0.07-0.01,0.1-0.03c0.19-0.18,0.42-0.26,0.68-0.24c0.24,0.01,0.4,0.14,0.44,0.34c0.02,0.12-0.01,0.22-0.09,0.31
		c-0.15,0.15-0.49,0.16-0.65,0.03c-0.11-0.09-0.13-0.26-0.02-0.39C48.46,53.18,48.51,53.15,48.58,53.1"/>
	<path fill="#FFFDFF" d="M59.32,53.09c-0.35-0.01-0.63,0.25-0.64,0.58c-0.01,0.39,0,0.77,0,1.16c0,0.24,0.1,0.33,0.39,0.36
		c0.04,0.01,0.14-0.04,0.13,0.06c-0.01,0.07-0.09,0.04-0.13,0.03c-0.48-0.02-0.97-0.02-1.45,0c-0.03,0-0.09,0.03-0.09-0.04
		c0-0.07,0.05-0.05,0.09-0.05c0.19-0.03,0.27-0.1,0.27-0.29c0-0.48,0-0.97,0-1.45c0-0.23-0.08-0.31-0.29-0.35
		c-0.03,0-0.06,0-0.06-0.05c0-0.06,0.04-0.04,0.07-0.04c0.29,0.01,0.58,0.01,0.87-0.02c0.02,0,0.04,0,0.06,0
		c0.16-0.02,0.16-0.02,0.16,0.13c0,0.04,0,0.09,0.04,0.11c0.05,0.02,0.08-0.02,0.11-0.04c0.23-0.21,0.49-0.28,0.79-0.21
		c0.22,0.05,0.34,0.21,0.32,0.42c-0.01,0.18-0.17,0.31-0.38,0.32c-0.07,0-0.15,0-0.22-0.02c-0.24-0.07-0.31-0.3-0.14-0.49
		C59.22,53.17,59.27,53.14,59.32,53.09"/>
	<path fill="#FFFDFF" d="M31.23,54.05c0,0.25,0,0.51,0,0.76c0,0.1-0.01,0.22,0.11,0.27c0.13,0.05,0.25,0.03,0.36-0.05
		c0.05-0.04,0.09-0.09,0.12-0.14c0.02-0.04,0.04-0.04,0.08-0.02c0.06,0.02,0.02,0.06,0.01,0.08c-0.15,0.27-0.38,0.38-0.67,0.39
		c-0.11,0.01-0.21,0-0.31-0.02c-0.32-0.06-0.48-0.25-0.49-0.6c-0.01-0.49,0-0.98,0-1.46c0-0.16,0-0.16-0.16-0.16
		c-0.07,0-0.15,0-0.23,0c-0.03,0-0.08,0.02-0.08-0.05c0-0.06,0.05-0.04,0.09-0.04c0.09,0,0.18,0,0.27,0c0.08,0,0.12-0.03,0.11-0.11
		c0-0.12,0-0.25,0-0.37c0-0.07,0.02-0.1,0.1-0.1c0.2-0.01,0.4-0.03,0.58-0.1c0.08-0.03,0.12,0,0.12,0.08c0,0.16,0,0.32,0,0.48
		c0,0.08,0.03,0.12,0.12,0.12c0.15,0,0.31,0,0.46,0c0.03,0,0.07-0.02,0.08,0.04c0,0.06-0.04,0.05-0.08,0.05c-0.13,0-0.27,0-0.41,0
		c-0.17,0-0.17,0-0.17,0.17C31.23,53.53,31.23,53.79,31.23,54.05"/>
	<path fill="#FFFDFF" d="M42.51,52.11c0.4,0,0.62,0.31,0.51,0.69c-0.08,0.26-0.27,0.42-0.51,0.51c-0.04,0.02-0.06,0-0.08-0.03
		c-0.02-0.05,0.03-0.05,0.05-0.06c0.1-0.05,0.19-0.11,0.26-0.19c0.04-0.05,0.08-0.1,0.09-0.16c0.01-0.06,0.05-0.13,0-0.17
		c-0.04-0.03-0.08,0.03-0.13,0.04c-0.14,0.05-0.29,0.04-0.43-0.01c-0.13-0.05-0.2-0.15-0.21-0.28c0-0.13,0.07-0.23,0.18-0.29
		C42.34,52.12,42.43,52.1,42.51,52.11"/>
	<path fill="#FFFDFF" d="M29.36,52.59c-0.33-0.07-0.66-0.15-0.97-0.28c-0.07-0.03-0.12-0.03-0.19,0.01
		c-0.23,0.12-0.47,0.2-0.72,0.27c-0.04,0.01-0.08,0.02-0.1-0.02c-0.02-0.05,0.04-0.05,0.06-0.06c0.35-0.19,0.64-0.44,0.87-0.76
		c0.06-0.09,0.12-0.09,0.17-0.01c0.23,0.33,0.53,0.59,0.89,0.77c0.02,0.01,0.07,0.01,0.06,0.05C29.42,52.59,29.39,52.59,29.36,52.59
		"/>
	<path fill="#FFFDFF" d="M61.9,46.54c0,0.04,0,0.08,0,0.12c0,0.74,0,1.49,0,2.23c0,0.09-0.02,0.12-0.11,0.11
		c-0.21-0.01-0.43,0-0.64,0c-0.08,0-0.09-0.02-0.09-0.1c0-1.08,0-2.15,0-3.23c0-0.07,0.01-0.1,0.09-0.1c0.37,0,0.74,0,1.11,0
		c0.08,0,0.09,0.03,0.1,0.1c0.11,0.62,0.22,1.24,0.33,1.86c0,0.01,0,0.03,0.02,0.04c0.05-0.25,0.09-0.51,0.14-0.76
		c0.07-0.39,0.14-0.77,0.2-1.16c0.01-0.05,0.03-0.07,0.09-0.07c0.38,0,0.76,0,1.14,0c0.07,0,0.08,0.03,0.08,0.08
		c0,1.08,0,2.17,0,3.25c0,0.06-0.02,0.08-0.08,0.08c-0.22,0-0.44-0.01-0.66,0c-0.1,0-0.1-0.04-0.1-0.11c0-0.74,0-1.49,0-2.23
		c0-0.04,0-0.08,0-0.12c-0.01,0-0.02,0-0.02,0c-0.03,0.17-0.07,0.34-0.1,0.51c-0.12,0.62-0.23,1.24-0.34,1.85
		c-0.01,0.08-0.05,0.11-0.13,0.1c-0.15-0.01-0.29-0.01-0.44,0c-0.09,0.01-0.11-0.03-0.12-0.1c-0.13-0.7-0.26-1.4-0.39-2.1
		c-0.02-0.09-0.03-0.17-0.05-0.26C61.92,46.54,61.91,46.54,61.9,46.54"/>
	<path fill="#FFFDFF" d="M20.04,47.64c0-0.64,0-1.27,0-1.91c0-0.15,0-0.15,0.15-0.15c0.2,0,0.4,0,0.6,0c0.07,0,0.1,0.01,0.1,0.09
		c0,1.08,0,2.16,0,3.24c0,0.07-0.01,0.09-0.09,0.09c-0.27,0-0.54,0-0.81,0c-0.07,0-0.09-0.02-0.11-0.09
		c-0.17-0.63-0.35-1.25-0.53-1.88c-0.01-0.03-0.02-0.07-0.05-0.1c0,0.04,0,0.08,0,0.11c0,0.61,0,1.23,0,1.84
		c0,0.09-0.02,0.12-0.11,0.11C18.97,49,18.76,49,18.54,49c-0.08,0-0.09-0.03-0.09-0.1c0-1.08,0-2.16,0-3.24
		c0-0.07,0.02-0.09,0.09-0.08c0.27,0,0.55,0,0.82,0c0.07,0,0.1,0.02,0.12,0.09c0.17,0.64,0.35,1.28,0.53,1.92
		c0,0.01,0.01,0.03,0.01,0.04C20.03,47.64,20.03,47.64,20.04,47.64"/>
	<path fill="#FFFDFF" d="M53.94,47.64c0.03-0.05,0.02-0.09,0.02-0.13c0-0.61,0-1.21,0-1.82c0-0.08,0.02-0.11,0.1-0.11
		c0.22,0.01,0.43,0,0.65,0c0.07,0,0.09,0.01,0.09,0.08c0,1.08,0,2.17,0,3.25c0,0.06-0.02,0.08-0.08,0.08c-0.28,0-0.55,0-0.83,0
		c-0.07,0-0.08-0.04-0.1-0.09c-0.18-0.63-0.36-1.26-0.53-1.89c-0.01-0.03-0.02-0.06-0.03-0.1c-0.03,0.04-0.02,0.07-0.02,0.11
		c0,0.62,0,1.25,0,1.87c0,0.09-0.03,0.11-0.11,0.11c-0.21-0.01-0.43,0-0.64,0c-0.07,0-0.09-0.02-0.09-0.09c0-1.08,0-2.17,0-3.25
		c0-0.06,0.02-0.08,0.08-0.08c0.28,0,0.56,0,0.84,0c0.07,0,0.08,0.03,0.1,0.09c0.17,0.62,0.34,1.24,0.51,1.86
		C53.91,47.56,53.92,47.6,53.94,47.64"/>
	<path fill="#FFFDFF" d="M31.85,46.92c0,0.52,0,1.04,0,1.56c0,0.15,0,0.3,0,0.45c0,0.06-0.02,0.08-0.08,0.08
		c-0.22,0-0.44-0.01-0.65,0c-0.09,0-0.11-0.02-0.11-0.11c0-0.77,0-1.54,0-2.32c0-0.3,0-0.6,0-0.9c0-0.07,0.01-0.1,0.09-0.09
		c0.28,0,0.55,0,0.83,0c0.07,0,0.09,0.02,0.1,0.08c0.17,0.62,0.34,1.24,0.51,1.86c0.01,0.03,0.02,0.07,0.05,0.1
		c0-0.04,0-0.08,0-0.11c0-0.6,0-1.21,0-1.81c0-0.1,0.03-0.12,0.12-0.12c0.21,0.01,0.42,0,0.63,0c0.06,0,0.09,0.01,0.09,0.08
		c0,1.08,0,2.17,0,3.25c0,0.07-0.02,0.09-0.09,0.09c-0.27,0-0.54,0-0.81,0c-0.07,0-0.09-0.02-0.11-0.09
		c-0.18-0.63-0.36-1.27-0.54-1.9c-0.01-0.04-0.02-0.07-0.03-0.1C31.86,46.91,31.86,46.92,31.85,46.92"/>
	<path fill="#FFFDFF" d="M37.81,47.29c0-0.53,0-1.07,0-1.6c0-0.08,0.01-0.12,0.11-0.11c0.39,0.01,0.78,0,1.17,0
		c0.12,0,0.25,0,0.37,0.03c0.3,0.07,0.49,0.25,0.61,0.53c0.09,0.21,0.11,0.44,0.12,0.67c0.02,0.46,0.04,0.92-0.05,1.37
		c-0.11,0.55-0.41,0.79-0.96,0.81c-0.43,0.01-0.86,0-1.29,0.01c-0.09,0-0.07-0.05-0.07-0.1C37.81,48.36,37.81,47.83,37.81,47.29
		 M38.71,47.29c0,0.33,0,0.65,0,0.98c0,0.03-0.03,0.09,0.04,0.09c0.33,0,0.45,0,0.5-0.38c0-0.01,0-0.02,0-0.04
		c0.03-0.43,0.03-0.86,0-1.29c-0.02-0.35-0.12-0.43-0.46-0.43c-0.07,0-0.09,0.02-0.09,0.09C38.71,46.64,38.71,46.96,38.71,47.29"/>
	<path fill="#FFFDFF" d="M44.92,47.28c0-0.33,0-0.66,0-0.99c0-0.42,0.28-0.71,0.7-0.71c0.31,0,0.61,0,0.92,0
		c0.12,0,0.23,0.04,0.32,0.11c0.29,0.24,0.4,0.56,0.38,0.93c0,0.04-0.02,0.05-0.06,0.05c-0.25,0-0.5,0-0.75,0
		c-0.05,0-0.06-0.02-0.06-0.07c0-0.08,0.04-0.18-0.02-0.23c-0.06-0.05-0.17-0.01-0.25-0.02c-0.07,0-0.14,0.01-0.21,0
		c-0.08-0.01-0.1,0.02-0.1,0.1c0,0.51,0,1.03,0,1.54c0,0.22,0,0.22,0.21,0.22c0.09,0,0.17-0.01,0.26,0c0.08,0.01,0.12-0.01,0.11-0.1
		c-0.01-0.1-0.01-0.2,0-0.3c0-0.06-0.02-0.08-0.08-0.08c-0.21,0-0.2-0.01-0.2-0.21c0-0.11,0-0.22,0-0.33c0-0.05,0.01-0.07,0.07-0.07
		c0.34,0,0.68,0,1.01,0c0.08,0,0.08,0.04,0.08,0.09c0,0.37,0,0.74,0,1.11c-0.01,0.38-0.27,0.66-0.66,0.67c-0.33,0.01-0.67,0.01-1,0
		c-0.39-0.01-0.66-0.3-0.67-0.69c0-0.01,0-0.02,0-0.02C44.92,47.95,44.92,47.62,44.92,47.28"/>
	<path fill="#FFFDFF" d="M55.33,47.29c0-0.33,0-0.67,0-1c0-0.42,0.28-0.7,0.71-0.7c0.3,0,0.61,0,0.91,0c0.13,0,0.25,0.04,0.34,0.12
		c0.28,0.24,0.38,0.55,0.36,0.91c0,0.05-0.03,0.05-0.07,0.05c-0.25,0-0.5,0-0.75,0c-0.04,0-0.06-0.01-0.06-0.06c0,0,0-0.01,0-0.01
		c-0.01-0.08,0.03-0.18-0.02-0.23c-0.05-0.05-0.16-0.01-0.24-0.02c-0.08,0-0.15,0-0.23,0c-0.08-0.01-0.1,0.02-0.1,0.1
		c0,0.43,0,0.87,0,1.3c0,0.13,0,0.25,0,0.38c0,0.05,0.01,0.07,0.07,0.07c0.14,0,0.29,0,0.44,0c0.05,0,0.07-0.01,0.07-0.07
		c0-0.12,0-0.23,0-0.35c0-0.07-0.03-0.07-0.08-0.07c-0.21,0-0.21,0-0.21-0.21c0-0.11,0-0.21,0-0.32c0-0.05,0.01-0.08,0.07-0.08
		c0.34,0,0.68,0,1.02,0c0.06,0,0.07,0.03,0.07,0.07c0,0.39,0,0.77,0,1.16c-0.01,0.36-0.29,0.63-0.66,0.65
		c-0.33,0.01-0.66,0.01-0.99,0c-0.39-0.01-0.66-0.29-0.67-0.69c0-0.01,0-0.01,0-0.02C55.33,47.96,55.33,47.62,55.33,47.29"/>
	<path fill="#FFFDFF" d="M48.68,46.9c0,0.38,0,0.76,0,1.14c0,0.08,0,0.15,0.02,0.22c0.03,0.13,0.12,0.21,0.25,0.21
		c0.13,0,0.21-0.07,0.24-0.2c0.02-0.08,0.02-0.16,0.02-0.23c0-0.78,0-1.56,0-2.34c0-0.08,0.02-0.11,0.1-0.1c0.24,0.01,0.47,0,0.71,0
		c0.07,0,0.09,0.01,0.09,0.08c0,0.75,0,1.5,0,2.25c0,0.19-0.03,0.37-0.09,0.55c-0.11,0.3-0.32,0.49-0.64,0.55
		c-0.27,0.05-0.54,0.05-0.82,0.01c-0.42-0.07-0.66-0.31-0.74-0.75c-0.03-0.15-0.04-0.31-0.04-0.47c0-0.7,0-1.41,0-2.11
		c0-0.09,0.02-0.11,0.11-0.11c0.23,0.01,0.45,0.01,0.67,0c0.09,0,0.12,0.01,0.12,0.11C48.68,46.1,48.68,46.5,48.68,46.9"/>
	<path fill="#FFFDFF" d="M25.12,49c-0.3,0-0.6,0-0.89,0c-0.06,0-0.07-0.03-0.08-0.08c-0.02-0.15-0.05-0.3-0.06-0.44
		c-0.01-0.07-0.04-0.08-0.09-0.08c-0.18,0-0.37,0.01-0.55,0c-0.07,0-0.09,0.02-0.1,0.09c-0.02,0.15-0.05,0.3-0.07,0.45
		C23.27,48.98,23.27,49,23.21,49c-0.29,0-0.58,0-0.88,0c0.08-0.33,0.15-0.65,0.23-0.97c0.19-0.77,0.37-1.54,0.55-2.31
		c0.03-0.11,0.06-0.13,0.17-0.13c0.3,0.01,0.61,0,0.91,0c0.05,0,0.09,0,0.1,0.07C24.57,46.76,24.85,47.87,25.12,49 M23.73,46.3
		c0,0-0.01,0-0.02,0c-0.07,0.44-0.15,0.88-0.23,1.32c-0.01,0.08-0.01,0.12,0.09,0.11c0.1-0.01,0.2,0,0.3,0c0.07,0,0.1,0,0.08-0.09
		c-0.03-0.14-0.05-0.28-0.07-0.42C23.83,46.92,23.78,46.61,23.73,46.3"/>
	<path fill="#FFFDFF" d="M30.08,49c-0.13,0-0.27,0-0.4,0c-0.05,0-0.07-0.01-0.08-0.07c-0.02-0.15-0.04-0.3-0.07-0.44
		c-0.01-0.06-0.03-0.1-0.1-0.09c-0.18,0.01-0.36,0.01-0.54,0c-0.07,0-0.09,0.02-0.1,0.09c-0.01,0.14-0.04,0.28-0.06,0.42
		C28.72,48.98,28.7,49,28.63,49c-0.26,0-0.52,0-0.78,0c-0.07,0-0.08-0.02-0.06-0.08c0.26-1.08,0.52-2.17,0.78-3.25
		c0.02-0.07,0.04-0.09,0.11-0.09c0.32,0,0.64,0,0.96,0c0.06,0,0.09,0.01,0.1,0.08c0.26,1.08,0.53,2.17,0.8,3.25
		c0.02,0.08,0,0.1-0.08,0.09C30.33,49,30.21,49,30.08,49 M29.16,46.29c-0.01,0.02-0.02,0.03-0.02,0.05
		c-0.08,0.45-0.15,0.89-0.23,1.34c-0.01,0.06,0.02,0.05,0.06,0.05c0.11,0,0.22-0.01,0.34,0c0.1,0.01,0.1-0.03,0.08-0.11
		C29.31,47.18,29.24,46.74,29.16,46.29"/>
	<path fill="#FFFDFF" d="M60.24,49c-0.13,0-0.26,0-0.39,0c-0.06,0-0.08-0.01-0.09-0.07c-0.02-0.15-0.05-0.3-0.07-0.46
		c-0.01-0.06-0.03-0.08-0.09-0.08c-0.19,0-0.38,0-0.56,0c-0.06,0-0.08,0.02-0.08,0.07c-0.02,0.15-0.05,0.29-0.07,0.44
		c-0.01,0.06-0.03,0.09-0.1,0.09c-0.25,0-0.51,0-0.76,0c-0.07,0-0.09-0.02-0.07-0.09c0.26-1.08,0.52-2.17,0.78-3.25
		c0.01-0.06,0.04-0.08,0.11-0.08c0.32,0,0.64,0,0.97,0c0.06,0,0.08,0.01,0.1,0.08c0.26,1.09,0.53,2.17,0.8,3.26
		c0.02,0.08-0.01,0.09-0.07,0.09C60.51,49,60.38,49,60.24,49 M59.33,46.3c-0.01,0.03-0.02,0.04-0.03,0.06
		c-0.07,0.44-0.15,0.88-0.22,1.32c-0.01,0.06,0.01,0.06,0.06,0.06c0.11,0,0.23,0,0.34,0c0.08,0,0.1-0.02,0.08-0.1
		C59.48,47.19,59.41,46.75,59.33,46.3"/>
	<path fill="#FFFDFF" d="M40.88,47.29c0-0.54,0-1.07,0-1.61c0-0.08,0.02-0.11,0.11-0.1c0.61,0,1.23,0,1.84,0
		c0.08,0,0.1,0.02,0.1,0.1c-0.01,0.18-0.01,0.35,0,0.53c0,0.08-0.02,0.1-0.1,0.1c-0.32-0.01-0.64,0-0.96,0
		c-0.07,0-0.1,0.01-0.09,0.09c0.01,0.13,0.01,0.27,0,0.4c0,0.07,0.02,0.09,0.09,0.09c0.29,0,0.59,0,0.89,0c0.07,0,0.1,0.01,0.1,0.09
		c-0.01,0.18,0,0.35,0,0.53c0,0.06-0.02,0.08-0.08,0.08c-0.3,0-0.6,0-0.9,0c-0.07,0-0.1,0.02-0.09,0.09c0.01,0.17,0.01,0.34,0,0.51
		c0,0.07,0.02,0.09,0.09,0.09c0.33,0,0.66,0,0.99,0c0.08,0,0.12,0.01,0.12,0.11c-0.01,0.18-0.01,0.35,0,0.53
		c0,0.08-0.02,0.1-0.1,0.1c-0.63,0-1.26,0-1.89,0c-0.08,0-0.1-0.02-0.1-0.1C40.88,48.37,40.88,47.83,40.88,47.29"/>
	<path fill="#FFFDFF" d="M15.74,47.29c0-0.54,0-1.07,0-1.61c0-0.08,0.02-0.1,0.1-0.1c0.61,0,1.23,0,1.84,0c0.08,0,0.1,0.02,0.1,0.1
		c-0.01,0.18-0.01,0.35,0,0.53c0,0.09-0.03,0.1-0.11,0.1c-0.31,0-0.63,0-0.94,0c-0.07,0-0.1,0.02-0.09,0.09c0.01,0.14,0,0.28,0,0.42
		c0,0.07,0.02,0.08,0.08,0.08c0.3,0,0.6,0,0.9,0c0.07,0,0.09,0.01,0.09,0.09c-0.01,0.18-0.01,0.35,0,0.53
		c0,0.07-0.01,0.09-0.09,0.09c-0.29,0-0.58,0-0.88,0c-0.08,0-0.11,0.01-0.11,0.1c0.01,0.16,0.01,0.33,0,0.49
		c0,0.07,0.02,0.09,0.09,0.09c0.33,0,0.67,0,1,0c0.08,0,0.1,0.02,0.1,0.1c0,0.18,0,0.37,0,0.55c0,0.06-0.02,0.08-0.08,0.08
		c-0.64,0-1.28,0-1.92,0c-0.08,0-0.08-0.04-0.08-0.1C15.74,48.37,15.74,47.83,15.74,47.29"/>
	<path fill="#FFFDFF" d="M26.45,48.13c0.08-0.54,0.15-1.09,0.23-1.63c0.04-0.28,0.08-0.56,0.12-0.85c0-0.04,0-0.07,0.06-0.07
		c0.3,0,0.6,0,0.9,0c-0.14,0.65-0.28,1.29-0.42,1.93c-0.1,0.46-0.2,0.93-0.3,1.39C27.02,48.97,27,49,26.92,49c-0.33,0-0.65,0-0.98,0
		c-0.06,0-0.09-0.01-0.11-0.08c-0.23-1.08-0.46-2.17-0.69-3.25c-0.01-0.06-0.02-0.09,0.07-0.09c0.26,0,0.52,0,0.78,0
		c0.06,0,0.08,0.02,0.09,0.08c0.1,0.71,0.2,1.42,0.3,2.13c0.02,0.11,0.03,0.23,0.05,0.34C26.44,48.14,26.44,48.14,26.45,48.13"/>
	<path fill="#FFFDFF" d="M65.02,47.28c0-0.53,0-1.06,0-1.6c0-0.08,0.01-0.11,0.1-0.11c0.41,0,0.83,0,1.24,0c0.59,0,0.95,0.33,1,0.92
		c0.01,0.15,0,0.29-0.03,0.44c-0.09,0.43-0.39,0.69-0.85,0.74c-0.15,0.02-0.31,0.02-0.46,0.02c-0.08,0-0.11,0.01-0.11,0.1
		c0.01,0.36,0,0.73,0,1.09c0,0.1-0.03,0.12-0.12,0.11C65.57,49,65.34,49,65.11,49c-0.08,0-0.1-0.02-0.1-0.1
		C65.02,48.36,65.02,47.82,65.02,47.28 M65.92,46.64c0,0.12,0,0.23,0,0.35c0,0.02-0.01,0.05,0.03,0.06
		c0.12,0.04,0.35-0.02,0.41-0.12c0.11-0.18,0.11-0.37,0.02-0.56c-0.08-0.16-0.24-0.15-0.39-0.16c-0.06,0-0.07,0.02-0.07,0.07
		C65.92,46.41,65.92,46.52,65.92,46.64"/>
	<path fill="#FFFDFF" d="M35.52,47.67c0,0.41,0,0.83,0,1.24c0,0.07-0.02,0.1-0.09,0.09c-0.23,0-0.46-0.01-0.69,0
		c-0.1,0-0.13-0.02-0.12-0.12c0-0.81,0-1.62,0.01-2.43c0-0.1-0.03-0.13-0.13-0.12c-0.16,0.01-0.31,0-0.47,0
		c-0.05,0-0.07-0.02-0.07-0.07c0-0.21,0-0.41,0-0.62c0-0.06,0.02-0.07,0.07-0.07c0.7,0,1.39,0,2.09,0c0.06,0,0.08,0.02,0.07,0.07
		c0,0.2,0,0.41,0,0.61c0,0.06-0.02,0.07-0.08,0.07c-0.16,0-0.32,0.01-0.48,0c-0.11-0.01-0.12,0.03-0.12,0.13
		C35.52,46.86,35.52,47.27,35.52,47.67"/>
	<path fill="#FFFDFF" d="M51.67,47.28c0,0.54,0,1.08,0,1.62c0,0.08-0.02,0.1-0.1,0.1c-0.24,0-0.48,0-0.72,0
		c-0.06,0-0.08-0.02-0.08-0.08c0-1.09,0-2.17,0-3.26c0-0.06,0.02-0.08,0.08-0.08c0.24,0,0.49,0,0.73,0c0.08,0,0.09,0.03,0.09,0.1
		C51.67,46.21,51.67,46.75,51.67,47.28"/>
	<path fill="#E20517" d="M46.62,33.57c-1.02,0-2.05,0-3.07,0c0-0.28-0.01-0.55,0-0.83c0-0.1-0.03-0.12-0.12-0.12
		c-1.59,0-3.18,0-4.77,0c-0.11,0-0.14-0.02-0.14-0.13c0-1.12,0-2.23,0-3.35c0-0.09,0.02-0.12,0.12-0.12c1.58,0,3.17,0,4.76,0
		c0.05,0,0.1,0,0.15,0c0.47,0,0.95,0,1.43,0c0.96,0,1.92,0,2.88,0c-0.13,0.48-0.26,0.97-0.39,1.45c-0.28,1.02-0.56,2.04-0.83,3.06
		C46.63,33.55,46.63,33.56,46.62,33.57"/>
	<path fill="#E20517" d="M57.21,33.57c-0.93,0-1.86,0-2.79,0c-0.12-0.42-0.24-0.83-0.35-1.25c-0.29-1.08-0.59-2.16-0.88-3.24
		c0-0.02,0-0.04-0.01-0.05c1.34,0,2.69,0,4.03,0c0,0.07,0,0.13,0,0.2c0,1.4,0,2.8,0,4.21C57.21,33.48,57.21,33.52,57.21,33.57"/>
	<path fill="#010101" d="M62.32,33.57c0,0.87,0,1.73,0,2.6c0,0.08,0.02,0.1,0.1,0.1c0.57,0,1.15,0,1.72,0c0.1,0,0.12,0.03,0.12,0.12
		c0,0.8,0,1.61,0,2.41c0,0.1-0.03,0.11-0.12,0.11c-1.37,0-2.73,0-4.1,0c-0.06,0-0.11,0.01-0.11-0.09c0-1.74,0-3.48,0-5.22
		c0-0.01,0-0.02,0-0.03C60.73,33.57,61.52,33.57,62.32,33.57"/>
	<path fill="#FFFDFF" d="M24.15,31.16c-0.01,0.54-0.01,1.07,0.12,1.6c0.17,0.67,0.47,1.27,0.93,1.8c0.55,0.62,1.13,1.19,1.89,1.54
		c0.56,0.26,1.13,0.28,1.71,0.1c0.76-0.25,1.18-0.8,1.28-1.58c0.11-0.83-0.1-1.58-0.65-2.22c-0.51-0.58-1.15-0.81-1.91-0.63
		c-0.6,0.14-0.98,0.58-1.06,1.19c-0.06,0.44,0,0.85,0.29,1.21c0.38,0.48,1.01,0.59,1.51,0.45c0.18-0.05,0.31-0.16,0.35-0.36
		c0.06-0.27-0.05-0.46-0.32-0.53c-0.18-0.05-0.36-0.07-0.54-0.07c-0.13,0-0.22-0.05-0.26-0.17c-0.05-0.13-0.05-0.25,0.04-0.36
		c0.03-0.04,0.08-0.06,0.13-0.06c0.29-0.02,0.57,0.01,0.84,0.1c0.46,0.15,0.71,0.49,0.71,0.96c0.01,0.49-0.26,0.89-0.71,1.04
		c-1.31,0.43-2.68-0.48-2.67-1.92c0-0.34,0.06-0.67,0.2-0.97c0.32-0.68,0.87-1.04,1.6-1.14c0.97-0.13,1.74,0.24,2.33,1
		c0.7,0.89,0.89,1.91,0.6,3c-0.25,0.94-0.9,1.5-1.84,1.69c-0.97,0.2-1.88,0.02-2.74-0.46c-0.38-0.21-0.75-0.44-1.13-0.65
		c-0.9-0.48-1.85-0.62-2.85-0.45c-0.68,0.11-1.33,0.28-1.94,0.6c-0.39,0.21-0.75,0.46-1.01,0.83c-0.54,0.79-0.62,1.73,0.12,2.47
		c0.43,0.42,0.94,0.68,1.53,0.79c0.53,0.1,1.05,0.06,1.54-0.18c0.58-0.28,0.91-0.77,1.01-1.4c0.04-0.24,0-0.48-0.11-0.7
		c-0.27-0.56-0.95-0.96-1.57-0.92c-0.56,0.04-1.12,0.53-1.23,1.07c-0.06,0.29,0.1,0.54,0.4,0.61c0.13,0.03,0.23-0.02,0.32-0.1
		c0.15-0.12,0.26-0.28,0.37-0.44c0.11-0.18,0.28-0.21,0.46-0.09c0.14,0.09,0.17,0.2,0.08,0.34c-0.15,0.26-0.33,0.5-0.58,0.68
		c-0.35,0.26-0.76,0.27-1.14,0.04c-0.39-0.25-0.6-0.66-0.51-1.08c0.26-1.28,1.67-2.06,2.93-1.38c0.57,0.31,0.99,0.75,1.14,1.4
		c0.14,0.59-0.02,1.14-0.33,1.64c-0.38,0.6-0.94,0.95-1.63,1.07c-1.26,0.23-2.35-0.15-3.21-1.09c-0.68-0.74-0.75-1.61-0.37-2.51
		c0.36-0.87,0.98-1.5,1.79-1.96c0.42-0.23,0.86-0.43,1.27-0.7c0.42-0.27,0.79-0.6,1.09-1c0.44-0.58,0.82-1.2,1-1.92
		c0.26-1.04,0.07-1.99-0.59-2.84c-0.54-0.69-1.3-0.91-2.13-0.6c-0.9,0.34-1.52,0.96-1.78,1.89c-0.19,0.69-0.02,1.3,0.48,1.81
		c0.37,0.38,0.83,0.5,1.34,0.35c0.53-0.15,0.96-0.43,1.14-0.98c0.18-0.56,0.02-1.05-0.39-1.46c-0.2-0.2-0.47-0.2-0.69-0.01
		c-0.13,0.11-0.14,0.25-0.11,0.4c0.04,0.18,0.12,0.35,0.21,0.52c0.06,0.1,0.07,0.2,0.01,0.3c-0.07,0.11-0.18,0.18-0.32,0.18
		c-0.07,0-0.12-0.04-0.16-0.1c-0.19-0.29-0.32-0.59-0.36-0.93c-0.05-0.49,0.29-0.93,0.82-1.06c0.41-0.1,0.76,0.02,1.05,0.31
		c0.94,0.98,0.74,2.45-0.37,3.12c-0.57,0.34-1.18,0.5-1.83,0.26c-0.8-0.29-1.27-0.9-1.44-1.73c-0.15-0.71,0.03-1.36,0.4-1.97
		c0.52-0.83,1.25-1.37,2.21-1.58c0.9-0.19,1.66,0.09,2.27,0.77c0.62,0.69,0.93,1.52,0.96,2.45C24.16,30.7,24.15,30.93,24.15,31.16
		 M24.42,34.7c-0.55-0.51-0.74-1.17-0.84-1.89c-0.13,0.78-0.62,1.28-1.21,1.71C23.08,34.36,23.76,34.42,24.42,34.7 M22.34,34.53
		C22.35,34.53,22.35,34.53,22.34,34.53c0.01-0.01,0-0.01,0-0.01C22.34,34.52,22.34,34.52,22.34,34.53
		C22.34,34.53,22.34,34.53,22.34,34.53"/>
	<path fill="#010101" d="M51.58,33.57c0.12,0.42,0.23,0.83,0.35,1.25c0.12,0.45,0.24,0.9,0.37,1.36h-3.57
		c0.07-0.27,0.15-0.54,0.22-0.8c0.16-0.58,0.32-1.17,0.48-1.75c0-0.02,0.01-0.03,0.02-0.05C50.16,33.57,50.87,33.57,51.58,33.57"/>
	<path fill="#E20517" d="M51.58,33.57c-0.71,0-1.42,0-2.14,0c0.13-0.47,0.25-0.95,0.38-1.42c0.23-0.83,0.45-1.67,0.69-2.53
		c0.06,0.21,0.11,0.38,0.15,0.56c0.3,1.11,0.6,2.22,0.9,3.32C51.58,33.52,51.58,33.55,51.58,33.57"/>
	<path fill="#E20517" d="M40.62,54.01c0,0.23,0,0.45,0,0.68c0,0.23-0.15,0.41-0.37,0.46c-0.23,0.05-0.42-0.04-0.52-0.25
		c-0.13-0.28-0.13-0.58-0.12-0.88c0.01-0.21,0.03-0.42,0.12-0.61c0.15-0.32,0.5-0.43,0.79-0.26c0.07,0.04,0.1,0.09,0.1,0.17
		C40.62,53.55,40.62,53.78,40.62,54.01"/>
	<path fill="#E20517" d="M44.38,54.02c-0.13,0-0.27,0-0.4,0c-0.1,0-0.13-0.04-0.08-0.13c0.14-0.3,0.28-0.59,0.43-0.89
		c0.02-0.04,0.03-0.08,0.09-0.07c0.05,0,0.06,0.04,0.07,0.07c0.14,0.3,0.27,0.59,0.41,0.89c0.05,0.1,0.02,0.13-0.09,0.14
		C44.66,54.02,44.52,54.02,44.38,54.02"/>
	<path fill="#E20517" d="M56.34,54.13c-0.01,0.25-0.01,0.48-0.08,0.7c-0.03,0.1-0.07,0.2-0.14,0.28c-0.17,0.2-0.44,0.2-0.6,0
		c-0.11-0.14-0.16-0.31-0.19-0.49c-0.05-0.37-0.05-0.74,0.03-1.1c0.03-0.11,0.07-0.21,0.14-0.31c0.18-0.25,0.47-0.25,0.65,0
		c0.12,0.17,0.16,0.38,0.18,0.58C56.34,53.92,56.34,54.04,56.34,54.13"/>
	<path fill="#E20517" d="M28.92,54.13c-0.01,0.25-0.02,0.48-0.08,0.7c-0.03,0.1-0.07,0.19-0.14,0.27c-0.17,0.21-0.44,0.21-0.61,0
		c-0.12-0.15-0.17-0.33-0.19-0.51c-0.05-0.36-0.05-0.72,0.03-1.07c0.02-0.1,0.06-0.19,0.11-0.28c0.18-0.29,0.51-0.29,0.7,0.01
		c0.1,0.16,0.13,0.34,0.15,0.52C28.91,53.9,28.92,54.02,28.92,54.13"/>
	<path fill="#E20517" d="M33.37,53.84c-0.11,0-0.22,0-0.33,0c-0.06,0-0.1-0.02-0.1-0.09c0.02-0.2,0.05-0.38,0.17-0.55
		c0.08-0.11,0.19-0.18,0.34-0.16c0.15,0.01,0.22,0.12,0.27,0.24c0.06,0.14,0.08,0.29,0.08,0.45c0,0.08-0.04,0.11-0.12,0.11
		C33.59,53.84,33.48,53.84,33.37,53.84"/>
	<path fill="#010101" d="M38.71,47.29c0-0.33,0-0.65,0-0.98c0-0.07,0.01-0.09,0.09-0.09c0.34,0,0.44,0.08,0.46,0.43
		c0.03,0.43,0.03,0.86,0,1.29c0,0.01,0,0.02,0,0.04c-0.05,0.39-0.17,0.39-0.5,0.38c-0.07,0-0.04-0.06-0.04-0.09
		C38.71,47.94,38.71,47.61,38.71,47.29"/>
	<path fill="#010101" d="M23.73,46.3c0.05,0.31,0.1,0.61,0.16,0.92c0.02,0.14,0.04,0.28,0.07,0.42c0.02,0.09-0.01,0.09-0.08,0.09
		c-0.1,0-0.2-0.01-0.3,0c-0.1,0.01-0.1-0.03-0.09-0.11c0.08-0.44,0.15-0.88,0.23-1.32C23.72,46.3,23.72,46.3,23.73,46.3"/>
	<path fill="#010101" d="M29.16,46.29c0.08,0.45,0.15,0.89,0.23,1.33c0.01,0.08,0.01,0.12-0.08,0.11c-0.11-0.01-0.22,0-0.34,0
		c-0.04,0-0.06,0-0.06-0.05c0.08-0.45,0.15-0.89,0.23-1.34C29.15,46.33,29.15,46.32,29.16,46.29"/>
	<path fill="#010101" d="M59.33,46.3c0.08,0.46,0.15,0.9,0.23,1.33c0.02,0.08,0,0.1-0.08,0.1c-0.11-0.01-0.23,0-0.34,0
		c-0.04,0-0.07,0-0.06-0.06c0.08-0.44,0.15-0.88,0.22-1.32C59.31,46.34,59.32,46.33,59.33,46.3"/>
	<path fill="#010101" d="M65.92,46.64c0-0.12,0-0.23,0-0.35c0-0.05,0.01-0.07,0.07-0.07c0.15,0,0.31-0.01,0.39,0.16
		c0.09,0.19,0.09,0.38-0.02,0.56c-0.06,0.1-0.3,0.16-0.41,0.12c-0.04-0.01-0.03-0.04-0.03-0.06C65.92,46.87,65.92,46.76,65.92,46.64
		"/>
	<path fill="#010101" d="M24.42,34.7c-0.66-0.28-1.35-0.33-2.05-0.18c0.59-0.43,1.07-0.93,1.21-1.71
		C23.68,33.53,23.87,34.19,24.42,34.7"/>
	<polyline fill="#010101" points="22.34,34.53 22.34,34.53 22.35,34.52 22.35,34.53 22.34,34.53 	"/>
</g>
</svg>
