<?xml version="1.0" encoding="utf-8"?>
<!-- Generator: Adobe Illustrator 16.0.0, SVG Export Plug-In . SVG Version: 6.00 Build 0)  -->
<!DOCTYPE svg PUBLIC "-//W3C//DTD SVG 1.1//EN" "http://www.w3.org/Graphics/SVG/1.1/DTD/svg11.dtd">
<svg version="1.1" xmlns="http://www.w3.org/2000/svg" xmlns:xlink="http://www.w3.org/1999/xlink" x="0px" y="0px" width="80px"
	 height="80px" viewBox="0 0 80 80" enable-background="new 0 0 80 80" xml:space="preserve">
<g id="Ebene_1">
	<g>
		<path fill="#DC9D0F" d="M68.642,41.443c-0.611,6.237-2.997,12.226-6.331,17.51c-2.892,4.583-6.302,8.518-10.604,11.81
			c-3.49,2.671-7.093,4.894-11.199,6.48c-10.029-3.891-17.329-10.938-22.532-19.666c-3.43-5.751-5.273-11.96-5.667-18.631
			c-0.207-3.488,0.303-8.155,0.941-11.586c0.945-5.084,2.512-9.733,4.581-14.093l0.424-0.293c5.772-3.982,15.451-5.286,22.408-5.286
			c6.98,0,16.395,1.293,22.18,5.309l0.43,0.299C67.342,21.177,69.518,32.507,68.642,41.443L68.642,41.443z"/>
		<path fill="#006EB2" d="M19.558,14.861c5.082-3.502,13.938-5.116,20.949-5.116c7.008,0,15.925,1.594,21.025,5.137
			c3.289,5.808,5.907,17.953,5.062,26.169c-0.601,5.838-2.739,11.494-5.909,16.52c-2.752,4.362-6.298,8.249-10.376,11.37
			c-3.014,2.305-6.317,4.191-9.804,5.538c-8.089-3.001-16.011-10.075-20.875-18.235c-1.241-2.08-2.246-4.269-3.046-6.435
			c-1.315-3.551-2.078-7.339-2.3-11.078C13.826,30.985,16.899,19.449,19.558,14.861L19.558,14.861z"/>
		<path fill="#FFFFFF" d="M19.845,21.906c-2.024,5.987-3.703,13.373-2.763,20.288c0.315,2.329,0.808,4.532,1.653,6.821
			c1.147,3.097,2.716,6.129,4.599,8.853c1.2,1.732,2.571,3.363,4.037,4.896c3.725,3.891,8.405,6.949,13.12,8.936
			c4.248-1.569,8.073-4.115,11.393-7.141c2.63-2.397,4.95-5.183,6.858-8.212c1.984-3.145,3.559-6.58,4.55-10.171
			c0.723-2.608,0.981-5.215,1.006-7.912c0.055-5.523-1.112-11.184-3.025-16.313c-6.325-2.929-13.414-4.257-20.717-4.205
			C33.26,17.799,25.751,19.232,19.845,21.906L19.845,21.906z"/>
		<path fill="#006EB2" d="M21.983,22.723c-1.69,5.242-2.798,10.713-2.689,16.143c0.03,1.474,0.134,2.948,0.352,4.414
			c1.242,8.352,5.498,16.267,11.728,21.994c2.342,2.155,5.255,4.182,9.117,6.052c3.223-1.305,6.286-3.382,8.972-5.812
			c3.804-3.438,6.9-7.658,8.993-12.073c2.176-4.594,3.276-9.704,3.366-14.766c0.092-5.428-1.28-12.096-2.649-15.854
			c-5.711-2.866-12.164-4.164-18.634-4.116C34.2,18.747,27.964,19.932,21.983,22.723L21.983,22.723z"/>
		<path fill="#FFFFFF" d="M40.744,46.284c4.782,0,8.661,3.879,8.661,8.661c0,4.781-3.879,8.661-8.661,8.661
			c-4.783,0-8.661-3.88-8.661-8.661C32.083,50.163,35.96,46.284,40.744,46.284L40.744,46.284z"/>
		<path fill="#006EB2" d="M40.744,47.202c4.275,0,7.741,3.469,7.741,7.743c0,4.275-3.466,7.744-7.741,7.744
			c-4.275,0-7.743-3.469-7.743-7.744C33.001,50.671,36.469,47.202,40.744,47.202L40.744,47.202z"/>
		<path fill="#FFFFFF" d="M26.06,28.663c-0.6,0.1-1.031,0.321-1.288,0.665c-0.256,0.345-0.353,0.821-0.283,1.431l4.603-0.765
			l0.222,1.338l-4.612,0.772c0.116,0.67,0.341,1.128,0.68,1.373c0.338,0.245,0.844,0.31,1.517,0.198l2.731-0.457l0.223,1.34
			l-2.812,0.47c-0.619,0.104-1.116,0.133-1.487,0.091c-0.373-0.045-0.736-0.163-1.087-0.354c-0.46-0.247-0.83-0.605-1.118-1.075
			c-0.287-0.469-0.487-1.058-0.606-1.757c-0.226-1.361-0.092-2.415,0.406-3.166c0.5-0.748,1.383-1.227,2.656-1.44l2.762-0.462
			l0.224,1.34L26.06,28.663L26.06,28.663z"/>
		<path fill="#FFFFFF" d="M36.252,27.756l-3.333,0.198c-0.398,0.023-0.685,0.124-0.86,0.296c-0.179,0.175-0.256,0.436-0.235,0.787
			c0.017,0.285,0.109,0.392,0.275,0.525c0.165,0.131,0.407,0.188,0.719,0.168l1.732-0.095c0.822-0.048,1.416,0.186,1.784,0.502
			c0.368,0.32,0.574,0.873,0.622,1.667c0.048,0.8-0.121,1.401-0.499,1.801c-0.378,0.398-0.999,0.624-1.858,0.673l-3.993,0.236
			l-0.081-1.389l3.479-0.219c0.428-0.027,0.725-0.112,0.892-0.258c0.166-0.146,0.241-0.434,0.221-0.75
			c-0.018-0.326-0.112-0.551-0.281-0.679c-0.168-0.127-0.446-0.186-0.835-0.157l-1.497,0.104c-0.905,0.062-1.492-0.109-1.89-0.432
			c-0.411-0.328-0.626-0.833-0.671-1.605c-0.05-0.828,0.116-1.443,0.492-1.848c0.377-0.405,1.059-0.63,1.93-0.682l3.807-0.231
			L36.252,27.756L36.252,27.756z"/>
		<polygon fill="#FFFFFF" points="39.684,27.652 37.126,27.652 37.126,26.293 43.971,26.293 43.971,27.652 41.406,27.652 
			41.406,34.083 39.684,34.083 		"/>
		<path fill="#FFFFFF" d="M46.601,31.116l1.958,0.138l-0.79-2.718L46.601,31.116L46.601,31.116z M47.004,26.475l1.7,0.102
			l2.525,7.98l-1.779-0.108l-0.513-1.815l-2.891-0.181l-0.712,1.713l-1.765-0.103L47.004,26.475L47.004,26.475z"/>
		<path fill="#FFFFFF" d="M55.385,28.909c-0.624-0.09-1.067-0.081-1.405,0.308c-0.339,0.386-0.58,1.067-0.722,2.044
			c-0.123,0.846-0.062,1.325,0.155,1.71c0.213,0.387,0.644,0.625,1.29,0.72l2.481,0.363l-0.216,1.423l-2.555-0.374
			c-0.563-0.082-0.999-0.2-1.306-0.349c-0.309-0.15-0.584-0.369-0.832-0.655c-0.323-0.371-0.537-0.821-0.647-1.352
			c-0.112-0.532-0.116-1.093-0.013-1.794c0.2-1.365,0.622-2.333,1.267-2.903c0.646-0.568,1.546-0.768,2.699-0.601l2.512,0.367
			l-0.23,1.455L55.385,28.909L55.385,28.909z"/>
		<polygon fill="#EFD36A" points="24.309,39.387 22.862,39.387 22.862,38.729 26.739,38.729 26.739,39.387 25.286,39.387 
			25.286,42.508 24.309,42.508 		"/>
		<path fill="#EFD36A" d="M31.105,39.399h-1.158v0.952h1.158c0.312,0,0.53-0.036,0.652-0.108c0.123-0.075,0.184-0.195,0.184-0.371
			c0-0.172-0.059-0.293-0.18-0.366C31.642,39.433,31.425,39.399,31.105,39.399L31.105,39.399z M29.007,38.725h2.32
			c0.541,0,0.937,0.088,1.19,0.273c0.251,0.183,0.376,0.472,0.376,0.865c0,0.29-0.077,0.525-0.231,0.708
			c-0.158,0.185-0.381,0.303-0.673,0.354l1.119,1.582h-1.061l-0.99-1.488h-1.109v1.488h-0.941L29.007,38.725L29.007,38.725z"/>
		<path fill="#EFD36A" d="M35.212,40.577c0-0.649,0.184-1.135,0.553-1.452c0.37-0.318,0.93-0.476,1.685-0.476
			c0.758,0,1.322,0.16,1.686,0.481c0.366,0.322,0.546,0.816,0.546,1.488c0,0.669-0.181,1.164-0.546,1.486
			c-0.364,0.324-0.928,0.486-1.686,0.486c-0.769,0-1.332-0.164-1.694-0.488C35.394,41.778,35.212,41.268,35.212,40.577
			L35.212,40.577z M37.449,39.297c-0.405,0-0.708,0.106-0.907,0.32c-0.2,0.214-0.299,0.536-0.299,0.965
			c0,0.468,0.096,0.811,0.291,1.026c0.194,0.219,0.499,0.326,0.915,0.326c0.411,0,0.714-0.107,0.912-0.323
			c0.197-0.216,0.297-0.548,0.297-0.996c0-0.452-0.099-0.782-0.297-0.997C38.163,39.404,37.857,39.297,37.449,39.297L37.449,39.297z
			"/>
		<polygon fill="#EFD36A" points="41.496,38.725 42.558,38.725 43.665,40.167 44.786,38.725 45.881,38.725 44.147,40.837 
			44.147,42.508 43.208,42.508 43.208,40.837 		"/>
		<path fill="#EFD36A" d="M49.933,39.383c-0.34,0-0.599,0.072-0.773,0.216c-0.172,0.146-0.267,0.365-0.287,0.663l2.608,0.002v0.659
			h-2.612c0.002,0.33,0.082,0.567,0.249,0.711c0.161,0.145,0.436,0.218,0.815,0.218h1.548v0.656h-1.593
			c-0.353,0-0.628-0.027-0.83-0.075c-0.2-0.048-0.391-0.136-0.565-0.257c-0.229-0.153-0.401-0.355-0.516-0.604
			c-0.115-0.248-0.174-0.545-0.174-0.89c0-0.67,0.174-1.164,0.516-1.484c0.345-0.318,0.875-0.476,1.596-0.476h1.566v0.658h-1.548
			V39.383z"/>
		<path fill="#EFD36A" d="M57.907,39.399h-2.329c-0.251,0-0.435,0.038-0.551,0.12c-0.118,0.079-0.176,0.204-0.176,0.376
			c0,0.139,0.051,0.239,0.15,0.307c0.099,0.069,0.249,0.105,0.443,0.105h1.249c0.515,0,0.884,0.082,1.101,0.247
			c0.219,0.165,0.328,0.439,0.328,0.824c0,0.387-0.127,0.675-0.377,0.858c-0.253,0.185-0.648,0.272-1.188,0.272H54.05v-0.674h2.357
			c0.268,0,0.458-0.034,0.566-0.099c0.11-0.066,0.165-0.175,0.165-0.33c0-0.156-0.05-0.268-0.149-0.336
			c-0.103-0.067-0.273-0.101-0.517-0.101h-1.115c-0.516,0-0.893-0.085-1.133-0.259c-0.237-0.177-0.357-0.451-0.357-0.826
			c0-0.401,0.124-0.696,0.377-0.881c0.251-0.188,0.648-0.278,1.197-0.278h2.466V39.399L57.907,39.399z"/>
		<polygon fill="#FFFFFF" points="33.035,12.353 33.906,12.265 34.329,16.396 33.457,16.487 		"/>
		<path fill="#FFFFFF" d="M36.576,13.691l1.372-0.002c-0.009-0.378-0.095-0.644-0.263-0.801c-0.167-0.158-0.446-0.234-0.839-0.234
			c-0.269,0-0.462,0.043-0.583,0.128c-0.121,0.089-0.181,0.227-0.181,0.417c0,0.164,0.042,0.286,0.125,0.369
			C36.29,13.65,36.413,13.691,36.576,13.691L36.576,13.691z M36.525,14.396c-0.473,0-0.821-0.094-1.048-0.278
			c-0.225-0.188-0.335-0.478-0.335-0.87c0-0.43,0.15-0.754,0.448-0.974c0.299-0.22,0.74-0.331,1.323-0.331
			c0.687,0,1.191,0.169,1.515,0.509c0.324,0.338,0.484,0.866,0.484,1.581c0,0.732-0.172,1.268-0.511,1.608
			c-0.342,0.34-0.88,0.511-1.616,0.511h-1.427v-0.713h1.45c0.377,0,0.659-0.083,0.841-0.252c0.184-0.167,0.283-0.43,0.298-0.791
			L36.525,14.396L36.525,14.396z"/>
		<path fill="#FFFFFF" d="M40.437,14.067c-0.178-0.131-0.311-0.278-0.4-0.443c-0.089-0.167-0.132-0.35-0.132-0.555
			c0-0.367,0.106-0.639,0.318-0.813c0.214-0.174,0.543-0.26,0.994-0.26h1.076c0.443,0,0.776,0.086,0.991,0.26
			c0.216,0.174,0.321,0.441,0.321,0.802c0,0.208-0.043,0.396-0.133,0.563c-0.09,0.17-0.221,0.317-0.396,0.446
			c0.2,0.089,0.345,0.211,0.438,0.37c0.093,0.156,0.14,0.36,0.14,0.608c0,0.354-0.105,0.625-0.32,0.817
			c-0.214,0.193-0.518,0.288-0.913,0.288h-1.321c-0.398,0-0.704-0.095-0.918-0.288c-0.216-0.192-0.322-0.467-0.322-0.821
			c0-0.242,0.047-0.443,0.143-0.602C40.099,14.28,40.241,14.157,40.437,14.067L40.437,14.067z M41.449,14.42
			c-0.221,0-0.384,0.041-0.488,0.122s-0.158,0.21-0.158,0.386c0,0.175,0.052,0.305,0.156,0.386c0.102,0.082,0.266,0.123,0.49,0.123
			h0.614c0.225,0,0.391-0.041,0.495-0.123c0.104-0.081,0.157-0.21,0.157-0.386c0-0.174-0.054-0.301-0.158-0.385
			c-0.106-0.083-0.271-0.123-0.494-0.123H41.449L41.449,14.42z M41.46,12.704c-0.223,0-0.389,0.042-0.493,0.123
			c-0.105,0.083-0.158,0.21-0.158,0.385c0,0.171,0.053,0.296,0.155,0.376c0.105,0.08,0.269,0.121,0.496,0.121h0.604
			c0.225,0,0.391-0.041,0.491-0.121c0.104-0.08,0.156-0.205,0.156-0.376c0-0.175-0.053-0.305-0.156-0.385
			c-0.101-0.082-0.266-0.123-0.491-0.123H41.46L41.46,12.704z"/>
		<path fill="#FFFFFF" d="M46.919,14.771l-1.369-0.096c-0.025,0.366,0.042,0.635,0.198,0.812s0.419,0.276,0.792,0.303
			c0.279,0.02,0.487-0.009,0.614-0.087c0.131-0.078,0.201-0.214,0.218-0.407c0.011-0.163-0.022-0.29-0.096-0.378
			C47.199,14.832,47.081,14.783,46.919,14.771L46.919,14.771z M47.017,14.065c0.47,0.033,0.813,0.152,1.026,0.355
			c0.209,0.201,0.303,0.499,0.273,0.892c-0.03,0.426-0.201,0.738-0.518,0.936c-0.314,0.199-0.761,0.278-1.341,0.237
			c-0.686-0.046-1.179-0.251-1.477-0.608c-0.3-0.355-0.424-0.893-0.373-1.607c0.051-0.727,0.262-1.253,0.627-1.571
			c0.366-0.317,0.916-0.452,1.646-0.399l1.417,0.101l-0.049,0.706l-1.439-0.1c-0.395-0.029-0.688,0.035-0.877,0.187
			c-0.192,0.151-0.301,0.409-0.332,0.774L47.017,14.065L47.017,14.065z"/>
		<polygon fill="#FFFFFF" points="38.269,58.473 36.924,58.473 36.924,52.788 35.737,53.193 35.737,51.962 37.548,51.194 
			38.269,51.194 		"/>
		<path fill="#FFFFFF" d="M41.832,53.506v2.662c0,0.849,0.325,1.287,1.232,1.287c0.931,0,1.241-0.465,1.241-1.328v-2.723
			c0-0.8-0.358-1.097-1.232-1.097C42.184,52.307,41.832,52.664,41.832,53.506L41.832,53.506z M40.435,53.772
			c0-0.443,0.035-0.786,0.104-1.027c0.068-0.241,0.183-0.459,0.338-0.659c0.245-0.323,0.537-0.564,0.877-0.721
			c0.339-0.156,0.87-0.237,1.319-0.237c0.419,0,0.942,0.083,1.293,0.249c0.352,0.167,0.658,0.408,0.913,0.729
			c0.147,0.181,0.255,0.405,0.322,0.668c0.067,0.26,0.102,0.602,0.102,1.019v2.198c0,0.445-0.035,0.791-0.104,1.033
			c-0.07,0.245-0.183,0.463-0.336,0.666c-0.249,0.318-0.538,0.558-0.878,0.712c-0.341,0.156-0.869,0.234-1.321,0.234
			c-0.419,0-0.942-0.083-1.296-0.247c-0.351-0.167-0.653-0.41-0.913-0.73c-0.146-0.181-0.253-0.405-0.319-0.664
			c-0.067-0.261-0.102-0.598-0.102-1.014L40.435,53.772L40.435,53.772z"/>
	</g>
</g>
<g id="Calque_1">
</g>
</svg>
