<?xml version="1.0" encoding="utf-8"?>
<!-- Generator: Adobe Illustrator 16.0.0, SVG Export Plug-In . SVG Version: 6.00 Build 0)  -->
<!DOCTYPE svg PUBLIC "-//W3C//DTD SVG 1.1//EN" "http://www.w3.org/Graphics/SVG/1.1/DTD/svg11.dtd">
<svg version="1.1" id="Calque_1" xmlns="http://www.w3.org/2000/svg" xmlns:xlink="http://www.w3.org/1999/xlink" x="0px" y="0px"
	 width="80px" height="80px" viewBox="0 0 80 80" enable-background="new 0 0 80 80" xml:space="preserve">
<path fill="#FFFFFF" d="M39.445,76.386c0,0-10.486-5.299-17.086-14.109c-4.259-5.685-7.137-12.121-8.547-19.135
	c-1.759-8.734-1.24-18.388,1.543-28.693l0.065-0.241l0.228-0.106c0.098-0.047,9.408-4.657,23.798-4.657
	c8.447,0,17.399,1.562,25.354,4.642l0.254,0.1l0.072,0.262c0.031,0.112,3.059,11.319,1.409,24.468
	c-0.973,7.739-3.355,14.635-7.068,20.498c-4.647,7.333-11.404,13.044-20.084,16.979L39.445,76.386z"/>
<radialGradient id="SVGID_1_" cx="242.54" cy="241.8828" r="24.2509" gradientTransform="matrix(1 0 0 1.178 -203.6445 -242.2862)" gradientUnits="userSpaceOnUse">
	<stop  offset="0" style="stop-color:#11669F"/>
	<stop  offset="1" style="stop-color:#094896"/>
</radialGradient>
<path fill="url(#SVGID_1_)" d="M39.445,74.478l0.215-63.651c0,0-18.73,1.018-23.45,4.373C16.438,15.547,3.742,52.442,39.445,74.478z
	"/>
<radialGradient id="SVGID_2_" cx="244.8594" cy="354.918" r="24.3635" gradientTransform="matrix(1 0 0 1.082 -203.6445 -343.2546)" gradientUnits="userSpaceOnUse">
	<stop  offset="0" style="stop-color:#1C8ECF"/>
	<stop  offset="1" style="stop-color:#0C56A2"/>
</radialGradient>
<path fill="url(#SVGID_2_)" d="M63.096,15.201c-4.722-3.354-23.452-4.373-23.452-4.373l-0.299,63.649
	C75.633,60.398,64.422,16.156,63.096,15.201z"/>
<linearGradient id="SVGID_3_" gradientUnits="userSpaceOnUse" x1="-310.7852" y1="-1874.5" x2="-310.7852" y2="-1836.2856" gradientTransform="matrix(1 0 0 -1 349.2686 -1824.6387)">
	<stop  offset="0" style="stop-color:#EF7D00"/>
	<stop  offset="0.6" style="stop-color:#E6007E"/>
</linearGradient>
<path fill="url(#SVGID_3_)" d="M62.46,37.212c0.025-0.113-16.433-6.434-32.007,0.286c-0.169-1.146-0.5-2.239-1.054-3.245
	c-0.85-1.551-2.071-2.728-4.09-2.929c-0.492-0.052-0.983-0.106-1.478-0.138c3.407-0.74,6.825-1.748,10.009-4.281
	c4.094-3.238,7.358-7.369,9.13-11.898c0.038-0.1-0.288-0.273-0.595-0.1c0.024-0.123-0.083-0.197-0.2-0.173
	c-0.119,0.025-0.234,0.138-0.241,0.249l-0.82,1.269c0.356-0.702,0.684-1.412,0.965-2.133c0.038-0.102-0.29-0.277-0.595-0.102
	c0.024-0.124-0.08-0.199-0.201-0.174c-0.121,0.027-0.235,0.137-0.242,0.25c-2.489,3.881-5.081,7.779-9.086,10.731
	c-0.813,0.598-1.652,1.103-2.505,1.531c0.771-0.443,1.536-0.959,2.29-1.554c4.092-3.237,7.358-7.368,9.129-11.896
	c0.025-0.072-0.131-0.177-0.336-0.171l0.336-0.806c0.037-0.102-0.29-0.276-0.595-0.102c0.021-0.124-0.083-0.199-0.201-0.174
	c-0.12,0.025-0.236,0.137-0.241,0.249c-2.49,3.885-5.086,7.777-9.089,10.731C27.15,25.287,23.08,26.03,19.21,26.86
	c-0.52,0.125-0.957,0.608-0.976,1.095c-0.002,0.194,0.058,0.355,0.164,0.478c-0.098,0.157-0.158,0.326-0.164,0.498
	c-0.009,0.496,0.396,0.794,0.908,0.683l0.576-0.117c-0.16,0.19-0.264,0.418-0.271,0.648c-0.009,0.498,0.393,0.792,0.909,0.68
	l0.011-0.001l-0.027,0.211l0.017,0.181c-1.133-0.017-2.272,0.012-3.49,0.645c-0.133,0.039-0.238,0.148-0.247,0.272
	c0.002,0.125,0.096,0.199,0.225,0.176c4.002,0.248,9.337-1.179,11.23,2.952l0.211,0.5l-0.138-0.254
	c-0.848-1.553-2.072-2.731-4.092-2.929c-1.013-0.113-2.011-0.224-3.075-0.137c-1.783,0.158-3.48-0.312-5.368,0.668
	c-0.136,0.037-0.238,0.151-0.248,0.275c0.005,0.125,0.097,0.199,0.227,0.172l0.181,0.008c-0.336,0.098-0.675,0.227-1.02,0.406
	c-0.134,0.037-0.239,0.148-0.248,0.276c0.005,0.12,0.095,0.193,0.224,0.172c4.002,0.25,9.337-1.178,11.232,2.952
	c0.31,0.669,0.515,1.365,0.653,2.076c-1.853,1.091-3.675,2.392-5.429,3.946c0,0,1.907-1.548,5.542-3.268
	c0.171,1.305,0.124,2.662-0.027,4.038l-0.088,0.73c-0.194,1.468-0.472,2.95-0.692,4.397c-0.078,0.334,0.129,0.579,0.466,0.573
	c0.328-0.014,0.661-0.289,0.735-0.609l0.076-0.261l0.053,0.004c0.324-0.013,0.658-0.281,0.731-0.606l0.213-0.719
	c0.077,0.052,0.183,0.08,0.303,0.076c0.328-0.015,0.658-0.282,0.733-0.607c0.416-1.375,0.784-2.786,1.034-4.19l0.176-1.141
	c0.145-1.12,0.194-2.22,0.125-3.286C37.585,35.988,48.396,34.01,62.46,37.212L62.46,37.212z"/>
<path fill="#193C6C" d="M39.319,75.339l-0.277-0.129c-1.387-0.65-33.849-16.433-22.359-59.673l0.077-0.292l0.272-0.13
	c0.381-0.184,9.524-4.489,23.166-4.489c8.007,0,15.891,1.503,23.428,4.47l0.307,0.121l0.084,0.316
	c0.115,0.432,11.251,43.254-24.422,59.679L39.319,75.339z M17.865,16.171C7.289,56.587,35.984,72.23,39.326,73.898
	c32.76-15.323,24.445-53.82,23.507-57.709c-7.288-2.826-14.9-4.258-22.636-4.258C28.142,11.931,19.476,15.463,17.865,16.171z"/>
<path fill="#C6C6C6" d="M39.398,75.534c0,0-10.073-5.163-16.455-13.744c-4.118-5.54-6.9-11.811-8.264-18.642
	c-1.699-8.508-1.198-17.912,1.492-27.951l0.063-0.235l0.22-0.104c0.096-0.045,9.08-4.537,22.992-4.537
	c8.168,0,16.839,1.521,24.529,4.521l0.243,0.097l0.075,0.256c0.025,0.108,2.957,11.025,1.356,23.836
	C64.71,46.571,62.411,53.289,58.818,59C54.322,66.14,47.791,71.705,39.398,75.534z M17.123,15.711
	c-2.593,9.792-3.067,18.954-1.414,27.232c1.333,6.682,4.051,12.81,8.075,18.221c6.354,8.541,14.268,12.618,15.662,13.313
	c8.095-3.745,14.138-9.137,18.481-16.043c3.507-5.576,5.753-12.151,6.673-19.536c1.439-11.529-0.836-21.479-1.257-23.174
	c-7.494-2.885-15.947-4.351-23.897-4.351C26.919,11.374,18.607,15.056,17.123,15.711z"/>
<path fill="#FFFFFF" d="M42.324,68.168c-0.104,0-0.172-0.03-2.656-2.792l-0.137-0.151l0.166-0.115l0.02-0.099
	c-0.04-0.083-0.349-0.329-0.646-0.539c-0.167,0.129-0.423,0.368-0.48,0.612c-0.115,0.502-0.827,1.21-1.258,1.085
	c-0.112-0.031-0.235-0.111-0.391-0.21c-0.349-0.223-0.828-0.505-1.276-0.375l-1.523,0.127l-0.047-0.129
	c-0.133-0.368-0.636-1.38-1.196-1.128l-0.604,0.273l0.32-0.453c-0.123-0.154-0.443-0.438-0.591-0.438h-0.235l0.047-0.226
	c0.013-0.077,0.05-0.939,0.071-1.459l0.086-0.655l0.03-0.039c0.259-0.325,0.483-0.7,0.479-0.804
	c-0.093-0.14-0.292-0.357-0.294-0.363l-0.068-0.073l0.027-0.095c0.123-0.452,1.22-4.429,1.783-5.028l0.107-0.115l0.127,0.089
	c0.004,0,0.324,0.151,1.04,0.151c0.456,0,0.973-0.063,1.539-0.179l0.406-0.084l-0.133,0.222c0.256,0.179,0.908,0.6,1.374,0.895
	l0.065,0.04l0.11,0.539l0.847,0.974l0.138-0.175l0.82,0.54l-0.072,0.144c-0.065,0.131-0.115,0.292-0.12,0.373
	c0.301-0.015,0.834-0.225,1.021-0.392l0.179-0.208c0.175-0.22,0.402-0.467,0.688-0.387c0.299,0.083,0.767,0.385,0.786,0.396
	l0.115,0.079l-0.041,0.126c-0.011,0.041-0.025,0.149,0.012,0.204l0.129,0.062l0.208,0.009c0.546,0,1.479-0.157,1.818-0.595
	l0.36-0.505c0.537-0.769,0.915-1.27,1.291-1.27l0.151,0.029c0.419,0.178,0.75,0.393,0.764,0.402
	c0.018,0.004,0.249,0.109,0.298,0.322c0.018,0.092,0.012,0.226-0.127,0.374c-0.153,0.164-0.322,0.646-0.408,0.953
	c0.04,0.165,0.111,0.579-0.177,0.709l-0.21,0.087c-0.621,0.247-1.004,0.422-1.138,0.525c0.08,0.174,0.095,0.446-0.166,0.834
	c-0.156,0.237-0.823,0.963-1.149,1.013c-0.124,0.021-0.272-0.02-0.394-0.051l-0.063-0.022l-0.021,0.17
	c-0.038,0.274-0.138,1.014,0.037,1.153c0.469,0.373,0.07,3.426-0.226,3.963c-0.167,0.211-0.568,0.328-0.79,0.38
	c-0.084,0.268-0.328,0.952-0.709,1.258l-0.047,0.039h-0.066V68.168z M40.037,65.248c0.782,0.87,1.923,2.121,2.285,2.491
	c0.261-0.308,0.452-0.858,0.51-1.071l0.028-0.106l0.11-0.021c0.268-0.054,0.601-0.168,0.671-0.254
	c0.275-0.506,0.516-3.201,0.289-3.488c-0.299-0.243-0.245-0.865-0.161-1.477l0.026-0.225c0-0.16,0.108-0.267,0.27-0.267l0.242,0.046
	l0.221,0.043c0.174-0.032,0.737-0.565,0.928-0.854c0.086-0.134,0.222-0.378,0.119-0.522c-0.039-0.06-0.052-0.13-0.031-0.201
	c0.064-0.2,0.385-0.381,1.385-0.779l0.194-0.079c0.014-0.028,0.002-0.2-0.036-0.332l-0.016-0.046l0.014-0.051
	c0.025-0.085,0.229-0.861,0.511-1.149l0.034-0.05l-0.11-0.084c-0.033-0.015-0.354-0.219-0.739-0.383h-0.001
	c-0.228,0-0.73,0.722-1.004,1.115l-0.373,0.524c-0.525,0.68-1.912,0.771-2.353,0.719c-0.222-0.026-0.334-0.137-0.39-0.221
	c-0.077-0.127-0.085-0.263-0.077-0.363c-0.161-0.098-0.426-0.248-0.59-0.292h-0.006c-0.089,0-0.214,0.154-0.302,0.268l-0.221,0.247
	c-0.264,0.237-0.914,0.485-1.27,0.485h-0.046c-0.111-0.006-0.205-0.06-0.257-0.15c-0.097-0.17-0.028-0.42,0.041-0.595l-0.28-0.187
	l-0.202,0.26l-1.198-1.379l-0.095-0.48c-0.81-0.514-1.214-0.771-1.401-0.92c-0.557,0.112-1.07,0.172-1.527,0.172
	c-0.555,0-0.901-0.08-1.083-0.146c-0.397,0.618-1.149,3.052-1.599,4.687c0.075,0.089,0.199,0.237,0.282,0.375
	c0.117,0.195-0.047,0.578-0.486,1.145l-0.072,0.54c-0.032,0.77-0.05,1.146-0.062,1.331c0.283,0.103,0.571,0.38,0.706,0.558
	l0.177-0.025c0.692,0,1.144,0.924,1.294,1.284l1.219-0.102l0.314-0.041c0.491,0,0.913,0.271,1.22,0.468l0.295,0.169h0.001
	c0.241,0,0.726-0.465,0.806-0.819c0.116-0.507,0.708-0.887,0.732-0.903l0.1-0.064l0.098,0.066c0.302,0.205,0.819,0.575,0.891,0.8
	C40.104,65.041,40.082,65.158,40.037,65.248z"/>
<path fill="#FFFFFF" d="M40.125,43.614v0.508h0.819v0.36h-0.819v0.842H39.72v-2.07h1.365v0.363L40.125,43.614z M42.326,45.154
	c-0.094,0.1-0.244,0.184-0.471,0.184c-0.225,0-0.373-0.084-0.467-0.184c-0.135-0.145-0.173-0.317-0.173-0.59
	c0-0.273,0.036-0.444,0.173-0.587c0.091-0.099,0.242-0.186,0.467-0.186s0.377,0.087,0.471,0.186
	c0.138,0.143,0.176,0.313,0.176,0.587C42.502,44.837,42.465,45.01,42.326,45.154z M42.033,44.196l-0.175-0.066l-0.173,0.066
	c-0.078,0.078-0.088,0.21-0.088,0.368c0,0.156,0.01,0.289,0.088,0.368l0.173,0.071l0.175-0.071c0.078-0.074,0.088-0.212,0.088-0.368
	C42.121,44.406,42.112,44.277,42.033,44.196z M43.874,45.154c-0.091,0.1-0.244,0.184-0.473,0.184c-0.226,0-0.373-0.084-0.472-0.184
	c-0.133-0.145-0.174-0.317-0.174-0.59c0-0.273,0.034-0.444,0.174-0.587c0.095-0.099,0.246-0.186,0.472-0.186
	c0.229,0,0.377,0.087,0.473,0.186c0.134,0.143,0.173,0.313,0.173,0.587C44.047,44.837,44.013,45.01,43.874,45.154z M43.579,44.196
	l-0.176-0.066l-0.175,0.066c-0.074,0.078-0.082,0.21-0.082,0.368c0,0.156,0.01,0.289,0.082,0.368l0.175,0.071l0.176-0.071
	c0.076-0.074,0.09-0.212,0.09-0.368C43.671,44.406,43.663,44.277,43.579,44.196z M44.852,45.324c-0.309,0-0.438-0.22-0.438-0.436
	v-0.751h-0.158v-0.286h0.158v-0.449h0.377v0.449h0.268v0.286H44.79v0.725c0,0.087,0.041,0.136,0.133,0.136h0.135v0.326H44.852
	L44.852,45.324z M46.485,45.202c-0.082,0.087-0.219,0.136-0.372,0.136c-0.158,0-0.272-0.04-0.373-0.157v0.144h-0.367V43.25h0.375
	v0.692c0.1-0.113,0.214-0.152,0.365-0.152c0.153,0,0.287,0.055,0.375,0.134c0.151,0.157,0.153,0.415,0.153,0.636
	C46.642,44.781,46.638,45.052,46.485,45.202z M46.007,44.13c-0.225,0-0.255,0.187-0.255,0.435c0,0.247,0.027,0.436,0.255,0.436
	c0.229,0,0.255-0.188,0.255-0.436C46.262,44.316,46.235,44.13,46.007,44.13z M47.747,45.324v-0.128
	c-0.101,0.102-0.195,0.142-0.372,0.142c-0.175,0-0.296-0.04-0.387-0.132c-0.081-0.082-0.127-0.205-0.127-0.339
	c0-0.237,0.171-0.436,0.521-0.436h0.36v-0.078c0-0.165-0.077-0.236-0.28-0.236c-0.144,0-0.207,0.034-0.288,0.122l-0.243-0.234
	c0.152-0.163,0.295-0.21,0.549-0.21c0.422,0,0.645,0.175,0.645,0.533v1h-0.371v-0.002h-0.005v-0.002H47.747z M47.736,44.684H47.44
	c-0.137,0-0.214,0.063-0.214,0.171c0,0.105,0.07,0.176,0.22,0.176c0.105,0,0.173-0.012,0.236-0.075
	c0.041-0.036,0.054-0.098,0.054-0.193V44.684z M48.92,45.324c-0.309,0-0.441-0.22-0.441-0.436v-1.635h0.378v1.616
	c0,0.088,0.037,0.135,0.134,0.135h0.141v0.323L48.92,45.324L48.92,45.324z M49.835,45.324c-0.312,0-0.439-0.22-0.439-0.436v-1.635
	h0.376v1.616c0,0.088,0.036,0.135,0.132,0.135h0.147v0.323L49.835,45.324z M40.59,48.811h-0.87v-2.07h0.833
	c0.403,0,0.638,0.226,0.638,0.58c0,0.228-0.151,0.375-0.257,0.427c0.125,0.059,0.286,0.188,0.286,0.467
	C41.222,48.603,40.956,48.811,40.59,48.811L40.59,48.811z M40.519,47.102h-0.394v0.474h0.394c0.173,0,0.269-0.097,0.269-0.236
	C40.787,47.196,40.691,47.102,40.519,47.102L40.519,47.102z M40.544,47.939h-0.419v0.511h0.42c0.186,0,0.272-0.118,0.272-0.257
	C40.817,48.053,40.73,47.939,40.544,47.939z M42.623,48.642c-0.094,0.098-0.249,0.185-0.473,0.185c-0.226,0-0.375-0.087-0.47-0.185
	c-0.136-0.144-0.175-0.315-0.175-0.591c0-0.271,0.03-0.442,0.175-0.587c0.093-0.099,0.244-0.185,0.47-0.185
	c0.224,0,0.376,0.086,0.473,0.185c0.134,0.145,0.175,0.319,0.175,0.587C42.792,48.326,42.757,48.498,42.623,48.642z M42.328,47.684
	l-0.175-0.066l-0.174,0.066c-0.076,0.077-0.089,0.211-0.089,0.369c0,0.156,0.013,0.289,0.089,0.369l0.174,0.069l0.175-0.069
	c0.075-0.075,0.084-0.213,0.084-0.369C42.412,47.895,42.403,47.764,42.328,47.684z M43.995,48.811V48.67
	c-0.099,0.109-0.238,0.16-0.378,0.16c-0.15,0-0.271-0.048-0.355-0.132c-0.123-0.125-0.155-0.264-0.155-0.425v-0.972h0.379v0.916
	c0,0.21,0.127,0.275,0.246,0.275c0.123,0,0.256-0.071,0.256-0.275v-0.916h0.378v1.517L43.995,48.811L43.995,48.811z M45.581,47.709
	c-0.06-0.061-0.107-0.092-0.2-0.092c-0.115,0-0.242,0.09-0.242,0.278v0.915h-0.38v-1.516h0.374v0.145
	c0.073-0.087,0.218-0.163,0.376-0.163c0.151,0,0.257,0.037,0.358,0.143L45.581,47.709L45.581,47.709z M46.485,49.381
	c-0.232,0-0.393-0.047-0.548-0.197l0.234-0.237c0.083,0.081,0.169,0.117,0.297,0.117c0.224,0,0.307-0.162,0.307-0.315v-0.155
	c-0.1,0.112-0.214,0.152-0.363,0.152c-0.146,0-0.275-0.051-0.358-0.135c-0.143-0.139-0.161-0.332-0.161-0.602
	c0-0.264,0.019-0.458,0.161-0.599c0.079-0.085,0.218-0.134,0.36-0.134c0.165,0,0.266,0.042,0.372,0.163v-0.141h0.368v1.46
	C47.152,49.115,46.893,49.381,46.485,49.381z M46.521,47.617c-0.225,0-0.245,0.195-0.245,0.394s0.023,0.395,0.245,0.395
	c0.227,0,0.254-0.196,0.254-0.395C46.774,47.813,46.748,47.617,46.521,47.617z M48.487,48.168c0,0.195,0.124,0.339,0.33,0.339
	c0.171,0,0.252-0.048,0.346-0.144l0.23,0.224c-0.157,0.155-0.304,0.238-0.577,0.238c-0.358,0-0.7-0.166-0.7-0.775
	c0-0.494,0.267-0.771,0.659-0.771c0.422,0,0.661,0.307,0.661,0.722v0.169L48.487,48.168L48.487,48.168z M49.029,47.749
	c-0.039-0.091-0.128-0.158-0.254-0.158c-0.125,0-0.213,0.067-0.254,0.158l-0.035,0.161h0.577L49.029,47.749L49.029,47.749z
	 M50.637,48.811v-0.916c0-0.208-0.127-0.277-0.249-0.277c-0.121,0-0.254,0.074-0.254,0.277v0.916H49.76v-1.516h0.37v0.14
	c0.098-0.106,0.237-0.158,0.376-0.158c0.153,0,0.273,0.049,0.357,0.134c0.124,0.123,0.154,0.264,0.154,0.426v0.972h-0.381V48.811z
	 M52.93,48.811h-0.863v-2.07h0.828c0.407,0,0.641,0.226,0.641,0.58c0,0.228-0.149,0.375-0.255,0.427
	c0.123,0.059,0.286,0.188,0.286,0.467C53.566,48.603,53.302,48.811,52.93,48.811z M52.863,47.102h-0.392v0.474h0.392
	c0.175,0,0.27-0.097,0.27-0.236C53.131,47.196,53.036,47.102,52.863,47.102z M52.891,47.939H52.47v0.511h0.421
	c0.183,0,0.271-0.118,0.271-0.257C53.162,48.053,53.073,47.939,52.891,47.939L52.891,47.939z M54.742,47.709
	c-0.059-0.061-0.108-0.092-0.201-0.092c-0.116,0-0.242,0.09-0.242,0.278v0.915h-0.38v-1.516h0.375v0.145
	c0.076-0.087,0.222-0.163,0.376-0.163c0.148,0,0.253,0.037,0.358,0.143L54.742,47.709z M55.417,48.168
	c0,0.195,0.121,0.339,0.329,0.339c0.17,0,0.248-0.048,0.344-0.144l0.225,0.224c-0.152,0.155-0.303,0.238-0.572,0.238
	c-0.357,0-0.7-0.166-0.7-0.775c0-0.494,0.271-0.771,0.663-0.771c0.424,0,0.661,0.307,0.661,0.722v0.169L55.417,48.168L55.417,48.168
	z M55.96,47.749c-0.042-0.091-0.123-0.158-0.255-0.158c-0.123,0-0.213,0.067-0.251,0.158l-0.035,0.161h0.572L55.96,47.749z
	 M57.182,48.826c-0.238,0-0.451-0.025-0.642-0.218l0.245-0.247c0.123,0.124,0.29,0.143,0.403,0.143c0.131,0,0.266-0.045,0.266-0.159
	c0-0.076-0.033-0.127-0.157-0.138l-0.239-0.026c-0.272-0.024-0.441-0.143-0.441-0.422c0-0.317,0.276-0.482,0.585-0.482
	c0.233,0,0.434,0.04,0.577,0.175l-0.232,0.234c-0.09-0.075-0.221-0.103-0.349-0.103c-0.153,0-0.22,0.072-0.22,0.143
	c0,0.06,0.026,0.125,0.157,0.132l0.239,0.027c0.299,0.022,0.452,0.187,0.452,0.443C57.826,48.666,57.541,48.826,57.182,48.826
	L57.182,48.826z M58.593,48.826c-0.236,0-0.454-0.025-0.646-0.218l0.247-0.247c0.127,0.124,0.288,0.143,0.403,0.143
	c0.132,0,0.273-0.045,0.273-0.159c0-0.076-0.042-0.127-0.163-0.138l-0.234-0.026c-0.276-0.024-0.443-0.143-0.443-0.422
	c0-0.317,0.274-0.482,0.581-0.482c0.234,0,0.433,0.04,0.577,0.175l-0.233,0.234c-0.081-0.075-0.221-0.103-0.35-0.103
	c-0.154,0-0.218,0.072-0.218,0.143c0,0.06,0.026,0.125,0.158,0.132l0.239,0.027c0.296,0.022,0.449,0.187,0.449,0.443
	C59.233,48.666,58.95,48.826,58.593,48.826L58.593,48.826z M59.819,48.168c0,0.195,0.119,0.339,0.329,0.339
	c0.168,0,0.247-0.048,0.344-0.144l0.226,0.224c-0.155,0.155-0.301,0.238-0.571,0.238c-0.356,0-0.701-0.166-0.701-0.775
	c0-0.494,0.271-0.771,0.661-0.771c0.422,0,0.659,0.307,0.659,0.722v0.169L59.819,48.168z M60.359,47.749
	c-0.04-0.091-0.124-0.158-0.253-0.158c-0.13,0-0.214,0.067-0.255,0.158l-0.034,0.161h0.576L60.359,47.749z M40.525,51.518h-0.401
	v0.778H39.72v-2.069h0.805c0.423,0,0.68,0.293,0.68,0.646C41.205,51.227,40.948,51.518,40.525,51.518L40.525,51.518z M40.502,50.588
	h-0.377v0.568h0.377c0.183,0,0.299-0.116,0.299-0.28C40.801,50.701,40.688,50.588,40.502,50.588z M41.754,51.658
	c0,0.194,0.121,0.334,0.332,0.334c0.167,0,0.246-0.046,0.344-0.14l0.227,0.223c-0.155,0.156-0.303,0.237-0.574,0.237
	c-0.356,0-0.698-0.161-0.698-0.773c0-0.495,0.267-0.771,0.659-0.771c0.422,0,0.659,0.308,0.659,0.723v0.169L41.754,51.658z
	 M42.295,51.235c-0.041-0.09-0.125-0.157-0.252-0.157c-0.13,0-0.216,0.067-0.254,0.157l-0.035,0.162h0.574L42.295,51.235z
	 M43.844,51.195c-0.056-0.061-0.107-0.09-0.201-0.09c-0.116,0-0.244,0.088-0.244,0.277v0.916h-0.378v-1.518h0.375v0.146
	c0.075-0.087,0.222-0.163,0.376-0.163c0.147,0,0.255,0.037,0.358,0.142L43.844,51.195L43.844,51.195z M45.27,52.129
	c-0.092,0.099-0.245,0.184-0.473,0.184c-0.227,0-0.373-0.085-0.469-0.184c-0.137-0.145-0.175-0.315-0.175-0.59
	c0-0.271,0.034-0.444,0.175-0.586c0.09-0.099,0.242-0.184,0.469-0.184c0.228,0,0.374,0.085,0.473,0.184
	c0.138,0.142,0.173,0.316,0.173,0.586C45.442,51.813,45.407,51.984,45.27,52.129z M44.975,51.171l-0.173-0.067l-0.175,0.067
	c-0.081,0.078-0.09,0.21-0.09,0.368s0.009,0.289,0.09,0.372l0.175,0.066l0.173-0.066c0.077-0.078,0.091-0.214,0.091-0.372
	C45.067,51.381,45.058,51.249,44.975,51.171z M46.655,52.296v-0.919c0-0.208-0.128-0.273-0.25-0.273
	c-0.12,0-0.255,0.069-0.255,0.273v0.919h-0.372v-1.52h0.367v0.142c0.1-0.108,0.24-0.159,0.379-0.159c0.15,0,0.272,0.048,0.356,0.133
	c0.126,0.123,0.155,0.267,0.155,0.428v0.968h-0.377v0.006h-0.004V52.296z M48.293,52.296v-0.919c0-0.208-0.132-0.273-0.249-0.273
	c-0.123,0-0.257,0.069-0.257,0.273v0.919h-0.376v-1.52h0.374v0.142c0.098-0.108,0.237-0.159,0.374-0.159
	c0.151,0,0.273,0.048,0.36,0.133c0.125,0.123,0.154,0.267,0.154,0.428v0.968h-0.381V52.296z M49.823,52.296v-0.13
	c-0.103,0.102-0.199,0.145-0.376,0.145c-0.174,0-0.294-0.043-0.383-0.137c-0.082-0.081-0.128-0.204-0.128-0.339
	c0-0.239,0.17-0.438,0.52-0.438h0.362v-0.075c0-0.166-0.078-0.237-0.28-0.237c-0.145,0-0.215,0.036-0.286,0.123l-0.245-0.23
	c0.148-0.168,0.295-0.209,0.547-0.209c0.423,0,0.646,0.174,0.646,0.532v0.995H49.823L49.823,52.296z M49.812,51.658h-0.298
	c-0.137,0-0.212,0.061-0.212,0.17c0,0.105,0.069,0.176,0.218,0.176c0.104,0,0.172-0.008,0.238-0.075l0.054-0.19V51.658z
	 M51.067,52.313c-0.238,0-0.456-0.025-0.646-0.218l0.247-0.246c0.124,0.123,0.288,0.142,0.403,0.142c0.131,0,0.269-0.044,0.269-0.16
	c0-0.076-0.037-0.125-0.16-0.135l-0.239-0.027c-0.271-0.026-0.439-0.145-0.439-0.423c0-0.316,0.276-0.479,0.579-0.479
	c0.237,0,0.436,0.039,0.579,0.174l-0.23,0.232c-0.087-0.075-0.222-0.1-0.353-0.1c-0.15,0-0.215,0.073-0.215,0.146
	c0,0.054,0.022,0.123,0.156,0.125l0.239,0.031c0.298,0.028,0.451,0.188,0.451,0.446C51.709,52.153,51.423,52.313,51.067,52.313z"/>
<path fill="#FFFFFF" d="M37.667,64.348c-0.832,0-1.554-0.544-1.554-1.518v-2.149c0-0.974,0.723-1.521,1.554-1.521
	c0.83,0,1.548,0.547,1.548,1.521v2.149C39.214,63.804,38.498,64.348,37.667,64.348z M38.283,60.693c0-0.43-0.251-0.695-0.616-0.695
	s-0.623,0.266-0.623,0.695v2.129c0,0.43,0.258,0.688,0.623,0.688s0.616-0.259,0.616-0.688V60.693z"/>
<path fill="#FFFFFF" d="M40.857,64.486v-4.391l-1.112,0.968v-1.076l1.112-0.964h0.999v5.459h-0.999V64.486z"/>
<path fill="#FFFFFF" d="M23.159,27.896h4.769v1.437h-4.769v2.918h-2.586v-7.543h7.673v1.437h-5.088L23.159,27.896z M29.509,24.708
	h5.808c2.518,0,3.341,0.497,3.341,1.989c0,1.065-0.488,1.527-1.748,1.674v0.034c1.495,0.125,1.982,0.554,1.982,1.787
	c0,1.538-0.856,2.059-3.409,2.059h-5.977L29.509,24.708z M34.345,27.793c1.058-0.011,1.142-0.023,1.359-0.124
	c0.285-0.124,0.387-0.339,0.387-0.77c0-0.61-0.236-0.758-1.276-0.758h-2.718v1.651H34.345z M34.259,30.814
	c1.747,0,2.065-0.136,2.065-0.86c0-0.532-0.15-0.757-0.554-0.86c-0.2-0.056-0.269-0.056-1.225-0.066h-2.451v1.788L34.259,30.814z
	 M40.296,24.708h5.808c2.52,0,3.34,0.497,3.34,1.989c0,1.065-0.484,1.527-1.744,1.674v0.034c1.493,0.125,1.981,0.554,1.981,1.787
	c0,1.538-0.856,2.059-3.407,2.059h-5.975L40.296,24.708L40.296,24.708z M45.132,27.793c1.058-0.011,1.142-0.023,1.359-0.124
	c0.286-0.124,0.387-0.339,0.387-0.77c0-0.61-0.235-0.758-1.275-0.758h-2.721v1.651H45.132z M45.048,30.814
	c1.746,0,2.067-0.136,2.067-0.86c0-0.532-0.153-0.757-0.556-0.86c-0.201-0.056-0.272-0.056-1.224-0.066h-2.454v1.788L45.048,30.814
	L45.048,30.814z M51.083,24.708h5.862c2.384,0.034,3.361,0.779,3.361,2.566c0,1.063-0.121,1.549-0.506,1.967
	c-0.504,0.565-1.223,0.78-2.657,0.803l-1.343,0.025h-2.127v2.182h-2.588v-7.542L51.083,24.708L51.083,24.708z M55.817,28.563
	c1.596,0,1.849-0.159,1.849-1.131c0-1.04-0.27-1.289-1.346-1.289h-2.646v2.42H55.817z"/>
</svg>
