<?xml version="1.0" encoding="utf-8"?>
<!-- Generator: Adobe Illustrator 16.0.0, SVG Export Plug-In . SVG Version: 6.00 Build 0)  -->
<!DOCTYPE svg PUBLIC "-//W3C//DTD SVG 1.1//EN" "http://www.w3.org/Graphics/SVG/1.1/DTD/svg11.dtd">
<svg version="1.1" id="Calque_1" xmlns="http://www.w3.org/2000/svg" xmlns:xlink="http://www.w3.org/1999/xlink" x="0px" y="0px"
	 width="80px" height="80px" viewBox="0 0 80 80" enable-background="new 0 0 80 80" xml:space="preserve">
<path fill="#FFFFFF" d="M40,77.821l-0.362-0.204c-10.377-5.825-17.583-14.039-21.41-24.414c-3.21-8.696-3.21-16.858-3.21-20.344
	c0-8.131,1.718-18.87,1.733-18.977l0.062-0.386l0.354-0.164l0.466-0.214c0.144-1.145,0.263-2.009,0.264-2.017l0.054-0.389
	l0.355-0.172c0.099-0.049,2.487-1.195,6.193-2.239C27.937,7.333,33.421,6.179,40,6.179c6.576,0,12.062,1.154,15.502,2.122
	c3.705,1.044,6.093,2.19,6.193,2.239l0.354,0.171l0.055,0.389c0.002,0.01,0.123,0.873,0.267,2.018l0.464,0.214l0.354,0.164
	l0.063,0.386c0.02,0.107,1.732,10.846,1.732,18.977c0,3.486,0,11.648-3.21,20.344c-3.826,10.375-11.032,18.589-21.412,24.414
	L40,77.821z"/>
<path fill="#2E2A25" d="M62.521,13.998l-0.831-0.377c-0.168-1.355-0.314-2.418-0.314-2.418s-2.389-1.153-6.075-2.193
	C51.905,8.053,46.495,6.915,40,6.915S28.092,8.053,24.699,9.009c-3.688,1.04-6.075,2.193-6.075,2.193s-0.147,1.064-0.315,2.418
	l-0.832,0.377c0,0-1.723,10.694-1.723,18.861c0,8.164,0.356,30.706,24.248,44.12C63.894,63.564,64.25,41.022,64.25,32.859
	C64.248,24.692,62.521,13.998,62.521,13.998z"/>
<path fill="#FF5000" d="M40,70.798c22.309-12.995,22.641-31.98,22.641-39.891c0-7.913-1.61-19.455-1.61-19.455
	S52.492,7.289,40,7.289c-12.491,0-21.032,4.164-21.032,4.164s-1.609,11.542-1.609,19.455C17.358,38.816,17.69,57.803,40,70.798z"/>
<path fill="#2E2A25" d="M40,42.027c5.997,0,10.856,4.86,10.856,10.856S45.997,63.738,40,63.738c-5.996,0-10.86-4.858-10.86-10.854
	S34.004,42.027,40,42.027 M40,41.161c-6.341,0-11.499,5.157-11.499,11.496c0,6.341,5.158,11.499,11.499,11.499
	c6.341,0,11.499-5.158,11.499-11.499C51.499,46.318,46.341,41.161,40,41.161z M51.767,52.52c-0.165-0.063-0.333-0.119-0.542-0.153
	c-3.067-0.51-8.832-0.035-12.821,1.036c4.737-0.501,8.591,0.251,9.848,2.426c1.449,2.512-2.092,7.707-7.934,7.89L40,63.723
	c-1.731,0-3.363-0.586-4.798-1.62c-1.83-1.379-2.897-3.303-2.984-4.451c-0.137-1.779-0.2-3.232,6.763-5.278
	c1.928-0.524,2.982-0.61,4.129-0.798c1.444-0.234,3.609-0.71,5.103-1.978c0,0,0.544-0.073,0.662-0.125
	c0.139-0.056,0.222-0.667,0.137-0.771c-0.093-0.112-0.959-1.347-3.521-2.399c-1.899-0.779-5.034-1.667-8.848-1.667
	c-0.597,0-0.747,0.005-1.628-0.281c-0.884-0.283-3.58-1.004-5.595-0.543c-0.208,0.05-0.563,0.205-0.075,0.832l0.781,1.008
	c0.075,0.095,0.165,0.396-0.133,0.396s-1.556-0.076-1.686,0.055c-0.997,0.995-2.113,3.332-2.113,6.249
	c0,0.821,0.159,1.669,0.449,2.511l0.165,0.438c2.077,5.299,7.141,8.853,13.189,8.853c4.357,0,8.188-1.881,10.778-4.897
	c0.646-0.748,1.212-1.568,1.688-2.446C53.441,54.786,53.171,53.077,51.767,52.52z"/>
<path fill="#FFFFFF" d="M49.145,55.85c-1.213-2.313-5.71-2.983-10.743-2.447c4.737-0.501,8.591,0.251,9.848,2.426
	c1.473,2.558-2.22,7.895-8.249,7.895c-5.797,0-10.325-4.836-9.659-8.21c0.503-2.558,8.573-5.061,8.917-5.151
	c0.185-0.045,0.305-0.183,0.143-0.359c-0.87-0.945-1.394-1.94-1.528-2.337c-0.146-0.423-0.063-0.96,0.852-1.169
	c1.188-0.273,2.301-0.174,2.301-0.174s-2.054-0.035-2.418,0.707c-0.18,0.369,0.534,1.767,2.156,3.012
	c0.369,0.282,0.734,0.489,1.324,0.598c0.703,0.122,3.896,0.607,6.129-1.041c0,0-2.162,0.188-2.925,0.188
	c1.31-0.146,2.555-0.423,2.946-0.577c0.092-0.035,0.25-0.394,0.169-0.591c-0.174-0.438-1.18-1.575-3.062-2.294
	c-1.86-0.708-6.943-1.655-11.979-0.036c-8.067,2.589-5.617,10.327-3.398,12.845c3.737,4.24,8.121,4.88,10.03,4.88
	c1.912,0,3.177-0.312,5.154-1.228C47.131,61.867,50.58,58.591,49.145,55.85z M41.298,46.867c0,0,0.056,0.454,0.92,0.823
	c0.795,0.343,1.417,0.195,1.547,0.066c0.129-0.131-0.32-0.523-0.656-0.847c-0.419-0.398,0.426-0.339,0.603-0.302
	c0.15,0.03,0.438,0.16,0.614,0.253c0.903,0.473,0.856,0.815,0.818,1.004c-0.04,0.191-0.662,0.837-2.305,0.324
	C41.194,47.672,41.298,46.867,41.298,46.867z M30.066,50.279c-0.51-0.198-0.871-0.735,0.138-1.218
	c1.007-0.487,3.444-1.342,7.473-1.033c0,0-3.377,0.218-5.596,1.07c-0.646,0.249-0.721,0.609-0.124,0.784
	c0.596,0.172,2.299,0.508,2.462,0.508c0.162,0,0.56,0.027,1.443-0.482c0.882-0.513,2.015-1.308,2.015-1.308
	s-1.542,1.642-2.165,2.123c-0.622,0.488-0.971,0.6-2.275,0.388C32.131,50.899,30.576,50.479,30.066,50.279z"/>
<path fill="#2E2A25" d="M42.929,60.555h-0.925c-0.141-0.003-0.261-0.045-0.367-0.126v0.126h-2.025v-0.134
	c-0.111,0.087-0.23,0.131-0.366,0.134h-0.929c-0.146-0.003-0.271-0.05-0.38-0.138v0.138h-1.039V58.37h-0.414l0.175-0.33l0.275-0.522
	l0.063-0.119h0.938v0.138c0.114-0.091,0.234-0.136,0.374-0.138h0.926c0.162,0.002,0.293,0.059,0.412,0.163l0.07,0.08l0.067-0.076
	c0.125-0.112,0.256-0.167,0.41-0.171h0.854c0.162,0.004,0.295,0.059,0.415,0.162l0.064,0.078l0.063-0.07
	c0.124-0.111,0.255-0.166,0.409-0.17h0.928c0.159,0.004,0.291,0.059,0.411,0.165c0.12,0.114,0.177,0.251,0.177,0.416v0.686h-0.162
	c0.109,0.109,0.162,0.239,0.162,0.401v0.905c0,0.172-0.059,0.305-0.175,0.416C43.214,60.498,43.083,60.551,42.929,60.555z
	 M40.94,59.577h0.473v-0.63L40.94,59.577z M39.827,58.642v0.642l0.478-0.642H39.827z"/>
<path fill="#FFFFFF" d="M36.856,58.146h0.265v2.185h0.589V57.62h-0.577L36.856,58.146z M39.236,57.622h-0.921
	c-0.099,0.004-0.181,0.035-0.259,0.107c-0.071,0.067-0.104,0.144-0.104,0.253v0.904c0,0.107,0.033,0.184,0.104,0.252
	c0.078,0.072,0.16,0.105,0.259,0.107h0.63v0.566H38.57v-0.297h-0.618v0.46c0,0.107,0.033,0.183,0.104,0.253
	c0.078,0.069,0.16,0.104,0.259,0.106h0.921c0.101-0.002,0.182-0.037,0.261-0.106c0.071-0.07,0.104-0.146,0.104-0.253v-1.989
	c-0.001-0.111-0.033-0.184-0.104-0.254C39.418,57.657,39.337,57.626,39.236,57.622L39.236,57.622z M38.947,58.721h-0.376v-0.565
	h0.376V58.721z M43.287,58.439v-0.457c-0.001-0.109-0.034-0.186-0.105-0.253c-0.077-0.072-0.16-0.104-0.26-0.107h-0.918
	c-0.103,0.004-0.183,0.035-0.262,0.107c-0.072,0.067-0.104,0.144-0.105,0.253v1.99c0.001,0.108,0.033,0.184,0.105,0.253
	c0.077,0.071,0.159,0.104,0.262,0.105h0.918c0.1-0.002,0.183-0.034,0.26-0.105c0.071-0.069,0.104-0.145,0.105-0.253v-0.906
	c-0.001-0.107-0.034-0.184-0.105-0.25c-0.077-0.071-0.16-0.105-0.26-0.107h-0.629v-0.566h0.376v0.297H43.287L43.287,58.439z
	 M42.669,59.234V59.8h-0.376v-0.565H42.669z M41.047,57.622H40.2c-0.099,0.004-0.184,0.035-0.262,0.107
	c-0.069,0.067-0.102,0.144-0.102,0.253v0.435h0.655v-0.264h0.265v0.264l-0.92,1.23v0.684h1.573v-0.53h-0.92l0.92-1.23v-0.588
	c0-0.109-0.032-0.186-0.104-0.253C41.231,57.657,41.146,57.626,41.047,57.622z M62.435,25.216C62,18.405,61.03,11.452,61.03,11.452
	S52.492,7.289,40,7.289c-3.531,0-6.744,0.332-9.54,0.81l1.58,4.865l3.129,13.08h27.316L62.435,25.216z"/>
<path fill="#2E2A25" d="M62.594,19.606c0,0-4.446-0.661-12.847,0.465c-7.438,0.998-14.377,3.657-15.146,3.952l-0.508,5.055
	c0,0,6.557-2.8,14.217-4.326c8.648-1.725,14.745-1.414,14.745-1.414L62.594,19.606z M48.136,9.654
	c8.475,0,12.895,1.798,12.895,1.798s-5.037-3.389-16.604-4.139c-9.694-0.63-14.083,0.573-14.083,0.573s4.671,3.366,4.724,3.355
	C35.866,11.05,40.628,9.654,48.136,9.654L48.136,9.654z M48.439,12.504c-7.491,0.442-12.95,2.358-12.95,2.358l-0.527,5.032
	c0,0,4.714-2.082,12.467-3.038c8.753-1.078,14.376-0.05,14.376-0.05l-0.384-3.267C61.421,13.538,56.9,12.001,48.439,12.504z"/>
<path fill="#FFFFFF" d="M38.002,9.596c0.137-0.263,0.222-0.446,0.23-0.528c0.031-0.257-2.511-0.994-7.782-0.994
	c0,0,0.244,1.031,0.392,2.804c-2.775,0.268-6.536,0.45-11.595,0.444l-0.282,0.13c0,0-0.969,6.953-1.403,13.764l-0.05,0.827h18.06
	C35.383,16.851,37.322,11.261,38.002,9.596z"/>
<path fill="#2E2A25" d="M18.959,11.51h0.519c7.586,0,12.219-0.426,15.001-0.924c1.39-0.25,2.316-0.517,2.92-0.76l0.378-0.172
	c-0.694,1.742-2.404,6.87-2.404,15.126c0,0.412,0.004,0.836,0.015,1.264h0.375l-0.015-1.264c0-5.139,0.666-9.05,1.331-11.676
	c0.332-1.313,0.664-2.304,0.913-2.964l0.233-0.589l0.01,0.005c0.102-0.202,0.166-0.339,0.185-0.463l0.001-0.01V9.061
	c-0.005-0.095-0.05-0.149-0.085-0.185c-0.141-0.127-0.356-0.208-0.728-0.318c-0.97-0.276-2.924-0.588-5.911-0.658
	c-0.486,0.073-0.962,0.149-1.424,0.229l0.074,0.364c0.078,0.421,0.203,1.18,0.294,2.212c-2.667,0.251-6.233,0.423-10.959,0.428
	c-0.469,0.199-0.714,0.318-0.714,0.318L18.959,11.51z M36.277,8.656c0.637,0.106,1.113,0.221,1.417,0.321l0.281,0.109
	c-0.113,0.095-0.34,0.243-0.719,0.391c-0.949,0.386-2.823,0.854-6.244,1.194c-0.108-1.193-0.255-2.028-0.33-2.409
	C33.177,8.273,35.038,8.45,36.277,8.656z M34.874,16.257c-0.431-0.936-0.853-1.875-1.268-2.818c-0.537,1.05-1.093,2.095-1.667,3.138
	l0.883-0.354l0.564,0.473l0.642-0.603L34.874,16.257z M33.458,13.289l-0.452-0.403l-1.241,0.578l1.178,0.333L33.458,13.289z
	 M34.232,13.653l1.231-0.609l-1.181-0.304l-0.508,0.513L34.232,13.653z M34.126,12.598l-0.413-0.953l-0.53,1.062l0.444,0.396
	L34.126,12.598z M27.281,17.176l0.673-0.565l0.835,0.215c-0.377-0.962-0.747-1.921-1.105-2.887
	c-0.596,1.019-1.213,2.029-1.846,3.036l0.905-0.302L27.281,17.176z M27.546,13.781l-0.428-0.429l-1.271,0.507l1.157,0.4
	L27.546,13.781L27.546,13.781z M28.297,14.188l1.265-0.538L28.4,13.279l-0.537,0.483L28.297,14.188z M28.251,13.128l-0.357-0.976
	l-0.589,1.03l0.42,0.421L28.251,13.128z M21.15,17.308l0.707-0.527l0.822,0.264c-0.322-0.981-0.635-1.962-0.939-2.945
	c-0.653,0.98-1.325,1.956-2.016,2.925l0.92-0.25L21.15,17.308z M21.611,13.932l-0.403-0.451l-1.302,0.432l1.135,0.466L21.611,13.932
	L21.611,13.932z M22.337,14.382l1.294-0.463l-1.139-0.437l-0.564,0.451L22.337,14.382z M22.354,13.32l-0.301-0.993l-0.649,0.993
	l0.396,0.445L22.354,13.32z M31.188,24.365l0.955-0.347l0.597,0.476l0.697-0.601l0.902,0.172c-0.444-0.939-0.88-1.882-1.308-2.826
	C32.436,22.286,31.82,23.328,31.188,24.365z M32.875,21.087l-0.477-0.407l-1.343,0.57l1.261,0.343L32.875,21.087z M33.215,21.054
	l0.484,0.4l1.333-0.601l-1.263-0.311L33.215,21.054z M32.592,20.502l0.469,0.4l0.545-0.502l-0.425-0.957L32.592,20.502
	L32.592,20.502z M24.645,24.71l0.972-0.293l0.569,0.511l0.731-0.56l0.891,0.224c-0.392-0.965-0.771-1.929-1.143-2.897
	C26.009,22.704,25.335,23.71,24.645,24.71z M24.69,21.593l1.238,0.413l0.589-0.473l-0.455-0.432L24.69,21.593z M26.858,21.519
	l0.459,0.428l1.369-0.524l-1.244-0.382L26.858,21.519z M27.285,20.887l-0.37-0.979l-0.649,1.024l0.445,0.426L27.285,20.887z
	 M18.084,24.677l0.989-0.237l0.538,0.542l0.764-0.516l0.877,0.272c-0.334-0.983-0.662-1.97-0.977-2.958
	C19.563,22.753,18.832,23.717,18.084,24.677z M20.138,21.612l-0.43-0.457l-1.4,0.414l1.214,0.483L20.138,21.612z M20.48,21.619
	l0.434,0.454c0.468-0.145,0.933-0.294,1.396-0.445l-1.218-0.453L20.48,21.619z M19.922,20.999l0.422,0.451l0.599-0.437l-0.314-0.998
	L19.922,20.999z M30.273,17.622c-0.596,1.032-1.212,2.061-1.844,3.08l0.93-0.324l0.566,0.492l0.687-0.583l0.868,0.193
	C31.068,19.531,30.666,18.578,30.273,17.622z M29.575,17.959l0.552-0.492l-0.453-0.418l-1.309,0.537L29.575,17.959z M30.914,17.855
	l1.299-0.57L31,16.944l-0.545,0.496L30.914,17.855z M30.843,16.798l-0.391-0.968l-0.589,1.044l0.445,0.411L30.843,16.798z
	 M24.115,17.924c-0.656,0.995-1.328,1.985-2.019,2.97l0.946-0.271l0.539,0.523l0.719-0.542l0.856,0.243
	C24.8,19.875,24.453,18.899,24.115,17.924L24.115,17.924z M22.211,17.779l1.187,0.441l0.579-0.461l-0.428-0.441L22.211,17.779z
	 M24.742,18.193l1.329-0.492l-1.19-0.411l-0.574,0.464L24.742,18.193z M24.733,17.134l-0.336-0.987l-0.647,1.007l0.421,0.437
	L24.733,17.134z"/>
<path fill="#FFFFFF" d="M62.435,25.216h-44.87l-0.05,0.827h44.971L62.435,25.216z"/>
<path fill="#2E2A25" d="M16.591,26.044h46.816v12.047H16.591V26.044z"/>
<path fill="#FFFFFF" d="M17.963,35.922h1.579v-3.031c0-0.133,0.108-0.24,0.24-0.24h1.688V31.47h-1.688l-0.171-0.073l-0.07-0.172
	v-1.66c0.001-0.132,0.108-0.238,0.239-0.238h1.688v-1.142h-3.508v7.737H17.963z M32.283,34.679l-0.071-0.17v-6.324h-1.613v7.736
	h3.474l0.001-1.17h-1.62L32.283,34.679z M43.984,32.428l0.367-0.296c0.187-0.158,0.298-0.411,0.3-0.718v-2.211
	c-0.002-0.308-0.099-0.523-0.3-0.719c-0.225-0.202-0.458-0.297-0.744-0.307h-3.152v7.743h1.55v-2.48
	c-0.002-0.116,0.079-0.216,0.193-0.239l0.045-0.004c0.098,0,0.186,0.059,0.222,0.151l0.974,2.572h1.484l-1.069-2.834
	C43.731,32.795,43.824,32.555,43.984,32.428z M43.011,31.228l-0.07,0.171l-0.172,0.07h-0.527l-0.173-0.072l-0.069-0.17v-1.66
	l0.069-0.17l0.173-0.07h0.527l0.172,0.071l0.07,0.169V31.228z M38.976,28.492c-0.224-0.202-0.458-0.298-0.743-0.306h-2.067
	c-0.285,0.008-0.52,0.104-0.743,0.306v-0.001c-0.202,0.193-0.295,0.413-0.298,0.719v5.693c0.003,0.306,0.096,0.524,0.298,0.717
	c0.224,0.204,0.458,0.297,0.743,0.305h2.067c0.285-0.008,0.52-0.102,0.743-0.305c0.202-0.191,0.295-0.411,0.3-0.717v-5.693
	C39.271,28.901,39.177,28.684,38.976,28.492z M37.718,34.528l-0.07,0.169l-0.171,0.071h-0.528l-0.17-0.072l-0.072-0.168v-4.96
	l0.072-0.17l0.169-0.07h0.529l0.171,0.071l0.07,0.169V34.528L37.718,34.528z M57.111,28.492c-0.222-0.202-0.456-0.298-0.74-0.306
	h-3.108v7.736h1.583v-6.354l0.072-0.17l0.171-0.07h0.528l0.171,0.071l0.071,0.169v6.354h1.556v-6.713
	C57.408,28.901,57.314,28.684,57.111,28.492z M45.831,35.928h1.562v-7.742h-1.562V35.928z M48.573,35.922h3.509v-1.143h-1.689
	c-0.132,0-0.239-0.105-0.24-0.237v-1.651c0-0.133,0.107-0.24,0.24-0.24h1.689V31.47h-1.689c-0.133,0-0.24-0.108-0.24-0.24v-1.664
	c0.001-0.131,0.108-0.237,0.24-0.237h1.689v-1.143h-3.509V35.922z M58.462,28.186v1.141h0.79l0.172,0.071l0.074,0.169v6.355h1.488
	v-6.355h0.001l0.07-0.169l0.172-0.071h0.794v-1.141H58.462z M26.504,28.492c-0.224-0.202-0.458-0.298-0.743-0.306h-2.066
	c-0.286,0.008-0.52,0.104-0.743,0.306v-0.001c-0.202,0.193-0.295,0.413-0.299,0.719v5.693c0.004,0.306,0.098,0.524,0.299,0.717
	c0.225,0.204,0.457,0.297,0.743,0.305h2.066c0.285-0.008,0.52-0.102,0.743-0.305c0.202-0.191,0.296-0.411,0.299-0.717v-1.775h-1.557
	v1.403l-0.071,0.171l-0.171,0.07h-0.527l-0.171-0.073l-0.07-0.168V29.57l0.07-0.17l0.171-0.07h0.527l0.171,0.072l0.071,0.168v1.418
	h1.557V29.21C26.801,28.901,26.706,28.684,26.504,28.492z"/>
</svg>
