<?xml version="1.0" encoding="utf-8"?>
<!-- Generator: Adobe Illustrator 16.0.0, SVG Export Plug-In . SVG Version: 6.00 Build 0)  -->
<!DOCTYPE svg PUBLIC "-//W3C//DTD SVG 1.1//EN" "http://www.w3.org/Graphics/SVG/1.1/DTD/svg11.dtd">
<svg version="1.1" id="Calque_1" xmlns="http://www.w3.org/2000/svg" xmlns:xlink="http://www.w3.org/1999/xlink" x="0px" y="0px"
	 width="80px" height="80px" viewBox="0 0 80 80" enable-background="new 0 0 80 80" xml:space="preserve">
<linearGradient id="SVGID_1_" gradientUnits="userSpaceOnUse" x1="43.2627" y1="69.1855" x2="40.5957" y2="30.5186">
	<stop  offset="0" style="stop-color:#611517"/>
	<stop  offset="1" style="stop-color:#8F181D"/>
</linearGradient>
<path fill="url(#SVGID_1_)" d="M40.351,69.921c5.967-1.459,11.211-5.293,15.351-10.257c5.601-7.464,9.151-15.973,9.515-25.411
	l0.051-24.233L14.732,10l0.003,0.021l0.051,24.233c0.363,9.439,3.915,17.947,9.515,25.411c4.138,4.964,9.384,8.798,15.351,10.257
	L39.995,70L40.351,69.921L40.351,69.921z"/>
<path fill="#FFFFFF" d="M61.107,37.101h-7.719v-5.287h5.801v-2.526h-5.801v-5.707h-2.527v5.707h-5.987v2.526h5.987v5.287h-7.717
	v2.526h7.717v13.801h2.527V39.627h7.719V37.101z M64.43,19.464H15.496v-8.701H64.43V19.464z M39.939,69.176V20.174H15.493v14.69
	c0,0,0.367,11.268,7.414,21.308C26.864,63.314,35.457,68.527,39.939,69.176z"/>
<linearGradient id="SVGID_2_" gradientUnits="userSpaceOnUse" x1="17.0381" y1="41.3477" x2="39.2031" y2="41.3477">
	<stop  offset="0" style="stop-color:#611517"/>
	<stop  offset="1" style="stop-color:#8F181D"/>
</linearGradient>
<path fill="url(#SVGID_2_)" d="M38.509,43.648c-0.629-0.813,0.129-1.69-0.079-2.582c-0.332-0.792-0.886-1.479-0.724-2.451
	c-0.11-0.991-1.207-1.351-1.908-1.839c-0.305-0.593-0.313-1.313-0.643-1.905c-0.352-0.443-0.779-0.785-1.326-0.903
	c-1.318-0.109-2.634-0.192-3.345-1.5c-1.456-1.374-3.623,0.215-4.837-1.732c-0.854-0.859-2.163-0.224-3.04-1.008
	c-0.45-0.268-0.704-0.762-0.635-1.234c1.317,0.158,2.579-0.354,3.688-0.987c0.889-0.382,1.91-0.17,2.878-0.083
	c0.546-0.105,0.713-0.629,0.907-1.078c0.774,0.338,1.819,0.55,2.659,0.217c1.611-0.291,2.661-1.842,4.271-2.085
	c0.497,0.019,0.898,0.337,1.2,0.707l0.122-0.125c-0.06-0.869-0.417-1.783-1.291-2.17c-2.743-0.986-3.572,2.499-5.802,2.897
	c-0.471,0.031-0.968,0.012-1.171-0.383l0.467-0.377c0.344-0.352,0.412-0.875,0.356-1.42c-0.406-0.79-1.367-0.133-2.04-0.374
	c-0.823-0.313-1.718-0.427-2.396-1.09c-1.152-0.855-2.356,0.3-3.523,0.314c-2.791-0.887-2.199,3.004-4.608,3.007
	c0.462,1.286,0.082,2.755-0.651,3.806c0.978,0.809,1.414,1.996,1.156,3.339c-0.033,1.415,1.193,2.245,2.196,3.103
	c0.104,0.421-0.341,0.551-0.563,0.751c-0.627-0.589-1.55-0.976-2.415-0.643c-0.616,0.479,0.532,0.938,0.612,1.458
	c-0.541,0.478-0.98,1.178-0.972,1.898c0.551,0.391,1.493,0.231,2.06-0.074c0.427,0.417,0.459,1.013,0.763,1.505
	c0.174-0.002,0.421-0.128,0.518-0.33c0.488-0.701,0.726-1.672,0.368-2.512l0.518-0.329c0.766-0.332,1.101,0.682,1.675,0.973
	c1.5,0.952,1.569,2.564,2.477,3.795c0.305,0.593,1.549,0.826,1.162,1.701c-0.543,0.303-1.01,0.729-1.629,0.837
	c-1.011,0.633-1.671-0.626-2.615-0.665c-0.448-0.094-1.219-0.209-1.587,0.117l1.085,1.576c-0.539,0.678-1.025,1.502-1.04,2.371
	c0.699,0.34,1.764,0.178,2.408-0.078c0.378,0.543,0.584,1.16,0.79,1.778c1.013-0.483,1.248-1.629,1.31-2.672
	c0.337-0.923,1.292,0.084,1.857-0.419c0.612-0.752,1.577-1.063,2.621-0.947c0.816-0.309,0.705-1.324,0.896-2.021
	c0.646,0.092,1.441,0.059,2.114,0.273c0.549,0.24,0.58,0.838,0.612,1.357c-0.108,1.466,1.813,2.141,1.309,3.759
	c-0.691,0.354-1.509,0.438-2.252,0.646c-0.148,0.103-0.42,0.13-0.393,0.377c0.573,0.242,1.247,0.457,1.991,0.398
	c-0.041,0.82-1.111,0.584-1.679,0.863c-0.37,0.203-0.966,0.21-1.084,0.684c0.476,0.342,1.268,0.158,1.789,0.129
	c-0.435,1.021-1.806,0.519-2.621,0.998c-0.148,0.076-0.445,0.129-0.393,0.401c0.154,0.445,0.748,0.265,1.048,0.459
	c-0.691,0.406-1.532,0.64-2.021,1.364c-1.029,1.179-0.387,3.033,0,4.296c0.104,0.396-0.165,0.771,0.112,1.065
	c0.099,0.049,0.148-0.052,0.222-0.076c0.507-1.223,0.092-2.808,0.874-3.935c0.392-0.401,0.886-0.682,1.382-0.735
	c0.005,0.447-0.015,0.896,0.163,1.265c0.89-0.333,0.476-1.793,1.418-1.929c0.204,0.445,0.187,1.065,0.661,1.31
	c0.71-0.753-0.076-2.233,1.186-2.62c0.303,0.442,0.384,0.988,0.786,1.405l0.148-0.075c0.363-0.824,0.251-1.891,0.366-2.736
	c0.727-1.521,0.853,0.76,1.646,0.578c0.316-0.552,0.183-1.369,0.077-1.963c-0.332-0.74,0.583-1.1,0.426-1.818
	c-0.608-1.061-0.202-2.403,0.509-3.28C39.374,45.326,39.114,44.336,38.509,43.648z M25.459,25.077
	c1.242-0.04,2.19,0.446,3.235,0.658l0.402,0.417c-1.468-0.257-2.936-0.538-4.452-0.619C24.767,25.308,25.137,25.155,25.459,25.077z"
	/>
<path fill="#7F151A" d="M21.308,12.952h-2.164v1.759h2.124v1.324h-2.124v2.67H17.01v-7.079h4.298V12.952z M28.67,18.513
	c-0.395,0.152-1.062,0.314-1.709,0.314c-2.357,0-4.289-1.416-4.289-3.731c0-2.144,1.76-3.59,4.167-3.59
	c0.465,0,1.304,0.131,1.81,0.354l-0.525,1.253c-0.344-0.101-0.971-0.131-1.173-0.131c-1.021,0-2.053,0.657-2.053,2.195
	c0,1.507,1.042,2.175,2.154,2.175c0.455,0,0.879-0.082,1.203-0.162L28.67,18.513z M42.275,18.705h-2.133V13.75h-0.02
	c-0.546,1.851-1.113,3.408-1.679,4.955h-1.345c-0.577-1.547-1.153-3.104-1.709-4.955h-0.02v4.955H33.69v-7.079h2.892
	c0.485,1.354,0.971,2.7,1.446,4.359h0.021c0.456-1.659,0.93-3.004,1.396-4.359h2.833v7.079H42.275z M48.395,12.952H46.23v1.395
	h2.112v1.324H46.23v1.71h2.599v1.324h-4.731v-7.079h4.297V12.952z M51.843,18.705v-5.753H49.8v-1.326h6.22v1.326h-2.043v5.753
	H51.843z M63.008,12.334l-3.154,5.047h3.326v1.324h-6.027v-0.718l3.227-5.035H57.9v-1.326h5.106L63.008,12.334L63.008,12.334z"/>
<image overflow="visible" width="315" height="376" xlink:href="6975EF75.jpg"  transform="matrix(0.9999 0 0 0.9999 -440 -108.1099)">
</image>
</svg>
