<?xml version="1.0" encoding="utf-8"?>
<!-- Generator: Adobe Illustrator 16.0.0, SVG Export Plug-In . SVG Version: 6.00 Build 0)  -->
<!DOCTYPE svg PUBLIC "-//W3C//DTD SVG 1.1//EN" "http://www.w3.org/Graphics/SVG/1.1/DTD/svg11.dtd">
<svg version="1.1" id="Calque_1" xmlns="http://www.w3.org/2000/svg" xmlns:xlink="http://www.w3.org/1999/xlink" x="0px" y="0px"
	 width="80px" height="80px" viewBox="0 0 80 80" enable-background="new 0 0 80 80" xml:space="preserve">
<g>
	<g>
		<defs>
			<rect id="SVGID_1_" x="14.492" y="6.223" width="51.017" height="69.556"/>
		</defs>
		<clipPath id="SVGID_2_">
			<use xlink:href="#SVGID_1_"  overflow="visible"/>
		</clipPath>
		<path clip-path="url(#SVGID_2_)" fill="#FFDD00" d="M42.059,6.85c0,0,5.29,16.397,18.673,6.739l2.323,2.971
			c0,0-4.745,4.55-1.089,13.918c2.756,6.876,7.195,26.066-6.78,35.347c-5.529,3.67-9.888,6.029-15.19,9.223L40,75.045
			c-5.304-3.193-9.657-5.549-15.186-9.219c-13.975-9.281-9.537-28.472-6.779-35.347c3.652-9.369-1.09-13.918-1.09-13.918
			l2.319-2.971C32.649,23.247,37.941,6.85,37.941,6.85"/>
	</g>
</g>
<g>
	<g>
		<defs>
			<rect id="SVGID_3_" x="14.492" y="6.223" width="51.017" height="69.556"/>
		</defs>
		<clipPath id="SVGID_4_">
			<use xlink:href="#SVGID_3_"  overflow="visible"/>
		</clipPath>
		<path clip-path="url(#SVGID_4_)" fill="#006736" d="M40.318,75.589l-0.334-0.517l-0.309,0.51
			c-1.635-0.983-3.192-1.896-4.698-2.776c-3.433-2.008-6.675-3.911-10.511-6.454c-3.345-2.223-5.89-5.158-7.563-8.729
			c-1.414-3.017-2.215-6.497-2.379-10.343c-0.278-6.479,1.331-13.045,2.929-17.031c1.426-3.656,1.715-7.108,0.834-9.973
			c-0.664-2.157-1.766-3.25-1.777-3.261l-0.402-0.394l0.344-0.446l2.691-3.448l0.491,0.354c3.674,2.653,7.033,3.506,9.984,2.541
			c5.332-1.744,7.703-8.892,7.727-8.964l1.195,0.386c-0.102,0.318-2.584,7.824-8.525,9.771c-3.218,1.053-6.788,0.259-10.622-2.367
			l-1.633,2.091c0.445,0.555,1.183,1.645,1.699,3.28c0.695,2.203,1.116,5.88-0.839,10.891c-1.552,3.87-3.113,10.235-2.843,16.516
			c0.348,8.091,3.504,14.176,9.385,18.079c3.806,2.527,7.034,4.42,10.451,6.42c1.411,0.826,2.864,1.677,4.388,2.592
			c1.52-0.913,2.972-1.764,4.378-2.586c3.421-2.004,6.65-3.898,10.458-6.426c5.878-3.903,9.038-9.985,9.384-18.079
			c0.268-6.28-1.288-12.646-2.838-16.509c-1.959-5.017-1.537-8.694-0.844-10.896c0.518-1.635,1.255-2.726,1.698-3.28l-1.632-2.091
			c-3.83,2.625-7.402,3.42-10.618,2.367c-5.94-1.947-8.424-9.451-8.525-9.77l1.191-0.386h0.001c0.027,0.094,2.4,7.222,7.727,8.963
			c2.95,0.965,6.308,0.112,9.983-2.541l0.491-0.353l3.04,3.895l-0.411,0.392c-0.009,0.009-1.11,1.101-1.773,3.26
			c-0.881,2.866-0.593,6.317,0.837,9.979c1.596,3.981,3.204,10.547,2.926,17.026c-0.165,3.846-0.967,7.326-2.382,10.343
			c-1.673,3.571-4.218,6.507-7.562,8.729c-3.838,2.546-7.081,4.45-10.518,6.461C43.509,73.692,41.952,74.603,40.318,75.589
			L40.318,75.589z"/>
	</g>
</g>
<g>
	<g>
		<defs>
			<rect id="SVGID_5_" x="14.492" y="6.223" width="51.017" height="69.556"/>
		</defs>
		<clipPath id="SVGID_6_">
			<use xlink:href="#SVGID_5_"  overflow="visible"/>
		</clipPath>
		<path clip-path="url(#SVGID_6_)" fill="#FFDD00" d="M40.613,74.677c5.03-3.008,9.259-5.323,14.572-8.851
			c13.976-9.281,9.536-28.472,6.78-35.347c-3.654-9.369,1.089-13.918,1.089-13.918l-2.323-2.971
			C47.349,23.247,42.059,6.85,42.059,6.85h-4.117c0,0-5.291,16.397-18.677,6.739l-2.319,2.971c0,0,4.744,4.55,1.09,13.918
			c-2.758,6.876-7.196,26.066,6.779,35.347c5.529,3.67,9.882,6.025,15.186,9.219L40.613,74.677z"/>
	</g>
</g>
<g>
	<g>
		<defs>
			<rect id="SVGID_7_" x="14.492" y="6.223" width="51.017" height="69.556"/>
		</defs>
		<clipPath id="SVGID_8_">
			<use xlink:href="#SVGID_7_"  overflow="visible"/>
		</clipPath>
		<path clip-path="url(#SVGID_8_)" fill="#006736" d="M40,75.778l-0.323-0.196c-1.635-0.983-3.192-1.896-4.697-2.776
			c-3.433-2.008-6.675-3.911-10.511-6.454c-3.345-2.223-5.891-5.158-7.564-8.729c-1.414-3.017-2.215-6.497-2.379-10.343
			c-0.278-6.479,1.331-13.045,2.929-17.031c1.427-3.656,1.715-7.108,0.834-9.973c-0.663-2.157-1.766-3.25-1.777-3.261l-0.402-0.393
			l0.344-0.446l2.692-3.448l0.491,0.353c2.691,1.943,5.229,2.927,7.542,2.927h0.001c7.068-0.001,10.138-9.256,10.167-9.35
			l0.14-0.436h5.033l0.14,0.434c0.007,0.024,0.791,2.407,2.462,4.748c2.18,3.055,4.772,4.604,7.702,4.604
			c2.314,0,4.854-0.986,7.546-2.927l0.491-0.354l3.041,3.895l-0.411,0.392c-0.01,0.009-1.111,1.101-1.774,3.259
			c-0.881,2.867-0.593,6.317,0.838,9.98c1.595,3.981,3.203,10.548,2.925,17.025c-0.165,3.848-0.967,7.328-2.382,10.344
			c-1.673,3.571-4.218,6.507-7.562,8.729c-3.836,2.545-7.076,4.446-10.51,6.456c-1.317,0.77-2.678,1.566-4.086,2.412L40,75.778z
			 M17.76,16.536c0.445,0.556,1.183,1.645,1.698,3.281c0.696,2.203,1.116,5.88-0.838,10.892c-1.553,3.87-3.113,10.235-2.843,16.516
			c0.348,8.09,3.504,14.175,9.385,18.079c3.806,2.527,7.033,4.419,10.451,6.42c1.41,0.826,2.864,1.676,4.387,2.592l0.29-0.174
			c1.417-0.849,2.781-1.646,4.098-2.418c3.417-2.003,6.643-3.893,10.451-6.42c5.878-3.904,9.037-9.986,9.383-18.079
			c0.27-6.28-1.287-12.646-2.838-16.51c-1.957-5.016-1.536-8.693-0.843-10.896c0.518-1.635,1.255-2.726,1.697-3.28l-1.632-2.092
			c-2.728,1.869-5.345,2.817-7.782,2.817c-3.324,0-6.347-1.783-8.746-5.154c-1.359-1.91-2.148-3.8-2.462-4.63h-3.231
			c-0.312,0.83-1.103,2.721-2.461,4.629c-2.399,3.373-5.424,5.155-8.746,5.155h-0.001c-2.436,0-5.05-0.946-7.782-2.817L17.76,16.536
			z"/>
	</g>
</g>
<path fill="#006736" d="M19.029,35.277h41.794l1.539,5.691l0.128,8.628H17.362l0.064-9.084L19.029,35.277z M40.458,10.057
	l0.016,25.334l-0.924,0.001l-0.016-25.334L40.458,10.057z"/>
<path fill="#FFDD00" d="M37.478,70.681l2.507,1.552l2.528-1.501V49.9h-5.035V70.681z"/>
<path fill="#006736" d="M32.449,67.706l2.506,1.529l2.527,1.496V49.9h-5.034V67.706z"/>
<path fill="#FFDD00" d="M27.419,64.911l2.508,1.529l2.526,1.494V49.9h-5.034V64.911L27.419,64.911z"/>
<path fill="#006736" d="M22.383,60.772l2.507,2.381l2.526,1.494V49.9h-5.034V60.772z M47.545,67.706l-2.504,1.529l-2.527,1.496V49.9
	h5.031V67.706z"/>
<path fill="#FFDD00" d="M52.575,64.911l-2.506,1.529l-2.527,1.494V49.9h5.033V64.911z"/>
<path fill="#006736" d="M57.611,60.772l-2.51,2.381l-2.524,1.494V49.9h5.034V60.772L57.611,60.772z"/>
<g>
	<g>
		<defs>
			<rect id="SVGID_9_" x="14.492" y="6.223" width="51.017" height="69.556"/>
		</defs>
		<clipPath id="SVGID_10_">
			<use xlink:href="#SVGID_9_"  overflow="visible"/>
		</clipPath>
		<path clip-path="url(#SVGID_10_)" fill="#FFDD00" d="M17.598,49.594h45.549v0.385H17.598V49.594z"/>
	</g>
</g>
<g>
	<g>
		<defs>
			<rect id="SVGID_11_" x="14.492" y="6.223" width="51.017" height="69.556"/>
		</defs>
		<clipPath id="SVGID_12_">
			<use xlink:href="#SVGID_11_"  overflow="visible"/>
		</clipPath>
		<path clip-path="url(#SVGID_12_)" fill="#006736" d="M39.984,72.793l-0.227-0.137c-1.531-0.924-2.99-1.78-4.402-2.606
			c-3.101-1.814-6.03-3.533-9.477-5.827c-3.025-2.014-5.327-4.678-6.841-7.914c-1.28-2.739-2.005-5.898-2.155-9.396
			c-0.252-5.892,1.208-11.87,2.659-15.497c1.675-4.307,1.671-7.898,1.374-10.15c-0.325-2.441-1.054-3.886-1.062-3.899l-0.651-1.27
			l1.252,0.682c2.314,1.261,4.608,1.902,6.819,1.902c1.351,0,2.663-0.24,3.9-0.712c5.697-2.178,8.395-8.592,8.422-8.658l0.426-1.038
			l0.408,1.092c0.311,0.712,2.985,6.546,8.367,8.603c1.237,0.471,2.55,0.712,3.899,0.712c2.213,0,4.506-0.641,6.819-1.902
			l1.26-0.686l-0.66,1.273c-0.006,0.015-0.735,1.458-1.059,3.899c-0.3,2.252-0.302,5.843,1.376,10.155
			c1.45,3.623,2.909,9.6,2.658,15.494c-0.151,3.497-0.875,6.654-2.155,9.396c-1.515,3.236-3.814,5.9-6.841,7.915
			c-3.447,2.293-6.378,4.012-9.479,5.828c-1.383,0.81-2.816,1.651-4.314,2.556L39.984,72.793z M21.088,18.082
			c0.238,0.705,0.518,1.727,0.692,3.02c0.319,2.364,0.332,6.127-1.421,10.633c-1.418,3.547-2.844,9.383-2.599,15.138
			c0.317,7.436,3.213,13.025,8.605,16.617c3.427,2.279,6.345,3.989,9.435,5.801c1.345,0.789,2.73,1.602,4.183,2.477
			c1.453-0.875,2.839-1.688,4.184-2.477c3.088-1.81,6.011-3.521,9.435-5.801c5.394-3.592,8.287-9.182,8.607-16.617
			c0.247-5.755-1.181-11.592-2.596-15.133c-1.757-4.511-1.741-8.273-1.424-10.638c0.174-1.293,0.455-2.315,0.693-3.02
			c-2.091,0.978-4.166,1.473-6.186,1.473c-1.461,0-2.875-0.259-4.213-0.769c-4.754-1.816-7.503-6.366-8.48-8.28
			c-0.97,1.911-3.695,6.437-8.516,8.28c-1.336,0.51-2.753,0.769-4.212,0.769C25.252,19.557,23.176,19.06,21.088,18.082z"/>
	</g>
</g>
<path fill="#FFDD00" d="M20.572,40.593h2.379v1.042h-2.379v2.735h-1.027v-6.616h3.536v1.084h-2.508V40.593z M26.879,39.967v-0.361
	c0-0.768-0.242-0.821-1.142-0.821c-1.033,0-1.211,0.212-1.211,1.509v1.465c0.007,1.321,0.136,1.579,1.211,1.579
	c0.828,0,1.198-0.036,1.198-0.983v-0.362h1.026v0.432c0.021,1.995-0.898,1.923-2.225,1.995c-1.881,0.088-2.215-0.681-2.238-2.613
	V40.29c0-2.116,0.663-2.592,2.238-2.592c1.334,0,2.096,0.01,2.168,1.906v0.361L26.879,39.967L26.879,39.967z M35.02,37.754h1.025
	v6.616h-1.703l-2.274-5.532h-0.036l0.086,5.532h-1.026v-6.616h1.695l2.289,5.53h0.028L35.02,37.754z M37.85,43.115l-0.335,1.255
	h-1.062l1.773-6.616h1.512l1.811,6.616h-1.041l-0.349-1.255H37.85z M39.01,38.724h-0.014l-0.913,3.43h1.847L39.01,38.724z
	 M45.882,37.754h1.026v6.616h-1.703l-2.275-5.532h-0.034l0.084,5.532h-1.023v-6.616h1.695l2.287,5.53h0.028L45.882,37.754z
	 M49.945,44.37h-1.027v-5.532h-1.567v-1.084h4.162v1.084h-1.569v5.532H49.945z M52.903,40.488h2.5v1.04h-2.5v1.756h2.658v1.087
	h-3.685v-6.617h3.662v1.084h-2.636V40.488z M57.107,42.26v0.31c0,0.758,0.265,0.813,1.211,0.813c0.937,0,1.063-0.213,1.063-0.98
	c0-0.942-0.407-0.82-1.205-0.873c-1.153-0.088-2.067-0.035-2.067-1.956c0-1.817,0.928-1.871,2.209-1.871
	c1.092,0,1.982,0.044,1.982,1.782v0.213h-1.025v-0.213c0-0.713-0.235-0.742-0.957-0.742c-1.019,0-1.182,0.124-1.182,0.831
	c0,0.81,0.135,0.838,1.176,0.916c1.646,0.123,2.098,0.23,2.098,1.913c0,1.86-0.713,2.02-2.092,2.02
	c-1.182,0-2.236,0.043-2.236-1.852v-0.312L57.107,42.26L57.107,42.26z M22.136,46.927l-0.8,0.547l0.308,0.89l-0.803-0.551
	l-0.805,0.551l0.308-0.891l-0.799-0.546l0.989-0.002l0.307-0.888l0.306,0.888L22.136,46.927z M27.604,46.927l-0.799,0.547
	l0.306,0.89l-0.803-0.551l-0.803,0.551l0.307-0.891l-0.799-0.546L26,46.925l0.306-0.888l0.308,0.888L27.604,46.927z M33.071,46.927
	l-0.801,0.547l0.308,0.89l-0.804-0.551l-0.804,0.551l0.309-0.891l-0.799-0.546l0.989-0.002l0.305-0.888l0.307,0.888L33.071,46.927z
	 M38.54,46.927l-0.801,0.547l0.307,0.89l-0.801-0.551l-0.804,0.551l0.307-0.891l-0.799-0.546l0.989-0.002l0.306-0.888l0.307,0.888
	L38.54,46.927z M44.006,46.927l-0.799,0.547l0.306,0.89l-0.801-0.551l-0.803,0.551l0.306-0.891l-0.797-0.546l0.989-0.002
	l0.306-0.888l0.307,0.888L44.006,46.927z M49.474,46.927l-0.801,0.547l0.31,0.89l-0.802-0.551l-0.807,0.551l0.309-0.891
	l-0.798-0.546l0.988-0.002l0.306-0.888l0.307,0.888L49.474,46.927z M54.942,46.927l-0.802,0.547l0.308,0.89l-0.802-0.551
	l-0.804,0.551l0.308-0.891l-0.8-0.546l0.99-0.002l0.309-0.888l0.305,0.888L54.942,46.927z M60.408,46.927l-0.799,0.547l0.31,0.89
	l-0.805-0.551l-0.804,0.551l0.307-0.891l-0.799-0.546l0.99-0.002l0.303-0.888l0.309,0.888L60.408,46.927z M36.782,68.171h-0.359
	v-1.696L35.908,67l-0.217-0.24l0.633-0.61h0.457V68.171z"/>
<path fill="#006736" d="M38.332,67.605c0,0.263,0.096,0.263,0.409,0.263c0.313,0,0.412-0.005,0.412-0.348v-0.335h-0.004
	c-0.088,0.161-0.241,0.196-0.494,0.196c-0.423,0-0.666-0.065-0.666-0.611c0-0.5,0.15-0.635,0.752-0.635
	c0.653,0,0.771,0.17,0.771,0.864v0.584c0,0.512-0.293,0.604-0.771,0.604c-0.433,0-0.768-0.01-0.768-0.58L38.332,67.605
	L38.332,67.605z M38.348,66.769c0,0.268,0.048,0.295,0.393,0.295c0.346,0,0.412-0.021,0.412-0.295c0-0.301-0.113-0.313-0.412-0.313
	C38.395,66.453,38.348,66.479,38.348,66.769"/>
<path fill="#006736" d="M41.843,67.446h0.233v0.295h-0.233v0.43h-0.36v-0.43h-1.076v-0.423l0.877-1.169h0.558L41.843,67.446
	L41.843,67.446z M41.482,66.431h-0.009l-0.768,1.016h0.776V66.431z"/>
<path fill="#FFDD00" d="M43.547,67.489c0,0.374,0.06,0.379,0.39,0.379c0.324,0,0.429-0.003,0.429-0.281
	c0-0.215-0.052-0.299-0.265-0.299h-0.288v-0.294h0.288c0.197,0,0.23-0.09,0.23-0.333c0-0.19-0.084-0.208-0.396-0.208
	c-0.324,0-0.368,0.035-0.368,0.348h-0.359c0-0.583,0.203-0.665,0.728-0.665c0.376,0,0.756,0.004,0.756,0.525
	c0,0.241-0.044,0.448-0.311,0.473v0.012c0.271,0.02,0.342,0.177,0.342,0.441c0,0.557-0.282,0.601-0.787,0.601
	c-0.501,0-0.75-0.025-0.75-0.698H43.547L43.547,67.489z M33.157,58.276c0-3.77,3.056-6.826,6.826-6.826
	c3.769,0,6.825,3.057,6.825,6.826s-3.057,6.826-6.825,6.826C36.212,65.103,33.157,62.046,33.157,58.276 M33.79,58.276
	c0-3.429,2.777-6.209,6.207-6.209c3.426,0,6.206,2.78,6.206,6.209s-2.779,6.205-6.206,6.205
	C36.567,64.481,33.79,61.701,33.79,58.276"/>
<path fill="#006736" d="M39.996,51.782c-3.581,0-6.494,2.915-6.494,6.494c0,3.58,2.913,6.493,6.494,6.493s6.493-2.913,6.493-6.493
	C46.489,54.697,43.577,51.782,39.996,51.782z M39.996,64.195c-3.264,0-5.919-2.656-5.919-5.919c0-3.264,2.656-5.918,5.919-5.918
	s5.917,2.654,5.917,5.918C45.913,61.539,43.258,64.195,39.996,64.195z"/>
<polygon fill="#006736" points="38.065,64.33 38.707,62.842 41.356,62.842 41.977,64.35 "/>
<polygon fill="#006736" points="33.656,58.684 35.36,58.6 36.474,61.003 35.28,62.243 "/>
<polygon fill="#006736" points="37.883,52.301 38.281,53.872 36.183,55.486 34.771,54.67 "/>
<polygon fill="#006736" points="38.749,63.274 37.823,61.538 36.15,61.12 36.234,60.78 37.853,61.185 38.706,59.655 39.011,59.824 
	38.139,61.388 39.056,63.109 "/>
<polygon fill="#006736" points="35.328,59.002 35.018,58.845 35.839,57.239 36.004,55.182 36.352,55.207 36.205,57.067 
	38.052,57.485 37.976,57.827 36.146,57.413 "/>
<polygon fill="#006736" points="46.31,58.706 44.604,58.6 43.491,61.003 44.687,62.266 "/>
<polygon fill="#006736" points="42.082,52.301 41.685,53.872 43.783,55.486 45.194,54.67 "/>
<polygon fill="#006736" points="41.216,63.274 40.908,63.109 41.824,61.387 40.953,59.824 41.257,59.653 42.112,61.184 43.73,60.78 
	43.814,61.118 42.142,61.537 "/>
<polygon fill="#006736" points="44.637,59.002 43.82,57.413 41.99,57.827 41.913,57.485 43.763,57.067 43.615,55.207 43.962,55.182 
	44.128,57.239 44.949,58.845 "/>
<polygon fill="#006736" points="40.075,56.199 39.726,56.199 39.726,54.434 37.931,53.943 38.022,53.605 39.899,54.117 
	42.146,53.496 42.239,53.834 40.074,54.434 40.074,56.199 "/>
<polygon fill="#006736" points="38.542,60.192 37.685,57.554 39.928,55.924 42.171,57.554 41.314,60.192 "/>
<path fill="#006736" d="M43.701,29.126v-0.114v0.048l-0.002-0.052v0.123c-0.039,1.501-0.884,3.507-1.664,4.535
	c0.347-0.035,0.7-0.071,1.012-0.563c0.143,0.51,0.238,0.626,0.654,0.898c0.417-0.272,0.509-0.392,0.651-0.902
	c0.313,0.494,0.666,0.527,1.011,0.562C44.589,32.636,43.742,30.628,43.701,29.126"/>
<path fill="#006736" d="M44,28.063c-0.196-0.502-0.288-0.533-0.299-1.042v-0.126l-0.002,0.077v-0.073v0.126
	c-0.012,0.502-0.108,0.542-0.304,1.039c-0.209,0.529,0.188,0.705,0.3,0.712h0.006C43.812,28.769,44.206,28.593,44,28.063"/>
<path fill="#006736" d="M45.86,29.034l-0.068-0.001h0.064h-0.121c-0.508-0.013-0.545-0.107-1.046-0.304
	c-0.53-0.208-0.704,0.19-0.711,0.299v0.006c0.007,0.109,0.181,0.506,0.711,0.299c0.505-0.197,0.535-0.288,1.049-0.299H45.86z
	 M43.441,29.031v-0.003c-0.007-0.108-0.184-0.506-0.714-0.299c-0.501,0.196-0.533,0.287-1.04,0.299h-0.125h0.074l-0.072,0.002h0.126
	c0.504,0.014,0.541,0.108,1.037,0.303c0.53,0.208,0.706-0.19,0.713-0.299L43.441,29.031 M49.551,29.159v-0.146v0.071l-0.003-0.074
	v0.156c-0.052,1.495-0.894,3.481-1.665,4.502c0.347-0.034,0.697-0.071,1.013-0.563c0.143,0.51,0.237,0.625,0.655,0.898
	c0.416-0.273,0.51-0.392,0.649-0.902c0.315,0.494,0.668,0.527,1.012,0.562C50.442,32.643,49.603,30.657,49.551,29.159
	 M49.849,28.063c-0.195-0.498-0.286-0.533-0.298-1.033v-0.136l-0.003,0.091v-0.087v0.136c-0.016,0.492-0.111,0.534-0.303,1.029
	c-0.21,0.528,0.187,0.705,0.296,0.712h0.01C49.661,28.769,50.055,28.593,49.849,28.063"/>
<path fill="#006736" d="M51.708,29.034l-0.068-0.001h0.063h-0.122c-0.508-0.013-0.544-0.107-1.045-0.304
	c-0.53-0.208-0.705,0.19-0.71,0.299h-0.003l0.003,0.003l-0.003,0.003h0.003c0.005,0.109,0.18,0.506,0.71,0.299
	c0.504-0.197,0.534-0.288,1.05-0.299H51.708z M49.29,29.031v-0.003c-0.008-0.108-0.183-0.506-0.714-0.299
	c-0.5,0.196-0.533,0.287-1.039,0.299H47.41h0.073L47.41,29.03h0.127c0.503,0.014,0.54,0.108,1.037,0.303
	c0.53,0.208,0.706-0.19,0.713-0.299L49.29,29.031 M55.399,29.153l-0.001-0.141l-0.001,0.062l-0.001-0.065v0.149
	c-0.05,1.498-0.89,3.487-1.663,4.509c0.346-0.034,0.696-0.07,1.01-0.563c0.141,0.51,0.239,0.625,0.656,0.898
	c0.417-0.273,0.509-0.392,0.651-0.902c0.314,0.494,0.665,0.527,1.011,0.561C56.292,32.642,55.449,30.652,55.399,29.153
	 M55.695,28.063c-0.193-0.497-0.284-0.533-0.298-1.03v-0.14l-0.001,0.096v-0.091l-0.002,0.139c-0.014,0.489-0.108,0.532-0.302,1.026
	c-0.21,0.528,0.188,0.705,0.298,0.712h0.007C55.509,28.769,55.901,28.592,55.695,28.063"/>
<path fill="#006736" d="M57.554,29.034l-0.065-0.001h0.063h-0.118c-0.508-0.013-0.546-0.107-1.044-0.304
	c-0.53-0.208-0.704,0.19-0.711,0.299h-0.005v0.006h0.003c0.004,0.109,0.181,0.506,0.709,0.299c0.505-0.197,0.536-0.288,1.05-0.299
	H57.554z M55.138,29.031v-0.003c-0.007-0.108-0.184-0.506-0.712-0.299c-0.502,0.196-0.535,0.287-1.042,0.299h-0.125h0.075
	l-0.072,0.002h0.125c0.504,0.014,0.542,0.108,1.039,0.303c0.528,0.208,0.703-0.19,0.71-0.299L55.138,29.031 M46.575,23.169
	l-0.001-0.146l-0.001,0.069l-0.001-0.073v0.154c-0.05,1.496-0.888,3.484-1.664,4.505c0.347-0.035,0.699-0.071,1.013-0.563
	c0.144,0.51,0.239,0.625,0.654,0.898c0.418-0.273,0.509-0.392,0.652-0.901c0.313,0.493,0.665,0.527,1.013,0.562
	C47.468,26.654,46.628,24.666,46.575,23.169 M46.874,22.075c-0.197-0.499-0.287-0.534-0.301-1.039v-0.13l-0.001,0.082v-0.077
	l-0.001,0.13c-0.013,0.499-0.107,0.539-0.302,1.035c-0.209,0.529,0.188,0.705,0.298,0.712h0.006
	C46.684,22.78,47.078,22.605,46.874,22.075"/>
<path fill="#006736" d="M48.729,23.045l-0.063-0.001h0.06h-0.12c-0.509-0.012-0.545-0.107-1.043-0.303
	c-0.529-0.208-0.704,0.19-0.711,0.298h-0.001v0.007h0.001c0.007,0.11,0.182,0.507,0.711,0.299c0.505-0.197,0.534-0.287,1.048-0.299
	H48.729z M46.312,23.042v-0.003l0,0c-0.006-0.107-0.181-0.505-0.711-0.298c-0.5,0.196-0.534,0.286-1.038,0.298h-0.128l0.079,0.001
	l-0.075,0.001h0.126c0.502,0.014,0.538,0.109,1.039,0.303c0.53,0.208,0.704-0.189,0.708-0.299h0.003L46.312,23.042 M52.504,23.172
	l-0.002-0.149l-0.001,0.072L52.5,23.021v0.155c-0.052,1.497-0.892,3.484-1.663,4.503c0.346-0.035,0.698-0.072,1.011-0.563
	c0.142,0.51,0.241,0.626,0.654,0.898c0.417-0.272,0.509-0.392,0.653-0.901c0.314,0.493,0.662,0.527,1.012,0.562
	C53.396,26.654,52.556,24.668,52.504,23.172 M52.8,22.075c-0.195-0.499-0.285-0.534-0.299-1.036v-0.134L52.5,20.991l-0.001-0.082
	v0.133c-0.014,0.496-0.109,0.537-0.304,1.032c-0.208,0.53,0.189,0.705,0.299,0.712h0.007C52.611,22.78,53.009,22.605,52.8,22.075"/>
<path fill="#006736" d="M54.657,23.045l-0.064-0.001h0.063h-0.118c-0.509-0.012-0.547-0.107-1.045-0.303
	c-0.53-0.208-0.704,0.19-0.711,0.298v0.007c0.007,0.11,0.181,0.507,0.711,0.299c0.505-0.197,0.534-0.287,1.049-0.299H54.657z
	 M52.239,23.042l0.002-0.003h-0.002c-0.004-0.107-0.18-0.505-0.709-0.298c-0.502,0.196-0.536,0.286-1.039,0.298h-0.128l0.079,0.001
	l-0.077,0.001h0.131c0.498,0.014,0.539,0.109,1.038,0.303c0.527,0.208,0.703-0.189,0.71-0.299l0,0L52.239,23.042"/>
<path fill="#006736" d="M30.794,21.251h-1.232c-0.066,0-0.119-0.053-0.119-0.12c0-0.066,0.053-0.12,0.119-0.12h1.232
	c0.067,0,0.12,0.054,0.12,0.12C30.914,21.199,30.861,21.251,30.794,21.251z M24.143,28.878l2.114,0.165c0,0,3.279,3.357,6.88,1.002
	c0.726,0,2.734-0.019,2.734-0.019s-0.198,0.813-0.892,1.335c0,0.883,0.132,2.386-0.298,2.68s-7.938-0.116-8.555-0.49
	C24.454,32.541,24.143,28.878,24.143,28.878"/>
<path fill="#006736" d="M33.285,29.783h2.714l1.242-1.807v-1.342h-3.386L33.285,29.783z"/>
<path fill="#FFDD00" d="M34.266,27.425h0.5v0.666h-0.5V27.425z M35.098,27.425h0.5v0.666h-0.5V27.425z M35.964,27.425h0.5v0.666
	h-0.5V27.425z"/>
<path fill="#006736" d="M36.73,26.107h0.511v0.612H36.73V26.107z M35.75,26.107h0.511v0.612H35.75V26.107z M33.854,26.107h0.512
	v0.612h-0.512V26.107z M34.801,26.107h0.511v0.612h-0.511V26.107z M26.687,22.538c-3.221,2.484,0.101,10.345,6.062,7.306
	c-1.206-1.111-1.866-3.205,0.545-4.838C32.104,24.549,26.687,22.538,26.687,22.538"/>
<path fill="#006736" d="M26.852,29.964l-0.097-0.042l-2.229-2.415l-0.012,0.012c-0.052,0.051-0.136,0.049-0.186-0.003
	c-0.049-0.054-0.048-0.136,0.005-0.188l0.015-0.013l-0.39-0.423c-0.049-0.053-0.047-0.136,0.007-0.186
	c0.053-0.048,0.137-0.044,0.186,0.009l0.388,0.418l4.25-4.053l-2.432-0.926c-0.068-0.025-0.102-0.102-0.076-0.169
	c0.025-0.068,0.101-0.103,0.168-0.076L29,22.88l1.061-1.011l0.013-0.012l0.041-0.022l0.057-0.004l0.054,0.02l0.033,0.03l0.009,0.015
	l1.157,1.908l2.625,0.998c0.067,0.025,0.102,0.103,0.076,0.169c-0.027,0.068-0.103,0.102-0.17,0.075l-2.31-0.878l1.934,3.188
	c0.038,0.063,0.019,0.143-0.044,0.181c-0.062,0.037-0.143,0.017-0.181-0.043l-2.108-3.478l-2.186-0.833l-4.345,4.144l2.231,2.417
	c0.049,0.054,0.047,0.138-0.006,0.187L26.852,29.964z M29.273,22.982l1.752,0.667l-0.898-1.48L29.273,22.982z M34.272,25.446
	c-0.217,0-0.396-0.176-0.396-0.393s0.178-0.393,0.396-0.393c0.219,0,0.396,0.176,0.396,0.393S34.492,25.446,34.272,25.446z
	 M34.272,24.923c-0.072,0-0.133,0.058-0.133,0.13c0,0.072,0.06,0.131,0.133,0.131c0.075,0,0.134-0.06,0.134-0.131
	C34.407,24.981,34.347,24.923,34.272,24.923z M26.126,22.309c-0.218,0-0.396-0.175-0.396-0.393s0.177-0.393,0.396-0.393
	c0.217,0,0.395,0.176,0.395,0.393S26.344,22.309,26.126,22.309z M26.126,21.787c-0.073,0-0.134,0.058-0.134,0.129
	c0,0.072,0.06,0.128,0.134,0.128c0.073,0,0.131-0.057,0.131-0.128S26.2,21.787,26.126,21.787z M33.086,29.479l-0.123-0.082
	l-2.95-7.321l-0.009-0.039l0.008-0.057l0.032-0.05l0.004-0.002v-1.405c0-0.073,0.059-0.132,0.13-0.132
	c0.073,0,0.132,0.059,0.132,0.132v1.481l-0.013,0.054l3.101,6.199c0.032,0.065,0.005,0.144-0.059,0.176
	c-0.064,0.032-0.144,0.006-0.176-0.059l-1.689-3.378l1.733,4.301c0.026,0.068-0.005,0.144-0.074,0.171L33.086,29.479z
	 M36.949,27.017c-0.072,0-0.131-0.06-0.131-0.131v-4.713c0-0.073,0.06-0.132,0.131-0.132c0.073,0,0.132,0.059,0.132,0.132v4.71
	C37.081,26.958,37.022,27.017,36.949,27.017z"/>
<path fill="#FFDD00" d="M32.843,29.869c-1.322-0.108-4.316-1.154-5.462-2.461c0.838,1.133,2.709,2.44,5.044,2.854
	C32.621,30.11,32.843,29.869,32.843,29.869 M27.028,23.007c-0.44,0.523-1.166,1.874-0.661,3.16
	c-0.126-1.292,0.188-2.021,1.179-2.958L27.028,23.007 M28.315,23.53c-0.44,0.523-1.166,1.874-0.66,3.159
	c-0.126-1.291,0.188-2.019,1.178-2.957L28.315,23.53 M29.737,24.085c-0.44,0.522-1.168,1.873-0.661,3.16
	c-0.126-1.291,0.186-2.021,1.178-2.958L29.737,24.085 M31.338,24.673c-0.439,0.522-1.167,1.874-0.66,3.16
	c-0.126-1.29,0.188-2.021,1.178-2.959L31.338,24.673"/>
<path fill="#006736" d="M37.081,22.913c-0.945-0.201-1.571,0.36-2.896,0.391c0.368,0.182,0.349,0.263,0.847,0.344
	c-0.258,0.149-0.368,0.327-0.662,0.313c0.635,0.371,1.302,0.244,2.146-0.042c0.387-0.132,0.565-0.159,0.565-0.159V22.913z"/>
<path fill="#FFDD00" d="M25.175,32.861c1.387,0.373,3.14,0.633,5.164,0.046c0.414,0.259,2.171,0.563,3.829-0.234
	c0.219,0.117,0.902,0.164,1.268,0.188c-0.074,0.4-0.146,1.476-0.146,1.476l-10.315-0.259L25.175,32.861z"/>
<path fill="#006736" d="M22.674,33.384c0.64,0,1.634-0.035,2.843-0.352c0.818,0.386,2.346,0.702,4.301,0.492
	c0.57,0.281,1.991,0.563,3.448-0.106c0.711,0.176,1.849,0.247,3.449-0.562l0.159,0.087c0,0-2.132,1.296-3.412,0.687
	c-0.616,0.305-2.34,0.727-3.644,0.352c-0.569,0.141-3.424-0.241-4.301-0.755c-0.425,0.14-1.764,0.632-2.522,0.562L22.674,33.384
	 M25.851,34.138c0.389,0.011,0.737,0.094,1.526-0.047c0.653,0.188,3.717,0.398,6.285-0.187l0.231,0.071c0,0-4.464,0.938-6.148,0.716
	C26.096,34.472,25.851,34.138,25.851,34.138"/>
<path fill="#FFDD00" d="M29.358,31.716c0-0.111,0.091-0.201,0.203-0.201c0.112,0,0.202,0.09,0.202,0.201
	c0,0.11-0.09,0.201-0.202,0.201C29.449,31.917,29.358,31.827,29.358,31.716 M30.439,31.716c0-0.111,0.091-0.201,0.203-0.201
	s0.203,0.09,0.203,0.201c0,0.11-0.091,0.201-0.203,0.201S30.439,31.827,30.439,31.716 M31.451,31.716
	c0-0.111,0.092-0.201,0.203-0.201c0.113,0,0.202,0.09,0.202,0.201c0,0.11-0.089,0.201-0.202,0.201
	C31.543,31.917,31.451,31.827,31.451,31.716"/>
</svg>
