<?xml version="1.0" encoding="utf-8"?>
<!-- Generator: Adobe Illustrator 16.0.0, SVG Export Plug-In . SVG Version: 6.00 Build 0)  -->
<!DOCTYPE svg PUBLIC "-//W3C//DTD SVG 1.1//EN" "http://www.w3.org/Graphics/SVG/1.1/DTD/svg11.dtd">
<svg version="1.1" id="Calque_1" xmlns="http://www.w3.org/2000/svg" xmlns:xlink="http://www.w3.org/1999/xlink" x="0px" y="0px"
	 width="80px" height="80px" viewBox="0 0 80 80" enable-background="new 0 0 80 80" xml:space="preserve">
<g>
	<path fill="#283B80" d="M63.184,13.293c0,0-11.514-6.224-23.184-6.068c-11.67-0.156-23.186,6.068-23.186,6.068
		s-4.666,15.335-1.866,30.151C17.749,58.262,29.885,72.732,40,76.778c10.114-4.046,22.251-18.517,25.051-33.334
		C67.852,28.628,63.184,13.293,63.184,13.293z"/>
	<path fill="#FFFFFF" d="M62.303,14.019c0,0-11.585-5.498-22.303-5.498s-22.303,5.498-22.303,5.498s-5.913,19.396,0,35.061
		C23.609,64.745,30.042,69.102,40,75.739c9.958-6.639,16.389-10.994,22.303-26.659C68.216,33.417,62.303,14.019,62.303,14.019z"/>
	<path fill="#243778" d="M60.124,15.989c0,0-10.062-5.082-20.124-5.082c-10.063,0-20.125,5.082-20.125,5.082
		s-4.761,14.747,0.11,30.738C24.585,61.82,31.285,67.339,40,72.732c8.713-5.394,15.413-10.912,20.014-26.005
		C64.889,30.736,60.124,15.989,60.124,15.989z"/>
	<g>
		<path fill="#FFE61C" d="M23.146,19.887v2.192h4.913v2.059h-4.913v3.987h-2.265V17.828h7.84v2.059H23.146z"/>
		<path fill="#FFE61C" d="M34.665,28.301c-3.03,0-5.282-2.34-5.282-5.296v-0.029c0-2.926,2.207-5.325,5.371-5.325
			c1.942,0,3.103,0.646,4.059,1.589l-1.44,1.661c-0.794-0.721-1.603-1.162-2.633-1.162c-1.736,0-2.987,1.442-2.987,3.207v0.03
			c0,1.764,1.222,3.236,2.987,3.236c1.177,0,1.898-0.47,2.708-1.207l1.441,1.457C37.827,27.596,36.65,28.301,34.665,28.301z"/>
		<path fill="#FFE61C" d="M43.668,28.272c-1.56,0-3.134-0.545-4.369-1.647l1.342-1.604c0.927,0.766,1.896,1.251,3.071,1.251
			c0.928,0,1.487-0.367,1.487-0.97v-0.031c0-0.573-0.355-0.868-2.075-1.309c-2.073-0.53-3.413-1.103-3.413-3.148v-0.028
			c0-1.868,1.5-3.104,3.603-3.104c1.501,0,2.78,0.47,3.827,1.308l-1.177,1.707c-0.913-0.631-1.812-1.014-2.68-1.014
			c-0.867,0-1.323,0.397-1.323,0.897v0.028c0,0.677,0.442,0.898,2.221,1.354c2.089,0.545,3.265,1.295,3.265,3.089v0.029
			C47.45,27.125,45.892,28.272,43.668,28.272z"/>
		<path fill="#FFE61C" d="M56.778,28.125v-6.723L53.88,25.8h-0.061l-2.867-4.354v6.679h-2.225V17.828h2.443l2.709,4.354l2.705-4.354
			h2.44v10.297H56.778z"/>
	</g>
	<g>
		<path fill="#FFFFFF" d="M21.662,30.269v0.399h0.894v0.375h-0.894v0.727h-0.413v-1.875h1.428v0.375H21.662z"/>
		<path fill="#FFFFFF" d="M25.132,31.802c-0.578,0-0.993-0.432-0.993-0.965v-0.006c0-0.533,0.421-0.969,0.999-0.969
			c0.58,0,0.994,0.432,0.994,0.965v0.004C26.132,31.365,25.711,31.802,25.132,31.802z M25.7,30.832c0-0.321-0.235-0.589-0.568-0.589
			c-0.332,0-0.562,0.263-0.562,0.584v0.004c0,0.321,0.236,0.588,0.567,0.588c0.333,0,0.563-0.263,0.563-0.583L25.7,30.832
			L25.7,30.832z"/>
		<path fill="#FFFFFF" d="M28.624,31.802c-0.578,0-0.993-0.432-0.993-0.965v-0.006c0-0.533,0.419-0.969,0.998-0.969
			c0.58,0,0.994,0.432,0.994,0.965v0.004C29.624,31.365,29.203,31.802,28.624,31.802z M29.19,30.832
			c0-0.321-0.235-0.589-0.567-0.589c-0.331,0-0.562,0.263-0.562,0.584v0.004c0,0.321,0.236,0.588,0.567,0.588
			c0.332,0,0.563-0.263,0.563-0.583v-0.006H29.19z"/>
		<path fill="#FFFFFF" d="M31.975,30.275v1.495h-0.413v-1.495h-0.57v-0.381h1.553v0.381H31.975z"/>
		<path fill="#FFFFFF" d="M34.97,31.77h-0.891v-1.875h0.869c0.385,0,0.619,0.191,0.619,0.485v0.005c0,0.213-0.112,0.33-0.246,0.405
			c0.217,0.083,0.351,0.208,0.351,0.46v0.006C35.672,31.598,35.393,31.77,34.97,31.77z M35.158,30.449
			c0-0.123-0.097-0.192-0.27-0.192h-0.408v0.396h0.38c0.182,0,0.298-0.06,0.298-0.199V30.449z M35.262,31.199
			c0-0.125-0.095-0.204-0.306-0.204h-0.477v0.413h0.49c0.182,0,0.292-0.064,0.292-0.203V31.199z"/>
		<path fill="#FFFFFF" d="M38.624,31.77l-0.171-0.421h-0.795l-0.169,0.421h-0.421l0.803-1.889h0.381l0.803,1.889H38.624z
			 M38.056,30.378l-0.249,0.607h0.499L38.056,30.378z"/>
		<path fill="#FFFFFF" d="M40.56,31.77v-1.875h0.413v1.5h0.935v0.375H40.56z"/>
		<path fill="#FFFFFF" d="M43.434,31.77v-1.875h0.413v1.5h0.934v0.375H43.434z"/>
		<path fill="#FFFFFF" d="M49.209,31.802c-0.554,0-0.962-0.426-0.962-0.965v-0.006c0-0.533,0.4-0.969,0.977-0.969
			c0.355,0,0.563,0.118,0.741,0.29l-0.264,0.303c-0.145-0.13-0.292-0.212-0.48-0.212c-0.315,0-0.544,0.263-0.544,0.584v0.004
			c0,0.321,0.224,0.588,0.544,0.588c0.216,0,0.347-0.085,0.493-0.218l0.265,0.265C49.783,31.673,49.569,31.802,49.209,31.802z"/>
		<path fill="#FFFFFF" d="M51.522,31.77v-1.875h0.412v1.5h0.936v0.375H51.522z"/>
		<path fill="#FFFFFF" d="M55.126,31.798c-0.507,0-0.813-0.281-0.813-0.832v-1.072h0.412v1.061c0,0.306,0.153,0.463,0.405,0.463
			s0.404-0.153,0.404-0.451v-1.074h0.413v1.059C55.948,31.521,55.628,31.798,55.126,31.798z"/>
		<path fill="#FFFFFF" d="M58.476,31.77h-0.893v-1.875h0.871c0.384,0,0.619,0.191,0.619,0.485v0.005c0,0.213-0.114,0.33-0.246,0.405
			c0.217,0.083,0.35,0.208,0.35,0.46v0.006C59.177,31.598,58.899,31.77,58.476,31.77z M58.664,30.449
			c0-0.123-0.095-0.192-0.27-0.192h-0.406v0.396h0.378c0.182,0,0.298-0.06,0.298-0.199V30.449L58.664,30.449z M58.768,31.199
			c0-0.125-0.094-0.204-0.306-0.204h-0.477v0.413h0.49c0.181,0,0.292-0.064,0.292-0.203V31.199z"/>
	</g>
	<g>
		<path fill="#FFFFFF" d="M21.914,34.908c-0.285,0-0.57-0.099-0.796-0.3l0.244-0.291c0.169,0.139,0.346,0.227,0.56,0.227
			c0.168,0,0.271-0.068,0.271-0.176v-0.005c0-0.104-0.064-0.158-0.378-0.238c-0.378-0.097-0.622-0.202-0.622-0.574v-0.005
			c0-0.341,0.273-0.565,0.656-0.565c0.273,0,0.506,0.085,0.696,0.238l-0.214,0.312c-0.167-0.116-0.33-0.185-0.487-0.185
			s-0.24,0.073-0.24,0.164v0.005c0,0.123,0.079,0.163,0.404,0.247c0.381,0.1,0.595,0.235,0.595,0.561v0.007
			C22.604,34.698,22.32,34.908,21.914,34.908z"/>
		<path fill="#FFFFFF" d="M24.009,34.915c-0.579,0-0.992-0.431-0.992-0.964v-0.007c0-0.532,0.42-0.968,0.998-0.968
			c0.581,0,0.994,0.431,0.994,0.963v0.005C25.008,34.477,24.587,34.915,24.009,34.915z M24.576,33.943
			c0-0.32-0.235-0.588-0.568-0.588c-0.332,0-0.562,0.263-0.562,0.583v0.005c0,0.322,0.236,0.591,0.567,0.591
			c0.333,0,0.563-0.264,0.563-0.584V33.943z"/>
		<path fill="#FFFFFF" d="M26.388,34.915c-0.551,0-0.961-0.426-0.961-0.964v-0.007c0-0.532,0.4-0.968,0.977-0.968
			c0.353,0,0.565,0.118,0.739,0.289l-0.263,0.304c-0.145-0.133-0.291-0.213-0.48-0.213c-0.316,0-0.544,0.263-0.544,0.583v0.005
			c0,0.322,0.223,0.591,0.544,0.591c0.215,0,0.345-0.085,0.492-0.218l0.264,0.265C26.963,34.785,26.75,34.915,26.388,34.915z"/>
		<path fill="#FFFFFF" d="M28.795,34.881v-0.753h-0.76v0.753h-0.413v-1.875h0.413v0.742h0.76v-0.742h0.413v1.875H28.795z"/>
		<path fill="#FFFFFF" d="M31.189,34.881l-0.171-0.42h-0.793l-0.171,0.42h-0.42l0.803-1.888h0.38l0.804,1.888H31.189z
			 M30.622,33.488l-0.25,0.608h0.498L30.622,33.488z"/>
		<path fill="#FFFFFF" d="M32.76,34.91c-0.504,0-0.812-0.28-0.812-0.833v-1.071h0.412v1.062c0,0.305,0.152,0.461,0.404,0.461
			s0.405-0.153,0.405-0.449v-1.075h0.412v1.059C33.582,34.633,33.263,34.91,32.76,34.91z"/>
		<path fill="#FFFFFF" d="M35.284,34.881l-0.421-0.643l-0.424,0.643H33.97l0.653-0.953l-0.627-0.922h0.483l0.394,0.607l0.396-0.607
			h0.468l-0.626,0.916l0.653,0.958H35.284z"/>
		<path fill="#FFFFFF" d="M35.984,34.247v-0.392h0.825v0.392H35.984z"/>
		<path fill="#FFFFFF" d="M38.771,34.881v-1.224l-0.529,0.799h-0.009l-0.524-0.793v1.216h-0.405v-1.875h0.446l0.491,0.793
			l0.495-0.793h0.443v1.875L38.771,34.881L38.771,34.881z"/>
		<path fill="#FFFFFF" d="M40.676,34.915c-0.579,0-0.993-0.431-0.993-0.964v-0.007c0-0.532,0.419-0.968,0.999-0.968
			c0.577,0,0.994,0.431,0.994,0.963v0.005C41.676,34.477,41.254,34.915,40.676,34.915z M41.243,33.943
			c0-0.32-0.234-0.588-0.567-0.588s-0.562,0.263-0.562,0.583v0.005c0,0.322,0.235,0.591,0.568,0.591
			c0.332,0,0.562-0.264,0.562-0.584V33.943z"/>
		<path fill="#FFFFFF" d="M43.493,34.881l-0.906-1.191v1.191h-0.41v-1.875h0.381l0.88,1.154v-1.154h0.407v1.875H43.493z"/>
		<path fill="#FFFFFF" d="M45.277,33.386v1.495h-0.411v-1.495h-0.57v-0.38h1.552v0.38H45.277z"/>
		<path fill="#FFFFFF" d="M47.192,34.881h-0.894v-1.875h0.873c0.381,0,0.617,0.19,0.617,0.485v0.006
			c0,0.212-0.112,0.329-0.246,0.405c0.217,0.083,0.35,0.208,0.35,0.46v0.005C47.895,34.71,47.614,34.881,47.192,34.881z
			 M47.38,33.562c0-0.123-0.096-0.193-0.271-0.193h-0.406v0.396h0.379c0.181,0,0.298-0.058,0.298-0.197V33.562z M47.483,34.311
			c0-0.125-0.092-0.204-0.306-0.204h-0.475v0.413h0.489c0.182,0,0.291-0.065,0.291-0.204V34.311z"/>
		<path fill="#FFFFFF" d="M48.37,34.881v-1.875h1.415v0.366h-1.004v0.38h0.884v0.367h-0.884v0.393H49.8v0.367L48.37,34.881
			L48.37,34.881z M48.854,32.86l0.301-0.476l0.353,0.154l-0.344,0.322H48.854z"/>
		<path fill="#FFFFFF" d="M50.302,34.881v-1.875h0.411v1.5h0.935v0.374H50.302z"/>
		<path fill="#FFFFFF" d="M52.114,34.881v-1.875h0.412v1.875H52.114z"/>
		<path fill="#FFFFFF" d="M54.528,34.881l-0.171-0.42h-0.793l-0.171,0.42h-0.421l0.803-1.888h0.38l0.804,1.888H54.528z
			 M53.959,33.488l-0.249,0.608h0.499L53.959,33.488z"/>
		<path fill="#FFFFFF" d="M56.523,34.881l-0.402-0.6h-0.325v0.6h-0.409v-1.875h0.854c0.442,0,0.707,0.233,0.707,0.619v0.006
			c0,0.303-0.162,0.493-0.4,0.581l0.458,0.669H56.523z M56.53,33.647c0-0.177-0.124-0.268-0.324-0.268h-0.41v0.54h0.42
			c0.2,0,0.313-0.107,0.313-0.266L56.53,33.647L56.53,33.647z"/>
		<path fill="#FFFFFF" d="M58.186,34.881h-0.73v-1.875h0.73c0.59,0,0.996,0.405,0.996,0.932v0.005
			C59.183,34.472,58.775,34.881,58.186,34.881z M58.752,33.943c0-0.331-0.226-0.564-0.564-0.564H57.87v1.13h0.317
			c0.339,0,0.564-0.227,0.564-0.559V33.943z"/>
	</g>
	<g>
		<path fill="#FFFFFF" d="M36.136,64.236h0.396v2.666h-0.574v-2.076l-0.462,0.113l-0.12-0.478L36.136,64.236z"/>
		<path fill="#FFFFFF" d="M38.336,66.946c-0.385,0-0.647-0.128-0.869-0.314l0.306-0.442c0.194,0.155,0.356,0.227,0.58,0.227
			c0.323,0,0.497-0.246,0.537-0.601c-0.129,0.111-0.308,0.183-0.537,0.183c-0.576,0-0.946-0.319-0.946-0.858
			c0-0.538,0.413-0.932,1.01-0.932c0.356,0,0.563,0.089,0.762,0.286c0.191,0.191,0.315,0.479,0.315,1.004
			C39.494,66.361,39.088,66.946,38.336,66.946z M38.434,64.708c-0.286,0-0.448,0.166-0.448,0.404c0,0.237,0.172,0.402,0.459,0.402
			c0.287,0,0.455-0.169,0.455-0.397C38.899,64.876,38.725,64.708,38.434,64.708z"/>
		<path fill="#FFFFFF" d="M40.602,65.093l-0.41-0.329c0.262-0.354,0.514-0.547,0.987-0.547c0.563,0,0.911,0.323,0.911,0.819
			c0,0.443-0.227,0.665-0.696,1.03l-0.43,0.332h1.152v0.504h-1.958V66.44l0.878-0.722c0.331-0.271,0.46-0.415,0.46-0.636
			s-0.147-0.344-0.355-0.344C40.938,64.738,40.797,64.853,40.602,65.093z"/>
		<path fill="#FFFFFF" d="M43.832,66.938c-0.586,0-1.021-0.303-1.021-0.769c0-0.323,0.148-0.512,0.429-0.643
			c-0.206-0.124-0.337-0.294-0.337-0.582c0-0.409,0.37-0.729,0.93-0.729c0.558,0,0.93,0.319,0.93,0.729
			c0,0.288-0.132,0.458-0.338,0.582c0.269,0.141,0.428,0.313,0.428,0.627C44.852,66.652,44.418,66.938,43.832,66.938z
			 M43.832,65.798c-0.266,0-0.458,0.119-0.458,0.327c0,0.188,0.171,0.333,0.458,0.333c0.288,0,0.458-0.145,0.458-0.333
			C44.289,65.918,44.097,65.798,43.832,65.798z M43.832,64.695c-0.239,0-0.38,0.144-0.38,0.312c0,0.189,0.148,0.328,0.38,0.328
			c0.23,0,0.378-0.136,0.378-0.324C44.21,64.842,44.07,64.695,43.832,64.695z"/>
	</g>
	<path fill="#FFE61C" d="M40.778,57.121c0,0-2.905,2.645-3.683,3.683c0,0-5.032,1.04-5.965,2.489
		C31.13,63.293,36.577,57.744,40.778,57.121z"/>
	<path fill="#FFE61C" d="M51.336,43.635c0,0,3.135,4.927-0.495,9.492c-3.631,4.564-5.913,5.809-8.976,7.079
		c0,0,2.077,1.064,6.435-0.751c4.354-1.815,5.653-5.188,5.705-8.04C54.056,48.563,54.063,45.762,51.336,43.635z"/>
	<path fill="#FFE61C" d="M52.294,41.104l0.31-0.842c0,0,1.867,1.451,3.734,3.372c1.867,1.92,2.49,3.683,2.49,4.047
		c0,0.361-2.23,6.533-3.268,7.571C55.561,55.255,58.103,46.924,52.294,41.104z"/>
	<g>
		<path fill="#FFE61C" d="M49.916,38.551c-1.706-1.4-5.555-0.726-5.555-0.726c2.544,0.157,5.389,1.504,5.547,2.748
			c0.156,1.246-2.39,1.556-2.39,1.556c3.01,3.685,0.105,6.69,0.105,6.69s1.972-2.385-1.192-6.119
			c-3.164-3.735-7.624-3.474-7.624-3.474c0.569-0.57,3.319-2.335,3.319-2.335c-5.959-0.91-11.515,5.238-13.07,6.431
			c-1.556,1.195-5.447,1.973-6.847,3.114c-1.401,1.141,0,3.163,0,3.163c0.83-2.074,1.712-1.917,1.712-1.917
			c-0.57,0.517-1.296,2.488-1.088,3.784c0.207,1.298,1.349,2.075,2.386,1.505l1.35,1.141l-0.363-1.815c0,0,1.661-1.71,3.061-1.658
			c1.4,0.051,4.046,1.244,3.786,3.577c-0.259,2.335-3.631,2.541-3.631,2.541l-1.504-1.451l0.155,1.503c0,0-0.726,0.053-1.038,0.363
			c-0.293,0.294,2.563,3.973,2.874,4.369c0.021-0.143,0.409-0.784,2.987-3.591c3.527-3.84,1.66-7.313,1.66-7.313
			s1.868,0.986,5.809-1.351c3.943-2.335,1.816-6.639,1.816-6.639c1.4,0.674,2.438,1.452,2.283,4.408
			c-0.156,2.957-3.685,5.603-5.654,6.848c-1.973,1.244-3.113,3.786-3.113,3.786c1.868-2.075,7.781-3.888,7.781-3.888
			c-0.104,0.775-1.036,2.074-1.036,2.074s0.934,0,5.081-3.632c4.148-3.633,2.395-9.388,2.395-9.388
			C51.995,41.819,51.618,39.951,49.916,38.551z M33.776,43.896c-0.467,0.363-1.66-0.261-0.883-1.246
			c0.779-0.985,2.646-0.519,2.646-0.519C35.28,42.441,34.244,43.531,33.776,43.896z"/>
		<path fill="#FFE61C" d="M29.938,61.58c0,0-0.014-0.018-0.032-0.04C29.898,61.592,29.938,61.58,29.938,61.58z"/>
	</g>
</g>
</svg>
