<?xml version="1.0" encoding="utf-8"?>
<!-- Generator: Adobe Illustrator 16.0.0, SVG Export Plug-In . SVG Version: 6.00 Build 0)  -->
<!DOCTYPE svg PUBLIC "-//W3C//DTD SVG 1.1//EN" "http://www.w3.org/Graphics/SVG/1.1/DTD/svg11.dtd">
<svg version="1.1" id="Calque_1" xmlns="http://www.w3.org/2000/svg" xmlns:xlink="http://www.w3.org/1999/xlink" x="0px" y="0px"
	 width="80px" height="80px" viewBox="0 0 80 80" enable-background="new 0 0 80 80" xml:space="preserve">
<path fill="#B0301F" d="M68.48,20.92l-0.153-1.412l-0.153-1.413l-0.039-0.359l-0.334-0.138l-1.328-0.549l-1.329-0.546
	c-0.43-0.178-10.674-4.331-25.199-4.331c-14.537,0-24.686,4.162-25.11,4.338l-1.321,0.551l-1.321,0.551l-0.333,0.138l-0.039,0.358
	l-0.152,1.406l-0.153,1.407c-0.557,5.156-0.493,10.423,0.191,15.653c0.718,5.493,2.093,10.697,4.084,15.468
	c4.637,11.11,12.272,19.073,22.083,23.025c0.051,0.02,1.342,0.551,1.896,0.709l0.165,0.049l0.167-0.048
	c0.495-0.139,1.76-0.651,1.904-0.708c9.847-3.95,17.517-11.908,22.174-23.019c2.003-4.773,3.383-9.979,4.105-15.473
	C68.976,31.347,69.042,26.077,68.48,20.92z"/>
<path fill="#D43B23" d="M12.311,36.499c0.712,5.438,2.072,10.589,4.042,15.311c4.573,10.957,12.093,18.806,21.75,22.695
	c0,0,1.308,0.539,1.836,0.689c0.476-0.135,1.838-0.687,1.838-0.687c9.697-3.888,17.251-11.734,21.845-22.69
	c1.98-4.723,3.347-9.876,4.063-15.316c0.681-5.187,0.744-10.406,0.189-15.515l-0.153-1.412l-0.155-1.413l-1.327-0.548l-1.329-0.548
	c-0.425-0.175-10.563-4.284-24.967-4.284c-14.416,0-24.456,4.116-24.877,4.292l-1.321,0.55l-1.321,0.551l-0.153,1.406l-0.152,1.407
	C11.57,26.096,11.634,31.313,12.311,36.499L12.311,36.499z"/>
<path fill="#F5C229" d="M65.818,21.202l-0.156-1.412l-0.021-0.216l-0.199-0.083l-1.329-0.548c-0.41-0.168-10.175-4.125-24.165-4.125
	c-14.002,0-23.665,3.961-24.07,4.131l-1.321,0.551l-0.199,0.083l-0.023,0.215l-0.152,1.407c-0.536,4.951-0.474,10.009,0.183,15.034
	c0.688,5.262,2.002,10.241,3.905,14.798c4.357,10.441,11.487,17.903,20.619,21.584c0.023,0.011,0.6,0.242,0.944,0.35l0.111,0.035
	l0.11-0.035c0.347-0.108,0.921-0.339,0.947-0.348c9.172-3.679,16.333-11.143,20.71-21.581c1.913-4.56,3.23-9.539,3.923-14.802
	C66.293,31.211,66.355,26.153,65.818,21.202z M65.27,36.192c-0.687,5.231-1.998,10.181-3.898,14.708
	C57.032,61.247,49.94,68.644,40.862,72.282c0,0-0.582,0.233-0.92,0.34c-0.335-0.108-0.92-0.343-0.92-0.343
	c-9.037-3.641-16.098-11.035-20.416-21.383c-1.889-4.527-3.196-9.477-3.88-14.706c-0.654-4.997-0.715-10.027-0.182-14.947
	l0.152-1.406l1.321-0.551c0.401-0.168,10.001-4.103,23.929-4.103c13.921,0,23.62,3.932,24.025,4.099l1.331,0.546l0.152,1.414
	C65.989,26.164,65.928,31.194,65.27,36.192z"/>
<path fill="#B0301F" d="M63.033,21.499l0.093-0.225c-0.021-0.008-9.54-3.931-23.181-3.932c-13.641,0-23.054,3.924-23.075,3.932
	l-0.132,0.055l-0.016,0.143c-0.227,2.103-0.344,4.257-0.344,6.437c0,8.568,1.789,17.508,5.614,25.139
	c3.826,7.626,9.699,13.948,17.859,17.237l0.091,0.035l0.091-0.035c8.2-3.289,14.101-9.609,17.945-17.237
	c3.844-7.63,5.64-16.571,5.64-25.139c0-2.178-0.115-4.333-0.344-6.436l-0.018-0.143l-0.133-0.055L63.033,21.499l-0.242,0.025
	c0.225,2.085,0.342,4.223,0.342,6.384c0,8.5-1.787,17.372-5.591,24.92c-3.806,7.548-9.62,13.768-17.691,17.003l0.092,0.226
	l0.09-0.226c-8.031-3.237-13.818-9.455-17.605-17.003c-3.786-7.547-5.563-16.42-5.563-24.92c0-2.162,0.115-4.299,0.341-6.385
	l-0.243-0.025l0.093,0.225l0.026-0.011c0.544-0.222,9.737-3.884,22.861-3.884c6.772,0,12.527,0.975,16.585,1.95
	c2.027,0.487,3.633,0.974,4.73,1.34c0.549,0.182,0.97,0.334,1.254,0.44l0.321,0.122l0.078,0.032l0.025,0.011L63.033,21.499
	l-0.242,0.025L63.033,21.499z"/>
<radialGradient id="SVGID_1_" cx="-312.1226" cy="-595.291" r="0.1218" gradientTransform="matrix(-149.363 272.129 268.374 147.301 113195.8125 172652.5781)" gradientUnits="userSpaceOnUse">
	<stop  offset="0" style="stop-color:#0079C0"/>
	<stop  offset="1" style="stop-color:#002C63"/>
</radialGradient>
<path fill="url(#SVGID_1_)" d="M63.033,21.499c0,0-9.494-3.913-23.088-3.913c-13.595,0-22.98,3.913-22.98,3.913
	c-2.008,18.564,4.729,41.207,22.98,48.56C58.281,62.705,65.049,40.062,63.033,21.499z"/>
<path fill="#D43B23" d="M25.246,49.008v9.07l1.664,2.149v-11.22H25.246z"/>
<path fill="#B0301F" d="M26.91,60.228l1.662,1.966V49.008H26.91V60.228z"/>
<path fill="#D43B23" d="M31.761,49.008v16.13l1.664,1.218V49.008H31.761z"/>
<path fill="#B0301F" d="M33.425,66.355l1.662,1.23V49.008h-1.662V66.355z"/>
<path fill="#D43B23" d="M51.307,49.008v13.199l1.665-1.838V49.008H51.307z"/>
<path fill="#B0301F" d="M52.972,60.33l1.66-2.149v-9.173h-1.66V60.33z"/>
<path fill="#D43B23" d="M44.793,49.008v18.578l1.662-1.088v-17.49H44.793z"/>
<path fill="#B0301F" d="M46.455,66.497l1.661-1.263V49.008h-1.661V66.497z"/>
<path fill="#D43B23" d="M38.276,49.008h1.663v10.469h-1.663V49.008z M38.276,63.982v5.345l1.663,0.731v-6.077L38.276,63.982
	L38.276,63.982z"/>
<path fill="#B0301F" d="M39.939,49.008h1.662v10.469h-1.662V49.008z M39.939,63.982v6.076l1.663-0.782v-5.293L39.939,63.982
	L39.939,63.982z M63.336,21.464l-0.021-0.179l-0.166-0.069c-0.022-0.009-9.551-3.935-23.205-3.936
	c-13.653,0.001-23.074,3.927-23.097,3.936l-0.165,0.07l-0.02,0.179c-0.228,2.105-0.343,4.262-0.343,6.443
	c0,8.576,1.79,17.526,5.621,25.166c1.916,3.818,4.343,7.312,7.316,10.263c2.972,2.949,6.488,5.355,10.576,7.006l0.113,0.045
	l0.113-0.045c4.107-1.65,7.64-4.055,10.626-7.006c4.479-4.426,7.727-10.071,9.855-16.213c2.13-6.142,3.141-12.782,3.141-19.215
	C63.68,25.726,63.564,23.57,63.336,21.464z M57.488,52.799c-1.898,3.771-4.3,7.206-7.232,10.103
	c-2.904,2.871-6.331,5.211-10.311,6.826c-3.961-1.613-7.37-3.955-10.261-6.824c-4.379-4.348-7.569-9.909-9.663-15.98
	c-2.095-6.07-3.093-12.648-3.093-19.017c0-2.098,0.109-4.171,0.321-6.196c1.309-0.515,10.227-3.824,22.696-3.822
	c6.767,0,12.517,0.974,16.57,1.948c2.028,0.487,3.63,0.974,4.727,1.337c0.549,0.183,0.967,0.333,1.252,0.441l0.257,0.097
	c0.213,2.025,0.322,4.099,0.322,6.195C63.072,36.399,61.288,45.263,57.488,52.799z"/>
<path fill="#F5C229" d="M30.958,23.767c0.14,0.264,0.261,0.537,0.386,0.808c0.209-0.21,0.39-0.445,0.58-0.673
	c0.134,0.25,0.25,0.511,0.366,0.771c0.307-0.188,0.594-0.405,0.891-0.607c-0.161,0.444-0.345,1.408-0.688,1.734
	c-0.248,0.336-1.176,0.295-1.526,0.295c-0.355,0-1.281,0.043-1.535-0.295c-0.33-0.444-0.502-1.215-0.7-1.733
	c0.298,0.202,0.595,0.404,0.893,0.607c0.132-0.253,0.245-0.514,0.366-0.771c0.194,0.224,0.388,0.449,0.581,0.673
	C30.708,24.31,30.835,24.04,30.958,23.767C31.097,24.027,30.834,24.042,30.958,23.767z M30.793,20.04
	c-0.165,0.354-0.42,0.663-0.688,0.944c0.265,0.01,0.474,0.146,0.635,0.347c-0.291,0.019-0.514,0.159-0.773,0.27
	c0.085,0.052,0.148,0.147,0.237,0.192c-0.317-0.07-0.612,0.027-0.903,0.135c0.028,0.035,0.058,0.071,0.086,0.106
	c-0.45-0.105-0.773,0.121-1.118,0.366c0.076-0.004,0.15-0.007,0.226-0.01c-0.149,0.133-0.293,0.313-0.333,0.511
	c0.136-0.068,0.244-0.167,0.323-0.298c0.027,0.278-0.068,0.544-0.225,0.771c0.74-0.273,1.509-0.448,2.299-0.492
	c-0.422,0.886,1.036,0.913,0.613,0c0.785,0.045,1.553,0.214,2.289,0.492c-0.14-0.239-0.242-0.488-0.226-0.771
	c0.09,0.121,0.199,0.224,0.323,0.309c-0.023-0.223-0.175-0.383-0.333-0.52c0.078,0.006,0.158,0.013,0.236,0.019
	c-0.333-0.255-0.662-0.477-1.106-0.375c0.029-0.032,0.058-0.064,0.086-0.096c-0.287-0.116-0.587-0.214-0.903-0.146
	c0.059-0.079,0.133-0.137,0.226-0.173c-0.236-0.147-0.483-0.257-0.763-0.289c-0.042-0.183,0.529-0.345,0.613-0.347
	c-0.25-0.301-0.489-0.594-0.688-0.934c0.444,0.211,0.906,0.377,1.354,0.579c-0.075-0.165-0.137-0.336-0.183-0.51
	c0.363,0.176,0.698,0.406,1,0.673c-0.071-0.184-0.136-0.369-0.194-0.558c0.346,0.173,0.666,0.403,0.913,0.703
	c-0.013-0.155,0.049-0.317,0.033-0.472c0.434,0.35,0.77,0.889,0.709,1.464c0.193-0.156,0.224-0.469,0.215-0.694
	c0.257,0.289,0.402,0.661,0.333,1.051c0.099-0.108,0.264-0.155,0.365-0.261c0.068,0.439-0.088,1.079-0.302,1.474
	c-0.173,0.538-0.974,0.725-0.484,1.445c0.548,0.813,0.283-0.79,0.263-0.757c0.155-0.26,0.214-0.484,0.274-0.777
	c0.06-0.293,0.683,0.114,0.849,0.128c0.276,0.058,1.747-0.013,1.374,0.658c-0.143,0.258,0.034,0.738-0.29,0.865
	c-0.2,0.079-0.988-0.022-0.846,0.434c0.097,0.316,1.167-0.754,1.644-0.077c0.224,0.316-0.118,0.585-0.027,0.869
	c0.122,0.378,0.592-0.241,0.695-0.271c-0.033,0.211,0.048,0.368,0.236,0.472c-0.312,0.126-1.16,0.294-1.173-0.255
	c-0.013-0.508-0.378-0.764-0.838-0.375c-0.357,0.305-0.914,0.17-0.921-0.372c-0.008-0.419,0.675-0.733,0.655-0.953
	c-0.013-0.135-1.14-0.628-1.085,0.125c0.067,0.828-0.901,1.385-1.299,0.494c-0.023-0.05-0.281-0.871-0.327-0.371
	c-0.042,0.465,0.282,0.921,0.622,1.2c0.384,0.315,0.905,0.485,1.401,0.434c0.556-0.056,0.867-0.472,1.311-0.006
	c0.248,0.259-0.403,0.846-0.534,1.183c-0.213,0.552-0.18,1.114-0.031,1.676c0.285,1.066,0.801,2.133,0.79,3.257
	c-0.012,1.114-0.767,2.028-1.623,2.663c-0.661,0.49-2.368,0.981-2.661,1.781c0.364-0.446,1.338-0.141,1.167,0.493
	c-0.158,0.582-0.738,0.437-1.167,0.412c-0.367-0.021-0.727-0.05-1.093-0.091c-0.246-0.027-0.559,0.081-0.789-0.043
	c-0.222-0.121-0.214-0.731-0.387-0.731c-0.164,0-0.191,0.479-0.275,0.609c-0.175,0.278-0.589,0.148-0.853,0.16
	c-0.333,0.024-0.664,0.096-0.999,0.096c-0.42,0-0.91,0.212-1.225-0.206c-0.5-0.663,0.614-1.23,1.076-0.69
	c-0.152-0.52-1.128-0.865-1.55-1.089c-0.652-0.347-1.275-0.737-1.788-1.278c-1.269-1.339-0.965-2.836-0.435-4.446
	c0.253-0.769,0.563-1.535,0.327-2.35c-0.163-0.566-1.017-1.134-0.443-1.553c0.301-0.221,0.452-0.007,0.788,0.088
	c0.434,0.122,0.891,0.085,1.304-0.095c0.589-0.256,1.214-0.927,1.022-1.622c-0.268,0.081-0.79,1.787-1.486,0.692
	c-0.14-0.221,0.045-0.997-0.191-1.086c-0.087-0.033-0.964,0.203-0.987,0.279c-0.044,0.131,0.696,0.668,0.645,1.069
	c-0.096,0.718-0.743,0.367-1.083,0.155c-0.496-0.308-0.648,0.163-0.665,0.524c-0.026,0.517-0.896,0.342-1.174,0.226
	c0.183-0.1,0.265-0.25,0.236-0.453c0.085,0.091,0.25,0.238,0.355,0.297c0.507,0.283,0.238-0.392,0.225-0.557
	c-0.024-0.33,0.237-0.563,0.541-0.618c0.545-0.098,0.555,0.433,0.953,0.472c0.362,0.04,0.239-0.417,0.011-0.491
	c-0.255-0.171-0.83,0.16-0.817-0.407c0.008-0.392-0.291-0.748,0.13-1.007c0.335-0.207,0.689-0.193,1.062-0.186
	c0.688,0.014,0.737-0.553,1.013,0.271c0.081,0.218,0.302,0.401,0.168,0.631c-0.082,0.139-0.289,0.511-0.077,0.636
	c0.26,0.155,0.432-0.211,0.486-0.391c0.132-0.445-0.169-0.619-0.419-0.888c-0.335-0.361-0.532-1.299-0.489-1.753
	c0.094-0.01,0.308,0.186,0.365,0.25c-0.051-0.38,0.068-0.778,0.344-1.049c-0.009,0.244,0.031,0.514,0.216,0.693
	c-0.061-0.634,0.296-1.058,0.708-1.483c-0.02,0.157,0.041,0.325,0.021,0.482c0.259-0.288,0.569-0.528,0.914-0.704
	c-0.045,0.185-0.105,0.365-0.183,0.539c0.314-0.247,0.637-0.482,0.999-0.655c-0.045,0.172-0.106,0.338-0.182,0.5
	C29.902,20.426,30.365,20.271,30.793,20.04C30.635,20.379,30.384,20.26,30.793,20.04z M27.591,30.451
	c-0.11,0.134-0.253,0.191-0.43,0.173c0.113-0.137,0.17-0.294,0.172-0.472c-0.074,0.153-0.199,0.214-0.375,0.184
	c0.252-0.181,0.03-0.569,0.043-0.799c-0.04,0.251-0.16,0.421-0.441,0.404c0.262-0.211-0.049-0.624,0.14-0.866
	c-0.097,0.178-0.384,0.254-0.549,0.125c0.233-0.063,0.319-0.398,0.526-0.529c-0.208,0.079-0.507,0.006-0.527-0.26
	c0.143,0.066,0.283,0.06,0.419-0.019c-0.019-0.093-0.272-0.26-0.056-0.332c0.388-0.131,0.016-0.562,0.444-0.12
	c0.044-0.106,0.175-0.175,0.225-0.279c0.124,0.072,0.177,0.181,0.161,0.328c0.202,0.016,0.503-0.07,0.687,0.049
	c0.036,0.023,0.678,0.257,0.679,0.258c0.154,0.409-0.755,0.461-0.753,0.51c0.127-0.011,1.098-0.083,1.14-0.038
	c-0.182,0.394-0.858-0.185-0.784,0.453c-0.102-0.072-0.263-0.063-0.365-0.135c-0.277,0.25,0.542,0.203,0.627,0.173
	c0.242-0.083,0.252,0.254,0.498,0.351c0.168,0.065,0.518-0.389,0.547-0.572c0.039-0.241,0.402-0.505,0.402-0.555
	c0-0.257,0.016-0.519,0-0.775c-0.343,0.052-0.076-0.449-0.192-0.618c-0.108-0.157-0.742-0.586-0.226-0.705
	c0.564-0.13,1.198-0.097,1.771-0.073c0.229,0.009,0.905-0.06,0.934,0.267c0.021,0.231-0.297,0.336-0.43,0.538
	c-0.09,0.137,0.17,0.666-0.169,0.59c-0.016,0.256,0,0.519,0,0.775c0,0.107,0.353,0.212,0.387,0.481
	c0.034,0.272,0.252,0.432,0.428,0.629c0.165,0.184,0.372-0.132,0.39-0.261c0.01-0.068,1.146,0.025,0.869-0.246
	c-0.106,0.073-0.27,0.063-0.376,0.135c0.104-0.654-0.654-0.05-0.763-0.453c0.028-0.034,1.002,0.028,1.127,0.028
	c-0.067-0.116-0.167-0.146-0.3-0.085c-0.248,0.062-0.388-0.155-0.452-0.426c0.198-0.043,0.399-0.075,0.601-0.097
	c0.026-0.146,0.115-0.214,0.268-0.203c0.166,0,0.331,0.001,0.496,0c-0.014-0.15,0.044-0.264,0.173-0.337
	c0.063,0.105,0.138,0.202,0.225,0.289c0.069-0.073,0.109-0.16,0.117-0.26c0.354,0.151,0.306,0.473,0.258,0.713
	c0.136,0.073,0.275,0.083,0.42,0.028c-0.024,0.267-0.333,0.311-0.538,0.269c0.269,0.083,0.287,0.416,0.538,0.521
	c-0.209,0.104-0.398,0.049-0.549-0.105c0.17,0.236-0.109,0.647,0.129,0.838c-0.286,0.018-0.375-0.171-0.44-0.404
	c0.017,0.218-0.185,0.625,0.042,0.799c-0.172,0.023-0.296-0.039-0.375-0.184c0.02,0.172,0.077,0.329,0.173,0.472
	c-0.178,0.015-0.323-0.045-0.43-0.184c0.058,0.214,0.114,0.545,0.354,0.646c-0.122,0.013-0.244,0.01-0.366-0.01
	c0.25,0.287,0.08,0.623,0.323,0.87c0.175,0.177,0.423,0.506,0.548,0.729c0.78,0.032,0.552-0.836,0.301-1.258
	c-0.289-0.489-0.514-1.529,0.355-1.604c0.559-0.049,1.007,1.38,0.752,1.772c-0.022-0.43-0.636-0.429-0.698-0.828
	c-0.035-0.216,0.103-0.411,0.29-0.501c-0.093-0.431-0.6-0.187-0.696,0.104c-0.171,0.518,0.279,0.917,0.478,1.341
	c0.098,0.211,0.128,0.437,0.064,0.662c-0.095,0.332,0.299,0.372,0.176,0.727c-0.121-0.157-0.282-0.221-0.484-0.192
	c0.2,0.146,0.081,0.518-0.139,0.578c0.073-0.161,0.052-0.305-0.065-0.434c0.021,0.211-0.119,0.325-0.269,0.434
	c0.06-0.199-0.107-0.37-0.268-0.453c0.137,0.277-0.228,0.507-0.06,0.755c0.113,0.166,0.452,0.044,0.303,0.299
	c-0.177,0.301,0.106,0.398,0.103,0.668c-0.042,0.13-0.355,0.311-0.462,0.404c0.028,0.04,0.073,0.108,0.108,0.155
	c1.627-0.84,2.416-2.172,2.01-3.977c-0.408-1.806-1.229-3.385,0.247-4.941c-0.302-0.294-0.753,0.124-1.135,0.188
	c-0.568,0.095-1.223-0.059-1.697-0.385c-0.713-0.489-1.586-2.399-0.124-2.481c-0.937-0.234-1.752-0.643-2.741-0.742
	c0.367,0.949-1.329,0.855-0.956,0c-0.951,0.088-1.86,0.365-2.73,0.751c1.363,0.024,0.683,1.743,0.097,2.292
	c-0.43,0.403-1.041,0.588-1.623,0.587c-0.383,0-1.168-0.531-1.429-0.231c1.385,1.547,0.75,2.954,0.31,4.749
	c-0.466,1.903,0.2,3.269,1.956,4.199c0.048-0.068,0.082-0.117,0.118-0.165c-0.001-0.286-0.481-0.111-0.473-0.415
	c0.008-0.285,0.235-0.384,0.077-0.703c-0.101-0.201,0.378-0.118,0.374-0.404c0.04-0.143-0.148-0.431-0.119-0.625
	c-0.123,0.169-0.338,0.218-0.258,0.481c-0.167-0.101-0.259-0.248-0.28-0.443c-0.109,0.141-0.124,0.292-0.043,0.453
	c-0.231-0.155-0.309-0.365-0.172-0.597c-0.203-0.047-0.322,0.072-0.463,0.183c-0.098-0.257,0.118-0.365,0.237-0.539
	c-0.084-0.205-0.126-0.413-0.069-0.633c0.127-0.49,0.635-0.847,0.584-1.389c-0.049-0.539-0.964-0.672-0.517-0.087
	c0.35,0.458-0.477,0.792-0.633,1.156c-0.196-0.388,0.168-1.218,0.327-1.553c0.382-0.807,1.232,0.365,1,0.984
	c-0.139,0.371-0.925,1.431-0.133,1.637c0.752,0.197,0.82-1.243,1.096-1.588c-0.125,0.032-0.249,0.038-0.375,0.019
	C27.49,31,27.537,30.67,27.591,30.451C27.517,30.571,27.591,30.451,27.591,30.451z M27.945,28.303h-0.29
	C27.672,28.465,27.909,28.42,27.945,28.303z M34.072,28.303h-0.29C33.815,28.418,34.058,28.469,34.072,28.303z M28.331,28.891
	h-0.354C28.015,28.994,28.296,28.996,28.331,28.891z M33.748,28.891h-0.354C33.43,28.996,33.711,28.994,33.748,28.891z
	 M29.558,30.103c0.037,0.231,0.228,0.341,0.214,0.636c0.03,0.074-0.294,0.482,0.247,0.464c0-0.626,0-1.253,0-1.879
	C29.57,29.325,29.825,29.919,29.558,30.103C29.565,30.148,29.808,29.93,29.558,30.103z M31.707,31.203
	c0.564,0.013,0.119-0.67,0.463-0.973c-0.135,0.006-0.06-0.904-0.463-0.905C31.707,29.95,31.707,30.577,31.707,31.203
	C31.839,31.206,31.707,31.203,31.707,31.203z M28.762,31.992c0.059-0.283-0.673,0.636-0.753,0.462
	c0.424-0.091,1.837-0.271,1.333,0.598c-0.061,0.104-0.511,0.34-0.148,0.424c0.501,0.116,0.48-0.35,0.822-0.349
	c0.128-0.272,0-0.902,0-1.204c0-0.236,0.065-0.311-0.236-0.39c-0.272-0.154-0.394-0.086-0.366,0.203
	c-0.106,0.297-0.291,0.543-0.332,0.014c-0.046,0.184-0.136,0.345-0.269,0.48C28.771,32.157,28.754,32.078,28.762,31.992
	C28.762,31.992,28.754,32.081,28.762,31.992z M32.899,32.231c-0.118-0.145-0.208-0.304-0.269-0.48
	c0.034,0.375-0.038,0.437-0.215,0.181c-0.193-0.252,0.003-0.475-0.366-0.42c-0.445,0.068-0.344,0.333-0.344,0.688
	c0,0.234-0.099,0.715,0,0.927c0.188-0.012,0.664,0.77,0.956,0.279c0.029-0.339-0.509-0.416-0.309-0.872
	c0.17-0.384,1.075-0.107,1.373-0.082c-0.25-0.322-0.521-0.09-0.796-0.588C32.988,31.994,32.977,32.116,32.899,32.231
	C32.784,32.095,32.986,32.167,32.899,32.231z M33.76,33.57c-0.074-0.055-0.117-0.128-0.13-0.221c0.017,0.098-0.004,0.184-0.065,0.26
	c-0.069-0.054-0.111-0.125-0.128-0.212c0.016,0.071-0.005,0.126-0.065,0.163c-0.055-0.052-0.088-0.117-0.096-0.193
	c0.019,0.277-0.2,0.199-0.258,0.028c0.037,0.156,0.479,0.779-0.066,0.601c-0.224-0.073-1.171,0.033-1.245-0.061
	c-0.028,0.101-0.033,0.324,0,0.423c0.223-0.003,0.793,0.262,0.28,0.404c0.218,0.031,0.439-0.02,0.657-0.003
	c0.246,0.02,0.414,0.368,0.085,0.398c0.249,0,0.498,0,0.747,0c0.061,0,0.428-0.315,0.585-0.375c0.284-0.108,0.708-0.02,0.602-0.539
	c-0.041-0.198-0.391-0.288-0.541-0.361c-0.258-0.125-0.168-0.319-0.212-0.555C33.909,33.442,33.858,33.522,33.76,33.57
	C33.666,33.562,33.76,33.57,33.76,33.57z M28.439,33.378c0.003,0.077-0.026,0.138-0.085,0.183c-0.054-0.041-0.079-0.095-0.075-0.163
	c-0.007,0.092-0.047,0.166-0.119,0.222c-0.051-0.083-0.075-0.171-0.075-0.27c0.002,0.103-0.041,0.177-0.13,0.221
	c-0.082-0.055-0.132-0.133-0.15-0.231c-0.039,0.497-0.131,0.497-0.558,0.716c-0.318,0.164-0.199,0.681,0.15,0.708
	c0.259,0.02,0.359,0.131,0.6,0.179c0.133,0.007,0.198,0.08,0.194,0.217c0.269-0.006,0.538,0.016,0.807-0.01
	c-0.302-0.05-0.212-0.34,0.018-0.376c0.241-0.039,0.485,0.018,0.725-0.018c-0.528-0.248,0.419-0.318,0.278-0.8
	c-0.234,0.142-0.928-0.067-1.282,0.065c-0.438,0.163-0.146-0.494-0.051-0.614C28.641,33.605,28.426,33.597,28.439,33.378
	C28.427,33.453,28.426,33.608,28.439,33.378z M30.019,33.619h-0.075H30.019z M31.707,33.628l0.075-0.019L31.707,33.628z"/>
<path fill="#D43B23" d="M16.258,39.184l4.219,14.157h38.942l3.997-14.157H16.258z"/>
<path fill="#B0301F" d="M23.593,51.568c-1.172-0.051-2.1-0.509-2.783-1.375s-1.025-2.075-1.025-3.627v-0.469
	c0.049-1.06,0.243-1.945,0.584-2.658c0.339-0.716,0.793-1.246,1.36-1.588c0.568-0.344,1.218-0.516,1.955-0.516
	c0.743,0.014,1.389,0.179,1.937,0.496c0.101,0.066,0.193,0.1,0.276,0.1c0.102,0,0.171-0.032,0.208-0.1
	c0.094-0.097,0.143-0.228,0.143-0.391h0.484l0.209,3.159h-0.417c-0.007-0.136-0.115-0.405-0.326-0.808
	c-0.21-0.402-0.495-0.766-0.853-1.09c-0.359-0.323-0.773-0.485-1.242-0.485c-0.635,0-1.148,0.373-1.541,1.116
	c-0.393,0.746-0.594,1.645-0.604,2.7c0,1.379,0.122,2.481,0.368,3.307c0.246,0.823,0.722,1.283,1.428,1.367
	c0.36,0,0.646-0.067,0.859-0.204c0.212-0.137,0.318-0.242,0.318-0.326v-2.522c0-0.371-0.044-0.626-0.136-0.763
	c-0.101-0.176-0.31-0.266-0.625-0.266H23.87v-0.636h3.829v0.576h-0.165c-0.195,0-0.327,0.076-0.395,0.226
	c-0.105,0.151-0.157,0.383-0.157,0.695v2.851c-0.165,0.201-0.523,0.461-1.072,0.77C25.36,51.414,24.587,51.569,23.593,51.568
	L23.593,51.568z M31.629,45.685v-2.629c0-0.38-0.063-0.661-0.186-0.841c-0.134-0.164-0.342-0.244-0.619-0.244h-0.373v-0.531h7.153
	l0.141,2.253h-0.305l-0.044-0.366c-0.037-0.336-0.159-0.598-0.366-0.781c-0.185-0.162-0.5-0.243-0.947-0.243h-2.286v3.383h1.525
	c0.21,0,0.395-0.066,0.552-0.203c0.184-0.217,0.276-0.404,0.276-0.555v-0.53h0.395v3.503h-0.395v-0.451
	c0-0.191-0.054-0.403-0.163-0.637c-0.154-0.19-0.376-0.287-0.665-0.287h-1.525v3.174c0,0.407,0.07,0.692,0.208,0.862
	c0.151,0.18,0.351,0.271,0.603,0.271h0.366v0.49h-4.523v-0.49h0.372c0.267,0,0.473-0.092,0.619-0.271
	c0.124-0.198,0.186-0.483,0.186-0.862L31.629,45.685L31.629,45.685z M46.798,44.599c-0.03-0.188-0.136-0.47-0.313-0.853
	c-0.178-0.38-0.437-0.729-0.775-1.051c-0.337-0.32-0.735-0.48-1.192-0.48c-0.653,0-1.164,0.369-1.529,1.104
	c-0.367,0.735-0.549,1.642-0.549,2.713c0,0.907,0.039,1.669,0.117,2.285c0.079,0.615,0.245,1.138,0.502,1.566
	c0.255,0.43,0.634,0.704,1.137,0.822l0.389,0.041c0.573,0,1.044-0.246,1.404-0.74c0.362-0.494,0.586-0.965,0.674-1.412l0.619,0.471
	l-0.168,0.474c-0.102,0.283-0.268,0.576-0.499,0.882c-0.232,0.308-0.557,0.575-0.98,0.805c-0.422,0.229-0.949,0.342-1.579,0.342
	c-1.197-0.028-2.141-0.51-2.823-1.441c-0.685-0.931-1.029-2.275-1.029-4.03c0.082-1.59,0.468-2.78,1.16-3.573
	c0.69-0.791,1.604-1.188,2.736-1.188c0.688,0.014,1.274,0.179,1.758,0.495c0.123,0.066,0.223,0.101,0.297,0.101
	c0.101,0,0.166-0.032,0.209-0.101c0.09-0.115,0.135-0.246,0.135-0.391h0.464l0.23,3.161H46.798L46.798,44.599z M49.105,51.322v-0.49
	h0.32c0.255,0,0.471-0.131,0.647-0.393c0.131-0.154,0.23-0.332,0.297-0.534l2.957-8.466h1.267l2.996,8.466
	c0.093,0.262,0.196,0.439,0.304,0.534c0.171,0.262,0.372,0.393,0.597,0.393h0.344v0.49h-4.47v-0.49h0.231
	c0.226,0,0.411-0.058,0.554-0.165c0.108-0.073,0.161-0.177,0.161-0.311l-0.044-0.244l-0.603-1.784h-2.816l-0.596,1.599L51.133,50.4
	l0.051,0.16c0.012,0.065,0.066,0.123,0.16,0.184c0.096,0.059,0.18,0.088,0.25,0.088h0.303v0.49H49.105z M52.078,47.567h2.331
	l-1.154-3.239L52.078,47.567L52.078,47.567z"/>
<path fill="#F5C229" d="M24.08,51.203c-1.172-0.051-2.1-0.508-2.783-1.375c-0.683-0.865-1.025-2.075-1.025-3.626V45.73
	c0.049-1.059,0.243-1.945,0.583-2.658c0.339-0.715,0.793-1.244,1.36-1.588c0.567-0.344,1.218-0.516,1.955-0.516
	c0.743,0.014,1.389,0.18,1.937,0.496c0.101,0.067,0.194,0.101,0.276,0.101c0.102,0,0.171-0.033,0.208-0.101
	c0.094-0.097,0.142-0.227,0.142-0.389h0.483l0.209,3.158h-0.418c-0.007-0.137-0.116-0.406-0.326-0.809
	c-0.211-0.402-0.496-0.766-0.854-1.088c-0.359-0.325-0.774-0.486-1.241-0.486c-0.635,0-1.148,0.373-1.541,1.117
	c-0.393,0.744-0.594,1.644-0.604,2.697c0,1.38,0.123,2.482,0.368,3.307c0.246,0.826,0.723,1.283,1.428,1.37
	c0.359,0,0.646-0.067,0.859-0.204c0.212-0.138,0.318-0.245,0.318-0.327v-2.523c0-0.369-0.044-0.624-0.134-0.761
	c-0.101-0.177-0.31-0.265-0.625-0.265h-0.298v-0.636h3.83v0.576h-0.163c-0.195,0-0.327,0.074-0.395,0.224
	c-0.105,0.151-0.157,0.383-0.157,0.695v2.85c-0.165,0.203-0.523,0.46-1.072,0.769C25.847,51.049,25.075,51.203,24.08,51.203z
	 M32.116,45.319v-2.628c0-0.381-0.062-0.662-0.185-0.842c-0.135-0.164-0.342-0.245-0.62-0.245h-0.373v-0.53h7.153l0.141,2.254
	h-0.305l-0.044-0.367c-0.037-0.337-0.159-0.598-0.366-0.78c-0.185-0.163-0.5-0.245-0.947-0.245h-2.286v3.384h1.526
	c0.211,0,0.395-0.068,0.552-0.205c0.184-0.215,0.276-0.401,0.276-0.555v-0.53h0.395v3.505h-0.395v-0.45
	c0-0.191-0.054-0.402-0.163-0.637c-0.154-0.191-0.376-0.286-0.665-0.286h-1.526v3.172c0,0.409,0.07,0.697,0.209,0.862
	c0.15,0.183,0.351,0.271,0.603,0.271h0.366v0.491h-4.523v-0.491h0.373c0.266,0,0.473-0.089,0.62-0.271
	c0.124-0.198,0.185-0.484,0.185-0.862V45.319z M47.284,44.234c-0.03-0.188-0.134-0.471-0.312-0.852s-0.437-0.73-0.775-1.053
	c-0.337-0.32-0.735-0.479-1.193-0.479c-0.652,0-1.163,0.367-1.528,1.103c-0.367,0.736-0.55,1.641-0.55,2.712
	c0,0.906,0.039,1.671,0.118,2.285c0.078,0.615,0.244,1.137,0.502,1.568c0.254,0.427,0.634,0.703,1.138,0.823l0.387,0.039
	c0.573,0,1.044-0.246,1.404-0.742c0.363-0.492,0.589-0.964,0.674-1.411l0.62,0.471l-0.168,0.475
	c-0.102,0.282-0.268,0.573-0.499,0.882c-0.232,0.307-0.557,0.575-0.98,0.804c-0.422,0.229-0.95,0.343-1.579,0.343
	c-1.197-0.028-2.14-0.509-2.824-1.441c-0.684-0.932-1.027-2.275-1.027-4.031c0.08-1.589,0.468-2.78,1.159-3.572
	s1.604-1.189,2.736-1.189c0.688,0.014,1.274,0.18,1.757,0.497c0.124,0.066,0.224,0.1,0.297,0.1c0.101,0,0.168-0.033,0.209-0.1
	c0.091-0.117,0.135-0.248,0.135-0.391h0.464l0.231,3.16H47.284L47.284,44.234z M49.592,50.958v-0.491h0.321
	c0.254,0,0.471-0.131,0.647-0.39c0.132-0.153,0.23-0.332,0.297-0.537l2.957-8.464h1.267l2.995,8.464
	c0.094,0.262,0.197,0.439,0.304,0.537c0.171,0.259,0.374,0.39,0.599,0.39h0.342v0.491H54.85v-0.491h0.231
	c0.226,0,0.41-0.055,0.553-0.166c0.11-0.071,0.163-0.176,0.163-0.311l-0.045-0.243l-0.603-1.783h-2.815l-0.598,1.599l-0.116,0.474
	l0.05,0.16c0.012,0.063,0.066,0.125,0.16,0.184c0.097,0.058,0.18,0.087,0.25,0.087h0.304v0.491H49.592z M52.565,47.204h2.331
	l-1.154-3.241L52.565,47.204z"/>
<g>
	<path fill="#F5C229" d="M37.002,62.747v-0.131h0.221v-1.534l-0.013,0.011l-0.093,0.067l-0.123,0.076l-0.152,0.082l-0.03,0.015
		l-0.054-0.166l0.023-0.011c0.126-0.057,0.251-0.132,0.372-0.225c0.122-0.093,0.245-0.208,0.367-0.345l0.009-0.01h0.217v2.04h0.222
		v0.131L37.002,62.747L37.002,62.747z M38.98,62.784c-0.244,0-0.44-0.05-0.581-0.147l-0.012-0.009v-0.514h0.124l0.006,0.022
		c0.094,0.334,0.247,0.506,0.454,0.506c0.201-0.01,0.309-0.287,0.319-0.823c-0.088,0.091-0.209,0.138-0.362,0.138l-0.221-0.04
		l-0.202-0.118l-0.147-0.196c0,0-0.057-0.172-0.057-0.277c0-0.124,0.019-0.236,0.055-0.332c0.037-0.1,0.088-0.181,0.153-0.247
		c0.064-0.066,0.142-0.119,0.231-0.155c0.088-0.033,0.185-0.052,0.288-0.052c0.524,0,0.789,0.38,0.789,1.128l-0.024,0.282
		l-0.076,0.261l-0.121,0.229l-0.166,0.183l-0.207,0.121L38.98,62.784z M39.028,60.69l-0.091,0.041l-0.073,0.122l-0.044,0.176
		l-0.016,0.202l0.014,0.207l0.043,0.176l0.074,0.117l0.099,0.04l0.096-0.041l0.074-0.12l0.045-0.176l0.015-0.203l-0.015-0.204
		l-0.046-0.176l-0.075-0.12L39.028,60.69z M40.281,62.747v-0.131h0.222v-1.534l-0.015,0.011l-0.092,0.067l-0.124,0.076l-0.152,0.082
		l-0.03,0.015l-0.055-0.166l0.023-0.011c0.126-0.057,0.251-0.132,0.374-0.225c0.123-0.093,0.245-0.208,0.368-0.345l0.009-0.01h0.217
		v2.04h0.223v0.131L40.281,62.747L40.281,62.747z M42.337,62.789l-0.251-0.044l-0.205-0.124l-0.158-0.187l-0.112-0.233l-0.067-0.263
		l-0.022-0.276l0.022-0.271l0.067-0.262l0.109-0.233l0.157-0.19l0.206-0.129l0.255-0.045l0.246,0.043l0.204,0.123l0.158,0.185
		l0.116,0.231l0.069,0.264l0.023,0.284l-0.02,0.268l-0.066,0.259l-0.112,0.233l-0.158,0.192l-0.209,0.129L42.337,62.789z
		 M42.337,60.687c-0.188,0-0.288,0.338-0.288,0.976c0,0.617,0.1,0.945,0.288,0.945s0.288-0.328,0.288-0.945
		C42.625,61.024,42.525,60.687,42.337,60.687z"/>
</g>
<path fill="#2E2A25" d="M44.93,25.736c-0.959-0.53-1.552-0.36-2.072-0.346c0.494,0.022,1.274,0.133,1.859,0.507
	c0.67,0.429,1.98,0.35,2.287,0.107C46.772,26.07,45.552,26.169,44.93,25.736z"/>
<path fill="#2E2A25" d="M51.9,27.114c-0.655-0.491-1.295-0.826-2.064-0.931c1.045,0.306,1.92,1.019,2.022,1.136
	c-0.097-0.051-0.447-0.094-0.666-0.093c-0.202,0.001-0.369-0.038-0.434-0.113c-0.586-0.668-1.623-1.106-2.604-1.308
	c0.642,0.229,2.027,0.836,2.458,1.421c0.151,0.205,0.296,0.167,0.936,0.192c0.643,0.025,1.282,0.329,1.421,0.539
	C52.89,27.573,52.283,27.402,51.9,27.114z"/>
<path fill="#FFFFFF" d="M44.065,22.602c-0.717,0.247-0.783,0.464-0.783,0.464l-0.588,0.335v0.693l-0.271,1.258l0.245,1.264
	l1.199,3.036l4.285,1.735l4.652-2.542l0.539-0.294c0,0,0.222,1.979,0.929,2.324c0.708,0.345,2.063,1.267,1.609,1.982
	c-0.456,0.715-1.791,1.255-1.791,1.255l0.425,1.294l-1.218,1.231c0,0,0.194,0.699,0.775,0.782c1.026,0.05,0.532-1.243,1.896-1.889
	c0.314-0.268,0.186-0.974,0.522-1.58c0.336-0.606,0.68-0.891,0.232-2.118l-0.101-1.442l-1.691-0.895l-0.611-0.829
	c0,0,1.31,0.2,2.088-0.845c0.259-0.346,0.344-1.017,0.599-1.724c0.513-1.433,1.13-3.1,1.13-3.1l0.33-0.33l-0.633-0.483l-0.154,0.442
	l-0.009,0.41l-0.98-0.007l0.242-0.633l-0.56-0.274l-0.209-0.871l-0.48-0.363l-0.362,0.466l0.082,0.765l-1.211,0.222
	c0,0,1.193,3.034,1.058,3.936c-0.136,0.902-0.434,1.459-1.527,1.441C52.634,27.702,48.869,23.362,44.065,22.602z"/>
<path fill="#2E2A25" d="M56.825,30.705c-0.004-0.285-0.154-0.469-0.397-0.632c-0.604-0.352-1.25-0.399-1.569-0.764
	c-0.101-0.117-0.222-0.338-0.313-0.497c0.119,0.023,0.194,0.034,0.346-0.003c0.161-0.037,0.977-0.32,1.332-0.595
	c0.464-0.42,0.595-1.241,0.665-1.516c0.311-1.166,1.56-3.766,1.583-4.048c0.025-0.28-0.469-0.528-0.563-0.567
	c-0.094-0.04-0.239,0.015-0.239,0.015l0.048,0.364c0,0.208-0.176,0.384-0.176,0.384l-0.904,0.112
	c-0.145,0.357-0.376,0.529-0.595,0.526c-0.073,0.005-0.325-0.015-0.336-0.19c-0.021-0.369,0.574-0.339,0.767-0.359
	c0.188-0.019,0.511-0.072,0.493-0.393c-0.006-0.382-0.458-0.425-0.593-0.421v-0.771c-0.022-0.62-0.789-0.459-1.054-0.415
	l0.002,0.976c0,0-0.279,0.106-0.655,0.163c-0.375,0.058-0.537,0.262-0.52,0.448c0.018,0.11,0.035,0.22,0.14,0.326
	c0.101,0.169,0.684,2.17,0.766,2.449c0.263,0.899,0.013,1.781-0.339,2.098c-0.291,0.285-0.741,0.243-0.919,0.203
	c-0.04-0.078-0.075-0.153-0.085-0.238c0.367,0.143,0.645,0,0.536-0.087c-0.104-0.087-0.244-0.454-0.269-0.692
	c0.171-0.011,0.586-0.094,0.681-0.198l-0.338-0.449l0.336-0.143c0.088-0.027,0.113-0.094,0.104-0.185
	c-0.042-0.187-0.166-0.171-0.266-0.288c-0.095-0.122-0.117-0.58-0.127-0.684l0.175-0.299l-0.613-0.597l0.296-0.326
	c-0.068-0.244-0.88-0.509-1.051-0.919c-0.158-0.386-0.328-0.409-0.42-0.443l0.108-0.268c-0.217-0.187-0.554-0.11-0.746-0.203
	l-1.152-0.483l-0.045-0.259c0,0-0.662,0-0.781-0.023c-0.305-0.033-0.466-0.293-0.597-0.303c-0.134-0.008-0.112,0.08-0.372,0.021
	c-0.767-0.256-1.46-0.172-1.624-0.076l-0.028-0.316c-0.029-0.162-0.183-0.113-0.199-0.039c-0.196,0.518-1.055,0.454-1.372,0.614
	l-0.369-0.186c0,0-0.237,0.341-0.367,0.432c-0.129,0.088-0.44,0.209-0.703,0.313c-0.258,0.106-0.49,0.308-0.562,0.431h-0.343v0.229
	c0.007,0.222-0.162,0.332-0.283,0.521c-0.259,0.403-0.272,0.597-0.622,0.948c-0.083,0.07-0.131,0.361-0.131,0.448l0.054,0.207
	c0,0.024,0.007,0.139-0.082,0.213c-0.128,0.116-0.214,0.239-0.188,0.45c0.019,0.179-0.073,0.333-0.083,0.429
	c-0.017,0.141,0.043,0.328,0.08,0.388c0.021,0.032,0.064,0.114,0.031,0.206c-0.154,0.405-0.279,0.889-0.079,1.299l0.008,0.212
	c-0.014,0.032-0.959,1.764-1.09,2.045c-0.08,0.145-0.182,0.39-0.17,0.579c0.02,0.388,0.288,0.45,0.426,0.462h0.51l-0.005,0.256
	c-0.008,0.251-0.438,0.289-0.443,0.627c0,0.253,0.239,0.425,0.367,0.484c-0.085,0.189-0.127,0.24-0.088,0.505
	c0.051,0.333,0.516,0.32,0.701,0.314c0.294,0.713-0.064,0.843,0,1.325c0.143,0.866,1.555,1.06,2.938,0.708
	c0.371,1.523,1.718,0.728,2.153,3.354c2.505,0.742,3.638-2.076,4.854-3.226c0.442-0.484,1.483-1,1.502-1.023l0.012-0.109
	c-1.021-0.86-1.42-2.498-1.452-2.78l0.432-0.062c0.044-0.011,0.145-0.04,0.06-0.155c-0.062-0.07-0.385-0.553-0.436-0.553
	c0.209,0,0.45,0.01,0.655-0.048c-0.054-0.286-0.271-0.514-0.244-0.812c0.002-0.046,0-0.153,0.082-0.321
	c0.04,0.042,0.094,0.065,0.154,0.074c0.49,0.804,0.368,1.37,0.788,1.958c0.443,0.615,1.286,0.563,1.525,0.877
	c0.24,0.312,0.313,0.763,0.343,1.121c-0.524,0.811-1.625,1.145-1.79,1.254c0.165,0.312,0.401,1.061,0.424,1.294l-1.161,1.086
	l-0.057,0.145c0.022,0.206,0.211,0.896,0.818,0.91c0.607,0.013,0.796-0.63,0.819-0.815c0.367-0.708,1.114-1.149,1.34-1.355
	c0.022-0.464,0.097-1.251,0.283-1.577c0.127-0.198,0.43-0.632,0.484-1.109c0.055-0.409-0.053-0.716-0.196-0.89L56.825,30.705z
	 M57.891,22.292c0.109,0.002,0.405,0.238,0.403,0.367c-0.006,0.128-0.499,0.161-0.499,0.161
	C57.832,22.783,57.946,22.535,57.891,22.292z M55.511,21.119c0.104-0.032,0.67-0.127,0.676,0.243c0.007,0.335-0.676,0.5-0.676,0.5
	V21.119z M54.354,22.536c0.002-0.118,0.111-0.228,0.431-0.272c0.244-0.027,1.118-0.24,1.401-0.497v0.371
	c-0.655,0.048-0.862,0.738-1.465,0.773C54.479,22.912,54.354,22.654,54.354,22.536z M55.267,25.358l-0.66-2.278
	c0.825,0.1,1-0.758,1.72-0.762c0.104,0,0.449-0.024,0.453,0.233c0.003,0.256-0.406,0.22-0.742,0.251
	c-0.339,0.034-0.531,0.287-0.525,0.434c0.005,0.147,0.035,0.209,0.113,0.282c0.256,0.552,0.135,2.087,0.066,2.365
	c0.201-0.354,0.287-1.578,0.091-2.251c0.646,0.196,0.967-0.369,1.025-0.519L58.139,23c0,0-1.315,3.15-1.432,3.676
	c-0.114,0.518-0.178,0.743-0.383,1.109c-0.238,0.422-1.001,0.665-1.25,0.778c-0.249,0.109-0.607,0.085-0.816-0.072
	c-0.085-0.064-0.204-0.142-0.318-0.208c0.01-0.04,0.027-0.084,0.027-0.12c0.517,0.171,0.311,0.078,0.006-0.099
	c-0.002-0.028-0.016-0.058-0.021-0.086c0.996,0.044,1.461-0.292,1.526-0.457c-0.366,0.4-1.25,0.406-1.558,0.345
	c-0.005-0.021-0.01-0.038-0.021-0.056C55.702,27.905,55.345,25.547,55.267,25.358z M43.831,28.521
	c-0.146-0.149,0.138-0.444,0.596-0.478c-0.171-0.029-0.484-0.18-0.575-0.256c0.015,0.189-0.092,0.434-0.327,0.396
	c-0.232-0.022-0.246-0.596-0.112-0.676c-0.001,0.001-0.306-0.286-0.122-0.47c0.163,0.211,0.622,0.752,1.522,0.861
	C44.811,28.279,43.972,28.181,43.831,28.521z M53.021,28.271l-0.727-0.306c-0.521,0.035-0.979-0.25-1.33-0.121
	c0.352,0.015,0.482,0.151,0.838,0.272c0.312,0.141,0.574-0.081,0.752,0.181c-0.193,0.096-0.667,0.118-0.883,0.105
	c-0.426-0.02-0.505-0.205-0.644-0.269c-0.188-0.085-0.342-0.04-0.386,0.061c-0.062,0.161-0.26,0.41-0.441,0.51
	c-0.16,0.092-0.421,0.233-0.549,0.539c-0.13,0.307-0.399,0.941-0.878,0.911c-0.481-0.029-0.539-0.371-0.53-0.405
	c0.055,0.087,0.126,0.229,0.493,0.234c0.373,0.003,0.617-0.54,0.797-1.017c0.179-0.316,0.384-0.341,0.598-0.496
	c0.21-0.158,0.391-0.534,0.329-0.953c-0.035-0.267-0.441-0.941-1.302-0.753c-0.547,0.167-0.934,0.612-1.003,0.716
	c-0.477,0.005-1.393-0.4-1.467-0.435c0.485-0.035,0.73-0.16,0.73-0.16c-0.319-0.033-1.398,0.016-2.068-0.174
	c-0.665-0.189-1.468-0.598-1.684-0.673c-0.347-0.141-1.106-0.216-1.1-0.713c0.015-0.252,0.105-0.312,0.105-0.312l0.514,0.044
	c0,0-0.47-0.234-0.509-0.32c-0.059-0.082,0.017-0.274,0.032-0.306c0.019-0.029,0.048-0.181,0.252-0.166l0.313,0.052
	c0,0-0.42-0.33-0.437-0.425c-0.05-0.045-0.068-0.273,0.109-0.354c0.093-0.042,0.428-0.21,0.463-0.416
	c0.014-0.09,0.086-0.082,0.123-0.067c0.206,0.019,2.962,1.2,3.464,1.619c0.501,0.424-2.176-0.361-2.676-0.529
	c0.237,0.208,2.175,0.883,3.079,0.921c0.253,0.01,0.709-0.061,1.142,0.166c0.369,0.192,0.88,0.321,1.227,0.352
	c-0.145,0.064-0.429,0.069-0.504,0.064c0.305,0.153,0.718,0.235,0.912,0.275c0.924,0.229,1.626,1.019,2.013,1.229
	c0.298,0.205,1.023,0.41,1.042,0.953C53.232,28.247,53.07,28.273,53.021,28.271z M49.63,27.336
	c-0.464-0.294-1.232,0.763-1.232,0.469c0.046-0.306,0.892-0.941,1.354-0.656c0.404,0.25,0.299,0.701,0.244,0.848
	c-0.063,0.186-0.264,0.314-0.244,0.136C49.786,28.009,49.944,27.534,49.63,27.336z M49.125,28.043
	c0.011-0.12,0.406-0.158,0.406,0.208c0,0.356-0.35,0.344-0.396,0.48c-0.08,0.259-0.046,0.576-0.414,0.509
	c-0.258-0.058-0.253-0.369-0.114-0.38l0.184,0.167c0.148-0.005,0.066-0.358,0.195-0.476c0.125-0.117,0.331-0.19,0.326-0.307
	L49.125,28.043z M54.188,30.788c-0.372-0.456-0.286-1.126-0.77-1.909c0.165-0.052,0.344-0.184,0.472-0.419
	c0.002-0.002,0.002-0.005,0.004-0.011c0.08,0.067,0.17,0.124,0.258,0.178c0.192,0.232,0.428,0.58,0.536,0.75
	c0.359,0.484,1.25,0.632,1.603,0.836c0.243,0.12,0.314,0.343,0.342,0.507c0,0,0.04,0.78,0.023,1.039l-0.611,0.883
	C55.967,30.97,54.728,31.446,54.188,30.788z M54.479,37.234c-0.187,0.177-0.869,0.251-0.981-0.625l1.05-0.948
	C54.575,35.909,54.978,36.795,54.479,37.234z M56.439,33.64c-0.273,0.458-0.336,1.446-0.342,1.658
	c-0.319,0.143-1.038,0.83-1.231,1.112c-0.047-1.043-0.502-2.16-0.571-2.223c1.676-0.634,2.012-1.696,2.455-2.192
	C57.027,32.715,56.711,33.236,56.439,33.64z"/>
</svg>
