<?xml version="1.0" encoding="utf-8"?>
<!-- Generator: Adobe Illustrator 16.0.0, SVG Export Plug-In . SVG Version: 6.00 Build 0)  -->
<!DOCTYPE svg PUBLIC "-//W3C//DTD SVG 1.1//EN" "http://www.w3.org/Graphics/SVG/1.1/DTD/svg11.dtd">
<svg version="1.1" id="Calque_1" xmlns="http://www.w3.org/2000/svg" xmlns:xlink="http://www.w3.org/1999/xlink" x="0px" y="0px"
	 width="80px" height="80px" viewBox="0 0 80 80" enable-background="new 0 0 80 80" xml:space="preserve">
<path fill="#FFFFFF" stroke="#FFFFFF" stroke-width="6.7531" d="M39.985,76.766h0.014C15.883,70.547,13.271,51.738,12.9,44.332
	c-0.054-1.077-0.041-2.028-0.041-2.028v-27.65c0,0,10.217-5.418,27.14-5.418h-0.026h0.028c16.924,0,27.139,5.418,27.139,5.418v27.65
	c0,0,0.014,0.949-0.039,2.028c-0.37,7.406-2.984,26.215-27.1,32.434h0.013H39.985z"/>
<path fill="#001C51" d="M39.985,76.766h0.014C15.883,70.547,13.271,51.738,12.9,44.332c-0.054-1.077-0.041-2.028-0.041-2.028v-27.65
	c0,0,10.217-5.418,27.14-5.418h-0.026h0.028c16.924,0,27.139,5.418,27.139,5.418v27.65c0,0,0.014,0.949-0.039,2.028
	c-0.37,7.406-2.984,26.215-27.1,32.434h0.013H39.985z"/>
<path fill="#FFFFFF" d="M39.985,74.504h0.012c-22.364-5.765-24.787-23.952-25.13-30.82c-0.049-0.999-0.038-1.88-0.038-1.88V15.861
	c0,0,9.474-5.027,25.167-5.027h-0.021H40c15.692,0,25.169,5.027,25.169,5.027v25.942c0,0,0.011,0.88-0.039,1.881
	c-0.345,6.868-2.766,25.056-25.13,30.82h0.012H39.985z"/>
<path fill="#001C51" d="M39.986,71.085h0.012c-20.183-5.207-22.37-21.617-22.679-27.815c-0.045-0.903-0.034-1.698-0.034-1.698
	V18.158c0,0,8.551-4.536,22.714-4.536h-0.022H40c14.162,0,22.713,4.536,22.713,4.536V41.57c0,0,0.011,0.794-0.033,1.697
	c-0.309,6.2-2.496,22.61-22.679,27.817h0.011H39.986z"/>
<g>
	<path fill="#FFFFFF" d="M27.21,23.619c0,0.253,0.135,0.296,0.273,0.321c0.137,0.025,0.281,0.05,0.281,0.203
		c0,0.093-0.085,0.118-0.231,0.118c-0.178,0-0.443-0.034-0.98-0.034c-0.537,0-0.802,0.034-0.982,0.034
		c-0.144,0-0.23-0.024-0.23-0.118c0-0.153,0.145-0.178,0.315-0.203c0.188-0.024,0.239-0.152,0.239-0.54v-3.783
		c0-0.194,0-0.321-0.153-0.406c-0.145-0.067-0.35-0.067-0.35-0.176c0-0.119,0.102-0.127,0.255-0.127
		c0.102,0,0.367,0.034,0.903,0.034c0.538,0,0.802-0.034,0.981-0.034c0.144,0,0.231,0.034,0.231,0.118
		c0,0.101-0.196,0.152-0.332,0.202c-0.188,0.077-0.221,0.186-0.221,0.422V23.619z M35.602,24.363c-1.519,0-2.379-1.503-2.379-2.778
		c0-1.445,0.827-2.778,2.379-2.778c1.519,0,2.379,1.502,2.379,2.778C37.982,23.028,37.155,24.363,35.602,24.363z M35.508,19.077
		c-0.563,0-0.854,1.056-0.854,1.933c0,1.63,0.394,3.083,1.093,3.083c0.512,0,0.802-0.828,0.802-2.103
		C36.549,20.638,36.191,19.077,35.508,19.077z M42.015,19.869c0-0.337-0.05-0.642-0.315-0.675c-0.136-0.016-0.314-0.06-0.314-0.168
		c0-0.077,0.051-0.117,0.146-0.117l0.604,0.034l0.606-0.034c0.102,0,0.163,0.042,0.163,0.127c0,0.101-0.145,0.135-0.281,0.161
		c-0.207,0.042-0.281,0.161-0.281,0.446v4.611c0,0.084-0.07,0.11-0.249,0.11c-0.104,0-0.17-0.026-0.239-0.127l-2.678-4.198H39.15
		v3.293c0,0.533,0.162,0.617,0.333,0.642c0.169,0.026,0.341,0.009,0.341,0.16c0,0.069-0.069,0.127-0.17,0.127l-0.614-0.034
		l-0.572,0.034c-0.127,0-0.188-0.024-0.188-0.127c0-0.295,0.545,0,0.545-0.531v-4.036c0-0.574-0.53-0.271-0.53-0.506
		c0-0.094,0.086-0.152,0.231-0.152l0.605,0.034l0.613-0.034c0.171,0,0.273,0.024,0.35,0.145l1.904,3.047h0.016v-2.231H42.015z
		 M43.919,19.66c0-0.49-0.581-0.128-0.581-0.381c0-0.186,0.573-0.472,2.004-0.472c1.801,0,2.838,0.962,2.838,2.736
		c0,1.671-0.957,2.719-2.37,2.719c-0.596,0-0.987-0.034-1.348-0.034c-0.434,0-0.696,0.034-0.876,0.034
		c-0.145,0-0.229-0.024-0.229-0.118c0-0.153,0.145-0.178,0.28-0.203c0.138-0.024,0.282-0.067,0.282-0.32V19.66z M45.231,23.491
		c0,0.236,0.205,0.448,0.444,0.448c0.581,0,1.074-0.506,1.074-2.432c0-1.604-0.425-2.381-1.133-2.381
		c-0.258,0-0.386,0.126-0.386,0.38V23.491L45.231,23.491z M50.527,23.619c0,0.253,0.137,0.296,0.275,0.321
		c0.135,0.025,0.282,0.05,0.282,0.203c0,0.093-0.088,0.118-0.232,0.118c-0.181,0-0.444-0.034-0.98-0.034L48.89,24.26
		c-0.145,0-0.229-0.024-0.229-0.118c0-0.153,0.147-0.178,0.315-0.203c0.188-0.024,0.24-0.152,0.24-0.54v-3.783
		c0-0.194,0-0.321-0.155-0.406c-0.145-0.067-0.349-0.067-0.349-0.176c0-0.119,0.103-0.127,0.255-0.127
		c0.104,0,0.366,0.034,0.905,0.034l0.98-0.034c0.145,0,0.232,0.034,0.232,0.118c0,0.101-0.199,0.152-0.336,0.202
		c-0.188,0.077-0.222,0.186-0.222,0.422V23.619z M55.089,19.869c0-0.337-0.054-0.642-0.315-0.675
		c-0.135-0.016-0.315-0.06-0.315-0.168c0-0.077,0.051-0.117,0.146-0.117l0.605,0.034l0.604-0.034c0.103,0,0.163,0.042,0.163,0.127
		c0,0.101-0.146,0.135-0.283,0.161c-0.206,0.042-0.28,0.161-0.28,0.446v4.611c0,0.084-0.069,0.11-0.249,0.11
		c-0.104,0-0.171-0.026-0.239-0.127l-2.678-4.198h-0.024v3.293c0,0.533,0.162,0.617,0.331,0.642c0.171,0.026,0.344,0.009,0.344,0.16
		c0,0.069-0.071,0.127-0.17,0.127l-0.613-0.034l-0.574,0.034c-0.124,0-0.187-0.024-0.187-0.127c0-0.295,0.546,0,0.546-0.531v-4.036
		c0-0.574-0.531-0.271-0.531-0.506c0-0.094,0.087-0.152,0.231-0.152l0.604,0.034c0,0,0.409-0.034,0.615-0.034
		c0.17,0,0.271,0.024,0.351,0.145l1.901,3.047h0.019L55.089,19.869L55.089,19.869z M58.126,18.806c0.33,0,0.792,0.084,1.056,0.194
		c0.12,0.051,0.213,0.076,0.213,0.227l-0.009,0.837c0,0.262-0.01,0.372-0.207,0.372c-0.355,0-0.398-1.359-1.177-1.359
		c-0.398,0-0.597,0.27-0.597,0.624c0,1.133,2.211,1.301,2.211,2.906c0,1.056-0.92,1.757-1.98,1.757
		c-0.238,0-1.415-0.009-1.415-0.456c0-0.481,0.018-0.718,0.021-0.895c0.026-0.439,0.072-0.583,0.285-0.583
		c0.433,0,0.212,1.664,1.166,1.664c0.521,0,0.826-0.371,0.826-0.827c0-1.183-2.207-1.511-2.207-2.939
		C56.316,19.339,57.28,18.806,58.126,18.806z M20.739,27.522c0-0.197-0.053-0.241-0.237-0.241l-0.229,0.015
		c-0.096,0-0.111-0.023-0.111-0.094c0-0.155,1.079-0.301,1.669-0.301c1.375,0,2.232,0.907,2.232,2.378
		c0,1.032-0.575,2.349-1.98,2.349l-0.887-0.029c-0.599,0-0.806,0.029-0.961,0.029l-0.074-0.095c0-0.08,0.037-0.096,0.259-0.11
		c0.236-0.006,0.317-0.131,0.317-0.527v-3.374H20.739z M21.461,30.838c0,0.417,0.201,0.586,0.584,0.586
		c0.763,0,1.219-0.908,1.219-2.049c0-1.346-0.532-2.27-1.345-2.27c-0.281,0-0.458,0.103-0.458,0.439V30.838z M24.847,27.463
		c0-0.183-0.052-0.234-0.273-0.271c-0.142-0.021-0.207-0.015-0.207-0.109c0-0.079,0.059-0.095,0.213-0.095
		c0.067,0,0.236,0.028,1.175,0.028c0.776,0,1.123-0.028,1.337-0.028c0.133,0,0.17,0.028,0.17,0.14v0.93
		c0,0.094-0.029,0.13-0.082,0.13c-0.118,0-0.074-0.036-0.243-0.409c-0.2-0.439-0.406-0.586-0.976-0.586
		c-0.355,0-0.392,0.029-0.392,0.198v1.486c0,0.103,0.014,0.131,0.199,0.131c0.613,0,0.643-0.006,0.775-0.277
		c0.119-0.241,0.112-0.336,0.208-0.336c0.066,0,0.089,0.036,0.089,0.132l-0.03,0.63l0.03,0.615c0,0.131-0.015,0.205-0.104,0.205
		c-0.111,0-0.111-0.147-0.193-0.402c-0.103-0.336-0.132-0.358-0.65-0.358c-0.296,0-0.325,0.006-0.325,0.132v1.397
		c0,0.527,0.088,0.681,0.59,0.681c0.488,0,0.726-0.204,0.916-0.716c0.148-0.388,0.141-0.418,0.215-0.418
		c0.067,0,0.082,0.022,0.082,0.168v1.039c0,0.103-0.03,0.132-0.177,0.132c-0.199,0-0.555-0.029-1.309-0.029
		c-0.836,0-1.051,0.029-1.405,0.029c-0.132,0-0.155-0.038-0.155-0.088c0-0.079,0.023-0.102,0.126-0.117
		c0.317-0.051,0.392-0.117,0.392-0.336v-3.624H24.847L24.847,27.463z M30.338,27.346c0-0.094-0.044-0.153-0.17-0.153h-0.23
		l-0.089-0.08c0-0.073,0.073-0.108,0.177-0.125c0.607-0.072,0.992-0.088,1.45-0.088c0.991,0,1.552,0.336,1.552,1.061
		c0,0.592-0.369,0.863-0.924,1.046v0.015c0.688,0.081,1.205,0.556,1.205,1.244c0,0.687-0.525,1.361-1.287,1.361l-1.102-0.029
		c-0.437,0-0.724,0.029-0.909,0.029c-0.125,0-0.163-0.029-0.163-0.081c0-0.067,0.038-0.067,0.192-0.118
		c0.245-0.081,0.296-0.102,0.296-0.3v-3.782H30.338z M31.061,28.656c0,0.25,0.074,0.278,0.289,0.278c0.51,0,0.938-0.248,0.938-0.981
		c0-0.534-0.309-0.849-0.827-0.849c-0.34,0-0.399,0.109-0.399,0.301L31.061,28.656L31.061,28.656z M31.061,30.881
		c0,0.353,0.164,0.542,0.591,0.542c0.392,0,0.857-0.292,0.857-1.186c0-0.608-0.317-1.098-1.05-1.098
		c-0.34,0-0.399,0.044-0.399,0.205V30.881L31.061,30.881z M35.511,31.717c-1.138,0-1.848-1.244-1.848-2.409
		c0-1.164,0.71-2.407,1.848-2.407c1.139,0,1.849,1.244,1.849,2.407C37.36,30.472,36.649,31.717,35.511,31.717z M35.511,27.105
		c-0.731,0-1.05,1.303-1.05,2.203c0,0.9,0.318,2.204,1.05,2.204c0.731,0,1.05-1.304,1.05-2.204
		C36.561,28.408,36.243,27.105,35.511,27.105z M38.94,31.006c0,0.212,0.059,0.359,0.288,0.402c0.281,0.052,0.31,0.087,0.31,0.14
		c0,0.052-0.022,0.081-0.096,0.081L38.652,31.6c-0.414,0-0.614,0.029-0.798,0.029c-0.073,0-0.111-0.029-0.111-0.095
		c0-0.052,0.029-0.096,0.155-0.11c0.236-0.022,0.318-0.161,0.318-0.307v-3.586c0-0.241-0.052-0.321-0.266-0.336
		c-0.169-0.015-0.208-0.043-0.208-0.094c0-0.073,0.052-0.11,0.133-0.11l0.738,0.029l1.087-0.029c0.806,0,1.293,0.514,1.293,1.199
		c0,0.652-0.54,1.012-1.139,1.091v0.014c0.221,0.036,0.311,0.139,0.422,0.358c0.605,1.207,0.68,1.631,0.894,1.771
		c0.147,0.094,0.265,0.03,0.265,0.14l-0.088,0.066l-0.51-0.029l-0.393,0.029c-0.052,0-0.089-0.037-0.133-0.14l-0.91-1.961
		c-0.043-0.096-0.095-0.155-0.236-0.155c-0.163,0-0.229,0.037-0.229,0.176v1.456H38.94z M38.94,28.994
		c0,0.146,0.022,0.175,0.237,0.175c0.665,0,1.02-0.27,1.02-0.995c0-0.527-0.354-0.981-0.799-0.981c-0.369,0-0.466,0.096-0.458,0.388
		V28.994L38.94,28.994z M42.123,27.522c0-0.197-0.052-0.241-0.237-0.241l-0.229,0.015c-0.096,0-0.111-0.023-0.111-0.094
		c0-0.155,1.08-0.301,1.67-0.301c1.375,0,2.23,0.907,2.23,2.378c0,1.032-0.576,2.349-1.981,2.349l-0.887-0.029
		c-0.599,0-0.806,0.029-0.961,0.029l-0.072-0.095c0-0.08,0.035-0.096,0.258-0.11c0.237-0.006,0.317-0.131,0.317-0.527v-3.374H42.123
		z M42.847,30.838c0,0.417,0.2,0.586,0.584,0.586c0.761,0,1.221-0.908,1.221-2.049c0-1.346-0.533-2.27-1.345-2.27
		c-0.281,0-0.46,0.103-0.46,0.439V30.838L42.847,30.838z M46.231,27.463c0-0.183-0.052-0.234-0.271-0.271
		c-0.142-0.021-0.208-0.015-0.208-0.109c0-0.079,0.058-0.095,0.212-0.095c0.069,0,0.236,0.028,1.176,0.028
		c0.775,0,1.122-0.028,1.336-0.028c0.133,0,0.17,0.028,0.17,0.14v0.93c0,0.094-0.028,0.13-0.081,0.13
		c-0.117,0-0.072-0.036-0.244-0.409c-0.201-0.439-0.405-0.586-0.977-0.586c-0.353,0-0.392,0.029-0.392,0.198v1.486
		c0,0.103,0.015,0.131,0.198,0.131c0.616,0,0.646-0.006,0.777-0.277c0.118-0.241,0.111-0.336,0.209-0.336
		c0.067,0,0.086,0.036,0.086,0.132l-0.027,0.63l0.027,0.615c0,0.131-0.014,0.205-0.104,0.205c-0.11,0-0.11-0.147-0.191-0.402
		c-0.104-0.336-0.132-0.358-0.649-0.358c-0.297,0-0.326,0.006-0.326,0.132v1.397c0,0.527,0.088,0.681,0.591,0.681
		c0.49,0,0.725-0.204,0.916-0.716c0.147-0.388,0.142-0.418,0.214-0.418c0.068,0,0.078,0.022,0.078,0.168v1.039
		c0,0.103-0.027,0.132-0.176,0.132c-0.199,0-0.554-0.029-1.309-0.029c-0.834,0-1.05,0.029-1.403,0.029
		c-0.134,0-0.157-0.038-0.157-0.088c0-0.079,0.023-0.102,0.126-0.117c0.316-0.051,0.394-0.117,0.394-0.336v-3.624H46.231
		L46.231,27.463z M50.158,29.975c-0.11,0-0.11,0.043-0.213,0.469l-0.186,0.761c0,0.095,0.06,0.168,0.223,0.219
		c0.14,0.044,0.347,0.015,0.347,0.11c0,0.045-0.023,0.095-0.132,0.095L49.664,31.6c-0.354,0-0.48,0.029-0.554,0.029l-0.074-0.073
		c0-0.11,0.095-0.066,0.253-0.132c0.168-0.073,0.244-0.417,0.843-2.371c0.65-2.123,0.6-2.152,0.729-2.152
		c0.159,0,0.098,0.088,1.009,3.015c0.368,1.187,0.413,1.456,0.561,1.508c0.169,0.059,0.258,0.038,0.258,0.125
		c0,0.052-0.021,0.081-0.155,0.081L51.904,31.6c-0.399,0-0.667,0.029-0.746,0.029l-0.098-0.088c0-0.065,0.073-0.058,0.326-0.117
		c0.095-0.022,0.125-0.11,0.125-0.167c0-0.067-0.037-0.161-0.187-0.688c-0.147-0.534-0.147-0.592-0.24-0.592L50.158,29.975
		L50.158,29.975z M51.024,29.77l0.066-0.022c0-0.051-0.045-0.184-0.325-1.15c-0.11-0.38-0.11-0.412-0.141-0.412
		c-0.034,0-0.034,0.046-0.279,0.909l-0.186,0.652l0.083,0.022H51.024z M55.518,30.355v-2.592c0-0.491-0.105-0.549-0.297-0.57
		c-0.208-0.021-0.229-0.043-0.229-0.109c0-0.051,0.029-0.095,0.156-0.095l0.466,0.029l0.488-0.029c0.072,0,0.149,0.037,0.149,0.095
		c0,0.073-0.046,0.094-0.238,0.109c-0.169,0.014-0.289,0.117-0.289,0.366v2.715c0,1.009-0.493,1.443-1.285,1.443
		c-0.77,0-1.464-0.199-1.464-1.077v-3.154c0-0.184-0.03-0.279-0.134-0.293c-0.259-0.037-0.28-0.066-0.28-0.124
		c0-0.043,0.036-0.081,0.104-0.081c0.14,0,0.288,0.029,0.686,0.029c0.466,0,0.718-0.029,0.77-0.029c0.089,0,0.126,0.037,0.126,0.081
		c0,0.073-0.044,0.082-0.272,0.124c-0.186,0.029-0.273,0.103-0.273,0.336v2.943c0,0.659,0.331,0.995,0.923,0.995
		C55.11,31.467,55.518,31.116,55.518,30.355L55.518,30.355z M56.633,27.529c-0.125-0.233-0.141-0.307-0.29-0.336
		c-0.131-0.029-0.2-0.029-0.2-0.109c0-0.058,0.039-0.095,0.114-0.095l0.641,0.029c0.496,0,0.643-0.029,0.754-0.029l0.104,0.073
		c0,0.073-0.029,0.11-0.258,0.132c-0.082,0.008-0.156,0.052-0.156,0.132c0,0.102,0.059,0.197,0.633,1.339
		c0.521-1.04,0.63-1.172,0.63-1.295c0-0.117-0.109-0.176-0.31-0.176c-0.066,0-0.148-0.021-0.148-0.095
		c0-0.094,0.082-0.11,0.159-0.11c0.072,0,0.242,0.029,0.589,0.029l0.473-0.029c0,0,0.148,0.029,0.148,0.095
		c0,0.059-0.016,0.103-0.11,0.109c-0.318,0.022-0.459,0.146-0.586,0.388l-0.719,1.354l0.598,1.208
		c0.571,1.15,0.591,1.202,0.763,1.281c0.104,0.051,0.163,0.066,0.163,0.117c0,0.052-0.016,0.088-0.117,0.088L58.946,31.6
		c-0.563,0-0.686,0.029-0.754,0.029c-0.09,0-0.119-0.029-0.119-0.081c0-0.088,0.112-0.088,0.222-0.125
		c0.118-0.036,0.192-0.087,0.192-0.167c0-0.073-0.096-0.242-0.538-1.172c-0.17-0.366-0.207-0.418-0.222-0.418
		c-0.036,0-0.067,0.094-0.361,0.636c-0.303,0.557-0.369,0.74-0.369,0.856c0,0.132,0.079,0.22,0.295,0.263
		c0.141,0.03,0.202,0.044,0.202,0.11c0,0.073-0.045,0.095-0.096,0.095c-0.112,0-0.237-0.029-0.6-0.029
		c-0.385,0-0.518,0.029-0.599,0.029c-0.122,0-0.146-0.023-0.146-0.095c0-0.096,0.053-0.096,0.191-0.125
		c0.244-0.059,0.258-0.08,0.51-0.519l0.852-1.486L56.633,27.529z M29.046,19.561c0-0.254-0.138-0.349-0.275-0.375
		c-0.128-0.025-0.275-0.051-0.275-0.153c0-0.093,0.076-0.119,0.223-0.119c0.18,0,0.446,0.034,0.987,0.034
		c0.352,0,0.868-0.034,1.417-0.034c0.927,0,1.614,0.443,1.614,1.335c0,1.335-1.527,1.215-1.527,1.309c0,0.043,0.069,0.05,0.163,0.05
		c0.44,0,0.653,0.077,0.817,0.485l0.601,1.496c0.25,0.612,0.567,0.34,0.567,0.586c0,0.094-0.078,0.127-0.155,0.127h-1.158
		c-0.369,0-0.396-0.034-0.533-0.399l-0.61-1.641c-0.112-0.306-0.207-0.493-0.454-0.493l-0.079,0.069v1.59
		c0,0.262,0.01,0.467,0.215,0.552c0.163,0.066,0.309,0.042,0.309,0.204c0,0.093-0.086,0.118-0.232,0.118s-0.412-0.034-0.954-0.034
		l-0.987,0.034c-0.113,0-0.189-0.025-0.189-0.118c0-0.154,0.104-0.179,0.241-0.204c0.137-0.026,0.275-0.069,0.275-0.324
		L29.046,19.561L29.046,19.561z M30.366,21.405l0.078,0.042c0.6,0,0.969-0.476,0.969-1.147c0-0.596-0.318-1.115-0.78-1.115
		c-0.172,0-0.268,0.069-0.268,0.392V21.405z M24.463,23.655c0,0.294-0.914,0.69-1.697,0.69c-1.427,0-2.419-1.275-2.419-2.688
		c0-1.81,1.114-2.982,2.584-2.982c0.357,0,0.714,0.069,1.01,0.155c0.174,0.061,0.305,0.113,0.322,0.302
		c0.018,0.258,0.026,0.594,0.026,1.042c0,0.172-0.079,0.241-0.174,0.241c-0.505,0-0.409-1.465-1.271-1.465
		c-0.461,0-1.035,0.69-1.035,2.499c0,1.671,0.426,2.621,1.053,2.621c0.201,0,0.313-0.225,0.313-0.596v-1.249
		c0-0.466-0.531-0.208-0.531-0.431c0-0.121,0.069-0.155,0.226-0.155l0.992,0.034l0.854-0.034c0.156,0,0.191,0.042,0.191,0.128
		c0,0.208-0.444,0.027-0.444,0.527L24.463,23.655L24.463,23.655z"/>
</g>
<path fill="#FFFFFF" d="M37.162,49.089c0,0.178,0.106,0.259,0.275,0.259c0.077,0,0.123,0.015,0.123,0.063l-0.103,0.069l-0.594-0.017
	l-0.636,0.017L36.14,49.41l0.124-0.063c0.209,0,0.307-0.043,0.307-0.19V47.42c0-0.103-0.021-0.129-0.086-0.129l-0.305,0.114
	l-0.052-0.066c0-0.04,0.049-0.077,0.45-0.263c0.431-0.198,0.458-0.219,0.517-0.219l0.066,0.052L37.162,49.089L37.162,49.089z
	 M39.156,47.961c0.348,0.149,0.651,0.365,0.651,0.778c0,0.513-0.492,0.786-0.96,0.786c-0.413,0-0.917-0.217-0.917-0.701
	c0-0.373,0.274-0.453,0.544-0.588c-0.248-0.146-0.451-0.354-0.451-0.669c0-0.484,0.439-0.715,0.877-0.715
	c0.476,0,0.779,0.247,0.779,0.583C39.68,47.736,39.396,47.875,39.156,47.961z M38.593,48.313c-0.115,0.166-0.14,0.293-0.14,0.493
	c0,0.407,0.172,0.594,0.426,0.594s0.402-0.161,0.402-0.384C39.283,48.631,38.89,48.461,38.593,48.313z M39.041,47.889
	c0.138-0.123,0.205-0.229,0.205-0.439c0-0.202-0.083-0.463-0.395-0.463c-0.217,0-0.304,0.15-0.304,0.309
	C38.548,47.619,38.815,47.76,39.041,47.889z M41.372,47.961c0.349,0.149,0.651,0.365,0.651,0.778c0,0.513-0.493,0.786-0.959,0.786
	c-0.415,0-0.919-0.217-0.919-0.701c0-0.373,0.275-0.453,0.545-0.588c-0.246-0.146-0.451-0.354-0.451-0.669
	c0-0.484,0.44-0.715,0.876-0.715c0.478,0,0.782,0.247,0.782,0.583C41.897,47.736,41.613,47.875,41.372,47.961z M40.808,48.313
	c-0.114,0.166-0.138,0.293-0.138,0.493c0,0.407,0.171,0.594,0.428,0.594c0.254,0,0.4-0.161,0.4-0.384
	C41.498,48.631,41.104,48.461,40.808,48.313z M41.255,47.889c0.141-0.123,0.207-0.229,0.207-0.439c0-0.202-0.081-0.463-0.396-0.463
	c-0.216,0-0.304,0.15-0.304,0.309C40.763,47.619,41.031,47.76,41.255,47.889z M43.48,49.089c0,0.178,0.107,0.259,0.274,0.259
	c0.077,0,0.123,0.015,0.123,0.063l-0.104,0.069l-0.594-0.017l-0.635,0.017l-0.087-0.069l0.123-0.063c0.209,0,0.307-0.043,0.307-0.19
	V47.42c0-0.103-0.021-0.129-0.086-0.129l-0.304,0.114l-0.054-0.066c0-0.04,0.048-0.077,0.447-0.263
	c0.434-0.198,0.459-0.219,0.52-0.219l0.066,0.052L43.48,49.089L43.48,49.089z M19.646,48.48h12.51l7.83,8.419l7.809-8.419h12.511
	l-20.32,19.146L19.646,48.48z"/>
<g>
	<path fill="#FFFFFF" d="M33.458,39.116l-0.796,0.016l-1.14-0.016c-0.057,0-0.099,0.016-0.099,0.081c0,0.07,0.078,0.07,0.132,0.078
		c0.263,0.042,0.246,0.15,0.246,0.394v1.444c0,0.264,0.013,0.332-0.257,0.377c-0.049,0.007-0.111,0.027-0.111,0.094
		c0,0.061,0.041,0.076,0.099,0.076l0.59-0.016l0.631,0.016c0.052,0,0.099-0.016,0.099-0.076c0-0.074-0.077-0.087-0.131-0.094
		c-0.26-0.041-0.243-0.138-0.243-0.377v-0.52c0-0.108-0.007-0.167,0.128-0.175l0.175-0.008c0.436,0,0.292,0.39,0.489,0.39
		c0.068,0,0.085-0.062,0.085-0.114l-0.017-0.35l0.017-0.349c0-0.06-0.016-0.106-0.081-0.106c-0.073,0-0.102,0.08-0.118,0.133
		c-0.033,0.106-0.082,0.195-0.198,0.215l-0.345,0.019c-0.143,0-0.136-0.069-0.136-0.191h-0.001v-0.579l0.042-0.142l0.229-0.024
		c0.133,0,0.28-0.004,0.399,0.052c0.111,0.052,0.144,0.114,0.205,0.215c0.038,0.058,0.083,0.155,0.16,0.155
		c0.062,0,0.083-0.057,0.083-0.11v-0.391C33.594,39.119,33.565,39.116,33.458,39.116z"/>
	<path fill="#FFFFFF" d="M48.786,40.966l-0.103,0.086c-0.073,0.138-0.146,0.272-0.268,0.373c-0.125,0.097-0.271,0.155-0.434,0.155
		c-0.295,0-0.539-0.167-0.695-0.406c-0.145-0.224-0.207-0.517-0.207-0.781c0-0.268,0.066-0.563,0.226-0.786
		c0.157-0.215,0.408-0.365,0.677-0.365c0.555,0,0.566,0.483,0.756,0.483l0.077-0.07l-0.019-0.116l-0.031-0.207
		c-0.019-0.116-0.019-0.131-0.13-0.164c-0.188-0.053-0.423-0.086-0.616-0.086c-0.395,0-0.832,0.109-1.152,0.341
		c-0.322,0.239-0.528,0.605-0.528,1.007c0,0.391,0.21,0.774,0.522,1.007c0.293,0.221,0.716,0.301,1.077,0.301
		c0.267,0,0.557-0.049,0.786-0.187c0.128-0.073,0.123-0.127,0.132-0.26l0.013-0.172C48.873,41.06,48.877,40.966,48.786,40.966z"/>
	<path fill="#FFFFFF" d="M41.993,40.398c0.233-0.397,0.384-0.792,0.468-1.176c1.38,1.007,2.111,2.557,2.111,2.557
		S44.09,39.388,42.528,38c-0.225-2.204-2.207-3.896-2.207-3.896s0.925,1.45,1.045,3.171c-0.008-0.003-0.019-0.004-0.024-0.006
		c0-0.002,0-0.004,0-0.006c-0.145-0.054-0.302-0.092-0.456-0.127c-0.037-0.008-0.07-0.023-0.112-0.032
		c-0.191-0.039-0.394-0.058-0.604-0.065c-0.012,0-0.024-0.003-0.035-0.003c-0.001,0-0.001,0-0.002,0
		c-0.023,0-0.045-0.007-0.069-0.007c-0.461-0.003-0.877,0.065-1.254,0.184c0.185-1.698,1.16-3.106,1.16-3.106
		s-1.831,1.612-2.251,3.66c-1.794,1.298-2.271,3.86-2.271,3.86s0.794-1.525,2.225-2.491c0.002,0.015,0.008,0.028,0.01,0.043
		c-0.014,0.01-0.03,0.018-0.045,0.026c0.087,0.404,0.242,0.814,0.493,1.227c0.063,0.107,0.141,0.193,0.211,0.289
		c0.171,0.24,0.354,0.462,0.554,0.643c0.01-0.004,0.019-0.012,0.029-0.016c0.012,0.009,0.021,0.021,0.031,0.03
		c-1.551,0.756-3.27,0.68-3.27,0.68s2.458,0.871,4.479-0.036c1.983,0.657,4.293-0.119,4.293-0.119s-1.708,0.141-3.265-0.548
		C41.488,41.096,41.766,40.789,41.993,40.398z M39.515,40.062c-0.091-0.123-0.185-0.246-0.261-0.388
		c-0.203-0.367-0.324-0.745-0.396-1.122c0.007-0.002,0.017-0.003,0.024-0.005c0.001,0.004,0,0.009,0.001,0.014
		c0.382-0.119,0.787-0.192,1.222-0.185c0.403,0.008,0.775,0.087,1.128,0.208c-0.082,0.375-0.207,0.746-0.413,1.106
		c-0.212,0.374-0.478,0.684-0.771,0.948C39.855,40.47,39.679,40.273,39.515,40.062z"/>
</g>
</svg>
