<?xml version="1.0" encoding="utf-8"?>
<!-- Generator: Adobe Illustrator 16.0.0, SVG Export Plug-In . SVG Version: 6.00 Build 0)  -->
<!DOCTYPE svg PUBLIC "-//W3C//DTD SVG 1.1//EN" "http://www.w3.org/Graphics/SVG/1.1/DTD/svg11.dtd">
<svg version="1.1" id="Calque_1" xmlns="http://www.w3.org/2000/svg" xmlns:xlink="http://www.w3.org/1999/xlink" x="0px" y="0px"
	 width="80px" height="80px" viewBox="0 0 80 80" enable-background="new 0 0 80 80" xml:space="preserve">
<path fill="#193260" d="M40.014,7.222c0,0-14.518,6.322-27.75,8.211c0.044,0.018-2.542,21.669,1.398,31.611
	c3.658,9.089,14.119,23.802,26.352,29.733c12.255-5.932,22.672-20.645,26.333-29.725c3.908-9.955,1.366-31.601,1.405-31.632
	C54.514,13.539,40.014,7.222,40.014,7.222z"/>
<path fill="#BA965C" d="M40.012,9.317c0,0-13.641,5.94-26.078,7.717c0.042,0.017-2.388,20.362,1.315,29.705
	c3.436,8.544,13.269,22.372,24.763,27.944C51.53,69.11,61.317,55.284,64.759,46.752c3.672-9.357,1.283-29.701,1.321-29.729
	C53.639,15.253,40.012,9.317,40.012,9.317L40.012,9.317z"/>
<path fill="#193260" d="M65.526,17.552c-12.177-1.731-25.513-7.543-25.513-7.543s-13.354,5.815-25.525,7.555
	c0.029,0.012-1.243,10.93-0.448,20.31c-0.003-0.002,11.472-3.677,25.974-3.677c14.5,0,25.929,3.675,25.928,3.681
	C66.735,28.493,65.501,17.574,65.526,17.552z M40.003,34.684c0,0,0,10.885-0.001,39.266c11.252-5.438,20.857-18.974,24.222-27.329
	c0.861-2.17,1.38-5.128,1.674-8.118C51.838,34.334,40.003,34.684,40.003,34.684z"/>
<path fill="#79BCE7" d="M40.014,34.684c0,0-11.834-0.352-25.896,3.818c0.295,2.99,0.815,5.948,1.676,8.119
	c3.363,8.355,12.97,21.889,24.22,27.329V34.684z"/>
<g>
	<path fill="#FFFFFF" d="M34.095,66.7v-3.556l-1.006,0.875V62.86l1.006-0.873h1.085v4.71h-1.085V66.7z M38.013,66.738
		c-0.867,0-1.582-0.469-1.582-1.448c0-0.589,0.352-0.868,0.53-1.014c-0.166-0.138-0.483-0.423-0.483-0.931
		c0-0.896,0.728-1.397,1.535-1.397c0.809,0,1.535,0.502,1.535,1.397c0,0.508-0.317,0.793-0.483,0.931
		c0.18,0.146,0.529,0.425,0.529,1.014C39.593,66.27,38.88,66.738,38.013,66.738L38.013,66.738z M38.013,64.766
		c-0.271,0-0.497,0.227-0.497,0.499s0.226,0.498,0.497,0.498s0.496-0.224,0.496-0.498C38.509,64.992,38.285,64.766,38.013,64.766z
		 M38.013,62.928c-0.252,0-0.45,0.2-0.45,0.452c0,0.25,0.197,0.449,0.45,0.449c0.25,0,0.45-0.199,0.45-0.449
		C38.463,63.128,38.263,62.928,38.013,62.928z M42.404,66.7h-1.193l1.47-3.734h-1.005v0.743h-1.032V61.99h3.229v0.978L42.404,66.7z
		 M44.447,66.7v-0.98l1.707-1.854c0.173-0.182,0.24-0.304,0.24-0.503c0-0.26-0.146-0.438-0.424-0.438
		c-0.199,0-0.437,0.095-0.437,0.46h-1.087c0-0.928,0.702-1.436,1.521-1.436c0.873,0,1.511,0.536,1.511,1.423
		c0,0.498-0.206,0.76-0.584,1.157l-1.127,1.191h1.711v0.98H44.447z"/>
</g>
<g>
	<path fill="#FFFFFF" d="M22.199,18.403h2.672v6.642h5.556v-6.642h2.672v12.979h-2.672v-3.95h-5.556v3.95h-2.672V18.403z
		 M40.944,18.289h0.229l5.936,13.094h-2.807l-0.608-1.47h-5.269l-0.611,1.47h-2.577L40.944,18.289z M42.738,27.68l-0.936-2.252
		c-0.381-0.917-0.783-2.33-0.783-2.33s-0.383,1.413-0.764,2.33l-0.935,2.252H42.738z M47.662,24.894c0-3.838,2.96-6.642,6.681-6.642
		c2.349,0,4.028,0.84,5.193,2.652l-2.043,1.452c-0.61-0.992-1.661-1.699-3.151-1.699c-2.347,0-3.932,1.813-3.932,4.238
		c0,2.424,1.583,4.276,3.932,4.276c1.68,0,2.616-0.801,3.342-1.909l2.08,1.432c-1.125,1.756-2.92,2.863-5.422,2.863
		C50.622,31.555,47.662,28.732,47.662,24.894z"/>
</g>
<g>
	<path fill="#FFFFFF" d="M43.485,43.958c0.852-0.675,1.778-1.323,2.918-1.379c-0.894-0.657-2.797-0.483-3.816-0.224
		c0.243-0.268,0.844-0.461,1.474-0.614c-2.12-0.304-3.592,0.773-4.035,1.26c-0.445,0.486-0.865,0.91-1.911,1.055
		C39.847,45.578,42.595,44.664,43.485,43.958z M34.293,40.768c0.982,0.055,1.909,0.299,1.909,0.299s0.11-0.979,0.553-1.752
		l0.006-0.265l-0.161,0.141l-0.158,0.164l-0.01-0.189l0.069-0.605l0.054-0.306l-0.151,0.081c-0.339,0.176-0.761,0.467-1.011,0.871
		l-0.12,0.125l-0.01-0.189c-0.004-0.144-0.062-1.219-0.045-1.413l0.016-0.186l-0.13,0.033c-0.705,0.186-0.911,1.476-1.068,1.882
		c-0.166-0.403-0.531-1.607-1.237-1.785l-0.133-0.033l0.022,0.186c0.018,0.196,0.115,1.185,0.114,1.329l-0.007,0.19l-0.124-0.124
		c-0.255-0.401-0.697-0.684-1.042-0.859l-0.151-0.075l0.023,0.225l0.132,0.675l-0.005,0.188l-0.162-0.161l-0.165-0.139l0.014,0.266
		c0.364,0.791,0.419,1.655,0.419,1.655S33.355,40.715,34.293,40.768z"/>
	<path fill="#FFFFFF" d="M44.25,55.307c0.089-0.336,0.189-0.747,0.371-1.073c0,0-7.409,0.439-6.826,2.661
		C37.795,56.896,37.627,54.935,44.25,55.307z M52.173,49.88l0.248-0.295c-0.424-0.385-0.838-0.636-1.141-0.827l0.176-0.465
		c-0.717-0.282-1.355-0.382-1.794-0.471l0.074-0.671c-0.807-0.081-1.498-0.01-2.012,0.039l-0.036-0.763
		c-1.091,0.102-1.953,0.41-2.521,0.553l-0.107-0.808c-1.01,0.183-1.826,0.521-2.43,0.755c-0.062-0.309-0.143-0.755-0.143-0.803
		c-1.031,0.249-1.866,0.635-2.506,0.925l-0.114-0.648c-1.157,0.284-2.099,0.718-2.815,1.042L37,47.048
		c-1.069,0.218-2.116,0.797-3.177,1.607c-2.881,2.097-4.701,0.479-4.878-1.848c-0.192-2.52,2.247-2.702,2.772-2.352
		c0.62,0.41,0.739,0.757,1.27,0.856c0.529,0.096,2.605,0.102,3.242-0.522l0.024-0.114c0,0-0.262-0.098-1.023-0.231
		c-0.166-0.028-1.068-0.515-1.068-0.515c0.846-0.066,1.569,0.068,2.132-0.091c0.637-0.177,0.945-0.511,0.651-0.696
		c-0.552-0.341-2.317-0.994-2.813-1.081c-1.589-0.272-4.282,0.22-5.613,1.226c-1.434,1.093-2.217,3.536-1.366,6.108
		c0.913,2.766,3.831,3.94,6.208,4.203l0.967,0.109c0,0,0.167,0.125,0.12,0.355c-0.057,0.219-1.219,1.927-1.503,2.001l-0.219,0.047
		c-0.645,0.154-1.071,0.404-1.269,0.567c-0.197,0.161-0.551,0.603-0.551,0.603s0.884-0.265,1.119-0.26
		c0.187,0.009-0.077,0.961-0.077,0.961s1.418-0.926,1.676-0.901c0.217,0.027,0.123,0.605,0.123,0.605s1.058-0.437,1.074-0.647
		c0.02-0.243-0.178-0.466-0.472-0.64c0.277-1.531,2.41-2.204,2.373-2.304c-0.37-0.952-0.246-1.469-0.191-1.765l0.083-0.08
		c-0.071,0.818,1.238,1.735,1.78,1.813c1.019,0.063,1.405,0.071,2.201-0.104c0.881-0.189,1.859-0.539,2.83-0.919
		c0.173-0.104,0.413-0.192,0.65-0.277c0.292,0.397,0.72,0.752,1.35,1.007l-0.854,2.312c-0.793,0.15-1.229,0.398-1.467,0.606
		c-0.24,0.213-0.554,0.604-0.554,0.604s0.899-0.257,1.122-0.231c0.208,0-0.08,0.932-0.08,0.932s1.461-0.922,1.678-0.901
		c0.216,0.031,0.119,0.607,0.119,0.607s1.063-0.476,1.081-0.646c0.023-0.245-0.193-0.654-0.78-0.903
		c0.128-1.521,2.157-2.713,2.067-2.826c-1.465-1.836-0.788-2.956-0.788-2.956l0.015-0.033c0.045,0.125,0.072,1.138,0.818,1.487
		c1.539-0.153,3.002,0.059,2.93,1.073c-0.094,1.325-1.322,1.229-3.162,1.22c0,0-0.789,0.76-0.889,1.272
		c1.633,0.01,3.718,0.986,5.396-0.46C53.597,53.617,53.522,51.352,52.173,49.88L52.173,49.88z M32.657,42.72
		c0.168-0.022,1.005,0.156,1.005,0.156c0.044,0.334-0.221,0.447-0.221,0.447s-0.329,0.22-0.648-0.217
		C32.603,42.846,32.657,42.72,32.657,42.72z"/>
</g>
</svg>
