<?xml version="1.0" encoding="utf-8"?>
<!-- Generator: Adobe Illustrator 16.0.0, SVG Export Plug-In . SVG Version: 6.00 Build 0)  -->
<!DOCTYPE svg PUBLIC "-//W3C//DTD SVG 1.1//EN" "http://www.w3.org/Graphics/SVG/1.1/DTD/svg11.dtd">
<svg version="1.1" id="Calque_1" xmlns="http://www.w3.org/2000/svg" xmlns:xlink="http://www.w3.org/1999/xlink" x="0px" y="0px"
	 width="80px" height="80px" viewBox="0 0 80 80" enable-background="new 0 0 80 80" xml:space="preserve">
<path fill="#AB2C29" d="M26.675,11.579v1.4h-0.472c-0.631,0-0.631,0.21-0.631,0.546v5.042h1.404c0.627,0,0.627-0.224,0.627-0.484
	v-0.681h2.061v2.837h-7.821v-1.403h0.371c0.602,0,0.602-0.231,0.602-0.505v-4.768c0-0.41,0-0.582-0.673-0.582h-0.298v-1.402H26.675z
	 M35.451,11.296c3.231,0,4.817,1.833,4.817,4.384c0,2.512-1.445,4.83-4.955,4.83c-3.179,0-4.939-1.807-4.939-4.559
	C30.375,13.362,32.064,11.296,35.451,11.296 M35.363,18.827c1.52,0,2.089-1.029,2.089-3.022c0-0.644,0.069-2.8-2.062-2.8
	c-1.846,0-2.163,1.708-2.163,2.974C33.229,17.437,33.617,18.827,35.363,18.827"/>
<path fill="#AB2C29" d="M48.479,14.193h-2.282V13.72c0-0.381,0-1.05-1.1-1.05c-1.021,0-1.188,0.692-1.188,0.805
	c0,0.446,0.381,0.73,1.39,1.177l1.041,0.446c1.405,0.62,2.645,1.2,2.645,2.699c0,0.891-0.472,1.549-1.024,1.958
	c-0.551,0.411-1.36,0.755-3.073,0.755c-1.961,0-3.206-0.359-3.711-0.506v-2.651h2.38v0.421c0,0.383,0,1.25,1.254,1.25
	c0.89,0,1.3-0.472,1.3-0.891c0-0.522-0.384-0.843-1.103-1.153l-0.901-0.41c-2.053-0.917-2.93-1.721-2.93-2.812
	c0-0.778,0.438-1.436,1.11-1.856c0.461-0.299,1.195-0.606,2.769-0.606c1.788,0,2.892,0.346,3.427,0.52v2.377H48.479z M58.205,14.802
	h-2.221V14.12c0-0.472-0.026-1.302-1.276-1.302c-1.922,0-2.03,2.031-2.03,2.837c0,1.4,0.432,2.874,2.551,2.874
	c1.042,0,2.045-0.36,2.927-0.868v1.932c-0.825,0.483-1.789,0.918-3.509,0.918c-3.868,0-4.774-2.835-4.774-4.597
	c0-2.388,1.491-4.617,4.99-4.617c1.736,0,2.848,0.47,3.349,0.679v2.826H58.205z M33.829,9.863h-3.811l-0.137-0.481l0.174-0.002
	c0.323-0.009,0.297-0.103,0.256-0.256l-0.622-2.347c-0.046-0.177-0.069-0.26-0.433-0.208l-0.164,0.027l-0.137-0.48
	c0.591-0.109,1.67-0.271,2.342-0.358l0.111,0.526l-0.234,0.027c-0.36,0.043-0.342,0.125-0.298,0.316l0.594,2.613l1.098-0.025
	c0.293-0.005,0.299-0.09,0.267-0.261l-0.06-0.336l0.853-0.028L33.829,9.863z M34.501,9.863L34.42,9.298l0.161-0.001
	c0.336-0.005,0.326-0.082,0.296-0.313l-0.344-2.703c-0.028-0.218-0.063-0.295-0.4-0.266l-0.173,0.015L33.88,5.464
	c0.506-0.046,1.848-0.156,2.308-0.175l0.05,0.585l-0.175,0.009c-0.354,0.019-0.345,0.119-0.321,0.368l0.27,2.713
	c0.022,0.235,0.037,0.315,0.359,0.312l0.161-0.001l0.05,0.586L34.501,9.863L34.501,9.863z M41.171,9.863H37.36l-0.04-0.591
	l0.174-0.003c0.323-0.002,0.315-0.115,0.306-0.303l-0.157-2.833c-0.011-0.215-0.018-0.317-0.389-0.303l-0.167,0.006l-0.039-0.592
	c0.762-0.028,1.613-0.061,2.379-0.065l0.009,0.6l-0.213,0.002c-0.364,0.005-0.362,0.1-0.356,0.324l0.085,3.039l1.076-0.002
	c0.293,0,0.317-0.094,0.318-0.283l0.003-0.371l0.856,0.002L41.171,9.863z M45.631,9.863h-3.812l0.024-0.598l0.176,0.001
	c0.322,0.001,0.325-0.112,0.337-0.3l0.15-2.835c0.013-0.215,0.019-0.316-0.354-0.326l-0.166-0.006l0.024-0.596
	c0.643,0.015,1.886,0.078,2.376,0.109l-0.055,0.583l-0.234-0.013c-0.364-0.02-0.371,0.075-0.391,0.292l-0.239,2.98l1.101,0.012
	c0.293,0.004,0.326-0.085,0.347-0.266l0.04-0.357l0.856,0.024L45.631,9.863L45.631,9.863z M51.146,7.036L50.27,6.942l0.043-0.184
	c0.048-0.205-0.064-0.236-0.33-0.265l-1.401-0.121l-0.212,1.043l1.302,0.093l-0.145,0.629L48.24,8.062l-0.237,1.163l1.424,0.027
	c0.339,0.01,0.369-0.058,0.416-0.237l0.057-0.23l0.842,0.042l-0.292,1.036h-4.154l0.084-0.557l0.185,0.003
	c0.3,0.005,0.313-0.076,0.347-0.278l0.448-2.627c0.028-0.173,0.037-0.273-0.274-0.302l-0.195-0.018l0.084-0.557
	c1.599,0.167,3.013,0.305,4.447,0.488L51.146,7.036L51.146,7.036z M39.782,22.945v1.896H20.421V48.02
	c0,12.756,9.53,23.223,22.142,27.959v-3.74c9.613-4.577,17.016-16.146,17.016-26.071V22.945H39.782z"/>
<path fill="#FFFFFF" d="M39.782,22.945v1.896H20.421V48.02c0,12.756,9.53,23.223,22.142,27.959v-3.74
	c9.613-4.579,17.016-16.146,17.016-26.071V22.945H39.782z M58.152,46.167c0,11.321-9.186,21.818-16.979,25.149v-3.471l0.323,0.03
	c1.319,0,2.167-1.116,2.167-2.414c-1.094,0.231-1.78-0.812-1.78-1.94c0-1.409,1.272-2.816,2.456-2.996
	c0.145-0.016,0.137-0.107-0.028-0.424c-0.106-0.2-0.219-0.386-0.008-0.648c3.031-3.899,5.496-7.39,5.496-12.833
	c0-0.424-0.029-0.772-0.104-1.02c-1.622-1.681-4.436-2.499-5.822-3.01c-0.766-0.277-1.063-1.015-1.063-1.766
	c0-1.378,0.788-2.077,1.601-2.077c1.492,0,2.085,1.812,3.334,1.812c0.448,0,0.956-0.221,1.707-0.69
	c1.55-0.962,1.623-2.863,1.897-4.002c-0.089-0.083-0.26-0.099-0.45-0.099H50.58c-0.438,0-0.464-0.206-0.464-0.371
	c0-0.297,0.267-0.523,0.267-0.523c0.649,0.048,0.972,0.276,1.132,0.48c0.124-0.225,0.451-0.555,0.451-0.869
	c0-0.567-1.134-0.47-2.297-0.868c-1.483-0.509-1.767-0.775-1.767-0.914c0-0.06,0.05-0.105,0.106-0.121c0,0,0.144-0.198,0.144-0.448
	c0-0.145-0.052-0.304-0.205-0.456c-0.511-0.496-2.218-1.16-3.651-1.469c0.063-0.107,0.095-0.281,0.095-0.419
	c0-0.659-0.494-1.494-0.554-1.576c-0.043-0.06-0.143-0.212-0.213-0.212c-0.052,0-0.092,0.091-0.092,0.356
	c0,0.586-0.303,1.25-0.543,1.683c-0.25,0-0.457,0.031-0.603,0.091c-0.418,0.179-0.824,0.39-1.218,0.626v-6.469H58.15L58.152,46.167
	L58.152,46.167z M44.479,31.765c0-0.205,0.758-0.349,0.922-0.349c0.472,0.152,1.496,0.552,1.496,1.197
	c-0.424,0.258-0.705,0.358-0.91,0.358l-1.154-1.002C44.578,31.907,44.479,31.832,44.479,31.765"/>
<path fill="#AB2C29" d="M31.549,56.192c1.034,2.809,4.941,2.518,2.986-0.341C34.153,56.795,32.625,57.282,31.549,56.192
	 M33.627,52.511c-0.922-1.423-1.577-3.003-1.974-4.57c-5.024,3.19-3.728,9.71,1.354,10.76
	C29.194,56.866,31.019,52.707,33.627,52.511 M39.034,28.754c0.099,0.317,0.145,0.636,0.145,0.948c0,3.509-6.859,7.118-6.859,14.607
	c0,3.904,2.001,9.488,6.883,11.618V45.546c-1.296-2.399-1.017-5.475,0.295-7.712c-2.359,1.774-2.88,4.851-2.122,7.702
	c-3.821-4.852,2.647-11.484,2.647-15.054C40.022,29.748,39.74,29.155,39.034,28.754 M43.092,51.366
	c-3.336,5.474-4.543,9.279-4.543,11.814c0,1.743,0.534,2.921,1.383,3.581c0,0-0.54-0.808-0.54-2.597
	c0-2.085,0.781-5.536,4.146-10.721C43.621,52.611,43.449,51.799,43.092,51.366"/>
<path fill="#AB2C29" d="M43.146,72.603c9.568-4.737,17.016-16.271,17.016-26.435V22.396H39.199v1.893l0.583,0.551v-1.896h19.794
	v23.223c0,9.925-7.4,21.491-17.016,26.07L43.146,72.603z"/>
<path fill="#001F5B" d="M42.563,72.238v3.706c-12.609-4.729-22.141-15.169-22.141-27.932V24.841h19.36l-0.581-0.553H19.838v23.726
	c0,13.693,10.227,24.077,23.304,28.808l0.003-4.223L42.563,72.238z M29.983,35.57c0.006-1.912,0.844-3.457,1.329-4.157l-1.48-1.887
	l-1.481,1.887c0.48,0.701,1.32,2.248,1.324,4.16c-0.005,0.274,0.051,0.484,0.156,0.484C29.918,36.058,29.983,35.89,29.983,35.57"/>
<path fill="#001F5B" d="M30.457,37.57c0.053,0.051,0.053,0.131,0,0.185l-0.527,0.529c-0.05,0.05-0.133,0.05-0.186,0l-0.526-0.529
	c-0.052-0.053-0.052-0.133,0-0.185l0.526-0.53c0.053-0.049,0.136-0.049,0.186,0L30.457,37.57z M28.741,37.358l-0.224-0.229
	c0.944-2.501-1.758-3.789-3.009-3.033c-0.265-0.866,0.259-1.807,1.264-1.807C28.39,32.29,29.837,35.173,28.741,37.358
	 M30.921,37.358l0.223-0.229c-0.944-2.501,1.759-3.789,3.009-3.033c0.266-0.866-0.256-1.807-1.263-1.807
	C31.271,32.29,29.826,35.173,30.921,37.358 M22.911,46.904V27.215h18.262v-1.02h-19.33V48.02c0,18.108,19.33,25.854,19.33,25.854
	v-2.557C31.229,66.657,22.911,59.398,22.911,46.904"/>
</svg>
