<?xml version="1.0" encoding="utf-8"?>
<!-- Generator: Adobe Illustrator 16.0.0, SVG Export Plug-In . SVG Version: 6.00 Build 0)  -->
<!DOCTYPE svg PUBLIC "-//W3C//DTD SVG 1.1//EN" "http://www.w3.org/Graphics/SVG/1.1/DTD/svg11.dtd">
<svg version="1.1" id="Calque_1" xmlns="http://www.w3.org/2000/svg" xmlns:xlink="http://www.w3.org/1999/xlink" x="0px" y="0px"
	 width="80px" height="80px" viewBox="0 0 80 80" enable-background="new 0 0 80 80" xml:space="preserve">
<g>
	<path fill="#999B9E" d="M40,6.235c18.647,0,33.766,15.118,33.766,33.765c0,18.647-15.118,33.766-33.766,33.766
		C21.353,73.766,6.235,58.647,6.235,40C6.235,21.353,21.353,6.235,40,6.235z"/>
	<path fill="#FFFFFF" d="M40,7.343c18.034,0,32.657,14.62,32.657,32.657c0,18.036-14.623,32.655-32.657,32.655
		C21.965,72.655,7.344,58.036,7.344,40C7.344,21.963,21.966,7.343,40,7.343z"/>
	<path fill="#999B9E" d="M40,17.205c12.59,0,22.795,10.205,22.795,22.795S52.59,62.795,40,62.795S17.205,52.59,17.205,40
		S27.41,17.205,40,17.205z"/>
	<path fill="#EB6A0A" d="M40,17.975c12.165,0,22.024,9.861,22.024,22.025c0,12.163-9.859,22.024-22.024,22.024
		c-12.165,0-22.023-9.859-22.023-22.024C17.977,27.835,27.834,17.975,40,17.975z"/>
	<path fill="#999B9E" d="M40,22.035c9.921,0,17.965,8.042,17.965,17.965S49.921,57.965,40,57.965
		c-9.922,0-17.965-8.044-17.965-17.965C22.035,30.078,30.079,22.035,40,22.035z"/>
	<g>
		<path fill="#00549D" d="M68.787,39.697l-0.097,0.052l-0.033,0.173l-0.003,0.172l-0.052,0.11l-0.193,0.026l-1.689-0.068
			l-0.133-0.002l-0.092-0.001c-0.411,0.001-0.695,0.061-0.852,0.184c-0.171,0.128-0.258,0.356-0.265,0.684
			c-0.004,0.285,0.068,0.567,0.22,0.847s0.282,0.417,0.396,0.419L66.1,42.24l0.053-0.109l-0.09-0.217
			c-0.065-0.115-0.097-0.213-0.092-0.29c0-0.094,0.058-0.162,0.169-0.197c0.079-0.026,0.198-0.042,0.355-0.048l0.223-0.002
			l0.164,0.002l1.616,0.052l0.081,0.031l0.027,0.088l-0.012,0.62l0.029,0.113l0.177,0.033l0.164-0.024l0.024-0.116l0.013-0.621
			l0.029-0.084l0.082-0.031l0.659,0.014l0.172-0.026l0.039-0.116c0.002-0.081-0.08-0.203-0.247-0.362l-0.356-0.376
			c-0.116-0.149-0.229-0.332-0.336-0.548C68.935,39.809,68.851,39.699,68.787,39.697z"/>
		<path fill="#00549D" d="M68.224,36.005c-0.068,0.006-0.106,0.071-0.115,0.192l-0.002,0.015l-0.002,0.02l-0.016,0.156l-0.087,0.144
			l-0.234,0.057l-0.104,0.01l-1.171,0.104l-0.405,0.035c-0.15,0.012-0.252,0.009-0.303-0.015l-0.135-0.143l-0.028-0.08l-0.017-0.089
			l-0.063-0.184l-0.116-0.032l-0.096,0.049l-0.033,0.09l0.02,0.113c0.058,0.321,0.103,0.642,0.128,0.962
			c0.028,0.334,0.043,0.665,0.04,0.994l0.003,0.103l0.048,0.078l0.104,0.023l0.109-0.048l0.029-0.18l-0.003-0.109l0.017-0.07
			c0.026-0.085,0.065-0.144,0.117-0.174c0.052-0.033,0.147-0.055,0.288-0.066l0.299-0.026l1.381-0.124
			c0.137-0.011,0.234-0.004,0.302,0.019c0.065,0.023,0.102,0.069,0.107,0.135c0.004,0.056-0.055,0.153-0.177,0.288l-0.071,0.08
			l-0.108,0.196l-0.022,0.23c0.019,0.186,0.087,0.331,0.209,0.436c0.121,0.103,0.275,0.145,0.461,0.129
			c0.176-0.016,0.312-0.093,0.412-0.232c0.098-0.14,0.139-0.314,0.118-0.522c-0.008-0.128-0.048-0.248-0.116-0.363
			c-0.063-0.115-0.155-0.219-0.27-0.314l-0.107-0.074l-0.034-0.041l-0.016-0.036l0.016-0.023l0.063-0.015l0.353-0.03l0.153-0.046
			l0.027-0.113c-0.003-0.054-0.075-0.159-0.211-0.316c-0.137-0.158-0.244-0.304-0.317-0.438l-0.101-0.2l-0.102-0.276l-0.004-0.016
			C68.378,36.084,68.306,35.998,68.224,36.005z"/>
		<path fill="#00549D" d="M13.957,25.183l0.155-0.143l0.009-0.005l0.011-0.01c0.085-0.1,0.163-0.152,0.228-0.162
			c0.066-0.009,0.147,0.017,0.246,0.082l1.041,0.675v-1.468l-0.378-0.242c-0.097-0.063-0.153-0.129-0.167-0.2
			c-0.013-0.071,0.018-0.18,0.09-0.333l0.005-0.009l0.005-0.007c0.074-0.154,0.079-0.251,0.015-0.293l-0.126-0.022l-0.112,0.101
			l-0.074,0.136c-0.159,0.29-0.316,0.558-0.478,0.805c-0.167,0.259-0.348,0.511-0.542,0.758l-0.064,0.083l-0.036,0.134l0.069,0.102
			L13.957,25.183z"/>
		<polygon fill="#00549D" points="18.03,53.266 18.106,53.139 18.061,52.971 17.965,52.844 17.954,52.827 17.954,53.296 		"/>
		<path fill="#00549D" d="M12.469,29.237l1.222,0.571v0.001l1.824,0.851l0.127,0.081l0,0v-1.382l-0.029-0.014l-0.981-0.458
			l-0.055-0.055l0.007-0.091l0.029-0.098l0.033-0.086l0.057-0.127c0.076-0.164,0.157-0.275,0.239-0.34
			c0.084-0.063,0.2-0.099,0.353-0.111l0.164-0.005l0.187-0.02l0.127-0.097l0.008-0.139l-0.136-0.1l-0.033-0.013l-0.226-0.094
			l-0.43-0.188c-0.147-0.069-0.297-0.149-0.445-0.242l-0.055-0.035l-0.137-0.017l-0.09,0.083c-0.031,0.069-0.002,0.158,0.094,0.267
			l0.201,0.273c0.032,0.063,0.04,0.145,0.021,0.241c-0.017,0.097-0.076,0.248-0.17,0.45L14.211,28.6
			c-0.048,0.038-0.103,0.042-0.164,0.014l-0.353-0.165v-0.001l-0.607-0.283c-0.139-0.064-0.213-0.153-0.228-0.268
			c-0.014-0.115,0.03-0.277,0.128-0.489c0.083-0.179,0.175-0.319,0.279-0.422c0.102-0.104,0.212-0.17,0.33-0.198l0.097-0.02
			l0.154-0.032c0.202-0.035,0.32-0.084,0.351-0.148l0.014-0.123l-0.151-0.105l-0.366-0.171l-0.325-0.15l-0.114-0.014l-0.104,0.158
			l-0.296,0.702c-0.189,0.452-0.383,0.891-0.582,1.318l-0.181,0.374v0.711l0.119-0.089C12.279,29.174,12.362,29.188,12.469,29.237z"
			/>
		<path fill="#00549D" d="M15.645,30.742L15.645,30.742l0.062,0.087c0.023,0.067,0.013,0.169-0.034,0.31L15.656,31.2l-0.014,0.052
			v0.169h0.003l0.052,0.055l0.124,0.003l0.099-0.118l0.048-0.126c0.139-0.384,0.299-0.767,0.473-1.145
			c0.293-0.624,0.602-1.227,0.934-1.807l0.096-0.179l0.026-0.187l-0.133-0.155l-0.517-0.365l-0.107-0.071l-0.067-0.039l-0.163-0.021
			l-0.108,0.092c-0.029,0.065,0.006,0.173,0.103,0.328c0.101,0.153,0.172,0.283,0.217,0.393c0.058,0.141,0.08,0.297,0.07,0.469
			c-0.012,0.172-0.056,0.342-0.132,0.507c-0.118,0.25-0.241,0.398-0.367,0.446c-0.124,0.045-0.343-0.001-0.651-0.142l0,0h0.002
			v1.382H15.645z"/>
		<path fill="#00549D" d="M10.098,41.893l0.03-0.189l-0.001-0.015l0.025-0.249c0.022-0.105,0.083-0.186,0.191-0.236
			c0.108-0.055,0.29-0.089,0.544-0.105l1.204-0.085V40.65l-1.229,0.086c-0.255,0.018-0.441,0.011-0.554-0.022
			c-0.112-0.028-0.186-0.087-0.219-0.18l-0.033-0.121l-0.024-0.097L9.986,40.17l-0.095-0.024l-0.113,0.058L9.75,40.352l0.035,0.244
			l0.046,0.402l0.013,0.431l0.001,0.272l0.051,0.173l0.115,0.057L10.098,41.893z"/>
		<path fill="#00549D" d="M13.642,44.453l0.049-0.004c0.236-0.016,0.406-0.009,0.51,0.02c0.109,0.027,0.181,0.086,0.212,0.172
			l0.032,0.119l0.024,0.104l0.05,0.15l0.088,0.025l0.117-0.064l0.033-0.148l-0.039-0.241l-0.049-0.399l-0.011-0.438l0.004-0.275
			l-0.054-0.166l-0.117-0.051c-0.073,0.004-0.113,0.077-0.118,0.221v0.016l-0.023,0.25c-0.022,0.105-0.083,0.184-0.191,0.237
			c-0.097,0.047-0.255,0.079-0.47,0.099l-0.074,0.005l-1.524,0.108v0.369L13.642,44.453z"/>
		<path fill="#00549D" d="M9.919,39.341l0.543,0.206l0.316,0.118l0.117-0.026l0.05-0.093c0.007-0.065-0.065-0.16-0.214-0.28
			l-0.25-0.222c-0.12-0.124-0.206-0.244-0.253-0.362c-0.048-0.12-0.064-0.251-0.052-0.396l0.011-0.118l0.033-0.079l0.08-0.024
			l1.79,0.158l1.601,0.14l0.172,0.016c0.117,0.01,0.197,0.039,0.244,0.086c0.046,0.047,0.074,0.138,0.08,0.27l0.002,0.026
			l0.002,0.024l0.003,0.011c0.007,0.136,0.047,0.209,0.118,0.214l0.123-0.037l0.055-0.127l-0.003-0.112
			c-0.003-0.31,0.009-0.62,0.034-0.926c0.028-0.306,0.07-0.613,0.127-0.918l0.022-0.111l-0.035-0.137l-0.117-0.062
			c-0.069-0.005-0.117,0.059-0.145,0.194l-0.011,0.043c-0.036,0.147-0.079,0.242-0.131,0.285c-0.053,0.043-0.139,0.06-0.254,0.049
			l-0.287-0.026l-1.6-0.14l-1.686-0.148l-0.073-0.038l-0.021-0.083l0.02-0.216c0.015-0.171,0.053-0.303,0.112-0.395
			c0.06-0.093,0.152-0.167,0.276-0.226l0.282-0.103c0.189-0.062,0.286-0.129,0.293-0.205l-0.055-0.135l-0.256-0.077l-0.655-0.129
			L9.949,35.15l-0.129,0.024l-0.05,0.094c-0.007,0.068,0.026,0.131,0.099,0.189l0.124,0.118c0.027,0.049,0.043,0.173,0.047,0.373
			c0.005,0.201-0.004,0.434-0.028,0.698l-0.154,1.765c-0.019,0.212-0.039,0.346-0.066,0.398l-0.124,0.113l-0.048,0.013
			c-0.086,0.025-0.132,0.07-0.14,0.133c-0.008,0.085,0.095,0.16,0.308,0.228L9.919,39.341z"/>
		<path fill="#00549D" d="M11.96,29.468l0.03-0.046l0.101-0.134v-0.711c-0.121,0.243-0.249,0.479-0.377,0.707l-0.056,0.099
			l-0.022,0.151l0.085,0.099C11.79,29.664,11.869,29.609,11.96,29.468z"/>
		<polygon fill="#00549D" points="66.495,27.894 66.495,27.894 66.547,27.849 66.553,27.756 66.496,27.708 66.496,27.893 		"/>
		<path fill="#00549D" d="M10.587,34.169l0.01-0.02c0.055-0.119,0.112-0.194,0.171-0.22c0.062-0.028,0.146-0.026,0.258,0.005
			l1.064,0.305v-0.001l1.601,0.46v0.001l0.568,0.161c0.111,0.032,0.186,0.077,0.222,0.132c0.036,0.057,0.049,0.149,0.03,0.279
			L14.503,35.3v0.023v0.011c-0.02,0.137,0.005,0.216,0.075,0.236l0.126-0.015l0.08-0.115l0.022-0.103
			c0.054-0.31,0.122-0.613,0.208-0.91c0.086-0.296,0.186-0.59,0.3-0.878l0.042-0.105l-0.009-0.131l-0.109-0.079
			c-0.063-0.019-0.123,0.029-0.179,0.145l-0.001,0.003l-0.009,0.025l-0.013,0.017c-0.057,0.138-0.115,0.223-0.172,0.254
			c-0.059,0.032-0.145,0.031-0.259-0.001l-0.915-0.262v-0.001l-0.436-0.124l-0.077-0.036l-0.006-0.054l0.009-0.019l0.023-0.046
			l0.289-0.412l0.113-0.188l0.083-0.219l0.002-0.004v0.001c0.066-0.233,0.066-0.462,0-0.687v-0.001
			c-0.034-0.113-0.085-0.228-0.149-0.342c-0.203-0.336-0.5-0.558-0.892-0.672c-0.199-0.057-0.386-0.074-0.558-0.05v1.215
			l0.247,0.051c0.292,0.084,0.5,0.216,0.629,0.396c0.13,0.179,0.163,0.382,0.098,0.606c-0.043,0.153-0.104,0.247-0.18,0.288
			c-0.078,0.04-0.203,0.036-0.378-0.015l-0.416-0.118v0.001L11.8,32.906l-0.055-0.016c-0.337-0.096-0.539-0.183-0.603-0.256
			c-0.064-0.075-0.074-0.185-0.032-0.329c0.062-0.215,0.208-0.369,0.442-0.461c0.164-0.065,0.344-0.085,0.539-0.062v-1.215
			c-0.189,0.024-0.364,0.095-0.524,0.214c-0.306,0.227-0.537,0.616-0.694,1.166l-0.172,0.663l-0.186,0.715l-0.143,0.457
			l-0.081,0.252l-0.025,0.229l0.108,0.104C10.445,34.383,10.518,34.321,10.587,34.169z"/>
		<path fill="#00549D" d="M13.735,49.896l-0.043,0.015c-0.557,0.173-1.036,0.2-1.438,0.083l-0.162-0.057v0.705l0.235,0.165
			c0.321,0.195,0.651,0.317,0.994,0.36l0.37,0.02c0.215-0.007,0.43-0.044,0.642-0.114c0.334-0.109,0.625-0.281,0.875-0.518
			c0.171-0.161,0.316-0.348,0.438-0.56l0.157-0.316c0.123-0.296,0.188-0.614,0.196-0.949c0.013-0.335-0.036-0.668-0.144-0.995
			c-0.058-0.179-0.127-0.344-0.209-0.504c-0.078-0.149-0.167-0.287-0.266-0.418c-0.205-0.268-0.444-0.487-0.724-0.655
			c-0.31-0.188-0.633-0.305-0.964-0.353l-0.024-0.006c-0.341-0.041-0.68-0.012-1.013,0.1c-0.202,0.064-0.392,0.151-0.561,0.263
			v1.495c0.302-0.241,0.686-0.436,1.15-0.585l0.448-0.119c0.39-0.076,0.736-0.068,1.04,0.022c0.415,0.121,0.688,0.379,0.813,0.767
			c0.136,0.418,0.037,0.828-0.295,1.227C14.917,49.364,14.413,49.677,13.735,49.896z"/>
		<path fill="#00549D" d="M66.806,24.327c0.146-0.096,0.234-0.167,0.268-0.215l0.053-0.169c0-0.149-0.046-0.349-0.135-0.591
			c-0.094-0.242-0.22-0.487-0.379-0.73l-0.118-0.167v2.073L66.806,24.327z"/>
		<polygon fill="#00549D" points="17.952,52.827 17.954,52.827 17.954,52.827 		"/>
		<path fill="#00549D" d="M60.694,23.535c-0.172,0.111-0.284,0.198-0.335,0.258c-0.05,0.058-0.078,0.127-0.085,0.202
			c-0.016,0.185,0.026,0.43,0.129,0.738c0.101,0.306,0.245,0.604,0.43,0.89c0.414,0.637,0.928,1.053,1.543,1.249
			c0.594,0.186,1.139,0.13,1.635-0.173v-0.003l0.049-0.029c0.361-0.234,0.596-0.549,0.707-0.948
			c0.108-0.396,0.108-0.953-0.004-1.665l-0.078-0.406c-0.131-0.633-0.043-1.051,0.257-1.244c0.208-0.134,0.428-0.167,0.656-0.097
			c0.231,0.072,0.428,0.23,0.586,0.477c0.145,0.222,0.212,0.428,0.202,0.616c-0.011,0.184-0.113,0.422-0.306,0.709l-0.063,0.091
			c-0.179,0.259-0.237,0.441-0.166,0.545l0.115,0.079l0.152-0.042l0.382-0.25v-2.078c-0.346-0.468-0.771-0.784-1.268-0.945
			c-0.438-0.141-0.843-0.136-1.218,0.015h-0.002v0.001l-0.3,0.157c-0.337,0.218-0.551,0.501-0.65,0.849
			c-0.094,0.35-0.087,0.865,0.028,1.548c0.107,0.642,0.133,1.088,0.077,1.337c-0.055,0.25-0.194,0.445-0.416,0.59
			c-0.251,0.164-0.521,0.195-0.806,0.093c-0.285-0.101-0.537-0.32-0.755-0.658c-0.171-0.262-0.25-0.525-0.233-0.789
			c0.019-0.263,0.125-0.526,0.332-0.792l0.209-0.247c0.186-0.203,0.247-0.353,0.184-0.448l-0.139-0.103l-0.163,0.032L60.694,23.535z
			"/>
		<path fill="#00549D" d="M49.296,13.771c0.179,0.069,0.352,0.094,0.518,0.072c0.107-0.011,0.212-0.043,0.31-0.092V12.93
			c-0.171,0.015-0.33,0.049-0.474,0.103c-0.138,0.048-0.253,0.111-0.352,0.185c-0.099,0.074-0.16,0.152-0.189,0.228
			c-0.025,0.07-0.023,0.133,0.012,0.191C49.153,13.696,49.213,13.741,49.296,13.771z"/>
		<path fill="#00549D" d="M64.334,49.145l0.095,0.112v-2.503l-0.092,0.308c-0.115,0.428-0.173,0.823-0.171,1.194
			C64.162,48.624,64.218,48.92,64.334,49.145z"/>
		<path fill="#00549D" d="M66.689,28.566l-0.194-0.161v-0.003l-0.274-0.155l-0.121-0.05l-0.025-0.014l-0.019-0.024l0.005-0.041
			l0.063-0.045l0.3-0.139l0.072-0.039v-0.188l-0.226-0.127c-0.176-0.093-0.333-0.201-0.471-0.324
			c-0.092-0.084-0.197-0.208-0.316-0.365l-0.046-0.064l-0.186-0.206h-0.125c-0.065,0.028-0.077,0.1-0.045,0.211l0.002,0.017
			l0.004,0.019l0.041,0.149l-0.041,0.176c-0.029,0.042-0.116,0.097-0.262,0.165l-0.814,0.378v1.346l1.21-0.564
			c0.306-0.143,0.528-0.201,0.664-0.178c0.139,0.026,0.25,0.134,0.338,0.323c0.12,0.258,0.101,0.523-0.056,0.793
			c-0.159,0.272-0.425,0.497-0.805,0.673c-0.419,0.197-0.786,0.273-1.1,0.233l-0.255-0.066v0.001
			c-0.183-0.076-0.317-0.208-0.402-0.397c-0.082-0.173-0.103-0.322-0.058-0.448c0.047-0.126,0.161-0.229,0.334-0.311l0.126-0.059
			v-1.345l-2.207,1.027c-0.134,0.063-0.229,0.091-0.288,0.088c-0.064-0.003-0.123-0.037-0.187-0.099l-0.063-0.077l-0.055-0.097
			l-0.116-0.146l-0.121,0.007L60.9,28.521l0.003,0.107l0.066,0.113c0.166,0.29,0.318,0.575,0.451,0.86
			c0.142,0.304,0.268,0.615,0.384,0.933l0.042,0.116l0.076,0.063l0.107-0.004l0.085-0.086l-0.035-0.183l-0.039-0.1l-0.019-0.093
			c-0.012-0.094,0.004-0.166,0.041-0.215c0.039-0.048,0.124-0.104,0.253-0.164l0.913-0.425l0.031,0.018
			c0.004,0.165,0.023,0.318,0.054,0.467c0.032,0.147,0.082,0.29,0.147,0.426c0.137,0.299,0.321,0.538,0.547,0.715V31.07
			c0.146,0.117,0.313,0.208,0.498,0.27c0.468,0.164,0.956,0.126,1.467-0.112c0.198-0.092,0.372-0.197,0.521-0.316v0.002
			c0.231-0.185,0.403-0.404,0.52-0.654c0.191-0.413,0.187-0.83-0.01-1.251C66.927,28.839,66.821,28.692,66.689,28.566z"/>
		<polygon fill="#00549D" points="66.496,22.452 66.495,22.452 66.496,22.454 		"/>
		<path fill="#00549D" d="M33.798,9.115l0.011,0.007l0.021,0.002c0.171,0.013,0.288,0.05,0.349,0.113
			c0.061,0.063,0.098,0.168,0.108,0.321l0.305,4.392c0.012,0.153-0.011,0.263-0.062,0.333c-0.052,0.071-0.163,0.126-0.33,0.161
			l-0.039,0.006l-0.025,0.01l-0.017,0.005c-0.176,0.038-0.261,0.105-0.256,0.199l0.074,0.151l0.175,0.045l0.136-0.021
			c0.403-0.072,0.809-0.124,1.211-0.151c0.403-0.03,0.811-0.037,1.216-0.023l0.148,0.003l0.165-0.071l0.05-0.167
			c-0.007-0.088-0.099-0.137-0.277-0.146l-0.052-0.006c-0.202-0.016-0.335-0.052-0.398-0.111c-0.065-0.061-0.103-0.167-0.114-0.318
			l-0.146-2.093l0.032-0.104l0.105-0.043l2.027-0.142l0.104,0.028l0.042,0.1l0.146,2.092c0.01,0.155-0.012,0.264-0.069,0.332
			c-0.056,0.066-0.178,0.121-0.368,0.165l-0.051,0.014c-0.176,0.033-0.259,0.096-0.255,0.183l0.073,0.159l0.174,0.049l0.145-0.024
			c0.4-0.07,0.804-0.118,1.206-0.146c0.403-0.029,0.81-0.037,1.214-0.024l0.146,0.004l0.166-0.069l0.05-0.162
			c-0.005-0.086-0.094-0.139-0.262-0.163L40.653,14l-0.037,0.001l-0.034-0.005c-0.167-0.013-0.283-0.051-0.346-0.115
			c-0.063-0.061-0.098-0.167-0.109-0.319l-0.306-4.393c-0.01-0.151,0.013-0.261,0.063-0.332c0.053-0.071,0.165-0.125,0.333-0.162
			l0.018-0.004l0.012-0.008l0.259-0.085l0.041-0.129l-0.07-0.146l-0.173-0.043l-0.141,0.02c-0.399,0.066-0.804,0.115-1.209,0.142
			c-0.404,0.029-0.811,0.038-1.22,0.029h-0.143l-0.167,0.067L37.375,8.68c0.006,0.093,0.11,0.146,0.307,0.159l0.013,0.004
			l0.011-0.001c0.193,0.014,0.322,0.047,0.389,0.11c0.063,0.061,0.104,0.166,0.113,0.321l0.112,1.601l-0.027,0.104l-0.1,0.043
			l-2.026,0.142l-0.11-0.03l-0.047-0.097l-0.114-1.592c-0.011-0.162,0.009-0.274,0.064-0.343c0.053-0.072,0.18-0.125,0.381-0.165
			l0.01-0.001l0.014-0.005c0.193-0.04,0.288-0.106,0.281-0.201l-0.072-0.154l-0.177-0.043l-0.141,0.02
			c-0.404,0.067-0.81,0.114-1.211,0.142c-0.404,0.027-0.813,0.037-1.222,0.027h-0.137L33.52,8.791l-0.054,0.153l0.064,0.123
			L33.798,9.115z"/>
		<path fill="#00549D" d="M66.495,31.473c-0.162-0.002-0.334,0.021-0.51,0.065c-0.549,0.138-0.948,0.433-1.197,0.885
			c-0.246,0.452-0.294,0.979-0.145,1.58c0.163,0.665,0.461,1.152,0.887,1.459c0.291,0.212,0.614,0.319,0.965,0.321
			c0.163,0.002,0.332-0.02,0.508-0.066c0.559-0.138,0.959-0.435,1.205-0.89c0.245-0.455,0.29-0.992,0.135-1.611
			c-0.164-0.65-0.458-1.126-0.885-1.431C67.166,31.579,66.846,31.474,66.495,31.473L66.495,31.473z M67.526,32.678
			c0.276,0.083,0.443,0.249,0.507,0.501c0.068,0.275-0.035,0.538-0.313,0.79c-0.279,0.253-0.682,0.446-1.213,0.577l-0.012,0.004
			c-0.407,0.1-0.747,0.105-1.024,0.019c-0.28-0.088-0.451-0.254-0.513-0.502c-0.069-0.273,0.035-0.536,0.313-0.784
			c0.275-0.25,0.677-0.44,1.208-0.573l0.017-0.004v-0.001C66.913,32.604,67.256,32.595,67.526,32.678z"/>
		<polygon fill="#00549D" points="66.496,27.707 66.495,27.707 66.496,27.708 		"/>
		<path fill="#00549D" d="M43.33,10.553l1.126-0.432c0.157-0.059,0.261-0.115,0.312-0.166c0.055-0.05,0.083-0.115,0.096-0.193
			c0.01-0.1-0.01-0.188-0.064-0.257c-0.061-0.071-0.137-0.113-0.24-0.125c-0.076-0.01-0.161,0.003-0.247,0.041
			c-0.089,0.036-0.188,0.103-0.307,0.2l-0.679,0.55l-0.49,0.396l0.346,0.043L43.33,10.553z"/>
		<path fill="#00549D" d="M43.002,14.827l0.328,0.024v-0.002l0.357-0.025c0.209-0.035,0.429-0.104,0.651-0.21
			c0.146-0.071,0.26-0.144,0.352-0.214c0.084-0.069,0.134-0.129,0.139-0.177l-0.028-0.101l-0.102-0.05l-0.371,0.157
			c-0.23,0.107-0.461,0.145-0.693,0.117l-0.304-0.067v0.002c-0.243-0.082-0.442-0.226-0.592-0.43
			c-0.212-0.285-0.293-0.63-0.244-1.036l0.024-0.202l0.045-0.104l0.118-0.018l0.646,0.079v-0.317l-0.086-0.011l-0.505-0.062
			l-0.079-0.027l-0.026-0.047l0.002-0.009l0.039-0.129c0.056-0.208,0.163-0.365,0.319-0.473c0.104-0.072,0.218-0.113,0.339-0.127
			l0.195,0.001c0.165,0.021,0.296,0.085,0.391,0.195c0.093,0.11,0.133,0.238,0.113,0.39c-0.019,0.133-0.084,0.224-0.205,0.27
			c-0.104,0.041-0.269,0.051-0.492,0.03v0.317l1.335,0.164c0.129,0.015,0.221,0.007,0.28-0.021l0.023-0.016l0.071-0.154
			c0.023-0.195-0.002-0.379-0.071-0.552c-0.063-0.141-0.152-0.273-0.278-0.398c-0.276-0.277-0.654-0.446-1.131-0.505l-0.229-0.02
			c-0.537-0.027-0.989,0.086-1.367,0.348c-0.436,0.295-0.681,0.723-0.752,1.28c-0.069,0.554,0.065,1.028,0.399,1.428
			C41.941,14.518,42.406,14.755,43.002,14.827z"/>
		<path fill="#00549D" d="M44.968,14.659l-0.009,0.001l-0.07,0.097l0.016,0.106l0.063,0.061v0.001h0.001h0.001l0,0l0.005,0.001
			l0.114,0.022c0.321,0.057,0.638,0.125,0.95,0.207c0.321,0.089,0.637,0.188,0.946,0.303l0.098,0.034l0.091-0.018l0.054-0.091
			l-0.008-0.117l-0.162-0.091l-0.101-0.035l-0.062-0.039c-0.069-0.052-0.112-0.109-0.123-0.168c-0.011-0.062,0-0.159,0.037-0.294
			l0.437-1.628c0.037-0.132,0.075-0.221,0.12-0.274c0.045-0.054,0.1-0.072,0.163-0.054c0.053,0.014,0.125,0.103,0.212,0.265
			l0.052,0.094l0.149,0.167l0.208,0.099c0.18,0.048,0.343,0.033,0.481-0.046l0.012-0.007c0.134-0.08,0.222-0.206,0.27-0.383
			c0.044-0.17,0.019-0.326-0.076-0.466l-0.193-0.185l-0.261-0.108c-0.124-0.034-0.251-0.039-0.383-0.015
			c-0.13,0.024-0.259,0.073-0.39,0.15l-0.106,0.071l-0.05,0.021l-0.04,0.001l-0.017-0.023l0.008-0.063l0.093-0.341l0.01-0.162
			l-0.098-0.065c-0.052-0.014-0.173,0.017-0.37,0.091c-0.195,0.078-0.368,0.127-0.521,0.153l-0.22,0.023l-0.294,0.001l-0.019-0.001
			c-0.19-0.003-0.296,0.035-0.317,0.113c-0.018,0.066,0.028,0.123,0.14,0.172l0.015,0.007l0.018,0.009l0.141,0.066l0.108,0.129
			l-0.024,0.24l-0.025,0.101l-0.413,1.528c-0.039,0.147-0.077,0.242-0.117,0.283L45.33,14.68h-0.086l-0.088-0.016l-0.185-0.01v0.004
			H44.968z"/>
		<path fill="#00549D" d="M17.601,26.967c0.018,0.063,0,0.155-0.055,0.275l-0.021,0.044c-0.062,0.133-0.062,0.22-0.002,0.262
			l0.127,0.024l0.108-0.086l0.039-0.074l0.155-0.285c0.122-0.217,0.258-0.443,0.406-0.673c0.203-0.309,0.44-0.65,0.709-1.024
			l0.481-0.673l0.07-0.193l-0.112-0.165l-0.473-0.417l-0.103-0.085l-0.083-0.07l-0.111-0.031l-0.086,0.064
			c-0.04,0.062-0.019,0.193,0.065,0.399l0.127,0.343c0.039,0.14,0.046,0.292,0.021,0.453c-0.025,0.164-0.082,0.309-0.167,0.443
			c-0.114,0.173-0.224,0.27-0.336,0.287c-0.101,0.016-0.237-0.03-0.408-0.132V25.65l-0.065-0.041l-2.242-1.457v1.469l1.781,1.156
			C17.522,26.839,17.581,26.904,17.601,26.967z"/>
		<path fill="#00549D" d="M51.881,13.454c-0.173-0.139-0.393-0.26-0.664-0.364c-0.257-0.098-0.522-0.153-0.809-0.165l-0.284,0.006
			v0.822l0.164-0.097l0.139-0.108c0.265-0.201,0.47-0.272,0.619-0.213c0.095,0.036,0.153,0.098,0.169,0.185
			c0.019,0.089,0,0.205-0.055,0.353l-0.181,0.468l-0.069,0.107l-0.1,0.042l-0.687,0.029v0.345l0.212-0.037l0.305-0.034l0.057-0.003
			l0.045,0.01l0.027,0.037l-0.014,0.068l-0.212,0.557c-0.076,0.2-0.182,0.338-0.316,0.412l-0.106,0.042v-0.001
			c-0.11,0.031-0.226,0.02-0.352-0.027c-0.133-0.051-0.223-0.13-0.27-0.235c-0.045-0.107-0.041-0.228,0.011-0.363
			c0.05-0.125,0.143-0.228,0.281-0.306c0.092-0.049,0.202-0.091,0.329-0.12v-0.346l-0.171,0.008
			c-0.493,0.018-0.855,0.077-1.078,0.178l-0.234,0.154v0.001c-0.101,0.091-0.175,0.203-0.224,0.339
			c-0.088,0.22-0.088,0.43-0.003,0.623c0.05,0.117,0.124,0.215,0.227,0.292v-0.002l0.229,0.126c0.159,0.06,0.359,0.083,0.603,0.071
			c0.196-0.013,0.413-0.049,0.652-0.108v0.001l0.185-0.05l0.042,0.017c0.013,0.248,0.046,0.428,0.107,0.544
			c0.063,0.115,0.162,0.198,0.301,0.252c0.228,0.087,0.479,0.103,0.749,0.048c0.269-0.059,0.428-0.14,0.47-0.247l0.002-0.111
			l-0.063-0.072l-0.131,0.014l-0.172-0.002c-0.07-0.026-0.105-0.074-0.113-0.14c-0.006-0.068,0.022-0.176,0.078-0.329l0.515-1.337
			l0.053-0.141c0.074-0.2,0.12-0.349,0.132-0.446c0.009-0.099-0.006-0.19-0.038-0.277C52.171,13.751,52.052,13.595,51.881,13.454z"
			/>
		<path fill="#00549D" d="M58.912,22.601L58.912,22.601c0.19,0.038,0.316,0.027,0.377-0.031l0.038-0.112l-0.041-0.116l-0.217-0.087
			l-0.157-0.059v0.001l-0.114-0.08c-0.066-0.068-0.072-0.155-0.018-0.262l0.13-0.189v-0.002l0.243-0.255l0.117-0.115l1.179-1.105
			l0.082-0.033l0.077,0.042l0.43,0.445l0.104,0.061l0.15-0.104l0.099-0.133l-0.062-0.1l-0.435-0.446l-0.036-0.083l0.034-0.079
			l0.474-0.458l0.106-0.142l-0.056-0.113c-0.061-0.058-0.203-0.086-0.433-0.082c-0.232,0.003-0.401-0.001-0.52-0.014
			c-0.188-0.023-0.396-0.074-0.624-0.149c-0.231-0.075-0.37-0.091-0.419-0.044l-0.03,0.104l0.099,0.147l0.119,0.123l0.041,0.115
			l-0.115,0.157l-0.632,0.578l-0.613,0.568l-0.09,0.094c-0.332,0.318-0.512,0.584-0.541,0.795c-0.024,0.211,0.072,0.435,0.301,0.67
			c0.2,0.207,0.446,0.353,0.755,0.444L58.912,22.601z"/>
		<path fill="#00549D" d="M57.118,20.662l-0.043-0.065c-0.041-0.081-0.058-0.15-0.044-0.211c0.011-0.061,0.065-0.146,0.155-0.253
			l1.726-2.059l0.884-1.052l0.156-0.171l0.142-0.154l0.073-0.144l-0.057-0.108l-0.347-0.13c-0.211-0.073-0.411-0.159-0.59-0.257
			l-0.043-0.025l-0.164-0.097l-0.026-0.017l-0.028-0.015c-0.218-0.113-0.357-0.137-0.413-0.063c-0.047,0.054-0.027,0.13,0.047,0.229
			l0.092,0.131c0.033,0.074,0.043,0.144,0.029,0.208c-0.016,0.063-0.055,0.137-0.123,0.218l-2.289,2.727l-0.102,0.113v-0.002
			l-0.119,0.09c-0.06,0.024-0.126,0.022-0.209-0.005l-0.073-0.037l-0.071-0.053l-0.175-0.086l-0.104,0.059l-0.032,0.102l0.038,0.09
			l0.08,0.061c0.226,0.158,0.446,0.323,0.669,0.5v0.002l0.176,0.148c0.222,0.186,0.442,0.389,0.654,0.606l0.081,0.081l0.118,0.049
			l0.096-0.059l0.043-0.11l-0.118-0.158L57.118,20.662z"/>
		<path fill="#00549D" d="M55.757,19.304c0.038-0.06,0.013-0.128-0.07-0.203l-0.013-0.007L55.6,19.025l-0.045-0.043l-0.059-0.172
			c0.006-0.052,0.048-0.14,0.123-0.269l0.534-0.847l0.639-1.028l0.066-0.101l0.077-0.182l-0.075-0.091l-0.069-0.037
			c-0.219-0.112-0.433-0.23-0.636-0.359l-0.002-0.002v-0.001c-0.188-0.116-0.365-0.238-0.538-0.364l-0.063-0.041l-0.114-0.031
			l-0.084,0.069c-0.048,0.077-0.019,0.159,0.086,0.25l0.012,0.006l0.075,0.06l0.061,0.069c0.052,0.07,0.072,0.134,0.07,0.197
			c-0.004,0.061-0.044,0.15-0.115,0.269l-0.776,1.244c-0.183,0.29-0.353,0.468-0.513,0.534c-0.16,0.066-0.338,0.037-0.536-0.085
			c-0.165-0.102-0.247-0.237-0.249-0.41c-0.005-0.17,0.069-0.379,0.227-0.628l1.032-1.653l0.042-0.068l0.1-0.21l-0.072-0.096
			l-0.071-0.04c-0.216-0.109-0.422-0.224-0.618-0.348l-0.359-0.242l-0.186-0.132l-0.117-0.034l-0.084,0.068l-0.027,0.122
			l0.111,0.123l0.072,0.071l0.035,0.04l0.058,0.178c-0.007,0.057-0.049,0.149-0.126,0.274l-0.709,1.138l-0.158,0.247
			c-0.117,0.187-0.192,0.336-0.231,0.45c-0.037,0.115-0.053,0.227-0.048,0.338c0.008,0.17,0.07,0.337,0.188,0.5
			C52.64,17.922,52.8,18.067,53,18.191c0.214,0.133,0.44,0.219,0.678,0.261c0.237,0.041,0.475,0.034,0.714-0.024l0.036,0.033
			l-0.124,0.284l-0.035,0.164l0.072,0.09l0.266,0.058c0.169,0.035,0.347,0.084,0.523,0.146l0.045,0.02l0.156,0.061
			c0.161,0.066,0.266,0.096,0.314,0.094L55.757,19.304z"/>
		<path fill="#00549D" d="M37.638,65.524c-0.575-0.052-1.072,0.086-1.493,0.412c-0.422,0.323-0.656,0.748-0.702,1.271
			c-0.042,0.476,0.08,0.882,0.365,1.228c0.288,0.348,0.663,0.541,1.126,0.581c0.239,0.022,0.461-0.004,0.667-0.071
			c0.205-0.068,0.311-0.144,0.317-0.223l-0.028-0.107l-0.091-0.047l-0.117,0.006l-0.122,0.005c-0.315-0.025-0.57-0.217-0.771-0.566
			c-0.2-0.353-0.277-0.767-0.235-1.241c0.023-0.304,0.116-0.534,0.277-0.699c0.159-0.166,0.356-0.241,0.596-0.216
			c0.285,0.022,0.524,0.248,0.718,0.675c0.193,0.426,0.266,0.916,0.218,1.468c-0.056,0.64-0.269,1.227-0.642,1.751
			c-0.374,0.526-0.864,0.929-1.472,1.211c-0.154,0.073-0.359,0.147-0.619,0.219c-0.257,0.071-0.391,0.151-0.398,0.241l0.046,0.11
			l0.129,0.056l0.307-0.027l0.458-0.104c0.327-0.098,0.63-0.212,0.905-0.336c0.273-0.123,0.524-0.261,0.748-0.417
			c0.541-0.366,0.964-0.776,1.27-1.238c0.31-0.456,0.483-0.938,0.527-1.438c0.056-0.653-0.106-1.218-0.491-1.7
			C38.752,65.843,38.255,65.577,37.638,65.524z"/>
		<path fill="#00549D" d="M48.223,69.504l-0.015,0.003l-0.011-0.005c-0.14,0.007-0.24-0.009-0.298-0.042
			c-0.063-0.034-0.1-0.093-0.122-0.178l-0.18-0.721l-0.002-0.158l0.102-0.076l0.514-0.125l0.113-0.07l0.004-0.14L48.29,67.83
			l-0.063-0.104l-0.111-0.016l-0.52,0.13l-0.134-0.004l-0.058-0.115l-0.378-1.518l-0.021-0.083l-0.041-0.105l-0.052-0.017
			l-0.171,0.054l-0.136,0.049l-0.294,0.142c-0.14,0.085-0.257,0.167-0.35,0.253l-0.044,0.034c-0.07,0.063-0.097,0.119-0.083,0.177
			l0.321,1.29l0.002,0.165l-0.137,0.076l-1.288,0.32l-0.062-0.002l-0.032-0.037l-0.002-0.037l0.015-0.057l0.186-0.518
			c0.081-0.219,0.254-0.616,0.513-1.188c0.258-0.572,0.554-1.188,0.88-1.85l0.166-0.325c0.123-0.251,0.187-0.395,0.175-0.428
			l-0.033-0.041l-0.078,0.002l-0.216,0.059l-0.047,0.011l-0.07,0.028l-0.054,0.083l-1.896,4.291l-0.061,0.203l0.013,0.192
			c0.022,0.104,0.063,0.165,0.108,0.191c0.044,0.023,0.139,0.021,0.279-0.017l1.629-0.405h0.123l0.063,0.129l0.146,0.579
			c0.04,0.156,0.047,0.266,0.023,0.337c-0.023,0.067-0.09,0.132-0.197,0.192l-0.159,0.069l-0.021,0.011l-0.187,0.111l-0.016,0.128
			c0.016,0.064,0.053,0.105,0.118,0.124c0.06,0.017,0.151,0.01,0.267-0.019l0.388-0.112l0.633-0.177l0.524-0.116l0.445-0.094
			c0.119-0.027,0.195-0.064,0.228-0.099l0.024-0.151l-0.077-0.105L48.223,69.504z"/>
		<path fill="#00549D" d="M43.682,65.537l-0.38,0.042l-0.629,0.064l-0.994,0.084c-0.536,0.05-1.057,0.067-1.568,0.062l-0.149-0.003
			l-0.132,0.045l-0.026,0.119l0.071,0.815c0.011,0.132,0.032,0.216,0.061,0.248l0.165,0.042l0.096-0.013l0.709-0.074l1.722-0.149
			l0.248-0.005l0.072,0.056l-0.016,0.144l-0.066,0.246l-1.298,3.894l-0.015,0.056l-0.003,0.032l0.022,0.026l0.069,0.007l0.224-0.021
			l0.117-0.035l0.068-0.123l0.461-1.46c0.277-0.874,0.599-1.75,0.962-2.622c0.364-0.87,0.543-1.334,0.538-1.391l-0.095-0.074
			L43.682,65.537z"/>
		<path fill="#00549D" d="M70.441,46.06c-0.207-0.437-0.481-0.804-0.826-1.101c-0.346-0.295-0.743-0.503-1.188-0.622
			c-0.785-0.212-1.504-0.16-2.162,0.159l0,0l-0.002,0.001c-0.001,0-0.001,0-0.001,0l0,0l-0.364,0.208
			c-0.679,0.45-1.167,1.133-1.468,2.049v2.503l0.095,0.063c0.092,0.046,0.249,0.102,0.473,0.163l0.122,0.033
			c0.231,0.059,0.381,0.087,0.443,0.077c0.062-0.009,0.101-0.047,0.122-0.117c0.021-0.08-0.071-0.209-0.279-0.388l-0.18-0.157
			c-0.251-0.226-0.422-0.49-0.518-0.783c-0.093-0.295-0.103-0.586-0.021-0.885c0.151-0.573,0.536-0.983,1.149-1.229
			c0.138-0.055,0.278-0.098,0.424-0.13v0.001c0.509-0.109,1.068-0.082,1.683,0.081c0.803,0.211,1.416,0.586,1.836,1.116
			c0.421,0.523,0.554,1.076,0.399,1.654c-0.07,0.253-0.182,0.462-0.339,0.626c-0.159,0.166-0.374,0.301-0.652,0.409l-0.258,0.085
			c-0.231,0.068-0.36,0.149-0.39,0.245l0.023,0.153l0.146,0.091c0.235,0.063,0.46,0.103,0.675,0.119
			c0.213,0.017,0.342,0.008,0.379-0.027c0.12-0.093,0.264-0.297,0.426-0.613c0.161-0.318,0.293-0.67,0.397-1.058
			c0.137-0.509,0.191-0.988,0.168-1.44C70.73,46.894,70.624,46.464,70.441,46.06z"/>
		<path fill="#00549D" d="M64.032,49.834c-0.037-0.048-0.055-0.116-0.052-0.199l0.015-0.082l0.03-0.088l0.034-0.188l-0.086-0.085
			l-0.106-0.002l-0.075,0.061l-0.035,0.1c-0.113,0.327-0.242,0.658-0.389,0.99c-0.117,0.263-0.255,0.531-0.404,0.794l-0.057,0.102
			l-0.014,0.123l0.081,0.078l0.118,0.007l0.115-0.153l0.057-0.105l0.049-0.059c0.066-0.064,0.131-0.098,0.195-0.103
			c0.061-0.005,0.155,0.022,0.285,0.077l0.635,0.284v-1.332h0.001l-0.14-0.063C64.154,49.935,64.071,49.882,64.032,49.834z"/>
		<path fill="#00549D" d="M68.077,51.293l-0.1,0.123l-0.191,0.083c-0.066,0.006-0.148-0.016-0.247-0.059l-1.278-0.568l-1.834-0.819
			v1.333l1.834,0.816l1.243,0.552l0.207,0.101l0.189,0.098l0.161,0.029l0.084-0.085l0.03-0.368c0.011-0.223,0.036-0.437,0.082-0.636
			l0.016-0.049l0.048-0.184l0.007-0.029c0.061-0.26,0.045-0.409-0.042-0.449C68.222,51.155,68.15,51.191,68.077,51.293z"/>
		<path fill="#00549D" d="M64.43,58.024L64.43,58.024L64.43,58.024z"/>
		<path fill="#00549D" d="M34.965,65.274l-0.002-0.115l-0.081-0.053l-0.54,0.057c-0.35,0.043-0.708,0.066-1.072,0.076l-0.414,0.002
			c-0.375-0.002-0.575,0.051-0.6,0.154l0.023,0.12l0.117,0.073c0.121,0.029,0.292,0.035,0.505,0.018
			c0.217-0.021,0.36-0.023,0.432-0.002l0.138,0.089c0.018,0.044,0.012,0.122-0.016,0.242l-0.802,3.211
			c-0.044,0.18-0.095,0.296-0.151,0.337c-0.059,0.044-0.159,0.057-0.305,0.035l-0.138-0.023l-0.128-0.021
			c-0.282-0.053-0.439-0.015-0.471,0.115l0.028,0.149l0.19,0.094l0.704,0.156l0.728,0.162c0.232,0.057,0.489,0.13,0.769,0.215
			l0.494,0.149l0.205,0.007l0.09-0.119c0.027-0.111-0.077-0.212-0.312-0.299l-0.2-0.074c-0.123-0.056-0.204-0.128-0.239-0.213
			c-0.033-0.086-0.031-0.215,0.011-0.385L34.965,65.274z"/>
		<path fill="#00549D" d="M64.429,58.024l-0.155,0.071l-0.127,0.083c-0.073,0.035-0.144,0.044-0.21,0.031
			c-0.065-0.014-0.136-0.056-0.218-0.123l-2.373-1.993v1.592l0.27,0.227c0.168,0.142,0.259,0.269,0.274,0.388
			c0.018,0.118-0.037,0.251-0.164,0.4c-0.104,0.125-0.231,0.212-0.381,0.255v0.002c-0.116,0.034-0.244,0.045-0.386,0.031
			c-0.324-0.031-0.65-0.187-0.983-0.466c-0.356-0.3-0.586-0.613-0.682-0.946c-0.098-0.333-0.051-0.612,0.139-0.838
			c0.118-0.139,0.254-0.194,0.403-0.166c0.155,0.028,0.357,0.151,0.617,0.366l0.892,0.749v-1.594h0.001l-0.198-0.165
			c-0.166-0.137-0.329-0.294-0.484-0.458l-0.244-0.256l-0.112-0.057l-0.092,0.05c-0.035,0.045-0.035,0.151-0.001,0.311
			c0.037,0.164,0.032,0.273-0.017,0.331c-0.022,0.023-0.168,0.116-0.44,0.271c-0.27,0.155-0.487,0.332-0.656,0.531
			c-0.394,0.471-0.577,0.987-0.543,1.549c0.03,0.559,0.268,1.026,0.716,1.4c0.396,0.328,0.82,0.475,1.282,0.438
			c0.291-0.022,0.55-0.115,0.787-0.275c0.139-0.093,0.27-0.212,0.391-0.356c0.089-0.104,0.165-0.22,0.232-0.347
			c0.066-0.123,0.117-0.255,0.161-0.391l0.036-0.128l0.006-0.022l0.021-0.033l0.052-0.022l0.064,0.033l1.017,0.852l0.163,0.145
			l0.166,0.15l0.143,0.074l0.109-0.063l0.129-0.346c0.071-0.212,0.158-0.41,0.256-0.591l0.029-0.047l0.088-0.154l0.008-0.019
			l0.018-0.026V58.47c-0.001,0.002,0,0.002-0.001,0.003L64.429,58.024L64.429,58.024z"/>
		<path fill="#00549D" d="M64.502,58.048l-0.07-0.023v0.445C64.548,58.249,64.573,58.109,64.502,58.048z"/>
		<path fill="#00549D" d="M65.774,52.977l-0.121,0.109l-0.07,0.077l-0.039,0.033l-0.18,0.058c-0.055-0.007-0.148-0.048-0.273-0.126
			l-0.662-0.415l-0.477-0.3l-0.249-0.152c-0.185-0.119-0.333-0.197-0.447-0.232c-0.114-0.037-0.227-0.056-0.34-0.048
			c-0.168,0.006-0.336,0.068-0.499,0.185c-0.164,0.115-0.31,0.275-0.433,0.477c-0.134,0.212-0.222,0.44-0.263,0.678
			c-0.039,0.236-0.033,0.473,0.024,0.71l-0.033,0.04l-0.285-0.123l-0.082-0.025v0.001l-0.082-0.011l-0.088,0.071l-0.057,0.266
			c-0.036,0.173-0.087,0.348-0.148,0.524l-0.018,0.044l-0.063,0.157c-0.068,0.16-0.094,0.264-0.092,0.314l0.07,0.114
			c0.063,0.04,0.129,0.016,0.206-0.07l0.005-0.009l0.07-0.078l0.043-0.044l0.154-0.06v-0.001l0.021,0.001
			c0.054,0.006,0.141,0.048,0.268,0.125l1.878,1.174l0.102,0.063l0.18,0.08l0.09-0.076l0.038-0.069
			c0.112-0.218,0.229-0.431,0.358-0.638l0.149-0.229v0.001l0.216-0.306l0.041-0.059l0.03-0.116l-0.067-0.084
			c-0.069-0.044-0.141-0.022-0.221,0.057v-0.003l-0.027,0.031l-0.007,0.011l-0.06,0.076l-0.068,0.063
			c-0.071,0.048-0.134,0.069-0.199,0.065c-0.062-0.005-0.151-0.044-0.267-0.116l-1.244-0.777c-0.29-0.183-0.468-0.352-0.534-0.511
			c-0.068-0.161-0.036-0.341,0.085-0.537c0.101-0.165,0.237-0.247,0.405-0.25c0.172-0.004,0.383,0.071,0.633,0.228l1.283,0.802
			l0.368,0.228l0.067,0.045l0.209,0.096l0.1-0.071l0.037-0.071c0.11-0.215,0.224-0.422,0.35-0.62l0.24-0.354l0.134-0.188
			l0.032-0.117l-0.068-0.082L65.774,52.977z"/>
		<path fill="#00549D" d="M12.093,43.239l1.598-1.453l0.708-0.644c0.122-0.11,0.201-0.195,0.232-0.255l0.041-0.182
			c-0.004-0.075-0.038-0.132-0.101-0.168c-0.06-0.037-0.15-0.05-0.269-0.042l-0.611,0.042l-1.599,0.11v0.363l0.372-0.025
			l0.075,0.017l0.034,0.05L12.558,41.1l-0.047,0.059l-0.421,0.391h0.002L12.093,43.239L12.093,43.239z"/>
		<path fill="#00549D" d="M17.952,57.448l-0.08,0.043l-1.694,0.919l-0.07,0.026l-0.04-0.017v-0.035l0.031-0.051l1.853-2.509h0.001
			v-0.002l0.71-0.961c0.091-0.127,0.145-0.228,0.161-0.304c0.017-0.076,0-0.154-0.046-0.229c-0.042-0.068-0.104-0.108-0.183-0.125
			c-0.08-0.018-0.195-0.014-0.348,0.012l-0.296,0.048v0.003l-2.307,0.395v0.503l0.765-0.13l0.131-0.009l0.065,0.025l-0.001,0.068
			l-0.054,0.09l-0.906,1.195v2.862l0.303-0.215l0.214-0.121l0.132-0.072l1.66-0.908V57.95l-0.001,0.001V57.448L17.952,57.448z"/>
		<path fill="#00549D" d="M14.261,58.349l0.077,0.213l0.176,0.258l0.29,0.438c0.136,0.221,0.272,0.463,0.411,0.728l0.073,0.138
			l0.137,0.117l0.159-0.025l0.059-0.073v-0.107l-0.037-0.107l-0.001-0.011l-0.051-0.119l-0.03-0.08
			c-0.038-0.129-0.034-0.234,0.01-0.321l0.113-0.122v-2.863l-1.336,1.764L14.261,58.349z"/>
		<path fill="#00549D" d="M15.645,53.855l1.387-0.883c0.126-0.077,0.233-0.112,0.32-0.105c0.085,0.006,0.179,0.063,0.276,0.164
			l0.065,0.068l0.024,0.038l0.182,0.155l0.052,0.005v-0.469c-0.25-0.325-0.481-0.658-0.691-0.993
			c-0.217-0.35-0.42-0.712-0.607-1.089l-0.063-0.132l-0.138-0.113l-0.161,0.023c-0.084,0.05-0.088,0.156-0.016,0.306l0.018,0.029
			l0.015,0.059c0.071,0.145,0.095,0.263,0.071,0.355c-0.025,0.093-0.106,0.182-0.243,0.274l-0.493,0.328l0,0v1.979H15.645z"/>
		<path fill="#00549D" d="M31.906,15.684l0.205-0.066l0.075-0.083v-0.112c-0.014-0.037-0.105-0.056-0.27-0.065
			c-0.166-0.01-0.31-0.062-0.429-0.153l-1.16-0.896c-0.136-0.105-0.271-0.173-0.407-0.207c-0.137-0.032-0.292-0.032-0.464,0.001
			c0.366-0.246,0.617-0.504,0.747-0.776c0.133-0.272,0.138-0.542,0.021-0.807c-0.149-0.337-0.393-0.536-0.73-0.598
			c-0.297-0.055-0.652,0-1.072,0.165h-0.001l-0.176,0.075l-0.697,0.329l-0.809,0.381l-0.097,0.042v0.001l-0.343,0.141l-0.248,0.098
			l-0.193,0.128l-0.009,0.148c0.03,0.068,0.125,0.083,0.288,0.039l0.021-0.005c0.128-0.035,0.22-0.039,0.282-0.011
			c0.061,0.03,0.115,0.096,0.163,0.203l0.04,0.091v-0.001l1.327,2.979c0.049,0.109,0.065,0.194,0.047,0.257
			c-0.021,0.063-0.084,0.128-0.194,0.198l-0.023,0.014l-0.018,0.014l-0.011,0.008c-0.117,0.073-0.165,0.144-0.132,0.211l0.094,0.084
			l0.137-0.01l0.099-0.055l0.454-0.245l0,0l0.354-0.169c0.279-0.123,0.563-0.233,0.854-0.329l0.107-0.035l0.094-0.091l-0.008-0.134
			c-0.027-0.06-0.107-0.073-0.232-0.034l-0.04,0.01c-0.141,0.039-0.242,0.045-0.305,0.019c-0.063-0.027-0.117-0.093-0.164-0.198
			l-0.612-1.373l-0.005-0.079l0.061-0.056l0.065-0.028c0.088-0.038,0.185-0.038,0.294,0.001c0.108,0.038,0.234,0.118,0.376,0.237
			l1.306,1.093l0.193,0.118l0.192-0.033l0.297-0.148l0.299-0.148L31.906,15.684z M29.09,13.865
			c-0.104,0.232-0.299,0.413-0.581,0.538l-0.093,0.032l-0.112-0.007c-0.044-0.025-0.101-0.122-0.175-0.29l-0.363-0.813
			c-0.089-0.2-0.118-0.345-0.094-0.436c0.023-0.091,0.11-0.168,0.253-0.232c0.164-0.072,0.328-0.093,0.493-0.06l0.173,0.054
			c0.222,0.092,0.388,0.258,0.494,0.496C29.194,13.395,29.197,13.634,29.09,13.865z"/>
		<path fill="#00549D" d="M12.092,44.561L12.092,44.561l-0.001-0.369h0.001v-0.002l-0.931,0.068l-0.082-0.009l-0.024-0.023
			l0.008-0.038l0.032-0.035l0.999-0.908v-0.003l-0.002,0.003v-1.695l-1.972,1.835l-0.109,0.131l-0.016,0.139l0.008,0.071l0.05,0.541
			c0.018,0.263,0.026,0.525,0.028,0.775l0.001,0.079l0.051,0.116l0.117,0.039l0.101-0.041l0.026-0.17l0.005-0.097l0.007-0.067
			c0.012-0.085,0.057-0.143,0.136-0.18c0.075-0.038,0.219-0.067,0.433-0.081L12.092,44.561L12.092,44.561z"/>
		<path fill="#00549D" d="M11.183,47.287c-0.122,0.292-0.187,0.606-0.196,0.94c-0.008,0.335,0.041,0.671,0.149,1.004
			c0.115,0.347,0.271,0.658,0.473,0.92c0.143,0.188,0.304,0.353,0.482,0.493v-0.707c-0.324-0.135-0.541-0.372-0.65-0.708
			c-0.135-0.414-0.036-0.825,0.296-1.226c0.102-0.124,0.219-0.239,0.354-0.349v-1.494c-0.115,0.074-0.222,0.162-0.322,0.257
			C11.516,46.654,11.323,46.944,11.183,47.287z"/>
		<path fill="#00549D" d="M11.836,53.851l-0.069-0.101l-0.01-0.006c-0.104-0.13-0.196-0.172-0.277-0.122
			c-0.063,0.038-0.094,0.088-0.099,0.148c-0.003,0.063,0.022,0.134,0.077,0.221l0.198,0.284l0.275,0.406l0.158,0.263v-0.906
			l-0.167-0.092L11.836,53.851z"/>
		<path fill="#00549D" d="M13.691,53.181l-0.939,0.623l-0.076,0.047c-0.191,0.121-0.342,0.186-0.453,0.198l-0.13-0.008v0.907
			l0.043,0.07l0.196,0.333c0.085,0.137,0.155,0.225,0.211,0.263c0.056,0.041,0.122,0.056,0.196,0.04l0.953-0.16h0.001l0,0
			l1.953-0.329h-0.003v-0.503l-1.44,0.247l-0.085,0.004l-0.03-0.01l0.009-0.05l0.058-0.048l1.492-0.95v-1.979l-1.954,1.299v0.005
			H13.691z"/>
		<path fill="#00549D" d="M23.749,20.017l-0.034,0.021c-0.13,0.08-0.228,0.117-0.295,0.109c-0.069-0.008-0.139-0.056-0.212-0.145
			l-2.17-2.587c-0.075-0.089-0.112-0.167-0.108-0.234c0.004-0.067,0.057-0.158,0.161-0.272l0.005-0.005l0.004-0.009
			c0.103-0.112,0.13-0.195,0.085-0.25l-0.114-0.063l-0.128,0.052l-0.076,0.074l-0.161,0.158v2.065l1.554,1.853
			c0.075,0.09,0.112,0.167,0.111,0.235c0,0.066-0.043,0.15-0.131,0.247l-0.021,0.023l-0.015,0.017l-0.006,0.01
			c-0.092,0.103-0.116,0.184-0.07,0.237l0.117,0.061l0.126-0.052l0.074-0.072c0.218-0.226,0.445-0.439,0.68-0.637
			c0.237-0.198,0.485-0.384,0.741-0.56l0.093-0.065l0.071-0.117l-0.043-0.126C23.941,19.933,23.863,19.943,23.749,20.017z"/>
		<path fill="#00549D" d="M20.703,16.864v-0.002c-0.168,0.166-0.344,0.323-0.525,0.472c-0.238,0.2-0.484,0.387-0.741,0.564
			l-0.084,0.063l-0.073,0.116l0.035,0.119l0.094,0.047l0.184-0.086l0.01-0.002l0.018-0.011c0.111-0.069,0.199-0.097,0.265-0.087
			c0.067,0.012,0.137,0.062,0.212,0.15l0.604,0.721L20.703,16.864L20.703,16.864z"/>
		<path fill="#00549D" d="M27.175,17.033l-0.049-0.117l-0.032-0.071l-0.125-0.106l-0.14,0.02c-0.06,0.037-0.091,0.148-0.091,0.331
			c0,0.183-0.01,0.33-0.03,0.447l-0.069,0.211v0.001l-0.128,0.216c-0.104,0.14-0.234,0.255-0.39,0.353
			c-0.233,0.146-0.416,0.203-0.549,0.174c-0.136-0.029-0.298-0.197-0.489-0.503l-0.575-0.918l-0.016-0.076l0.055-0.072l0.079-0.063
			l0.075-0.054l0.117-0.075c0.154-0.096,0.282-0.147,0.386-0.156c0.104-0.008,0.222,0.027,0.357,0.1l0.139,0.085
			c0.142,0.096,0.251,0.12,0.326,0.072l0.083-0.111l-0.079-0.189l-0.138-0.204l-0.258-0.392c-0.085-0.138-0.167-0.285-0.241-0.444
			l-0.027-0.059l-0.105-0.089l-0.122,0.02c-0.064,0.041-0.089,0.132-0.068,0.276l0.022,0.339c-0.008,0.069-0.046,0.14-0.116,0.211
			c-0.071,0.072-0.198,0.167-0.387,0.284c-0.125,0.077-0.217,0.12-0.279,0.125c-0.063,0.007-0.113-0.021-0.147-0.077l-0.56-0.901
			c-0.082-0.129-0.096-0.245-0.046-0.348c0.053-0.104,0.175-0.216,0.376-0.341c0.165-0.104,0.319-0.172,0.461-0.202
			c0.143-0.03,0.272-0.026,0.385,0.013l0.24,0.095c0.188,0.082,0.313,0.102,0.375,0.066l0.076-0.096l-0.071-0.171l-0.403-0.646
			l-0.088-0.072l-0.17,0.075l-0.633,0.428c-0.402,0.276-0.805,0.538-1.205,0.788c-0.352,0.221-0.705,0.421-1.057,0.601l-0.1,0.054
			l-0.101,0.114l0.019,0.131c0.039,0.063,0.136,0.062,0.29-0.007L22,16.081c0.135-0.061,0.236-0.084,0.305-0.067
			c0.07,0.016,0.133,0.073,0.197,0.172l1.781,2.851c0.061,0.097,0.083,0.18,0.069,0.249c-0.017,0.07-0.082,0.15-0.199,0.242
			l-0.046,0.042c-0.118,0.105-0.158,0.19-0.118,0.255l0.105,0.068l0.147-0.042l0.11-0.08c0.328-0.248,0.667-0.481,1.02-0.703
			c0.42-0.262,0.843-0.508,1.267-0.74l0,0l0.5-0.265l0.178-0.098l0.122-0.143l-0.027-0.203L27.175,17.033z"/>
		<polygon fill="#00549D" points="20.702,18.929 20.703,18.929 20.702,18.928 		"/>
		<path fill="#00549D" d="M21.631,21.04l-0.087-0.099l-0.073-0.079l-0.105-0.048l-0.094,0.052c-0.048,0.054-0.046,0.188,0.01,0.403
			l0.075,0.358c0.02,0.143,0.005,0.292-0.044,0.451c-0.048,0.156-0.123,0.294-0.226,0.412c-0.136,0.157-0.262,0.237-0.375,0.237
			h-0.008c-0.113-0.003-0.257-0.081-0.435-0.234l-2.318-2.015v-0.003l-0.04-0.034c-0.086-0.075-0.132-0.15-0.136-0.222
			c-0.003-0.071,0.042-0.175,0.135-0.316l0.007-0.009l0.006-0.006l0.027-0.044v0.001c0.07-0.118,0.076-0.199,0.025-0.242
			l-0.025-0.021v-0.001l-0.096-0.021l-0.125,0.084l-0.094,0.125c-0.195,0.266-0.39,0.51-0.585,0.732
			c-0.201,0.232-0.415,0.458-0.641,0.674l-0.075,0.074l-0.054,0.126l0.054,0.112l0.101,0.031l0.171-0.12l0.011-0.003l0.011-0.008
			c0.1-0.086,0.182-0.127,0.25-0.127c0.068,0.001,0.144,0.039,0.231,0.115l0.842,0.731v0.003l1.696,1.476
			c0.087,0.074,0.135,0.147,0.146,0.213c0.012,0.065-0.02,0.154-0.091,0.264l-0.025,0.04c-0.079,0.124-0.09,0.21-0.037,0.259
			l0.122,0.042l0.118-0.071l0.049-0.069c0.2-0.283,0.43-0.572,0.688-0.87l0.086-0.098c0.224-0.251,0.475-0.525,0.758-0.817
			l0.569-0.6l0.099-0.18c0.003-0.049-0.024-0.107-0.088-0.178L21.631,21.04z"/>
		<path fill="#00549D" d="M20.417,56.792c-0.117-0.152-0.225-0.306-0.321-0.461l-0.25-0.445l-0.151-0.301
			c-0.051-0.081-0.104-0.134-0.161-0.157c-0.057-0.025-0.115-0.02-0.168,0.018l-0.072,0.118l0.09,0.24l0.023,0.049
			c0.069,0.16,0.099,0.273,0.091,0.351c-0.013,0.117-0.082,0.235-0.211,0.36c-0.129,0.124-0.381,0.303-0.756,0.539l-0.366,0.223
			l-0.211,0.12v0.003l0.001-0.002v0.501l1.451-0.794c0.224-0.124,0.383-0.188,0.475-0.188c0.092,0.001,0.206,0.068,0.339,0.207
			l0.051,0.049l0.022,0.03l0.166,0.142l0.132-0.029l0.072-0.135l-0.061-0.196L20.417,56.792z"/>
	</g>
	<path fill="#00549D" d="M56.324,62.854h-3.075l-1.458,2.62l3.072-0.06L56.324,62.854L56.324,62.854z M23.678,62.854h3.073
		l1.459,2.62l-3.074-0.06L23.678,62.854z"/>
	<path fill="#FFFFFF" d="M32.497,24.526c8.546-4.143,18.833-0.574,22.975,7.972c4.145,8.545,0.576,18.829-7.969,22.974
		c-8.546,4.145-18.832,0.576-22.976-7.97C20.382,38.957,23.953,28.671,32.497,24.526z"/>
	<path fill="#00549D" d="M37.839,22.951L23.785,34.288c-0.883,2.509-1.179,5.222-0.828,7.919l22.812-18.4
		C43.258,22.912,40.543,22.609,37.839,22.951z"/>
	<path fill="#00549D" d="M51.512,27.236L25.1,48.542c0.962,1.684,2.161,3.161,3.553,4.383l26.362-21.261
		C54.072,29.964,52.889,28.476,51.512,27.236z"/>
	<path fill="#00549D" d="M57.045,37.796l-22.81,18.398c2.511,0.895,5.228,1.199,7.931,0.854l14.045-11.328
		C57.099,43.21,57.395,40.496,57.045,37.796z"/>
</g>
</svg>
