<?xml version="1.0" encoding="utf-8"?>
<!-- Generator: Adobe Illustrator 16.0.0, SVG Export Plug-In . SVG Version: 6.00 Build 0)  -->
<!DOCTYPE svg PUBLIC "-//W3C//DTD SVG 1.1//EN" "http://www.w3.org/Graphics/SVG/1.1/DTD/svg11.dtd">
<svg version="1.1" id="Calque_1" xmlns="http://www.w3.org/2000/svg" xmlns:xlink="http://www.w3.org/1999/xlink" x="0px" y="0px"
	 width="80px" height="80px" viewBox="0 0 80 80" enable-background="new 0 0 80 80" xml:space="preserve">
<g>
	<g>
		<path fill="#FFFFFF" d="M41.974,71.66c-17.12,0-31.048-13.929-31.048-31.049S24.854,9.563,41.974,9.563
			c17.121,0,31.05,13.928,31.05,31.048S59.095,71.66,41.974,71.66z"/>
		<path fill="#E1001D" d="M41.974,10.378c16.698,0,30.235,13.536,30.235,30.233S58.672,70.846,41.974,70.846
			c-16.697,0-30.234-13.537-30.234-30.234S25.276,10.378,41.974,10.378 M41.974,8.749c-17.569,0-31.863,14.293-31.863,31.863
			s14.294,31.863,31.863,31.863c17.57,0,31.864-14.294,31.864-31.863S59.544,8.749,41.974,8.749L41.974,8.749z"/>
	</g>
	<g>
		<path fill="#E1001D" d="M38.199,59.158v3.856h-0.773v-2.836l-0.385,0.111v-0.804L38.199,59.158z"/>
		<path fill="#E1001D" d="M39.074,63.017l0.665-1.161c-0.35-0.026-0.647-0.169-0.889-0.429c-0.242-0.257-0.363-0.564-0.363-0.918
			c0-0.372,0.132-0.688,0.395-0.956c0.263-0.265,0.582-0.395,0.953-0.395c0.371,0,0.689,0.13,0.956,0.395
			c0.265,0.268,0.396,0.584,0.396,0.956c0,0.215-0.051,0.424-0.151,0.616c-0.009,0.019-0.023,0.045-0.041,0.08
			c-0.016,0.037-0.029,0.062-0.04,0.075l-0.998,1.734L39.074,63.017z M39.834,61.085c0.16,0,0.296-0.058,0.409-0.171
			c0.112-0.111,0.169-0.248,0.169-0.407c0-0.16-0.057-0.295-0.169-0.41c-0.113-0.116-0.25-0.173-0.409-0.173
			c-0.161,0-0.297,0.057-0.41,0.173c-0.113,0.115-0.167,0.25-0.167,0.41c0,0.159,0.058,0.296,0.17,0.407
			c0.112,0.113,0.249,0.171,0.409,0.171H39.834z"/>
		<path fill="#E1001D" d="M42.934,60.224c0-0.087-0.034-0.163-0.088-0.219c-0.057-0.056-0.135-0.089-0.22-0.089
			c-0.075,0-0.146,0.026-0.198,0.07c-0.052,0.042-0.09,0.101-0.104,0.172l-0.767-0.161c0.055-0.253,0.195-0.467,0.383-0.621
			c0.189-0.151,0.429-0.244,0.687-0.244c0.301,0,0.573,0.123,0.77,0.322c0.201,0.198,0.323,0.47,0.323,0.771
			c0,0.245-0.08,0.471-0.212,0.651c0.006,0.007,0.017,0.014,0.025,0.022c0.236,0.226,0.382,0.543,0.382,0.891
			c0,0.351-0.146,0.667-0.382,0.894c-0.234,0.225-0.555,0.363-0.905,0.363c-0.291,0-0.566-0.096-0.787-0.264
			c-0.223-0.168-0.388-0.405-0.461-0.688l0.758-0.194c0.025,0.103,0.09,0.192,0.176,0.257c0.086,0.065,0.197,0.103,0.316,0.103
			c0.144,0,0.273-0.057,0.362-0.143c0.091-0.085,0.145-0.202,0.145-0.331c0.005-0.374-0.33-0.711-0.935-0.74l0.163-0.316
			c0.403-0.075,0.577-0.286,0.577-0.513L42.934,60.224z"/>
		<path fill="#E1001D" d="M46.905,59.158l-1.218,3.856h-0.81l0.965-3.103h-0.865v0.4h-0.775v-1.154H46.905z"/>
	</g>
	<g>
		<path fill="#E1001D" d="M35.275,19.565l-0.833-2.94l1.065-0.302l1.537,5.417l-4.053-2.137l0.835,2.943l-1.066,0.303l-1.536-5.418
			L35.275,19.565z"/>
		<path fill="#E1001D" d="M36.637,16.194l1.097-0.155l0.775,5.477l-1.097,0.156L36.637,16.194z"/>
		<path fill="#E1001D" d="M41.58,19.431l2.76-3.654l-0.096,5.634l-1.108-0.018l0.04-2.282l-1.626,2.167l-1.553-2.219l-0.038,2.282
			l-1.107-0.018l0.093-5.634L41.58,19.431z"/>
		<path fill="#E1001D" d="M48.957,16.83l-0.232,1.08l-2.159-0.464l-0.231,1.083l1.62,0.349l-0.234,1.08l-1.62-0.348l-0.229,1.08
			l2.159,0.464l-0.233,1.084l-2.16-0.466l-1.083-0.232l1.163-5.406L48.957,16.83z"/>
		<path fill="#E1001D" d="M50.031,21.9c0.286,0.11,0.613-0.035,0.726-0.319c0.084-0.22,0.052-0.395-0.1-0.527
			c-0.316-0.282-0.242-0.215-0.554-0.479c-0.33-0.278-0.579-0.674-0.692-1.089c-0.066-0.246-0.045-0.51,0.065-0.794
			c0.165-0.429,0.461-0.737,0.887-0.925c0.427-0.188,0.853-0.199,1.285-0.032c0.428,0.165,0.737,0.462,0.925,0.887
			c0.189,0.426,0.2,0.854,0.034,1.282l-1.04-0.402c0.108-0.282-0.036-0.61-0.316-0.719c-0.284-0.11-0.615,0.034-0.724,0.319
			c-0.073,0.186-0.053,0.354,0.061,0.51c0.229,0.316,0.21,0.264,0.535,0.516c0.354,0.269,0.615,0.654,0.738,1.066
			c0.072,0.242,0.052,0.509-0.06,0.801c-0.167,0.432-0.464,0.74-0.89,0.928c-0.427,0.189-0.853,0.2-1.281,0.034
			c-0.432-0.168-0.739-0.464-0.929-0.89c-0.187-0.426-0.2-0.853-0.031-1.285l1.042,0.404c-0.11,0.288,0.032,0.611,0.32,0.723
			L50.031,21.9z"/>
	</g>
	<g>
		<path fill="#E1001D" d="M32.209,25.727c0.358,0.357,0.537,0.786,0.537,1.287s-0.178,0.929-0.537,1.285
			c-0.356,0.355-0.786,0.534-1.286,0.534c-0.501,0-0.93-0.179-1.286-0.534c-0.355-0.355-0.533-0.784-0.533-1.285
			s0.178-0.93,0.533-1.287c0.356-0.358,0.784-0.537,1.286-0.537C31.424,25.19,31.853,25.369,32.209,25.727z M30.152,26.238
			c-0.213,0.215-0.319,0.472-0.319,0.771c0,0.301,0.106,0.559,0.319,0.771c0.212,0.212,0.469,0.32,0.771,0.32
			c0.298,0,0.555-0.107,0.77-0.32c0.214-0.212,0.322-0.469,0.322-0.771c0-0.299-0.107-0.557-0.322-0.771
			c-0.214-0.214-0.471-0.321-0.77-0.321C30.622,25.917,30.365,26.023,30.152,26.238z"/>
		<path fill="#E1001D" d="M33.731,25.208v2.879h1.438v0.722h-2.16v-3.601H33.731z"/>
		<path fill="#E1001D" d="M35.496,25.208l0.622,1.142l0.621-1.142h0.82l-1.082,1.986v1.614h-0.72v-1.614l-1.079-1.986H35.496z"/>
		<path fill="#E1001D" d="M39.582,27.549l1.756-2.408v3.667h-0.722v-1.485l-1.034,1.428l-1.034-1.428v1.485h-0.722v-3.667
			L39.582,27.549z"/>
		<path fill="#E1001D" d="M41.695,27.729v-1.261v-1.26h0.721h0.538c0.346,0,0.646,0.123,0.892,0.371
			c0.247,0.249,0.373,0.545,0.373,0.892c0,0.346-0.126,0.643-0.373,0.889c-0.246,0.246-0.546,0.369-0.892,0.369h-0.538v1.08h-0.721
			V27.729z M42.954,27.011c0.151,0,0.279-0.054,0.383-0.159c0.106-0.104,0.159-0.232,0.159-0.381c0-0.147-0.053-0.275-0.159-0.382
			c-0.104-0.107-0.231-0.16-0.383-0.16h-0.538v0.54v0.541L42.954,27.011z"/>
		<path fill="#E1001D" d="M44.53,25.208h0.722v3.601H44.53V25.208z"/>
		<path fill="#E1001D" d="M47.332,25.192c0.5,0,0.929,0.179,1.287,0.536c0.357,0.358,0.535,0.787,0.535,1.287
			c0,0.366-0.101,0.7-0.302,1.001l0.31,0.306l-0.515,0.512l-0.308-0.304c-0.306,0.2-0.638,0.301-1.002,0.301
			c-0.499,0-0.929-0.179-1.284-0.534c-0.354-0.355-0.533-0.784-0.533-1.285s0.18-0.93,0.533-1.287
			c0.355-0.358,0.785-0.537,1.284-0.537L47.332,25.192z M47.842,27.009l0.477,0.472c0.069-0.148,0.105-0.304,0.105-0.47
			c0-0.3-0.105-0.556-0.322-0.77c-0.212-0.215-0.47-0.322-0.77-0.322c-0.301,0-0.559,0.107-0.771,0.322
			c-0.211,0.214-0.32,0.47-0.32,0.77c0,0.302,0.109,0.559,0.32,0.771c0.213,0.212,0.471,0.319,0.771,0.319
			c0.164,0,0.321-0.036,0.471-0.107l-0.473-0.472L47.842,27.009z"/>
		<path fill="#E1001D" d="M52.326,25.208v1.448v0.724c0,0.399-0.14,0.741-0.424,1.025c-0.283,0.284-0.626,0.424-1.023,0.424
			c-0.4,0-0.741-0.141-1.024-0.424c-0.284-0.284-0.424-0.626-0.424-1.025v-0.724v-1.448h0.725v1.448v0.647v0.074
			c0,0.199,0.07,0.368,0.213,0.509c0.142,0.141,0.311,0.213,0.508,0.213s0.369-0.072,0.509-0.213
			c0.144-0.141,0.217-0.311,0.217-0.509v-0.074v-0.647v-1.448H52.326z"/>
		<path fill="#E1001D" d="M54.843,25.208v0.72h-1.438v0.722h1.076v0.719h-1.076v0.718h1.438v0.722h-1.438h-0.722v-3.601H54.843z"/>
	</g>
	<g>
		<path fill="#18471E" d="M24.912,23.951c0,0,0.616-2.975,3.775-2.796C28.687,21.155,28.058,24.135,24.912,23.951z"/>
		<path fill="#18471E" d="M23.913,24.743c0,0-0.763-1.603,0.743-2.775C24.656,21.968,25.415,23.579,23.913,24.743z"/>
		<path fill="#18471E" d="M23.615,25.343c0,0,1.622-1.14,3.08,0.533C26.695,25.876,25.065,27.011,23.615,25.343z"/>
		<path fill="#18471E" d="M21.147,28.464c0,0,1.778-1.736,3.876,0.012C25.023,28.476,23.233,30.208,21.147,28.464z"/>
		<path fill="#18471E" d="M21.494,27.974c0,0-1.218-1.721,0.327-3.44C21.821,24.534,23.035,26.265,21.494,27.974z"/>
		<path fill="#18471E" d="M19.444,31.511c0,0-1.584-1.525-0.306-3.634C19.138,27.877,20.721,29.414,19.444,31.511z"/>
		<path fill="#18471E" d="M18.322,35.79c0,0-2.249-1.5-1.116-4.373C17.206,31.417,19.454,32.931,18.322,35.79z"/>
		<path fill="#18471E" d="M18.111,40.042c0,0-2.86-0.871-2.483-4.34C15.628,35.702,18.493,36.587,18.111,40.042z"/>
		<path fill="#18471E" d="M19.382,32.311c0,0,1.141-2.402,3.806-1.511C23.188,30.799,22.035,33.201,19.382,32.311z"/>
		<path fill="#18471E" d="M18.424,36.273c0,0,0.745-2.972,3.923-2.644C22.347,33.629,21.59,36.605,18.424,36.273z"/>
		<path fill="#18471E" d="M18.494,40.577c0,0-0.027-2.857,2.896-3.401C21.39,37.176,21.406,40.041,18.494,40.577z"/>
		<path fill="#18471E" d="M18.599,44.597c0,0-3.253-0.454-3.371-4.304C15.228,40.293,18.488,40.764,18.599,44.597z"/>
		<path fill="#18471E" d="M19.164,44.836c0,0-0.633-3.078,2.408-4.362C21.572,40.474,22.194,43.563,19.164,44.836z"/>
		<path fill="#18471E" d="M19.863,48.722c0,0-3.272,0.264-4.129-3.479C15.734,45.242,19.015,44.994,19.863,48.722z"/>
		<path fill="#18471E" d="M20.485,48.74c0,0-1.201-2.88,1.533-4.789C22.018,43.951,23.212,46.845,20.485,48.74z"/>
		<path fill="#18471E" d="M21.913,52.501c0,0-3.21,1.163-4.979-2.344C16.934,50.157,20.156,49.003,21.913,52.501z"/>
		<path fill="#18471E" d="M22.465,52.208c0,0-1.924-2.879,0.684-5.626C23.149,46.582,25.065,49.48,22.465,52.208z"/>
		<path fill="#18471E" d="M24.798,55.457c0,0-2.953,2.517-6.063-0.449C18.735,55.008,21.705,52.496,24.798,55.457z"/>
		<path fill="#18471E" d="M25.083,55.234c0,0-2.728-2.674-0.479-6.31C24.604,48.925,27.327,51.615,25.083,55.234z"/>
		<path fill="#18471E" d="M28.242,57.389c0,0-2.305,3.19-5.989,1.094C22.253,58.482,24.576,55.294,28.242,57.389z"/>
		<path fill="#18471E" d="M28.469,57.098c0,0-3.247-1.905-1.876-6.007C26.592,51.091,29.84,53.017,28.469,57.098z"/>
		<path fill="#18471E" d="M31.374,59.144c0,0-2.097,3.351-5.905,1.523C25.468,60.667,27.583,57.316,31.374,59.144z"/>
		<path fill="#18471E" d="M31.581,58.839c0,0-3.361-1.668-2.255-5.857C29.326,52.981,32.688,54.668,31.581,58.839z"/>
		<path fill="#18471E" d="M35.597,59.75c0,0-1.769,4.092-6.277,2.778C29.32,62.528,31.107,58.434,35.597,59.75z"/>
		<path fill="#18471E" d="M35.775,59.377c0,0-3.988-1.223-3.451-6.059C32.324,53.318,36.315,54.562,35.775,59.377z"/>
	</g>
	<g>
		<path fill="#18471E" d="M58.979,23.951c0,0-0.615-2.975-3.777-2.796C55.201,21.155,55.833,24.135,58.979,23.951z"/>
		<path fill="#18471E" d="M59.978,24.743c0,0,0.762-1.603-0.743-2.775C59.234,21.968,58.474,23.579,59.978,24.743z"/>
		<path fill="#18471E" d="M60.276,25.343c0,0-1.622-1.14-3.083,0.533C57.193,25.876,58.822,27.011,60.276,25.343z"/>
		<path fill="#18471E" d="M62.743,28.464c0,0-1.778-1.736-3.875,0.012C58.868,28.476,60.655,30.208,62.743,28.464z"/>
		<path fill="#18471E" d="M62.395,27.974c0,0,1.219-1.721-0.324-3.44C62.07,24.534,60.853,26.265,62.395,27.974z"/>
		<path fill="#18471E" d="M64.446,31.511c0,0,1.583-1.525,0.306-3.634C64.752,27.877,63.17,29.414,64.446,31.511z"/>
		<path fill="#18471E" d="M65.568,35.79c0,0,2.249-1.5,1.115-4.373C66.684,31.417,64.436,32.931,65.568,35.79z"/>
		<path fill="#18471E" d="M65.776,40.042c0,0,2.862-0.871,2.485-4.34C68.262,35.702,65.395,36.587,65.776,40.042z"/>
		<path fill="#18471E" d="M64.509,32.311c0,0-1.143-2.402-3.807-1.511C60.702,30.799,61.857,33.201,64.509,32.311z"/>
		<path fill="#18471E" d="M65.465,36.273c0,0-0.743-2.972-3.92-2.644C61.545,33.629,62.301,36.605,65.465,36.273z"/>
		<path fill="#18471E" d="M65.395,40.577c0,0,0.028-2.857-2.894-3.401C62.501,37.176,62.483,40.041,65.395,40.577z"/>
		<path fill="#18471E" d="M65.291,44.597c0,0,3.251-0.454,3.371-4.304C68.662,40.293,65.402,40.764,65.291,44.597z"/>
		<path fill="#18471E" d="M64.726,44.836c0,0,0.633-3.078-2.406-4.362C62.319,40.474,61.695,43.563,64.726,44.836z"/>
		<path fill="#18471E" d="M64.027,48.722c0,0,3.27,0.264,4.128-3.479C68.155,45.242,64.875,44.994,64.027,48.722z"/>
		<path fill="#18471E" d="M63.404,48.74c0,0,1.202-2.88-1.532-4.789C61.872,43.951,60.677,46.845,63.404,48.74z"/>
		<path fill="#18471E" d="M61.977,52.501c0,0,3.21,1.163,4.98-2.344C66.957,50.157,63.733,49.003,61.977,52.501z"/>
		<path fill="#18471E" d="M61.425,52.208c0,0,1.924-2.879-0.684-5.626C60.741,46.582,58.822,49.48,61.425,52.208z"/>
		<path fill="#18471E" d="M59.094,55.457c0,0,2.949,2.517,6.062-0.449C65.155,55.008,62.184,52.496,59.094,55.457z"/>
		<path fill="#18471E" d="M58.808,55.234c0,0,2.727-2.674,0.479-6.31C59.286,48.925,56.563,51.615,58.808,55.234z"/>
		<path fill="#18471E" d="M55.646,57.389c0,0,2.305,3.19,5.989,1.094C61.636,58.482,59.313,55.294,55.646,57.389z"/>
		<path fill="#18471E" d="M55.42,57.098c0,0,3.247-1.905,1.877-6.007C57.297,51.091,54.05,53.017,55.42,57.098z"/>
		<path fill="#18471E" d="M52.516,59.144c0,0,2.095,3.351,5.906,1.523C58.422,60.667,56.307,57.316,52.516,59.144z"/>
		<path fill="#18471E" d="M52.309,58.839c0,0,3.361-1.668,2.253-5.857C54.562,52.981,51.201,54.668,52.309,58.839z"/>
		<path fill="#18471E" d="M48.294,59.75c0,0,1.768,4.092,6.276,2.778C54.57,62.528,52.781,58.434,48.294,59.75z"/>
		<path fill="#18471E" d="M48.115,59.377c0,0,3.987-1.223,3.452-6.059C51.567,53.318,47.574,54.562,48.115,59.377z"/>
	</g>
	<g>
		<path fill="#981422" d="M43.363,41.295c0.098-0.188-0.658-0.267-0.849-0.181c0.074,0.208,0.313,0.64,0.026,0.64
			c-0.237-0.001-0.641-0.293-0.877-0.243c0.286,0.292,0.369,0.452,0.193,0.767c-0.172-0.057-0.945-0.169-0.789-0.055
			c0.266,0.193,0.213,0.444,0.281,0.641C41.35,42.863,43.105,41.783,43.363,41.295z"/>
		<g>
			<path fill="#FFFFFF" d="M35.354,45.476c0.167-0.15-0.396-0.37-0.599-0.433c-0.056,0.154-0.01,0.479,0.013,0.673
				C34.768,45.716,34.95,45.839,35.354,45.476z"/>
			<g>
				<path fill="#D5232A" d="M35.492,45.556c0.232-0.372-0.45-0.586-0.694-0.666c-0.079-0.026-0.179,0.029-0.196,0.111
					c-0.042,0.209-0.128,0.773,0.13,0.872c0.268,0.102,0.545-0.13,0.735-0.285c0.159-0.13-0.068-0.354-0.226-0.225
					c-0.081,0.066-0.266,0.238-0.404,0.211c0.125,0.024,0.046-0.367,0.071-0.489c-0.065,0.037-0.13,0.074-0.196,0.111
					c0.058,0.02,0.492,0.219,0.504,0.199C35.108,45.57,35.384,45.729,35.492,45.556z"/>
			</g>
		</g>
		<g>
			<path fill="#FFFFFF" d="M36.499,44.877c-0.224-0.123-0.427-0.253-0.638-0.405c-0.057,0.223-0.079,0.479-0.089,0.707
				L36.499,44.877z"/>
			<g>
				<path fill="#D5232A" d="M36.58,44.739c-0.221-0.124-0.432-0.259-0.638-0.405c-0.082-0.058-0.214,0-0.234,0.096
					c-0.053,0.25-0.08,0.494-0.095,0.749c-0.005,0.095,0.107,0.192,0.202,0.153c0.242-0.101,0.484-0.201,0.727-0.302
					c0.187-0.077,0.105-0.386-0.085-0.307c-0.242,0.101-0.484,0.201-0.727,0.302c0.067,0.051,0.135,0.103,0.202,0.153
					c0.013-0.225,0.037-0.444,0.083-0.665c-0.078,0.032-0.156,0.063-0.234,0.096c0.207,0.146,0.418,0.28,0.638,0.405
					C36.598,45.115,36.758,44.841,36.58,44.739z"/>
			</g>
		</g>
		<path fill="#981422" d="M41.33,42.903c0.014-0.111-0.35,0.01-0.604-0.556c-0.152,0.143-0.08,0.436-0.198,0.613
			c-0.15-0.105-0.374-0.27-0.503-0.384c-0.077,0.203,0.086,0.431-0.033,0.54c-0.177,0.198-0.147,0.079-0.311,0
			c-0.236-0.097-0.213-0.389-0.327-0.13c-0.05,0.114-0.083,0.384-0.147,0.521c-0.189-0.092-0.327-0.293-0.444-0.429
			c-0.296,0.375-0.524,1.131-1.063,0.623c-0.105,0.082-0.217,0.21-0.316,0.313c-0.097-0.146-0.233-0.275-0.363-0.389
			c-0.224,0.259-0.353,0.597-0.339,0.952C36.681,44.578,41.243,43.563,41.33,42.903z"/>
		<path fill="#981422" d="M29.462,47.215c0,0,1.244-0.18,1.839-0.458c0,0,2.234-1.026,2.99-0.798c0,0,2.009-0.815,3.294-1.576
			c0,0,3.614-1.536,4.168-1.89c0,0,2.352-1.327,2.37-2.427c0,0,1.794,0.712,2.845,0.454c0,0,2.88-0.366,5.193,1.092l1.063,0.468
			l-1.641,0.351c0,0-2.977,0.369-4.076,1.195c0,0-1.676,1.842-2.744,1.981c0,0-1.057,0.429-2.886,0.479c0,0-2.282,0.296-3.917,0.896
			c0,0-1.126,0.51-2.485,0.36c0,0-1.619,0.001-2.369,0.303c0,0-1.65,0.62-2.737,0.281C30.371,47.927,29.516,48.077,29.462,47.215z"
			/>
		<g>
			<circle fill="#FFFFFF" cx="32.713" cy="41.378" r="6.483"/>
			<path fill="#292B2C" d="M38.79,38.793c-0.382-0.893-0.922-1.619-1.487-2.166c-0.564-0.55-1.153-0.921-1.657-1.171
				c-0.507-0.251-0.933-0.383-1.227-0.46c-0.146-0.042-0.258-0.062-0.334-0.08c-0.076-0.017-0.115-0.025-0.115-0.025h0l-0.118-0.02
				c-0.078-0.011-0.19-0.037-0.341-0.051c-0.299-0.039-0.745-0.076-1.309-0.031c-0.562,0.043-1.246,0.167-1.975,0.468
				c-0.728,0.296-1.5,0.768-2.188,1.454c-0.342,0.343-0.661,0.74-0.938,1.183c-0.278,0.443-0.505,0.939-0.676,1.469
				c-0.044,0.132-0.079,0.271-0.115,0.406c-0.017,0.067-0.032,0.136-0.047,0.204l-0.023,0.103l-0.019,0.107
				c-0.012,0.071-0.024,0.141-0.037,0.212c-0.011,0.069-0.018,0.142-0.027,0.215c-0.021,0.143-0.027,0.287-0.039,0.434
				c-0.011,0.292-0.014,0.59,0.016,0.888c0.008,0.147,0.033,0.298,0.051,0.447c0.013,0.075,0.026,0.15,0.04,0.223
				c0.011,0.075,0.028,0.15,0.046,0.223c0.264,1.189,0.883,2.344,1.794,3.249c0.906,0.908,2.104,1.553,3.387,1.803
				c0.323,0.058,0.647,0.099,0.973,0.111c0.326,0.01,0.652,0.004,0.976-0.032c0.322-0.039,0.644-0.093,0.956-0.176
				c0.312-0.084,0.618-0.185,0.913-0.312c1.183-0.499,2.188-1.338,2.876-2.343c0.045-0.061,0.087-0.123,0.127-0.188l0.119-0.192
				c0.073-0.132,0.15-0.26,0.214-0.396c0.138-0.268,0.248-0.544,0.346-0.817c0.043-0.14,0.092-0.277,0.126-0.418
				c0.018-0.071,0.04-0.141,0.055-0.211c0.015-0.069,0.031-0.14,0.045-0.208c0.033-0.14,0.048-0.279,0.073-0.42
				c0.016-0.141,0.036-0.278,0.044-0.417c0.04-0.556,0.014-1.102-0.078-1.617C39.127,39.727,38.979,39.24,38.79,38.793z
				 M31.133,35.085c0.39-0.099,0.755-0.153,1.079-0.18c0.553-0.045,0.991-0.011,1.286,0.027c0.147,0.013,0.26,0.039,0.335,0.049
				C33.908,34.994,33.947,35,33.947,35c0.004,0.001,0.044,0.009,0.114,0.025c0.056,0.014,0.135,0.027,0.23,0.053
				c0.245,0.115,0.625,0.315,1.051,0.607c-0.024,0.009-0.051,0.02-0.078,0.032c-0.062,0.029-0.134,0.058-0.208,0.098
				c-0.075,0.038-0.152,0.085-0.228,0.133c-0.039,0.022-0.075,0.05-0.111,0.074c-0.036,0.026-0.071,0.05-0.104,0.078
				c-0.033,0.027-0.065,0.051-0.096,0.076c-0.03,0.026-0.058,0.051-0.083,0.073c-0.052,0.045-0.088,0.084-0.116,0.112
				c-0.01,0.01-0.018,0.017-0.025,0.024c-0.607-0.128-1.83-0.13-2.535-0.041c-0.043-0.023-0.098-0.051-0.162-0.083
				c-0.082-0.042-0.177-0.094-0.281-0.143c-0.104-0.05-0.214-0.103-0.326-0.156c-0.22-0.107-0.448-0.205-0.616-0.282
				c-0.052-0.021-0.099-0.04-0.139-0.056C30.406,35.449,30.687,35.287,31.133,35.085z M33.052,40.027c0,0.004,0,0.005,0,0.01
				c0,0.023,0.002,0.058,0.004,0.101c0.002,0.088,0.007,0.214,0.016,0.364c0.009,0.148,0.025,0.325,0.034,0.511
				c0.01,0.188,0.017,0.387,0.022,0.586c0.005,0.197,0.001,0.398,0.001,0.585c-0.001,0.094-0.002,0.186-0.003,0.271
				c-0.003,0.085-0.002,0.167-0.007,0.24c-0.011,0.181-0.019,0.323-0.025,0.409c-0.454,0.271-1.714,0.976-2.167,1.227
				c-0.013-0.005-0.027-0.011-0.045-0.017c-0.076-0.029-0.187-0.069-0.319-0.122c-0.067-0.023-0.136-0.058-0.209-0.093
				c-0.073-0.034-0.15-0.072-0.23-0.111c-0.039-0.019-0.08-0.038-0.121-0.06c-0.04-0.021-0.081-0.044-0.12-0.067
				c-0.082-0.048-0.164-0.094-0.246-0.142c-0.083-0.044-0.162-0.098-0.241-0.146c-0.078-0.053-0.156-0.103-0.228-0.151
				c-0.146-0.104-0.282-0.2-0.39-0.289c-0.113-0.088-0.203-0.167-0.263-0.221c-0.006-0.005-0.01-0.01-0.015-0.013
				c-0.161-1.229-0.085-2.286-0.055-2.693c0.014-0.01,0.027-0.022,0.044-0.036c0.063-0.05,0.153-0.124,0.267-0.208
				c0.112-0.085,0.247-0.178,0.392-0.277c0.073-0.05,0.149-0.099,0.228-0.148c0.078-0.049,0.156-0.101,0.236-0.148
				c0.082-0.047,0.162-0.094,0.242-0.139c0.08-0.046,0.159-0.093,0.238-0.131c0.078-0.039,0.153-0.077,0.226-0.114
				c0.072-0.033,0.139-0.069,0.204-0.097c0.128-0.054,0.237-0.096,0.313-0.125C31.227,39.052,32.442,39.74,33.052,40.027z
				 M27.735,37.41c0.034-0.064,0.065-0.126,0.095-0.183c0.022-0.044,0.049-0.083,0.072-0.119c0.461-0.392,1.257-0.993,2.197-1.39
				c0.048,0.021,0.125,0.056,0.219,0.099c0.162,0.083,0.379,0.187,0.595,0.303c0.107,0.057,0.214,0.114,0.316,0.167
				c0.101,0.053,0.192,0.107,0.271,0.151c0.015,0.008,0.028,0.015,0.041,0.022c-0.268,0.497-0.608,1.588-0.745,2.043
				c-0.018,0.011-0.042,0.025-0.071,0.041c-0.073,0.042-0.176,0.102-0.302,0.169c-0.063,0.035-0.127,0.077-0.199,0.118
				c-0.069,0.042-0.144,0.085-0.22,0.13c-0.078,0.043-0.153,0.096-0.234,0.144c-0.079,0.049-0.16,0.099-0.24,0.148
				c-0.159,0.103-0.319,0.203-0.468,0.299c-0.149,0.096-0.288,0.186-0.407,0.264c-0.113,0.072-0.207,0.132-0.276,0.177
				c-0.203-0.151-0.725-0.488-1.183-0.696c0.003-0.037,0.008-0.083,0.015-0.134c0.009-0.052,0.018-0.108,0.028-0.171
				c0.01-0.063,0.02-0.131,0.036-0.203c0.016-0.071,0.031-0.147,0.047-0.225c0.02-0.077,0.042-0.157,0.064-0.237
				c0.011-0.041,0.022-0.082,0.032-0.123l0.042-0.121c0.028-0.08,0.052-0.163,0.082-0.241c0.032-0.077,0.064-0.153,0.095-0.226
				C27.665,37.543,27.701,37.474,27.735,37.41z M26.298,41.053c0.009-0.14,0.014-0.283,0.032-0.423
				c0.008-0.069,0.015-0.139,0.024-0.208c0.011-0.069,0.022-0.138,0.034-0.207l0.017-0.101l0.023-0.103
				c0.014-0.069,0.029-0.137,0.043-0.205c0.036-0.133,0.067-0.265,0.109-0.394c0.162-0.519,0.379-1.004,0.647-1.44
				c0.117-0.192,0.237-0.368,0.361-0.533c-0.021,0.041-0.043,0.083-0.062,0.128c-0.034,0.075-0.067,0.152-0.104,0.23
				c-0.033,0.079-0.06,0.161-0.091,0.243l-0.043,0.124c-0.013,0.041-0.025,0.082-0.038,0.124c-0.024,0.081-0.049,0.162-0.071,0.242
				c-0.019,0.079-0.038,0.156-0.055,0.228c-0.019,0.074-0.03,0.144-0.042,0.208c-0.013,0.065-0.024,0.124-0.034,0.176
				c-0.007,0.051-0.013,0.097-0.019,0.135c-0.004,0.027-0.006,0.048-0.01,0.065c-0.425,0.641-0.637,1.415-0.725,1.828
				C26.296,41.131,26.297,41.093,26.298,41.053z M26.463,42.782c-0.018-0.07-0.034-0.144-0.047-0.217
				c-0.014-0.072-0.027-0.144-0.041-0.216c-0.019-0.145-0.044-0.29-0.054-0.435c-0.004-0.027-0.005-0.056-0.006-0.082
				c0.179,0.741,0.54,1.507,0.72,1.836c0.002,0.014,0.003,0.036,0.008,0.066c0.006,0.058,0.021,0.139,0.037,0.234
				c0.009,0.048,0.021,0.1,0.034,0.152c0.013,0.055,0.023,0.113,0.042,0.171c0.018,0.057,0.035,0.118,0.053,0.179
				c0.017,0.062,0.039,0.122,0.062,0.183c0.018,0.049,0.035,0.095,0.053,0.144C26.919,44.173,26.628,43.483,26.463,42.782z
				 M30.054,47.146c-0.107-0.047-0.213-0.097-0.317-0.152c-0.275-0.145-0.543-0.306-0.794-0.489c-0.25-0.186-0.491-0.383-0.711-0.6
				c-0.164-0.159-0.318-0.327-0.463-0.502c-0.024-0.044-0.056-0.099-0.092-0.162c-0.024-0.042-0.05-0.084-0.07-0.136
				c-0.022-0.049-0.046-0.1-0.07-0.153c-0.023-0.054-0.053-0.106-0.072-0.166c-0.021-0.06-0.042-0.117-0.064-0.177
				c-0.022-0.06-0.043-0.116-0.059-0.178c-0.017-0.06-0.034-0.118-0.049-0.173c-0.017-0.059-0.026-0.114-0.039-0.166
				c-0.011-0.053-0.024-0.102-0.031-0.149c-0.015-0.091-0.027-0.165-0.032-0.218c0.234-0.142,0.731-0.394,1.2-0.63
				c0.069,0.048,0.166,0.11,0.281,0.184c0.119,0.083,0.261,0.17,0.41,0.272c0.076,0.048,0.154,0.099,0.233,0.151
				c0.079,0.052,0.158,0.106,0.24,0.155c0.081,0.052,0.163,0.102,0.243,0.154c0.039,0.024,0.079,0.048,0.118,0.074
				c0.039,0.023,0.079,0.047,0.117,0.069c0.078,0.046,0.153,0.093,0.224,0.133c0.072,0.043,0.138,0.088,0.203,0.12
				c0.126,0.07,0.231,0.13,0.306,0.172c0.019,0.011,0.034,0.021,0.047,0.028c0.195,0.738,0.553,1.511,0.762,1.94
				c-0.066,0.045-0.462,0.22-0.518,0.239c-0.056,0.022-0.112,0.044-0.168,0.063c-0.112,0.044-0.226,0.087-0.331,0.127
				c-0.053,0.021-0.104,0.036-0.154,0.053c-0.048,0.017-0.094,0.033-0.137,0.047c-0.085,0.029-0.156,0.054-0.208,0.067
				C30.056,47.146,30.055,47.146,30.054,47.146z M35.178,47.251c-1.143,0.475-2.444,0.604-3.673,0.355
				c-0.148-0.033-0.314-0.063-0.46-0.106c-0.15-0.036-0.298-0.086-0.447-0.134c-0.109-0.04-0.217-0.082-0.324-0.125
				c0.012-0.003,0.023-0.01,0.036-0.012c0.044-0.013,0.091-0.029,0.142-0.045c0.05-0.018,0.103-0.032,0.156-0.052
				c0.108-0.038,0.222-0.08,0.337-0.121c0.057-0.021,0.115-0.043,0.17-0.063c0.058-0.02,0.111-0.046,0.164-0.066
				c0.105-0.044,0.204-0.086,0.288-0.123c0.068-0.027,0.125-0.054,0.171-0.072c0.519,0.097,1.962,0.065,2.629-0.07
				c0.033,0.021,0.078,0.05,0.132,0.083c0.061,0.034,0.131,0.076,0.207,0.12c0.038,0.021,0.077,0.044,0.118,0.064
				c0.042,0.021,0.083,0.041,0.125,0.061c0.042,0.022,0.083,0.044,0.124,0.062c0.042,0.021,0.081,0.043,0.123,0.06
				c0.078,0.032,0.15,0.06,0.214,0.085C35.333,47.186,35.256,47.219,35.178,47.251z M38.577,43.98
				c-0.042,0.097-0.088,0.189-0.137,0.283c-0.064,0.13-0.141,0.256-0.212,0.38l-0.12,0.188c-0.039,0.062-0.08,0.123-0.124,0.184
				c-0.413,0.588-0.939,1.116-1.547,1.545c-0.642,0.423-0.881,0.465-0.962,0.457l0,0c-0.063-0.026-0.135-0.06-0.212-0.094
				c-0.039-0.018-0.076-0.041-0.115-0.062c-0.039-0.022-0.08-0.043-0.119-0.065c-0.039-0.021-0.079-0.044-0.119-0.064
				c-0.04-0.021-0.075-0.048-0.112-0.069c-0.072-0.046-0.138-0.087-0.195-0.123c-0.022-0.017-0.042-0.029-0.061-0.042
				c0.534-0.804,0.757-1.468,0.914-2.041c0.02-0.008,0.044-0.021,0.076-0.033c0.036-0.018,0.08-0.038,0.131-0.06
				c0.05-0.026,0.107-0.054,0.169-0.087c0.062-0.034,0.131-0.065,0.198-0.106c0.068-0.04,0.14-0.083,0.214-0.128
				c0.075-0.043,0.148-0.092,0.225-0.143c0.076-0.049,0.154-0.099,0.228-0.153c0.074-0.054,0.149-0.107,0.222-0.16
				c0.073-0.055,0.141-0.113,0.209-0.167c0.066-0.055,0.133-0.104,0.191-0.159c0.058-0.053,0.114-0.104,0.165-0.15
				c0.052-0.045,0.096-0.093,0.135-0.135c0.001-0.001,0.002-0.002,0.004-0.005c0.184,0.135,0.731,0.529,0.999,0.723
				C38.633,43.727,38.644,43.792,38.577,43.98z M37.594,42.783c-0.025,0.025-0.052,0.054-0.083,0.087
				c-0.038,0.04-0.081,0.083-0.133,0.128c-0.05,0.045-0.104,0.094-0.162,0.146c-0.056,0.053-0.122,0.102-0.188,0.153
				c-0.066,0.053-0.135,0.106-0.206,0.16c-0.072,0.051-0.146,0.104-0.22,0.154c-0.073,0.053-0.149,0.103-0.224,0.146
				c-0.076,0.048-0.147,0.098-0.221,0.14c-0.073,0.042-0.144,0.082-0.211,0.12c-0.067,0.041-0.132,0.069-0.191,0.102
				c-0.059,0.027-0.114,0.057-0.162,0.08c-0.051,0.023-0.095,0.041-0.132,0.056c-0.022,0.011-0.042,0.02-0.058,0.027
				c-0.339-0.199-1.528-0.899-2.044-1.183c0.001-0.09,0.004-0.229,0.006-0.397c0.003-0.079,0-0.157,0-0.245
				c0-0.086,0-0.179-0.002-0.271c-0.001-0.188,0.001-0.391-0.006-0.591c-0.003-0.202-0.003-0.403,0-0.594
				c0.001-0.093,0.002-0.185,0-0.271c-0.002-0.085-0.005-0.167-0.006-0.242c-0.004-0.15-0.011-0.275-0.017-0.363
				c-0.001-0.022-0.002-0.042-0.003-0.059c0.403-0.217,1.527-0.91,2.068-1.33c0.02,0.008,0.041,0.017,0.063,0.027
				c0.049,0.022,0.104,0.044,0.163,0.077c0.059,0.03,0.122,0.063,0.188,0.099c0.067,0.034,0.138,0.072,0.209,0.116
				c0.072,0.042,0.145,0.084,0.22,0.13c0.075,0.044,0.149,0.093,0.225,0.14c0.151,0.094,0.298,0.195,0.436,0.288
				c0.069,0.046,0.134,0.094,0.197,0.138c0.063,0.044,0.122,0.084,0.175,0.125c0.153,0.111,0.269,0.197,0.323,0.239
				C37.756,41.083,37.714,42.151,37.594,42.783z M37.654,39.924c-0.062-0.048-0.154-0.118-0.267-0.202
				c-0.054-0.042-0.114-0.085-0.176-0.13c-0.063-0.045-0.128-0.094-0.198-0.141c-0.139-0.097-0.285-0.201-0.438-0.298
				c-0.075-0.05-0.15-0.101-0.226-0.147s-0.151-0.092-0.224-0.136c-0.072-0.045-0.143-0.085-0.212-0.122
				c-0.068-0.037-0.134-0.073-0.193-0.105c-0.059-0.034-0.117-0.059-0.168-0.082c-0.042-0.019-0.078-0.035-0.111-0.05
				c-0.225-0.667-0.617-1.538-0.981-2.025c0.026-0.028,0.059-0.068,0.102-0.108c0.021-0.021,0.046-0.045,0.072-0.07
				c0.027-0.025,0.055-0.051,0.085-0.077c0.029-0.027,0.062-0.052,0.094-0.079c0.034-0.025,0.066-0.053,0.102-0.078
				c0.069-0.049,0.139-0.098,0.209-0.137c0.067-0.043,0.135-0.075,0.19-0.105c0.058-0.029,0.107-0.048,0.142-0.063
				c0.018-0.007,0.03-0.013,0.04-0.017c0.628,0.223,1.105,0.531,1.96,1.211c0.464,0.503,0.897,1.132,1.209,1.884
				c0.018,0.043,0.036,0.088,0.053,0.132C38.47,39.293,38.021,39.655,37.654,39.924z"/>
		</g>
		<path fill="#E1001D" stroke="#FFFFFF" stroke-width="0.0534" stroke-miterlimit="10" d="M54.323,38.722l1.574,0.492
			c2.585,6.18-1.406,9.512-1.406,9.512c-2.506,2.146-5.703,2.014-5.703,2.014l-1.149-0.54c-0.697-0.596-1.809-1.228-1.809-1.228
			c-1.045-0.293-6.301,0.308-6.301,0.308c-2.063,0.492-7.364-0.547-7.364-0.547c-1.526-0.052-2.578-1.165-2.578-1.165l1.108,0.373
			c0.83,0.237,2.93-0.448,2.93-0.448c1.371-0.215,4.046-0.448,4.046-0.448c1.852-0.763,4.208-0.958,4.208-0.958
			c0.511,0.236,3.395-0.691,3.395-0.691c0.112-0.062,2.34-1.744,2.34-1.744c0.762-0.779,3.432-1.141,3.432-1.141
			c0.729-0.006,2.181-0.43,2.181-0.43c-0.309,0.141-3.177-1.364-3.177-1.364c-0.751-0.305-3.521-0.183-3.521-0.183
			c-1.156-0.001-3.874-1.429-3.874-1.429c-0.539-0.317-2.292-0.53-2.292-0.53c-0.735-0.091-3.635-1.544-3.635-1.544
			c-3.527-1.528-5.278-2.782-5.278-2.782c-1.155-1.229,0.308-1.34,0.308-1.34c3.032-0.787,4.35,0.732,4.35,0.732l1.821,0.71
			l2.511,0.388l1.997,0.473l2.424,0.186l1.955-0.077l1.715,0.24c0.472,0.097,1.356,0.961,1.356,0.961s1.39,0.68,1.455,0.721
			c0.064,0.039,1.014,1.003,1.014,1.003C52.558,38.413,54.323,38.722,54.323,38.722"/>
		<path fill="#E1001D" stroke="#FFFFFF" stroke-width="0.0534" stroke-miterlimit="10" d="M42.664,45.962
			c0.34-0.081-0.299-0.687-0.609-1.028c0.074,0.944-0.589,1.171-1.018,0.242c-0.097,0.204-0.213,0.766-0.402,0.899
			c-0.206-0.197-0.694-0.617-0.819-0.876c-0.01,0.601-0.318,1.283-0.6,1.348c-0.16,0.022-0.692-0.826-0.806-0.954
			c0.003,0.504-0.135,0.877-0.363,1.092c-0.184-0.135-0.397-0.477-0.59-0.544c-0.017,0.345-0.203,0.688-0.351,0.842
			c-0.196-0.267-0.401-0.465-0.547-0.784c-0.025,0.312-0.14,0.655-0.316,0.923c-0.143-0.119-0.578-1.053-0.652-0.84
			c-0.071,0.204-0.314,0.876-0.453,0.959c0.065-0.294-0.032-0.665-0.128-0.935c-0.269,0.196-0.431,0.69-0.75,0.839
			c-0.37,0.198-0.424-0.054-0.762-0.339c-0.179,0.737-0.51,0.64-1.119,0.076c-0.157,0.225-0.141,0.965-0.443,0.823
			c-0.285-0.132-0.391-0.524-0.578-0.764c-0.188,0.134-0.383,0.784-0.521,0.971c0,0,0.042,0.145,0.359,0.121
			c0.297-0.021,0.755-0.203,1.258-0.247c0.49-0.043,1.079-0.367,1.697-0.436c1.018-0.11,2.029,0.105,3.201-0.307
			c0.75-0.265,1.864-0.572,2.583-0.73C41.053,46.066,42.012,46.11,42.664,45.962z"/>
		<path fill="#E1001D" stroke="#FFFFFF" stroke-width="0.0534" stroke-miterlimit="10" d="M51.602,42.321
			c0.191-0.004-0.068-0.488-0.141-0.698c-0.219,0.145-0.611,0.863-0.923,0.836c-0.245-0.015-0.333-0.776-0.437-0.977
			c-0.268,0.195-0.437,0.873-0.449,1.213c-0.206-0.196-0.599-0.936-0.814-1.061c0.121,0.834-0.169,1.181-0.346,1.444
			c-0.213-0.127-0.543-0.391-0.696-0.539c-0.178,0.367-0.153,1.188-0.813,0.474c-0.055,0.324,0.318,0.992-0.025,1.079
			c-0.3,0.106-0.681-0.45-1.021-0.594c0,0.892,0.283,0.99,0.181,1.263c-0.147,0.456-0.674-0.118-1.021-0.331
			c-0.096,0.201-0.03,0.803-0.058,1.016c-0.404-0.095-0.829-1.168-1.203-1.271c0.033,0.191,0.18,1.004,0.058,1.373
			c0,0-1.082,0.675,0.436,0.129c0,0,1.549-0.339,2.075-1.067c0,0,1.609-1.51,2.551-1.71C48.955,42.899,51.273,42.322,51.602,42.321z
			"/>
		<g>
			<g>
				<path fill="#FFFFFF" d="M53.403,41.877c-1.65,0.42-3.32,0.59-4.946,1.104c-2.805,0.887-1.731,2.6-6.314,2.907
					c-3.814,0.255-9.056,2.951-12.674,1.276c-0.155-0.072-0.291,0.158-0.135,0.23c3.039,1.406,6.889,0.201,9.972-0.728
					c2.275-0.686,4.376-0.322,6.475-1.416c2.726-1.42-2.012-0.509,3.946-2.392c1.188-0.376,2.531-0.415,3.747-0.725
					C53.641,42.092,53.57,41.835,53.403,41.877L53.403,41.877z"/>
			</g>
		</g>
		<g>
			<path fill="#FFFFFF" d="M46.521,36.473c0.85,0.576,1.531,1.073,2.589,0.932C49.096,35.795,47.421,36.664,46.521,36.473"/>
		</g>
		<g>
			<g>
				<path fill="#FFFFFF" d="M29.456,47.559c2.875,3.078,9.89,1.814,13.456,1.503c4.735-0.414,9.852,0.875,12.111-4.375
					c0.067-0.156-0.162-0.292-0.23-0.135c-2.368,5.501-8.687,3.964-13.373,4.373c-3.249,0.283-9.206,1.196-11.775-1.556
					C29.527,47.243,29.339,47.433,29.456,47.559L29.456,47.559z"/>
			</g>
		</g>
		<g>
			<g>
				<path fill="#FFFFFF" d="M45.835,49.079c0.386,0.335,0.771,0.669,1.19,0.961c0.494,0.344,1.079,0.551,1.592,0.869
					c0.175,0.108,0.334-0.167,0.16-0.275c-0.471-0.292-0.979-0.509-1.46-0.784c-0.46-0.265-0.858-0.649-1.258-0.995
					C45.905,48.721,45.679,48.944,45.835,49.079L45.835,49.079z"/>
			</g>
		</g>
		<g>
			<path fill="#E1001D" stroke="#FFFFFF" stroke-width="0.0534" stroke-miterlimit="10" d="M35.416,36.442
				c-0.211,0.232-0.632,0.764-0.926,0.821c0.086-0.553,0.159-0.866-0.021-1.252L35.416,36.442z"/>
			<path fill="#E1001D" stroke="#FFFFFF" stroke-width="0.0534" stroke-miterlimit="10" d="M32.176,34.841
				c-0.287,0.146-0.742,0.576-1.063,0.623c0.296-0.542,0.327-0.704,0.359-1.084L32.176,34.841"/>
			<path fill="#E1001D" stroke="#FFFFFF" stroke-width="0.0534" stroke-miterlimit="10" d="M32.171,34.902
				c0.126,0.458,0.074,0.562-0.14,0.992c-0.125,0.254,0.542-0.417,0.801-0.575L32.171,34.902z"/>
			<path fill="#E1001D" stroke="#FFFFFF" stroke-width="0.0534" stroke-miterlimit="10" d="M34.063,35.861
				c-0.278,0.233-0.537,0.606-0.888,0.606c0.089-0.256,0.21-0.717,0.132-1.003L34.063,35.861z"/>
			<path fill="#E1001D" stroke="#FFFFFF" stroke-width="0.0534" stroke-miterlimit="10" d="M36.194,36.785
				c-0.266,0.206-0.533,0.631-0.836,0.631c0.231-0.268,0.119-0.681,0.103-0.921L36.194,36.785z"/>
			<path fill="#E1001D" stroke="#FFFFFF" stroke-width="0.0534" stroke-miterlimit="10" d="M36.985,37.152
				c-0.241,0.487-0.703,0.857-0.66,0.616c0.034-0.193,0.174-0.381,0.018-0.837L36.985,37.152z"/>
			<path fill="#E1001D" stroke="#FFFFFF" stroke-width="0.0534" stroke-miterlimit="10" d="M37.643,37.511
				c-0.052,0.108-0.457,0.705-0.439,0.563c0.027-0.231-0.051-0.548-0.102-0.756L37.643,37.511z"/>
			<path fill="#E1001D" stroke="#FFFFFF" stroke-width="0.0534" stroke-miterlimit="10" d="M39.558,38.356
				c-0.237,0.287-0.775,1.252-0.723,0.886c0.079-0.55-0.116-0.878-0.155-1.18L39.558,38.356z"/>
			<path fill="#E1001D" stroke="#FFFFFF" stroke-width="0.0534" stroke-miterlimit="10" d="M38.534,37.9
				c-0.167,0.104-0.438,0.46-0.612,0.477c0.069-0.315-0.066-0.576-0.055-0.737L38.534,37.9z"/>
			<path fill="#E1001D" stroke="#FFFFFF" stroke-width="0.0534" stroke-miterlimit="10" d="M40.895,38.592
				c-0.53,0.5-0.603,1.536-1.461,1.77c0.085-0.459,0.36-1.506,0.22-2L40.895,38.592z"/>
			<path fill="#E1001D" stroke="#FFFFFF" stroke-width="0.0534" stroke-miterlimit="10" d="M41.719,38.737
				c0.215,0.101-0.371,0.72-0.57,0.858c-0.109-0.12-0.178-0.55-0.254-0.704C40.895,38.892,40.864,38.337,41.719,38.737z"/>
			<path fill="#E1001D" stroke="#FFFFFF" stroke-width="0.0534" stroke-miterlimit="10" d="M42.312,38.941
				c0.272,0.155-0.272,0.703-0.431,0.76c-0.023-0.126,0.002-0.767,0-0.9C41.881,38.802,42.086,38.813,42.312,38.941z"/>
			<path fill="#E1001D" stroke="#FFFFFF" stroke-width="0.0534" stroke-miterlimit="10" d="M43.321,39.455
				c0.072,0.13-0.486,0.521-0.631,0.55c-0.059-0.16,0.126-0.719,0.096-0.803C42.786,39.202,43.088,39.027,43.321,39.455z"/>
		</g>
		<g>
			<g>
				<path fill="#FFFFFF" d="M56.111,38.891c-1.86-0.547-3.391-1.18-5.187-1.982c-0.294-0.131-1.968-1.534-2.274-1.549
					c-2.46-0.122-5.516-0.078-7.819-0.612c-2.393-0.555-4.621-1.799-6.989-2.138c-0.201-0.029-0.288,0.278-0.085,0.307
					c1.698,0.244,2.78,1.432,4.461,1.654c2.836,0.375,5.884,0.541,8.688,0.966c1.088,0.166,3.956,1.327,4.807,2.392
					c0.882,1.104,3.092,0.911,4.314,1.27C56.225,39.255,56.309,38.948,56.111,38.891L56.111,38.891z"/>
			</g>
		</g>
		<g>
			<g>
				<path fill="#FFFFFF" d="M33.928,33.859c0.316-0.007,0.541,0.101,0.734,0.359c0.121,0.162,0.398,0.003,0.274-0.161
					c-0.262-0.35-0.565-0.525-1.009-0.516C33.723,33.545,33.722,33.863,33.928,33.859L33.928,33.859z"/>
			</g>
		</g>
		<g>
			<path fill="#E1001D" d="M47.865,37.282c-0.05-0.253,0.075-0.729,0.299-0.876C48.258,36.673,48.136,37.185,47.865,37.282"/>
		</g>
		<path fill="#FFFFFF" d="M33.799,32.603c-0.65-0.043-2.873-0.155-2.931,0.858c-0.045,0.792,1.034,1.406,1.603,1.748
			c1.303,0.786,2.801,1.277,4.167,1.953c1.261,0.624,2.547,1.439,3.967,1.604c0.977,0.115,1.754,0.345,2.622,0.813
			c0.642,0.345,1.264,0.693,1.96,0.914c1.494,0.471,3.1-0.012,4.611,0.319c1.276,0.279,2.247,1.23,3.58,1.375
			c0.203,0.021,0.2-0.297,0-0.319c-1.14-0.122-2.059-0.842-3.107-1.244c-1.117-0.431-2.411-0.222-3.581-0.242
			c-1.503-0.025-2.628-0.757-3.925-1.401c-0.461-0.228-0.943-0.379-1.453-0.447c-0.909-0.118-1.645-0.266-2.482-0.653
			c-1.213-0.562-2.394-1.19-3.608-1.751c-1.161-0.535-2.384-0.936-3.393-1.748c-0.249-0.2-0.867-0.702-0.555-1.058
			c0.185-0.214,0.562-0.27,0.823-0.322c0.552-0.107,1.144-0.118,1.703-0.081C34.004,32.935,34.003,32.617,33.799,32.603
			L33.799,32.603z"/>
		<path fill="none" stroke="#E1001D" stroke-width="0.0534" stroke-miterlimit="10" d="M31.19,33.641
			c-0.134,0.872,0.738,1.232,1.306,1.574c1.679,1.011,2.875,1.285,3.933,1.849c1.557,0.831,2.865,1.54,4.284,1.708
			c0.977,0.114,1.627,0.344,2.494,0.812c0.643,0.345,0.375,0.223,0.92,0.501"/>
		<path fill="#D5232A" d="M31.504,33.161c0,0-0.607,0.163-0.23,0.648C31.274,33.809,31.805,33.319,31.504,33.161z"/>
		<path fill="none" stroke="#E1001D" stroke-width="0.0534" stroke-miterlimit="10" d="M29.541,47.184c0,0,1.708,1.17,2.829,0.45
			c0,0,1.972-0.702,3.01-0.475c0,0,1.638-0.085,2.096-0.262c0,0,1.958-0.552,2.21-0.602c0,0,1.556-0.436,1.975-0.368
			c0,0,1.671-0.103,1.924-0.151c0,0,1.229-0.207,1.766-0.56c0,0,0.945-0.645,1.13-0.863c0.713-0.588,1.561-1.241,2.499-1.541
			c0,0,0.948-0.321,2.457-0.483l0.232-0.066l1.057-0.185"/>
	</g>
	<path fill="#19461E" d="M41.974,12.242c15.669,0,28.371,12.701,28.371,28.369s-12.702,28.37-28.371,28.37
		c-15.668,0-28.37-12.702-28.37-28.37S26.306,12.242,41.974,12.242 M41.974,11.59c-7.752,0-15.04,3.019-20.521,8.5
		c-5.481,5.482-8.5,12.77-8.5,20.521s3.019,15.04,8.5,20.521c5.481,5.483,12.77,8.501,20.521,8.501
		c7.753,0,15.04-3.018,20.522-8.501c5.479-5.481,8.501-12.77,8.501-20.521s-3.022-15.039-8.501-20.521
		C57.014,14.609,49.727,11.59,41.974,11.59L41.974,11.59z"/>
	<polygon fill="#E1001D" points="35.393,47.076 35.344,47.142 35.432,47.171 35.536,47.123 	"/>
	<path fill="#FFFFFF" d="M41.974,73.654c-18.221,0-33.044-14.822-33.044-33.043S23.753,7.567,41.974,7.567
		c18.222,0,33.044,14.823,33.044,33.044S60.195,73.654,41.974,73.654z M41.974,8.759c-17.564,0-31.853,14.289-31.853,31.853
		S24.41,72.465,41.974,72.465c17.563,0,31.854-14.29,31.854-31.854S59.537,8.759,41.974,8.759z"/>
</g>
</svg>
