<?xml version="1.0" encoding="utf-8"?>
<!-- Generator: Adobe Illustrator 16.0.0, SVG Export Plug-In . SVG Version: 6.00 Build 0)  -->
<!DOCTYPE svg PUBLIC "-//W3C//DTD SVG 1.1//EN" "http://www.w3.org/Graphics/SVG/1.1/DTD/svg11.dtd">
<svg version="1.1" id="Calque_1" xmlns="http://www.w3.org/2000/svg" xmlns:xlink="http://www.w3.org/1999/xlink" x="0px" y="0px"
	 width="80px" height="80px" viewBox="0 0 80 80" enable-background="new 0 0 80 80" xml:space="preserve">
<g>
	<g>
		<path fill="#FFFFFF" d="M66.569,63.224C65.672,63.178,64.796,62.91,64,62.5c-0.576-0.295-0.056-0.846,0.128-1.37
			c0.19-0.534,0.353-1.078,0.462-1.634c0.201-0.799-0.649-0.78-1.082-0.557c-0.651,0.667-1.504,0.898-2.416,0.797
			c-1.693-0.196-3.224-0.94-4.942-0.348c-1.367,0.471-1.9,1.741-1.932,3.106c-0.722-0.1-1.444-0.413-1.897-1.006
			c0.535-0.049,1.193-0.352,1.5-0.803c0.42-0.617-0.241-1.138-0.85-1.072c0.021-0.134-0.006-0.299,0.04-0.424
			c0.026-0.583-0.162-1.173-0.479-1.669c-0.406-0.644,0.815-0.781,0.383-1.535c-1.181-0.878-0.784-1.916-0.423-3.13
			c0.848,1.001,2.121-1.64,2.511-2.116c-0.604,1.522-0.966,3.151-1.047,4.789c-0.028,0.665-0.263,4.128,1.083,3.643
			c0.53-0.192,0.374-0.811,0.452-1.251c0.111-0.654,0.371-1.271,0.687-1.85c0.705-1.322,1.678-2.467,2.579-3.652
			c2.095-2.761,4.364-5.408,6.016-8.473c1.565-2.903,2.678-6.069,3.163-9.337c0.857-5.757-0.267-11.897-4.54-16.091
			c-3.005-2.945-7.323-4.624-11.479-5.093c-0.949-0.108-2.103-0.194-2.972,0.291c-1.012,0.568-0.887,1.592,0.283,1.758
			c2.032,0.29,1.31,3.117,1.142,4.503l-0.217,1.811c-0.081,0.682-0.488,0.466-1.097,0.48c-0.912,0.023-1.827-0.077-2.501-0.76
			c0.472-0.416,0.325-0.874-0.073-1.286c-0.744-0.763-0.805-1.491-0.692-2.534l0.194-1.426c0.022-0.197-0.172-1.478-0.168-1.483
			c0.605-0.563-0.208-1.521-0.602-1.948c0.763-0.186,0.452-1.141-0.139-1.24c0.506-0.057,0.953-0.481,0.596-0.981
			c-0.399-0.558-1.181-0.373-1.759-0.504c0.465-0.554,0.02-1.287-0.7-1.085c0.157-0.472,0.171-0.889,0.57-1.146
			c0.438-0.281,0.546-0.815,0.325-1.273c-0.176-0.365-0.539-0.653-0.954-0.655c-0.4-0.002-0.316,0.235-0.553-0.148
			c-0.188-0.312-0.515-0.515-0.877-0.549c-0.453-0.034-0.93,0.242-1.104,0.684c0.154-0.317,0.241-0.713,0.087-1.074
			c-0.517-1.247-2.42-0.405-1.973,0.805l0.112,0.32c-0.23-0.522-0.817-0.755-1.352-0.556c-0.295,0.11-0.535,0.34-0.654,0.633
			c-0.258-0.121-0.548-0.143-0.816-0.045c-0.481,0.174-0.847,0.687-0.831,1.203c0.02,0.636,0.64,0.625,0.817,1.07
			c0.18,0.627,0.314,1.611,0.942,2.002c-0.999-0.038-1.81,0.508-2.201,1.418c-0.834,0.305-1.702,1.181-2.049,1.99
			c-0.29,0.675,0.066,2.209,0.868,2.454c0.579,0.179,1.304-0.416,1.911-0.423c-0.445,0.377-2.18,0.816-1.337,1.668
			c0.466,0.471,1.357,0.837,2.021,0.857c-0.447,1.072-3.511,1.275-2.514,2.731c0.271,0.397,0.47,0.283,0.063,0.709
			c-0.035,0.037-0.502,0.55-0.56,0.55h-3.192c-0.517,0-0.626-4.744-0.481-5.315c0.218-0.859,0.81-1.462,1.697-1.608
			c1.412-0.234,0.08-1.604-0.699-1.742c-1.076-0.19-2.329,0.015-3.399,0.147c-1.8,0.22-3.575,0.667-5.255,1.355
			c-2.663,1.089-5.013,2.81-6.732,5.127c-3.618,4.87-3.951,11.371-2.496,17.084c1.619,6.35,5.597,11.174,9.513,16.251
			c0.767,0.989,1.528,2.027,2.021,3.188c0.262,0.617,0.185,2.696,1.205,2.463c0.997-0.229,0.742-3.154,0.69-3.897
			c-0.107-1.563-0.471-3.108-1.05-4.56c0.356,0.435,1.818,3.188,2.546,2.073c0.278,1.137,1.018,2.461-0.025,3.429
			c-0.829,0.77,0.515,1.2,0.228,1.587c-0.47,0.653-0.686,1.467-0.552,2.268c-0.655-0.086-1.27,0.498-0.802,1.111
			c0.34,0.445,0.907,0.7,1.453,0.757c-0.514,0.691-1.41,1.026-2.252,1.026c0-1.011-0.016-2.216-0.81-2.962
			c-0.997-0.943-2.582-0.938-3.838-0.703c-1.447,0.268-2.998,0.775-4.328-0.139c-0.355-0.244-0.687-0.678-1.16-0.323
			c-0.596,0.446,0.101,1.717,0.269,2.257c0.163,0.521,0.714,1.136,0.072,1.348c-0.462,0.155-0.94,0.269-1.409,0.411
			c-0.406,0.123-1.968,0.502-1.687,1.199c0.963,2.4,4.899,2.349,6.967,2.344c-0.146,1.315-0.003,2.657,0.996,3.614
			c1.245,1.199,3.157,1.787,4.784,2.214c4.375,1.146,9.079,1.465,13.585,1.52c4.496,0.054,9.005-0.288,13.428-1.103
			c1.979-0.363,4.023-0.897,5.78-1.909c0.767-0.44,1.604-1.056,1.924-1.916c0.289-0.777,0.09-1.621,0.004-2.415
			c1.944,0.004,4.063,0.031,5.657-1.232c0.824-0.651,2.218-1.882,0.379-1.99L66.569,63.224L66.569,63.224z M47.986,61.691
			c-1.485,0.203-2.097,2.113-1.424,3.325c-4.245,0.388-8.527,0.392-12.775,0.046c0.368-1.167-0.316-2.743-1.626-2.894
			c0.146-0.133,0.245-0.228,0.348-0.43c0.241,0.085,0.509,0.113,0.761,0.109c0.503-0.01,0.951-0.257,0.74-0.823
			c1.009,0.908,2.079,1.748,3.201,2.509c0.8,0.545,1.779,1.611,2.827,1.555c0.997,0,1.995-0.994,2.727-1.569
			c1.134-0.885,2.288-1.72,3.351-2.702c0.034,0.497,0.53,0.603,0.939,0.569C47.631,61.343,47.608,61.311,47.986,61.691z"/>
		<path fill="#FFFFFF" d="M43.668,6.056l-0.005-0.001L43.668,6.056z"/>
	</g>
	<path fill="#B99C65" d="M46.058,22.268c-0.36-0.4-0.7-0.692-1.125-1.029c0.426,0.054,1.099,0.092,1.371-0.332
		c-0.433-0.4-0.752-0.894-0.936-1.454c-0.358-1.1-0.207-2.291-0.171-3.425l0.24,0.296c-0.042-0.697-0.583-1.388-0.459-2.093
		c0.161,0,0.313,0.03,0.461,0.09c-0.276-0.931-1.232-1.231-1.725-1.999c0.448-0.08,0.947-0.167,1.406-0.101
		c-0.474-0.064-1.318-0.918-1.781-0.718c0.62-0.271,1.277-0.446,1.932-0.61c-0.283-0.12-2.353-0.545-2.506-0.292
		c0.217-0.371,0.574-0.637,0.783-1.016c-0.929,0.284-1.753,0.546-2.73,0.563c-0.844,0.014-1.782,0.014-2.508,0.508
		c0.534-0.604-0.583-0.056-0.897,0.031c-0.435,0.119-1.025,0.178-1.405,0.432c-0.513,0.341-0.596,0.951-1.175,1.275
		c-1.513,0.845-1.905,1.936-0.933,3.345c0.602-0.616,1.397-0.657,2.211-0.649c0.458-0.132,0.988,0.083,0.634,0.508
		c-0.659,0.795-1.09,1.161-2.105,1.338c0.656,0.588,1.553,0.851,2.405,0.559c-0.192,1.667-1.404,2.552-3.014,2.689
		c0.229,0.649,0.749,1.155,1.407,1.357c-0.703,0.43-1.316,0.941-1.865,1.545H46.34c0.161,0,0.566-0.188,0.664-0.32L46.058,22.268z"
		/>
	<path fill="#231F20" d="M66.807,63.736c-0.372-0.762-3.884-0.613-3.431-1.586c0.336-0.721,0.674-1.475,0.844-2.251
		c0.297-1.351-0.674-0.379-1.295-0.092c-1.835,0.85-3.923-0.412-5.866-0.203c-0.742,0.082-1.632,0.276-2.131,0.885
		c-0.581,0.703-0.288,2.081-0.288,2.9c0.35-0.072,0.61-0.259,0.497-0.64c1.281,0.263,2.138-1.069,3.357-1.136
		c-1.53,1.751-4.027,2.399-6.202,2.894c-3.078,0.7-6.21,1.019-9.36,1.113c-5.942,0.18-12.267,0.195-17.917-1.888
		c0.531-0.107,0.37-2.731-0.051-3.244c-0.686-0.835-2.059-0.94-3.054-0.924c-1.256,0.019-2.429,0.572-3.687,0.53
		c-0.822-0.026-1.565-0.357-2.17-0.908c-0.439-0.516-0.416,0.563-0.383,0.712c0.193,0.882,0.584,1.755,0.992,2.556
		c-0.868,0.592-2.047,0.553-2.97,1.039c-1.243,0.655,0.78,1.693,1.354,1.938c1.589,0.678,3.372,0.643,5.067,0.618
		c-0.099,0.903-0.225,1.909,0.131,2.776c0.427,1.043,1.517,1.62,2.484,2.065c3.08,1.423,6.649,1.824,9.992,2.165
		c3.755,0.385,7.537,0.417,11.307,0.251c3.509-0.153,7.075-0.435,10.492-1.292c1.944-0.489,5.807-1.559,5.479-4.252
		c-0.496,0.07-0.443,0.028-0.519,0.484c-0.045,0.265-0.147,0.511-0.291,0.738c-0.368,0.572-0.958,0.973-1.553,1.28
		c-1.271,0.666-2.7,1.016-4.099,1.305c-4.717,0.967-9.547,1.373-14.359,1.329c-4.763-0.044-9.658-0.365-14.253-1.702
		c-1.545-0.449-3.978-1.202-4.458-2.962c-0.464-1.7,0.287-3.463,0.416-5.151c1.806,2.207,4.854,2.937,7.535,3.393
		c3.81,0.647,7.669,0.891,11.53,0.891c3.752,0,7.5-0.234,11.211-0.838c2.776-0.452,5.974-1.154,7.848-3.447
		c0.122,1.586,0.259,3.179,0.494,4.754l0.498-0.073c-0.085-0.572-0.157-1.14-0.218-1.716C60.836,66.062,67.73,65.638,66.807,63.736z
		 M55.119,61.466c0.229-1.354,2.097-1.503,3.174-1.431c1.859,0.123,3.533,1.015,5.302-0.035c-0.125,1.826-2.872,0.994-3.954,0.799
		c-0.872-0.159-1.794-0.333-2.683-0.205c-0.391,0.055-0.778,0.184-1.085,0.444C55.506,61.351,55.519,61.665,55.119,61.466
		C55.321,60.272,55.241,61.528,55.119,61.466z M57.356,60.76c-0.556,0.26-1.015,0.787-1.658,0.83
		C56.031,61.01,56.734,60.815,57.356,60.76c-0.072,0.056-0.149,0.07-0.219,0.039L57.356,60.76
		C56.812,61.016,56.965,60.796,57.356,60.76z M58.434,61.376c-0.488,0.015-3.704,2.012-3.299,0.639
		c1.369,0.458,2.392-1.16,3.742-1.043C58.781,61.41,58.461,61.376,58.434,61.376z M20.508,61.301c-0.071,0.989-0.14,1.98-0.224,2.97
		l-0.118,1.274c-0.469,0.008-0.938,0.017-1.405,0.01c-1.746-0.021-3.601-0.26-4.932-1.5c1.118-0.145,2.222-0.565,3.147-1.209
		c0.594-0.415-0.173-1.283-0.346-1.776c1.261,0.614,2.611,0.115,3.888-0.149L20.508,61.301z M20.673,60.603
		c-1.091,0.453-4.243,1.382-4.38-0.603c2.424,1.436,4.963-0.732,7.445,0.307c0.427,0.179,0.814,0.479,0.973,0.932
		c0.285,0.803-0.859-0.225-1.038-0.325C22.946,60.506,21.413,59.938,20.673,60.603C19.611,61.044,20.8,60.489,20.673,60.603z
		 M24.356,62.579c-0.599-0.007-1.208-0.535-1.7-0.819c-0.549-0.316-1.499-0.24-1.644-0.79c1.352-0.115,2.373,1.501,3.742,1.043
		C24.912,62.554,24.469,62.579,24.356,62.579z M24.754,62.749v0.883c-1.21-0.467-2.479-1.027-3.355-2.021
		C22.615,61.681,23.639,62.977,24.754,62.749z M22.535,60.76c0.623,0.056,1.323,0.25,1.656,0.83
		c-0.313-0.022-0.597-0.169-0.858-0.336c-0.091-0.057-1.12-0.709-0.58-0.455C22.682,60.83,22.609,60.815,22.535,60.76
		C23.157,60.815,22.74,60.857,22.535,60.76z M52.324,66.074c-6.337,1.32-13.019,1.354-19.444,0.785
		c-2.672-0.235-5.371-0.643-7.929-1.474c-1.548-0.503-4.118-1.483-3.98-3.512c1.779,2.149,4.898,2.824,7.501,3.332
		c3.783,0.74,7.625,0.943,11.476,0.943c3.751,0,7.492-0.206,11.188-0.883c2.696-0.495,5.944-1.172,7.784-3.393
		c0.058,0.837,0.018,1.048-0.589,1.596c-0.608,0.553-1.329,0.982-2.067,1.333c-1.688,0.808-3.502,1.163-5.317,1.557
		c0.893-0.195,1.789-0.371,2.681-0.557l0.024-0.005C53.411,66.002,52.615,66.013,52.324,66.074
		C47.421,67.096,56.963,65.109,52.324,66.074z M65.415,64.558c-1.358,0.883-3.014,1.005-4.592,1.001l-1.097-0.014
		c-0.057-0.559-0.112-1.116-0.161-1.678c-0.09-0.981-0.162-1.962-0.195-2.947c1.278,0.265,2.63,0.766,3.889,0.149
		c-0.171,0.493-0.943,1.361-0.348,1.776c0.927,0.644,2.031,1.064,3.148,1.209c-0.274,0.257-0.585,0.457-0.894,0.665L65.415,64.558z"
		/>
	<path fill="#B99C65" d="M57.412,64.222c-0.143-1.673-2.071-0.981-3.139-1.091c-1.418-0.145-2.548-1.022-2.929-2.404
		c0.789,0.302,1.479,0.128,2.035-0.465c-0.735-0.021-1.539-0.05-1.764-0.904c0.301-0.068,0.571,0.151,0.751,0.362
		c0.206-1.155-0.212-1.906-1.086-2.615c0.486-0.093,0.818-0.466,1.139-0.808c-0.604,0.123-1.237,0.063-1.529-0.558
		c0.331,0.219,0.734,0.219,1.111,0.259c-1.409-1.378,0.371-3.255,0.087-4.9l-3.203,4.283l-1.766,2.362l-0.338,0.455
		c0.054-0.071,0.507,0.863,0.514,0.956c0.058,0.59-0.243,1.13-0.507,1.628c0.534-0.024,0.952-0.168,1.376-0.505
		c-0.048,0.676,0.25,1.085,0.933,1.181c-0.147-0.264,0.078-0.635,0.19-0.869c0.208,0.569,0.136,1.063,0.065,1.655
		c0.201-0.363,0.609-0.467,0.69-0.922c0.193,0.453,0.493,0.968-0.109,1.263c-0.658,0.322-1.266-0.374-1.909-0.244
		c-1.574,0.32-1,2.16-0.434,3.029c-0.122-0.393-0.554-1.46,0.151-1.609c-0.41,0.733,1.144,0.921,1.483,0.874
		c1.025-0.135,1.286-0.233,1.787,0.787c0.192,0.396,0.279,0.864,0.636,1.163c0.239,0.203,0.609,0.08,0.784,0.221
		c0.664,0.561-0.787,1.448-1.102,1.578c1.031-0.066,1.787-0.506,2.105-1.55c0.167-0.543,0.138-1.219-0.309-1.626
		c-0.289-0.266-1.062-0.377-1.161-0.796c-0.11-0.444,0.808,0.459,0.813,0.47c0.388,0.41,0.922,0.632,1.329,1.021
		c0.679,0.653-0.164,2.736,1.278,2.714c-0.017,0.684-0.8,1.038-1.321,1.279c0.756,0.086,1.365-0.163,1.813-0.789
		c0.347-0.489,0.286-1.125,0.629-1.56c0.378-0.467-0.555-1.356-0.758-1.813c-0.333-0.749-0.725-1.072-1.398-1.506
		c0.434,0.137,0.893,0.439,1.367,0.375c0.457-0.063,0.219-0.711,0.64-0.595c1.008,0.282-0.082,1.771-0.438,2.075
		c0.829-0.405,1.584-0.855,1.492-1.914v0.051H57.412z"/>
	<path fill="#B99C65" d="M32.629,61.098c0.263,0.118,0.547,0.146,0.831,0.166c-0.423-0.819-0.735-1.525-0.183-2.357
		c-0.009-0.125-0.238-0.362-0.305-0.466l-1.705-2.62l-3.005-4.617c-0.646,1.765,1.48,3.783-0.013,5.273
		c0.377-0.036,0.775-0.04,1.107-0.255c-0.296,0.621-0.917,0.673-1.527,0.555c0.327,0.361,0.644,0.715,1.14,0.807
		c-0.892,0.706-1.262,1.467-1.088,2.618c0.185-0.211,0.455-0.425,0.758-0.36c-0.194,0.868-1.051,0.877-1.763,0.904
		c0.596,0.646,1.214,0.662,2.035,0.467c-0.565,1.997-2.354,2.488-4.211,2.367c-0.893-0.062-1.775,0.073-1.87,1.157
		c-0.088,1.002,0.734,1.457,1.5,1.835c-0.466-0.403-1.229-1.329-0.614-1.971c0.405-0.419,0.398,0.171,0.58,0.374
		c0.359,0.404,1.233-0.141,1.6-0.261c-0.698,0.435-1.079,0.778-1.413,1.548c-0.213,0.49-1.126,1.245-0.733,1.781
		c0.303,0.412,0.253,0.982,0.545,1.442c0.439,0.688,1.081,0.976,1.884,0.892c-0.517-0.241-1.314-0.597-1.321-1.279
		c1.36,0.051,0.691-1.91,1.164-2.578c0.327-0.46,0.934-0.684,1.347-1.058c0.219-0.201,0.491-0.799,0.869-0.69
		c0.381,0.111-0.752,0.665-0.752,0.665c-0.484,0.257-0.771,0.689-0.773,1.239c-0.01,1.333,0.99,2.1,2.205,2.184
		c-0.651-0.265-1.332-0.71-1.137-1.547c0.104-0.155,0.688-0.095,0.897-0.316c0.262-0.282,0.372-0.654,0.511-0.997
		c0.489-1.196,0.881-0.915,1.981-0.874c0.328,0.012,1.712-0.214,1.336-0.889c0.656,0.3,0.303,1.116,0.148,1.611
		c0.55-0.824,1.164-2.788-0.451-3.026c-0.615-0.09-1.167,0.49-1.796,0.282c-0.708-0.231-0.411-0.824-0.201-1.301
		c0.071,0.452,0.485,0.555,0.687,0.918c-0.071-0.588-0.141-1.095,0.066-1.662c0.111,0.238,0.333,0.605,0.192,0.875
		c0.684-0.095,0.973-0.522,0.932-1.185L32.629,61.098z"/>
	<path fill="#231F20" d="M30.162,71.157c-0.87-0.139-1.069,0.049-0.933-0.824l0.375-2.384c1.023,0.162,2.323,0.229,2.362,1.566
		C31.997,70.586,31.216,71.326,30.162,71.157 M30.206,70.628c0.689,0.111,1.121-0.331,1.143-1.001
		c0.026-0.783-0.582-0.963-1.227-1.063c-0.248,0.174-0.261,1.665-0.314,2.002l0.545,0.087L30.206,70.628L30.206,70.628z
		 M33.82,71.605l-1.653-0.168l0.292-2.877c0.037-0.373,0.652-0.121,0.956-0.091c0.586,0.061,0.805-0.055,0.662,0.609
		c-0.879-0.09-1.04-0.318-1.134,0.591l1.061,0.108c0.009,0.154-0.014,0.38-0.055,0.53l-1.062-0.109
		c-0.013,0.136-0.143,0.754-0.017,0.766l1.002,0.101C33.857,71.24,33.864,71.438,33.82,71.605z M34.265,70.683
		c0.615-0.14,0.383,0.215,0.699,0.459c0.211,0.164,0.526,0.035,0.6-0.206c0.136-0.454-0.457-0.545-0.721-0.707
		c-1.533-0.949,1.325-2.741,1.325-0.721c-0.522,0.109-0.398-0.147-0.662-0.348c-0.21-0.164-0.489-0.027-0.521,0.231
		c-0.054,0.439,0.594,0.46,0.846,0.642C37.315,71.104,34.153,72.885,34.265,70.683"/>
	<path fill="#231F20" d="M37.083,71.803c-0.781-0.03-0.598-0.139-0.57-0.891l0.081-2.19c-0.002,0.056,2.689-0.12,1.734,1.458
		c-0.281,0.461-1.194,0.273-1.207,0.624L37.083,71.803z M37.146,70.1c0.847,0.031,0.873-0.788,0.03-0.838L37.146,70.1z
		 M39.369,68.49c-0.444-0.013-0.614-0.421-0.888-0.753C39.101,67.742,39.059,67.941,39.369,68.49z M38.701,71.849l0.031-1.996
		c0.013-0.807-0.23-1.089,0.621-1.072l-0.033,1.995C39.305,71.58,39.547,71.864,38.701,71.849z M42.465,71.844l-0.577,0.012
		l-0.051-2.625c-0.165,0.043-0.367-0.007-0.536,0.011c-0.231-0.711,0.657-0.468,1.109-0.48L42.465,71.844z M44.613,71.762
		l-0.627,0.032l0.643-1.086c-1.472,0.35-1.569-2.114-0.098-2.082C46.526,68.669,45.078,70.975,44.613,71.762z M45.026,69.701
		c-0.034-0.665-1.004-0.688-1.006-0.002C44.021,70.399,45.066,70.394,45.026,69.701 M45.952,69.676
		c-0.063-0.669,0.311-1.193,1.005-1.243c0.955-0.072,1.112,0.737,1.186,1.477c0.076,0.799,0.045,1.693-0.999,1.718
		C46.007,71.656,46.035,70.493,45.952,69.676L45.952,69.676z M46.552,69.612c0.036,0.353-0.037,1.075,0.252,1.352
		c0.46,0.502,0.812-0.238,0.775-0.616c-0.033-0.332-0.019-0.718-0.113-1.04C47.276,68.672,46.498,69.041,46.552,69.612"/>
	<path fill="#231F20" d="M50.627,71.102c-0.159,0.058-0.359,0.059-0.521,0.086l-0.074-0.465L48.7,70.936
		c-0.277-0.835,0.548-1.957,0.869-2.701c0.214-0.495,0.599-0.078,0.647,0.237l0.266,1.664l0.255-0.039
		C50.992,70.704,50.378,70.522,50.627,71.102z M49.953,70.218l-0.204-1.27l-0.605,1.396L49.953,70.218L49.953,70.218z"/>
	<g>
		<path fill="#231F20" d="M57.843,26.652c-0.362-1.263-1.082-2.494-1.614-3.696c-0.237-0.538-0.65-0.419-1.163-0.419h-30.58
			c-0.75,0-0.929,1.031-1.187,1.621c-0.561,1.287-1.078,2.241-1.112,3.636c-0.062,2.525,0.077,5.059,0.369,7.565
			c0.797,6.869,2.802,13.751,6.65,19.553c1.748,2.636,3.874,5.017,6.343,6.996c1.229,0.984,2.538,1.869,3.91,2.646
			c0.949,0.536,1.7-0.314,2.528-0.854c6.392-4.169,10.732-10.662,13.164-17.813C57.282,39.619,57.843,33.217,57.843,26.652
			L57.843,26.652z M52.913,45.095c-1.696,5.428-4.49,10.667-8.901,14.365c-1.1,0.921-2.287,1.74-3.542,2.433
			c-0.614,0.34-0.325,1.539-0.325,2.2c0,0.122,0.056,0.596-0.25,0.374c-0.064-0.046,0-0.666,0-0.745v-1.24
			c0-0.527-0.173-0.446-0.677-0.732C28.201,55.481,24.972,41.39,24.574,29.668c-0.022-0.646-0.216-6.369,0.213-6.369
			c0.216-0.152,1.093,0,1.342,0h29.016c0.395,0,0.255,4.707,0.249,5.142C55.303,34.054,54.588,39.724,52.913,45.095
			C50.813,51.82,55.017,38.348,52.913,45.095z M55.031,23.551H25.789c-0.787,0-0.876-0.188-0.925,0.654
			c-0.34,5.937,0.177,12.039,1.573,17.818c1.396,5.778,3.842,11.515,8.072,15.795c0.997,1.008,2.084,1.924,3.252,2.729
			c0.601,0.413,1.223,0.798,1.863,1.149c0.637,0.35,1.392-0.389,1.952-0.749c2.479-1.586,4.601-3.667,6.318-6.048
			c3.689-5.096,5.564-11.332,6.507-17.487C55.1,32.858,55.377,28.15,55.031,23.551z"/>
	</g>
	<path fill="#FFFFFF" d="M31.379,63.631L31.379,63.631z M40.329,7.866l0.003,0.002L40.329,7.866"/>
	<path fill="#FFFFFF" d="M40.332,7.868L40.332,7.868z"/>
	<path fill="#FFFFFF" d="M40.332,7.868l-0.003-0.002L40.332,7.868z M40.304,7.855l-0.003-0.003L40.304,7.855l-0.003-0.003"/>
	<path fill="#FFFFFF" d="M40.332,7.868L40.332,7.868z"/>
	<path fill="#FFFFFF" d="M40.325,7.866L40.325,7.866z M40.315,7.859l-0.011-0.005l0.014,0.008l-0.005-0.003H40.315"/>
	<path fill="#FFFFFF" d="M40.32,7.864"/>
	<path fill="#FFFFFF" d="M40.295,7.852L40.295,7.852z"/>
	<path fill="#FFFFFF" d="M40.293,7.85L40.293,7.85z"/>
	<path fill="#FFFFFF" d="M40.325,7.866L40.325,7.866z"/>
	<path fill="#FFFFFF" d="M40.341,7.872L40.341,7.872z M40.339,7.872L40.339,7.872z"/>
	<path fill="#FFFFFF" d="M40.293,7.852L40.293,7.852z"/>
	<path fill="#FFFFFF" d="M40.339,7.872L40.339,7.872z M40.341,7.874L40.341,7.874z M40.325,7.866l-0.01-0.004L40.325,7.866"/>
	<path fill="#FFFFFF" d="M40.339,7.872l0.002,0.002L40.339,7.872z M40.293,7.852L40.293,7.852z"/>
	<path fill="#D2B353" d="M49.544,61.986"/>
	<path fill="#D2B353" d="M30.702,62.459"/>
	<path fill="#B99C65" d="M43.218,6.696c-0.294,0-0.437,0.391-0.188,0.575l-0.313,0.352c-0.683,0.705-1.085,0.354-1.072-0.52
		c0.003-0.292,0.665-1.044,0.048-1.044c-0.341,0-0.423,0.466-0.14,0.605c-0.041,0.209-0.204,0.417-0.344,0.567
		c-0.845,0.904-1.398-0.982-1.387-1.611c0.017-0.877,0.277,0.687,0.277-0.318c0-0.41-0.638-0.409-0.638,0
		c0,0.279,0.269,0.183,0.269,0.341c-0.02,0.181-0.075,0.37-0.122,0.547c-0.088,0.34-0.222,1.121-0.602,1.279
		c-0.462,0.194-1.067-0.508-0.836-0.845c0.704-1.025-1.525,0.098-0.27,0.139c0.075,0.877-0.175,1.767-1.06,0.862l-0.268-0.296
		c0.336-0.276-0.127-0.769-0.426-0.469c-0.376,0.379,0.342,0.465,0.43,0.732c0.22,0.662,0.373,2.121,1.212,2.198
		c-0.567-0.103-0.25-0.408,0.151-0.482c0.557-0.104,1.137-0.113,1.701-0.118c0.603-0.003,1.208,0.005,1.805,0.087
		c0.352,0.049,1.057,0.381,0.333,0.512c0.747-0.069,0.823-1.027,1.015-1.623c0.046-0.138,0.21-0.879,0.363-0.845
		C43.603,7.423,43.682,6.696,43.218,6.696"/>
	<g>
		<path fill="#231F20" d="M43.657,6.965c-0.314-0.649-1.16-0.145-0.751,0.31c-0.604,0.633-1.039,0.861-1.124-0.134
			c-0.033-0.388,0.7-0.646,0.279-1.135c-0.436-0.504-1.084,0.335-0.662,0.756c-0.21,0.401-0.679,0.752-0.97,0.241
			c-0.177-0.309-0.29-0.648-0.393-0.986c-0.184-0.611,0.063-0.171,0.176-0.633c0.096-0.377-0.32-0.689-0.65-0.458
			c-0.523,0.366,0.101,0.619,0.033,0.896c-0.141,0.604-0.486,2.223-1.304,1.155c-0.201-0.265,0.492-1.196-0.512-0.937
			c-0.168,0.044-0.402,0.157-0.403,0.362c-0.001,0.149,0.125,0.273,0.232,0.358c0.264,0.232,0.23,0.415,0.103,0.803
			c-0.041,0.362-0.192,0.425-0.457,0.189c-0.426-0.235-0.471-0.26-0.406-0.641c0.087-0.505-0.663-0.768-0.888-0.305
			c-0.123,0.255-0.035,0.63,0.274,0.692c0.398,0.08,0.375,0.649,0.489,1.055c0.309,1.095,0.739,1.255,1.775,1.455
			c-0.325-0.123-0.644-0.267-0.94-0.451c1.395-0.423,3.036-0.426,4.43,0c-0.268,0.239-0.701,0.29-1.037,0.394
			c0.68-0.063,1.313-0.259,1.622-0.91c0.169-0.344,0.261-0.718,0.373-1.082l0.187-0.554C43.429,7.487,43.673,7.244,43.657,6.965z
			 M41.554,6.326c0.13-0.18,0.469,0.135,0.098,0.29C41.558,6.535,41.511,6.393,41.554,6.326z M41.61,6.841l-0.005,0.011L41.61,6.841
			z M39.591,5.287C39.89,4.911,40.06,5.675,39.591,5.287z M37.725,6.462c0.124-0.318,0.539-0.052,0.238,0.225
			C37.791,6.664,37.778,6.589,37.725,6.462z M36.376,7.287c-0.174-0.029-0.218-0.345,0.008-0.314
			C36.564,6.996,36.602,7.378,36.376,7.287z M42.521,8.698c-0.075,0.273-0.134,0.571-0.29,0.812
			c-0.736-0.982-4.182-0.991-4.912,0.001c-0.366-0.561-0.425-1.258-0.645-1.878c0.676,1.032,1.525,0.385,1.348-0.668
			c0.74,1.549,1.606-0.055,1.752-1.01c0.138,0.942,0.973,2.658,1.75,1.091c-0.19,1.023,0.698,1.534,1.331,0.622L42.521,8.698
			L42.521,8.698z M43.417,7.041c-0.067,0.413-0.337,0.038-0.405,0.042C43.058,7.08,43.235,6.539,43.417,7.041z"/>
		<path fill="#231F20" d="M43.218,6.562L43.218,6.562L43.218,6.562z"/>
	</g>
	<g>
		<path fill="#EC1C24" d="M50.643,40.231v10.023c1.433-3.195,2.622-6.571,3.241-10.023H50.643z M29.629,50.931v-7.993
			c0-0.173,0.019-2.706-0.018-2.706h-3.729C26.877,43.881,28.088,47.475,29.629,50.931z M33.89,57.322
			c1.216,1.245,2.576,2.344,4.023,3.31V40.329c0-0.5-2.324-0.214-2.776-0.214c-1.16,0-1.247-0.246-1.247,0.844V57.322z
			 M42.177,60.611c1.345-0.964,2.596-2.058,3.744-3.255c0.487-0.512,0.573-0.514,0.573-1.106V41.889c0-0.4,0.254-1.657-0.239-1.657
			c-0.358,0-4.078-0.005-4.078,0.003V60.611z"/>
	</g>
	<path fill="#FFFFFF" d="M30.696,38.951c-0.206,0-1.104,0.118-1.104-0.093v-6.125c0-0.354,0.837-0.162,1.119-0.162
		c0.595,0,0.573,0.13,0.925,0.621l2.396,3.348v-3.716c0-0.396,0.202-0.252,0.592-0.252c0.845,0,0.593,0.281,0.593,1.084v3.436
		c0,0.265,0.194,1.668,0,1.86c-0.125,0.123-0.941,0-1.134,0c-0.132,0-0.28-0.32-0.349-0.416l-3.037-4.239L30.696,38.951z"/>
	<path fill="#B99C65" d="M35.215,39.067c-0.282,0-1.128,0.163-1.309-0.09l-0.942-1.317l-2.151-3.004c0,0.508,0.175,4.41-0.165,4.41
		c-0.74,0-1.174,0.207-1.174-0.589v-5.746c0-0.444,1.411-0.429,1.715-0.278c0.335,0,1.106,1.461,1.279,1.702l1.446,2.021v-3.203
		c0-0.78,1.418-0.749,1.418-0.242C35.333,33.349,35.455,39.067,35.215,39.067z M34.09,38.834c0.422,0,1.009,0.233,1.009-0.264
		v-4.923c0-0.551,0.223-0.96-0.375-0.96c-0.786,0-0.579,0.172-0.579,0.931v2.657c0,0.555-0.25,0.277-0.47-0.029l-1.534-2.144
		l-1.003-1.405c-0.083-0.115-1.432,0.009-1.432,0.034v6.093c0,0.024,0.727,0.011,0.808,0.011c0.134,0,0.066-0.362,0.066-0.471
		c0-0.453-0.276-4.064,0.079-4.178c0.294-0.096,1.552,2.029,1.714,2.252L34.09,38.834z"/>
	<path fill="#FFFFFF" d="M36.311,32.591c0.233,0,1.395-0.116,1.395,0.093v4.811c0,0.225,0.159,1.273,0,1.448
		c-0.107,0.12-1.395,0.038-1.395-0.092V32.591z"/>
	<path fill="#B99C65" d="M37.706,39.062c-0.226,0-1.513,0.152-1.513-0.158v-2.022c0-0.354-0.128-4.405,0.118-4.405
		c0.134-0.113,1.511-0.083,1.511,0.157v2.021C37.822,35.007,37.95,39.062,37.706,39.062z M36.426,38.829
		c0.308,0,1.166,0.201,1.166-0.171V34.03c0-0.179,0.135-1.194,0-1.322c-0.155-0.146-1.166-0.124-1.166,0.171V38.829z"/>
	<path fill="#FFFFFF" d="M44.662,37.24c-1.396,2.709-5.613,1.963-6.038-1.038c-0.485-3.432,4.275-5.063,5.987-2.04l-0.883,0.446
		c-0.513,0.26-0.5-0.23-0.971-0.505c-1.211-0.705-2.786,0.179-2.826,1.575c-0.04,1.381,1.427,2.348,2.681,1.765
		c0.323-0.15,0.767-0.854,1.011-0.73L44.662,37.24z"/>
	<path fill="#B99C65" d="M41.799,39.076c-3.615,0-4.525-5.204-1.151-6.464c1.524-0.569,3.268,0.089,4.066,1.493
		c0.114,0.199-0.644,0.461-0.744,0.513c-0.763,0.386-0.578-0.011-1.265-0.413c-1.255-0.736-2.841,0.354-2.637,1.789
		c0.103,0.723,0.658,1.314,1.372,1.472c0.421,0.092,0.873,0.02,1.25-0.193c0.147-0.084,0.734-0.791,0.836-0.739
		c0.169-0.008,1.319,0.57,1.239,0.76c0.038,0.239-0.516,0.738-0.66,0.874C43.481,38.746,42.646,39.076,41.799,39.076z
		 M41.801,32.637c-2.377,0-3.884,2.729-2.623,4.737c1.218,1.937,4.181,1.933,5.33-0.084l-0.837-0.421
		c-0.258-0.131-0.718,0.554-1.048,0.701c-1.322,0.581-2.85-0.446-2.807-1.893c0.04-1.333,1.421-2.274,2.672-1.827
		c0.354,0.125,0.875,0.817,1.132,0.687l0.831-0.42C43.886,33.199,42.874,32.637,41.801,32.637z"/>
	<path fill="#FFFFFF" d="M46.725,37.762c0.39,0,3.58-0.052,3.58,0.05c0,0.507,0.264,1.122-0.322,1.122h-4.559
		c-0.124,0-0.056-0.956-0.056-1.083v-4.937c0-0.446,0.025-0.354,0.483-0.354h2.74c0.144,0,1.411-0.058,1.411,0.051
		c0,0.838,0.257,1.125-0.6,1.125h-2.395c-0.561,0-0.284,0.927-0.284,1.393c0,0.084,1.62,0.04,1.788,0.04
		c1.026,0,1.109-0.208,1.109,0.845c0,0.408,0.058,0.393-0.332,0.393h-1.675c-0.106,0-0.891-0.057-0.891,0.045V37.762z"/>
	<path fill="#B99C65" d="M50.305,39.049h-4.332c-0.303,0-0.718,0.122-0.718-0.277v-4.757c0-0.263-0.167-1.236,0-1.455
		c0-0.241,3.872-0.115,4.269-0.115c0.711,0,0.6,0.216,0.6,0.919c0,0.758-0.741,0.487-1.361,0.487c-0.28,0-1.722-0.2-1.916,0
		c-0.108,0.113,0,0.849,0,1.014c0,0.311,0.239,0.188,0.521,0.188h2.233c0.222,0,0.323,1.468-0.072,1.468h-2.335
		c-0.672,0-0.251,1.123-0.331,1.123h2.864c0.151,0,0.698-0.105,0.698,0.167C50.421,37.959,50.533,39.049,50.305,39.049
		L50.305,39.049z M45.484,38.817h4.244c0.662,0,0.457-0.228,0.457-0.889c0-0.111-1.664-0.052-1.845-0.052
		c-0.153,0-1.736,0.126-1.736-0.115c-0.211-0.284-0.128-1.47,0.323-1.47h2.366c0.376,0,0.376-1.005,0-1.005h-2.366
		c-0.581,0-0.323-1.088-0.323-1.508c0-0.554,3.279,0.27,3.279-0.344c0-0.779,0.104-0.756-0.645-0.756h-2.747
		c-0.182,0-1.01-0.122-1.01,0.099v2.062L45.484,38.817L45.484,38.817z"/>
	<path fill="#FFFFFF" d="M36.294,28.423c0,4.492-6.979,4.476-6.965-0.033C29.341,23.913,36.294,23.95,36.294,28.423 M32.807,26.356
		c-2.483,0-2.741,3.823-0.237,4.11C35.34,30.784,35.573,26.356,32.807,26.356"/>
	<path fill="#B99C65" d="M32.81,32.013c-4.481,0-4.719-6.85-0.292-7.183C37.342,24.468,37.629,32.013,32.81,32.013z M32.789,25.052
		c-4.108,0-4.434,6.291-0.33,6.709C37.016,32.229,37.365,25.052,32.789,25.052z M32.794,30.594c-2.622,0-2.845-3.953-0.288-4.333
		C35.427,25.829,35.797,30.594,32.794,30.594z M32.807,26.471c-2.474,0-2.498,3.891-0.013,3.891
		C35.283,30.369,35.287,26.471,32.807,26.471z"/>
	<path fill="#FFFFFF" d="M43.509,28.448c-0.148,1.808-1.24,3.306-3.164,3.467c-1.677,0.141-3.278-1.033-3.663-2.672
		c-0.897-3.822,4.507-5.901,6.432-2.506c-0.247,0.124-1.053,0.715-1.302,0.654c-0.645-1.063-2.129-1.304-3.074-0.495
		c-2.338,2.002,1.52,5.23,3.116,2.564h-1.501c-0.503,0-0.278-0.587-0.278-1.018L43.509,28.448z"/>
	<path fill="#B99C65" d="M40.059,32.044c-2.642,0-4.357-2.899-3.181-5.226c1.211-2.397,4.635-2.607,6.165-0.415
		c0.433,0.621-0.555,0.78-1.039,1.026c-0.369,0.186-0.607-0.419-0.909-0.611c-0.522-0.332-1.18-0.381-1.753-0.148
		c-2.962,1.205,0.328,5.51,2.294,2.909c-0.675,0-1.677,0.331-1.677-0.517c0-0.21-0.128-0.734,0.189-0.733l1.311,0.001l1.635,0.003
		c0.455,0,0.56-0.068,0.497,0.489C43.389,30.651,41.934,32.044,40.059,32.044L40.059,32.044z M40.079,25.083
		c-2.804,0-4.395,3.41-2.56,5.538c2.057,2.389,5.599,0.877,5.864-2.055l-3.193-0.004c0,0.116-0.044,0.785,0.037,0.785h1.481
		c0.738,0-0.498,0.936-0.707,1.037c-0.792,0.375-1.753,0.241-2.396-0.357c-1.293-1.206-0.598-3.458,1.155-3.711
		c0.813-0.119,1.637,0.245,2.098,0.928c0.233,0.043,0.872-0.438,1.097-0.552C42.346,25.707,41.237,25.083,40.079,25.083z"/>
	<path fill="#FFFFFF" d="M50.363,30.015c-1.558,2.889-6.119,2.052-6.416-1.271c-0.317-3.559,4.597-5.134,6.357-1.99l-0.819,0.413
		c-0.661,0.337-0.491-0.069-1.095-0.444c-1.314-0.821-3.058,0.194-3.038,1.731c0.018,1.556,1.796,2.482,3.091,1.636
		c0.419-0.274,0.455-0.818,0.933-0.576L50.363,30.015z"/>
	<path fill="#B99C65" d="M47.329,31.949c-3.569,0-4.796-4.967-1.643-6.639c1.566-0.832,3.551-0.349,4.551,1.113
		c0.439,0.642-1.066,1.261-1.462,0.783c-1.106-1.338-3.32-0.467-3.31,1.24c0.019,1.886,2.635,2.54,3.534,0.872
		c0.14-0.257,1.416,0.552,1.418,0.837C49.467,31.109,48.837,31.949,47.329,31.949z M47.359,25.13c-2.568,0-4.198,2.958-2.763,5.107
		c1.341,2.007,4.388,1.911,5.606-0.173l-0.89-0.452c-0.277-0.142-0.729,0.564-1.07,0.724c-1.232,0.573-2.736-0.177-2.973-1.524
		c-0.259-1.465,1.091-2.797,2.559-2.449c0.207,0.048,1.357,0.826,1.302,0.854l1.012-0.511C49.552,25.736,48.496,25.13,47.359,25.13z
		"/>
	<path fill="#B99C65" d="M22.376,30.994c0.441,3.604,2.202,7.069,4.693,9.689c-0.391-0.555-1.105-0.602-1.661-0.902
		c-0.629-0.34-1.182-0.954-1.664-1.471c-0.875-0.937-1.61-2-2.188-3.145c-0.506-1.005-1.196-2.404-1.196-3.573
		c0.363,2.968,1.995,5.325,3.605,7.745c1.475,2.218,2.507,5.018,2.623,7.701c-0.338-1.191-1.474-2.394-2.223-3.341
		c-1.113-1.404-2.514-2.576-3.472-4.097c-1.297-2.055-2.272-4.521-2.791-6.9c0.803,3.869,2.536,7.391,4.822,10.595
		c1.004,1.405,2.128,2.75,2.928,4.286c0.383,0.735,0.676,1.51,0.863,2.316c0.158,0.677-0.025,2.04,0.349,2.599
		c-1.981-3.463-5.216-6.112-7.335-9.509c-1.177-1.892-2.169-3.901-2.952-5.985c-0.376-1.002-0.954-2.251-0.961-3.349
		c0.625,4.49,3.106,8.842,5.631,12.51c1.784,2.589,3.416,4.872,3.854,8.072c0.187,1.358,0.318,3.018-0.085,4.363
		c0.236-1.977-1.931-4.455-2.982-5.919c-1.527-2.126-3.263-4.103-4.739-6.266c-3.218-4.708-5.187-10.338-5.026-16.08
		c0.125-4.494,1.653-8.909,5.103-11.92c2.611-2.279,5.984-3.573,9.393-4.036c0.738-0.101,1.481-0.163,2.224-0.18
		c0.355-0.008,0.71-0.005,1.064,0.006c0.459,0.019,0.634,0.478,0.967,0.511c-3.724-0.278-2.109,5.885-1.864,7.921
		c-1.362,0.017-2.726,0.031-4.088,0.035c-0.658,0.002-0.74-0.043-1.069,0.484c-0.354,0.563-0.667,1.156-0.961,1.751
		c-0.715,1.451-0.667,2.558-0.101,4.132c0.559,1.556,1.614,2.982,3.06,3.816C24.752,33.532,23.05,32.213,22.376,30.994"/>
	<path fill="#B99C65" d="M57.704,30.994c-0.439,3.604-2.198,7.069-4.689,9.689c0.39-0.555,1.103-0.603,1.659-0.902
		c0.629-0.34,1.181-0.954,1.662-1.471c0.878-0.937,1.613-2,2.189-3.145c0.507-1.005,1.193-2.404,1.193-3.573
		c-0.362,2.969-1.992,5.324-3.604,7.745c-1.474,2.219-2.501,5.017-2.622,7.701c0.343-1.191,1.476-2.392,2.224-3.341
		c1.11-1.405,2.514-2.576,3.472-4.097c1.299-2.063,2.252-4.517,2.792-6.9c-0.806,3.866-2.541,7.392-4.826,10.595
		c-1.001,1.405-2.129,2.75-2.929,4.286c-0.382,0.735-0.674,1.51-0.861,2.316c-0.156,0.677,0.027,2.037-0.35,2.599
		c1.979-3.463,5.216-6.111,7.331-9.509c1.178-1.892,2.173-3.899,2.956-5.985c0.377-1,0.957-2.253,0.962-3.349
		c-0.622,4.49-3.104,8.842-5.627,12.51c-1.784,2.59-3.419,4.872-3.855,8.072c-0.188,1.351-0.327,3.026,0.084,4.363
		c-0.242-1.976,1.928-4.457,2.979-5.919c1.526-2.126,3.262-4.103,4.742-6.266c3.215-4.708,5.184-10.338,5.024-16.08
		c-0.126-4.493-1.653-8.909-5.103-11.92c-2.61-2.279-5.981-3.573-9.392-4.036c-0.738-0.101-1.479-0.163-2.227-0.18
		c-0.354-0.008-0.706-0.005-1.062,0.006c-0.458,0.019-0.636,0.478-0.969,0.511c3.727-0.278,2.111,5.884,1.865,7.921
		c1.361,0.017,2.725,0.031,4.085,0.035c0.655,0.002,0.739-0.043,1.072,0.484c0.352,0.563,0.665,1.154,0.959,1.751
		c0.716,1.452,0.665,2.558,0.1,4.132c-0.56,1.555-1.612,2.981-3.058,3.816C55.331,33.531,57.031,32.213,57.704,30.994"/>
	<path fill="#231F20" d="M46.456,22.54l-0.107-0.039L46.456,22.54z"/>
	<path fill="#231F20" d="M38.659,11.582"/>
	<g>
		<path fill="#231F20" d="M28.264,65.063c-0.285,0.266-0.642,0.524-0.771,0.607c-0.124,0.085-0.217,0.184-0.288,0.292
			C27.596,65.647,28.112,65.391,28.264,65.063L28.264,65.063z M32.961,59.793c-0.003-0.385,0.264-0.72,0.222-1.104
			c-0.588,0.59-0.571,1.406-0.308,2.144c-0.528-0.144-0.793-0.612-1.249-0.863c0.082,0.589,0.097,1.137-0.271,1.635
			c-0.079-0.32-0.205-0.632-0.376-0.915c-0.315,0.467-0.601,0.908-0.409,1.492c-0.387-0.285-0.288-0.845-0.367-1.256
			c-0.04,0.479-0.362,0.816-0.704,1.12c0.177-0.438,0.034-0.913-0.054-1.351c-0.521,0.378-1.182,0.507-1.794,0.286
			c0.896-0.217,1.676-1.796,0.381-1.156c0.056-1.018,0.936-1.576,1.285-2.467c-0.389,0.128-0.735-0.076-1.009-0.336
			c0.613,0.085,2.156-1.379,1.276-1.671c-0.089,0.553-0.325,0.809-0.878,0.908c1.088-1.059,0.203-3.768-0.515-4.82
			c-0.387,1.647,1.504,3.593,0.063,5.02c0.376-0.041,0.779-0.041,1.11-0.258c-0.282,0.604-0.947,0.674-1.531,0.555
			c0.316,0.346,0.655,0.721,1.139,0.809c-0.828,0.679-1.268,1.534-1.083,2.617c0.184-0.244,0.45-0.372,0.755-0.361
			c-0.241,0.813-1.041,0.885-1.764,0.904c0.546,0.6,1.282,0.7,2.033,0.468c-0.65,2.37-2.717,2.157-4.659,2.392
			c-2.048,0.243-1.262,2.288,0.056,2.959c-0.283,0.364-0.703,0.736-0.674,1.168c0.095,1.334,1.116,2.799,2.56,2.656
			c-0.532-0.253-1.3-0.589-1.321-1.28c1.35,0.037,0.733-1.959,1.241-2.679c0.228-0.323,2.212-1.374,2.189-1.578
			c0.008,0.081-0.007,0.16-0.041,0.232c0.381-0.359,0.626-0.736-0.041-0.75c0.498,0.17-0.388,0.343-0.493,0.403
			c-0.469,0.265-0.843,0.664-1.263,0.996c-1.028,0.807-0.749,1.474-1.111,2.606c-0.116-0.271-0.338-0.452-0.626-0.508
			c0.368,0.148,0.144,0.702,0.043,0.949c-0.212,0.53,0.169,1.016,0.568,1.331c-0.735-0.477-0.938-1.184-1.138-1.988
			c-0.122-0.487-0.313-0.439,0.108-0.854c0.239-0.237,0.508-0.664,0.886-0.682l-0.5-0.038c0.141-0.386,0.431-0.83,0.89-0.845
			c-0.67-0.23-0.253-0.388,0.217-0.593c0.362-0.155,0.821-0.333,0.71-0.821c-0.043,0.232-0.328,0.398-0.668,0.474
			c-0.592,0.383-1.058,0.832-1.344,1.491l-0.188,0.299c-0.334-0.303-0.98-1.132-0.824-1.665c-0.113,0.24-0.123,0.549,0,0.939
			c-0.413-0.485-0.511-1.416,0.107-1.789c0.66-0.401,1.575-0.073,2.291-0.081c0.869-0.012,1.813-0.45,2.402-1.084
			c0.47-0.506,0.453-1.54,1.048-1.887c0.1,0.519,0,0.988-0.159,1.483c0.262-0.117,0.499-0.285,0.696-0.493
			c-0.252,0.445-0.189,0.988,0.123,1.264c0.389,0.259,0.623,0.626,1.062,0.818c-0.335-0.524,1.973-1.381,1.96,0.519
			c-0.198-0.485-0.723-0.49-1.122-0.715c0.718,1.014-1.296,0.654-1.75,0.631c-1.398-0.072-1.085,1.807-1.852,2.49l-0.189-0.435
			c0.008,0.144-0.274,0.588-0.435,0.591c-0.134,0.438,0.032,0.877,0.235,1.26c-0.53-0.534-1.167-1.704-0.705-2.415
			c-0.235,0.188-0.43,0.398-0.46,0.66c-0.164,1.284,1.051,2.146,2.189,2.221c-0.653-0.267-1.329-0.744-1.136-1.547
			c0.177-0.248,0.672-0.101,0.898-0.329c0.367-0.376,0.486-0.911,0.715-1.366c0.465-0.932,1.121-0.474,1.927-0.491
			c0.404-0.006,1.518-0.274,1.185-0.889c0.688,0.241,0.292,1.137,0.149,1.609c0.604-0.906,1.107-2.983-0.603-3.041
			c-0.989-0.031-2.559,0.699-1.848-1.008c0.06,0.418,0.462,0.61,0.689,0.923c-0.069-0.556-0.128-1.118,0.066-1.658
			c0.11,0.232,0.349,0.604,0.188,0.866c0.648-0.077,0.979-0.543,0.934-1.18l0.59,0.363c0.252,0.095,0.513,0.146,0.784,0.145
			C33.23,60.794,32.966,60.323,32.961,59.793L32.961,59.793z M25.779,64.759l0.067-0.011l0.061-0.044L25.779,64.759z M32.708,61.112
			L32.65,61.09l0.078,0.035L32.708,61.112z M32.636,61.086l0.015,0.004l-0.011-0.004l0.016,0.004l-0.03-0.012L32.636,61.086z
			 M23.679,64.592c-0.104,0.075-0.156,0.173-0.188,0.279c0.06-0.124,0.146-0.234,0.264-0.322L23.679,64.592z M32.705,61.11
			L32.686,61.1l-0.031-0.01L32.705,61.11z M24.5,65.092c0.431,0.133,0.878-0.173,1.28-0.333c-0.563,0.106-1.242-0.024-1.257-0.508
			c-0.322,0.057-0.579,0.156-0.768,0.301C24.245,64.257,24.108,64.974,24.5,65.092z M24.897,57.854
			c0.1,0.405-0.031,0.852,0.537,0.811c0.584-2.505,0.143-5.396-0.873-7.736c-1-2.306-2.667-4.221-4.011-6.322
			c1.965,2.784,4.631,5.044,6.369,7.99c0.593-0.206,0.147-1.031,0.103-1.518c-0.129-1.375-0.531-2.642-1.188-3.86
			c-1.256-2.329-3.124-4.247-4.474-6.515c1.869,2.497,4.493,4.522,5.463,7.596c-0.203-3.392-1.152-6.684-3.095-9.497
			c0.414,0.395,0.84,0.797,1.342,1.082c0.546,0.312,1.291,0.304,1.76,0.752c0.109,0.123,0.302,0.172,0.347-0.056
			c-0.452-0.478-0.893-0.966-1.297-1.485c-1.7-2.185-2.898-4.799-3.292-7.547c0.9,1.135,2.416,2.039,3.84,1.316
			c-2.055-1.13-3.687-3.556-3.71-5.938c-0.012-1.329,0.887-2.843,1.667-3.875c0.41-0.542,1.785-0.268,2.45-0.27l2.679-0.013
			c-0.184-1.628-0.48-3.244-0.402-4.892c0.037-0.772,0.137-1.63,0.573-2.29c0.195-0.297,0.468-0.533,0.806-0.648
			c0.323-0.11,0.867,0.088,0.733-0.404c-0.706-0.793-2.102-0.515-3.078-0.458c-1.366,0.08-2.727,0.298-4.048,0.658
			c-2.481,0.673-4.875,1.843-6.796,3.571c-3.667,3.3-5.062,8.292-4.97,13.097c0.105,5.547,2.024,11.024,5.168,15.572
			c1.465,2.116,3.241,3.991,4.775,6.057c0.792,1.066,1.524,2.185,2.079,3.395C24.565,56.884,24.774,57.362,24.897,57.854
			L24.897,57.854z M17.004,45.109c-2.702-4.223-4.46-9.154-4.404-14.206c0.049-4.462,1.561-9.002,4.908-12.074
			c1.739-1.596,3.869-2.767,6.104-3.511c1.194-0.399,2.428-0.68,3.677-0.837c0.807-0.102,3.007-0.552,3.586,0.097
			c-0.121,0.015-0.431-0.026-0.261,0.029c-3.563,0.585-1.688,5.692-1.414,7.889c-1.483,0.026-3.225-0.206-4.676,0.073
			c-0.977,0.604-1.656,2.524-1.917,3.575c-0.583,2.353,1.473,5.49,3.362,6.685c-1.805,0.602-3.122-1.272-3.856-2.61
			c0.517,3.51,1.832,6.882,4.069,9.657c-1.682-0.693-3.095-2.675-4.062-4.157c-0.55-0.845-1.017-1.749-1.321-2.712
			c-0.106-0.337-0.059-1.611-0.579-1.403c0.344,2.585,1.724,4.781,3.11,6.928c1.549,2.397,2.619,4.806,3.017,7.656
			c-1.371-2.411-3.536-4.212-5.107-6.473c-0.845-1.216-1.533-2.548-2.077-3.922c-0.302-0.761-0.558-1.542-0.757-2.334
			c-0.076-0.302,0.024-0.963-0.437-0.734c0.74,3.44,2.26,6.644,4.169,9.583c1.854,2.858,4.763,5.73,4.639,9.39
			c-2.03-3.058-4.546-5.75-6.69-8.722c-1.063-1.474-2.038-3.022-2.784-4.682c-0.375-0.835-0.691-1.695-0.935-2.579
			c-0.095-0.341-0.343-2.249-0.684-2.056c-0.175,0.099,0.454,2.18,0.522,2.417c0.305,1.065,0.694,2.105,1.141,3.12
			c0.887,2.015,1.978,3.961,3.186,5.797c1.21,1.844,2.683,3.527,3.582,5.559c0.913,2.063,1.266,4.355,1.091,6.596
			C23.583,52.497,19.607,49.177,17.004,45.109L17.004,45.109z M67.609,28.163c-0.719-6.039-4.813-11.029-10.529-13.068
			c-0.788-0.279-8.493-1.93-8.229-0.472c0.068,0.373,0.996,0.335,1.36,0.683c0.429,0.412,0.579,0.99,0.674,1.557
			c0.274,1.963-0.084,3.957-0.315,5.904c1.638,0.001,3.274,0.024,4.913,0.008c0.827,0.997,1.79,2.5,1.876,3.827
			c0.158,2.483-1.576,5.088-3.7,6.26c1.429,0.729,2.924-0.194,3.84-1.313c-0.39,2.624-1.494,5.126-3.072,7.249
			c-0.374,0.503-0.776,0.988-1.207,1.446c-0.347,0.27-0.257,0.718,0.034,0.39c0.393-0.373,0.967-0.436,1.459-0.604
			c0.625-0.295,1.148-0.763,1.646-1.236c-1.998,2.899-2.883,6.028-3.101,9.502c0.974-3.066,3.587-5.093,5.456-7.583
			c-2.135,3.597-5.276,6.35-5.689,10.732c-0.018,0.171-0.358,1.275,0.145,1.139c0.604-1.005,1.32-1.938,2.067-2.837
			c1.428-1.711,2.996-3.307,4.284-5.128c-1.073,1.681-2.349,3.235-3.331,4.977c-1.127,1.996-1.689,4.223-1.725,6.512
			c-0.009,0.561,0.013,1.123,0.069,1.683c0.044,0.482-0.106,0.862,0.439,0.795c0.069-0.012,0.545-1.67,0.628-1.857
			c0.871-1.958,2.254-3.645,3.582-5.307c2.787-3.497,5.375-7.016,6.912-11.257C67.497,36.296,67.993,32.251,67.609,28.163z
			 M62.804,45.529c-2.577,3.896-6.36,7.117-7.938,11.621c-0.168-2.111,0.138-4.265,0.935-6.229c0.836-2.061,2.27-3.758,3.508-5.58
			c2.329-3.428,4.692-7.483,5.09-11.688c-0.531-0.163-0.397,0.862-0.473,1.198c-0.217,0.951-0.546,1.873-0.929,2.767
			c-0.747,1.743-1.665,3.454-2.708,5.037c-2.104,3.186-4.879,5.864-6.992,9.043c-0.152-3.14,2.081-5.683,3.766-8.093
			c1.852-2.648,3.41-5.506,4.411-8.589c0.245-0.752,0.458-1.517,0.637-2.289c-0.348-0.342-0.416,0.55-0.459,0.704
			c-0.466,1.667-1.066,3.305-1.903,4.824c-1.616,2.937-4.37,5.015-6.017,7.934c0.324-2.371,1.119-4.663,2.407-6.686
			c1.232-1.936,2.58-3.792,3.287-6.007c0.057-0.171,0.741-2.228,0.171-1.922c-0.182,1.104-0.576,2.167-1.096,3.155
			c-0.962,1.828-2.632,4.33-4.602,5.151c2.237-2.777,3.541-6.149,4.068-9.657c-0.719,1.339-2.05,3.213-3.845,2.609
			c2.061-1.306,3.768-4.1,3.391-6.595c-0.36-1.292-0.983-2.628-1.893-3.628c-0.458-0.235-1.43-0.058-1.953-0.065
			c-0.926-0.012-1.852-0.027-2.778-0.044c0.285-2.29,2.178-7.632-1.684-7.918c0.584-0.66,2.833-0.196,3.646-0.092
			c1.272,0.165,2.527,0.458,3.74,0.873c2.471,0.848,4.826,2.214,6.637,4.119c3.281,3.458,4.348,8.168,4.216,12.807
			C67.202,37.029,65.406,41.596,62.804,45.529L62.804,45.529z M67.63,28.321v0.004l0.003,0.031l0.036,0.336l-0.018-0.187
			l-0.044-0.428l-0.012-0.072v-0.014l-0.002-0.012l0.002,0.026l0.014,0.157l0.02,0.146L67.63,28.321L67.63,28.321z M54.797,63.131
			c-1.568,0.067-3.041-0.868-3.467-2.42c0.744,0.251,1.493,0.122,2.034-0.462c-0.707-0.028-1.552-0.08-1.763-0.906
			c0.307-0.015,0.572,0.115,0.757,0.359c0.168-1.078-0.24-1.953-1.089-2.616c0.486-0.084,0.819-0.465,1.141-0.804
			c-0.582,0.101-1.254,0.058-1.528-0.561c0.327,0.222,0.732,0.221,1.106,0.256c-1.646-1.613,0.988-3.927-0.247-5.72
			c-0.319,0.883-0.067,1.876-0.313,2.783c-0.239,0.87-0.623,1.99,0.108,2.737c-0.611-0.111-0.55-0.764-1.037-0.916
			c-0.002,0.882,0.408,1.807,1.437,1.683c-0.27,0.257-0.618,0.469-1.006,0.33c0.364,0.883,1.186,1.474,1.288,2.475
			c-0.313-0.16-0.921-0.387-0.734,0.208c0.157,0.507,0.608,0.841,1.116,0.942c-0.606,0.23-1.278,0.082-1.797-0.286
			c-0.098,0.435-0.24,0.918-0.055,1.353c-0.344-0.294-0.647-0.671-0.746-1.122c-0.094,0.387,0.133,1.03-0.322,1.257
			c0.196-0.585-0.099-1.028-0.41-1.493c-0.153,0.295-0.276,0.604-0.376,0.919c-0.317-0.414-0.024-1.401-0.425-1.677
			c-0.234,0.457-0.593,0.774-1.097,0.903c0.217-0.555,0.313-1.218-0.002-1.754c-0.234,0.265-0.043,0.629-0.096,0.956
			c-0.071,0.438-0.292,0.827-0.495,1.214c0.507-0.029,0.981-0.171,1.374-0.51c-0.041,0.64,0.289,1.095,0.934,1.181
			c-0.15-0.268,0.08-0.631,0.193-0.867c0.192,0.543,0.14,1.104,0.067,1.66c0.211-0.293,0.632-0.553,0.691-0.922
			c0.668,1.654-0.716,1.021-1.716,0.99c-1.803-0.051-1.379,2.093-0.737,3.053c-0.136-0.443-0.543-1.416,0.149-1.611
			c-0.41,0.709,0.913,0.844,1.323,0.854c0.838,0.029,1.442-0.229,1.883,0.687c0.186,0.384,0.312,0.82,0.667,1.091
			c0.245,0.187,0.912,0.303,1.001,0.621c0.002-0.119-0.007-0.235-0.036-0.358c-0.148,0.015-0.44-0.464-0.432-0.591l-0.19,0.438
			c-0.793-0.656-0.444-2.494-1.807-2.466c-0.44,0.008-2.489,0.339-1.796-0.653c-0.407,0.229-0.923,0.216-1.121,0.718
			c-0.008-1.954,2.272-1.006,1.958-0.519c0.698-0.301,1.669-1.249,1.19-2.08c0.183,0.219,0.421,0.39,0.69,0.492
			c-0.153-0.505-0.268-0.959-0.156-1.486c0.359,0.217,0.394,0.674,0.51,1.032c0.137,0.424,0.446,0.796,0.777,1.083
			c0.653,0.563,1.352,0.717,2.19,0.732c0.92,0.014,2.763-0.087,2.702,1.179c-0.051,0.303-0.143,0.578-0.339,0.823
			c0.135-0.41,0.12-0.727-0.011-0.976c0.119,0.531-0.451,1.365-0.794,1.676l-0.132-0.17c-0.432-0.675-0.724-1.147-1.397-1.589
			c-0.354-0.074-0.649-0.241-0.684-0.48c-0.22,0.919,1.355,0.628,1.336,1.29c-0.1,0.123-0.239,0.165-0.412,0.117
			c0.459,0.021,0.743,0.462,0.889,0.847l-0.499,0.039c1.898,0.085,0.764,2.932-0.146,3.52c0.361-0.284,0.687-0.68,0.627-1.174
			c0.021-0.321-0.51-0.909-0.019-1.109c-0.285,0.063-0.506,0.243-0.622,0.51c-0.233-0.46-0.122-0.968-0.185-1.458
			c-0.074-0.54-0.48-0.839-0.864-1.171c-0.386-0.335-0.783-0.672-1.229-0.923c-0.122-0.073-1.078-0.284-0.59-0.46
			c-1.113,0.036,0.3,1.043,0.61,1.256c1.01,0.68,0.424,2.126-0.297,2.814c0.104-0.2,0.192-0.403,0.236-0.613
			c-0.188,0.455-0.929,0.941-1.253,1.076c1.245-0.083,2.408-1.044,2.181-2.41c-0.13-0.777-0.702-0.898-1.278-1.246
			c-0.405-0.238-0.293-0.634,0.131-0.269c0.6,0.514,1.86,1.205,2.035,1.968c0.171,0.749-0.2,2.233,0.995,2.199
			c-0.026,0.694-0.787,1.025-1.322,1.279c1.477,0.154,2.474-1.417,2.563-2.723c0.024-0.364-0.397-0.784-0.665-1.11
			c0.794-0.388,1.496-0.887,1.438-1.86C57.265,62.824,55.782,63.089,54.797,63.131z M54.343,64.226l0.074,0.056l0.091,0.011
			L54.343,64.226z M57.398,64.189l0.001,0.008l-0.002-0.018l0,0l-0.006-0.081l0.006,0.085l-0.001,0.008l0.002,0.006l0.001,0.015
			l0.001-0.001v-0.003l-0.001-0.002L57.398,64.189z M55.707,64.546c0.252-0.093,0.402-0.54,0.631-0.569
			c-0.169-0.093-0.373-0.161-0.615-0.203c-0.021,0.467-0.661,0.604-1.213,0.519C54.88,64.44,55.333,64.682,55.707,64.546z
			 M57.397,64.174V64.17l-0.006-0.071l-0.009-0.115L57.397,64.174z M56.338,63.977c0.185,0.1,0.315,0.229,0.402,0.39l-0.094-0.203
			C56.525,64.009,56.426,63.965,56.338,63.977z M52.606,66.998l-0.033,0.291c0.038-0.095,0.063-0.188,0.042-0.276L52.606,66.998z
			 M45.417,21.265c0.31-0.008,0.699-0.071,0.887-0.357c-1.391-1.285-1.162-3.166-1.106-4.879l0.24,0.296
			c-0.042-0.697-0.583-1.388-0.459-2.093c0.161,0,0.313,0.03,0.461,0.089c-0.277-0.93-1.231-1.229-1.725-1.995
			c0.447-0.083,0.947-0.167,1.406-0.103c-0.474-0.064-1.318-0.918-1.781-0.718c0.62-0.271,1.277-0.449,1.933-0.609
			c-0.282-0.121-2.351-0.546-2.507-0.292c0.217-0.371,0.574-0.637,0.783-1.016c-0.929,0.284-1.754,0.546-2.73,0.565
			c-0.844,0.014-1.782,0.014-2.508,0.507c0.534-0.604-0.583-0.056-0.897,0.03c-0.435,0.119-1.023,0.178-1.404,0.432
			c-0.512,0.341-0.597,0.951-1.176,1.275c-1.513,0.845-1.905,1.936-0.933,3.345c0.317-0.324,2.646-1.218,2.652-0.379
			c0.004,0.673-1.347,1.476-1.912,1.576c0.656,0.588,1.553,0.851,2.405,0.559c-0.192,1.667-1.405,2.552-3.015,2.689
			c0.177,0.502,0.53,0.932,0.998,1.187c-1.021,0.488-1.457,1.711-2.54,2.116c0.676-0.079,1.284-0.442,1.825-0.838
			c0.658-0.482,1.024-1.015,1.835-0.993c-0.227,0.314-0.508,0.58-0.755,0.877c0.717,0.185,1.117-0.983,1.437-1.453
			c-0.785,0.598-1.986,0.057-2.441-0.716c1.208-0.157,2.292-0.718,2.792-1.877c0.493-1.138,0.515-2.573,1.516-3.435
			c-1.279,0.652-1.398,2.409-3.197,1.921c0.499-0.146,0.924-0.418,1.257-0.82c0.395-0.478,0.933-0.94,0.253-1.32
			c-0.918-0.514-2.337-0.46-3.187,0.183c-0.534-1.038,0.09-2.164,1.317-1.761c-0.011,0.287-0.576,0.208-0.715,0.109
			c0.021,0.225,0.397,0.276,0.559,0.286c0.451,0.027,0.557-0.308,0.957-0.135c0.883,0.382,1.624,0.994,2.611,1.105
			c-0.446-0.22-1.068-0.344-1.222-0.895c0.429-0.171,0.985-0.071,1.365-0.361c-0.461,0.041-1.483,0.284-1.762-0.253
			c0.458,0.171,1.003,0.172,1.442-0.055c0.595-0.311,0.452-0.882,0.767-1.371c0.678-1.056,2.619-1.043,3.636-1.624
			c-0.532,0.513-0.999,1.072-1.502,1.615c0.664-0.363,1.397-0.599,2.156-0.639c-0.558,0.032-0.883,0.713-1.352,0.937
			c0.406-0.043,1.211-0.492,1.525-0.028c-0.588-0.084-0.674,0.754-1.068,0.792c0.968-0.073,1.719,0.552,2.343,1.215
			c-0.186,0.011-0.368,0.011-0.555,0c0.132,0.452,0.699,0.727,0.642,1.245l-0.181-0.118c0.008,1.04,0.068,2.079-0.024,3.118
			c-0.085,1.028,0.434,1.862,1.002,2.666c-0.677-0.01-1.878,0.067-1.978-0.858c-0.03,0.482,0.141,2.752,0.964,2.527
			c-0.267-0.473-0.52-0.952-0.644-1.484c0.914,0.317,1.46,1.144,2.344,1.488c0.388,0.147,0.802,0.31,1.228,0.315
			C46.741,22.648,46.113,21.861,45.417,21.265z M37.167,12.905c0.017-0.217,0.135-0.362,0.356-0.43l0.297,0.58
			C37.632,13.099,37.267,13.141,37.167,12.905z M38.076,12.949l-0.23,0.098c0.059-0.256,0.028-0.556-0.036-0.807
			c0.106,0.031,0.352-0.191,0.542-0.13C38.568,12.184,38.181,12.87,38.076,12.949z M38.672,11.572l-0.042,0.023
			c-0.585,0.298-1.497,0.254-1.76,0.986c-0.064,0.047-0.042,0.356-0.17,0.332c-0.363-0.069-0.571-0.378-0.99-0.332
			c0.391,0.453,1.094,0.791,1.369,1.328c-0.623-0.508-1.405-0.766-2.119-1.111c0.379-0.35,0.711-0.867,1.114-1.167
			c0.551-0.41,1.346-0.094,1.949-0.496l-0.072,0.195c0.51-0.176,1.052-0.242,1.555-0.442C39.155,11.025,38.991,11.39,38.672,11.572z
			"/>
	</g>
	<path fill="#231F20" d="M40.999,22.536l0.073-0.078L40.999,22.536z"/>
	<path fill="#231F20" d="M41.075,22.458"/>
	<path fill="#231F20" d="M67.596,28.006"/>
</g>
</svg>
