<?xml version="1.0" encoding="utf-8"?>
<!-- Generator: Adobe Illustrator 16.0.0, SVG Export Plug-In . SVG Version: 6.00 Build 0)  -->
<!DOCTYPE svg PUBLIC "-//W3C//DTD SVG 1.1//EN" "http://www.w3.org/Graphics/SVG/1.1/DTD/svg11.dtd">
<svg version="1.1" id="Calque_1" xmlns="http://www.w3.org/2000/svg" xmlns:xlink="http://www.w3.org/1999/xlink" x="0px" y="0px"
	 width="80px" height="80px" viewBox="0 0 80 80" enable-background="new 0 0 80 80" xml:space="preserve">
<path fill="#9A8348" d="M66.64,14.1H13.36l-0.005,45.43c0,2.793,0.75,4.952,2.229,6.42c1.468,1.457,3.618,2.146,6.388,2.224
	c7.983,0.224,13.015,1.993,16.959,6.423L40,75.9l1.068-1.304c3.945-4.43,8.977-6.199,16.96-6.422
	c2.769-0.078,4.919-0.767,6.388-2.224c1.48-1.469,2.229-3.628,2.229-6.421L66.64,14.1z"/>
<path fill="#00529B" d="M58.028,66.765C49.69,67.032,43.978,68.924,40,73.497c-3.977-4.573-9.69-6.465-18.028-6.732
	c-4.789-0.15-7.235-2.374-7.235-7.234l0.003-24.697h50.521l0.002,24.697C65.263,64.391,62.817,66.612,58.028,66.765z"/>
<path fill="#EE3524" d="M14.743,15.482h50.514l0.002,17.967H14.74L14.743,15.482z"/>
<path fill="#9A8348" d="M45.987,38.374v24.788h15.805v-7.883h-7.064V38.374H45.987z"/>
<path fill="#FFFFFF" d="M53.652,39.45v16.903h7.064v5.733H47.063V39.45H53.652z"/>
<path fill="#9A8348" d="M17.227,50.768c0,7.166,5.829,12.996,12.995,12.996c7.166,0,12.996-5.83,12.996-12.996
	s-5.83-12.994-12.996-12.994C23.056,37.773,17.227,43.602,17.227,50.768z"/>
<path fill="#FFFFFF" d="M18.366,50.768c0-6.537,5.319-11.855,11.856-11.855c6.538,0,11.856,5.318,11.856,11.855
	c0,6.538-5.318,11.855-11.856,11.855C23.685,62.623,18.366,57.304,18.366,50.768z"/>
<path fill="#9A8348" d="M37.121,43.398c-0.73,0.303-1.083-0.235-1.183-0.604c-0.434,0.433-0.194,0.969-0.022,1.119
	c-0.142,0.074-0.734,0.412-0.761,1.139c0.6,0.17,1.164-0.106,1.337-0.229c0.038,0.195,0.306,0.527,0.878,0.416
	c-0.295-0.313-0.434-0.877-0.013-1.11l0.109-0.057c0.618-0.266,0.984,0.197,1.083,0.419c0.204,0.455,0.027,1.002-0.394,1.217
	l-2.764,1.429c-1.417,0.714-1.276,2.046-0.97,2.655l1.269,2.517c0.237,0.5-0.117,0.846-0.371,0.962
	c-0.406,0.187-0.895,0.025-1.088-0.351l-1.707-3.336c0.096,0.075,0.352,0.17,0.578,0.067c-0.75-1.217,0.58-1.169,0.144-2.268
	c0.098,0.129,0.413,0.209,0.567,0.153c-0.668-1.503,0.843-1.487,0.075-2.677c0.082,0.067,0.403,0.046,0.538-0.067
	c-0.936-0.934-0.093-1.565-1.234-1.947c0.166,0.007,0.375-0.167,0.417-0.364c-0.783,0.055-1.156-0.956-2.278-0.813
	c-0.458,0.058-0.863,0.183-1.274,0.313c-0.236,0.074-0.414-0.012-0.63,0.097c-0.083,0.082-0.174,0.341-0.174,0.341
	c-0.292,0.063-0.771,0.196-0.902,0.339c-0.04,0.148-0.001,0.288,0.057,0.402l0.084,0.106c0.083,0.412,0.216,0.771,0.453,0.984
	l0.693-0.171c0,0,0.55,0.304,0.727,0.762c0.104,0.266,0.06,0.433-0.265,0.437c-0.279,0.004-0.825-0.113-1.042-0.148
	c-0.091,0.235-0.134,0.685,0.07,0.839c0.111,0.082,0.695,0.055,0.874,0.04c-0.044,0.636-0.502,1.024-1.289,0.769
	c-2.253-0.73-3.698-0.941-4.518-2.772c0.03-0.127,0.188-1.38-0.716-1.699c0.112,0.352,0.207,0.762,0.108,1.104
	c-0.149-0.582-0.585-0.966-1.27-0.897c0.388,0.275,0.629,0.621,0.632,0.974c-0.288-0.212-0.818-0.282-1.21-0.114
	c1.865,0.844,1.229,2.281,0.407,2.413c0.34,0.281,0.89,0.204,1.223,0l1.118,1.429c-0.208,0.044-0.414,0.209-0.492,0.351
	c0.226-0.015,0.584,0.023,0.734,0.169c0.083,0.228,0.195,0.631,0.046,1.216c0.438-0.229,0.615-0.544,0.676-0.83l1.644,0.964
	c-0.83,0.437-3.309,1.684-4.577,1.101c-0.193-0.091-1.438-0.625-2.127,0.074c0.466-0.018,0.919,0.175,1,0.361
	c-0.479,0.053-1.06,0.262-1.207,0.797c0.181-0.115,0.788-0.157,1.099-0.105c-0.273,0.217-0.491,0.604-0.458,1.105
	c0,0,1.002-0.926,1.824-0.688c0.383,0.11,0.197,0.781,0.121,0.942c0.622-0.09,0.779-0.705,0.781-0.755l1.913-0.079
	c0.129,0.063,0.183,0.335,0.065,0.553c0.328-0.091,0.473-0.283,0.555-0.593c0.401,0.048,0.624,0.321,0.67,0.73
	c0.279-0.288,0.241-0.732,0.127-0.962l2.083-0.503l0.724,0.799c0,0-3.729,2.331-5,2.271c0.197,0.449,1.11,0.398,1.532,0.24
	c-0.129,0.234-0.037,0.573-0.037,0.573s0.281,0.018,0.573-0.353c0,0,0.56,1.116,0.47,1.313c-0.262,0.575-2.086,0.698-2.086,0.698
	c-0.332-0.264-1.244-0.571-1.753-0.186c0.391,0.017,0.705,0.314,0.754,0.5c-0.213,0.001-0.96,0.09-1.128,0.783
	c0.418-0.192,0.924-0.192,1.079-0.107c-0.236,0.169-0.53,0.563-0.453,1.051c0.538-0.568,1.286-0.825,1.782-0.713
	c0.291,0.064,0.308,0.5,0.223,0.811c0.414-0.107,0.653-0.536,0.741-0.761l1.994-0.623c0,0,0.065,0.178,0.061,0.462
	c0.25-0.028,0.496-0.336,0.514-0.557c0,0,0.375,0.569,0.964,0.47c-0.342-0.578-0.813-2.063-0.811-2.444
	c0.003-0.481,1.456-0.768,1.7-0.84l0.705,1.027c0,0-0.715,0.351-0.839,0.81c0.627-0.278,1.134-0.25,1.294-0.211
	c0.138,0.146,0.275,0.403,0.332,0.71c0.137-0.089,0.314-0.347,0.332-0.61c1.595,0.505,1.598,0.751,1.209,2.36
	c-0.724-0.07-1.879-0.106-2.129,0.633c0.438-0.122,0.941-0.044,1.213,0.061c-0.338,0.117-0.947,0.469-0.801,1.168
	c0,0,0.589-0.66,1.266-0.543c-0.364,0.225-0.816,0.693-0.417,1.277c0.359-0.741,1.201-0.815,1.553-0.745l0.499-1.08
	c0.203-0.441,0.763-0.385,0.825,0.173c0.528-0.647-0.065-1.359-0.236-1.442l0.457-0.98c0.147,0.015,0.525,0.109,0.748-0.152
	c-0.233-0.07-0.437-0.224-0.528-0.384c0.234,0.017,0.853,0.11,1.146-0.294c-0.995-0.198-3.314-1.612-3.489-2.483
	c0.453,0.367,1.112,0.475,1.683,0.219c0.367-0.165,0.647-0.451,0.792-0.812c0.412-0.851,1.5-0.159,1.669-1.734
	c-0.436,0.617-1.395,0.206-1.584,0.972c-0.385-1.695,2.063-0.587,2.081-3.151c-0.604,1.049-2.766,0.676-2.587,1.999
	c-0.925-2.736,3.222-0.964,2.994-4.516c-0.809,1.604-4.024,1.181-3.72,3.077l-0.176-0.35c-0.243-0.499-0.188-1.196,0.568-1.605
	l2.836-1.463c0.773-0.396,1.098-1.349,0.74-2.199C39.021,43.666,38.218,42.884,37.121,43.398L37.121,43.398z M29.63,42.694
	c0,0-0.068-0.219,0.208-0.273c0.309-0.061,0.603,0.124,0.854,0.21C30.534,42.822,29.926,42.937,29.63,42.694z M29.641,44.352
	c-1.221,0.548-2.239,0.515-3.174-0.008C26.671,45.005,28.442,45.871,29.641,44.352z"/>
<g>
	<path fill="#FFFFFF" d="M32.152,30.955c-0.464,0.45-1.03,0.701-1.782,0.701c-0.752,0-1.328-0.251-1.791-0.701
		c-0.667-0.648-0.65-1.447-0.65-2.554c0-1.106-0.018-1.906,0.65-2.553c0.463-0.451,1.039-0.703,1.791-0.703
		c0.751,0,1.317,0.252,1.782,0.703c0.667,0.646,0.659,1.446,0.659,2.553C32.812,29.508,32.82,30.307,32.152,30.955z M31.196,26.604
		c-0.186-0.208-0.473-0.342-0.826-0.342s-0.65,0.135-0.836,0.342c-0.25,0.271-0.315,0.566-0.315,1.798
		c0,1.231,0.065,1.528,0.315,1.797c0.187,0.206,0.483,0.342,0.836,0.342s0.641-0.136,0.826-0.342
		c0.251-0.27,0.324-0.566,0.324-1.797C31.521,27.169,31.447,26.874,31.196,26.604z M21.978,30.487h-2.767v-5.216l-0.068-0.07h-1.153
		l-0.069,0.07v6.262l0.069,0.068h3.986l0.068-0.068v-0.979L21.978,30.487z M26.944,25.201h-1.299l-1.216,2.581l-1.233-2.581h-1.333
		l-0.045,0.045l1.962,3.73v2.557l0.069,0.068h1.144l0.069-0.068v-2.557l1.951-3.707L26.944,25.201z M38.517,25.201l-0.069,0.07v3.85
		l-2.618-3.92h-1.083l-0.068,0.07v6.262l0.068,0.068H35.9l0.069-0.068v-3.859l2.617,3.927h1.083l0.067-0.068v-6.262l-0.067-0.07
		H38.517z M51.525,25.271l-0.068-0.069h-0.928l-0.065,0.066l-2.36,6.284l0.051,0.051h1.276l0.399-1.133h2.347l0.392,1.133h1.276
		l0.051-0.05L51.525,25.271z M50.191,29.418l0.836-2.329l0.808,2.329H50.191z M55.145,25.201l-0.068,0.069v6.263l0.068,0.068h1.152
		l0.068-0.068v-6.262l-0.068-0.07H55.145z M45.665,25.201l-0.068,0.07v3.85l-2.617-3.92h-1.083l-0.07,0.07v6.262l0.07,0.068h1.152
		l0.069-0.068v-3.859l2.617,3.927h1.082l0.07-0.068v-6.262l-0.07-0.07H45.665z M62.187,28.357c-0.279-0.251-0.659-0.413-1.263-0.494
		l-0.78-0.107c-0.269-0.035-0.483-0.135-0.612-0.251c-0.14-0.125-0.194-0.296-0.194-0.458c0-0.44,0.334-0.808,1.02-0.808
		c0.421,0,0.899,0.052,1.308,0.401l0.095-0.005l0.722-0.692v-0.089c-0.555-0.498-1.201-0.706-2.086-0.706
		c-1.429,0-2.301,0.8-2.301,1.942c0,0.539,0.156,0.953,0.473,1.259c0.298,0.279,0.716,0.45,1.281,0.53l0.798,0.107
		c0.307,0.045,0.455,0.108,0.584,0.225c0.14,0.126,0.205,0.315,0.205,0.539c0,0.512-0.408,0.792-1.171,0.792
		c-0.589,0-1.137-0.128-1.548-0.498l-0.097,0.005l-0.737,0.713v0.097c0.64,0.6,1.387,0.797,2.364,0.797
		c1.382,0,2.45-0.701,2.45-1.941C62.697,29.147,62.539,28.681,62.187,28.357z M21.579,23.217c-0.442,0.441-0.98,0.689-1.697,0.689
		c-0.715,0-1.263-0.248-1.705-0.689c-0.637-0.636-0.619-1.422-0.619-2.509s-0.019-1.873,0.619-2.51
		c0.442-0.442,0.99-0.689,1.705-0.689c0.716,0,1.256,0.247,1.697,0.689c0.635,0.637,0.626,1.423,0.626,2.51
		S22.214,22.58,21.579,23.217z M20.668,18.94c-0.177-0.204-0.451-0.336-0.787-0.336c-0.335,0-0.618,0.133-0.794,0.336
		c-0.239,0.265-0.301,0.557-0.301,1.767s0.062,1.502,0.301,1.766c0.177,0.204,0.458,0.336,0.794,0.336
		c0.336,0,0.61-0.132,0.787-0.336c0.238-0.264,0.31-0.556,0.31-1.766S20.907,19.206,20.668,18.94z M51.416,23.423l-0.49-0.49
		c0.398-0.583,0.388-1.281,0.388-2.226c0-1.087,0.011-1.873-0.625-2.51c-0.442-0.442-0.982-0.689-1.696-0.689
		c-0.715,0-1.265,0.247-1.705,0.689c-0.637,0.637-0.618,1.423-0.618,2.51s-0.02,1.873,0.618,2.509
		c0.442,0.441,0.99,0.689,1.705,0.689c0.494,0,0.92-0.114,1.271-0.344l0.508,0.508h0.098l0.547-0.548V23.423z M49.972,21.979
		l-0.469-0.468l-0.652,0.645l0.547,0.539c-0.113,0.08-0.255,0.115-0.407,0.115c-0.334,0-0.618-0.132-0.794-0.336
		c-0.238-0.265-0.301-0.556-0.301-1.766s0.063-1.502,0.301-1.768c0.177-0.203,0.46-0.336,0.794-0.336
		c0.336,0,0.609,0.133,0.788,0.336c0.238,0.266,0.309,0.558,0.309,1.768C50.087,21.343,50.068,21.705,49.972,21.979L49.972,21.979z
		 M27.062,22.756h-2.51v-5.125l-0.068-0.069h-1.091l-0.069,0.069v6.152l0.069,0.069h3.669l0.07-0.069v-0.957L27.062,22.756z
		 M31.28,17.562h-1.23l-1.158,2.535l-1.175-2.535h-1.231l-0.069,0.069l1.857,3.642v2.51l0.069,0.069h1.08l0.07-0.069v-2.51
		l1.856-3.642L31.28,17.562z M36.617,17.562l-1.633,3.401l-1.644-3.401h-1.143l-0.069,0.069v6.153l0.07,0.068h1.089l0.07-0.068
		v-3.598l1.211,2.386h0.829l1.202-2.386v3.597l0.069,0.069h1.09l0.07-0.068v-6.153l-0.069-0.069H36.617z M45.535,17.562h-1.091
		l-0.067,0.069v6.153l0.067,0.068h1.091l0.069-0.069v-6.152L45.535,17.562z M55.874,17.562l-0.068,0.068v4.022
		c0,0.724-0.434,1.157-1.095,1.157c-0.663,0-1.088-0.433-1.088-1.157v-4.022l-0.067-0.068h-1.091l-0.068,0.068v4.066
		c0,1.334,1.023,2.209,2.314,2.209c1.29,0,2.314-0.875,2.314-2.209v-4.066l-0.067-0.068H55.874L55.874,17.562z M59.377,22.756
		v-1.527h2.412l0.07-0.069v-0.958l-0.07-0.069h-2.412v-1.475h2.846l0.069-0.07v-0.957l-0.069-0.069h-4.005l-0.069,0.069v6.152
		l0.069,0.069h4.005l0.069-0.069v-0.957l-0.069-0.07H59.377z M41.444,17.562h-2.37l-0.068,0.068v6.153l0.068,0.068h1.091
		l0.068-0.068v-2.08h1.211c1.299,0,2.076-1.001,2.076-2.071S42.743,17.562,41.444,17.562z M41.382,20.601h-1.146v-1.943h1.146
		c0.558,0,0.911,0.463,0.911,0.976C42.293,20.145,41.939,20.601,41.382,20.601z"/>
</g>
</svg>
