<?xml version="1.0" encoding="utf-8"?>
<!-- Generator: Adobe Illustrator 16.0.0, SVG Export Plug-In . SVG Version: 6.00 Build 0)  -->
<!DOCTYPE svg PUBLIC "-//W3C//DTD SVG 1.1//EN" "http://www.w3.org/Graphics/SVG/1.1/DTD/svg11.dtd">
<svg version="1.1" id="Calque_1" xmlns="http://www.w3.org/2000/svg" xmlns:xlink="http://www.w3.org/1999/xlink" x="0px" y="0px"
	 width="80px" height="80px" viewBox="0 0 80 80" enable-background="new 0 0 80 80" xml:space="preserve">
<path fill="#9A8348" d="M41.827,7.438h3.438l-2.768,2.019l1.07,3.263l-2.791-2.001l-2.774,2.028l1.041-3.274l-2.786-2.035h3.438
	l1.053-3.265L41.827,7.438"/>
<path fill="#6DB7E7" d="M34.042,36.441"/>
<path fill="#009DDD" d="M59.867,53.261c-0.145-0.395-0.313-0.851-0.498-1.347c3.035-3.438,4.844-7.739,4.844-12.411
	c0-8.033-5.337-14.978-13.092-18.301c0.348-1.579,0.952-3.292,1.633-4.502c0.264-0.437,0.561-0.859,0.88-1.247l0.09-0.093
	l-0.008-0.009c0.493-0.581,0.966-1.01,1.344-1.305l-0.32-0.748c-1.56,0.688-4.846,2.252-6.866,4.078
	c-0.972-0.904-2.787-1.827-4.13-2.251l-0.255,0.615c0.17,0.175,0.187,0.201,0.286,0.371l0.011,0.015l0.012,0.015
	c0.831,1.112,1.27,2.241,1.47,3.352c-1.446-0.243-2.94-0.375-4.468-0.375c-1.521,0-3.006,0.131-4.445,0.373
	c0.201-1.11,0.639-2.236,1.47-3.349l0.01-0.015l0.009-0.015c0.1-0.17,0.117-0.195,0.285-0.371l-0.253-0.615
	c-1.345,0.424-3.16,1.348-4.13,2.251c-2.02-1.825-5.306-3.391-6.865-4.078l-0.32,0.748c0.377,0.295,0.851,0.722,1.342,1.305
	l-0.007,0.009l0.091,0.093c0.317,0.388,0.615,0.81,0.877,1.247c0.679,1.208,1.283,2.917,1.633,4.494
	c-7.765,3.319-13.111,10.269-13.111,18.309c0,4.723,1.851,9.068,4.947,12.524c-0.168,0.454-0.321,0.867-0.454,1.233
	c-1.669,3.63-4.034,5.672-5.361,6.599l0.308,0.641c5.672-0.796,7.609-0.2,8.872-0.002l1.527-4.391
	c3.83,2.377,8.513,3.781,13.576,3.781c5.103,0,9.82-1.427,13.666-3.837l1.568,4.447c1.262-0.199,3.205-0.796,8.88,0l0.314-0.641
	C63.9,58.932,61.534,56.891,59.867,53.261z M58.46,39.503c0,2.367-0.447,4.621-1.232,6.698c-2.599-7.011-5.898-16.433-6.346-21.749
	C55.458,27.769,58.46,33.268,58.46,39.503z M45.369,21.8c-0.084,1.209-0.341,2.369-0.583,3.422l-0.256,1.157
	c-0.003,0.007-3.196,12.848-3.721,14.854c-0.522-2.007-3.719-14.848-3.72-14.854l-0.256-1.157c-0.244-1.056-0.5-2.218-0.583-3.431
	c1.452-0.4,2.97-0.635,4.544-0.635C42.38,21.156,43.908,21.393,45.369,21.8z M23.131,39.503c0-6.25,3.015-11.763,7.611-15.076
	c-0.437,5.357-3.733,14.916-6.316,21.957C23.598,44.257,23.131,41.938,23.131,39.503z M40.795,57.851
	c-4.81,0-9.166-2.004-12.352-5.243l5.628-16.165c0.528,2.022,1.653,6.214,1.652,6.207l0.244,1.092
	c0.245,1.069,0.441,1.923,0.441,2.717c0,1.181-0.433,2.229-1.781,3.646l0.219,0.646c0.694,0.434,1.973,0.813,2.89,0.854
	c0.292,1.397,1.926,3.526,3.072,4.512c1.146-0.985,2.782-3.114,3.072-4.512c0.919-0.042,2.198-0.423,2.893-0.854l0.221-0.646
	c-1.349-1.418-1.784-2.468-1.784-3.646c0-0.794,0.196-1.647,0.441-2.717l0.245-1.092c-0.003,0.009,1.122-4.186,1.652-6.207
	l5.678,16.092C50.034,55.819,45.644,57.851,40.795,57.851z"/>
<path fill="#9A8348" d="M19.058,65.799c0,1.032-0.323,1.167-0.728,1.167h-0.485v-2.145h0.445
	C18.727,64.817,19.058,64.931,19.058,65.799z M20.651,65.83c0-0.761-0.283-1.274-0.921-1.569c-0.453-0.209-0.954-0.231-1.343-0.231
	h-1.988v3.731h2.045c0.76,0,1.212-0.164,1.569-0.447C20.521,66.911,20.651,66.407,20.651,65.83 M23.222,64.817
	c0.453,0,0.671,0.087,0.671,0.354c0,0.252-0.169,0.405-0.663,0.405h-0.413v-0.76H23.222z M25.744,67.761
	c-0.186-0.277-0.662-0.968-0.85-1.219c-0.137-0.194-0.372-0.364-0.564-0.4c0.663-0.074,1.17-0.402,1.17-1.044
	c0-0.621-0.533-1.065-2.189-1.065H21.37v3.732h1.447v-1.479c0.315,0,0.445,0.049,0.663,0.435l0.59,1.041H25.744 M28.483,67.072
	c-0.597,0-0.946-0.235-0.946-1.189c0-0.711,0.274-1.169,0.93-1.169c0.622,0,0.897,0.227,0.897,1.157
	C29.364,66.831,29.098,67.072,28.483,67.072L28.483,67.072z M28.46,67.827c2.011,0,2.521-1.001,2.521-2.072
	c0-0.818-0.557-1.788-2.474-1.788c-1.486,0-2.586,0.696-2.586,2.021C25.922,67.108,26.828,67.827,28.46,67.827"/>
<path fill="#9A8348" d="M31.7,64.031h1.48v3.731H31.7V64.031z M37.844,64.824h-1.309v2.937h-1.463v-2.937h-1.309v-0.793h4.252
	L37.844,64.824 M42.273,66.307h-0.729l0.228-0.61c0.096-0.252,0.137-0.457,0.154-0.596c0.007,0.139,0.048,0.36,0.105,0.524
	L42.273,66.307L42.273,66.307z M44.425,67.761l-1.704-3.73h-1.505l-1.809,3.73h1.521l0.307-0.717h1.334l0.289,0.717H44.425
	 M48.886,66.61c0,0.323-0.017,0.467-0.137,0.615c-0.235,0.312-0.866,0.602-1.98,0.602c-0.889,0-1.504-0.162-1.842-0.467
	c-0.209-0.201-0.275-0.292-0.275-0.791v-2.538h1.454v2.437c0,0.342,0.162,0.572,0.671,0.572c0.517,0,0.664-0.193,0.664-0.556v-2.453
	h1.445V66.61 M53.687,64.817c0.339,0,0.485,0.103,0.485,0.295s-0.12,0.353-0.468,0.353H53.13v-0.647H53.687z M55.86,66.61
	c0-0.447-0.484-0.743-1.035-0.839c0.623-0.135,0.832-0.487,0.832-0.823c0-0.686-0.661-0.915-1.479-0.915h-2.497v3.731h2.288
	C55.256,67.761,55.86,67.291,55.86,66.61z M54.195,66.577c0,0.232-0.153,0.389-0.516,0.389h-0.552v-0.74h0.535
	C54.106,66.226,54.195,66.391,54.195,66.577 M60.776,66.61c0,0.323-0.018,0.467-0.137,0.615c-0.235,0.312-0.866,0.602-1.981,0.602
	c-0.889,0-1.502-0.162-1.841-0.467c-0.21-0.201-0.276-0.292-0.276-0.791v-2.538h1.454v2.437c0,0.342,0.162,0.572,0.672,0.572
	c0.518,0,0.663-0.193,0.663-0.556v-2.453h1.446V66.61 M65.432,64.824h-1.309v2.937h-1.464v-2.937h-1.31v-0.793h4.25L65.432,64.824"
	/>
</svg>
