<?xml version="1.0" encoding="utf-8"?>
<!-- Generator: Adobe Illustrator 16.0.0, SVG Export Plug-In . SVG Version: 6.00 Build 0)  -->
<!DOCTYPE svg PUBLIC "-//W3C//DTD SVG 1.1//EN" "http://www.w3.org/Graphics/SVG/1.1/DTD/svg11.dtd">
<svg version="1.1" xmlns="http://www.w3.org/2000/svg" xmlns:xlink="http://www.w3.org/1999/xlink" x="0px" y="0px" width="80px"
	 height="80px" viewBox="0 0 80 80" enable-background="new 0 0 80 80" xml:space="preserve">
<g id="logo_x5F_PFC">
	
		<linearGradient id="SVGID_1_" gradientUnits="userSpaceOnUse" x1="268.9893" y1="-342.4775" x2="326.8955" y2="-342.4775" gradientTransform="matrix(1 0 0 -1 -257.5996 -299.8398)">
		<stop  offset="0" style="stop-color:#0098CC"/>
		<stop  offset="1" style="stop-color:#0A71B3"/>
	</linearGradient>
	<path fill="url(#SVGID_1_)" d="M69.295,28.191c0.001-0.039-0.182-9.595-1.417-11.583c-2.767-4.454-13.19-8.327-27.448-8.332
		C26.17,8.271,13.49,12.99,12.096,17.159c-1.885,5.639-0.854,35.332,13.871,51.009C32.684,75.32,39.158,77,40.438,77
		c1.265,0,7.469-1.495,14.715-8.813c8.953-9.043,12.291-21.606,13.516-30.553C69.127,34.268,69.313,28.205,69.295,28.191z"/>
	
		<radialGradient id="SVGID_2_" cx="297.9414" cy="-315.9121" r="26.4589" gradientTransform="matrix(1 0 0 -1.0916 -257.5996 -296.9464)" gradientUnits="userSpaceOnUse">
		<stop  offset="0.0182" style="stop-color:#102659"/>
		<stop  offset="0.697" style="stop-color:#0A0F2D"/>
	</radialGradient>
	<path fill="url(#SVGID_2_)" d="M66.115,38.743c-1.111,8.479-4.146,20.383-12.285,28.948c-6.588,6.934-12.229,8.353-13.379,8.353
		c-1.161,0-7.155-1.489-13.157-8.369c-9.629-11.039-12.85-28.402-13.298-39.136c-0.014-0.31-0.025-0.617-0.032-0.917
		c-0.124-4.223,0.201-7.278,0.72-8.281c1.901-3.666,14.839-7.399,25.634-7.399h0.125c10.357,0.025,22.523,2.604,24.955,6.876
		c0.635,1.115,1.199,4.287,1.322,8.633c0.008,0.312,0.014,0.625,0.018,0.946C66.782,31.434,66.609,34.972,66.115,38.743z"/>
	<g>
		<path fill="#FFFFFF" d="M47.543,57.563c-2.563-2.211-5.51-3.847-8.121-3.254c-2.232,0.508-3.489,2.537-3.699,3.49
			c-0.644-0.771-0.879-0.998-0.844-1.236C35.199,54.393,40.982,49.245,47.543,57.563z"/>
		<path fill="#FFFFFF" d="M40.221,29.856c-0.68,5.992-2.43,25.175-13.333,30.351C38.995,60.018,41.646,34.781,40.221,29.856z"/>
		
			<linearGradient id="SVGID_3_" gradientUnits="userSpaceOnUse" x1="298.6152" y1="-343.1289" x2="311.9785" y2="-343.1289" gradientTransform="matrix(1 0 0 -1 -257.5996 -299.8398)">
			<stop  offset="0" style="stop-color:#0098CC"/>
			<stop  offset="1" style="stop-color:#0A71B3"/>
		</linearGradient>
		<path fill="url(#SVGID_3_)" d="M42.331,38.507c-0.252-2.889-0.22-5.673,0.054-8.259c0.229-2.164-1.596-2.684-1.05-4.514
			c-0.827,1.696,0.746,2.208,0.312,4.449c-0.608,3.122-0.799,6.684-0.475,10.433c1.016,11.649,7.273,20.696,13.206,20.209
			C51.66,59.289,43.387,50.615,42.331,38.507z"/>
		<path fill="#FFFFFF" d="M39.738,28.74c0.527-0.561,1.447-1.826,1.023-3.442c0.09,2.239-1.552,3.158-1.717,3.408
			c-0.647,0.984,1.598,0.787,1.67,0.827C40.275,29.344,39.112,29.406,39.738,28.74z"/>
	</g>
	
		<linearGradient id="SVGID_4_" gradientUnits="userSpaceOnUse" x1="298.1699" y1="-313.8838" x2="298.1699" y2="-323.7655" gradientTransform="matrix(1 0 0 -1 -257.5996 -299.8398)">
		<stop  offset="0" style="stop-color:#FFFFFF"/>
		<stop  offset="1" style="stop-color:#262626"/>
	</linearGradient>
	<path fill="url(#SVGID_4_)" d="M24.052,18.136c-0.222-0.243-0.493-0.416-0.814-0.52c-0.097-0.03-0.204-0.05-0.318-0.061
		c-0.109-0.004-0.246,0.002-0.408,0.016c-0.273,0.026-0.633,0.101-1.079,0.227l-2.69,0.757l1.674,5.946l1.393-0.393l-0.565-2.005
		l1.349-0.379c0.25-0.07,0.462-0.141,0.637-0.21c0.168-0.064,0.321-0.131,0.459-0.198c0.232-0.123,0.433-0.29,0.603-0.503
		c0.171-0.212,0.282-0.477,0.333-0.792c0.043-0.288,0.014-0.609-0.087-0.968C24.437,18.685,24.273,18.378,24.052,18.136z
		 M22.945,20.099c-0.063,0.095-0.15,0.172-0.261,0.232c-0.117,0.062-0.261,0.117-0.43,0.165l-1.354,0.38l-0.417-1.48l1.281-0.36
		c0.396-0.111,0.686-0.131,0.872-0.061c0.178,0.073,0.304,0.242,0.379,0.508C23.086,19.731,23.063,19.937,22.945,20.099z
		 M58.907,18.792c0.141-0.121,0.3-0.199,0.475-0.234c0.175-0.024,0.382-0.006,0.623,0.054l2.089,0.524l0.303-1.199l-2.113-0.53
		c-0.959-0.24-1.725-0.164-2.301,0.229c-0.582,0.394-1.004,1.116-1.269,2.167c-0.135,0.537-0.175,1.021-0.118,1.449
		c0.051,0.425,0.197,0.804,0.438,1.137c0.197,0.267,0.421,0.47,0.67,0.612c0.24,0.144,0.59,0.271,1.044,0.386l2.146,0.538
		l0.307-1.215l-2.09-0.524c-0.486-0.123-0.793-0.324-0.918-0.605c-0.133-0.284-0.123-0.731,0.029-1.344
		C58.4,19.516,58.63,19.036,58.907,18.792z M44.816,17.691l-1.641-0.06c-0.22-0.008-0.39-0.061-0.511-0.16
		c-0.099-0.1-0.146-0.235-0.138-0.406c0.008-0.242,0.076-0.408,0.203-0.497c0.129-0.103,0.351-0.149,0.668-0.137l3.172,0.111
		l0.048-1.276l-3.359-0.122c-0.741-0.027-1.292,0.108-1.653,0.407c-0.367,0.304-0.562,0.785-0.586,1.443
		c-0.022,0.623,0.127,1.089,0.449,1.398c0.346,0.308,0.86,0.475,1.547,0.499l1.465,0.053c0.158,0.006,0.285,0.019,0.381,0.039
		c0.09,0.02,0.164,0.053,0.224,0.099c0.108,0.106,0.16,0.261,0.153,0.465c-0.008,0.198-0.073,0.34-0.197,0.423
		c-0.064,0.05-0.154,0.083-0.27,0.098c-0.119,0.02-0.258,0.028-0.414,0.022l-3.205-0.116l-0.047,1.268l3.4,0.124
		c0.732,0.026,1.282-0.106,1.648-0.401c0.365-0.295,0.562-0.763,0.584-1.404c0.023-0.639-0.111-1.104-0.406-1.394
		C46.039,17.875,45.533,17.717,44.816,17.691z M36.975,18.278c0.185-0.326,0.254-0.726,0.208-1.204
		c-0.062-0.645-0.285-1.102-0.668-1.373c-0.362-0.278-0.917-0.381-1.662-0.309l-3.145,0.303l0.594,6.148l1.44-0.139l-0.224-2.325
		l1.292-0.124l1.513,2.2l1.633-0.157l-1.733-2.379C36.562,18.784,36.813,18.57,36.975,18.278z M35.583,17.748
		c-0.141,0.116-0.401,0.193-0.779,0.229l-1.407,0.136l-0.124-1.28l1.407-0.136c0.39-0.037,0.662-0.017,0.816,0.063
		c0.138,0.083,0.219,0.24,0.241,0.471C35.759,17.461,35.707,17.634,35.583,17.748z M26.941,16.506l-1.427,6.542l1.534-0.282
		l0.26-1.489l2.375-0.436l0.789,1.297l1.599-0.293l-3.682-5.604L26.941,16.506z M27.554,19.933l0.352-1.977l1.063,1.717
		L27.554,19.933z M38.382,15.164l0.177,6.173l1.507-0.042l-0.176-6.175L38.382,15.164z M53.236,17.586
		c0.261-0.167,0.637-0.213,1.127-0.136l2.074,0.326l0.193-1.237l-1.973-0.31c-0.303-0.048-0.566-0.076-0.795-0.083
		c-0.231-0.009-0.451,0.003-0.655,0.035c-0.204,0.031-0.386,0.077-0.542,0.134c-0.157,0.058-0.311,0.138-0.461,0.24
		c-0.277,0.215-0.486,0.491-0.624,0.83c-0.147,0.343-0.284,0.897-0.403,1.666l-0.443,2.813l1.434,0.225l0.38-2.41l3.505,0.551
		l0.192-1.229l-3.504-0.55C52.807,18.036,52.971,17.749,53.236,17.586z"/>
	
		<linearGradient id="SVGID_5_" gradientUnits="userSpaceOnUse" x1="276.1016" y1="-319.2012" x2="319.752" y2="-319.2012" gradientTransform="matrix(1 0 0 -1 -257.5996 -299.8398)">
		<stop  offset="0" style="stop-color:#CBCED1"/>
		<stop  offset="0.0559" style="stop-color:#E1E3E5"/>
		<stop  offset="0.118" style="stop-color:#F2F3F3"/>
		<stop  offset="0.1864" style="stop-color:#FCFCFC"/>
		<stop  offset="0.2727" style="stop-color:#FFFFFF"/>
		<stop  offset="0.703" style="stop-color:#FFFFFF"/>
		<stop  offset="0.7723" style="stop-color:#FBFCFC"/>
		<stop  offset="0.8387" style="stop-color:#F0F1F2"/>
		<stop  offset="0.9039" style="stop-color:#DCDFE1"/>
		<stop  offset="0.9679" style="stop-color:#C1C7CA"/>
		<stop  offset="1" style="stop-color:#B1B8BC"/>
	</linearGradient>
	<path fill="url(#SVGID_5_)" d="M38.14,14.715l0.176,6.173l1.509-0.042l-0.177-6.174L38.14,14.715z M58.665,18.343
		c0.142-0.121,0.299-0.199,0.476-0.234c0.174-0.025,0.383-0.007,0.621,0.054l2.09,0.523l0.301-1.198l-2.112-0.53
		c-0.957-0.24-1.724-0.165-2.3,0.229c-0.581,0.394-1.004,1.116-1.268,2.167c-0.137,0.537-0.176,1.02-0.121,1.448
		c0.053,0.425,0.199,0.804,0.439,1.138c0.197,0.265,0.42,0.469,0.669,0.611c0.243,0.143,0.591,0.271,1.046,0.385l2.145,0.538
		l0.307-1.214l-2.09-0.524c-0.486-0.123-0.792-0.324-0.918-0.605c-0.135-0.284-0.124-0.731,0.029-1.344
		C58.159,19.067,58.389,18.586,58.665,18.343z M44.575,17.242l-1.64-0.059c-0.222-0.009-0.393-0.062-0.512-0.16
		c-0.099-0.1-0.146-0.235-0.139-0.406c0.008-0.242,0.076-0.408,0.203-0.497c0.129-0.103,0.351-0.149,0.668-0.137l3.173,0.111
		l0.046-1.277l-3.357-0.122c-0.742-0.027-1.293,0.108-1.654,0.407c-0.366,0.304-0.563,0.785-0.586,1.443
		c-0.021,0.623,0.127,1.088,0.449,1.398c0.346,0.308,0.861,0.474,1.547,0.499l1.467,0.053c0.156,0.006,0.283,0.019,0.379,0.039
		c0.091,0.02,0.165,0.052,0.227,0.099c0.106,0.106,0.157,0.261,0.15,0.465c-0.008,0.198-0.074,0.339-0.197,0.423
		c-0.066,0.05-0.154,0.082-0.268,0.098c-0.119,0.02-0.26,0.027-0.416,0.022l-3.205-0.116l-0.047,1.268l3.4,0.125
		c0.731,0.026,1.281-0.108,1.648-0.402c0.365-0.293,0.563-0.762,0.584-1.404c0.023-0.639-0.111-1.104-0.405-1.395
		C45.796,17.426,45.291,17.268,44.575,17.242z M23.81,17.687c-0.222-0.242-0.493-0.416-0.814-0.52
		c-0.097-0.029-0.203-0.05-0.317-0.061c-0.11-0.003-0.246,0.002-0.409,0.016c-0.273,0.025-0.632,0.101-1.079,0.227l-2.69,0.757
		l1.675,5.945l1.393-0.392l-0.566-2.006l1.35-0.38c0.25-0.07,0.461-0.14,0.637-0.209c0.168-0.064,0.321-0.13,0.459-0.198
		c0.232-0.123,0.433-0.29,0.604-0.503c0.17-0.213,0.282-0.477,0.333-0.792c0.042-0.287,0.014-0.609-0.087-0.968
		C24.194,18.235,24.031,17.93,23.81,17.687z M22.703,19.65c-0.062,0.095-0.149,0.172-0.261,0.232
		c-0.117,0.063-0.261,0.117-0.431,0.165l-1.352,0.381l-0.417-1.48l1.281-0.361c0.396-0.111,0.686-0.131,0.872-0.061
		c0.179,0.073,0.305,0.242,0.38,0.507C22.844,19.282,22.82,19.488,22.703,19.65z M36.733,17.83c0.185-0.326,0.254-0.727,0.208-1.205
		c-0.062-0.644-0.285-1.102-0.668-1.372c-0.362-0.278-0.916-0.38-1.662-0.308l-3.144,0.303l0.593,6.148l1.44-0.14l-0.224-2.325
		l1.292-0.125l1.513,2.201l1.633-0.157l-1.732-2.379C36.319,18.336,36.57,18.122,36.733,17.83z M35.34,17.299
		c-0.141,0.116-0.401,0.193-0.78,0.229l-1.407,0.136l-0.124-1.279l1.407-0.136c0.389-0.038,0.661-0.017,0.816,0.062
		c0.139,0.083,0.218,0.241,0.241,0.472C35.516,17.012,35.465,17.185,35.34,17.299z M26.7,16.058l-1.426,6.541l1.532-0.282
		l0.261-1.489l2.374-0.436l0.789,1.297l1.598-0.294l-3.681-5.604L26.7,16.058z M27.312,19.484l0.352-1.977l1.063,1.717
		L27.312,19.484z M52.994,17.139c0.262-0.169,0.637-0.214,1.127-0.137l2.074,0.326l0.195-1.238l-1.975-0.31
		c-0.303-0.047-0.566-0.075-0.794-0.083c-0.233-0.009-0.451,0.003-0.655,0.035c-0.205,0.032-0.387,0.077-0.542,0.134
		c-0.159,0.057-0.312,0.137-0.461,0.239c-0.28,0.216-0.487,0.493-0.626,0.831c-0.146,0.342-0.281,0.896-0.402,1.665l-0.443,2.814
		l1.436,0.225l0.379-2.409l3.504,0.551l0.193-1.229l-3.505-0.551C52.564,17.588,52.729,17.3,52.994,17.139z"/>
	
		<linearGradient id="SVGID_6_" gradientUnits="userSpaceOnUse" x1="297.9189" y1="-366.5034" x2="298.9018" y2="-371.1373" gradientTransform="matrix(1 0 0 -1 -257.5996 -299.8398)">
		<stop  offset="0" style="stop-color:#FFFFFF"/>
		<stop  offset="1" style="stop-color:#A3B3BC"/>
	</linearGradient>
	<circle fill="url(#SVGID_6_)" cx="40.343" cy="66.776" r="4.763"/>
	
		<linearGradient id="SVGID_7_" gradientUnits="userSpaceOnUse" x1="296.1523" y1="-361.9287" x2="300.3482" y2="-372.1184" gradientTransform="matrix(1 0 0 -1 -257.5996 -299.8398)">
		<stop  offset="0" style="stop-color:#FFFFFF"/>
		<stop  offset="1" style="stop-color:#525252"/>
	</linearGradient>
	<path fill="url(#SVGID_7_)" d="M40.691,61.5c-3.19,0-5.789,2.598-5.789,5.789c0,3.193,2.598,5.791,5.789,5.791
		c3.193,0,5.793-2.598,5.793-5.791C46.484,64.098,43.887,61.5,40.691,61.5z M40.691,72.566c-2.908,0-5.275-2.366-5.275-5.277
		c0-2.908,2.367-5.275,5.275-5.275c2.912,0,5.277,2.367,5.277,5.275C45.971,70.2,43.604,72.566,40.691,72.566z"/>
	<path fill="#CB3332" d="M40.342,60.809c-3.291,0-5.969,2.676-5.969,5.969c0,3.291,2.678,5.97,5.969,5.97
		c3.292,0,5.971-2.679,5.971-5.97C46.313,63.484,43.634,60.809,40.342,60.809z M40.342,72.193c-2.987,0-5.417-2.43-5.417-5.418
		c0-2.986,2.43-5.418,5.417-5.418c2.988,0,5.418,2.432,5.418,5.418C45.76,69.766,43.33,72.193,40.342,72.193z"/>
	<path fill="#0A0F2D" d="M36.27,65.943c2.558-0.639,6.305-0.635,5.427,2.891c3.125-2.261,1.787-6.048,0.234-6.229
		C40.874,63.168,36.27,65.943,36.27,65.943z"/>
	<path fill="#0A0F2D" d="M36.793,68.861h7.324c0,0-1.174,1.977-3.721,2.017C37.852,70.92,36.793,68.861,36.793,68.861z"/>
	<path fill="#FFFFFF" d="M38.799,48.363c-0.071,0.271-0.154,0.537-0.246,0.802c2.976,0.233,6.439-1.188,7.207-2.024
		C44.557,47.576,41.62,48.596,38.799,48.363z"/>
	<path fill="#FFFFFF" d="M40.223,40.396c-0.025,0.313-0.065,0.619-0.119,0.926c1.651,0.191,3.274-0.344,4.25-1.164
		C42.941,40.307,41.641,40.496,40.223,40.396z"/>
	<path fill="#FFFFFF" d="M40.488,22.763h-0.235c-9.971,0-20.423,2.134-26.283,4.715c0.007,0.301,0.017,0.609,0.032,0.92
		c5.867-2.574,16.302-4.698,26.251-4.698h0.235c9.949,0,20.385,2.124,26.252,4.698c0.014-0.312,0.023-0.62,0.031-0.92
		C60.912,24.897,50.46,22.763,40.488,22.763z"/>
	<g>
		<path fill="#FFFFFF" d="M23.518,26.207c-1.173,0.242-3.741,0.961-4.777,1.244c-1.692,4.028-2.421,33.434,14.936,44.333
			C16.925,57.79,21.57,32.187,23.518,26.207z"/>
		<path fill="#FFFFFF" d="M57.621,26.207c1.947,5.98,6.592,31.583-10.159,45.577C64.818,60.886,64.089,31.48,62.398,27.451
			C61.361,27.168,58.794,26.449,57.621,26.207z"/>
	</g>
</g>
<g id="Calque_1">
</g>
</svg>
