<?xml version="1.0" encoding="utf-8"?>
<!-- Generator: Adobe Illustrator 16.0.0, SVG Export Plug-In . SVG Version: 6.00 Build 0)  -->
<!DOCTYPE svg PUBLIC "-//W3C//DTD SVG 1.1//EN" "http://www.w3.org/Graphics/SVG/1.1/DTD/svg11.dtd">
<svg version="1.1" id="Calque_1" xmlns="http://www.w3.org/2000/svg" xmlns:xlink="http://www.w3.org/1999/xlink" x="0px" y="0px"
	 width="80px" height="80px" viewBox="0 0 80 80" enable-background="new 0 0 80 80" xml:space="preserve">
<path fill="#002E6D" d="M40,5.723C21.102,5.723,5.724,21.1,5.724,40c0,18.903,15.377,34.276,34.276,34.276
	c18.904,0,34.276-15.373,34.276-34.276C74.276,21.102,58.904,5.723,40,5.723z"/>
<path fill="#FFFFFF" d="M39.948,9.443c16.882,0,30.572,13.688,30.572,30.563c0,16.885-13.69,30.573-30.572,30.573
	c-16.876,0-30.559-13.688-30.559-30.573C9.389,23.132,23.072,9.443,39.948,9.443 M39.948,8.183c-8.495,0-16.486,3.314-22.5,9.324
	c-6.01,6.009-9.32,14.003-9.32,22.5c0,8.499,3.31,16.493,9.32,22.509c6.015,6.005,14.005,9.321,22.5,9.321
	c8.511,0,16.493-3.312,22.508-9.321c6.012-6.016,9.318-14.009,9.318-22.509c0-8.496-3.307-16.49-9.318-22.5
	C56.441,11.496,48.459,8.183,39.948,8.183L39.948,8.183z"/>
<path fill="none" d="M23.025,18.336l-2.142,2.355l1.92,1.752l2.142-2.356c0.484-0.529,0.446-1.352-0.084-1.835
	C24.332,17.767,23.509,17.807,23.025,18.336z"/>
<path fill="none" d="M44.076,14.278c0-0.718-0.583-1.299-1.301-1.299h-2.928v2.6h2.928C43.493,15.578,44.076,14.992,44.076,14.278z"
	/>
<path fill="none" d="M24.862,18.251c-0.53-0.485-1.352-0.445-1.836,0.084l-2.142,2.355l1.92,1.752l2.142-2.356
	C25.43,19.558,25.392,18.735,24.862,18.251z"/>
<path fill="none" d="M44.076,14.278c0-0.718-0.583-1.299-1.301-1.299h-2.928v2.6h2.928C43.493,15.578,44.076,14.992,44.076,14.278z"
	/>
<path fill="#FFFFFF" d="M48.564,21.272L51.589,14c-0.495-0.224-0.995-0.431-1.515-0.621l-3.021,7.27
	C47.573,20.833,48.074,21.046,48.564,21.272z"/>
<path fill="#FFFFFF" d="M39.847,19.352v-2.38h2l1.718,2.717c0.68,0.123,1.346,0.279,2.003,0.469l-2.059-3.29
	c1.175-0.317,2.151-1.355,2.151-2.589c0-1.488-1.404-2.693-2.885-2.693h-4.521v7.833c0.525-0.041,1.055-0.068,1.591-0.068
	C39.846,19.352,39.847,19.352,39.847,19.352z M39.847,12.979h2.928c0.718,0,1.301,0.582,1.301,1.299c0,0.714-0.583,1.3-1.301,1.3
	h-2.928V12.979z"/>
<path fill="#FFFFFF" d="M25.617,25.007l-1.786-1.626l2.209-2.435c0.997-1.098,0.997-2.861-0.095-3.858
	c-1.098-1.003-2.886-0.867-3.888,0.23l-3.278,3.612l5.715,5.204C24.852,25.747,25.227,25.365,25.617,25.007z M20.883,20.691
	l2.142-2.355c0.483-0.529,1.307-0.569,1.836-0.084c0.53,0.483,0.568,1.307,0.084,1.835l-2.142,2.356L20.883,20.691z"/>
<path fill="#FFFFFF" d="M55.449,18.405c1.187-0.277,3.347,1.875,3.757,3.329c0.353-0.259,1.116-0.824,1.116-0.824
	c-0.913-2.606-4.561-5.209-6.293-3.576c-1.031,0.967-0.45,2.462,0.447,3.406l0.871,0.918c0.888,0.931,1.663,1.863,0.953,2.455
	c-0.766,0.627-2.894-0.95-4.161-3.655l-1.145,0.864c0.272,0.716,0.891,1.745,1.717,2.614c0.934,0.992,1.965,1.632,2.875,1.816
	c0.723,0.139,1.442,0.035,1.91-0.406c1.184-1.096,0.759-2.69-1.103-4.645l-0.772-0.81C54.773,18.992,55.121,18.482,55.449,18.405z"
	/>
<path fill="#FFFFFF" d="M31.262,12.891c-0.563,0.178-1.112,0.375-1.659,0.586l-0.586,8.928c0.529-0.324,1.072-0.622,1.63-0.901
	l0.084-2.08c1.075-0.477,2.2-0.867,3.356-1.173l1.372,1.576c0.599-0.134,1.211-0.235,1.836-0.313L31.262,12.891z M30.787,17.992
	l0.139-3.369l2.215,2.546C32.337,17.398,31.553,17.676,30.787,17.992z"/>
<path fill="none" d="M42.448,22.783c0.766,11.252,5.459,19.408,13.166,25.196c1.195-2.36,1.866-5.036,1.866-7.861
	C57.48,31.284,50.945,23.988,42.448,22.783z"/>
<path fill="none" d="M37.507,22.783c-8.5,1.203-15.042,8.499-15.042,17.334c0,2.826,0.677,5.502,1.867,7.865
	C32.048,42.194,36.738,34.037,37.507,22.783z"/>
<path fill="#002E6D" d="M39.979,45.7c-4.095,0-7.411,3.141-7.411,7.032c0,1.37,0.412,2.642,1.122,3.73
	c1.951,0.746,4.069,1.16,6.288,1.16c2.212,0,4.33-0.414,6.283-1.16c0.704-1.089,1.115-2.36,1.115-3.73
	C47.376,48.841,44.068,45.7,39.979,45.7z"/>
<path fill="#EB0029" d="M46.446,40.468h-12.95c-2.147,3.556-4.92,6.632-8.158,9.247c1.398,2.13,3.247,3.936,5.422,5.288
	c-0.083-0.466-0.13-0.942-0.13-1.425c0-4.824,4.186-8.732,9.349-8.732c5.157,0,9.337,3.908,9.337,8.732
	c0,0.482-0.037,0.961-0.12,1.425c2.162-1.353,4.015-3.156,5.414-5.283C51.363,47.104,48.589,44.026,46.446,40.468z"/>
<path fill="#EB0029" d="M46.045,39.785c-2.731-4.804-4.353-10.474-4.48-17.102c-0.519-0.046-1.053-0.075-1.584-0.075
	c-0.546,0-1.079,0.03-1.607,0.076c-0.12,6.627-1.742,12.297-4.479,17.102L46.045,39.785L46.045,39.785z"/>
<path fill="#FFFFFF" d="M39.979,21.347c-10.352,0-18.77,8.417-18.77,18.77c0,10.345,8.418,18.762,18.77,18.762
	c10.34,0,18.769-8.418,18.769-18.762C58.748,29.765,50.319,21.347,39.979,21.347z M39.979,22.609c0.53,0,1.067,0.028,1.585,0.075
	c0.126,6.627,1.747,12.298,4.478,17.102H33.893c2.737-4.804,4.359-10.473,4.479-17.102C38.9,22.637,39.434,22.609,39.979,22.609z
	 M22.466,40.117c0-8.835,6.541-16.13,15.042-17.334c-0.771,11.254-5.459,19.411-13.174,25.199
	C23.143,45.619,22.466,42.943,22.466,40.117z M46.262,56.463c-1.951,0.746-4.07,1.16-6.283,1.16c-2.219,0-4.337-0.414-6.288-1.16
	c-0.709-1.089-1.122-2.36-1.122-3.73c0-3.892,3.315-7.032,7.411-7.032c4.089,0,7.396,3.141,7.396,7.032
	C47.376,54.103,46.966,55.374,46.262,56.463z M49.197,55.003c0.081-0.469,0.12-0.942,0.12-1.427c0-4.824-4.181-8.735-9.337-8.735
	c-5.163,0-9.349,3.911-9.349,8.735c0,0.484,0.049,0.961,0.13,1.427c-2.174-1.353-4.024-3.16-5.422-5.289
	c3.236-2.613,6.009-5.693,8.158-9.248h12.95c2.146,3.558,4.917,6.634,8.165,9.253C53.212,51.847,51.359,53.65,49.197,55.003z
	 M42.448,22.783c8.497,1.205,15.032,8.5,15.032,17.334c0,2.826-0.671,5.498-1.864,7.862C47.907,42.191,43.212,34.036,42.448,22.783z
	"/>
<path fill="#8D734A" d="M40.595,54.823c-0.199-0.132-0.356-0.324-0.416-0.564c-0.021-0.088-0.104-0.158-0.2-0.158
	c-0.102,0-0.186,0.07-0.213,0.158c-0.053,0.24-0.211,0.433-0.414,0.564c-0.039,0.021-0.042,0.035-0.028,0.058
	c0.129,0.247,0.339,0.555,0.595,0.769c0.03,0.024,0.054,0.024,0.061,0.024c0.006,0,0.018,0,0.049-0.024
	c0.269-0.214,0.47-0.521,0.601-0.769C40.64,54.858,40.637,54.844,40.595,54.823z"/>
<path fill="#8D734A" d="M41.2,50.884c0-0.705-0.944-2.945-1.22-2.945c-0.03,0-0.05,0.009-0.072,0.039
	c-0.345,0.271-1.15,2.242-1.15,2.906c0,0.54,1.076,1.943,1.076,2.715l0,0l0,0c0,0.068,0.061,0.131,0.146,0.131
	c0.077,0,0.132-0.068,0.132-0.131c0-0.002,0-0.017,0-0.019C40.116,52.821,41.2,51.424,41.2,50.884z"/>
<path fill="#8D734A" d="M39.364,53.531c-0.503-1.34-1.372-2.07-2.278-2.07c-0.686,0-1.244,0.556-1.244,1.249
	c0,0.678,0.557,1.239,1.244,1.239c0.204,0,0.418-0.1,0.518-0.223c0.183-0.198,0.147-0.402,0.127-0.438
	c-0.02-0.054-0.063-0.044-0.083-0.042c-0.017,0.002-0.05,0.005-0.069,0.005c-0.232,0-0.421-0.184-0.421-0.416
	c0-0.231,0.188-0.412,0.421-0.412c0.407,0,1.122,0.392,1.512,1.227c0,0.002,0,0.002,0.001,0.002c0,0.002,0.001,0.004,0.003,0.007
	l0,0c0.022,0.054,0.078,0.082,0.135,0.079c0.085,0,0.153-0.061,0.153-0.144C39.382,53.566,39.378,53.548,39.364,53.531z"/>
<path fill="#8D734A" d="M42.831,51.461c-0.904,0-1.78,0.73-2.285,2.07c-0.007,0.017-0.022,0.035-0.023,0.065
	c0,0.084,0.07,0.145,0.153,0.145c0.063,0.002,0.119-0.028,0.141-0.082l0,0c0.002-0.003,0.002-0.005,0.002-0.007
	c0.002,0,0.002,0,0.002-0.002c0.39-0.835,1.113-1.227,1.519-1.227c0.222,0,0.415,0.181,0.415,0.414c0,0.232-0.193,0.416-0.414,0.416
	c-0.031,0-0.06-0.002-0.074-0.005c-0.028-0.002-0.067-0.013-0.085,0.041c-0.026,0.035-0.059,0.24,0.122,0.438
	c0.111,0.123,0.318,0.223,0.527,0.223c0.681,0,1.239-0.561,1.239-1.239C44.07,52.017,43.513,51.461,42.831,51.461z"/>
<path fill="#FFFFFF" d="M24.336,60.979L23.961,60.7l0.32-1.052l-1.001-0.857l-0.992,0.478l-0.333-0.313l2.932-1.384l0.354,0.308
	L24.336,60.979z M24.72,58.12l-1.014,0.484l0.702,0.593L24.72,58.12z"/>
<path fill="#FFFFFF" d="M27.235,59.355l-1.642,2.501l-0.355-0.233l1.648-2.499L27.235,59.355z"/>
<path fill="#FFFFFF" d="M28.527,60.178l0.504,2.786l0.006,0.002l1.039-1.975l0.375,0.204l-1.363,2.592l-0.369-0.167l-0.515-2.813
	l-0.005-0.003l-1.057,1.999l-0.363-0.205l1.373-2.613L28.527,60.178z"/>
<path fill="#FFFFFF" d="M33.6,62.353l-0.137,0.4l-0.973-0.336l-0.832,2.391l-0.398-0.142l0.83-2.393l-0.973-0.334l0.144-0.399
	L33.6,62.353z"/>
<path fill="#FFFFFF" d="M40.057,64.546l1.34,0.021l-0.01,0.772c-0.008,0.534-0.592,0.874-1.328,0.862
	c-0.786-0.012-1.595-0.562-1.575-1.557c0.01-0.836,0.693-1.52,1.626-1.496c0.707,0.011,1.063,0.375,1.23,0.545l-0.29,0.301
	c-0.146-0.147-0.371-0.415-0.897-0.425c-0.778-0.011-1.242,0.49-1.25,1.101c-0.008,0.571,0.438,1.103,1.179,1.116
	c0.508,0.008,0.879-0.226,0.884-0.473l0.004-0.33l-0.919-0.011L40.057,64.546z"/>
<path fill="#FFFFFF" d="M44.629,62.768l0.053,0.419l-1.963,0.287l0.119,0.759l0.985-0.147l0.064,0.419l-0.998,0.145l0.133,0.892
	l2.033-0.299l0.065,0.416l-2.452,0.362l-0.417-2.91L44.629,62.768z"/>
<path fill="#FFFFFF" d="M47.287,62.029c0.455-0.141,0.955-0.041,1.125,0.531c0.181,0.616-0.165,0.928-0.399,1.021l0.916,0.988
	l-0.439,0.157l-0.91-0.996l-1.047,0.315l0.349,1.175l-0.403,0.113l-0.842-2.808L47.287,62.029z M46.168,62.806l0.249,0.838
	l1.247-0.383c0.308-0.092,0.425-0.303,0.345-0.571c-0.094-0.321-0.357-0.324-0.593-0.252L46.168,62.806z"/>
<path fill="#FFFFFF" d="M56.395,60.334l-0.374,0.298l-0.907-0.558l-1.069,0.757l0.213,1.063l-0.379,0.239l-0.622-3.148l0.383-0.278
	L56.395,60.334z M53.745,59.275l0.217,1.104l0.753-0.537L53.745,59.275z"/>
<path fill="#FFFFFF" d="M55.482,57.244l1.998,2.164l-0.316,0.274l-1.995-2.145L55.482,57.244z"/>
<path fill="#FFFFFF" d="M56.642,56.093l2.832,0.204l0.005-0.004l-1.667-1.5l0.29-0.317l2.172,1.964l-0.252,0.315l-2.855-0.189
	l-0.007,0.006l1.685,1.52l-0.302,0.293l-2.188-1.968L56.642,56.093z"/>
<polygon fill="#FFFFFF" points="51.67,60.047 51.288,60.236 51.235,62.311 49.502,61.145 49.132,61.334 50.42,63.981 50.795,63.811 
	49.902,61.934 49.913,61.93 51.616,63.083 51.684,61.028 51.692,61.024 52.7,62.846 53.059,62.633 "/>
<path fill="#FFFFFF" d="M23.23,56.256c-0.242-0.896-1.148-1.775-1.836-1.775c-0.154,0-0.289,0.049-0.408,0.135
	c-0.136,0.1-0.22,0.241-0.245,0.405c-0.039,0.263,0.069,0.592,0.284,0.887l0.315,0.417c0.242,0.321,0.472,0.662,0.425,0.924
	c-0.017,0.115-0.081,0.2-0.178,0.268c-0.061,0.03-0.121,0.048-0.193,0.048c-0.422,0-1.143-0.754-1.497-1.836l-0.008-0.03
	l-0.306,0.297l-0.004,0.005l0.001,0.006c0.066,0.271,0.253,0.716,0.56,1.13c0.327,0.431,0.703,0.736,1.049,0.844
	c0.114,0.044,0.226,0.058,0.328,0.058c0.154,0,0.289-0.043,0.394-0.109c0.169-0.13,0.268-0.289,0.298-0.472
	c0.05-0.345-0.131-0.807-0.547-1.364l-0.277-0.364c-0.218-0.298-0.21-0.483-0.163-0.604c0.04-0.094,0.127-0.163,0.23-0.172
	c0.014-0.002,0.027-0.002,0.047-0.002c0.502,0,1.218,0.835,1.401,1.48l0.003,0.023l0.018-0.016c0.102-0.054,0.225-0.124,0.299-0.174
	l0.009-0.004V56.256z"/>
<path fill="#FFFFFF" d="M36.13,64.665l-1.043-0.229l0.095-0.425l1.042,0.237L36.13,64.665z"/>
</svg>
