<?xml version="1.0" encoding="utf-8"?>
<!-- Generator: Adobe Illustrator 16.0.0, SVG Export Plug-In . SVG Version: 6.00 Build 0)  -->
<!DOCTYPE svg PUBLIC "-//W3C//DTD SVG 1.1//EN" "http://www.w3.org/Graphics/SVG/1.1/DTD/svg11.dtd">
<svg version="1.1" id="Mode_Isolation" xmlns="http://www.w3.org/2000/svg" xmlns:xlink="http://www.w3.org/1999/xlink" x="0px"
	 y="0px" width="80px" height="80px" viewBox="0 0 80 80" style="enable-background:new 0 0 80 80;" xml:space="preserve">
<style type="text/css">
<![CDATA[
	.st0{fill:none;stroke:#F0E425;stroke-width:0.847;}
	.st1{fill:#E21B19;}
	.st2{fill:#1A171B;}
	.st3{fill:#F0E425;}
	.st4{fill:#231E20;}
	.st5{fill:none;stroke:#FFFFFF;stroke-width:3.612500e-002;}
	.st6{fill:#977619;}
	.st7{fill:none;stroke:#1A171B;stroke-width:0.125;stroke-miterlimit:10;}
	.st8{fill:#FBEE7E;}
	.st9{fill:#FFFFFF;}
	.st10{fill:none;stroke:#FFFFFF;stroke-width:7.225000e-002;}
]]>
</style>
<g>
	<g>
		<path class="st2" d="M16.5,9.2v0.7c0,15.9,0,31.8,0,47.7c0,1.9,0.4,3.7,1.4,5.4c0.9,1.5,2.3,2.4,3.9,2.8c1,0.2,1.9,0.3,2.9,0.4
			c3.3,0.1,6.5,0.6,9.5,2.2c1.7,0.9,3.2,2.1,4.4,3.6c0.6,0.7,1.1,1.4,1.6,2.2h0.3c1.2-1.7,2.5-3.3,4.2-4.6c1.4-1,2.9-1.8,4.6-2.3
			c2.3-0.7,4.6-1,7-1.1c1.6,0,3.1-0.3,4.5-1.1c1.4-0.9,2.3-2.2,2.8-3.7c0.2-0.7,0.4-1.5,0.6-2.2c0-0.2,0.1-0.4,0.1-0.6
			c0-16.2,0-32.4,0-48.6V9.2H16.5z"/>
		<path class="st3" d="M18.5,32.9c0,8.1,0,16.3,0,24.4c0,1.8,0.4,3.4,1.3,4.9c0.8,1.3,2.1,2.2,3.6,2.5c0.9,0.2,1.8,0.3,2.7,0.3
			c3,0.1,6,0.6,8.7,2c1.6,0.8,3,1.9,4.1,3.3c0.5,0.7,1,1.3,1.5,2h0.3c1.1-1.6,2.3-3.1,3.9-4.2c1.3-0.9,2.7-1.7,4.2-2.1
			c2.1-0.6,4.3-0.9,6.5-1c1.4,0,2.8-0.3,4.1-1c1.3-0.8,2.1-2,2.6-3.4c0.2-0.7,0.4-1.4,0.6-2c0-0.2,0.1-0.3,0.1-0.5
			c0-8.4,0-16.8,0-25.1H18.5V32.9z"/>
		<rect x="18.5" y="10.8" class="st3" width="44.2" height="20.5"/>
		<path class="st1" d="M40.5,32.9v39.5h0.2c1.1-1.6,2.3-3.1,3.9-4.2c1.3-0.9,2.7-1.7,4.2-2.1c2.1-0.6,4.3-0.9,6.5-1
			c1.4,0,2.8-0.3,4.1-1c1.3-0.8,2.1-2,2.6-3.4c0.2-0.7,0.4-1.4,0.6-2c0-0.2,0.1-0.3,0.1-0.5c0-8.4,0-16.8,0-25.1H40.5V32.9z"/>
		<rect x="18.5" y="17.6" class="st1" width="44.2" height="7"/>
		<path class="st9" d="M29.5,61.6l-0.2-0.1h-0.1l-0.5-0.2c0,0-0.1,0-0.1-0.1h-0.1l0,0l0,0c-0.2-0.1-0.4-0.2-0.6-0.3l0,0l0,0h-0.1
			l0,0l0,0c-0.2-0.1-0.5-0.3-0.7-0.4c-0.3-0.2-0.5-0.3-0.8-0.5l0,0l0,0c-0.3-0.2-0.6-0.4-0.8-0.6c-0.1-0.1-0.2-0.1-0.2-0.2l-0.1-0.1
			c-0.3-0.2-0.5-0.4-0.6-0.5l0,0c-0.1-0.1-0.2-0.2-0.4-0.3c-0.1-0.1-0.2-0.2-0.4-0.4l0,0l0,0l0,0c-0.8-0.8-1.5-1.8-2-2.9
			c-0.4-0.8-0.6-1.7-0.7-2.6l0,0l0,0c-0.1-0.7,0-1.5,0.1-2.1c0.1-0.6,0.2-1.1,0.4-1.7c0.1-0.2,0.1-0.5,0.2-0.7
			c0.1-0.4,0.3-0.9,0.4-1.3c0.1-0.3,0.1-0.5,0-0.8c-0.2-0.5-0.5-1-0.9-1.5l-0.4-0.4l-0.2-0.2l0.1-0.3l1.7-5.9l0.2-0.7l0.6,0.4
			l0.5,0.4l0,0l0,0c0.1,0.1,0.3,0.2,0.5,0.3c0.2,0.1,0.4,0.2,0.6,0.3c0,0,0,0,0.1,0l0,0l0,0l0,0c0.2,0.1,0.3,0.1,0.5,0.2
			c0.1,0,0.2,0,0.3,0.1l0,0c0.2,0,0.3,0,0.5,0c0.1,0,0.1,0,0.2,0c0.2,0,0.4,0,0.7-0.1c0.2-0.1,0.4-0.1,0.6-0.2l0,0c0,0,0,0,0.1,0
			l0,0l0,0l0,0l0.6-0.3l0,0l0,0l0,0l0.7-0.4l0,0l0,0h0.1l0.2-0.1l0.2,0.1l0.7,0.4h0.1l0,0l0,0l0.4,0.2l0.3,0.2
			c0.1,0.1,0.2,0.1,0.4,0.1c0.2,0.1,0.4,0.1,0.6,0.2l0,0l0,0c0.2,0,0.3,0,0.5,0c0.1,0,0.1,0,0.2,0l0,0l0,0c0.4,0,0.7-0.1,1.1-0.2
			h0.1h0.1l0,0l0,0c0.2-0.1,0.4-0.2,0.5-0.2c0.2-0.1,0.4-0.2,0.6-0.4l0.5-0.4l0.6-0.4l0.2,0.7l1.7,5.9l0.1,0.3l-0.2,0.2l-0.4,0.4
			c-0.4,0.5-0.7,1-0.8,1.5c-0.1,0.2-0.1,0.5,0,0.8c0.2,0.6,0.3,1.2,0.5,1.7c0,0.1,0.1,0.2,0.1,0.4c0.2,0.5,0.3,1.1,0.4,1.7
			c0.1,0.7,0.2,1.4,0.1,2.1l0,0l0,0c-0.1,0.9-0.4,1.8-0.7,2.6c-0.5,1.1-1.1,2.1-2,2.9l0,0l0,0c-0.1,0-0.1,0.1-0.2,0.2
			c-0.1,0.1-0.1,0.1-0.2,0.2c-0.1,0.1-0.3,0.3-0.4,0.4c-0.4,0.3-0.8,0.7-1.3,1l0,0l0,0c-0.3,0.2-0.6,0.4-0.9,0.6l0,0
			c-0.2,0.2-0.5,0.3-0.7,0.4l0,0c-0.3,0.1-0.5,0.3-0.7,0.4l0,0l0,0c-0.2,0.1-0.3,0.1-0.5,0.2h-0.1l0,0l0,0l0,0l-0.6,0.2L29.5,61.6z"
			/>
		<path class="st9" d="M23.6,39.1L22.7,43l1.1,3.3L23,49.4l-0.4,4.2l1.7,3.2l2.4,1.8l2.9,1.5l3.7-1.8l2.9-3.6l0.8-3.2l-0.9-3.4
			L35.8,46l0.6-2.3l-0.2-2.9c0,0-0.6-1.3-0.7-1.3s-3.4,0.2-3.4,0.2s-1.7-0.3-1.9-0.4c-0.2-0.1-2.4,0.2-2.4,0.2l-2.3,0.2L23.6,39.1z"
			/>
		<path class="st1" d="M35,38.1c0.2-0.1,0.4-0.2,0.6-0.4l0.5-0.4l1.7,5.9l-0.4,0.4c-0.4,0.5-0.7,1-0.9,1.6c-0.1,0.3-0.1,0.7,0,1.1
			c0.2,0.8,0.4,1.5,0.6,2.1c0.2,0.6,0.3,1.1,0.4,1.7c0.1,0.7,0.2,1.4,0.1,2c-0.1,0.8-0.3,1.7-0.7,2.5c-0.5,1-1.1,2-1.9,2.8v-4
			c0.2-0.2,0.4-0.3,0.5-0.5H35v-1.6c0,0,0,0,0.1,0c0,0,0,0,0.1,0v-2.1c0-0.1,0-0.1,0-0.2s0.1-0.2,0.1-0.2H35v-0.5h0.2v-0.2
			c-0.1,0-0.1,0.1-0.2,0.1l0,0V48l0,0c0,0,0,0,0.1,0v-0.1H35v-0.2c0,0,0,0,0.1,0h0.1v-0.1H35V38.1z M34.2,38.5
			c0.1,0,0.1-0.1,0.2-0.1c0.2-0.1,0.4-0.2,0.6-0.3v9.4h-0.2l0.1,0.1V48c0,0.1,0,0.1-0.1,0.1H35v0.5h-0.3c0.1,0.1,0.1,0.1,0.1,0.2
			c0,0.1,0,0.1,0,0.2v1.4l-0.6-0.8V48h0.1c0.2-0.1,0.3-0.3,0.2-0.5c-0.1-0.1-0.2-0.1-0.3-0.1l0,0v-2.3c0.1,0,0.3,0.1,0.4,0.1h0.3
			c-0.2-0.2-0.4-0.4-0.6-0.7l-0.1-0.2V38.5L34.2,38.5z M35,57.4c-0.1,0.1-0.2,0.2-0.3,0.3c-0.1,0.1-0.3,0.3-0.4,0.4v-4
			c0.2-0.2,0.5-0.5,0.8-0.7v4H35z M35,47.6C35,47.7,34.9,47.7,35,47.6l-0.1,0.2H35V47.6z M35,47.9L35,47.9l-0.1,0.2H35V47.9z
			 M35,51.2c-0.1,0-0.1-0.1-0.2-0.1c-0.1-0.1-0.2-0.2-0.2-0.3l-0.4-0.4v2.4H35V51.2z M34.2,48.1C34.2,48.1,34.3,48.1,34.2,48.1
			c0.2-0.2,0.2-0.2,0.2-0.3c0-0.1-0.1-0.2-0.1-0.2l0,0L34.2,48.1L34.2,48.1z M33,38.8c0.4,0,0.8-0.1,1.2-0.3v6L33.1,43
			c0.3-0.1,0.5-0.2,0.7-0.4c0.4-0.4,0.5-1.1,0.1-1.5c-0.1-0.1-0.1-0.1-0.2-0.2c-0.2-0.1-0.5-0.2-0.7-0.3V38.8z M34.2,58.1
			c-0.4,0.3-0.8,0.7-1.2,1v-3.8c0.4-0.3,0.8-0.7,1.2-1.2V58.1z M34.2,45.3c-0.2-0.1-0.4-0.2-0.6-0.4L33,44v3.6c0,0,0,0,0.1,0
			c0,0,0.1,0,0.1,0.1c0,0.1,0,0.1-0.1,0.1c0.1,0,0.2,0.1,0.1,0.3l-0.1,0.1H33v0.5h0.4l0.8,1.1v-1.6h-0.1h-0.2c0,0,0,0,0-0.1v-0.4
			c0-0.1,0-0.1-0.1-0.1c0.1,0,0.2,0,0.3,0v-2.3H34.2z M34.2,47.7v0.5h-0.1H34v-0.5C34.1,47.6,34.2,47.6,34.2,47.7 M34.2,50.4v2.4H33
			v-1.6h0.5c-0.1-0.1-0.1-0.1-0.1-0.2s0-0.1,0-0.2v-1.5L34.2,50.4z M33,51v-2.2v0.1c0,0.1,0,0.1,0,0.2v1.6C33,50.8,33,50.9,33,51
			L33,51 M33,48.1v-0.2l0,0C33.1,47.9,33.1,48,33,48.1L33,48.1 M33,47.8L33,47.8C33,47.7,33,47.7,33,47.8C33,47.7,33,47.8,33,47.8
			 M33,42.6L33,42.6c0.2-0.1,0.3-0.3,0.4-0.4c0.2-0.4,0-0.9-0.4-1V42.6z M32.1,38.7c0.3,0,0.6,0.1,0.9,0v1.9c-0.1,0-0.2,0-0.3,0
			h-0.1h-0.5V38.7z M33,59.1c-0.3,0.2-0.6,0.4-0.9,0.6v-3.6c0.3-0.2,0.5-0.5,0.9-0.8V59.1z M33,41.2v1.4c-0.2,0.1-0.3,0.2-0.5,0.2
			c-0.1,0-0.2,0-0.2,0.1L33,44v3.6l0,0h-0.3c0.1,0,0.1,0.1,0.1,0.1v0.4c0,0.1,0,0.1-0.1,0.1h0.2H33v0.5h-0.1c0.1,0,0.1,0.1,0.1,0.2
			V51c0,0.1-0.1,0.1-0.1,0.2H33v1.6h-0.9v-1.6h0.5l0.2-0.5c-0.2,0.1-0.4,0.2-0.7,0.2V50c0,0,0,0,0.1,0c0,0,0,0,0.1,0.1v-0.4h-0.1V49
			l0,0c0.1,0,0.3,0,0.4,0.1v-0.4h-0.4v-0.5c0.1,0,0.1,0,0.2-0.1l0,0h0.2l0,0c0,0,0,0,0-0.1l0,0v-0.4c0-0.1,0-0.1,0.1-0.1h-0.2
			c0,0,0,0,0,0.1V48v0.1c0,0.1-0.1,0.1-0.1,0.1v-2.8h0.2c-0.1-0.1-0.1-0.1-0.2-0.2v-4c0.1,0,0.2,0,0.4,0
			C32.7,41.1,32.8,41.1,33,41.2L33,41.2 M33,47.7h-0.1v0.2H33V47.7z M33,47.9h-0.1v0.2H33V47.9z M31.4,38.5c0.2,0.1,0.5,0.1,0.7,0.2
			v1.9h-0.7V38.5z M32.1,59.6c-0.2,0.1-0.5,0.3-0.7,0.4v-3.3c0.2-0.2,0.5-0.4,0.7-0.7V59.6z M32.1,41.1v4c0,0-0.1-0.1-0.1-0.2
			c0-0.1,0-0.2,0-0.3v-3.4C32.1,41.2,32.1,41.2,32.1,41.1 M32.1,45.3v2.8c0,0,0,0-0.1,0c0,0,0,0-0.1,0V48v-0.3c0-0.1,0-0.1,0.1-0.1
			h-0.2c0.1,0,0.1,0.1,0.1,0.1V48v0.1c0,0.1,0.1,0.1,0.2,0.1h0.1v0.5h-0.7v-0.5h0.2V48c-0.1,0-0.1,0.1-0.2,0.1l0,0v-2.8H32.1z
			 M32.1,49v0.7h-0.5V49C31.8,49,32,49,32.1,49 M32.1,50v0.9H32c-0.1,0-0.2,0-0.3,0V50C31.8,50,31.9,50,32.1,50L32.1,50 M32.1,51.2
			v1.6h-0.3l-0.4,0.5v-2.1H32.1z M30.7,38.2l0.3,0.2c0.1,0.1,0.3,0.1,0.4,0.2v2.1H31c0.1,0.1,0.2,0.3,0.3,0.5c0,0.1,0,0.2,0,0.3v3.1
			c0,0.1,0,0.3,0,0.4c0,0.2-0.1,0.3-0.2,0.4h0.4v2.8h-0.1v-0.4c0-0.1,0-0.1,0.1-0.1h-0.2v0.1v0.4c0,0.1,0,0.1,0,0.1h0.2v0.5h-0.3
			c0.1,0.1,0.1,0.1,0.1,0.2s0,0.1,0,0.2v1.6c0,0.1,0,0.1,0,0.2s-0.1,0.2-0.1,0.2h0.3v2.1c-0.2,0.2-0.4,0.4-0.7,0.8v-2.9H31
			c-0.1-0.1-0.1-0.2-0.1-0.3c0-0.1,0-0.1,0-0.2v-1.6c0-0.1,0-0.2,0-0.2c0-0.1,0.1-0.2,0.1-0.2h-0.2v-0.5c0,0,0,0,0.1,0s0.1,0,0.2,0
			L31,48c-0.1,0-0.1,0.1-0.2,0.1h-0.1v-0.5l0,0c0.1,0,0.1,0,0.2,0v-0.1c-0.1,0-0.1,0-0.2,0v-2.6l0.2-0.5c-0.1,0-0.1,0.1-0.2,0.1
			V38.2z M31.4,60.1c-0.2,0.1-0.5,0.3-0.7,0.4v-3c0.2-0.2,0.4-0.4,0.7-0.7V60.1z M30.2,38L30.2,38l0.5,0.2v6.3
			c-0.1,0.1-0.3,0.1-0.5,0.2v-1.2c0,0,0.1,0,0.1-0.1c0.2-0.1,0.2-0.3,0.2-0.5c0-0.1-0.1-0.3-0.2-0.4c0,0-0.1,0-0.2,0v-1.3
			c0.1,0,0.1,0,0.1,0.1c0.1,0,0.1,0,0.1,0.1v-0.8c-0.1,0-0.2-0.1-0.3-0.1V38H30.2z M30.7,60.4c-0.2,0.1-0.3,0.1-0.5,0.2v-2.8
			c0.1-0.1,0.3-0.3,0.5-0.4V60.4z M30.7,44.9v2.6l0,0c-0.2,0-0.3,0.2-0.3,0.4c0.1,0.1,0.2,0.2,0.3,0.2v0.5h-0.5v-3.4
			c0.1,0,0.2-0.1,0.3-0.1L30.7,44.9z M30.7,47.7c-0.1,0-0.1,0.1-0.1,0.1c0,0.1,0,0.2,0,0.2c0,0.1,0.1,0.1,0.1,0.1V47.7z M30.7,51.2
			v2.9c-0.1,0.1-0.3,0.3-0.5,0.5v-3.5c0,0,0.1,0,0.1-0.1l0,0v0.2H30.7z M30.2,50.8v-2c0,0.1,0.1,0.1,0.1,0.2s0,0.1,0,0.2v1.2
			c0,0.1,0,0.2,0,0.2C30.3,50.7,30.3,50.7,30.2,50.8 M30.2,43.4c0.1-0.1,0.2-0.2,0.2-0.3c0-0.1,0-0.3-0.2-0.3v0.4l0,0h0.1l-0.1,0.1
			c0,0,0,0-0.1,0v0.1H30.2z M29.5,61L29.5,61l-0.1-2.5c0,0,0,0,0.1,0.1l0.7-0.6v2.8c0,0-0.1,0-0.1,0.1L29.5,61z M29.5,37.6
			L29.5,37.6l0.8,0.3v2.7c-0.2-0.1-0.5-0.1-0.8-0.1V37.6z M30.2,41.3v1.3c-0.1,0-0.2,0-0.2,0.1c-0.1,0.1-0.1,0.3-0.1,0.4
			c0,0.1,0.1,0.1,0.2,0.1h0.1v0.2c-0.1,0-0.1,0.1-0.2,0.1v0.1c0.1,0,0.2,0,0.3-0.1v1.2c-0.2,0.1-0.4,0.1-0.6,0.1c-0.1,0-0.1,0-0.2,0
			v-1.3c0,0,0.1,0,0.1-0.1c0.2-0.1,0.2-0.3,0.2-0.5c0-0.1-0.1-0.3-0.2-0.4c0,0-0.1,0-0.2,0V41C29.7,41.2,30,41.2,30.2,41.3
			 M30.2,42.8L30.2,42.8c-0.1,0-0.1,0-0.2,0.1c0,0.1,0,0.1,0,0.2c0,0.1,0.1,0.1,0.2,0.1V42.8z M30.2,45.4v3.4l0,0l0,0v2l-0.1,0.1
			C29.9,51,29.7,51,29.5,51l0,0v-2.8h0.2V48c-0.1,0-0.1,0.1-0.2,0.1v-2.7C29.7,45.5,30,45.4,30.2,45.4 M30.2,51.1v3.5
			c-0.2,0.2-0.4,0.5-0.7,0.7l-0.1-0.1v-4C29.8,51.3,30,51.2,30.2,51.1 M29.5,43.4c0.1-0.1,0.2-0.2,0.2-0.3c0-0.1,0-0.3-0.2-0.3v0.4
			l0,0h0.1l-0.1,0.1c0,0,0,0-0.1,0v0.1H29.5z M29.5,60.9L29,60.7c-0.1,0-0.2-0.1-0.2-0.1v-2.9c0.2,0.2,0.5,0.4,0.7,0.7V60.9z
			 M28.7,38L28.7,38l0.7-0.4v2.9c-0.2,0-0.5,0-0.7,0.1l0,0V38z M29.5,41.2v1.5c-0.1,0-0.2,0-0.2,0.1c-0.1,0.1-0.1,0.3-0.1,0.4
			c0,0.1,0.1,0.1,0.2,0.1h0.1v0.1c-0.1,0-0.1,0.1-0.2,0.1l-0.1,0.1c0.1,0,0.2,0,0.3-0.1v1.3c-0.2,0-0.5,0-0.7-0.1v-1.1
			c0.1,0,0.1,0,0.2,0s0.1-0.1,0.1-0.1c0.1-0.1,0-0.2-0.1-0.3l-0.1-0.1c0.1-0.1,0.2-0.2,0.1-0.3c-0.1-0.1-0.2-0.1-0.3-0.1v-1.4
			c0.1,0,0.2,0,0.3-0.1C29.2,41.1,29.3,41.1,29.5,41.2 M29.5,42.8L29.5,42.8c-0.1,0-0.1,0-0.2,0.1c0,0.1,0,0.1,0,0.2
			c0,0.1,0.1,0.1,0.2,0.1V42.8z M29.5,45.5v2.7h-0.1v-0.4c0-0.1,0-0.1,0.1-0.1h-0.2c0,0,0,0.1,0.1,0.1v0.4c0,0.1,0,0.1-0.1,0.1h0.2
			V51c-0.1,0-0.2-0.1-0.2-0.1s-0.1-0.1-0.1-0.2c0-0.1,0-0.2,0-0.3v-0.1v-1.1c0-0.1,0-0.1,0-0.2s0.1-0.2,0.1-0.2h-0.5v-0.5H29
			l0.1-0.2c-0.1,0-0.1,0.1-0.2,0.1h-0.1v-0.5c0,0,0,0,0.1-0.1h-0.1v-2.1c0.2,0,0.4,0.1,0.6,0H29.5z M29.5,51.3L29.5,51.3
			c-0.3,0-0.6-0.2-0.7-0.5c0-0.1,0-0.2,0-0.3v4c0.4,0.5,0.6,0.7,0.7,0.8V51.3z M28.7,43.5L28.7,43.5c0.1,0,0.1,0,0.2-0.1
			c0,0,0-0.1,0-0.2c0,0,0-0.1-0.1-0.1h-0.1V43.5z M28.7,43C28.8,43,28.8,43,28.7,43c0.1,0,0.2-0.1,0.2-0.1c0-0.1-0.1-0.1-0.2-0.1V43
			z M28.7,60.6c-0.2-0.1-0.4-0.2-0.6-0.3v-3.1c0.2,0.2,0.4,0.4,0.6,0.6V60.6z M28.2,38.3l0.6-0.3v2.6c-0.2,0-0.4,0.1-0.6,0.2V38.3z
			 M28.7,41.2v1.4c-0.1,0-0.1,0-0.2,0s-0.1,0.1-0.1,0.1c0,0.1,0,0.2,0.1,0.3c-0.2,0.1-0.2,0.3-0.2,0.3c0.1,0.1,0.2,0.2,0.3,0.2v1.1
			c-0.2-0.1-0.4-0.2-0.6-0.4v-0.8h0.2l-0.1-0.1v-0.1v-0.8L28,42.5v-1.2C28.3,41.4,28.5,41.3,28.7,41.2 M28.7,42.8L28.7,42.8
			c-0.1,0-0.1,0-0.2,0.1c0,0,0,0.1,0.2,0.2V42.8z M28.7,43.2L28.7,43.2c-0.1,0-0.2,0.1-0.2,0.2c0,0,0,0.1,0.1,0.1l0.1,0.1V43.2z
			 M28.7,45.4v2.1h-0.2c0.1,0,0.1,0.1,0.1,0.1V48c0,0.1,0,0.1-0.1,0.1h0.2v0.5h-0.1c0.1,0.1,0.1,0.1,0.1,0.2c0,0.1,0,0.1,0,0.2v1.2
			v0.1v4c-0.2-0.2-0.4-0.4-0.6-0.6v-3.1c0.2-0.2,0.3-0.5,0.3-0.8l0,0c0-0.3-0.1-0.6-0.3-0.8v-0.9h0.2c0,0-0.1,0-0.1-0.1l-0.1-0.3
			v-2.5C28.3,45.3,28.5,45.4,28.7,45.4 M28.7,47.6L28.7,47.6v0.5V47.6z M28.2,48.2L28.2,48.2L28.2,48.2v-0.1V48.2z M28.2,60.3
			l-0.1-0.1V57l0.1,0.1V60.3z M28,38.4C28,38.4,28.1,38.4,28,38.4l0.1-0.1v2.5c0,0-0.1,0-0.1,0.1V38.4z M28.2,41.6v1.2l-0.1,0.1
			v-1.1C28.1,41.7,28.1,41.6,28.2,41.6 M28.2,43.6v0.8c0,0-0.1-0.1-0.1-0.2v-1.4h0.1v0.6V43.6c0-0.1,0,0-0.1,0H28.2z M28.2,45.2v2.5
			l-0.1-0.2H28v-2.4C28.1,45.2,28.1,45.2,28.2,45.2 M28.2,48.1v0.1l0,0l0,0v0.9c0-0.1-0.1-0.1-0.1-0.1v-1L28.2,48.1L28.2,48.1z
			 M28.2,50.8v3.1c0-0.1-0.1-0.1-0.1-0.2v-2.8C28.1,50.9,28.1,50.8,28.2,50.8 M28,50.2v-0.5C28.1,49.9,28.1,50.1,28,50.2 M28,47.9
			L28,47.9v-0.2l0,0V47.9z M28,60.2c-0.2-0.1-0.5-0.3-0.7-0.4v-3.5c0.2,0.2,0.5,0.4,0.7,0.7V60.2z M27.3,38.7
			c0.2-0.1,0.5-0.1,0.7-0.2V41c-0.3,0.2-0.5,0.4-0.7,0.6V38.7z M28,41.7v1.1l0,0l0,0l0,0v1.4c-0.1-0.1-0.1-0.2-0.2-0.3
			c-0.3-0.6-0.3-1.2-0.1-1.8C27.8,42,27.9,41.8,28,41.7 M28,45.1v2.4h-0.1c0,0,0,0,0,0.1L27.7,48c0,0.1,0,0.1-0.1,0.1h0.2l0,0l0,0
			l0,0l0.1-0.1H28v1c-0.2-0.1-0.4-0.2-0.6-0.3h-0.1v-0.5h0.1l0.1-0.1c0-0.1,0-0.2-0.1-0.3c0.1,0,0.1-0.1,0.1-0.1s0-0.1-0.1-0.1h-0.1
			v-3C27.5,44.8,27.7,45,28,45.1 M28,47.7l-0.1,0.2H28V47.7z M28,49.7v-0.1c-0.1-0.3-0.4-0.5-0.7-0.6v2c0.2,0,0.4-0.2,0.6-0.4
			c0.1-0.1,0.1-0.2,0.1-0.3V49.7z M28,50.9v2.8c-0.2-0.2-0.4-0.5-0.7-0.8v-1.6C27.6,51.2,27.8,51.1,28,50.9 M27.3,48.1
			C27.3,48.1,27.4,48.1,27.3,48.1c0.1-0.1,0.1-0.2,0.1-0.2s0,0-0.1,0V48.1z M27.3,47.8C27.3,47.8,27.4,47.8,27.3,47.8
			c0-0.1,0-0.1,0-0.2V47.8z M27.3,59.8c-0.3-0.1-0.5-0.3-0.8-0.5v-3.7c0.2,0.2,0.5,0.5,0.8,0.7V59.8z M26.6,38.8
			c0.3,0,0.5-0.1,0.8-0.1v2.8c-0.4,0.6-0.6,1.3-0.5,2c0,0.1,0.1,0.2,0.1,0.3c0.1,0.2,0.2,0.5,0.4,0.7v3H27v0.1V48c0,0.1,0,0.1,0,0.1
			h0.2l0,0v0.5c-0.3,0-0.5,0-0.8,0.1v-0.6h0.1c0,0,0,0,0-0.1v-0.4h0.1l0,0l0,0v-0.1h-0.3v-6.3c0.1,0,0.1,0.1,0.2,0.1v-0.7h-0.2v-1.8
			H26.6z M27.3,47.6L27.3,47.6l-0.1,0.2h0.1V47.6z M27.3,47.9L27.3,47.9l-0.1,0.2h0.1V47.9z M27.3,48.9v2c-0.2,0.1-0.5,0-0.7-0.1
			c0,0,0,0-0.1,0v-1.7c0.2-0.1,0.4-0.2,0.5-0.2C27.2,48.9,27.2,48.9,27.3,48.9 M27.3,51.2v1.6c0,0,0,0,0-0.1h-0.7V51
			c0.1,0,0.2,0,0.2,0.1c0.1,0,0.2,0,0.3,0C27.2,51.3,27.2,51.3,27.3,51.2 M26.6,59.4c-0.3-0.2-0.5-0.4-0.8-0.6v-3.9
			c0.2,0.2,0.5,0.5,0.8,0.7V59.4z M25.8,38.7c0.3,0,0.5,0.1,0.8,0v1.9h-0.8V38.7z M26.6,41.3v6.3h-0.2v0.1l0,0l0,0h0.1l0,0v0.4
			c0,0.1,0,0.1-0.1,0.1h0.1v0.6c-0.1,0-0.2,0.1-0.3,0.2c-0.2,0.2-0.4,0.4-0.5,0.7v-1.4c0.2,0,0.3-0.1,0.4-0.3c0-0.2-0.1-0.3-0.3-0.3
			h-0.1v-4.5h0.1c0.1,0,0.2,0,0.2,0c0.1,0,0.1,0.1,0.1,0.1v-0.7h-0.5v-1.4c0.1,0,0.2,0,0.3,0C26.2,41.2,26.4,41.2,26.6,41.3
			 M26.6,49.1c-0.1,0-0.1,0.1-0.2,0.1c-0.2,0.3-0.3,0.7-0.2,1.1c0,0.2,0.2,0.4,0.3,0.5v-1.7H26.6z M26.6,51.2v1.7h-0.8v-1.6h0.1
			c0-0.1-0.1-0.1-0.1-0.2v-0.7c0,0.2,0.1,0.3,0.2,0.4C26.1,50.9,26.3,51.1,26.6,51.2 M25.8,48.1c0.1,0,0.1,0,0.2-0.1
			c0-0.1,0-0.2,0-0.2c0-0.1-0.1-0.1-0.2-0.2l0,0V48.1z M25.8,58.8c-0.1-0.1-0.2-0.2-0.3-0.3v-4c0.1,0.1,0.2,0.2,0.3,0.3V58.8z
			 M25.4,38.7c0.1,0,0.2,0,0.3,0.1v1.9h-0.3V38.7z M25.8,41.1v1.4h-0.3v-1.4C25.5,41.1,25.6,41.1,25.8,41.1 M25.8,43.1v4.5
			c-0.1,0-0.2,0-0.2,0.1c-0.1,0.1-0.1,0.1-0.1,0.2v-4.8C25.5,43.1,25.6,43.1,25.8,43.1 M25.8,47.6c-0.1,0-0.1,0-0.2,0.1
			c-0.1,0.1-0.1,0.2,0,0.3c0,0.1,0.1,0.1,0.1,0.1h0.1V47.6z M25.8,48.2v1.4c-0.1,0.2-0.1,0.4,0,0.6V51c-0.1-0.1-0.1-0.1-0.2-0.2
			l-0.2-0.3v-0.9c0.1-0.2,0.1-0.4,0-0.6v-1c0,0,0,0.1,0.1,0.1C25.5,48.2,25.7,48.2,25.8,48.2L25.8,48.2z M25.8,51.2v1.6h-0.3v-1.7
			C25.5,51.2,25.6,51.2,25.8,51.2L25.8,51.2z M25.4,58.5c-0.2-0.2-0.4-0.3-0.6-0.5v-4c0.2,0.2,0.4,0.4,0.6,0.6V58.5z M24.8,38.4
			c0.2,0.1,0.4,0.2,0.6,0.2v2h-0.6V38.4z M25.4,41.2v1.4h-0.3v-1.3C25.2,41.2,25.3,41.2,25.4,41.2 M25.4,43.1v4.8c0,0.1,0,0.1,0,0.1
			v1c0,0,0,0,0-0.1l-0.1-0.1c-0.1-0.1-0.3-0.1-0.5-0.1v-0.5c0.2,0,0.4-0.1,0.4-0.3c0-0.2-0.1-0.3-0.3-0.3h-0.1v-2.2h0.6
			c-0.1-0.1-0.2-0.3-0.3-0.5c0-0.1,0-0.2,0-0.3v-1.5H25.4z M25.4,49.6v0.9L25,50c0.1,0,0.3-0.1,0.3-0.2
			C25.4,49.7,25.4,49.7,25.4,49.6 M25.4,51.1c-0.1,0-0.1-0.1-0.2-0.2l-0.4-0.6v2.5h0.6V51.1z M24.8,49.8c0,0,0.1,0,0.1-0.1
			c0.1,0,0.1-0.1,0.1-0.2c0.1-0.2,0-0.5-0.2-0.6c0,0,0,0-0.1,0L24.8,49.8L24.8,49.8z M24.8,48.1c0.1,0,0.1,0,0.2-0.1
			c0-0.1,0.1-0.2,0-0.2c0-0.1-0.1-0.1-0.2-0.2V48.1z M24.8,58c-0.1-0.1-0.2-0.2-0.4-0.3c-0.1-0.1-0.2-0.2-0.4-0.4v-4
			c0.2,0.2,0.4,0.4,0.7,0.7L24.8,58L24.8,58z M24.1,38.1c0.2,0.1,0.4,0.2,0.6,0.3h0.1v2.2h-0.7c0.1,0.1,0.2,0.3,0.3,0.5
			c0,0.1,0,0.2,0,0.3v3.1c0,0.1,0,0.3,0,0.4c0,0.2-0.1,0.3-0.2,0.4h0.7v2.2c-0.1,0-0.2,0-0.2,0.1c-0.1,0.1-0.2,0.3-0.1,0.5
			c0.1,0.1,0.2,0.1,0.3,0.1v0.5h-0.1l0,0h-0.6v-0.5l0,0l0,0v-0.3h0.1c0,0,0,0,0.1,0v-0.1h-0.1v-0.2h0.1h0.1v-0.1h-0.2v-9.4H24.1z
			 M24.8,47.6c-0.1,0-0.1,0-0.2,0.1c-0.1,0.1-0.1,0.2,0,0.3c0,0.1,0,0.1,0.1,0.1h0.1V47.6z M24.8,49v0.8c-0.1,0-0.1,0.1-0.2,0.1
			s-0.1,0-0.1,0l0.3,0.4v2.5h-0.7v-1.6h0.5c-0.1-0.1-0.1-0.2-0.1-0.3c0-0.1,0-0.1,0-0.2V49C24.6,49,24.7,49,24.8,49
			C24.7,48.9,24.7,49,24.8,49 M24.1,57.3c-0.8-0.8-1.4-1.7-1.9-2.7c-0.4-0.8-0.6-1.6-0.7-2.5c-0.1-0.7,0-1.3,0.1-2
			c0.1-0.6,0.2-1.1,0.4-1.7c0.2-0.6,0.4-1.3,0.6-2.1c0.1-0.3,0.1-0.7,0-1.1c-0.2-0.6-0.5-1.1-0.9-1.6l-0.4-0.4l1.7-5.9l0.5,0.4
			c0.2,0.1,0.4,0.2,0.6,0.4v9.5h-0.2v0.1v0.4c0,0.1,0,0.1,0,0.1h0.2v0.5h-0.2c0.1,0.1,0.1,0.1,0.1,0.2c0,0.1,0,0.1,0,0.2v1.6
			c0,0.1,0,0.1,0,0.2c0,0.1-0.1,0.2-0.1,0.2h0.2v1.6h-0.5l0.5,0.5V57.3z M24.1,47.7L24.1,47.7v0.2l0,0V47.7z M24.1,47.9L24.1,47.9
			v0.2c0,0.1,0,0.1,0,0.1V47.9z"/>
		<path class="st4" d="M55.5,43l0.1-0.3c0,0,1.3-2.2,2.3-2.9v-0.3c0,0-2-1.1-2.4-1.1l-0.3,0.2l-0.6-0.1L54.4,38c0,0-1.5-0.3-2.4-0.3
			L51.8,38h-0.6L51,37.6c0,0-1.7,0.1-2.4,0.3l-0.2,0.4c0,0-0.3,0.1-0.4,0.2c0,0-0.3-0.2-0.6-0.3c0,0-1.7,0.4-2.3,1.3
			c0,0,1.8,2.2,2.2,3.5c-3.2,1.6-5.4,4.8-5.4,8.6c0,5.3,4.3,9.6,9.6,9.6s9.6-4.3,9.6-9.6C61,47.8,58.8,44.5,55.5,43"/>
		<polyline class="st8" points="42.4,51.4 42.4,51.4 42.4,51.4 42.4,51.4 		"/>
		<polyline class="st8" points="60.3,51.4 60.3,51.4 60.3,51.4 60.3,51.4 		"/>
		<path class="st4" d="M51.4,44.1c-4.2,0-7.6,3.4-7.6,7.6s3.4,7.6,7.6,7.6c4.2,0,7.6-3.4,7.6-7.6S55.6,44.1,51.4,44.1"/>
		<path class="st4" d="M51.4,43.2c-4.7,0-8.5,3.8-8.5,8.5s3.8,8.5,8.5,8.5c4.7,0,8.5-3.8,8.5-8.5S56.1,43.2,51.4,43.2"/>
		<path class="st0" d="M51.4,43.2c-4.7,0-8.5,3.8-8.5,8.5s3.8,8.5,8.5,8.5c4.7,0,8.5-3.8,8.5-8.5S56.1,43.2,51.4,43.2"/>
		<path class="st3" d="M48.7,42.6L48.7,42.6c0.1,0,0.1-0.4-0.1-0.7c0,0-0.3,0.1-0.4,0.2l0.2,0.3C48.3,42.5,48.5,42.6,48.7,42.6
			L48.7,42.6"/>
		<path class="st8" d="M48.6,42.1c0.1,0.1,0.2,0.3,0.2,0.4C48.8,42.4,48.8,42.1,48.6,42.1c0-0.1-0.3,0-0.4,0.1v0.1
			C48.3,42.2,48.6,42.1,48.6,42.1"/>
		<path class="st3" d="M49.2,42.4c0,0,0.3,0.1,0.4-0.1c0,0,0-0.5-0.1-0.6c0,0-0.5,0.1-0.8,0.2l0.2,0.4
			C48.9,42.3,49.1,42.3,49.2,42.4"/>
		<path class="st8" d="M49.6,41.9c0.1,0,0.1,0.3,0.1,0.4l0,0c0,0,0-0.5-0.1-0.6c0,0-0.5,0.1-0.8,0.2l0.1,0.1
			C49.1,41.9,49.6,41.9,49.6,41.9"/>
		<path class="st3" d="M51.2,42.2c0,0,0.3,0.1,0.4,0c0,0,0-0.4,0-0.5c0,0-0.5-0.1-0.7,0v0.1C50.8,41.7,51.2,42,51.2,42.2"/>
		<path class="st8" d="M51.6,41.8c0,0.1,0,0.3,0,0.4l0,0C51.6,42.2,51.6,41.8,51.6,41.8c0-0.1-0.5-0.2-0.7-0.1v0.1l0,0
			C51.1,41.7,51.6,41.8,51.6,41.8"/>
		<path class="st3" d="M52.7,42.1v-0.3l-0.1-0.1c0,0-0.1-0.1-0.3,0c0,0-0.1,0.3,0,0.4C52.4,42.1,52.6,42.2,52.7,42.1"/>
		<path class="st8" d="M52.4,41.8c0.2,0,0.3,0,0.3,0l0.1,0.1v-0.1l-0.1-0.1C52.7,41.7,52.6,41.6,52.4,41.8c0-0.1,0,0.1,0,0.2
			C52.3,41.9,52.4,41.8,52.4,41.8"/>
		<path class="st3" d="M53.5,42c0,0-0.2,0.2-0.1,0.4c0,0,0.1,0.3,0.4,0.1V42C53.9,42,53.7,41.9,53.5,42"/>
		<path class="st8" d="M53.5,42.1c0.2-0.1,0.3,0,0.4,0V42C53.9,42,53.7,41.9,53.5,42.1c0-0.1-0.1,0-0.1,0.2
			C53.4,42.2,53.5,42.1,53.5,42.1"/>
		<path class="st3" d="M54.7,42.6c0.1-0.1,0.1-0.3,0.1-0.3C54.6,42,54.1,42,54.1,42C54,42.1,54,42.5,54,42.6
			c-0.2-0.1-0.5-0.1-0.7-0.2v-0.6c-0.1-0.1-0.3-0.1-0.3-0.1v0.6c-0.2,0-0.4-0.1-0.6-0.1c-0.1,0-0.2-0.1-0.2-0.1l-0.1-0.6
			c-0.1-0.1-0.2,0-0.2,0s0,0.4,0,0.6c-0.2,0-0.3,0-0.5,0c-0.1,0-0.3,0-0.4,0S50.8,42,50.8,42c0,0.1-0.1,0.1-0.1,0.1
			c-0.2,0-0.3,0-0.5,0.1c-0.1-0.3,0.1-0.3,0.1-0.3c0.1,0.1,0.3,0,0.3,0c0.1-0.2-0.1-0.4-0.1-0.4c-0.2-0.1-0.7,0-0.7,0
			c-0.1,0.2,0.1,0.5,0.2,0.7c-0.2,0-0.3,0.1-0.5,0.1s-0.2,0-0.2,0c0,0.1-0.1,0.1-0.2,0.2c-0.2,0.1-0.4,0.1-0.5,0.2l0.1,0.2
			c0.9-0.3,1.9-0.5,2.9-0.5c1.1,0,2.2,0.2,3.3,0.6c0-0.1,0.1-0.2,0.1-0.2l0,0c-0.1-0.1-0.4-0.2-0.4-0.2v-0.2
			C54.5,42.6,54.7,42.6,54.7,42.6"/>
		<path class="st8" d="M50.1,42.3c0,0,0,0.1,0,0.2c0.2,0,0.3,0,0.5-0.1c0.1,0,0.1-0.1,0.1-0.1s0.1,0.1,0.2,0.1c0.1,0,0.3,0,0.4,0
			c0.2,0,0.3,0,0.5,0c0-0.1,0-0.3,0-0.5c0,0.1,0,0.3,0,0.4c-0.2,0-0.3,0-0.5,0c-0.1,0-0.3,0-0.4,0c-0.1,0-0.2-0.1-0.2-0.1
			c0,0.1-0.1,0.1-0.1,0.1c-0.2,0-0.3,0-0.5,0.1C50.2,42.4,50.1,42.3,50.1,42.3"/>
		<path class="st8" d="M54,42.8L54,42.8c-0.2-0.2-0.5-0.2-0.7-0.3v0.1C53.5,42.7,53.7,42.7,54,42.8"/>
		<path class="st8" d="M54,42.2c0,0,0.5,0,0.7,0.3l0,0c0-0.1,0-0.1,0-0.1c-0.2-0.3-0.7-0.3-0.7-0.3s0,0.3,0,0.5
			C54,42.4,54,42.2,54,42.2"/>
		<path class="st8" d="M52.1,41.8l0.1,0.6c0,0,0.1,0,0.2,0.1c0.2,0,0.4,0.1,0.6,0.1V42c0,0,0.2,0,0.3,0.1V42
			c-0.1-0.1-0.3-0.1-0.3-0.1v0.6c-0.2,0-0.4-0.1-0.6-0.1c-0.1,0-0.2-0.1-0.2-0.1L52.1,41.8c-0.1-0.2-0.2-0.1-0.2-0.1s0,0,0,0.1
			C52,41.8,52.1,41.8,52.1,41.8"/>
		<path class="st8" d="M54.4,42.7L54.4,42.7c0,0.1,0.3,0.2,0.4,0.3v-0.1l0,0C54.6,42.8,54.4,42.7,54.4,42.7"/>
		<path class="st8" d="M49,42.8c0.1,0,0.2-0.1,0.2-0.2c0,0,0.1,0.1,0.2,0c0.2,0,0.3-0.1,0.5-0.1v-0.1c-0.1,0-0.3,0.1-0.4,0.1
			c-0.2,0-0.2,0-0.2,0C49.3,42.6,49.2,42.6,49,42.8c-0.1,0-0.3,0-0.4,0.1V43C48.7,42.9,48.8,42.8,49,42.8"/>
		<path class="st8" d="M49.8,41.8c0,0,0.5-0.1,0.7,0c0,0,0.1,0.1,0.1,0.3c0-0.2-0.1-0.4-0.1-0.4C50.3,41.6,49.8,41.7,49.8,41.8
			C49.8,41.8,49.8,41.8,49.8,41.8C49.8,41.9,49.8,41.9,49.8,41.8"/>
		<path class="st3" d="M48.2,41.7c-0.2-0.1-0.4,0.1-0.4,0.1c-0.2,0.2-0.4-0.1-0.4-0.1l0.2-0.1l-0.1-0.2l-0.4,0.2
			c0.1,0.4,0.3,0.5,0.3,0.5c0.2,0.1,0.5-0.2,0.5-0.2h0.2L48.2,41.7"/>
		<path class="st8" d="M47.6,41.8L47.6,41.8c-0.1,0,0.1,0.3,0.3,0.1c0,0,0.1-0.2,0.4-0.1l0,0h0.1l-0.1-0.1c-0.2-0.1-0.4,0.1-0.4,0.1
			C47.7,42,47.6,41.9,47.6,41.8"/>
		<path class="st8" d="M47.6,41.6L47.6,41.6L47.6,41.6L47.6,41.6l-0.4,0.1v0.1L47.6,41.6"/>
		<path class="st3" d="M48.4,41c0,0-0.5,0.2-0.6,0.3c0,0-0.1,0.1,0.3,0.2l0.5-0.3C48.6,41.2,48.6,41,48.4,41"/>
		<path class="st8" d="M47.9,41.4c0.1-0.1,0.5-0.3,0.5-0.3c0.1,0,0.1,0.1,0.1,0.1l0,0c0,0,0-0.2-0.1-0.2C48.4,41,48,41.2,47.9,41.4
			C47.9,41.3,47.8,41.4,47.9,41.4"/>
		<path class="st3" d="M48.7,41.7c0,0,0.2-0.1,0.2-0.3c0,0-0.4-0.1-0.5,0.1C48.4,41.6,48.6,41.8,48.7,41.7"/>
		<path class="st8" d="M48.5,41.6c0.1-0.1,0.4-0.1,0.4-0.1v-0.1C48.9,41.4,48.6,41.3,48.5,41.6C48.4,41.6,48.5,41.6,48.5,41.6"/>
		<path class="st3" d="M49.2,41.2c0.3-0.1,0.1-0.4,0.1-0.4c-0.5-0.2-0.7,0.1-0.7,0.1C48.7,41.3,49.2,41.2,49.2,41.2"/>
		<path class="st8" d="M49.3,41C49.3,41,49.3,41,49.3,41S49.3,40.9,49.3,41c-0.5-0.3-0.7,0-0.7,0v0.1C48.8,40.9,49,40.8,49.3,41"/>
		<path class="st3" d="M51.4,40.4c-0.7-0.1-1.9,0.1-1.9,0.1l-0.1,0.2c0.1,0,1.8-0.1,1.8-0.1C51.5,40.5,51.4,40.4,51.4,40.4"/>
		<path class="st8" d="M49.6,40.6c0,0,1.2-0.2,1.9-0.1c0-0.1,0-0.1,0-0.1C50.8,40.3,49.6,40.5,49.6,40.6l-0.1,0.1l0,0L49.6,40.6"/>
		<path class="st3" d="M50,41.1c0,0,0.1-0.2-0.1-0.3c0,0-0.2,0-0.3,0.1C49.6,40.9,49.7,41.1,50,41.1L50,41.1"/>
		<path class="st8" d="M49.9,41C50,41,50,41.1,49.9,41C50,41,50,40.9,49.9,41c0-0.1-0.2-0.1-0.3,0c0,0,0,0,0.1,0.1
			C49.7,41,49.9,41,49.9,41"/>
		<path class="st3" d="M50.1,40.8l0.1,0.2c0,0,0.6,0,0.7-0.1l-0.1-0.1C50.9,40.7,50.5,40.7,50.1,40.8"/>
		<path class="st8" d="M50.9,40.8L50.9,40.8C51,40.9,51,40.8,50.9,40.8L50.9,40.8c0-0.1-0.4-0.2-0.8-0.1l0.1,0.1
			C50.6,40.8,50.9,40.8,50.9,40.8"/>
		<path class="st3" d="M50.2,41.5c0,0,0.6,0.1,0.8,0c0,0,0.1-0.1,0-0.3c0,0-0.6-0.1-0.9,0C50,41.2,50,41.4,50.2,41.5"/>
		<path class="st8" d="M50,41.3c0.3-0.1,0.9,0,0.9,0v0.1c0,0,0-0.1,0-0.2C50.9,41.2,50.3,41.1,50,41.3C50,41.2,50,41.3,50,41.3
			L50,41.3"/>
		<path class="st3" d="M52.3,40.8L52.3,40.8c0.2-0.1,0-0.2,0-0.2s-0.6-0.1-0.8,0c0,0,0,0.1,0.2,0.2C51.7,40.8,52.1,40.9,52.3,40.8"
			/>
		<path class="st8" d="M51.6,40.7c0.2-0.1,0.7,0,0.7,0s0.1,0,0.1,0.1c0.1-0.1-0.1-0.2-0.1-0.2S51.7,40.5,51.6,40.7
			C51.5,40.6,51.5,40.7,51.6,40.7"/>
		<path class="st3" d="M51.2,41.1L51.2,41.1l-0.1,0.1v0.2h0.4l0.1-0.2C51.5,41,51.2,41.1,51.2,41.1"/>
		<path class="st8" d="M51.2,41.3L51.2,41.3c0-0.1,0.3-0.2,0.5-0.1v-0.1c-0.2-0.2-0.5-0.1-0.5-0.1V41.3L51.2,41.3L51.2,41.3
			L51.2,41.3"/>
		<path class="st3" d="M52.6,41.5c0,0,0.1-0.2,0-0.4c0,0-0.5,0-0.7,0c0,0-0.1,0.2,0,0.4C51.9,41.5,52.4,41.6,52.6,41.5"/>
		<path class="st8" d="M52,41.2c0.2,0,0.7,0,0.7,0v0.1c0-0.1,0-0.1,0-0.2C52.6,41.1,52.2,41.1,52,41.2c0-0.1-0.1,0-0.1,0.2
			C51.9,41.3,52,41.2,52,41.2"/>
		<path class="st3" d="M53.9,41.4c0,0-0.4-0.3-0.9-0.2c0,0-0.1,0.1,0,0.3c0,0,0.3,0.3,0.9,0.2C53.9,41.7,53.9,41.5,53.9,41.4"/>
		<path class="st8" d="M53,41.3c0.5-0.1,0.9,0.2,0.9,0.2v-0.1C53.9,41.4,53.5,41.1,53,41.3C53,41.2,52.9,41.3,53,41.3
			C53,41.4,53,41.3,53,41.3"/>
		<path class="st3" d="M54.1,41.9c0,0,0.4,0.3,0.7,0.2c0,0,0.1-0.1,0.2-0.3c0,0-0.2-0.1-0.8-0.2C54.3,41.6,54,41.7,54.1,41.9"/>
		<path class="st8" d="M54.3,41.6c0.5,0.1,0.7,0.2,0.8,0.2c0,0,0,0,0-0.1C55,41.8,54.9,41.7,54.3,41.6c0-0.1-0.2,0.1-0.2,0.2
			C54.1,41.7,54.3,41.6,54.3,41.6"/>
		<path class="st3" d="M48.4,40.8v-0.2c-0.2-0.2-0.7,0.1-0.7,0.1h-0.3L47,40.2l0.1-0.2c0.1-0.1,0.2,0.1,0.2,0.1
			c0.3,0.3,0.5,0.2,0.5,0.2v-0.2c-0.1-0.2-0.5-0.5-0.5-0.5c-0.3,0-0.5,0.2-0.5,0.2l-0.1,0.1h-0.2l-0.1-0.1c-0.2-0.1-0.5,0.2-0.5,0.2
			l0.1,0.2c0.3,0.6,1,1.3,1,1.3C47.4,41.4,48.4,40.8,48.4,40.8"/>
		<path class="st8" d="M46.6,40l0.1,0.1h0.2L47,40c0,0,0.2-0.2,0.5-0.2c0,0,0.4,0.3,0.5,0.5v-0.1c-0.1-0.2-0.5-0.5-0.5-0.5
			c-0.3,0-0.5,0.2-0.5,0.2L46.9,40H46.6v-0.1c-0.2-0.1-0.5,0.2-0.5,0.2l0.1,0.1C46.3,40,46.5,39.9,46.6,40"/>
		<path class="st8" d="M47.4,40.6L47,40.2v0.1l0.4,0.5h0.3c0,0,0.5-0.2,0.7-0.1l0,0l0,0v-0.2c-0.2-0.2-0.7,0.1-0.7,0.1H47.4"/>
		<path class="st3" d="M48.7,40.2c0.4,0.1,0.6,0,0.6,0c0.1-0.5-0.6-1.5-0.6-1.5c-0.5-0.2-1,0.3-1,0.3C47.9,39,48.7,40.2,48.7,40.2"
			/>
		<path class="st8" d="M48.7,38.8c0,0,0.5,0.8,0.6,1.3l0,0c0.1-0.5-0.6-1.5-0.6-1.5c-0.5-0.2-1,0.3-1,0.3s0.1,0,0.1,0.1
			C48,38.9,48.4,38.7,48.7,38.8"/>
		<path class="st3" d="M51,40.1c0.1-0.1,0-0.2,0-0.2c-0.2-0.1-1,0-1,0c-0.1-0.2-0.3-0.5-0.3-0.5l0.2-0.1l0.1,0.4
			c0.2,0.1,0.3,0,0.3,0c0.1-0.5-0.2-1.1-0.2-1.1c-0.2-0.1-0.8,0.1-0.8,0.1c0.1,0.6,0.6,1.4,0.6,1.4C50.2,40.2,51,40.1,51,40.1"/>
		<path class="st8" d="M49.8,39.6L49.8,39.6c-0.1,0,0.2,0.3,0.2,0.5c0,0,0.8-0.2,1,0l0,0c0-0.1,0-0.1,0-0.1c-0.2-0.1-1,0-1,0
			C50,39.8,49.9,39.7,49.8,39.6"/>
		<path class="st8" d="M50.2,38.8c0,0,0.2,0.4,0.2,0.8C50.4,39.2,50.2,38.7,50.2,38.8c-0.2-0.2-0.8,0-0.8,0v0.1
			C49.5,38.8,50,38.7,50.2,38.8"/>
		<path class="st3" d="M51.7,39.9c0.3-0.6,0.3-1.6,0.3-1.6c-0.4-0.2-1,0-1,0c0,0.4,0.3,1.5,0.3,1.5C51.3,40.1,51.7,39.9,51.7,39.9"
			/>
		<path class="st8" d="M50.9,38.5c0,0,0.6-0.2,1,0c0-0.1,0-0.1,0-0.1c-0.4-0.2-1,0-1,0V38.5C50.9,38.6,50.9,38.5,50.9,38.5"/>
		<path class="st3" d="M53.4,40.4l0.1,0.3h-0.4v0.1c0.2,0.2,0.8,0.2,0.8,0.2c0.2-0.1,0.1-0.6,0.1-0.6l-0.2-0.1v-0.1L52.4,40l0.3-1.3
			c-0.2-0.4-0.4-0.1-0.4-0.1c-0.1,0.2-0.2,1.7-0.2,1.7C52.2,40.4,53.4,40.4,53.4,40.4"/>
		<path class="st8" d="M52.4,40v0.1l1.2,0.1v0.1l0.2,0.1c0,0,0,0.1,0,0.2c0-0.2,0-0.3,0-0.3l-0.2-0.1v-0.1L52.4,40"/>
		<path class="st8" d="M52.3,38.7c0,0,0.2-0.3,0.4,0.1v-0.1c-0.2-0.4-0.4-0.1-0.4-0.1c-0.1,0.2-0.2,1.7-0.2,1.7l0,0
			C52.1,39.9,52.2,38.9,52.3,38.7"/>
		<path class="st8" d="M53.4,40.8L53.4,40.8L53,40.7v0.1l0,0l0,0H53.4"/>
		<path class="st3" d="M53.4,39.7l0.1-0.9c-0.1-0.2-0.6-0.1-0.6-0.1l-0.1,0.8C53,40.1,53.4,39.7,53.4,39.7"/>
		<path class="st8" d="M52.9,38.9c0,0,0.5-0.1,0.6,0.1v-0.1c-0.1-0.2-0.6-0.1-0.6-0.1l-0.1,0.8l0,0L52.9,38.9"/>
		<path class="st3" d="M54.3,40.2c0.2-0.5,1.2-1.3,1.2-1.3c-0.2-0.2-1.1-0.2-1.1-0.2l-0.6,1.2C53.9,40.2,54.3,40.2,54.3,40.2"/>
		<path class="st8" d="M54.4,38.9c0,0,0.7,0,1,0.1c0.1-0.1,0.1-0.1,0.1-0.1c-0.2-0.2-1.1-0.2-1.1-0.2l-0.6,1.2V40L54.4,38.9"/>
		<path class="st3" d="M54.3,40.8c-0.2,0-0.2,0.3-0.2,0.3l1.1,0.5c0.3-0.1,0.1-0.3,0.1-0.3L54.3,40.8"/>
		<path class="st8" d="M54.3,40.9l1,0.5c0,0,0,0.1,0.1,0.1c0-0.1-0.1-0.2-0.1-0.2L54.3,40.9c-0.2-0.1-0.2,0.2-0.2,0.2l0,0
			C54.2,41,54.2,40.9,54.3,40.9"/>
		<path class="st3" d="M55,40.4l0.2-0.1c0,0,0.3-0.7,0.6-0.7c0,0,0.4-0.4-0.2-0.3l-1,1.1v0.1l0.9,0.5l0.2-0.2L55,40.4L55,40.4"/>
		<path class="st8" d="M55.5,39.5c0.2,0,0.3,0,0.3,0c0.1-0.1,0.1-0.2-0.3-0.2l-1,1.1v0.1l0,0L55.5,39.5"/>
		<polygon class="st8" points="55,40.6 54.9,40.7 55.5,41 55.6,40.9 		"/>
		<path class="st3" d="M55.9,39.6l-0.1,0.3l0.4,0.3l0.3-0.3C56.3,39.3,55.9,39.6,55.9,39.6"/>
		<path class="st8" d="M55.9,39.7c0,0,0.4-0.3,0.6,0.2l0,0c-0.3-0.6-0.7-0.3-0.7-0.3l-0.1,0.3l0,0L55.9,39.7"/>
		<path class="st3" d="M55.7,40.1c0,0.1-0.2,0.6-0.2,0.6c0,0.2,0.3,0.2,0.3,0.2l0.4-0.4C56.1,40.1,55.7,40.1,55.7,40.1"/>
		<path class="st8" d="M55.7,40.3c0,0,0.3,0,0.5,0.2l0,0C56,40.1,55.7,40.2,55.7,40.3c0,0-0.2,0.5-0.2,0.5v0.1
			C55.6,40.7,55.7,40.3,55.7,40.3"/>
		<path class="st4" d="M51.4,59c-1.7,0-3.3-0.6-4.5-1.5h-0.3c1.3,1.1,3,1.8,4.9,1.8s3.5-0.7,4.9-1.8H56C54.7,58.4,53.1,59,51.4,59"
			/>
		<path class="st4" d="M48.4,44.7c-0.1,0.2-0.2,0.6-0.2,0.8v2.7c0,0,0,1-1.2,1.4c-0.3,0.1-0.8,0.1-1-0.1c-0.3-0.2-0.3-0.5-0.3-0.7
			v-0.3v-0.8l0,0c0,0-0.1-0.2-0.2-0.2l0,0c0,0-0.1-0.1-0.2-0.2c0.2-0.3,0.7-0.7,0.9-0.8c0,0.2-0.1,0.8-0.1,1.3s0,0.9,0.2,1.1
			l0.1,0.1l0,0l0,0c0,0,0.3,0.1,0.6,0c0.2-0.1,0.4-0.4,0.4-0.8v-2.5l0,0c0,0-0.1-0.1-0.2-0.2C47.8,45.1,48.2,44.8,48.4,44.7
			 M48.5,44.6L48.5,44.6c-0.2,0-0.9,0.4-1.4,0.7l-0.2,0.1l0.2,0.1c0,0,0.1,0.1,0.2,0.2v2.4c0,0.3-0.2,0.5-0.3,0.6
			c-0.2,0.1-0.4,0-0.4,0l0,0l0,0l0,0l0,0c-0.2-0.2-0.2-1.5-0.1-2.3v-0.1h-0.1c-0.4-0.1-1,0.7-1.1,0.8l-0.1,0.1l0.3,0.3l0,0l0.1,0.1
			v0.8v0.3c0,0.3,0,0.6,0.3,0.8c0.3,0.2,0.8,0.3,1.2,0.1c1.3-0.4,1.3-1.5,1.3-1.5v-2.7C48.4,45.3,48.6,44.8,48.5,44.6l0.2-0.1
			L48.5,44.6L48.5,44.6z"/>
		<path class="st4" d="M47.5,45.1L47.5,45.1L47.5,45.1c0,0.1,0.1,0.2,0.2,0.3v2.5c0,0.4-0.2,0.6-0.4,0.7c-0.2,0.1-0.5,0-0.5,0l0,0
			l0,0h-0.1c-0.3-0.3-0.1-2.4-0.1-2.4l0,0l0,0c-0.4-0.1-1,0.8-1.1,0.8l0,0l0.2,0.2l0,0c0.1,0,0.1,0.2,0.1,0.2v0.8v0.1v0.1
			c0,0.3,0,0.6,0.3,0.8c0.3,0.2,0.8,0.2,1.1,0.1c1.2-0.4,1.2-1.4,1.2-1.5v-2.7c0-0.2,0.2-0.8,0.2-0.8l0,0h-0.1
			C48.7,44.4,47.7,45,47.5,45.1"/>
		<path class="st3" d="M48.8,44.4c-0.1,0.2-0.2,0.6-0.2,0.8v2.7c0,0,0,1-1.2,1.4c-0.3,0.1-0.8,0.1-1-0.1c-0.3-0.2-0.3-0.5-0.3-0.9
			v-0.1v-0.8l0,0c0,0-0.1-0.2-0.2-0.2l0,0c0,0-0.2-0.1-0.2-0.2c0.2-0.2,0.6-0.7,0.9-0.8c0,0.2-0.1,0.7-0.1,1.3c0,0.5,0,0.9,0.2,1.1
			l0.1,0.1l0,0c0,0,0.3,0.1,0.5,0c0.2-0.1,0.4-0.4,0.4-0.8v-2.5l0,0c-0.1-0.1-0.2-0.1-0.2-0.2C48,44.9,48.6,44.5,48.8,44.4"/>
		<path class="st8" d="M46.1,48.3v-0.2V48.3c0,0,0,0.1,0,0.2l0,0V48.3"/>
		<path class="st8" d="M47.7,45.2c0.3-0.2,0.8-0.5,1-0.6c0-0.1,0-0.1,0.1-0.2c-0.2,0.1-0.8,0.4-1.2,0.7
			C47.7,45.1,47.7,45.2,47.7,45.2"/>
		<path class="st8" d="M46.6,47.6c0,0.5,0,0.9,0.2,1.1l0.1,0.1l0,0c0,0,0.3,0.1,0.5,0c0.2-0.1,0.4-0.4,0.4-0.8v-2.5v2.3
			c0,0.4-0.2,0.6-0.4,0.8c-0.3,0.1-0.5,0-0.5,0l0,0c0,0-0.1,0-0.1-0.1C46.6,48.4,46.6,48,46.6,47.6L46.6,47.6"/>
		<path class="st8" d="M46.6,46.3c0-0.1,0-0.1,0-0.2c-0.3,0-0.7,0.5-0.9,0.8c0,0,0,0,0.1,0.1C46,46.7,46.4,46.3,46.6,46.3"/>
		<path class="st4" d="M50.7,47c-0.3-0.2-0.6-0.5-0.8-0.7c-0.3-0.4-0.4-0.8-0.2-1.2c0.1-0.2,0.2-0.4,0.4-0.5c0.5-0.4,1.1-0.4,1.6,0
			l0,0l0,0c0,0,0.2,0.1,0.3,0l0,0l0,0c0,0,0.1-0.1,0.2,0v0.8c0,0-0.1,0.1-0.2,0c0,0-0.6-0.7-1.1-0.6l0,0c0,0-0.3,0-0.4,0.2
			c-0.1,0.1-0.2,0.3-0.2,0.5v0.1c0,0,0.1,0.4,0.7,0.6c0.1,0,1.2,0.5,1.4,1.2c0,0.1,0,0.2,0,0.3c0,0.4-0.2,0.9-0.6,1.1
			c-0.4,0.2-0.9,0.3-1.3,0.1c0,0-0.5-0.2-0.7-0.1v-1.2c0,0.3,0.2,0.4,0.2,0.4l0,0l0,0c0,0,0.6,0.9,1.3,0.6c0.3-0.1,0.5-0.5,0.4-0.8
			c-0.1-0.3-0.5-0.5-0.8-0.7L50.7,47 M50,44.5c-0.2,0.2-0.4,0.4-0.4,0.6c-0.2,0.4-0.1,0.9,0.2,1.3c0.2,0.3,0.5,0.5,0.9,0.8l0.2,0.1
			c0.3,0.2,0.6,0.4,0.7,0.6c0.1,0.2,0,0.5-0.3,0.6c-0.6,0.2-1.1-0.6-1.1-0.6l0,0c-0.1-0.1-0.4-0.3-0.4-0.3l-0.2-0.1v1.8l0.2-0.3
			c0.1-0.1,0.4,0,0.6,0.1c0.4,0.2,1,0.1,1.5-0.1c0.7-0.4,0.8-1.1,0.7-1.6c-0.2-0.8-1.4-1.3-1.4-1.3c-0.5-0.2-0.6-0.5-0.6-0.5
			c0-0.2,0-0.4,0.1-0.6c0.1-0.1,0.3-0.1,0.3-0.1l0,0l0,0l0,0c0.4,0,0.8,0.3,0.9,0.5c0.1,0.1,0.3,0.1,0.5,0l0,0v-1h-0.1
			c-0.2-0.1-0.4,0-0.5,0.1h-0.1C51.2,44.1,50.5,44,50,44.5"/>
		<path class="st4" d="M50.3,44.3c-0.2,0.2-0.3,0.4-0.4,0.6c-0.2,0.4-0.1,0.8,0.2,1.3c0.2,0.3,0.5,0.5,0.8,0.7l0.2,0.1
			c0.3,0.2,0.7,0.4,0.8,0.7c0.1,0.2-0.1,0.6-0.3,0.7c-0.6,0.3-1.2-0.6-1.2-0.6c-0.1-0.1-0.4-0.2-0.4-0.2h-0.1V49l0.1-0.1
			c0.1-0.2,0.5,0,0.7,0c0.4,0.2,1,0.1,1.4-0.1c0.6-0.3,0.8-1,0.6-1.6c-0.2-0.8-1.3-1.3-1.4-1.3c-0.6-0.3-0.6-0.6-0.6-0.6
			c0-0.3,0-0.5,0.2-0.6c0.2-0.2,0.4-0.2,0.4-0.2l0,0l0,0c0.4-0.1,1,0.6,1,0.6c0.1,0.1,0.3,0,0.3,0l0,0v-0.9l0,0
			c-0.2-0.1-0.3,0-0.4,0.1c-0.1,0-0.2,0-0.2,0C51.5,43.9,50.8,43.9,50.3,44.3"/>
		<path class="st3" d="M51.5,48.4c0.3-0.1,0.5-0.5,0.4-0.8c-0.1-0.3-0.5-0.5-0.8-0.7l-0.2-0.1c-0.3-0.2-0.6-0.5-0.8-0.7
			c-0.2-0.3-0.4-0.7-0.2-1.2c0.1-0.2,0.2-0.4,0.4-0.5c0.5-0.4,1.1-0.4,1.6,0l0,0l0,0c0,0,0.2,0.1,0.3,0l0,0l0,0c0,0,0.1-0.1,0.2-0.1
			v0.8c0,0-0.1,0.1-0.2,0c0,0-0.5-0.6-1.1-0.6l0,0c0,0-0.2,0-0.4,0.2s-0.2,0.4-0.2,0.7c0,0,0.1,0.3,0.7,0.6c0,0,1.2,0.5,1.4,1.2
			c0.1,0.5,0,1.2-0.6,1.5c-0.4,0.2-0.9,0.3-1.3,0.1c0,0-0.5-0.2-0.7-0.1v-1.2c0.1,0,0.3,0.1,0.3,0.2C50.3,47.8,50.8,48.7,51.5,48.4"
			/>
		<path class="st8" d="M51.2,46.1c-0.6-0.3-0.7-0.6-0.7-0.6v-0.1c0,0.1,0,0.1,0,0.2c0,0,0.1,0.3,0.7,0.6c0,0,1.2,0.5,1.4,1.2
			c0,0.1,0,0.2,0,0.3c0-0.1,0-0.3,0-0.4C52.4,46.6,51.2,46.1,51.2,46.1"/>
		<path class="st8" d="M51.5,48.4c-0.7,0.3-1.3-0.6-1.3-0.6c0-0.1-0.2-0.1-0.3-0.2v0.1c0.1,0,0.3,0.1,0.3,0.2
			C50.2,47.9,50.8,48.8,51.5,48.4c0.3,0,0.4-0.3,0.4-0.6C51.9,48.1,51.8,48.3,51.5,48.4"/>
		<path class="st8" d="M49.9,45c0.1-0.2,0.2-0.4,0.4-0.5c0.5-0.4,1.1-0.4,1.6,0l0,0l0,0c0,0,0.2,0.1,0.3,0l0,0l0,0
			c0,0,0.1-0.1,0.2-0.1v-0.1c-0.2-0.1-0.2,0-0.2,0.1l0,0l0,0c-0.1,0.1-0.3,0-0.3,0l0,0l0,0c-0.4-0.4-1.1-0.4-1.6,0
			C50.1,44.5,50,44.8,49.9,45c-0.1,0.1-0.1,0.2-0.1,0.4C49.8,45.3,49.9,45.2,49.9,45"/>
		<path class="st4" d="M55.1,45.2c0.7,0.1,1.2,0.7,1.2,1.4v1.8c0,0.5-0.2,0.8-0.4,0.9c-0.1,0.1-0.2,0.1-0.4,0.2h-0.2l0.1,0.1
			c0.1,0.1,0.3,0.2,0.7,0.3c0,0.1,0,0.3,0,0.4c-0.2,0-1.1-0.1-1.5-0.8l0,0l0,0c-0.6-0.2-1-0.7-1-1.3v-1.8c0-0.3,0.2-0.7,0.4-0.9
			C54.4,45.2,54.7,45.2,55.1,45.2 M54,45.3c-0.3,0.2-0.5,0.6-0.5,1v1.8c0,0.7,0.4,1.2,1.1,1.4c0.5,0.9,1.7,0.9,1.7,0.9h0.1v-0.7
			h-0.1c-0.2,0-0.4-0.1-0.6-0.2c0.1,0,0.2-0.1,0.3-0.1c0.2-0.2,0.5-0.5,0.5-1v-1.8c0-0.7-0.6-1.4-1.4-1.5C54.7,45,54.3,45.1,54,45.3
			"/>
		<path class="st4" d="M54.3,45.2c-0.3,0.2-0.5,0.6-0.5,0.9v1.8c0,0.7,0.4,1.2,1.1,1.4c0.4,0.9,1.6,0.9,1.6,0.9l0,0v-0.6l0,0
			c-0.4,0-0.6-0.2-0.7-0.3c0.1,0,0.3-0.1,0.4-0.2c0.2-0.1,0.4-0.4,0.4-1v-1.8c0-0.7-0.6-1.3-1.3-1.4C55,44.9,54.6,45,54.3,45.2"/>
		<path class="st3" d="M55,49.2L55,49.2L55,49.2c-0.7-0.2-1.1-0.7-1.1-1.3v-1.8c0-0.3,0.2-0.7,0.4-0.9c0.3-0.2,0.6-0.3,0.9-0.2
			c0.7,0.1,1.2,0.7,1.2,1.4v1.8c0,0.5-0.2,0.8-0.4,0.9c-0.1,0.1-0.3,0.2-0.4,0.2h-0.1h0.1c0.1,0.1,0.4,0.3,0.8,0.3
			c0,0.1,0,0.4,0,0.4C56.3,50,55.4,50,55,49.2"/>
		<path class="st8" d="M53.9,46.2c0-0.3,0.2-0.7,0.4-0.9c0.3-0.2,0.6-0.3,0.9-0.2c0.7,0.1,1.2,0.7,1.2,1.4v-0.1
			c0-0.7-0.5-1.3-1.2-1.4c-0.3,0-0.7,0-0.9,0.2c-0.3,0.2-0.4,0.5-0.4,0.9v1.8l0,0V46.2"/>
		<path class="st4" d="M54.9,45.9c-0.1,0.1-0.2,0.2-0.2,0.4v1.8c0,0.4,0.2,0.6,0.6,0.7c0.1,0,0.3,0,0.4-0.1c0.1-0.1,0.1-0.2,0.1-0.4
			v-1.8c0-0.3-0.3-0.6-0.6-0.7C55.1,45.8,55,45.8,54.9,45.9"/>
		<path class="st6" d="M55.2,45.9c-0.1,0-0.1,0-0.2,0c0.2,0.1,0.4,0.3,0.4,0.6v1.8c0,0.2,0,0.3-0.1,0.3l0,0h0.1c0.1,0,0.2,0,0.3,0
			c0.1,0,0.1-0.2,0.1-0.3v-1.8C55.7,46.2,55.5,45.9,55.2,45.9"/>
		<path class="st3" d="M47.1,57.3c0,0,0.5-0.7,2.4-1.1c1.9-0.4,5.1-0.2,6.1-0.5l1-0.3c0,0,0.2,1.2-1.8,1.2s-5.7,0.3-6.3,0.6
			c-0.5,0.3-0.9,0.7-1.3,0.5C47.3,57.8,46.9,57.7,47.1,57.3"/>
		<path class="st4" d="M48,56.3L48,56.3c-0.2-0.5,0.1-1.4,0.1-1.6l0,0C48.2,55.2,48.2,55.9,48,56.3 M50.1,55.5
			c-0.9-0.8-0.9-2.1-0.9-2.1v-0.1c0-0.5-0.1-0.9-0.2-1.4c-0.1-0.3-0.2-0.5-0.4-0.7c-0.2-0.2-0.4-0.3-0.6-0.5s-0.3-0.4-0.4-0.6
			c0-0.1,0-0.2,0-0.3c0-0.2,0-0.3,0-0.3l0,0l0,0c-0.1-0.1-0.1-0.1-0.2-0.2c0-0.5-0.1-0.7-0.1-0.7l0,0l0,0c-0.3,0.1-0.5,0.6-0.6,0.7
			c-0.2,0.1-0.3,0.2-0.3,0.2l0,0l0,0c0,0,0,1.1,0.3,1.6c0,0.1-0.2,0.5-0.2,1c0,0.1,0,0.2,0,0.3l0,0v0.1c0.1,0.4,0.3,0.8,0.8,1.1
			c0,0.1,0.1,0.4,0.3,0.6l0,0c0,0,0.3,2.1-0.3,2.4l-0.1,0.2c0.3-0.2,0.7,0.1,0.7,0.1l0,0H48l0,0c0-0.1,0-0.3,0-0.4
			c0.2,0,0.4,0.2,0.4,0.2l0,0h0.1l0,0c0.1-0.1-0.1-0.6-0.1-0.7c-0.1-0.2-0.1-0.7,0-1c0,0,0.1,0.1,0.1,0.2l0,0
			c0.1,0.1,0.2,0.3,0.2,0.5c0.2,0.5,0.2,1.1,0.2,1.6l0,0l0,0c0,0,0.3,0.2,0.5,0.1c0.1,0,0.2-0.1,0.2-0.2l0,0l0,0l0,0
			c0.2,0.1,0.3,0.1,0.4,0c0.2-0.1,0.2-0.2,0.2-0.3c0.1,0,0.2,0,0.3,0c0.1-0.1,0.1-0.2,0.1-0.2C50.9,56,50.2,55.5,50.1,55.5"/>
		<path class="st3" d="M47.2,48.8c0,0.1,0.1,0.3,0.1,0.6l0,0c-0.1,0-0.2-0.1-0.3-0.1s-0.2,0-0.3,0.1C46.8,49.2,47,48.9,47.2,48.8"/>
		<path class="st8" d="M47.2,48.9c0,0.1,0.1,0.2,0.1,0.4l0,0l0,0c0-0.3-0.1-0.5-0.1-0.6c-0.2,0.1-0.4,0.4-0.5,0.6h0.1
			C47,49.1,47.1,49,47.2,48.9"/>
		<path class="st3" d="M46.7,51.2c0.1,0,0.3-0.1,0.4,0c0.1,0.1,0.2,0.3,0.3,0.5l0,0c-0.1,0-0.3,0.2-0.4,0.3
			c-0.2-0.2-0.4-0.2-0.5-0.2C46.6,51.5,46.7,51.3,46.7,51.2"/>
		<path class="st8" d="M46.7,51.4c0.1,0,0.3-0.1,0.4,0c0.1,0.1,0.2,0.2,0.2,0.4l0,0l0,0c-0.1-0.2-0.1-0.4-0.3-0.5
			c-0.2-0.1-0.4,0-0.4,0c0,0.1-0.1,0.3-0.2,0.6l0,0C46.6,51.6,46.7,51.4,46.7,51.4"/>
		<path class="st3" d="M46.5,51.9c0,0,0.3,0,0.4,0.2v0.1v-0.1c0-0.1,0.3-0.3,0.4-0.3v0.1c0,0,0,0.1,0.1,0.3
			c-0.2,0.1-0.3,0.3-0.3,0.4c-0.3-0.2-0.5-0.2-0.6-0.1C46.5,52.3,46.5,52.1,46.5,51.9"/>
		<path class="st8" d="M46.5,52c0,0,0.3,0,0.4,0.2v0.1v-0.1c0-0.1,0.3-0.3,0.4-0.3V52c0,0,0,0.1,0,0.2l0,0c0-0.2-0.1-0.3-0.1-0.3
			v-0.1c-0.1,0-0.3,0.2-0.4,0.3v0.1v-0.1C46.6,51.9,46.4,51.9,46.5,52c-0.1,0-0.1,0.1-0.1,0.3C46.5,52.2,46.5,52.1,46.5,52"/>
		<path class="st3" d="M46.5,52.6c0.1,0,0.4-0.1,0.6,0.2l0.1,0.1v-0.1c0,0,0.1-0.3,0.3-0.4l0,0c0.1,0.3,0.2,0.7,0.4,1.1
			c-0.5-0.2-0.8-0.5-0.8-0.5s0.3,0.4,0.8,0.7l0,0c0.1,0.2,0.2,0.3,0.3,0.4l-0.1,0.1c-0.2,0.1-0.5-0.2-0.6-0.3l0,0l0,0
			C46.9,53.4,46.6,53,46.5,52.6"/>
		<path class="st8" d="M47.9,53.5c-0.5-0.2-0.8-0.5-0.8-0.5s0.3,0.4,0.8,0.7l0,0c0.1,0.1,0.2,0.2,0.2,0.4l0.1-0.1
			C48.2,53.8,48,53.7,47.9,53.5L47.9,53.5L47.9,53.5L47.9,53.5"/>
		<path class="st8" d="M47.2,52.9L47.2,52.9L47.2,52.9c0.1,0,0.2-0.3,0.4-0.4l0,0c0.1,0.3,0.1,0.6,0.3,0.9H48
			c-0.2-0.4-0.3-0.8-0.4-1.1l0,0c-0.2,0.1-0.3,0.4-0.3,0.4L47.2,52.9v-0.1c-0.2-0.2-0.5-0.2-0.6-0.2v0.1
			C46.7,52.7,46.9,52.7,47.2,52.9"/>
		<path class="st3" d="M48,56.9L48,56.9c-0.1,0-0.4-0.2-0.6-0.2c0.4-0.4,0.3-1.9,0.3-2.3c0.1,0.1,0.2,0.2,0.4,0.2
			c0,0.1-0.2,0.7-0.2,1.2C47.9,56.2,48,56.5,48,56.9L48,56.9"/>
		<path class="st3" d="M48.6,56.6L48.6,56.6L48.6,56.6c-0.1,0-0.3-0.1-0.5-0.1c0,0,0,0,0-0.1c0.2-0.3,0.2-1.1,0.2-1.7l0,0
			c0,0,0.1,0.1,0.2,0.1l0,0l0,0c0,0.1-0.1,0.6-0.1,0.7C48.4,55.9,48.6,56.3,48.6,56.6"/>
		<path class="st3" d="M48.3,54.7L48.3,54.7L48.3,54.7c-0.7-0.2-0.9-0.7-1-0.9h0.1c0.1,0,0.5,0.4,0.7,0.3l0.1-0.1
			c0,0,0.3,0.3,0.3,0.6c0,0.1,0,0.1-0.1,0.2C48.5,54.7,48.4,54.8,48.3,54.7"/>
		<path class="st8" d="M47.5,53.9c0.1,0,0.5,0.4,0.7,0.3l0.1-0.1c0,0,0.3,0.2,0.3,0.5l0,0c0-0.3-0.3-0.5-0.3-0.6
			c0,0.1-0.1,0.1-0.1,0.1c-0.2,0.1-0.6-0.3-0.7-0.3h-0.1C47.4,53.8,47.4,53.8,47.5,53.9C47.4,53.9,47.4,53.9,47.5,53.9"/>
		<path class="st3" d="M50.8,56.8c-0.1,0-0.1,0-0.2,0c-0.1-0.4-0.6-0.9-0.6-0.9s0.5,0.6,0.5,0.9c0,0-0.1,0.2-0.2,0.3
			c-0.1,0.1-0.4,0-0.4,0c-0.1-0.6-0.5-1.1-0.5-1.1c0.3,0.3,0.4,1.1,0.4,1.2c0,0.1-0.1,0.1-0.2,0.2c-0.2,0-0.4,0-0.4-0.1
			c0-0.5-0.1-1.1-0.3-1.6c-0.1-0.2-0.1-0.4-0.2-0.5l0,0c-0.1-0.2-0.1-0.2-0.1-0.3c0.1-0.1,0.1-0.2,0.1-0.3c0-0.3-0.2-0.5-0.2-0.5
			c-0.7-0.5-0.9-2.1-0.9-2.1c0-0.4-0.2-0.6-0.4-0.7c-0.2-0.1-0.4-0.1-0.5,0c-0.2-0.4-0.3-1.3-0.3-1.5c0.1-0.1,0.3-0.3,0.6-0.3
			c0.2,0,0.3,0.1,0.5,0.3c0,0,0,0.1,0,0.3c0,0.4,0.2,0.8,0.6,1.1c0.2,0.1,0.3,0.2,0.5,0.3c0.1,0.1,0.1,0.2,0.2,0.3
			c0.2,0.3,0.3,0.6,0.3,0.9c0.1,0.3,0.1,0.5,0.1,0.8v0.1c0,0,0,1.3,1,2.2c0,0,0.8,0.5,0.8,1.1C50.9,56.7,50.9,56.8,50.8,56.8"/>
		<path class="st8" d="M47.5,50.1c0,0.4,0.2,0.8,0.6,1.1c0.2,0.1,0.3,0.2,0.5,0.3c0.1,0.1,0.1,0.2,0.2,0.3c0.2,0.3,0.3,0.6,0.3,0.9
			c0.1,0.3,0.1,0.5,0.1,0.8v0.1c0,0,0,1.3,1,2.2c0,0,0.7,0.5,0.8,1v-0.1c0-0.6-0.8-1.1-0.8-1.1c-1-0.8-1-2.1-1-2.2v-0.1
			c0-0.3,0-0.5-0.1-0.8c-0.1-0.3-0.1-0.7-0.3-0.9c-0.1-0.1-0.1-0.2-0.2-0.3c-0.1-0.1-0.3-0.2-0.5-0.4c-0.3-0.2-0.5-0.6-0.6-1
			C47.5,50,47.5,50,47.5,50.1"/>
		<path class="st8" d="M47.1,49.5c0.2,0,0.3,0.1,0.4,0.2c0-0.1,0-0.1,0-0.2c-0.1-0.2-0.3-0.3-0.5-0.3c-0.3,0-0.6,0.3-0.6,0.3
			s0,0.1,0,0.2C46.5,49.8,46.8,49.5,47.1,49.5"/>
		<path class="st4" d="M55.3,56.3c0-0.3-0.4-0.6-0.7-0.7h-0.1l-0.2-0.1c-0.2-0.1-0.5-0.3-0.6-0.5c-0.1-0.3,0-0.6,0.1-0.8
			c0.3-0.3,0.8-1,0.9-1.2c0.2-0.3,0.3-0.7,0.3-1.1c0-0.3,0-0.6-0.1-0.8l-0.1-0.3c0-0.2,0-0.4-0.1-0.5c0-0.2,0-0.4-0.1-0.6
			c0.3-0.3,0.4-0.9,0.4-1v-0.1h-0.1c-0.4,0.1-0.8,0.3-0.9,0.4c-0.1,0-0.4,0.1-0.6,0.3c-0.2,0.2-0.2,0.5-0.2,0.8c0,0,0.1,0.8-0.4,1.2
			c-0.1,0-1,0.5-1.2,1.6c0,0-0.1,0.8-0.5,1.5c-0.1,0.2-1.5,1.6-1.4,1.9l0,0l0,0c0,0,0.3,0.1,0.8-0.1c0.1,0,0.3,0.1,0.7-0.1
			c0.1,0,0.2,0.1,0.4-0.1l0,0l0,0c-0.1-0.3,0.1-0.6,0.2-0.8c0,0.1,0,0.3,0.1,0.4c0,0,0.8,0.5,0.7,0.9c0,0-0.1,0.3,0,0.4l0,0V57
			c0,0,0.3-0.1,0.4-0.4c0.1,0,0.4,0.1,0.4,0.2h0.1l0,0l0,0c0.1-0.6-0.8-1.1-0.9-1.1c-0.3-0.2-0.4-0.4-0.4-0.5
			c0.2-0.2,0.3-0.5,0.3-0.6c0.2-0.1,0.3-0.1,0.4-0.2c0,0.1,0.1,0.3,0.1,0.4V55c0,0.2,0.1,0.5,0.3,0.6c0.2,0.1,0.7,0.4,0.6,0.9v0.1
			c0.1,0,0.4-0.1,0.5-0.3c0.3-0.1,0.6,0.1,0.6,0.1C55.3,56.4,55.3,56.3,55.3,56.3"/>
		<path class="st3" d="M54.2,49L54.2,49L54.2,49c0.2-0.1,0.5-0.4,0.8-0.4c0,0.2-0.2,0.7-0.4,0.9l0,0l0,0c-0.2,0-0.3-0.1-0.3-0.1
			C54.2,49.3,54.2,49.1,54.2,49"/>
		<path class="st8" d="M54.2,49.2L54.2,49.2L54.2,49.2c0.1-0.1,0.5-0.3,0.8-0.4c0-0.1,0-0.1,0-0.2c-0.3,0.1-0.7,0.3-0.8,0.4l0,0l0,0
			C54.2,49.1,54.2,49.2,54.2,49.2L54.2,49.2"/>
		<path class="st3" d="M51.9,52.9c0.2-1,0.9-1.5,1.1-1.5c0.1,0.1,0.8,0.9,0,1.8c0.2-0.5,0-0.8,0-0.9c0-0.1,0-0.3,0-0.3
			c0,0.1-0.2,0.3-0.2,0.3h0.1c0,0.1,0.1,0.4-0.1,1l0,0c-0.1,0.1-0.2,0.3-0.5,0.4c0.2-0.5,0.1-1,0.1-1s0.1,0.6-0.2,1.1
			c-0.1,0.1-0.3,0.3-0.7,0.5C51.8,53.6,51.9,52.9,51.9,52.9"/>
		<path class="st8" d="M51.9,53.1c0.2-1,0.9-1.5,1.1-1.5c0.1,0.1,0.3,0.4,0.4,0.8c0-0.5-0.3-0.9-0.4-1c-0.2,0.1-0.9,0.5-1.1,1.5
			c0,0-0.1,0.7-0.4,1.4h0.1C51.8,53.7,51.9,53.1,51.9,53.1"/>
		<path class="st8" d="M52.4,53.3c0,0.2,0,0.3-0.1,0.5h0.1C52.4,53.6,52.4,53.4,52.4,53.3"/>
		<path class="st3" d="M54.6,56.2c0,0.2-0.2,0.2-0.3,0.3c0.1-0.5-0.4-0.8-0.6-0.9c-0.2-0.1-0.3-0.3-0.3-0.6v-0.2
			c0-0.1-0.1-0.3-0.1-0.5c0.1-0.1,0.1-0.2,0.1-0.2s-0.3,0.4-1,0.4c0,0,0.2,0,0.3,0c-0.1,0.2-0.3,0.5-0.3,0.5l-0.1,0.1h0.1
			c0,0.1,0.1,0.3,0.4,0.5c0,0,0.8,0.4,0.8,0.9c-0.1-0.1-0.3-0.1-0.4-0.2l-0.1-0.2c0,0.3-0.2,0.5-0.3,0.5l0,0c-0.1,0,0-0.2,0-0.3
			c0.2-0.5-0.7-1-0.7-1c-0.1,0.1,0-0.3,0-0.3c0.1-0.1,0-0.3,0-0.3c0,0.1-0.1,0.1-0.1,0.2c-0.1,0.1-0.1,0.2-0.2,0.3
			c-0.1,0.3-0.3,0.5-0.2,0.8c-0.2,0.1-0.3,0-0.3,0l0,0l0,0c-0.3,0.3-0.6,0.2-0.6,0.2c0.1-0.1,0.3-0.6,0.5-0.8c0,0-0.4,0.3-0.7,0.9
			c-0.3,0.2-0.5,0.1-0.6,0.1c0-0.2,0.9-1.2,1.4-1.8c0,0,0,0,0-0.1c0.4-0.1,0.8-0.5,0.8-0.5c0.4-0.1,0.7-0.4,0.7-0.5
			c0.4-0.4,0.6-0.9,0.6-1.2c0-0.5-0.3-0.8-0.4-0.9c0.4-0.3,0.5-0.8,0.4-1.2c0-0.3,0-0.5,0.2-0.8c0.1-0.2,0.3-0.3,0.5-0.3
			c0,0.1,0,0.2,0.1,0.4c0.1,0.1,0.2,0.2,0.4,0.2c0,0.2,0,0.4,0.1,0.6c0,0.2,0,0.4,0.1,0.6l0.1,0.3C55,51.5,55,51.7,55,52
			c0,0.4-0.1,0.7-0.3,1.1c-0.1,0.2-0.6,0.8-0.8,1.1c0,0,0,0-0.1,0.1c-0.1,0.1-0.1,0.1-0.1,0.1h0.1c-0.1,0.2-0.1,0.5-0.1,0.8
			c0.1,0.3,0.3,0.4,0.6,0.6l0.2,0.1h0.1c0.2,0.1,0.6,0.4,0.7,0.6C55,56.2,54.6,56.2,54.6,56.2"/>
		<path class="st8" d="M53.6,54.3C53.7,54.3,53.7,54.3,53.6,54.3L53.6,54.3L53.6,54.3"/>
		<path class="st8" d="M53.6,49.5c0.1-0.2,0.3-0.3,0.5-0.3c0-0.1,0-0.1,0-0.1C54,49.1,53.8,49.2,53.6,49.5c-0.2,0.1-0.2,0.3-0.2,0.5
			C53.5,49.8,53.5,49.7,53.6,49.5"/>
		<path class="st8" d="M53.3,54.4L53.3,54.4C53.2,54.5,53.3,54.5,53.3,54.4C53.3,54.4,53.3,54.4,53.3,54.4"/>
		<path class="st8" d="M51.3,54.6C51.3,54.6,51.4,54.6,51.3,54.6c0.4-0.2,0.8-0.5,0.9-0.6c0.4-0.1,0.7-0.4,0.7-0.5
			c0.4-0.4,0.6-0.9,0.6-1.2c0,0,0,0,0-0.1c0,0.3-0.2,0.7-0.6,1.1c0,0-0.2,0.4-0.7,0.5c0,0.1-0.4,0.4-0.8,0.5c0,0,0,0,0,0.1
			C50.9,55,50,56,50,56.2c0,0,0,0,0.1,0C50.2,56,50.9,55.1,51.3,54.6"/>
		<path class="st8" d="M53.5,50.3c0,0.4-0.1,0.7-0.4,1c0,0,0,0,0.1,0.1C53.4,51.1,53.5,50.7,53.5,50.3"/>
		<path class="st4" d="M54.1,49.7C54.1,49.8,54,49.8,54.1,49.7c-0.2,0.1-0.2,0-0.2,0l0.1-0.1C54.1,49.6,54.1,49.6,54.1,49.7"/>
		<path class="st5" d="M52.9,58.5c0.1-0.7-0.4-1.3-1.1-1.4c-0.1,0-0.2,0-0.3,0l0,0l0,0c-0.6,0.1-1,0.5-1.1,1.1c0,0,0,0,0,0.1v0.1
			l0,0c0,0.3,0.1,0.5,0.2,0.7l0,0l0,0c0.2,0.3,0.5,0.5,0.9,0.5c0.5,0.1,1-0.2,1.2-0.6l0,0l0,0C52.9,58.8,52.9,58.6,52.9,58.5z"/>
		<path class="st10" d="M52.9,58.5c0.1-0.7-0.4-1.3-1.1-1.4c-0.1,0-0.2,0-0.3,0l0,0l0,0c-0.6,0.1-1,0.5-1.1,1.1c0,0,0,0,0,0.1v0.1
			l0,0c0,0.3,0.1,0.5,0.2,0.7l0,0l0,0c0.2,0.3,0.5,0.5,0.9,0.5c0.5,0.1,1-0.2,1.2-0.6l0,0l0,0C52.9,58.8,52.9,58.6,52.9,58.5z"/>
		<path class="st4" d="M52.9,58.5c0.1-0.7-0.4-1.3-1.1-1.4c-0.1,0-0.2,0-0.3,0l0,0l0,0c-0.6,0.1-1,0.5-1.1,1.1c0,0,0,0,0,0.1v0.1
			l0,0c0,0.3,0.1,0.5,0.2,0.7l0,0l0,0c0.2,0.3,0.5,0.5,0.9,0.5c0.5,0.1,1-0.2,1.2-0.6l0,0l0,0C52.9,58.8,52.9,58.6,52.9,58.5"/>
		<path class="st3" d="M52,57.2c0.3,0.1,0.5,0.2,0.6,0.4c0,0-0.1,0.1-0.2,0.1l-0.3-0.1C52,57.4,52,57.3,52,57.2L52,57.2"/>
		<path class="st8" d="M52,57.2c0.2,0.1,0.4,0.2,0.6,0.4l0,0C52.4,57.4,52.2,57.3,52,57.2L52,57.2C51.9,57.2,52,57.2,52,57.2
			L52,57.2"/>
		<path class="st3" d="M51.9,57.3c0.1,0.1,0.1,0.2,0.1,0.3l-0.2,0.3c-0.2,0-0.4,0-0.6,0l-0.1-0.2c0.1-0.2,0.2-0.3,0.3-0.4H51.9"/>
		<path class="st8" d="M51.4,57.3h0.5c0.1,0.1,0.1,0.2,0.1,0.3l0,0c0-0.1-0.1-0.2-0.1-0.3H51.4c-0.1,0-0.2,0.1-0.3,0.3l0,0
			C51.2,57.5,51.3,57.4,51.4,57.3"/>
		<path class="st3" d="M51.3,57.2L51.3,57.2c-0.1,0.1-0.2,0.2-0.3,0.4l-0.4,0.2C50.8,57.5,51,57.3,51.3,57.2"/>
		<path class="st8" d="M51,57.6L51,57.6L51,57.6L51,57.6"/>
		<path class="st8" d="M51.3,57.3C51.3,57.3,51.3,57.2,51.3,57.3L51.3,57.3c-0.2,0-0.5,0.2-0.6,0.5l0,0C50.8,57.5,51,57.4,51.3,57.3
			"/>
		<path class="st3" d="M50.6,57.8L50.6,57.8V58h-0.1C50.5,58,50.6,57.9,50.6,57.8"/>
		<path class="st8" d="M50.6,57.8C50.6,57.9,50.6,57.9,50.6,57.8C50.6,57.9,50.6,57.9,50.6,57.8v0.3l0,0V57.8L50.6,57.8"/>
		<path class="st3" d="M50.6,58.2l0.3,0.1c0,0.2,0.1,0.5,0.3,0.7l-0.1,0.1c-0.1,0-0.2,0-0.3-0.1l0,0h-0.1
			C50.6,58.8,50.5,58.6,50.6,58.2C50.5,58.2,50.6,58.2,50.6,58.2"/>
		<path class="st8" d="M50.6,58.2l0.3,0.1c0,0.2,0.1,0.5,0.3,0.7l0,0c-0.2-0.3-0.3-0.5-0.3-0.7L50.6,58.2
			C50.6,58.2,50.5,58.2,50.6,58.2L50.6,58.2L50.6,58.2"/>
		<path class="st3" d="M50.9,59.2L50.9,59.2c0.1,0,0.2,0.1,0.3,0.1l0.1,0.2C51.1,59.4,51,59.3,50.9,59.2"/>
		<path class="st8" d="M50.9,59.2c0.1,0,0.2,0,0.2,0v0.1l0,0L51,59.1C51.1,59.2,51,59.2,50.9,59.2L50.9,59.2L50.9,59.2"/>
		<path class="st3" d="M51.3,59c-0.2-0.2-0.3-0.4-0.3-0.7l0.2-0.3c0.2,0,0.4,0,0.5,0l0.3,0.3c0,0.2-0.1,0.5-0.3,0.7H51.3"/>
		<path class="st8" d="M51.2,58.1c0.2,0,0.4,0,0.5,0l0.3,0.3v-0.1L51.8,58C51.6,57.9,51.5,57.9,51.2,58.1L51,58.2v0.1L51.2,58.1"/>
		<path class="st3" d="M51.8,59.5l0.1-0.2c0.2,0,0.3,0,0.4-0.1v0.1C52.1,59.4,51.9,59.5,51.8,59.5"/>
		<path class="st8" d="M51.9,59.3c0.2,0,0.3,0,0.4-0.1v0.1l0,0v-0.1C52.2,59.3,52,59.3,51.9,59.3l-0.1,0.1l0,0L51.9,59.3"/>
		<path class="st3" d="M52.7,58.9L52.5,59l-0.2,0.2c0,0-0.2,0.2-0.4,0.1l-0.1-0.2c0.2-0.3,0.3-0.5,0.4-0.8l0.3-0.1
			C52.5,58.4,52.7,58.7,52.7,58.9L52.7,58.9"/>
		<path class="st8" d="M52.1,58.4l0.3-0.1c0.1,0.1,0.3,0.4,0.3,0.6l0,0c0-0.2-0.2-0.6-0.3-0.7L52.1,58.4c0,0.2-0.2,0.4-0.4,0.7l0,0
			C52,58.8,52.1,58.6,52.1,58.4"/>
		<path class="st3" d="M52.8,58.8c-0.1-0.2-0.2-0.5-0.3-0.6v-0.4c0.1-0.1,0.1-0.1,0.2-0.1c0.1,0.2,0.2,0.5,0.2,0.8
			C52.8,58.6,52.8,58.7,52.8,58.8"/>
		<path class="st8" d="M52.5,57.8c0.1-0.1,0.1-0.1,0.2-0.1c0,0.1,0.1,0.1,0.1,0.2c0-0.1-0.1-0.2-0.1-0.2
			C52.6,57.7,52.6,57.7,52.5,57.8v0.4l0,0V57.8"/>
		<path class="st8" d="M52.7,58.7L52.7,58.7L52.7,58.7C52.7,58.7,52.7,58.7,52.7,58.7"/>
		<path class="st2" d="M23.2,15.6c-0.2,0-0.4,0-0.6-0.1c-0.2-0.1-0.3-0.2-0.4-0.3C22.1,15.1,22,15,22,14.8c0-0.2-0.1-0.4-0.1-0.6
			c0-0.2,0-0.4,0.1-0.6c0.1-0.2,0.2-0.3,0.3-0.4c0.1-0.1,0.3-0.2,0.4-0.3c0.2-0.1,0.4-0.1,0.6-0.1c0.2,0,0.4,0,0.5,0.1
			c0.2,0.1,0.3,0.2,0.4,0.3c0.1,0.1,0.2,0.3,0.3,0.4s0.1,0.4,0.1,0.6c0,0.3-0.1,0.6-0.2,0.8s-0.3,0.4-0.5,0.5l0,0
			c0.2,0.4,0.4,0.6,0.5,0.6h0.1h0.1c0,0,0,0,0.1-0.1c0,0,0-0.1,0.1-0.1l0,0l0,0l0,0l0,0c0,0.1-0.1,0.1-0.1,0.2s-0.1,0.1-0.1,0.2
			c0,0.1-0.1,0.1-0.2,0.1s-0.1,0.1-0.2,0.1c-0.1,0-0.2,0-0.2-0.1c-0.1-0.1-0.1-0.1-0.2-0.2c-0.1-0.1-0.1-0.2-0.2-0.3
			c0-0.1-0.1-0.2-0.1-0.3C23.4,15.6,23.3,15.6,23.2,15.6 M23.1,14.8c0.1,0,0.2,0,0.3,0.1s0.2,0.2,0.3,0.3c0.1-0.1,0.2-0.3,0.2-0.4
			c0.1-0.2,0.1-0.4,0.1-0.6c0-0.2,0-0.3,0-0.5c0-0.2-0.1-0.3-0.1-0.4c-0.1-0.1-0.2-0.2-0.3-0.3s-0.2-0.1-0.4-0.1
			c-0.1,0-0.3,0-0.4,0.1c-0.1,0.1-0.2,0.2-0.3,0.3c-0.1,0.1-0.1,0.3-0.2,0.4c-0.1,0.1,0,0.3,0,0.5c0,0.2,0,0.3,0,0.5
			c0,0.2,0.1,0.3,0.2,0.4c0,0,0-0.1,0.1-0.1l0.1-0.1l0.1-0.1C23,14.8,23,14.8,23.1,14.8 M23.2,15.5c0.1,0,0.1,0,0.2,0
			c-0.1-0.2-0.2-0.3-0.2-0.4C23.1,15,23.1,15,23,15h-0.1l-0.1,0.1c0,0,0,0.1-0.1,0.1c-0.1,0,0,0.1,0,0.1s0,0,0,0.1l0.1,0.1
			c0.1,0,0.1,0,0.2,0.1S23.2,15.5,23.2,15.5"/>
		<path class="st7" d="M23.2,15.6c-0.2,0-0.4,0-0.6-0.1c-0.2-0.1-0.3-0.2-0.4-0.3C22.1,15.1,22,15,22,14.8c0-0.2-0.1-0.4-0.1-0.6
			c0-0.2,0-0.4,0.1-0.6c0.1-0.2,0.2-0.3,0.3-0.4c0.1-0.1,0.3-0.2,0.4-0.3c0.2-0.1,0.4-0.1,0.6-0.1c0.2,0,0.4,0,0.5,0.1
			c0.2,0.1,0.3,0.2,0.4,0.3c0.1,0.1,0.2,0.3,0.3,0.4s0.1,0.4,0.1,0.6c0,0.3-0.1,0.6-0.2,0.8s-0.3,0.4-0.5,0.5l0,0
			c0.2,0.4,0.4,0.6,0.5,0.6h0.1h0.1c0,0,0,0,0.1-0.1c0,0,0-0.1,0.1-0.1l0,0l0,0l0,0l0,0c0,0.1-0.1,0.1-0.1,0.2s-0.1,0.1-0.1,0.2
			c0,0.1-0.1,0.1-0.2,0.1s-0.1,0.1-0.2,0.1c-0.1,0-0.2,0-0.2-0.1c-0.1-0.1-0.1-0.1-0.2-0.2c-0.1-0.1-0.1-0.2-0.2-0.3
			c0-0.1-0.1-0.2-0.1-0.3C23.4,15.6,23.3,15.6,23.2,15.6z M23.1,14.8c0.1,0,0.2,0,0.3,0.1s0.2,0.2,0.3,0.3c0.1-0.1,0.2-0.3,0.2-0.4
			c0.1-0.2,0.1-0.4,0.1-0.6c0-0.2,0-0.3,0-0.5c0-0.2-0.1-0.3-0.1-0.4c-0.1-0.1-0.2-0.2-0.3-0.3s-0.2-0.1-0.4-0.1
			c-0.1,0-0.3,0-0.4,0.1c-0.1,0.1-0.2,0.2-0.3,0.3c-0.1,0.1-0.1,0.3-0.2,0.4c-0.1,0.1,0,0.3,0,0.5c0,0.2,0,0.3,0,0.5
			c0,0.2,0.1,0.3,0.2,0.4c0,0,0-0.1,0.1-0.1l0.1-0.1l0.1-0.1C23,14.8,23,14.8,23.1,14.8z M23.2,15.5c0.1,0,0.1,0,0.2,0
			c-0.1-0.2-0.2-0.3-0.2-0.4C23.1,15,23.1,15,23,15h-0.1l-0.1,0.1c0,0,0,0.1-0.1,0.1c-0.1,0,0,0.1,0,0.1s0,0,0,0.1l0.1,0.1
			c0.1,0,0.1,0,0.2,0.1S23.2,15.5,23.2,15.5z"/>
		<path class="st2" d="M27.5,14.5c0,0.2,0,0.3-0.1,0.5s-0.1,0.3-0.2,0.4c-0.1,0.1-0.2,0.2-0.3,0.2c-0.1,0.1-0.3,0.1-0.5,0.1
			c-0.2,0-0.4,0-0.5-0.1c-0.1,0-0.3-0.1-0.3-0.2s-0.2-0.2-0.2-0.3s-0.1-0.3-0.1-0.5v-1.1c0-0.1,0-0.2,0-0.2c0-0.1,0-0.1-0.1-0.1
			l-0.1-0.1c0,0-0.1,0-0.2,0l0,0l0,0l0,0l0,0c0.1,0,0.2,0,0.3,0c0.1,0,0.2,0,0.3,0s0.1,0,0.2,0c0.1,0,0.1,0,0.1,0h0.1
			c0,0,0.1,0,0.2,0l0,0l0,0l0,0l0,0c-0.1,0-0.2,0-0.2,0c-0.1,0-0.1,0-0.1,0.1c0,0,0,0.1-0.1,0.1c0,0.1,0,0.1,0,0.2v1.1
			c0,0.1,0,0.2,0,0.3s0.1,0.2,0.1,0.3c0,0.1,0.1,0.1,0.2,0.2s0.2,0.1,0.3,0.1c0.3,0,0.5-0.1,0.6-0.2c0.1-0.1,0.2-0.4,0.2-0.7v-0.7
			v-0.2c0-0.1,0-0.1,0-0.2s0-0.1,0-0.2c0-0.1,0-0.1,0-0.1v-0.1c0,0,0,0-0.1-0.1c0,0,0,0-0.1,0h-0.1l0,0l0,0l0,0l0,0
			c0.1,0,0.1,0,0.2,0s0.1,0,0.2,0c0.1,0,0.1,0,0.2,0s0.1,0,0.2,0l0,0l0,0l0,0l0,0h-0.1h-0.1c0,0,0,0-0.1,0.1c0,0,0,0.1-0.1,0.1v0.1
			c0,0.1,0,0.1,0,0.2s0,0.1,0,0.2c0,0.1,0,0.1,0,0.2v0.6H27.5z"/>
		<path class="st7" d="M27.5,14.5c0,0.2,0,0.3-0.1,0.5s-0.1,0.3-0.2,0.4c-0.1,0.1-0.2,0.2-0.3,0.2c-0.1,0.1-0.3,0.1-0.5,0.1
			c-0.2,0-0.4,0-0.5-0.1c-0.1,0-0.3-0.1-0.3-0.2s-0.2-0.2-0.2-0.3s-0.1-0.3-0.1-0.5v-1.1c0-0.1,0-0.2,0-0.2c0-0.1,0-0.1-0.1-0.1
			l-0.1-0.1c0,0-0.1,0-0.2,0l0,0l0,0l0,0l0,0c0.1,0,0.2,0,0.3,0c0.1,0,0.2,0,0.3,0s0.1,0,0.2,0c0.1,0,0.1,0,0.1,0h0.1
			c0,0,0.1,0,0.2,0l0,0l0,0l0,0l0,0c-0.1,0-0.2,0-0.2,0c-0.1,0-0.1,0-0.1,0.1c0,0,0,0.1-0.1,0.1c0,0.1,0,0.1,0,0.2v1.1
			c0,0.1,0,0.2,0,0.3s0.1,0.2,0.1,0.3c0,0.1,0.1,0.1,0.2,0.2s0.2,0.1,0.3,0.1c0.3,0,0.5-0.1,0.6-0.2c0.1-0.1,0.2-0.4,0.2-0.7v-0.7
			v-0.2c0-0.1,0-0.1,0-0.2s0-0.1,0-0.2c0-0.1,0-0.1,0-0.1v-0.1c0,0,0,0-0.1-0.1c0,0,0,0-0.1,0h-0.1l0,0l0,0l0,0l0,0
			c0.1,0,0.1,0,0.2,0s0.1,0,0.2,0c0.1,0,0.1,0,0.2,0s0.1,0,0.2,0l0,0l0,0l0,0l0,0h-0.1h-0.1c0,0,0,0-0.1,0.1c0,0,0,0.1-0.1,0.1v0.1
			c0,0.1,0,0.1,0,0.2s0,0.1,0,0.2c0,0.1,0,0.1,0,0.2v0.6H27.5z"/>
		<path class="st2" d="M30.1,12.9L30.1,12.9C30.2,12.9,30.2,12.9,30.1,12.9c0.1,0.1,0.1,0.1,0.1,0.2v0.1c0,0.1,0,0.2,0,0.3l0,0l0,0
			l0,0l0,0c0-0.1,0-0.2-0.1-0.2c0-0.1,0-0.1-0.1-0.1l-0.1-0.1c-0.1,0-0.1,0-0.2,0h-0.2c-0.1,0-0.1,0-0.2,0h-0.1c0,0,0,0,0,0.1
			c0,0,0,0.1,0,0.2V14v0.1l0,0c0.1,0,0.2,0,0.3,0s0.1,0,0.2-0.1l0.1-0.1c0,0,0-0.1,0-0.2l0,0l0,0l0,0l0,0v0.1v0.1V14v0.1
			c0,0.1,0,0.2,0,0.2c0,0.1,0,0.1,0,0.2l0,0l0,0l0,0l0,0c0-0.1,0-0.1,0-0.2c0,0,0-0.1-0.1-0.1c0,0-0.1,0-0.2-0.1c-0.1,0-0.2,0-0.3,0
			l0,0c0,0,0,0,0,0.1v0.5c0,0.1,0,0.2,0,0.2c0,0.1,0,0.1,0.1,0.2l0.1,0.1c0,0,0.1,0,0.1,0.1h0.1h0.1c0.1,0,0.1,0,0.2,0s0.1,0,0.1,0
			c0.1,0,0.1,0,0.1-0.1c0-0.1,0.1-0.1,0.1-0.1s0-0.1,0.1-0.1c0-0.1,0-0.1,0-0.2l0,0c0,0,0,0,0.1,0c0,0,0,0,0.1,0l0,0
			c0,0.1,0,0.2,0,0.3s0,0.2,0,0.3l0,0c0,0,0,0-0.1,0h-1.5c-0.1,0-0.2,0-0.3,0s-0.2,0-0.3,0l0,0l0,0l0,0c0,0,0,0,0.1,0s0.1,0,0.2,0
			c0,0,0.1,0,0.1-0.1l0.1-0.1c0,0,0-0.1,0-0.2v-1.6c0-0.1,0-0.1,0-0.2c0-0.1,0-0.1,0-0.2s0-0.1-0.1-0.1c-0.1,0-0.3,0.1-0.4,0.1h-0.1
			h-0.1l0,0l0,0l0,0l0,0c0.1,0,0.2,0,0.2,0s0.2,0,0.3,0h1.5V12.9z"/>
		<path class="st7" d="M30.1,12.9L30.1,12.9C30.2,12.9,30.2,12.9,30.1,12.9c0.1,0.1,0.1,0.1,0.1,0.2v0.1c0,0.1,0,0.2,0,0.3l0,0l0,0
			l0,0l0,0c0-0.1,0-0.2-0.1-0.2c0-0.1,0-0.1-0.1-0.1l-0.1-0.1c-0.1,0-0.1,0-0.2,0h-0.2c-0.1,0-0.1,0-0.2,0h-0.1c0,0,0,0,0,0.1
			c0,0,0,0.1,0,0.2V14v0.1l0,0c0.1,0,0.2,0,0.3,0s0.1,0,0.2-0.1l0.1-0.1c0,0,0-0.1,0-0.2l0,0l0,0l0,0l0,0v0.1v0.1V14v0.1
			c0,0.1,0,0.2,0,0.2c0,0.1,0,0.1,0,0.2l0,0l0,0l0,0l0,0c0-0.1,0-0.1,0-0.2c0,0,0-0.1-0.1-0.1c0,0-0.1,0-0.2-0.1c-0.1,0-0.2,0-0.3,0
			l0,0c0,0,0,0,0,0.1v0.5c0,0.1,0,0.2,0,0.2c0,0.1,0,0.1,0.1,0.2l0.1,0.1c0,0,0.1,0,0.1,0.1h0.1h0.1c0.1,0,0.1,0,0.2,0s0.1,0,0.1,0
			c0.1,0,0.1,0,0.1-0.1c0-0.1,0.1-0.1,0.1-0.1s0-0.1,0.1-0.1c0-0.1,0-0.1,0-0.2l0,0c0,0,0,0,0.1,0c0,0,0,0,0.1,0l0,0
			c0,0.1,0,0.2,0,0.3s0,0.2,0,0.3l0,0c0,0,0,0-0.1,0h-1.5c-0.1,0-0.2,0-0.3,0s-0.2,0-0.3,0l0,0l0,0l0,0c0,0,0,0,0.1,0s0.1,0,0.2,0
			c0,0,0.1,0,0.1-0.1l0.1-0.1c0,0,0-0.1,0-0.2v-1.6c0-0.1,0-0.1,0-0.2c0-0.1,0-0.1,0-0.2s0-0.1-0.1-0.1c-0.1,0-0.3,0.1-0.4,0.1h-0.1
			h-0.1l0,0l0,0l0,0l0,0c0.1,0,0.2,0,0.2,0s0.2,0,0.3,0h1.5V12.9z"/>
		<path class="st2" d="M31.8,15.6c-0.2-0.4-0.3-0.7-0.5-1.1c-0.1-0.4-0.3-0.7-0.4-1.1c0-0.1,0-0.1-0.1-0.2c0-0.1-0.1-0.1-0.1-0.1
			L30.6,13c0,0-0.1,0-0.2,0l0,0l0,0l0,0l0,0c0.1,0,0.2,0,0.3,0c0.1,0,0.2,0,0.3,0s0.2,0,0.3,0c0.1,0,0.2,0,0.3,0l0,0l0,0l0,0l0,0
			h-0.1h-0.1h-0.1v0.1c0,0.1,0.1,0.3,0.2,0.6c0.1,0.3,0.3,0.7,0.5,1.3l0,0l0,0l0.3-0.8c0-0.1,0-0.1,0.1-0.2c0-0.1,0.1-0.2,0.1-0.3
			c0-0.1,0.1-0.2,0.1-0.3s0-0.2,0-0.2v-0.1c0,0,0,0-0.1-0.1s-0.1,0-0.1,0h-0.1l0,0l0,0l0,0l0,0c0.1,0,0.2,0,0.2,0c0.1,0,0.2,0,0.2,0
			c0.1,0,0.1,0,0.2,0s0.1,0,0.2,0l0,0l0,0l0,0l0,0c-0.1,0-0.2,0-0.2,0.1c-0.1,0-0.1,0.1-0.1,0.1s-0.1,0.1-0.1,0.2s-0.1,0.1-0.1,0.2
			L32,15.3l-0.1,0.4l0,0C31.9,15.7,31.9,15.7,31.8,15.6C31.8,15.7,31.8,15.7,31.8,15.6L31.8,15.6"/>
		<path class="st7" d="M31.8,15.6c-0.2-0.4-0.3-0.7-0.5-1.1c-0.1-0.4-0.3-0.7-0.4-1.1c0-0.1,0-0.1-0.1-0.2c0-0.1-0.1-0.1-0.1-0.1
			L30.6,13c0,0-0.1,0-0.2,0l0,0l0,0l0,0l0,0c0.1,0,0.2,0,0.3,0c0.1,0,0.2,0,0.3,0s0.2,0,0.3,0c0.1,0,0.2,0,0.3,0l0,0l0,0l0,0l0,0
			h-0.1h-0.1h-0.1v0.1c0,0.1,0.1,0.3,0.2,0.6c0.1,0.3,0.3,0.7,0.5,1.3l0,0l0,0l0.3-0.8c0-0.1,0-0.1,0.1-0.2c0-0.1,0.1-0.2,0.1-0.3
			c0-0.1,0.1-0.2,0.1-0.3s0-0.2,0-0.2v-0.1c0,0,0,0-0.1-0.1s-0.1,0-0.1,0h-0.1l0,0l0,0l0,0l0,0c0.1,0,0.2,0,0.2,0c0.1,0,0.2,0,0.2,0
			c0.1,0,0.1,0,0.2,0s0.1,0,0.2,0l0,0l0,0l0,0l0,0c-0.1,0-0.2,0-0.2,0.1c-0.1,0-0.1,0.1-0.1,0.1s-0.1,0.1-0.1,0.2s-0.1,0.1-0.1,0.2
			L32,15.3l-0.1,0.4l0,0C31.9,15.7,31.9,15.7,31.8,15.6C31.8,15.7,31.8,15.7,31.8,15.6L31.8,15.6z"/>
		<path class="st2" d="M33.7,13.5c0-0.1,0-0.2,0-0.2c0-0.1,0-0.1-0.1-0.1l-0.1-0.1c0,0-0.1,0-0.2,0l0,0l0,0l0,0l0,0
			c0.1,0,0.2,0,0.3,0s0.2,0,0.3,0s0.1,0,0.2,0s0.1,0,0.1,0h0.1c0,0,0.1,0,0.2,0l0,0l0,0l0,0l0,0c-0.1,0-0.2,0-0.2,0
			c-0.1,0-0.1,0-0.1,0.1c0,0,0,0.1-0.1,0.1c0,0.1,0,0.1,0,0.2v1.6c0,0.1,0,0.2,0,0.2s0,0.1,0.1,0.1c0,0,0.1,0,0.1,0.1
			c0.1,0,0.1,0,0.2,0l0,0l0,0l0,0l0,0c-0.1,0-0.2,0-0.3,0c-0.1,0-0.2,0-0.3,0s-0.2,0-0.3,0s-0.2,0-0.3,0l0,0l0,0l0,0l0,0
			c0.1,0,0.2,0,0.2,0c0.1,0,0.1,0,0.1-0.1c0,0,0-0.1,0.1-0.1c0-0.1,0-0.1,0-0.2V13.5z"/>
		<path class="st7" d="M33.7,13.5c0-0.1,0-0.2,0-0.2c0-0.1,0-0.1-0.1-0.1l-0.1-0.1c0,0-0.1,0-0.2,0l0,0l0,0l0,0l0,0
			c0.1,0,0.2,0,0.3,0s0.2,0,0.3,0s0.1,0,0.2,0s0.1,0,0.1,0h0.1c0,0,0.1,0,0.2,0l0,0l0,0l0,0l0,0c-0.1,0-0.2,0-0.2,0
			c-0.1,0-0.1,0-0.1,0.1c0,0,0,0.1-0.1,0.1c0,0.1,0,0.1,0,0.2v1.6c0,0.1,0,0.2,0,0.2s0,0.1,0.1,0.1c0,0,0.1,0,0.1,0.1
			c0.1,0,0.1,0,0.2,0l0,0l0,0l0,0l0,0c-0.1,0-0.2,0-0.3,0c-0.1,0-0.2,0-0.3,0s-0.2,0-0.3,0s-0.2,0-0.3,0l0,0l0,0l0,0l0,0
			c0.1,0,0.2,0,0.2,0c0.1,0,0.1,0,0.1-0.1c0,0,0-0.1,0.1-0.1c0-0.1,0-0.1,0-0.2V13.5z"/>
		<path class="st2" d="M35.3,13.5c0-0.1,0-0.2,0-0.2c0-0.1,0-0.1-0.1-0.1l-0.1-0.1c0,0-0.1,0-0.2,0l0,0l0,0l0,0l0,0
			c0.1,0,0.2,0,0.3,0c0.1,0,0.2,0,0.3,0s0.1,0,0.2,0c0.1,0,0.1,0,0.1,0h0.1c0,0,0.1,0,0.2,0l0,0l0,0l0,0l0,0c-0.1,0-0.2,0-0.2,0
			c-0.1,0-0.1,0-0.1,0.1c0,0,0,0.1-0.1,0.1c0,0.1,0,0.1,0,0.2v1.4c0,0.1,0,0.2,0,0.2c0,0.1,0,0.1,0,0.1l0.1,0.1c0,0,0.1,0,0.1,0.1
			H36h0.1c0.1,0,0.1,0,0.2,0c0.1,0,0.1,0,0.1,0c0.1,0,0.1,0,0.1-0.1l0.1-0.1c0,0,0-0.1,0.1-0.1c0-0.1,0-0.1,0-0.2l0,0c0,0,0,0,0.1,0
			c0.1,0,0,0,0.1,0l0,0c0,0.1,0,0.2,0,0.3c0,0.1,0,0.2,0,0.3l0,0c0,0,0,0-0.1,0h-1.5c-0.1,0-0.2,0-0.3,0s-0.2,0-0.3,0l0,0l0,0l0,0
			l0,0c0.1,0,0.2,0,0.2,0c0.1,0,0.1,0,0.1-0.1c0,0,0-0.1,0.1-0.1c0-0.1,0-0.1,0-0.2v-1.6H35.3z"/>
		<path class="st7" d="M35.3,13.5c0-0.1,0-0.2,0-0.2c0-0.1,0-0.1-0.1-0.1l-0.1-0.1c0,0-0.1,0-0.2,0l0,0l0,0l0,0l0,0
			c0.1,0,0.2,0,0.3,0c0.1,0,0.2,0,0.3,0s0.1,0,0.2,0c0.1,0,0.1,0,0.1,0h0.1c0,0,0.1,0,0.2,0l0,0l0,0l0,0l0,0c-0.1,0-0.2,0-0.2,0
			c-0.1,0-0.1,0-0.1,0.1c0,0,0,0.1-0.1,0.1c0,0.1,0,0.1,0,0.2v1.4c0,0.1,0,0.2,0,0.2c0,0.1,0,0.1,0,0.1l0.1,0.1c0,0,0.1,0,0.1,0.1
			H36h0.1c0.1,0,0.1,0,0.2,0c0.1,0,0.1,0,0.1,0c0.1,0,0.1,0,0.1-0.1l0.1-0.1c0,0,0-0.1,0.1-0.1c0-0.1,0-0.1,0-0.2l0,0c0,0,0,0,0.1,0
			c0.1,0,0,0,0.1,0l0,0c0,0.1,0,0.2,0,0.3c0,0.1,0,0.2,0,0.3l0,0c0,0,0,0-0.1,0h-1.5c-0.1,0-0.2,0-0.3,0s-0.2,0-0.3,0l0,0l0,0l0,0
			l0,0c0.1,0,0.2,0,0.2,0c0.1,0,0.1,0,0.1-0.1c0,0,0-0.1,0.1-0.1c0-0.1,0-0.1,0-0.2v-1.6H35.3z"/>
		<path class="st2" d="M37.8,13.5c0-0.1,0-0.2,0-0.2c0-0.1,0-0.1-0.1-0.1l-0.1-0.1c0,0-0.1,0-0.2,0l0,0l0,0l0,0l0,0
			c0.1,0,0.2,0,0.3,0c0.1,0,0.2,0,0.3,0s0.1,0,0.2,0c0.1,0,0.1,0,0.1,0h0.1c0,0,0.1,0,0.2,0l0,0l0,0l0,0l0,0c-0.1,0-0.2,0-0.2,0
			c-0.1,0-0.1,0-0.1,0.1c0,0,0,0.1-0.1,0.1c0,0.1,0,0.1,0,0.2v1.4c0,0.1,0,0.2,0,0.2c0,0.1,0,0.1,0,0.1l0.1,0.1c0,0,0.1,0,0.1,0.1
			h0.1h0.1c0.1,0,0.1,0,0.2,0c0.1,0,0.1,0,0.1,0c0.1,0,0.1,0,0.1-0.1l0.1-0.1c0,0,0-0.1,0.1-0.1c0-0.1,0-0.1,0-0.2l0,0
			c0,0,0,0,0.1,0c0.1,0,0,0,0.1,0l0,0c0,0.1,0,0.2,0,0.3c0,0.1,0,0.2,0,0.3l0,0c0,0,0,0-0.1,0H38c-0.1,0-0.2,0-0.3,0
			c-0.1,0-0.2,0-0.3,0l0,0l0,0l0,0l0,0c0.1,0,0.2,0,0.2,0c0.1,0,0.1,0,0.1-0.1c0,0,0-0.1,0.1-0.1c0-0.1,0-0.1,0-0.2V13.5L37.8,13.5z
			"/>
		<path class="st7" d="M37.8,13.5c0-0.1,0-0.2,0-0.2c0-0.1,0-0.1-0.1-0.1l-0.1-0.1c0,0-0.1,0-0.2,0l0,0l0,0l0,0l0,0
			c0.1,0,0.2,0,0.3,0c0.1,0,0.2,0,0.3,0s0.1,0,0.2,0c0.1,0,0.1,0,0.1,0h0.1c0,0,0.1,0,0.2,0l0,0l0,0l0,0l0,0c-0.1,0-0.2,0-0.2,0
			c-0.1,0-0.1,0-0.1,0.1c0,0,0,0.1-0.1,0.1c0,0.1,0,0.1,0,0.2v1.4c0,0.1,0,0.2,0,0.2c0,0.1,0,0.1,0,0.1l0.1,0.1c0,0,0.1,0,0.1,0.1
			h0.1h0.1c0.1,0,0.1,0,0.2,0c0.1,0,0.1,0,0.1,0c0.1,0,0.1,0,0.1-0.1l0.1-0.1c0,0,0-0.1,0.1-0.1c0-0.1,0-0.1,0-0.2l0,0
			c0,0,0,0,0.1,0c0.1,0,0,0,0.1,0l0,0c0,0.1,0,0.2,0,0.3c0,0.1,0,0.2,0,0.3l0,0c0,0,0,0-0.1,0H38c-0.1,0-0.2,0-0.3,0
			c-0.1,0-0.2,0-0.3,0l0,0l0,0l0,0l0,0c0.1,0,0.2,0,0.2,0c0.1,0,0.1,0,0.1-0.1c0,0,0-0.1,0.1-0.1c0-0.1,0-0.1,0-0.2V13.5L37.8,13.5z
			"/>
		<path class="st2" d="M41.3,15.1c0,0.1,0,0.2,0,0.2c0,0.1,0,0.1,0.1,0.1c0,0,0.1,0,0.1,0.1s0.1,0,0.2,0l0,0l0,0l0,0l0,0
			c-0.1,0-0.2,0-0.3,0c-0.1,0-0.2,0-0.3,0c-0.1,0-0.2,0-0.3,0c-0.1,0-0.2,0-0.3,0l0,0l0,0l0,0l0,0c0.1,0,0.2,0,0.2,0s0.1,0,0.1-0.1
			c0,0,0-0.1,0.1-0.1c0-0.1,0-0.1,0-0.2v-0.5l-0.4-0.7c0,0,0-0.1-0.1-0.1c0-0.1-0.1-0.1-0.1-0.2c-0.1-0.1-0.1-0.2-0.2-0.2
			S40,13.1,40,13.1L39.9,13c0,0-0.1,0-0.2,0l0,0l0,0l0,0l0,0c0.1,0,0.2,0,0.3,0s0.2,0,0.3,0c0.1,0,0.2,0,0.3,0c0.1,0,0.2,0,0.3,0
			l0,0l0,0l0,0l0,0c-0.1,0-0.2,0-0.2,0.1s-0.1,0.1-0.1,0.1c0,0.1,0,0.1,0.1,0.2l0.5,0.9l0,0l0,0c0.1-0.1,0.1-0.2,0.2-0.4
			c0.1-0.1,0.1-0.2,0.2-0.3c0-0.1,0.1-0.2,0.1-0.3c0-0.1,0-0.1,0-0.2V13c0,0,0,0-0.1-0.1c-0.1-0.1-0.1,0-0.1,0h-0.1l0,0l0,0l0,0l0,0
			c0.1,0,0.2,0,0.3,0c0.1,0,0.2,0,0.2,0c0.1,0,0.1,0,0.2,0c0.1,0,0.1,0,0.2,0l0,0l0,0l0,0l0,0c-0.1,0-0.2,0.1-0.3,0.1
			c-0.1,0.1-0.1,0.1-0.1,0.2c0,0.1-0.1,0.1-0.1,0.2l-0.6,1L41.3,15.1L41.3,15.1z"/>
		<path class="st7" d="M41.3,15.1c0,0.1,0,0.2,0,0.2c0,0.1,0,0.1,0.1,0.1c0,0,0.1,0,0.1,0.1s0.1,0,0.2,0l0,0l0,0l0,0l0,0
			c-0.1,0-0.2,0-0.3,0c-0.1,0-0.2,0-0.3,0c-0.1,0-0.2,0-0.3,0c-0.1,0-0.2,0-0.3,0l0,0l0,0l0,0l0,0c0.1,0,0.2,0,0.2,0s0.1,0,0.1-0.1
			c0,0,0-0.1,0.1-0.1c0-0.1,0-0.1,0-0.2v-0.5l-0.4-0.7c0,0,0-0.1-0.1-0.1c0-0.1-0.1-0.1-0.1-0.2c-0.1-0.1-0.1-0.2-0.2-0.2
			S40,13.1,40,13.1L39.9,13c0,0-0.1,0-0.2,0l0,0l0,0l0,0l0,0c0.1,0,0.2,0,0.3,0s0.2,0,0.3,0c0.1,0,0.2,0,0.3,0c0.1,0,0.2,0,0.3,0
			l0,0l0,0l0,0l0,0c-0.1,0-0.2,0-0.2,0.1s-0.1,0.1-0.1,0.1c0,0.1,0,0.1,0.1,0.2l0.5,0.9l0,0l0,0c0.1-0.1,0.1-0.2,0.2-0.4
			c0.1-0.1,0.1-0.2,0.2-0.3c0-0.1,0.1-0.2,0.1-0.3c0-0.1,0-0.1,0-0.2V13c0,0,0,0-0.1-0.1c-0.1-0.1-0.1,0-0.1,0h-0.1l0,0l0,0l0,0l0,0
			c0.1,0,0.2,0,0.3,0c0.1,0,0.2,0,0.2,0c0.1,0,0.1,0,0.2,0c0.1,0,0.1,0,0.2,0l0,0l0,0l0,0l0,0c-0.1,0-0.2,0.1-0.3,0.1
			c-0.1,0.1-0.1,0.1-0.1,0.2c0,0.1-0.1,0.1-0.1,0.2l-0.6,1L41.3,15.1L41.3,15.1z"/>
		<path class="st2" d="M43.5,14.8L43.5,14.8C43.4,14.7,43.4,14.7,43.5,14.8l-0.1-0.2c0,0,0,0,0.1,0h0.8l0,0v0.1v0.1c0,0,0,0-0.1,0
			H43.5z"/>
		<path class="st7" d="M43.5,14.8L43.5,14.8C43.4,14.7,43.4,14.7,43.5,14.8l-0.1-0.2c0,0,0,0,0.1,0h0.8l0,0v0.1v0.1c0,0,0,0-0.1,0
			H43.5z"/>
		<path class="st2" d="M46.1,13.5c0-0.1,0-0.1,0-0.2c0-0.1,0-0.1,0-0.2c0,0,0-0.1-0.1-0.1l-0.1-0.1h-0.1h-0.1l0,0l0,0l0,0l0,0
			c0.1,0,0.2,0,0.2,0s0.2,0,0.3,0c0.2,0,0.3,0,0.4,0c0.1,0,0.2,0,0.3,0c0.1,0,0.2,0,0.3,0c0.1,0,0.2,0.1,0.3,0.1
			c0.1,0.1,0.1,0.1,0.2,0.2c0.1,0.1,0.1,0.2,0.1,0.3s0,0.2,0,0.3c0,0.1-0.1,0.1-0.1,0.2c-0.1,0.1-0.1,0.1-0.2,0.1s-0.2,0.1-0.2,0.1
			l0,0l0,0c0.1,0.1,0.2,0.1,0.3,0.2c0.1,0.1,0.1,0.2,0.2,0.2c0,0.1,0.1,0.2,0.1,0.3s0,0.2,0.1,0.3c0,0.1,0,0.1,0.1,0.1h0.1h0.1
			l0.1-0.1l0,0l0,0l0,0l0,0c0,0.1,0,0.1-0.1,0.2l-0.1,0.1l-0.1,0.1c-0.1,0-0.1,0-0.2,0c-0.1,0-0.2,0-0.2-0.1s-0.1-0.1-0.1-0.2
			c0,0,0-0.1,0-0.2s0-0.1,0-0.2s0-0.1,0-0.2c0-0.1,0-0.1,0-0.1c0-0.2-0.1-0.3-0.2-0.4c-0.1-0.1-0.2-0.1-0.3-0.1H47v0.1V15
			c0,0.1,0,0.2,0,0.2s0,0.1,0.1,0.1l0.1,0.1c0.1,0,0.1,0,0.2,0l0,0c0,0,0,0,0,0.1l0,0l0,0c-0.1,0-0.3,0-0.4,0s-0.2,0-0.3,0
			c-0.1,0-0.2,0-0.3,0c-0.1,0-0.2,0-0.3,0l0,0l0,0l0,0l0,0c0.1,0,0.1,0,0.2,0c0,0,0.1,0,0.1-0.1c0,0,0-0.1,0.1-0.1s0-0.1,0-0.2v-1.6
			H46.1z M46.5,14c0,0.1,0,0.1,0.1,0.1c0,0,0.1,0,0.2,0c0.1,0,0.2,0,0.3,0c0.1,0,0.1-0.1,0.2-0.1c0,0,0.1-0.1,0.1-0.2
			c0-0.1,0-0.2,0-0.3s0-0.2,0-0.3c0-0.1,0-0.1-0.1-0.2c0,0-0.1-0.1-0.2-0.1c-0.1,0-0.2,0-0.2,0c-0.1,0-0.2,0-0.2,0s-0.1,0.1-0.1,0.2
			L46.5,14L46.5,14z"/>
		<path class="st7" d="M46.1,13.5c0-0.1,0-0.1,0-0.2c0-0.1,0-0.1,0-0.2c0,0,0-0.1-0.1-0.1l-0.1-0.1h-0.1h-0.1l0,0l0,0l0,0l0,0
			c0.1,0,0.2,0,0.2,0s0.2,0,0.3,0c0.2,0,0.3,0,0.4,0c0.1,0,0.2,0,0.3,0c0.1,0,0.2,0,0.3,0c0.1,0,0.2,0.1,0.3,0.1
			c0.1,0.1,0.1,0.1,0.2,0.2c0.1,0.1,0.1,0.2,0.1,0.3s0,0.2,0,0.3c0,0.1-0.1,0.1-0.1,0.2c-0.1,0.1-0.1,0.1-0.2,0.1s-0.2,0.1-0.2,0.1
			l0,0l0,0c0.1,0.1,0.2,0.1,0.3,0.2c0.1,0.1,0.1,0.2,0.2,0.2c0,0.1,0.1,0.2,0.1,0.3s0,0.2,0.1,0.3c0,0.1,0,0.1,0.1,0.1h0.1h0.1
			l0.1-0.1l0,0l0,0l0,0l0,0c0,0.1,0,0.1-0.1,0.2l-0.1,0.1l-0.1,0.1c-0.1,0-0.1,0-0.2,0c-0.1,0-0.2,0-0.2-0.1s-0.1-0.1-0.1-0.2
			c0,0,0-0.1,0-0.2s0-0.1,0-0.2s0-0.1,0-0.2c0-0.1,0-0.1,0-0.1c0-0.2-0.1-0.3-0.2-0.4c-0.1-0.1-0.2-0.1-0.3-0.1H47v0.1V15
			c0,0.1,0,0.2,0,0.2s0,0.1,0.1,0.1l0.1,0.1c0.1,0,0.1,0,0.2,0l0,0c0,0,0,0,0,0.1l0,0l0,0c-0.1,0-0.3,0-0.4,0s-0.2,0-0.3,0
			c-0.1,0-0.2,0-0.3,0c-0.1,0-0.2,0-0.3,0l0,0l0,0l0,0l0,0c0.1,0,0.1,0,0.2,0c0,0,0.1,0,0.1-0.1c0,0,0-0.1,0.1-0.1s0-0.1,0-0.2v-1.6
			H46.1z M46.5,14c0,0.1,0,0.1,0.1,0.1c0,0,0.1,0,0.2,0c0.1,0,0.2,0,0.3,0c0.1,0,0.1-0.1,0.2-0.1c0,0,0.1-0.1,0.1-0.2
			c0-0.1,0-0.2,0-0.3s0-0.2,0-0.3c0-0.1,0-0.1-0.1-0.2c0,0-0.1-0.1-0.2-0.1c-0.1,0-0.2,0-0.2,0c-0.1,0-0.2,0-0.2,0s-0.1,0.1-0.1,0.2
			L46.5,14L46.5,14z"/>
		<path class="st2" d="M49.8,15.6c-0.4,0-0.8-0.1-1-0.4c-0.2-0.2-0.4-0.6-0.4-1.1c0-0.2,0-0.4,0.1-0.6s0.2-0.3,0.3-0.4
			c0.1-0.1,0.3-0.2,0.4-0.3c0.2-0.1,0.4-0.1,0.6-0.1s0.4,0,0.5,0.1c0.1,0.1,0.3,0.2,0.4,0.3c0.1,0.1,0.2,0.3,0.3,0.4
			c0.1,0.2,0.1,0.4,0.1,0.6c0,0.2,0,0.4-0.1,0.6c-0.1,0.2-0.2,0.3-0.3,0.5c-0.1,0.1-0.3,0.2-0.4,0.3C50.2,15.6,50,15.6,49.8,15.6
			 M49.8,15.5c0.1,0,0.3,0,0.4-0.1c0.1-0.1,0.2-0.2,0.3-0.3s0.1-0.2,0.2-0.4c0.1-0.2,0.1-0.3,0.1-0.5c0-0.2,0-0.3,0-0.5
			c0-0.2-0.1-0.3-0.1-0.4c-0.1-0.1-0.2-0.2-0.3-0.3c-0.1-0.1-0.2-0.1-0.4-0.1c-0.1,0-0.3,0-0.4,0.1c-0.1,0.1-0.2,0.2-0.3,0.3
			c-0.1,0.1-0.1,0.3-0.2,0.4c0,0.2,0,0.3,0,0.5c0,0.2,0,0.3,0,0.5c0,0.2,0.1,0.3,0.1,0.4c0.1,0.1,0.2,0.2,0.3,0.3
			C49.5,15.4,49.7,15.5,49.8,15.5"/>
		<path class="st7" d="M49.8,15.6c-0.4,0-0.8-0.1-1-0.4c-0.2-0.2-0.4-0.6-0.4-1.1c0-0.2,0-0.4,0.1-0.6s0.2-0.3,0.3-0.4
			c0.1-0.1,0.3-0.2,0.4-0.3c0.2-0.1,0.4-0.1,0.6-0.1s0.4,0,0.5,0.1c0.1,0.1,0.3,0.2,0.4,0.3c0.1,0.1,0.2,0.3,0.3,0.4
			c0.1,0.2,0.1,0.4,0.1,0.6c0,0.2,0,0.4-0.1,0.6c-0.1,0.2-0.2,0.3-0.3,0.5c-0.1,0.1-0.3,0.2-0.4,0.3C50.2,15.6,50,15.6,49.8,15.6z
			 M49.8,15.5c0.1,0,0.3,0,0.4-0.1c0.1-0.1,0.2-0.2,0.3-0.3s0.1-0.2,0.2-0.4c0.1-0.2,0.1-0.3,0.1-0.5c0-0.2,0-0.3,0-0.5
			c0-0.2-0.1-0.3-0.1-0.4c-0.1-0.1-0.2-0.2-0.3-0.3c-0.1-0.1-0.2-0.1-0.4-0.1c-0.1,0-0.3,0-0.4,0.1c-0.1,0.1-0.2,0.2-0.3,0.3
			c-0.1,0.1-0.1,0.3-0.2,0.4c0,0.2,0,0.3,0,0.5c0,0.2,0,0.3,0,0.5c0,0.2,0.1,0.3,0.1,0.4c0.1,0.1,0.2,0.2,0.3,0.3
			C49.5,15.4,49.7,15.5,49.8,15.5z"/>
		<path class="st2" d="M54.1,14.5c0,0.2,0,0.3-0.1,0.5c0,0.1-0.1,0.3-0.2,0.4c-0.1,0.1-0.2,0.2-0.3,0.2c-0.1,0.1-0.3,0.1-0.5,0.1
			s-0.4,0-0.5-0.1c-0.1,0-0.3-0.1-0.3-0.2c-0.1-0.1-0.2-0.2-0.2-0.3s-0.1-0.3-0.1-0.5v-1.1c0-0.1,0-0.2,0-0.2c0-0.1,0-0.1-0.1-0.1
			l-0.1-0.1c0,0-0.1,0-0.2,0l0,0l0,0l0,0l0,0c0.1,0,0.2,0,0.3,0c0.1,0,0.2,0,0.3,0c0.1,0,0.1,0,0.2,0h0.1h0.1c0,0,0.1,0,0.2,0l0,0
			l0,0l0,0l0,0c-0.1,0-0.2,0-0.2,0c-0.1,0-0.1,0-0.1,0.1c0,0,0,0.1-0.1,0.1c0,0.1,0,0.1,0,0.2v1.1c0,0.1,0,0.2,0,0.3
			s0.1,0.2,0.1,0.3c0.1,0.1,0.1,0.1,0.2,0.2c0.1,0,0.2,0.1,0.3,0.1c0.3,0,0.5-0.1,0.6-0.2c0.1-0.1,0.2-0.4,0.2-0.7v-0.7v-0.2
			c0-0.1,0-0.1,0-0.2s0-0.1,0-0.2c0-0.1,0-0.1,0-0.1v-0.1c0,0,0,0-0.1-0.1c0,0,0,0-0.1,0h-0.1l0,0l0,0l0,0l0,0c0.1,0,0.1,0,0.2,0
			c0.1,0,0.1,0,0.2,0c0.1,0,0.1,0,0.2,0s0.1,0,0.2,0l0,0l0,0l0,0l0,0h-0.1H54c0,0,0,0-0.1,0.1c0,0,0,0.1-0.1,0.1v0.1
			c0,0,0,0.1,0,0.2s0,0.1,0,0.2c0,0.1,0,0.1,0,0.2v0.6H54.1z"/>
		<path class="st7" d="M54.1,14.5c0,0.2,0,0.3-0.1,0.5c0,0.1-0.1,0.3-0.2,0.4c-0.1,0.1-0.2,0.2-0.3,0.2c-0.1,0.1-0.3,0.1-0.5,0.1
			s-0.4,0-0.5-0.1c-0.1,0-0.3-0.1-0.3-0.2c-0.1-0.1-0.2-0.2-0.2-0.3s-0.1-0.3-0.1-0.5v-1.1c0-0.1,0-0.2,0-0.2c0-0.1,0-0.1-0.1-0.1
			l-0.1-0.1c0,0-0.1,0-0.2,0l0,0l0,0l0,0l0,0c0.1,0,0.2,0,0.3,0c0.1,0,0.2,0,0.3,0c0.1,0,0.1,0,0.2,0h0.1h0.1c0,0,0.1,0,0.2,0l0,0
			l0,0l0,0l0,0c-0.1,0-0.2,0-0.2,0c-0.1,0-0.1,0-0.1,0.1c0,0,0,0.1-0.1,0.1c0,0.1,0,0.1,0,0.2v1.1c0,0.1,0,0.2,0,0.3
			s0.1,0.2,0.1,0.3c0.1,0.1,0.1,0.1,0.2,0.2c0.1,0,0.2,0.1,0.3,0.1c0.3,0,0.5-0.1,0.6-0.2c0.1-0.1,0.2-0.4,0.2-0.7v-0.7v-0.2
			c0-0.1,0-0.1,0-0.2s0-0.1,0-0.2c0-0.1,0-0.1,0-0.1v-0.1c0,0,0,0-0.1-0.1c0,0,0,0-0.1,0h-0.1l0,0l0,0l0,0l0,0c0.1,0,0.1,0,0.2,0
			c0.1,0,0.1,0,0.2,0c0.1,0,0.1,0,0.2,0s0.1,0,0.2,0l0,0l0,0l0,0l0,0h-0.1H54c0,0,0,0-0.1,0.1c0,0,0,0.1-0.1,0.1v0.1
			c0,0,0,0.1,0,0.2s0,0.1,0,0.2c0,0.1,0,0.1,0,0.2v0.6H54.1z"/>
		<path class="st2" d="M56.7,12.9L56.7,12.9C56.8,12.9,56.8,12.9,56.7,12.9c0.1,0.1,0.1,0.1,0.1,0.2v0.1c0,0.1,0,0.2,0,0.3l0,0l0,0
			l0,0l0,0c0-0.1,0-0.2-0.1-0.2c-0.1,0,0-0.1-0.1-0.1l-0.1-0.1c-0.1,0-0.1,0-0.2,0h-0.2c-0.1,0-0.1,0-0.2,0h-0.1c0,0,0,0,0,0.1
			c0,0.1,0,0.1,0,0.2V14v0.1l0,0c0.1,0,0.2,0,0.3,0c0.1,0,0.1,0,0.2-0.1l0.1-0.1c0,0,0-0.1,0-0.2l0,0l0,0l0,0l0,0v0.1v0.1V14v0.1
			c0,0.1,0,0.2,0,0.2c0,0.1,0,0.1,0,0.2l0,0l0,0l0,0l0,0c0-0.1,0-0.1,0-0.2c0,0,0-0.1-0.1-0.1c0,0-0.1,0-0.2-0.1c-0.1,0-0.2,0-0.3,0
			l0,0c0,0,0,0,0,0.1v0.5c0,0.1,0,0.2,0,0.2c0,0.1,0,0.1,0.1,0.2l0.1,0.1c0,0,0.1,0,0.1,0.1h0.1h0.1c0.1,0,0.1,0,0.2,0s0.1,0,0.1,0
			c0.1,0,0.1,0,0.1-0.1c0-0.1,0.1-0.1,0.1-0.1s0-0.1,0.1-0.1c0-0.1,0-0.1,0-0.2l0,0c0,0,0,0,0.1,0c0,0,0,0,0.1,0l0,0
			c0,0.1,0,0.2,0,0.3s0,0.2,0,0.3l0,0c0,0,0,0-0.1,0h-1.5c-0.1,0-0.2,0-0.3,0c-0.1,0-0.2,0-0.3,0l0,0l0,0l0,0c0,0,0,0,0.1,0
			s0.1,0,0.2,0c0.1,0,0.1,0,0.1-0.1l0.1-0.1c0,0,0-0.1,0-0.2v-1.6c0-0.1,0-0.1,0-0.2c0-0.1,0-0.1,0-0.2c0,0,0-0.1-0.1-0.1
			c-0.1,0-0.3,0.1-0.4,0.1h-0.1h-0.1l0,0l0,0l0,0l0,0c0.1,0,0.2,0,0.2,0c0.1,0,0.2,0,0.3,0h1.5V12.9z"/>
		<path class="st7" d="M56.7,12.9L56.7,12.9C56.8,12.9,56.8,12.9,56.7,12.9c0.1,0.1,0.1,0.1,0.1,0.2v0.1c0,0.1,0,0.2,0,0.3l0,0l0,0
			l0,0l0,0c0-0.1,0-0.2-0.1-0.2c-0.1,0,0-0.1-0.1-0.1l-0.1-0.1c-0.1,0-0.1,0-0.2,0h-0.2c-0.1,0-0.1,0-0.2,0h-0.1c0,0,0,0,0,0.1
			c0,0.1,0,0.1,0,0.2V14v0.1l0,0c0.1,0,0.2,0,0.3,0c0.1,0,0.1,0,0.2-0.1l0.1-0.1c0,0,0-0.1,0-0.2l0,0l0,0l0,0l0,0v0.1v0.1V14v0.1
			c0,0.1,0,0.2,0,0.2c0,0.1,0,0.1,0,0.2l0,0l0,0l0,0l0,0c0-0.1,0-0.1,0-0.2c0,0,0-0.1-0.1-0.1c0,0-0.1,0-0.2-0.1c-0.1,0-0.2,0-0.3,0
			l0,0c0,0,0,0,0,0.1v0.5c0,0.1,0,0.2,0,0.2c0,0.1,0,0.1,0.1,0.2l0.1,0.1c0,0,0.1,0,0.1,0.1h0.1h0.1c0.1,0,0.1,0,0.2,0s0.1,0,0.1,0
			c0.1,0,0.1,0,0.1-0.1c0-0.1,0.1-0.1,0.1-0.1s0-0.1,0.1-0.1c0-0.1,0-0.1,0-0.2l0,0c0,0,0,0,0.1,0c0,0,0,0,0.1,0l0,0
			c0,0.1,0,0.2,0,0.3s0,0.2,0,0.3l0,0c0,0,0,0-0.1,0h-1.5c-0.1,0-0.2,0-0.3,0c-0.1,0-0.2,0-0.3,0l0,0l0,0l0,0c0,0,0,0,0.1,0
			s0.1,0,0.2,0c0.1,0,0.1,0,0.1-0.1l0.1-0.1c0,0,0-0.1,0-0.2v-1.6c0-0.1,0-0.1,0-0.2c0-0.1,0-0.1,0-0.2c0,0,0-0.1-0.1-0.1
			c-0.1,0-0.3,0.1-0.4,0.1h-0.1h-0.1l0,0l0,0l0,0l0,0c0.1,0,0.2,0,0.2,0c0.1,0,0.2,0,0.3,0h1.5V12.9z"/>
		<path class="st2" d="M57.5,13.3c0-0.1,0-0.2-0.1-0.2c-0.1,0-0.1-0.1-0.2-0.1l0,0l0,0l0,0l0,0h0.2c0.1,0,0.1,0,0.2,0
			c0.1,0,0.1,0,0.2,0c0.1,0,0.1,0,0.1,0l1.6,2l0,0v-1v-0.2c0-0.1,0-0.1,0-0.2s0-0.1,0-0.2s0-0.1,0-0.1v-0.1c0,0,0,0-0.1-0.1
			c-0.1-0.1-0.1,0-0.1,0h-0.1l0,0l0,0l0,0l0,0c0.1,0,0.1,0,0.2,0c0.1,0,0.2,0,0.2,0c0.1,0,0.1,0,0.2,0c0.1,0,0.1,0,0.2,0l0,0l0,0
			l0,0l0,0h-0.1h-0.1c0,0,0,0-0.1,0.1c0,0,0,0.1-0.1,0.1v0.1c0,0.1,0,0.1,0,0.2s0,0.1,0,0.2V14v1.8l0,0c0,0,0,0-0.1,0c0,0,0,0-0.1,0
			l0,0l-1.8-2.1l0,0c0,0,0,0,0,0.1V15c0,0.1,0,0.2,0,0.2c0,0.1,0,0.1,0.1,0.1c0,0,0.1,0,0.1,0.1c0,0,0.1,0,0.2,0l0,0l0,0l0,0l0,0
			c-0.1,0-0.1,0-0.2,0c-0.1,0-0.2,0-0.3,0s-0.2,0-0.3,0c-0.1,0-0.1,0-0.2,0l0,0l0,0l0,0l0,0c0.1,0,0.1,0,0.2,0c0,0,0.1,0,0.1-0.1
			c0,0,0-0.1,0.1-0.1c0-0.1,0-0.1,0-0.2L57.5,13.3L57.5,13.3z"/>
		<path class="st7" d="M57.5,13.3c0-0.1,0-0.2-0.1-0.2c-0.1,0-0.1-0.1-0.2-0.1l0,0l0,0l0,0l0,0h0.2c0.1,0,0.1,0,0.2,0
			c0.1,0,0.1,0,0.2,0c0.1,0,0.1,0,0.1,0l1.6,2l0,0v-1v-0.2c0-0.1,0-0.1,0-0.2s0-0.1,0-0.2s0-0.1,0-0.1v-0.1c0,0,0,0-0.1-0.1
			c-0.1-0.1-0.1,0-0.1,0h-0.1l0,0l0,0l0,0l0,0c0.1,0,0.1,0,0.2,0c0.1,0,0.2,0,0.2,0c0.1,0,0.1,0,0.2,0c0.1,0,0.1,0,0.2,0l0,0l0,0
			l0,0l0,0h-0.1h-0.1c0,0,0,0-0.1,0.1c0,0,0,0.1-0.1,0.1v0.1c0,0.1,0,0.1,0,0.2s0,0.1,0,0.2V14v1.8l0,0c0,0,0,0-0.1,0c0,0,0,0-0.1,0
			l0,0l-1.8-2.1l0,0c0,0,0,0,0,0.1V15c0,0.1,0,0.2,0,0.2c0,0.1,0,0.1,0.1,0.1c0,0,0.1,0,0.1,0.1c0,0,0.1,0,0.2,0l0,0l0,0l0,0l0,0
			c-0.1,0-0.1,0-0.2,0c-0.1,0-0.2,0-0.3,0s-0.2,0-0.3,0c-0.1,0-0.1,0-0.2,0l0,0l0,0l0,0l0,0c0.1,0,0.1,0,0.2,0c0,0,0.1,0,0.1-0.1
			c0,0,0-0.1,0.1-0.1c0-0.1,0-0.1,0-0.2L57.5,13.3L57.5,13.3z"/>
		<path class="st2" d="M28.7,26.9c0-0.1,0-0.1,0-0.2c0-0.1,0-0.1-0.1-0.1s-0.1,0-0.1-0.1c0,0-0.1,0-0.2,0l0,0l0,0l0,0l0,0h0.1
			c0.1,0,0.1,0,0.2,0s0.1,0,0.2,0c0.1,0,0.1,0,0.2,0s0.1,0,0.1,0h0.1l0.8,1.9l0,0l0,0l0.8-1.9c0,0,0,0,0.1,0s0.1,0,0.2,0
			s0.2,0,0.3,0s0.2,0,0.2,0l0,0l0,0l0,0l0,0c-0.1,0-0.2,0-0.2,0c-0.1,0-0.1,0-0.1,0.1s0,0.1,0,0.2c0,0.1,0,0.2,0,0.3v1.5
			c0,0.1,0,0.2,0,0.2s0,0.1,0.1,0.1c0,0,0.1,0,0.1,0.1c0.1,0,0.1,0,0.2,0l0,0l0,0l0,0l0,0c-0.1,0-0.2,0-0.3,0s-0.2,0-0.3,0
			s-0.2,0-0.3,0c-0.1,0-0.2,0-0.3,0l0,0l0,0l0,0l0,0c0.1,0,0.2,0,0.2,0c0.1,0,0.1,0,0.1-0.1c0,0,0-0.1,0.1-0.1c0-0.1,0-0.1,0-0.2
			v-1.5l0,0l0,0l-0.6,1.4c0,0.1-0.1,0.2-0.1,0.3c0,0.1-0.1,0.2-0.1,0.3l0,0l0,0l0,0l0,0l-1.1-2l0,0l0,0v1.5c0,0.1,0,0.2,0,0.2
			s0,0.1,0.1,0.1c0,0,0.1,0,0.1,0.1c0,0,0.1,0,0.2,0l0,0l0,0l0,0l0,0c-0.1,0-0.1,0-0.2,0c-0.1,0-0.2,0-0.3,0s-0.2,0-0.3,0
			s-0.1,0-0.2,0l0,0l0,0l0,0l0,0c0.1,0,0.1,0,0.2,0c0,0,0.1,0,0.1-0.1c0,0,0-0.1,0.1-0.1c0.1,0,0-0.1,0-0.2L28.7,26.9L28.7,26.9z"/>
		<path class="st7" d="M28.7,26.9c0-0.1,0-0.1,0-0.2c0-0.1,0-0.1-0.1-0.1s-0.1,0-0.1-0.1c0,0-0.1,0-0.2,0l0,0l0,0l0,0l0,0h0.1
			c0.1,0,0.1,0,0.2,0s0.1,0,0.2,0c0.1,0,0.1,0,0.2,0s0.1,0,0.1,0h0.1l0.8,1.9l0,0l0,0l0.8-1.9c0,0,0,0,0.1,0s0.1,0,0.2,0
			s0.2,0,0.3,0s0.2,0,0.2,0l0,0l0,0l0,0l0,0c-0.1,0-0.2,0-0.2,0c-0.1,0-0.1,0-0.1,0.1s0,0.1,0,0.2c0,0.1,0,0.2,0,0.3v1.5
			c0,0.1,0,0.2,0,0.2s0,0.1,0.1,0.1c0,0,0.1,0,0.1,0.1c0.1,0,0.1,0,0.2,0l0,0l0,0l0,0l0,0c-0.1,0-0.2,0-0.3,0s-0.2,0-0.3,0
			s-0.2,0-0.3,0c-0.1,0-0.2,0-0.3,0l0,0l0,0l0,0l0,0c0.1,0,0.2,0,0.2,0c0.1,0,0.1,0,0.1-0.1c0,0,0-0.1,0.1-0.1c0-0.1,0-0.1,0-0.2
			v-1.5l0,0l0,0l-0.6,1.4c0,0.1-0.1,0.2-0.1,0.3c0,0.1-0.1,0.2-0.1,0.3l0,0l0,0l0,0l0,0l-1.1-2l0,0l0,0v1.5c0,0.1,0,0.2,0,0.2
			s0,0.1,0.1,0.1c0,0,0.1,0,0.1,0.1c0,0,0.1,0,0.2,0l0,0l0,0l0,0l0,0c-0.1,0-0.1,0-0.2,0c-0.1,0-0.2,0-0.3,0s-0.2,0-0.3,0
			s-0.1,0-0.2,0l0,0l0,0l0,0l0,0c0.1,0,0.1,0,0.2,0c0,0,0.1,0,0.1-0.1c0,0,0-0.1,0.1-0.1c0.1,0,0-0.1,0-0.2L28.7,26.9L28.7,26.9z"/>
		<path class="st2" d="M34,26.4C34,26.4,34.1,26.4,34,26.4C34.1,26.4,34.1,26.4,34,26.4c0.1,0.1,0.1,0.1,0.1,0.2v0.1
			c0,0.1,0,0.2,0,0.3l0,0l0,0l0,0l0,0c0-0.1,0-0.2-0.1-0.2s0-0.1-0.1-0.1l-0.1-0.1c-0.1,0-0.1,0-0.2,0h-0.2c-0.1,0-0.1,0-0.2,0
			c-0.1,0-0.1,0-0.1,0s0,0,0,0.1c0,0,0,0.1,0,0.2v0.7v0.1l0,0c0.1,0,0.2,0,0.3,0s0.1,0,0.2-0.1s0.1-0.1,0.1-0.1s0-0.1,0-0.2l0,0l0,0
			l0,0l0,0v0.1v0.1v0.1v0.1c0,0.1,0,0.2,0,0.2c0,0.1,0,0.1,0,0.2l0,0l0,0l0,0l0,0c0-0.1,0-0.1,0-0.2c0,0,0-0.1-0.1-0.1
			c0,0-0.1,0-0.2-0.1c-0.1,0-0.2,0-0.3,0l0,0c0,0,0,0,0,0.1v0.5c0,0.1,0,0.2,0,0.2c0,0.1,0,0.1,0.1,0.2l0.1,0.1c0,0,0.1,0,0.1,0.1
			h0.1h0.1c0.1,0,0.1,0,0.2,0c0.1,0,0.1,0,0.1,0c0.1,0,0.1,0,0.1-0.1l0.1-0.1c0,0,0-0.1,0.1-0.1c0-0.1,0-0.1,0-0.2l0,0
			c0,0,0,0,0.1,0c0.1,0,0,0,0.1,0l0,0c0,0.1,0,0.2,0,0.3c0,0.1,0,0.2,0,0.3l0,0c0,0,0,0-0.1,0h-1.5c-0.1,0-0.2,0-0.3,0s-0.2,0-0.3,0
			l0,0l0,0l0,0c0,0,0,0,0.1,0c0.1,0,0.1,0,0.2,0c0,0,0.1,0,0.1-0.1l0.1-0.1c0,0,0-0.1,0-0.2V27c0-0.1,0-0.1,0-0.2c0-0.1,0-0.1,0-0.2
			c0,0,0-0.1-0.1-0.1s-0.1-0.1-0.1-0.1h-0.1h-0.1l0,0l0,0l0,0l0,0c0.1,0,0.2,0,0.2,0c0.1,0,0.2,0,0.3,0H34z"/>
		<path class="st7" d="M34,26.4C34,26.4,34.1,26.4,34,26.4C34.1,26.4,34.1,26.4,34,26.4c0.1,0.1,0.1,0.1,0.1,0.2v0.1
			c0,0.1,0,0.2,0,0.3l0,0l0,0l0,0l0,0c0-0.1,0-0.2-0.1-0.2s0-0.1-0.1-0.1l-0.1-0.1c-0.1,0-0.1,0-0.2,0h-0.2c-0.1,0-0.1,0-0.2,0
			c-0.1,0-0.1,0-0.1,0s0,0,0,0.1c0,0,0,0.1,0,0.2v0.7v0.1l0,0c0.1,0,0.2,0,0.3,0s0.1,0,0.2-0.1s0.1-0.1,0.1-0.1s0-0.1,0-0.2l0,0l0,0
			l0,0l0,0v0.1v0.1v0.1v0.1c0,0.1,0,0.2,0,0.2c0,0.1,0,0.1,0,0.2l0,0l0,0l0,0l0,0c0-0.1,0-0.1,0-0.2c0,0,0-0.1-0.1-0.1
			c0,0-0.1,0-0.2-0.1c-0.1,0-0.2,0-0.3,0l0,0c0,0,0,0,0,0.1v0.5c0,0.1,0,0.2,0,0.2c0,0.1,0,0.1,0.1,0.2l0.1,0.1c0,0,0.1,0,0.1,0.1
			h0.1h0.1c0.1,0,0.1,0,0.2,0c0.1,0,0.1,0,0.1,0c0.1,0,0.1,0,0.1-0.1l0.1-0.1c0,0,0-0.1,0.1-0.1c0-0.1,0-0.1,0-0.2l0,0
			c0,0,0,0,0.1,0c0.1,0,0,0,0.1,0l0,0c0,0.1,0,0.2,0,0.3c0,0.1,0,0.2,0,0.3l0,0c0,0,0,0-0.1,0h-1.5c-0.1,0-0.2,0-0.3,0s-0.2,0-0.3,0
			l0,0l0,0l0,0c0,0,0,0,0.1,0c0.1,0,0.1,0,0.2,0c0,0,0.1,0,0.1-0.1l0.1-0.1c0,0,0-0.1,0-0.2V27c0-0.1,0-0.1,0-0.2c0-0.1,0-0.1,0-0.2
			c0,0,0-0.1-0.1-0.1s-0.1-0.1-0.1-0.1h-0.1h-0.1l0,0l0,0l0,0l0,0c0.1,0,0.2,0,0.2,0c0.1,0,0.2,0,0.3,0H34z"/>
		<path class="st2" d="M35.9,28.6c0,0.1,0,0.2,0,0.2s0,0.1,0.1,0.1c0,0,0.1,0,0.1,0.1c0.1,0,0.1,0,0.2,0l0,0l0,0l0,0l0,0
			c-0.1,0-0.2,0-0.3,0s-0.2,0-0.3,0c-0.1,0-0.2,0-0.3,0s-0.2,0-0.3,0l0,0l0,0l0,0l0,0c0.1,0,0.2,0,0.2,0c0.1,0,0.1,0,0.1-0.1
			c0,0,0-0.1,0.1-0.1c0-0.1,0-0.1,0-0.2v-1.8c0-0.1,0-0.2-0.1-0.2s-0.1,0-0.3,0c-0.1,0-0.2,0-0.2,0c-0.1,0-0.1,0-0.2,0.1
			c0,0-0.1,0.1-0.1,0.2s0,0.2-0.1,0.3l0,0l0,0l0,0l0,0c0-0.1,0-0.2,0-0.3s0-0.2,0-0.3c0,0,0,0,0.1-0.1h0.1h2.2c0.1,0,0.1,0,0.1,0
			s0.1,0,0.1,0.1v0.1c0,0,0,0.1,0,0.2s0,0.1,0,0.2s0,0.1,0,0.2l0,0l0,0l0,0l0,0c0-0.1,0-0.2-0.1-0.3c0-0.1-0.1-0.1-0.1-0.2
			c0,0-0.1-0.1-0.2-0.1c-0.1,0-0.1,0-0.2,0s-0.2,0-0.3,0c-0.1,0-0.1,0.1-0.1,0.2v1.7H35.9z"/>
		<path class="st7" d="M35.9,28.6c0,0.1,0,0.2,0,0.2s0,0.1,0.1,0.1c0,0,0.1,0,0.1,0.1c0.1,0,0.1,0,0.2,0l0,0l0,0l0,0l0,0
			c-0.1,0-0.2,0-0.3,0s-0.2,0-0.3,0c-0.1,0-0.2,0-0.3,0s-0.2,0-0.3,0l0,0l0,0l0,0l0,0c0.1,0,0.2,0,0.2,0c0.1,0,0.1,0,0.1-0.1
			c0,0,0-0.1,0.1-0.1c0-0.1,0-0.1,0-0.2v-1.8c0-0.1,0-0.2-0.1-0.2s-0.1,0-0.3,0c-0.1,0-0.2,0-0.2,0c-0.1,0-0.1,0-0.2,0.1
			c0,0-0.1,0.1-0.1,0.2s0,0.2-0.1,0.3l0,0l0,0l0,0l0,0c0-0.1,0-0.2,0-0.3s0-0.2,0-0.3c0,0,0,0,0.1-0.1h0.1h2.2c0.1,0,0.1,0,0.1,0
			s0.1,0,0.1,0.1v0.1c0,0,0,0.1,0,0.2s0,0.1,0,0.2s0,0.1,0,0.2l0,0l0,0l0,0l0,0c0-0.1,0-0.2-0.1-0.3c0-0.1-0.1-0.1-0.1-0.2
			c0,0-0.1-0.1-0.2-0.1c-0.1,0-0.1,0-0.2,0s-0.2,0-0.3,0c-0.1,0-0.1,0.1-0.1,0.2v1.7H35.9z"/>
		<path class="st2" d="M37.5,27.1c0-0.1,0-0.1,0-0.2s0-0.1,0-0.2c0,0,0-0.1-0.1-0.1l-0.1-0.1h-0.1h-0.1l0,0l0,0l0,0l0,0
			c0.1,0,0.2,0,0.2,0c0.1,0,0.2,0,0.3,0c0.2,0,0.3,0,0.4,0s0.2,0,0.3,0c0.1,0,0.2,0,0.3,0s0.2,0.1,0.3,0.1c0.1,0.1,0.1,0.1,0.2,0.2
			c0.1,0.1,0.1,0.2,0.1,0.3s0,0.2,0,0.3s-0.1,0.1-0.1,0.2c-0.1,0.1-0.1,0.1-0.2,0.1s-0.2,0.1-0.2,0.1l0,0l0,0
			c0.1,0.1,0.2,0.1,0.3,0.2s0.1,0.2,0.2,0.2c0,0.1,0.1,0.2,0.1,0.3s0,0.2,0.1,0.3c0,0.1,0,0.1,0.1,0.1h0.1h0.1l0.1-0.1l0,0l0,0l0,0
			l0,0c0,0.1,0,0.1-0.1,0.2l-0.1,0.1l-0.1,0.1c-0.1,0-0.1,0-0.2,0c-0.1,0-0.2,0-0.2-0.1C39,29.1,39,29,39,28.9c0,0,0-0.1,0-0.2
			c0-0.1,0-0.1,0-0.2s0-0.1,0-0.2c0-0.1,0-0.1,0-0.1c0-0.2-0.1-0.3-0.2-0.4c-0.1-0.1-0.2-0.1-0.3-0.1h-0.1v0.1v0.5
			c0,0.1,0,0.2,0,0.2c0,0.1,0,0.1,0.1,0.1s0.1,0.1,0.1,0.1c0.1,0,0.1,0,0.2,0l0,0c0,0,0,0,0,0.1l0,0l0,0c-0.1,0-0.3,0-0.4,0
			s-0.2,0-0.3,0s-0.2,0-0.3,0c-0.1,0-0.2,0-0.3,0l0,0l0,0l0,0l0,0c0.1,0,0.1,0,0.2,0c0,0,0.1,0,0.1-0.1c0,0,0-0.1,0.1-0.1
			c0,0,0-0.1,0-0.2v-1.3H37.5z M38,27.6c0,0.1,0,0.1,0.1,0.1c0,0,0.1,0,0.2,0c0.1,0,0.2,0,0.3,0s0.1-0.1,0.2-0.1
			c0,0,0.1-0.1,0.1-0.2s0-0.2,0-0.3s0-0.2,0-0.3c0-0.1,0-0.1-0.1-0.2c0,0-0.1-0.1-0.2-0.1s-0.2,0-0.2,0c-0.1,0-0.2,0-0.2,0
			s-0.1,0.1-0.1,0.2v0.9H38z"/>
		<path class="st7" d="M37.5,27.1c0-0.1,0-0.1,0-0.2s0-0.1,0-0.2c0,0,0-0.1-0.1-0.1l-0.1-0.1h-0.1h-0.1l0,0l0,0l0,0l0,0
			c0.1,0,0.2,0,0.2,0c0.1,0,0.2,0,0.3,0c0.2,0,0.3,0,0.4,0s0.2,0,0.3,0c0.1,0,0.2,0,0.3,0s0.2,0.1,0.3,0.1c0.1,0.1,0.1,0.1,0.2,0.2
			c0.1,0.1,0.1,0.2,0.1,0.3s0,0.2,0,0.3s-0.1,0.1-0.1,0.2c-0.1,0.1-0.1,0.1-0.2,0.1s-0.2,0.1-0.2,0.1l0,0l0,0
			c0.1,0.1,0.2,0.1,0.3,0.2s0.1,0.2,0.2,0.2c0,0.1,0.1,0.2,0.1,0.3s0,0.2,0.1,0.3c0,0.1,0,0.1,0.1,0.1h0.1h0.1l0.1-0.1l0,0l0,0l0,0
			l0,0c0,0.1,0,0.1-0.1,0.2l-0.1,0.1l-0.1,0.1c-0.1,0-0.1,0-0.2,0c-0.1,0-0.2,0-0.2-0.1C39,29.1,39,29,39,28.9c0,0,0-0.1,0-0.2
			c0-0.1,0-0.1,0-0.2s0-0.1,0-0.2c0-0.1,0-0.1,0-0.1c0-0.2-0.1-0.3-0.2-0.4c-0.1-0.1-0.2-0.1-0.3-0.1h-0.1v0.1v0.5
			c0,0.1,0,0.2,0,0.2c0,0.1,0,0.1,0.1,0.1s0.1,0.1,0.1,0.1c0.1,0,0.1,0,0.2,0l0,0c0,0,0,0,0,0.1l0,0l0,0c-0.1,0-0.3,0-0.4,0
			s-0.2,0-0.3,0s-0.2,0-0.3,0c-0.1,0-0.2,0-0.3,0l0,0l0,0l0,0l0,0c0.1,0,0.1,0,0.2,0c0,0,0.1,0,0.1-0.1c0,0,0-0.1,0.1-0.1
			c0,0,0-0.1,0-0.2v-1.3H37.5z M38,27.6c0,0.1,0,0.1,0.1,0.1c0,0,0.1,0,0.2,0c0.1,0,0.2,0,0.3,0s0.1-0.1,0.2-0.1
			c0,0,0.1-0.1,0.1-0.2s0-0.2,0-0.3s0-0.2,0-0.3c0-0.1,0-0.1-0.1-0.2c0,0-0.1-0.1-0.2-0.1s-0.2,0-0.2,0c-0.1,0-0.2,0-0.2,0
			s-0.1,0.1-0.1,0.2v0.9H38z"/>
		<path class="st2" d="M41.2,29.2c-0.4,0-0.8-0.1-1-0.4c-0.2-0.2-0.4-0.6-0.4-1.1c0-0.2,0-0.4,0.1-0.6c0.1-0.2,0.2-0.3,0.3-0.4
			c0.1-0.1,0.3-0.2,0.4-0.3c0.2-0.1,0.4-0.1,0.6-0.1s0.4,0,0.5,0.1c0.2,0.1,0.3,0.2,0.4,0.3c0.1,0.1,0.2,0.3,0.3,0.4
			c0.1,0.2,0.1,0.4,0.1,0.6c0,0.2,0,0.4-0.1,0.6c-0.1,0.2-0.2,0.3-0.3,0.5c-0.1,0.1-0.3,0.2-0.4,0.3C41.6,29.2,41.4,29.2,41.2,29.2
			 M41.2,29c0.1,0,0.3,0,0.4-0.1c0.1-0.1,0.2-0.2,0.3-0.3c0.1-0.1,0.1-0.2,0.2-0.4c0.1-0.2,0.1-0.3,0.1-0.5c0-0.2,0-0.3,0-0.5
			c0-0.2-0.1-0.3-0.1-0.4c-0.1-0.1-0.2-0.2-0.3-0.3c-0.1-0.1-0.2-0.1-0.4-0.1c-0.1,0-0.3,0-0.4,0.1s-0.2,0.2-0.3,0.3
			c-0.1,0.1-0.1,0.3-0.2,0.4c0,0.2,0,0.3,0,0.5c0,0.2,0,0.3,0,0.5c0,0.2,0.1,0.3,0.1,0.4c0.1,0.1,0.2,0.2,0.3,0.3
			C40.9,29,41.1,29,41.2,29"/>
		<path class="st7" d="M41.2,29.2c-0.4,0-0.8-0.1-1-0.4c-0.2-0.2-0.4-0.6-0.4-1.1c0-0.2,0-0.4,0.1-0.6c0.1-0.2,0.2-0.3,0.3-0.4
			c0.1-0.1,0.3-0.2,0.4-0.3c0.2-0.1,0.4-0.1,0.6-0.1s0.4,0,0.5,0.1c0.2,0.1,0.3,0.2,0.4,0.3c0.1,0.1,0.2,0.3,0.3,0.4
			c0.1,0.2,0.1,0.4,0.1,0.6c0,0.2,0,0.4-0.1,0.6c-0.1,0.2-0.2,0.3-0.3,0.5c-0.1,0.1-0.3,0.2-0.4,0.3C41.6,29.2,41.4,29.2,41.2,29.2z
			 M41.2,29c0.1,0,0.3,0,0.4-0.1c0.1-0.1,0.2-0.2,0.3-0.3c0.1-0.1,0.1-0.2,0.2-0.4c0.1-0.2,0.1-0.3,0.1-0.5c0-0.2,0-0.3,0-0.5
			c0-0.2-0.1-0.3-0.1-0.4c-0.1-0.1-0.2-0.2-0.3-0.3c-0.1-0.1-0.2-0.1-0.4-0.1c-0.1,0-0.3,0-0.4,0.1s-0.2,0.2-0.3,0.3
			c-0.1,0.1-0.1,0.3-0.2,0.4c0,0.2,0,0.3,0,0.5c0,0.2,0,0.3,0,0.5c0,0.2,0.1,0.3,0.1,0.4c0.1,0.1,0.2,0.2,0.3,0.3
			C40.9,29,41.1,29,41.2,29z"/>
		<path class="st2" d="M43.8,28.6c0,0.1,0,0.2,0,0.2c0,0.1,0,0.1,0.1,0.1L44,29c0.1,0,0.1,0,0.2,0l0,0c0,0,0,0,0,0.1l0,0l0,0
			c-0.1,0-0.3,0-0.4,0c-0.1,0-0.2,0-0.3,0s-0.2,0-0.3,0c-0.1,0-0.2,0-0.3,0l0,0l0,0l0,0l0,0c0.1,0,0.1,0,0.2,0c0.1,0,0.1,0,0.1-0.1
			c0,0,0-0.1,0.1-0.1c0,0,0-0.1,0-0.2v-1.5c0-0.1,0-0.1,0-0.2s0-0.1,0-0.2c0,0,0-0.1-0.1-0.1l-0.1-0.1H43h-0.1l0,0l0,0l0,0l0,0
			c0.1,0,0.2,0,0.2,0c0.1,0,0.2,0,0.3,0c0.2,0,0.3,0,0.4,0c0.1,0,0.2,0,0.3,0c0.1,0,0.2,0,0.3,0c0.1,0,0.2,0.1,0.3,0.1
			c0.1,0,0.1,0.1,0.2,0.2C45,27,45,27,45,27.1c0,0.2,0,0.3-0.1,0.4c-0.1,0.1-0.1,0.2-0.2,0.2c-0.1,0.1-0.2,0.1-0.4,0.1
			c-0.1,0-0.3,0-0.5,0.1c0,0,0,0-0.1,0c0,0,0,0,0,0.1L43.8,28.6L43.8,28.6z M43.8,27.7L43.8,27.7C43.8,27.8,43.8,27.8,43.8,27.7
			c0.2,0,0.3,0,0.4,0c0.1,0,0.2-0.1,0.2-0.1c0.1,0,0.1-0.1,0.1-0.2s0-0.2,0-0.3c0-0.2,0-0.4-0.1-0.5c-0.1-0.1-0.2-0.1-0.4-0.1
			c-0.1,0-0.2,0-0.2,0s-0.1,0.1-0.1,0.2L43.8,27.7L43.8,27.7z"/>
		<path class="st7" d="M43.8,28.6c0,0.1,0,0.2,0,0.2c0,0.1,0,0.1,0.1,0.1L44,29c0.1,0,0.1,0,0.2,0l0,0c0,0,0,0,0,0.1l0,0l0,0
			c-0.1,0-0.3,0-0.4,0c-0.1,0-0.2,0-0.3,0s-0.2,0-0.3,0c-0.1,0-0.2,0-0.3,0l0,0l0,0l0,0l0,0c0.1,0,0.1,0,0.2,0c0.1,0,0.1,0,0.1-0.1
			c0,0,0-0.1,0.1-0.1c0,0,0-0.1,0-0.2v-1.5c0-0.1,0-0.1,0-0.2s0-0.1,0-0.2c0,0,0-0.1-0.1-0.1l-0.1-0.1H43h-0.1l0,0l0,0l0,0l0,0
			c0.1,0,0.2,0,0.2,0c0.1,0,0.2,0,0.3,0c0.2,0,0.3,0,0.4,0c0.1,0,0.2,0,0.3,0c0.1,0,0.2,0,0.3,0c0.1,0,0.2,0.1,0.3,0.1
			c0.1,0,0.1,0.1,0.2,0.2C45,27,45,27,45,27.1c0,0.2,0,0.3-0.1,0.4c-0.1,0.1-0.1,0.2-0.2,0.2c-0.1,0.1-0.2,0.1-0.4,0.1
			c-0.1,0-0.3,0-0.5,0.1c0,0,0,0-0.1,0c0,0,0,0,0,0.1L43.8,28.6L43.8,28.6z M43.8,27.7L43.8,27.7C43.8,27.8,43.8,27.8,43.8,27.7
			c0.2,0,0.3,0,0.4,0c0.1,0,0.2-0.1,0.2-0.1c0.1,0,0.1-0.1,0.1-0.2s0-0.2,0-0.3c0-0.2,0-0.4-0.1-0.5c-0.1-0.1-0.2-0.1-0.4-0.1
			c-0.1,0-0.2,0-0.2,0s-0.1,0.1-0.1,0.2L43.8,27.7L43.8,27.7z"/>
		<path class="st2" d="M46.6,29.2c-0.4,0-0.8-0.1-1-0.4c-0.2-0.2-0.4-0.6-0.4-1.1c0-0.2,0-0.4,0.1-0.6c0.1-0.2,0.2-0.3,0.3-0.4
			c0.1-0.1,0.3-0.2,0.4-0.3c0.2-0.1,0.4-0.1,0.6-0.1c0.2,0,0.4,0,0.5,0.1c0.2,0.1,0.3,0.2,0.4,0.3c0.1,0.1,0.2,0.3,0.3,0.4
			c0.1,0.2,0.1,0.4,0.1,0.6c0,0.2,0,0.4-0.1,0.6c-0.1,0.2-0.2,0.3-0.3,0.5c-0.1,0.2-0.3,0.2-0.4,0.3C47,29.2,46.8,29.2,46.6,29.2
			 M46.6,29c0.1,0,0.3,0,0.4-0.1s0.2-0.2,0.3-0.3c0.1-0.1,0.1-0.2,0.2-0.4c0-0.2,0.1-0.3,0.1-0.5c0-0.2,0-0.3,0-0.5
			c0-0.2-0.1-0.3-0.1-0.4c-0.1-0.1-0.2-0.2-0.3-0.3c-0.1-0.1-0.2-0.1-0.4-0.1c-0.1,0-0.3,0-0.4,0.1c-0.1,0.1-0.4,0.3-0.4,0.4
			c-0.1,0.1-0.1,0.3-0.2,0.4c0,0.2,0,0.3,0,0.5c0,0.2,0,0.3,0,0.5c0,0.2,0.1,0.3,0.1,0.4c0.1,0.1,0.2,0.2,0.3,0.3
			C46.3,29,46.4,29,46.6,29"/>
		<path class="st7" d="M46.6,29.2c-0.4,0-0.8-0.1-1-0.4c-0.2-0.2-0.4-0.6-0.4-1.1c0-0.2,0-0.4,0.1-0.6c0.1-0.2,0.2-0.3,0.3-0.4
			c0.1-0.1,0.3-0.2,0.4-0.3c0.2-0.1,0.4-0.1,0.6-0.1c0.2,0,0.4,0,0.5,0.1c0.2,0.1,0.3,0.2,0.4,0.3c0.1,0.1,0.2,0.3,0.3,0.4
			c0.1,0.2,0.1,0.4,0.1,0.6c0,0.2,0,0.4-0.1,0.6c-0.1,0.2-0.2,0.3-0.3,0.5c-0.1,0.2-0.3,0.2-0.4,0.3C47,29.2,46.8,29.2,46.6,29.2z
			 M46.6,29c0.1,0,0.3,0,0.4-0.1s0.2-0.2,0.3-0.3c0.1-0.1,0.1-0.2,0.2-0.4c0-0.2,0.1-0.3,0.1-0.5c0-0.2,0-0.3,0-0.5
			c0-0.2-0.1-0.3-0.1-0.4c-0.1-0.1-0.2-0.2-0.3-0.3c-0.1-0.1-0.2-0.1-0.4-0.1c-0.1,0-0.3,0-0.4,0.1c-0.1,0.1-0.4,0.3-0.4,0.4
			c-0.1,0.1-0.1,0.3-0.2,0.4c0,0.2,0,0.3,0,0.5c0,0.2,0,0.3,0,0.5c0,0.2,0.1,0.3,0.1,0.4c0.1,0.1,0.2,0.2,0.3,0.3
			C46.3,29,46.4,29,46.6,29z"/>
		<path class="st2" d="M48.7,27c0-0.1,0-0.2,0-0.2c0-0.1,0-0.1-0.1-0.1l-0.1-0.1c-0.1,0-0.1,0-0.2,0l0,0l0,0l0,0l0,0
			c0.1,0,0.2,0,0.3,0c0.1,0,0.2,0,0.3,0c0.1,0,0.1,0,0.2,0c0.1,0,0.1,0,0.1,0h0.1c0,0,0.1,0,0.2,0l0,0l0,0l0,0l0,0
			c-0.1,0-0.2,0-0.2,0s-0.1,0-0.1,0.1c0,0.1,0,0.1-0.1,0.1c0,0.1,0,0.1,0,0.2v1.4c0,0.1,0,0.2,0,0.2c0,0.1,0,0.1,0,0.1l0.1,0.1
			c0,0,0.1,0,0.1,0.1h0.1h0.1c0.1,0,0.1,0,0.2,0c0.1,0,0.1,0,0.1,0c0.1,0,0.1,0,0.1-0.1l0.1-0.1c0,0,0-0.1,0.1-0.1
			c0-0.1,0-0.1,0-0.2l0,0c0,0,0,0,0.1,0c0,0,0,0,0.1,0l0,0c0,0.1,0,0.2,0,0.3c0,0.1,0,0.2,0,0.3l0,0c0,0,0,0-0.1,0h-1.5
			c-0.1,0-0.2,0-0.3,0c-0.1,0-0.2,0-0.3,0l0,0l0,0l0,0l0,0c0.1,0,0.2,0,0.2,0s0.1,0,0.1-0.1c0,0,0-0.1,0.1-0.1c0-0.1,0-0.1,0-0.2V27
			H48.7z"/>
		<path class="st7" d="M48.7,27c0-0.1,0-0.2,0-0.2c0-0.1,0-0.1-0.1-0.1l-0.1-0.1c-0.1,0-0.1,0-0.2,0l0,0l0,0l0,0l0,0
			c0.1,0,0.2,0,0.3,0c0.1,0,0.2,0,0.3,0c0.1,0,0.1,0,0.2,0c0.1,0,0.1,0,0.1,0h0.1c0,0,0.1,0,0.2,0l0,0l0,0l0,0l0,0
			c-0.1,0-0.2,0-0.2,0s-0.1,0-0.1,0.1c0,0.1,0,0.1-0.1,0.1c0,0.1,0,0.1,0,0.2v1.4c0,0.1,0,0.2,0,0.2c0,0.1,0,0.1,0,0.1l0.1,0.1
			c0,0,0.1,0,0.1,0.1h0.1h0.1c0.1,0,0.1,0,0.2,0c0.1,0,0.1,0,0.1,0c0.1,0,0.1,0,0.1-0.1l0.1-0.1c0,0,0-0.1,0.1-0.1
			c0-0.1,0-0.1,0-0.2l0,0c0,0,0,0,0.1,0c0,0,0,0,0.1,0l0,0c0,0.1,0,0.2,0,0.3c0,0.1,0,0.2,0,0.3l0,0c0,0,0,0-0.1,0h-1.5
			c-0.1,0-0.2,0-0.3,0c-0.1,0-0.2,0-0.3,0l0,0l0,0l0,0l0,0c0.1,0,0.2,0,0.2,0s0.1,0,0.1-0.1c0,0,0-0.1,0.1-0.1c0-0.1,0-0.1,0-0.2V27
			H48.7z"/>
		<path class="st2" d="M52.7,26.4C52.8,26.4,52.8,26.4,52.7,26.4C52.8,26.4,52.8,26.4,52.7,26.4c0.1,0.1,0.1,0.1,0.1,0.2v0.1
			c0,0.1,0,0.2,0,0.3l0,0l0,0l0,0l0,0c0-0.1,0-0.2-0.1-0.2c-0.1,0,0-0.1-0.1-0.1l-0.1-0.1c-0.1,0-0.1,0-0.2,0h-0.2
			c-0.1,0-0.1,0-0.2,0c-0.1,0-0.1,0-0.1,0s0,0,0,0.1c0,0,0,0.1,0,0.2v0.7v0.1l0,0c0.1,0,0.2,0,0.3,0c0.1,0,0.1,0,0.2-0.1
			c0.1-0.1,0.1-0.1,0.1-0.1s0-0.1,0-0.2l0,0l0,0l0,0l0,0v0.1v0.1v0.1v0.1c0,0.1,0,0.2,0,0.2c0,0.1,0,0.1,0,0.2l0,0l0,0l0,0l0,0
			c0-0.1,0-0.1,0-0.2c0,0,0-0.1-0.1-0.1c0,0-0.1,0-0.2-0.1c-0.1,0-0.2,0-0.3,0l0,0c0,0,0,0,0,0.1v0.5c0,0.1,0,0.2,0,0.2
			c0,0.1,0,0.1,0.1,0.2l0.1,0.1c0,0,0.1,0,0.1,0.1h0.1h0.1c0.1,0,0.1,0,0.2,0s0.1,0,0.1,0c0.1,0,0.1,0,0.1-0.1
			c0-0.1,0.1-0.1,0.1-0.1s0-0.1,0.1-0.1c0-0.1,0-0.1,0-0.2l0,0c0,0,0,0,0.1,0c0,0,0,0,0.1,0l0,0c0,0.1,0,0.2,0,0.3
			c0,0.1,0,0.2,0,0.3l0,0c0,0,0,0-0.1,0h-1.5c-0.1,0-0.2,0-0.3,0c-0.1,0-0.2,0-0.3,0l0,0l0,0l0,0c0,0,0,0,0.1,0s0.1,0,0.2,0
			c0.1,0,0.1,0,0.1-0.1l0.1-0.1c0,0,0-0.1,0-0.2V27c0-0.1,0-0.1,0-0.2c0-0.1,0-0.1,0-0.2c0,0,0-0.1-0.1-0.1l-0.1-0.1h-0.1H51l0,0
			l0,0l0,0l0,0c0.1,0,0.2,0,0.2,0c0.1,0,0.2,0,0.3,0H52.7z"/>
		<path class="st7" d="M52.7,26.4C52.8,26.4,52.8,26.4,52.7,26.4C52.8,26.4,52.8,26.4,52.7,26.4c0.1,0.1,0.1,0.1,0.1,0.2v0.1
			c0,0.1,0,0.2,0,0.3l0,0l0,0l0,0l0,0c0-0.1,0-0.2-0.1-0.2c-0.1,0,0-0.1-0.1-0.1l-0.1-0.1c-0.1,0-0.1,0-0.2,0h-0.2
			c-0.1,0-0.1,0-0.2,0c-0.1,0-0.1,0-0.1,0s0,0,0,0.1c0,0,0,0.1,0,0.2v0.7v0.1l0,0c0.1,0,0.2,0,0.3,0c0.1,0,0.1,0,0.2-0.1
			c0.1-0.1,0.1-0.1,0.1-0.1s0-0.1,0-0.2l0,0l0,0l0,0l0,0v0.1v0.1v0.1v0.1c0,0.1,0,0.2,0,0.2c0,0.1,0,0.1,0,0.2l0,0l0,0l0,0l0,0
			c0-0.1,0-0.1,0-0.2c0,0,0-0.1-0.1-0.1c0,0-0.1,0-0.2-0.1c-0.1,0-0.2,0-0.3,0l0,0c0,0,0,0,0,0.1v0.5c0,0.1,0,0.2,0,0.2
			c0,0.1,0,0.1,0.1,0.2l0.1,0.1c0,0,0.1,0,0.1,0.1h0.1h0.1c0.1,0,0.1,0,0.2,0s0.1,0,0.1,0c0.1,0,0.1,0,0.1-0.1
			c0-0.1,0.1-0.1,0.1-0.1s0-0.1,0.1-0.1c0-0.1,0-0.1,0-0.2l0,0c0,0,0,0,0.1,0c0,0,0,0,0.1,0l0,0c0,0.1,0,0.2,0,0.3
			c0,0.1,0,0.2,0,0.3l0,0c0,0,0,0-0.1,0h-1.5c-0.1,0-0.2,0-0.3,0c-0.1,0-0.2,0-0.3,0l0,0l0,0l0,0c0,0,0,0,0.1,0s0.1,0,0.2,0
			c0.1,0,0.1,0,0.1-0.1l0.1-0.1c0,0,0-0.1,0-0.2V27c0-0.1,0-0.1,0-0.2c0-0.1,0-0.1,0-0.2c0,0,0-0.1-0.1-0.1l-0.1-0.1h-0.1H51l0,0
			l0,0l0,0l0,0c0.1,0,0.2,0,0.2,0c0.1,0,0.2,0,0.3,0H52.7z"/>
	</g>
</g>
</svg>
