<?xml version="1.0" encoding="utf-8"?>
<!-- Generator: Adobe Illustrator 16.0.0, SVG Export Plug-In . SVG Version: 6.00 Build 0)  -->
<!DOCTYPE svg PUBLIC "-//W3C//DTD SVG 1.1//EN" "http://www.w3.org/Graphics/SVG/1.1/DTD/svg11.dtd">
<svg version="1.1" id="Calque_2" xmlns="http://www.w3.org/2000/svg" xmlns:xlink="http://www.w3.org/1999/xlink" x="0px" y="0px"
	 width="80px" height="80px" viewBox="0 0 80 80" enable-background="new 0 0 80 80" xml:space="preserve">
<g>
	<path fill="#1D1D1B" stroke="#1D1D1B" stroke-width="1.0013" d="M40.417,71.18l-0.229-0.125
		c-14.505-8.012-22.494-20.399-22.494-34.883V11.136l22.68-2.076l22.767,2.076v25.036c0,14.482-7.988,26.871-22.496,34.883
		L40.417,71.18z"/>
	<polygon fill="#FFFFFF" points="40.417,9.527 18.167,11.564 18.167,19.882 62.658,19.882 62.666,11.564 	"/>
	<path fill="#FFD400" d="M48.91,64.852c9.645-8.136,13.756-18.359,13.756-28.68v-16.29H33.02L48.91,64.852z"/>
	<path fill="#C41315" d="M33.02,19.882H18.167v16.29c0,12.956,6.483,25.76,22.25,34.467c3.207-1.771,6.031-3.711,8.494-5.787
		L33.02,19.882z"/>
	<line fill="none" stroke="#1D1D1B" stroke-width="0.9467" x1="48.91" y1="64.852" x2="33.02" y2="19.882"/>
	<path fill="#1D1D1B" d="M40.417,71.18l-0.229-0.125c-14.505-8.012-22.494-20.399-22.494-34.883V11.136l22.68-2.076l22.767,2.076
		v25.036c0,14.482-7.988,26.871-22.496,34.883L40.417,71.18z M18.641,12v24.171c0,14.046,7.73,26.085,21.776,33.925
		c14.045-7.84,21.776-19.879,21.776-33.925V12l-21.819-1.999L18.641,12z"/>
	<line fill="none" stroke="#1D1D1B" stroke-width="0.9467" x1="18.167" y1="19.882" x2="62.658" y2="19.882"/>
	<g>
		<path fill="#FFFFFF" stroke="#1D1D1B" stroke-width="0.3641" d="M42.007,36.141l-0.128,0.34c-0.251,0.518-0.054,0.856-0.054,0.856
			s0.321,0.028,0.629-0.335c0.065,0.598,0.416,0.785,0.416,0.785s0.353-0.189,0.421-0.79c0.307,0.372,0.635,0.34,0.635,0.34
			s0.192-0.34-0.057-0.856l-0.128-0.34H42.007z"/>
		<path fill="#FFFFFF" stroke="#1D1D1B" stroke-width="0.3641" d="M43.646,35.784c0,0,0.041-0.253,0.145-0.435
			c0.197-0.339,0.551-0.229,0.551-0.229c0.165,0.041,0.374,0.168,0.553,0.514c0,0,0.349-0.674-0.019-1.284
			c-0.164-0.246-0.373-0.373-0.571-0.42c0,0-0.896-0.27-1.111,1.311h-0.649c-0.215-1.581-1.11-1.311-1.11-1.311
			c-0.197,0.047-0.408,0.175-0.57,0.42c-0.366,0.61-0.021,1.284-0.021,1.284c0.181-0.346,0.39-0.473,0.554-0.514
			c0,0,0.352-0.109,0.547,0.229c0.105,0.182,0.146,0.435,0.146,0.435H43.646z"/>
		<path fill="#FFFFFF" stroke="#1D1D1B" stroke-width="0.3641" d="M42.87,31.848c0,0-1.151,1.074-0.218,3.857h0.218h0.223
			C44.023,32.922,42.87,31.848,42.87,31.848z"/>
		<path fill="#1D1D1B" stroke="#1D1D1B" stroke-width="0.2913" d="M43.736,35.708h-1.731c-0.144,0-0.26,0.122-0.26,0.274
			c0,0.151,0.116,0.275,0.26,0.275h1.731c0.146,0,0.262-0.124,0.262-0.275C43.998,35.83,43.882,35.708,43.736,35.708z"/>
	</g>
	<g>
		<path fill="#FFFFFF" stroke="#1D1D1B" stroke-width="0.3641" d="M58.331,36.141l-0.128,0.34c-0.25,0.518-0.055,0.856-0.055,0.856
			s0.322,0.028,0.629-0.335c0.066,0.598,0.416,0.785,0.416,0.785s0.354-0.189,0.42-0.79c0.31,0.372,0.634,0.34,0.634,0.34
			s0.196-0.34-0.056-0.856l-0.127-0.34H58.331z"/>
		<path fill="#FFFFFF" stroke="#1D1D1B" stroke-width="0.3641" d="M59.975,35.784c0,0,0.037-0.253,0.143-0.435
			c0.197-0.339,0.551-0.229,0.551-0.229c0.162,0.041,0.371,0.168,0.553,0.514c0,0,0.348-0.674-0.021-1.284
			c-0.16-0.246-0.372-0.373-0.568-0.42c0,0-0.896-0.27-1.111,1.311h-0.65c-0.217-1.581-1.11-1.311-1.11-1.311
			c-0.198,0.047-0.409,0.175-0.569,0.42c-0.369,0.61-0.021,1.284-0.021,1.284c0.182-0.346,0.391-0.473,0.555-0.514
			c0,0,0.354-0.109,0.551,0.229c0.103,0.182,0.143,0.435,0.143,0.435H59.975z"/>
		<path fill="#FFFFFF" stroke="#1D1D1B" stroke-width="0.3641" d="M59.193,31.848c0,0-1.151,1.074-0.221,3.857h0.221h0.223
			C60.35,32.922,59.193,31.848,59.193,31.848z"/>
		<path fill="#1D1D1B" stroke="#1D1D1B" stroke-width="0.2913" d="M60.061,35.708h-1.729c-0.145,0-0.262,0.122-0.262,0.274
			c0,0.151,0.117,0.275,0.262,0.275h1.729c0.145,0,0.26-0.124,0.26-0.275C60.32,35.83,60.204,35.708,60.061,35.708z"/>
	</g>
	<g>
		<path fill="#FFFFFF" stroke="#1D1D1B" stroke-width="0.3641" d="M54.648,45.088V42.53c0-0.454,0.342-0.822,0.765-0.822
			c0.421,0,0.762,0.368,0.762,0.822v2.558h2.038l-1.802-8.633l-0.009-5.471l0.693-0.87v-1.426h-0.75v0.647h-0.631v-0.647H54.98
			v0.647h-0.65v-0.647h-0.727v0.675h-5.133v-0.675h-0.729v0.647h-0.649v-0.647h-0.736v0.647h-0.631v-0.647h-0.748v1.426l0.692,0.87
			l-0.008,5.471l-1.802,8.633h2.035V42.53c0-0.454,0.342-0.822,0.765-0.822s0.766,0.368,0.766,0.822v2.558H54.648z"/>
		<path fill="#1D1D1B" d="M54.169,34.396v-1.509c0-0.348,0.265-0.633,0.588-0.633c0.325,0,0.589,0.285,0.589,0.633v1.509H54.169z"/>
		<line fill="none" stroke="#1D1D1B" stroke-width="0.3641" x1="56.384" y1="36.455" x2="45.677" y2="36.455"/>
		<path fill="#1D1D1B" d="M54.16,45.775l-0.559-4.033c0.219-0.137,0.369-0.389,0.369-0.682c0-0.334-0.195-0.617-0.47-0.729
			l-0.425-12.896l1.152-0.074l-0.008-0.293l-3.186-2.046l-3.207,2.046v0.293l1.152,0.074l-0.459,12.909
			c-0.256,0.122-0.436,0.398-0.436,0.719c0,0.291,0.148,0.545,0.369,0.681l-0.557,4.032V46.1h6.25L54.16,45.775z"/>
		<rect x="49.557" y="27.543" fill="#FFD400" width="0.555" height="1.315"/>
		<rect x="50.76" y="27.543" fill="#FFD400" width="0.555" height="1.315"/>
		<rect x="51.982" y="27.543" fill="#FFD400" width="0.553" height="1.315"/>
		<path fill="#1D1D1B" d="M50.212,24.522c0,0.486,0.369,0.879,0.817,0.879c0.451,0,0.816-0.393,0.816-0.879
			c0-0.484-0.365-0.878-0.816-0.878C50.581,23.644,50.212,24.038,50.212,24.522z M50.581,24.524c0-0.265,0.202-0.481,0.448-0.481
			s0.445,0.216,0.445,0.481s-0.199,0.48-0.445,0.48S50.581,24.789,50.581,24.524z"/>
		<rect x="49.35" y="37.854" fill="#FFFFFF" width="0.612" height="2.414"/>
		<rect x="52.085" y="37.854" fill="#FFFFFF" width="0.614" height="2.414"/>
		<rect x="50.719" y="37.854" fill="#FFFFFF" width="0.609" height="2.414"/>
		<line fill="none" stroke="#1D1D1B" stroke-width="0.3641" x1="44.993" y1="30.137" x2="57.057" y2="30.137"/>
		<line fill="none" stroke="#1D1D1B" stroke-width="0.3641" x1="45.654" y1="31.009" x2="56.384" y2="31.009"/>
		<line fill="none" stroke="#1D1D1B" stroke-width="0.3641" x1="45.654" y1="35.578" x2="56.384" y2="35.578"/>
		<path fill="#1D1D1B" d="M47.902,34.396v-1.509c0-0.348-0.264-0.633-0.588-0.633c-0.326,0-0.588,0.285-0.588,0.633v1.509H47.902z"
			/>
	</g>
	<path fill="#FFFFFF" d="M22.114,24.606h5.338c1.725,0,2.918,0.453,3.676,1.226c0.66,0.645,1,1.515,1,2.628v0.032
		c0,1.725-0.919,2.87-2.323,3.467l2.694,3.934h-3.613l-2.273-3.417H26.58h-1.338v3.417h-3.127V24.606H22.114z M27.306,30.025
		c1.064,0,1.676-0.517,1.676-1.339v-0.032c0-0.886-0.644-1.339-1.691-1.339h-2.049v2.71H27.306z"/>
	<path fill="#FFFFFF" d="M25.435,44.413v-0.032c0-3.288,2.531-5.869,5.95-5.869c2.305,0,3.787,0.969,4.788,2.355l-2.354,1.82
		c-0.645-0.807-1.387-1.322-2.467-1.322c-1.58,0-2.693,1.339-2.693,2.984v0.03c0,1.693,1.113,3.017,2.693,3.017
		c1.178,0,1.87-0.549,2.548-1.373l2.353,1.681c-1.063,1.466-2.499,2.545-4.997,2.545C28.032,50.249,25.435,47.782,25.435,44.413z"/>
	<path fill="#FFFFFF" d="M34.532,51.747h3.126v8.543h5.465v2.742h-8.591V51.747z"/>
	<g>
		<path fill="#1D1D1B" d="M37.712,11.428H38v2.033h-0.416v-1.583l-0.333,0.086l-0.087-0.363L37.712,11.428z"/>
		<path fill="#1D1D1B" d="M39.125,13.495c-0.279,0-0.468-0.098-0.629-0.238l0.221-0.337c0.14,0.118,0.258,0.172,0.419,0.172
			c0.236,0,0.361-0.187,0.39-0.458c-0.094,0.084-0.223,0.139-0.39,0.139c-0.416,0-0.684-0.242-0.684-0.655
			c0-0.41,0.298-0.709,0.731-0.709c0.257,0,0.408,0.066,0.553,0.219c0.137,0.144,0.227,0.363,0.227,0.764
			C39.964,13.049,39.671,13.495,39.125,13.495z M39.197,11.789c-0.208,0-0.325,0.126-0.325,0.308c0,0.182,0.125,0.306,0.334,0.306
			c0.208,0,0.328-0.127,0.328-0.302C39.533,11.918,39.408,11.789,39.197,11.789z"/>
		<path fill="#1D1D1B" d="M41.014,13.495c-0.513,0-0.85-0.452-0.85-1.04c0-0.589,0.343-1.047,0.855-1.047
			c0.512,0,0.849,0.453,0.849,1.041C41.867,13.038,41.523,13.495,41.014,13.495z M41.014,11.81c-0.255,0-0.416,0.267-0.416,0.639
			c0,0.373,0.166,0.646,0.422,0.646c0.254,0,0.416-0.271,0.416-0.64C41.436,12.086,41.268,11.81,41.014,11.81z"/>
		<path fill="#1D1D1B" d="M43.286,11.973c-0.126-0.1-0.228-0.161-0.394-0.161c-0.236,0-0.357,0.202-0.385,0.467
			c0.096-0.066,0.207-0.13,0.396-0.13c0.381,0,0.674,0.222,0.674,0.646c0,0.415-0.314,0.7-0.73,0.7
			c-0.252,0-0.421-0.074-0.554-0.215c-0.142-0.147-0.228-0.363-0.228-0.768c0-0.625,0.268-1.104,0.841-1.104
			c0.26,0,0.429,0.081,0.599,0.221L43.286,11.973z M42.827,12.519c-0.21,0-0.329,0.121-0.329,0.293c0,0.176,0.126,0.304,0.333,0.304
			c0.208,0,0.329-0.124,0.329-0.3C43.16,12.643,43.034,12.519,42.827,12.519z"/>
	</g>
	<path fill="#1D1D1B" d="M20.172,14.299h1.163c0.421,0,0.69,0.169,0.856,0.436c0.142,0.23,0.217,0.513,0.217,0.905v0.011
		c0,0.556-0.18,0.942-0.469,1.166l0.555,1.298h-0.908l-0.449-1.091h-0.006h-0.165v1.091h-0.794V14.299z M21.311,16.114
		c0.19,0,0.306-0.136,0.306-0.37v-0.011c0-0.246-0.119-0.366-0.303-0.366h-0.347v0.747H21.311z"/>
	<path fill="#1D1D1B" d="M23.528,14.271h0.788l1.002,3.843h-0.863l-0.125-0.512h-0.834l-0.121,0.512h-0.851L23.528,14.271z
		 M24.132,16.698l-0.218-0.928l-0.216,0.928H24.132z"/>
	<path fill="#1D1D1B" d="M25.162,16.218v-0.011c0-1.14,0.556-1.989,1.266-1.989c0.523,0,0.876,0.408,1.078,0.992l-0.657,0.615
		c-0.088-0.271-0.213-0.461-0.431-0.461c-0.269,0-0.445,0.375-0.445,0.833v0.011c0,0.496,0.183,0.846,0.445,0.846
		c0.225,0,0.349-0.198,0.449-0.48l0.656,0.594c-0.201,0.566-0.534,1.031-1.125,1.031C25.739,18.198,25.162,17.401,25.162,16.218z"/>
	<path fill="#1D1D1B" d="M27.699,14.299h0.796v3.815h-0.796V14.299z"/>
	<path fill="#1D1D1B" d="M28.829,14.299h0.746l0.845,1.684v-1.684h0.791v3.815h-0.708l-0.884-1.76v1.76h-0.791L28.829,14.299
		L28.829,14.299z"/>
	<path fill="#1D1D1B" d="M31.385,16.218v-0.011c0-1.14,0.56-1.989,1.312-1.989c0.408,0,0.739,0.217,0.998,0.577l-0.447,0.861
		c-0.155-0.213-0.33-0.332-0.527-0.332c-0.308,0-0.532,0.381-0.532,0.898v0.011c0,0.541,0.234,0.911,0.567,0.911
		c0.135,0,0.211-0.033,0.271-0.087v-0.382H32.62v-0.817h1.153v1.766c-0.259,0.337-0.62,0.573-1.052,0.573
		C31.98,18.198,31.385,17.401,31.385,16.218z"/>
	<path fill="#1D1D1B" d="M34.949,16.218v-0.011c0-1.14,0.555-1.989,1.265-1.989c0.522,0,0.876,0.408,1.078,0.992l-0.655,0.615
		c-0.089-0.271-0.216-0.461-0.433-0.461c-0.268,0-0.446,0.375-0.446,0.833v0.011c0,0.496,0.185,0.846,0.446,0.846
		c0.225,0,0.35-0.198,0.447-0.48l0.656,0.594c-0.199,0.566-0.533,1.031-1.124,1.031C35.522,18.198,34.949,17.401,34.949,16.218z"/>
	<path fill="#1D1D1B" d="M37.482,14.299h0.796v2.724h1.118v1.091h-1.915L37.482,14.299L37.482,14.299z"/>
	<path fill="#1D1D1B" d="M39.518,16.403v-2.104h0.812v2.087c0,0.474,0.151,0.676,0.365,0.676c0.217,0,0.367-0.186,0.367-0.649
		v-2.114h0.812v2.077c0,1.303-0.476,1.815-1.185,1.815C39.978,18.191,39.518,17.668,39.518,16.403z"/>
	<path fill="#1D1D1B" d="M42.189,14.299h1.334c0.33,0,0.537,0.118,0.677,0.343c0.084,0.135,0.146,0.332,0.146,0.593v0.013
		c0,0.452-0.169,0.729-0.426,0.872c0.307,0.141,0.505,0.404,0.505,0.927v0.011c0,0.61-0.313,1.056-0.913,1.056h-1.322V14.299
		L42.189,14.299z M43.313,15.798c0.172,0,0.252-0.092,0.252-0.263v-0.011c0-0.168-0.086-0.261-0.256-0.261h-0.345v0.534
		L43.313,15.798L43.313,15.798z M43.361,17.15c0.176,0,0.265-0.115,0.265-0.278v-0.011c0-0.163-0.085-0.276-0.258-0.276h-0.404
		v0.566L43.361,17.15L43.361,17.15z"/>
	<path fill="#1D1D1B" d="M45.6,14.299h0.908c0.945,0,1.422,0.746,1.422,1.875v0.01c0,1.129-0.484,1.93-1.447,1.93H45.6V14.299z
		 M46.525,17.001c0.365,0,0.601-0.238,0.601-0.789v-0.01c0-0.551-0.233-0.791-0.601-0.791h-0.131v1.59H46.525z"/>
	<path fill="#1D1D1B" d="M48.096,14.299h2.027v1.046h-1.245v0.387h1.162v0.922h-1.162v0.413h1.265v1.046h-2.047V14.299z"/>
	<path fill="#1D1D1B" d="M51.357,14.299h0.793v2.724h1.121v1.091h-1.914V14.299z"/>
	<path fill="#1D1D1B" d="M53.552,14.299h2.03v1.046h-1.245v0.387h1.161v0.922h-1.161v0.413H55.6v1.046h-2.048V14.299z"/>
	<path fill="#1D1D1B" d="M55.895,14.299h0.744l0.848,1.684v-1.684h0.789v3.815h-0.707l-0.883-1.76v1.76h-0.791V14.299z"/>
	<path fill="#1D1D1B" d="M58.411,17.542l0.427-0.812c0.258,0.316,0.555,0.446,0.831,0.446c0.144,0,0.202-0.059,0.202-0.162V17
		c0-0.107-0.071-0.167-0.328-0.249c-0.534-0.174-1.002-0.42-1.002-1.228v-0.01c0-0.725,0.354-1.288,1.01-1.288
		c0.458,0,0.801,0.175,1.073,0.524l-0.388,0.861c-0.225-0.262-0.493-0.377-0.713-0.377c-0.119,0-0.174,0.066-0.174,0.16v0.009
		c0,0.104,0.064,0.17,0.315,0.247c0.608,0.179,1.019,0.463,1.019,1.233v0.01c0,0.801-0.412,1.292-1.053,1.292
		C59.148,18.186,58.713,17.968,58.411,17.542z"/>
</g>
</svg>
