<?xml version="1.0" encoding="utf-8"?>
<!-- Generator: Adobe Illustrator 16.0.0, SVG Export Plug-In . SVG Version: 6.00 Build 0)  -->
<!DOCTYPE svg PUBLIC "-//W3C//DTD SVG 1.1//EN" "http://www.w3.org/Graphics/SVG/1.1/DTD/svg11.dtd">
<svg version="1.1" id="Calque_1" xmlns="http://www.w3.org/2000/svg" xmlns:xlink="http://www.w3.org/1999/xlink" x="0px" y="0px"
	 width="80px" height="80px" viewBox="0 0 80 80" enable-background="new 0 0 80 80" xml:space="preserve">
<g>
	<path fill="#FFFFFF" d="M40.318,7.937c-18.291,0-33.171,14.88-33.171,33.171c0,18.29,14.88,33.171,33.171,33.171
		c18.29,0,33.172-14.881,33.172-33.171C73.49,22.816,58.608,7.937,40.318,7.937z M64.323,61.21
		c-0.327,0.392-0.665,0.775-1.011,1.148c-0.008,0.009-0.015,0.017-0.021,0.023c-0.341,0.367-0.689,0.728-1.048,1.078
		c-0.01,0.01-0.021,0.021-0.031,0.03c-0.355,0.348-0.72,0.687-1.092,1.019c-0.011,0.01-0.022,0.02-0.033,0.03
		c-0.374,0.331-0.755,0.653-1.144,0.966c-0.01,0.008-0.021,0.017-0.03,0.024c-0.393,0.316-0.793,0.622-1.202,0.92
		c-0.006,0.004-0.011,0.007-0.017,0.011c-5.16,3.747-11.51,5.96-18.376,5.96c-17.293,0-31.313-14.02-31.313-31.313
		c0-1.625,0.124-3.221,0.363-4.779c0.034-0.225,0.072-0.449,0.111-0.671c0.011-0.065,0.023-0.129,0.035-0.194
		c0.036-0.198,0.074-0.396,0.114-0.593c0.006-0.03,0.012-0.062,0.018-0.091c0.045-0.219,0.092-0.437,0.142-0.654
		c0.016-0.067,0.031-0.133,0.046-0.199c0.042-0.18,0.086-0.359,0.131-0.537C9.978,33.342,9.988,33.295,10,33.25
		c0.054-0.209,0.111-0.417,0.169-0.625c0.021-0.072,0.042-0.145,0.062-0.217c0.046-0.158,0.093-0.316,0.141-0.473
		c0.019-0.063,0.038-0.126,0.057-0.188c0.062-0.197,0.125-0.393,0.191-0.588c0.027-0.081,0.055-0.163,0.083-0.243
		c0.046-0.135,0.094-0.27,0.142-0.405c0.029-0.079,0.057-0.159,0.086-0.238c0.067-0.182,0.137-0.364,0.208-0.546
		c0.037-0.093,0.074-0.186,0.111-0.278c0.044-0.111,0.089-0.221,0.135-0.332c0.04-0.096,0.079-0.192,0.12-0.288
		c0.072-0.168,0.145-0.335,0.219-0.501c0.048-0.106,0.097-0.212,0.146-0.318c0.04-0.085,0.081-0.172,0.121-0.258
		c0.052-0.111,0.105-0.222,0.159-0.333c0.029-0.058,0.059-0.117,0.087-0.176c0.106-0.215,0.214-0.428,0.326-0.64
		c0.033-0.063,0.066-0.125,0.099-0.187c0.212-0.399,0.434-0.793,0.664-1.182c0.023-0.042,0.047-0.081,0.071-0.122
		c0.244-0.409,0.496-0.812,0.758-1.209c0.013-0.02,0.026-0.04,0.04-0.061c0.274-0.415,0.559-0.822,0.853-1.223
		c0.003-0.004,0.006-0.008,0.008-0.011c0.28-0.381,0.567-0.755,0.863-1.123c0.044-0.055,0.089-0.111,0.133-0.166
		C21.793,14.286,30.53,9.795,40.318,9.795c17.294,0,31.313,14.019,31.313,31.313c0,7.468-2.616,14.324-6.979,19.705
		c-0.003,0.003-0.005,0.007-0.008,0.01C64.538,60.951,64.432,61.081,64.323,61.21C64.323,61.21,64.323,61.21,64.323,61.21z"/>
	<path d="M63.879,17.547c-6.294-6.292-14.66-9.758-23.561-9.758c-8.899,0-17.267,3.466-23.56,9.758C10.465,23.841,7,32.208,7,41.107
		s3.465,17.267,9.758,23.56s14.661,9.759,23.56,9.759c8.9,0,17.267-3.466,23.561-9.759c6.292-6.293,9.758-14.66,9.758-23.56
		S70.171,23.841,63.879,17.547z M40.318,74.278c-18.291,0-33.171-14.881-33.171-33.171c0-18.291,14.88-33.171,33.171-33.171
		c18.29,0,33.172,14.88,33.172,33.171C73.49,59.397,58.608,74.278,40.318,74.278z"/>
	<path fill="#009FE3" d="M11.725,28.327c0.048-0.106,0.097-0.212,0.146-0.318C11.822,28.115,11.773,28.221,11.725,28.327z"/>
	<path fill="#009FE3" d="M12.662,26.415c0.213-0.399,0.434-0.793,0.664-1.182C13.096,25.622,12.874,26.016,12.662,26.415z"/>
	<path fill="#009FE3" d="M14.194,23.841c0.274-0.415,0.559-0.822,0.853-1.223C14.753,23.019,14.469,23.427,14.194,23.841z"/>
	<path fill="#009FE3" d="M12.237,27.242c0.106-0.215,0.214-0.428,0.326-0.64C12.452,26.814,12.343,27.027,12.237,27.242z"/>
	<path fill="#009FE3" d="M11.991,27.75c0.052-0.111,0.105-0.222,0.159-0.333C12.096,27.529,12.043,27.639,11.991,27.75z"/>
	<path fill="#009FE3" d="M66.112,49.74c0.256,0.078,0.494-0.051,0.583-0.335l0.187-0.608l-0.873-0.271l-0.188,0.609
		C65.732,49.419,65.856,49.661,66.112,49.74z"/>
	<path fill="#009FE3" d="M13.396,25.111c0.244-0.409,0.496-0.812,0.758-1.209C13.893,24.299,13.64,24.702,13.396,25.111z"/>
	<path fill="#009FE3" d="M66.836,41.836c-0.661-0.038-0.824-0.009-0.977,0.108c-0.118,0.096-0.204,0.242-0.216,0.428
		c-0.01,0.184,0.06,0.339,0.165,0.442c0.139,0.136,0.296,0.188,0.958,0.228c0.66,0.038,0.828,0.004,0.981-0.114
		c0.117-0.091,0.199-0.236,0.21-0.422c0.011-0.185-0.054-0.34-0.16-0.448C67.66,41.923,67.497,41.875,66.836,41.836z"/>
	<path fill="#009FE3" d="M65.271,30.281c0.244-0.112,0.334-0.369,0.21-0.638l-0.268-0.579l-0.83,0.384l0.267,0.579
		C64.775,30.296,65.029,30.394,65.271,30.281z"/>
	<path fill="#009FE3" d="M55.893,20.778c0.191-0.046,0.333-0.214,0.656-0.653c0.324-0.439,0.441-0.624,0.43-0.821
		c-0.006-0.18-0.097-0.337-0.28-0.473l-0.415-0.306l-1.34,1.818l0.415,0.306C55.542,20.786,55.719,20.825,55.893,20.778z"/>
	<polygon fill="#009FE3" points="66.266,32.832 64.931,32.798 65.192,33.619 	"/>
	<path fill="#009FE3" d="M66.111,39.84c0.232-0.017,0.412-0.176,0.39-0.482l-0.051-0.703L65.6,38.716l0.052,0.704
		C65.674,39.725,65.879,39.857,66.111,39.84z"/>
	<path fill="#009FE3" d="M67.535,39.688c0.238-0.017,0.386-0.189,0.366-0.476l-0.047-0.66l-0.798,0.058l0.048,0.66
		C67.126,39.557,67.297,39.705,67.535,39.688z"/>
	<path fill="#009FE3" d="M10.62,31.159c0.027-0.081,0.055-0.163,0.083-0.243C10.675,30.996,10.647,31.078,10.62,31.159z"/>
	<path fill="#009FE3" d="M59.913,65.529c-0.393,0.316-0.794,0.622-1.202,0.92C59.12,66.151,59.521,65.846,59.913,65.529z"/>
	<path fill="#009FE3" d="M9.479,35.657c0.011-0.065,0.023-0.129,0.035-0.194C9.502,35.527,9.491,35.592,9.479,35.657z"/>
	<path fill="#009FE3" d="M61.087,64.539c-0.374,0.331-0.755,0.653-1.144,0.966C60.332,65.192,60.713,64.87,61.087,64.539z"/>
	<path fill="#009FE3" d="M9.628,34.87c0.006-0.03,0.012-0.062,0.018-0.091C9.64,34.808,9.634,34.839,9.628,34.87z"/>
	<path fill="#009FE3" d="M62.212,63.49c-0.355,0.348-0.72,0.687-1.092,1.019C61.492,64.177,61.856,63.838,62.212,63.49z"/>
	<path fill="#009FE3" d="M64.323,61.21c-0.327,0.392-0.665,0.775-1.011,1.148C63.658,61.985,63.996,61.602,64.323,61.21z"/>
	<path fill="#009FE3" d="M11.139,29.726c0.037-0.093,0.074-0.186,0.111-0.278C11.213,29.54,11.176,29.633,11.139,29.726z"/>
	<path fill="#009FE3" d="M10.846,30.51c0.029-0.079,0.057-0.159,0.086-0.238C10.902,30.352,10.875,30.431,10.846,30.51z"/>
	<path fill="#009FE3" d="M11.386,29.116c0.04-0.096,0.079-0.192,0.12-0.288C11.465,28.924,11.426,29.02,11.386,29.116z"/>
	<path fill="#009FE3" d="M10.372,31.936c0.019-0.063,0.038-0.126,0.057-0.188C10.41,31.81,10.391,31.872,10.372,31.936z"/>
	<path fill="#009FE3" d="M9.788,34.125c0.016-0.067,0.031-0.133,0.046-0.199C9.819,33.992,9.804,34.058,9.788,34.125z"/>
	<path fill="#009FE3" d="M10.169,32.625c0.021-0.072,0.042-0.145,0.062-0.217C10.21,32.48,10.189,32.553,10.169,32.625z"/>
	<path fill="#009FE3" d="M9.966,33.388C9.978,33.342,9.988,33.295,10,33.25C9.988,33.295,9.978,33.342,9.966,33.388z"/>
	<path fill="#009FE3" d="M53.066,17.013c0.107-0.213,0.036-0.429-0.221-0.558l-0.591-0.297l-0.359,0.714l0.592,0.296
		C52.743,17.297,52.96,17.226,53.066,17.013z"/>
	<path fill="#009FE3" d="M62.243,63.46c0.358-0.351,0.707-0.711,1.048-1.078C62.95,62.749,62.602,63.109,62.243,63.46z"/>
	<polygon fill="#009FE3" points="17.921,56.818 18.728,55.761 17.438,56.105 	"/>
	<polygon fill="#009FE3" points="24.274,63.259 24.69,61.996 23.585,62.744 	"/>
	<path fill="#009FE3" d="M41.006,61.95c-0.221,0.007-0.443,0.012-0.664,0.012c-4.747,0-9.397-1.648-13.093-4.642
		c-3.731-3.022-6.359-7.298-7.397-12.038c-0.041-0.188-0.078-0.371-0.113-0.555L9.368,36.33c0,0,0-0.001,0-0.002
		c-0.239,1.558-0.363,3.154-0.363,4.779c0,17.293,14.019,31.313,31.313,31.313c6.866,0,13.216-2.213,18.376-5.96
		c-2.221,1.612-4.659,2.939-7.267,3.929L41.006,61.95z M17.157,57.8l0.393-0.513l-0.69-1.021l-0.625,0.171l-0.396-0.585l3.578-0.898
		l0.297,0.438l-2.161,2.992L17.157,57.8z M19.443,60.604l-1.461-1.708l2.633-2.253l0.439,0.514l-2.174,1.861l1.022,1.194
		L19.443,60.604z M20.666,61.836c-0.383-0.36-0.597-0.716-0.608-1.2l0.62-0.019c0.009,0.309,0.175,0.565,0.406,0.783
		c0.293,0.276,0.557,0.309,0.747,0.107c0.08-0.086,0.122-0.18,0.119-0.282c-0.007-0.094-0.036-0.161-0.147-0.3l-0.258-0.328
		c-0.193-0.242-0.282-0.453-0.292-0.67c-0.01-0.23,0.086-0.454,0.286-0.667c0.423-0.449,1.054-0.451,1.6,0.062
		c0.347,0.327,0.519,0.648,0.539,1.061l-0.602,0.017c-0.013-0.3-0.188-0.505-0.354-0.661c-0.263-0.247-0.523-0.219-0.687-0.045
		c-0.063,0.067-0.106,0.147-0.1,0.248c0.007,0.092,0.048,0.198,0.141,0.312l0.258,0.331c0.201,0.248,0.286,0.442,0.295,0.651
		c0.019,0.251-0.091,0.488-0.305,0.715C21.862,62.44,21.198,62.336,20.666,61.836z M23.875,64.437l0.204-0.613l-0.986-0.737
		l-0.535,0.366l-0.565-0.424l3.084-2.021l0.425,0.318l-1.061,3.533L23.875,64.437z M27.43,63.271
		c-0.159-0.093-0.324-0.11-0.465-0.063c-0.183,0.063-0.307,0.188-0.642,0.759c-0.334,0.571-0.382,0.74-0.347,0.93
		c0.028,0.147,0.123,0.281,0.283,0.376c0.291,0.169,0.551,0.079,0.753-0.13l0.592,0.347c-0.476,0.562-1.096,0.628-1.65,0.304
		c-0.345-0.203-0.53-0.463-0.618-0.785c-0.124-0.473,0.069-0.812,0.404-1.383c0.334-0.572,0.536-0.905,1.008-1.028
		c0.324-0.082,0.643-0.047,0.987,0.154c0.559,0.327,0.8,0.897,0.542,1.588l-0.597-0.35C27.765,63.71,27.72,63.44,27.43,63.271z
		 M31.052,65.082l-1.468-0.651l-0.33,0.743l1.25,0.554L30.26,66.28l-1.25-0.556l-0.342,0.771l1.468,0.651l-0.245,0.552l-2.086-0.926
		l1.405-3.168l2.087,0.925L31.052,65.082z"/>
	<path fill="#009FE3" d="M64.324,61.209c0.107-0.128,0.214-0.258,0.319-0.387C64.538,60.951,64.432,61.081,64.324,61.209z"/>
	<path fill="#009FE3" d="M30.261,31.881c0.036-0.004,0.071-0.007,0.107-0.007c0.873,0,1.724,1.144,2.132,1.693
		c0.059,0.08,0.108,0.145,0.143,0.188c0.494,0.605,1.194,1.307,1.564,1.421c0.082,0.024,0.16,0.037,0.232,0.037
		c0.379,0,0.518-0.342,0.566-0.546c0.086-0.358-0.211-0.869-1.462-3.02c-0.38-0.654-0.847-1.457-1.417-2.452
		c-2.504-4.369-0.546-6.408-0.382-6.567c0.98-1.199,4.13-2.41,8.269-2.41c2.839,0,8.359,0.615,13.444,4.733
		c6.356,5.147,9.119,13.585,7.036,21.498l-0.358,1.358l0.067-1.403c0.071-1.468,0.124-9.029-5.825-13.847
		c-3.426-2.774-7.255-3.356-9.863-3.356c-3.308,0-6.146,0.977-6.879,1.883c-0.665,0.821-0.656,1.946-0.647,3.137
		c0.009,1.253,0.019,2.549-0.791,3.549c0,0,0,0,0,0.001l0.807,0.653c2.29-2.762,5.748-4.524,9.607-4.524
		c6.882,0,12.479,5.598,12.479,12.478c0,2.924-1.012,5.614-2.701,7.744l8.262,6.69c4.363-5.381,6.979-12.237,6.979-19.705
		c0-17.294-14.019-31.313-31.313-31.313c-9.788,0-18.525,4.491-24.268,11.524c0.035-0.002,0.071,0.006,0.101,0.028L30.261,31.881z
		 M66.105,52.728c-0.333,0.736-0.979,0.889-1.548,0.733l0.28-0.622c0.332,0.065,0.575-0.045,0.718-0.358
		c0.076-0.17,0.068-0.333,0.009-0.473c-0.08-0.174-0.216-0.278-0.818-0.551c-0.604-0.273-0.775-0.308-0.961-0.252
		c-0.144,0.047-0.266,0.152-0.342,0.321c-0.086,0.189-0.088,0.371-0.021,0.52c0.069,0.153,0.192,0.258,0.356,0.331l0.116,0.053
		l0.262-0.581l0.52,0.234l-0.539,1.193l-0.462-0.208c-0.457-0.207-0.69-0.398-0.826-0.736c-0.156-0.387-0.109-0.717,0.043-1.055
		c0.162-0.359,0.403-0.571,0.713-0.693c0.458-0.172,0.815-0.016,1.419,0.257c0.603,0.272,0.956,0.438,1.129,0.894
		C66.268,52.049,66.268,52.369,66.105,52.728z M67.258,49.625c-0.208,0.675-0.792,0.932-1.346,0.762
		c-0.465-0.144-0.665-0.518-0.682-0.873l-1.657,0.298l0.231-0.749l1.521-0.238l0.145-0.464l-1.321-0.409l0.2-0.646l3.311,1.023
		L67.258,49.625z M68.244,45.422l-2.22-0.39c-0.393-0.068-0.669,0.12-0.731,0.48c-0.063,0.358,0.132,0.636,0.523,0.703l2.22,0.39
		l-0.115,0.662l-2.244-0.394c-0.725-0.127-1.101-0.766-0.979-1.466s0.695-1.173,1.42-1.046l2.243,0.394L68.244,45.422z
		 M68.561,42.541c-0.023,0.399-0.172,0.683-0.419,0.902c-0.365,0.325-0.755,0.313-1.415,0.274c-0.661-0.04-1.049-0.071-1.374-0.437
		c-0.22-0.247-0.335-0.546-0.312-0.945c0.023-0.397,0.172-0.688,0.419-0.907c0.364-0.324,0.755-0.306,1.415-0.269
		c0.661,0.039,1.05,0.066,1.375,0.432C68.469,41.839,68.583,42.143,68.561,42.541z M68.507,39.223
		c0.049,0.674-0.302,1.095-0.894,1.138c-0.384,0.028-0.648-0.207-0.744-0.375c-0.082,0.216-0.282,0.499-0.743,0.531
		c-0.646,0.047-1.026-0.37-1.071-0.986l-0.105-1.446l3.458-0.251L68.507,39.223z M68.08,35.695c0.091,0.468,0.042,0.83-0.184,1.176
		L67.4,36.532c0.164-0.25,0.142-0.519,0.098-0.744c-0.068-0.354-0.297-0.482-0.531-0.437c-0.09,0.018-0.173,0.058-0.225,0.143
		c-0.049,0.079-0.078,0.188-0.069,0.336l0.017,0.417c0.018,0.319-0.026,0.526-0.141,0.702c-0.132,0.214-0.36,0.343-0.667,0.402
		c-0.658,0.127-1.137-0.345-1.276-1.062c-0.1-0.516-0.066-0.929,0.209-1.329l0.513,0.347c-0.174,0.256-0.188,0.562-0.128,0.872
		c0.077,0.397,0.271,0.577,0.543,0.524c0.115-0.022,0.204-0.074,0.262-0.16c0.049-0.079,0.064-0.151,0.056-0.329l-0.018-0.417
		c-0.015-0.31,0.036-0.533,0.154-0.715c0.126-0.192,0.335-0.317,0.62-0.373C67.424,34.593,67.938,34.959,68.08,35.695z
		 M67.313,32.757l-2.915,2.26l-0.215-0.672l0.521-0.381l-0.375-1.172l-0.647-0.013l-0.215-0.673l3.686,0.146L67.313,32.757z
		 M66.049,29.429c0.295,0.641,0.033,1.223-0.492,1.466c-0.442,0.205-0.841,0.062-1.093-0.193l-1.032,1.33l-0.328-0.712l0.972-1.194
		l-0.205-0.441l-1.255,0.58l-0.284-0.615l3.147-1.453L66.049,29.429z M63.777,25.315l1.299,2.122l-0.516,0.315l-0.473-0.772
		l-2.44,1.495l-0.354-0.577l2.44-1.494l-0.473-0.772L63.777,25.315z M60.72,24.096c0.026-0.229,0.157-0.435,0.388-0.614
		c0.488-0.378,1.111-0.282,1.569,0.31c0.293,0.377,0.412,0.722,0.367,1.133l-0.597-0.08c0.033-0.297-0.106-0.526-0.247-0.707
		c-0.221-0.285-0.483-0.297-0.671-0.151c-0.072,0.056-0.128,0.129-0.138,0.229c-0.008,0.093,0.017,0.204,0.091,0.331l0.204,0.366
		c0.159,0.277,0.211,0.481,0.188,0.69c-0.021,0.251-0.166,0.468-0.413,0.659c-0.53,0.412-1.171,0.205-1.618-0.372
		c-0.321-0.416-0.478-0.799-0.413-1.281l0.615,0.078c-0.04,0.308,0.085,0.586,0.278,0.837c0.247,0.319,0.502,0.393,0.721,0.224
		c0.092-0.072,0.149-0.158,0.161-0.261c0.01-0.092-0.009-0.164-0.097-0.317l-0.204-0.366C60.752,24.533,60.696,24.312,60.72,24.096z
		 M60.546,21.35l-0.413,0.439l-1.17-1.1l-0.557,0.592l0.996,0.937l-0.413,0.44l-0.996-0.938l-0.577,0.614l1.17,1.1l-0.413,0.44
		l-1.663-1.564l2.373-2.525L60.546,21.35z M56.097,17.638l1.006,0.742c0.381,0.281,0.547,0.604,0.543,1.029
		c-0.005,0.366-0.211,0.655-0.551,1.118c-0.342,0.462-0.557,0.746-0.905,0.857c-0.404,0.131-0.763,0.067-1.143-0.213l-1.007-0.742
		L56.097,17.638z M53.164,15.94c0.605,0.304,0.787,0.82,0.521,1.351c-0.173,0.343-0.511,0.452-0.704,0.447
		c0.143,0.181,0.284,0.497,0.076,0.91c-0.291,0.578-0.844,0.693-1.396,0.416l-1.296-0.651l1.557-3.097L53.164,15.94z M47.753,16.183
		l0.757-2.149l0.638,0.225l-0.748,2.126c-0.132,0.376,0.01,0.679,0.354,0.8c0.344,0.122,0.648-0.025,0.781-0.401l0.748-2.126
		l0.633,0.223l-0.756,2.149c-0.243,0.693-0.937,0.96-1.607,0.725C47.882,17.519,47.51,16.876,47.753,16.183z M45.716,13.356
		l0.66,0.151l-0.644,2.79l1.534,0.352l-0.136,0.588l-2.192-0.504L45.716,13.356z M42.118,14.624
		c0.075-0.658,0.123-1.044,0.506-1.349c0.264-0.205,0.568-0.303,0.965-0.258c0.644,0.072,1.095,0.496,1.139,1.231L44.04,14.17
		c-0.035-0.289-0.186-0.516-0.521-0.554c-0.183-0.021-0.34,0.03-0.45,0.13c-0.142,0.131-0.203,0.295-0.278,0.953
		s-0.051,0.832,0.059,0.991c0.085,0.123,0.228,0.208,0.41,0.228c0.334,0.038,0.537-0.15,0.636-0.422l0.683,0.077
		c-0.208,0.707-0.748,1.018-1.386,0.946c-0.396-0.045-0.673-0.208-0.883-0.467C42.005,15.669,42.044,15.282,42.118,14.624z
		 M37.965,13.275c0.227-0.245,0.512-0.391,0.905-0.41c0.807-0.04,1.237,0.464,1.358,1.043l-0.681,0.034
		c-0.094-0.327-0.303-0.492-0.647-0.475c-0.185,0.01-0.327,0.089-0.424,0.206c-0.119,0.152-0.149,0.32-0.117,0.981
		c0.033,0.661,0.08,0.829,0.214,0.969c0.107,0.106,0.256,0.167,0.441,0.158c0.209-0.01,0.371-0.091,0.472-0.219
		c0.106-0.132,0.142-0.289,0.132-0.469l-0.006-0.127l-0.637,0.032l-0.029-0.568l1.309-0.065l0.024,0.505
		c0.024,0.501-0.039,0.797-0.278,1.071c-0.272,0.316-0.588,0.424-0.958,0.443c-0.393,0.02-0.692-0.097-0.942-0.319
		c-0.362-0.328-0.386-0.717-0.419-1.378C37.651,14.027,37.637,13.638,37.965,13.275z M34.553,13.437l1.729,1.845l-0.378-2.088
		l0.666-0.121l0.617,3.41l-0.594,0.108l-1.729-1.849l0.378,2.093l-0.666,0.121l-0.617-3.411L34.553,13.437z M32.933,13.832
		l0.946,3.334l-0.651,0.185l-0.945-3.334L32.933,13.832z M29.552,15.333c0.139-0.303,0.365-0.53,0.738-0.673
		c0.604-0.23,1.2-0.063,1.577,0.57l-0.646,0.246c-0.165-0.239-0.403-0.372-0.716-0.252c-0.173,0.066-0.29,0.184-0.34,0.323
		c-0.066,0.181-0.047,0.356,0.19,0.974c0.236,0.618,0.337,0.762,0.508,0.853c0.13,0.07,0.295,0.08,0.468,0.013
		c0.314-0.119,0.407-0.379,0.37-0.667l0.641-0.245c0.14,0.723-0.196,1.247-0.796,1.476c-0.373,0.143-0.692,0.124-0.999-0.009
		c-0.446-0.2-0.589-0.561-0.826-1.179C29.487,16.145,29.353,15.78,29.552,15.333z M27.451,15.953l2.73,2.482l-0.625,0.327
		l-0.466-0.448L28,18.886l0.1,0.641l-0.626,0.328l-0.492-3.655L27.451,15.953z M24.396,17.77c0.581-0.402,1.199-0.244,1.529,0.232
		c0.277,0.4,0.205,0.817-0.003,1.109l1.487,0.789l-0.644,0.446l-1.343-0.752l-0.401,0.277l0.787,1.137l-0.557,0.385l-1.972-2.85
		L24.396,17.77z"/>
	<path fill="#009FE3" d="M15.918,21.485c-0.296,0.367-0.583,0.742-0.863,1.123C15.334,22.227,15.623,21.853,15.918,21.485
		L15.918,21.485z"/>
	<polygon fill="#009FE3" points="28.667,17.893 27.706,16.973 27.903,18.293 	"/>
	<path fill="#009FE3" d="M25.368,18.388c-0.152-0.22-0.42-0.266-0.665-0.097l-0.524,0.363l0.521,0.752l0.525-0.363
		C25.468,18.875,25.52,18.608,25.368,18.388z"/>
	<path fill="#009FE3" d="M51.87,18.493c0.274,0.138,0.492,0.029,0.598-0.179c0.104-0.209,0.06-0.444-0.214-0.582l-0.632-0.316
		l-0.382,0.76L51.87,18.493z"/>
	<path fill="#DC2F34" d="M19.738,44.728c-0.737-3.854-0.217-6.992,0.724-8.162c0.088-0.141,1.017-1.512,3.548-1.512
		c0.892,0,1.886,0.174,2.955,0.518c1.091,0.351,1.973,0.641,2.69,0.876c1.843,0.606,2.606,0.856,3.003,0.856
		c0.101,0,0.181-0.017,0.257-0.052c0.214-0.103,0.355-0.241,0.406-0.401c0.048-0.147,0.022-0.311-0.075-0.486
		c-0.188-0.337-1.021-0.877-1.715-1.235c-0.05-0.026-0.125-0.06-0.217-0.102c-0.615-0.283-1.894-0.872-2.091-1.712
		c-0.009-0.042-0.016-0.084-0.021-0.126L15.966,21.577c-0.028-0.024-0.043-0.057-0.048-0.091c-0.295,0.367-0.583,0.741-0.863,1.122
		c-0.002,0.003-0.005,0.007-0.008,0.011c-0.293,0.4-0.578,0.808-0.853,1.223c-0.014,0.021-0.027,0.041-0.04,0.061
		c-0.262,0.397-0.514,0.8-0.758,1.209c-0.024,0.041-0.048,0.081-0.071,0.122c-0.229,0.389-0.451,0.783-0.664,1.182
		c-0.033,0.063-0.066,0.125-0.099,0.187c-0.111,0.212-0.22,0.425-0.326,0.64c-0.029,0.059-0.059,0.118-0.087,0.176
		c-0.054,0.111-0.106,0.221-0.159,0.333c-0.04,0.085-0.081,0.172-0.121,0.258c-0.049,0.106-0.098,0.212-0.146,0.318
		c-0.074,0.167-0.147,0.333-0.219,0.501c-0.041,0.096-0.08,0.192-0.12,0.288c-0.046,0.11-0.091,0.22-0.135,0.332
		c-0.037,0.092-0.075,0.185-0.111,0.278c-0.07,0.182-0.14,0.364-0.208,0.546c-0.029,0.08-0.057,0.159-0.086,0.238
		c-0.048,0.135-0.096,0.27-0.142,0.405c-0.028,0.081-0.056,0.162-0.083,0.243c-0.065,0.195-0.129,0.392-0.191,0.588
		c-0.02,0.063-0.038,0.125-0.057,0.188c-0.048,0.157-0.095,0.315-0.141,0.473c-0.021,0.072-0.042,0.145-0.062,0.217
		c-0.058,0.208-0.115,0.416-0.169,0.625c-0.012,0.045-0.022,0.092-0.034,0.138c-0.045,0.178-0.089,0.357-0.131,0.537
		c-0.016,0.066-0.031,0.132-0.046,0.199c-0.05,0.217-0.097,0.435-0.142,0.654c-0.006,0.03-0.012,0.061-0.018,0.091
		c-0.04,0.197-0.078,0.395-0.114,0.593c-0.012,0.065-0.023,0.129-0.035,0.194c-0.039,0.223-0.077,0.447-0.111,0.671
		c0,0,0,0.001,0,0.002L19.738,44.728z"/>
	<path fill="#DC2F34" d="M64.651,60.813l-8.262-6.69c-2.287,2.883-5.82,4.735-9.778,4.735c-6.88,0-12.478-5.599-12.478-12.479
		c0-3.021,1.079-5.792,2.871-7.953l-0.807-0.653c-0.81,0.999-2.079,1.258-3.307,1.51c-1.167,0.239-2.268,0.464-2.933,1.286
		c-0.696,0.858-1.073,3.591-0.5,6.678c0.408,2.198,1.654,6.342,5.422,9.394c3.441,2.785,7.408,3.371,10.13,3.371
		c2.348,0,4.134-0.423,4.625-0.552l1.356-0.357l-1.252,0.631c-2.697,1.359-5.702,2.121-8.733,2.219l10.422,8.438
		c2.607-0.989,5.046-2.316,7.267-3.929c0.006-0.004,0.011-0.007,0.017-0.011c0.408-0.298,0.81-0.604,1.202-0.92
		c0.01-0.008,0.021-0.017,0.03-0.024c0.389-0.313,0.77-0.635,1.144-0.966c0.011-0.011,0.022-0.021,0.033-0.03
		c0.372-0.332,0.736-0.671,1.092-1.019c0.011-0.01,0.021-0.021,0.031-0.03c0.358-0.351,0.707-0.711,1.048-1.078
		c0.007-0.007,0.014-0.015,0.021-0.023c0.346-0.373,0.684-0.757,1.011-1.148c0,0,0,0,0.001-0.001
		c0.107-0.128,0.214-0.258,0.319-0.387C64.646,60.819,64.648,60.815,64.651,60.813z"/>
	<path fill="#FFFFFF" d="M19.417,54.954l-3.578,0.898l0.396,0.585l0.625-0.171l0.69,1.021L17.157,57.8l0.396,0.585l2.161-2.992
		L19.417,54.954z M17.921,56.818l-0.483-0.713l1.29-0.345L17.921,56.818z"/>
	<polygon fill="#FFFFFF" points="21.054,57.157 20.614,56.644 17.981,58.896 19.443,60.604 19.901,60.213 18.879,59.019 	"/>
	<path fill="#FFFFFF" d="M22.627,61.235c-0.01-0.209-0.095-0.403-0.295-0.651l-0.258-0.331c-0.093-0.113-0.134-0.22-0.141-0.312
		c-0.006-0.101,0.036-0.181,0.1-0.248c0.163-0.174,0.424-0.202,0.687,0.045c0.166,0.156,0.341,0.361,0.354,0.661l0.602-0.017
		c-0.02-0.412-0.191-0.733-0.539-1.061c-0.546-0.513-1.176-0.511-1.6-0.062c-0.2,0.213-0.296,0.437-0.286,0.667
		c0.01,0.217,0.099,0.428,0.292,0.67l0.258,0.328c0.111,0.139,0.141,0.206,0.147,0.3c0.003,0.103-0.039,0.196-0.119,0.282
		c-0.19,0.201-0.454,0.169-0.747-0.107c-0.231-0.218-0.397-0.475-0.406-0.783l-0.62,0.019c0.012,0.484,0.226,0.84,0.608,1.2
		c0.532,0.5,1.196,0.604,1.656,0.114C22.536,61.724,22.646,61.486,22.627,61.235z"/>
	<path fill="#FFFFFF" d="M25.076,61.008l-3.084,2.021l0.565,0.424l0.535-0.366l0.986,0.737l-0.204,0.613l0.565,0.423l1.061-3.533
		L25.076,61.008z M24.274,63.259l-0.689-0.515l1.105-0.748L24.274,63.259z"/>
	<path fill="#FFFFFF" d="M28.278,64.338c0.257-0.69,0.016-1.261-0.542-1.588c-0.345-0.201-0.663-0.236-0.987-0.154
		c-0.473,0.123-0.674,0.456-1.008,1.028c-0.335,0.571-0.527,0.91-0.404,1.383c0.087,0.322,0.273,0.582,0.618,0.785
		c0.555,0.324,1.174,0.258,1.65-0.304l-0.592-0.347c-0.202,0.209-0.462,0.299-0.753,0.13c-0.16-0.095-0.255-0.229-0.283-0.376
		c-0.035-0.189,0.013-0.358,0.347-0.93c0.335-0.571,0.459-0.696,0.642-0.759c0.141-0.047,0.306-0.029,0.465,0.063
		c0.291,0.17,0.335,0.439,0.251,0.718L28.278,64.338z"/>
	<polygon fill="#FFFFFF" points="27.805,66.772 29.892,67.698 30.137,67.146 28.668,66.495 29.01,65.725 30.26,66.28 30.505,65.728 
		29.254,65.174 29.584,64.431 31.052,65.082 31.297,64.529 29.21,63.604 	"/>
	<path fill="#FFFFFF" d="M25.808,21.008l-0.787-1.137l0.401-0.277l1.343,0.752l0.644-0.446l-1.487-0.789
		c0.208-0.292,0.28-0.708,0.003-1.109c-0.33-0.477-0.948-0.634-1.529-0.232l-1.117,0.773l1.972,2.85L25.808,21.008z M24.179,18.654
		l0.524-0.363c0.244-0.169,0.513-0.124,0.665,0.097c0.152,0.221,0.1,0.487-0.144,0.656l-0.525,0.363L24.179,18.654z"/>
	<path fill="#FFFFFF" d="M28.1,19.526L28,18.886l1.09-0.572l0.466,0.448l0.625-0.327l-2.73-2.482l-0.469,0.247l0.492,3.655
		L28.1,19.526z M28.667,17.893l-0.763,0.4l-0.197-1.32L28.667,17.893z"/>
	<path fill="#FFFFFF" d="M30.549,17.943c0.306,0.133,0.626,0.152,0.999,0.009c0.6-0.229,0.936-0.753,0.796-1.476l-0.641,0.245
		c0.037,0.289-0.056,0.548-0.37,0.667c-0.173,0.066-0.338,0.057-0.468-0.013c-0.171-0.091-0.272-0.235-0.508-0.853
		c-0.237-0.618-0.256-0.793-0.19-0.974c0.051-0.14,0.167-0.257,0.34-0.323c0.313-0.12,0.552,0.013,0.716,0.252l0.646-0.246
		c-0.377-0.632-0.973-0.8-1.577-0.57c-0.373,0.143-0.599,0.37-0.738,0.673c-0.2,0.446-0.065,0.812,0.171,1.43
		C29.959,17.382,30.103,17.743,30.549,17.943z"/>
	
		<rect x="31.347" y="15.253" transform="matrix(0.2729 0.962 -0.962 0.2729 39.051 -20.4884)" fill="#FFFFFF" width="3.466" height="0.677"/>
	<polygon fill="#FFFFFF" points="35.241,16.835 34.863,14.742 36.592,16.591 37.186,16.483 36.569,13.073 35.903,13.193 
		36.281,15.282 34.553,13.437 33.958,13.545 34.575,16.956 	"/>
	<path fill="#FFFFFF" d="M38.104,16.065c0.25,0.222,0.549,0.338,0.942,0.319c0.369-0.019,0.686-0.127,0.958-0.443
		c0.239-0.274,0.302-0.57,0.278-1.071l-0.024-0.505l-1.309,0.065l0.029,0.568l0.637-0.032l0.006,0.127
		c0.01,0.18-0.026,0.337-0.132,0.469c-0.101,0.127-0.262,0.208-0.472,0.219c-0.185,0.009-0.334-0.052-0.441-0.158
		c-0.134-0.14-0.181-0.308-0.214-0.969c-0.032-0.661-0.002-0.829,0.117-0.981c0.097-0.117,0.239-0.196,0.424-0.206
		c0.345-0.017,0.553,0.148,0.647,0.475l0.681-0.034c-0.121-0.579-0.551-1.083-1.358-1.043c-0.394,0.02-0.679,0.165-0.905,0.41
		c-0.328,0.363-0.313,0.752-0.281,1.413C37.717,15.349,37.742,15.737,38.104,16.065z"/>
	<path fill="#FFFFFF" d="M43.192,16.519c0.638,0.072,1.178-0.239,1.386-0.946l-0.683-0.077c-0.099,0.272-0.302,0.46-0.636,0.422
		c-0.183-0.021-0.325-0.105-0.41-0.228c-0.109-0.159-0.134-0.333-0.059-0.991s0.137-0.822,0.278-0.953
		c0.11-0.101,0.268-0.151,0.45-0.13c0.335,0.038,0.485,0.265,0.521,0.554l0.688,0.078c-0.044-0.735-0.495-1.159-1.139-1.231
		c-0.396-0.045-0.701,0.053-0.965,0.258c-0.383,0.305-0.431,0.691-0.506,1.349c-0.074,0.658-0.113,1.045,0.191,1.427
		C42.52,16.31,42.797,16.473,43.192,16.519z"/>
	<polygon fill="#FFFFFF" points="47.267,16.65 45.732,16.298 46.376,13.508 45.716,13.356 44.938,16.734 47.131,17.238 	"/>
	<path fill="#FFFFFF" d="M48.552,17.754c0.671,0.236,1.364-0.031,1.607-0.725l0.756-2.149l-0.633-0.223l-0.748,2.126
		c-0.133,0.376-0.438,0.522-0.781,0.401c-0.344-0.121-0.485-0.424-0.354-0.8l0.748-2.126l-0.638-0.225l-0.757,2.149
		C47.51,16.876,47.882,17.519,48.552,17.754z"/>
	<path fill="#FFFFFF" d="M51.66,19.063c0.553,0.277,1.105,0.163,1.396-0.416c0.208-0.413,0.066-0.729-0.076-0.91
		c0.193,0.004,0.531-0.104,0.704-0.447c0.267-0.53,0.085-1.047-0.521-1.351l-1.243-0.625l-1.557,3.097L51.66,19.063z M52.255,16.158
		l0.591,0.297c0.257,0.129,0.328,0.345,0.221,0.558c-0.106,0.213-0.323,0.284-0.579,0.155l-0.592-0.296L52.255,16.158z
		 M52.254,17.731c0.273,0.138,0.317,0.373,0.214,0.582c-0.105,0.208-0.323,0.317-0.598,0.179l-0.63-0.317l0.382-0.76L52.254,17.731z
		"/>
	<path fill="#FFFFFF" d="M56.189,21.384c0.349-0.112,0.563-0.395,0.905-0.857c0.34-0.462,0.546-0.751,0.551-1.118
		c0.004-0.425-0.162-0.748-0.543-1.029l-1.006-0.742l-2.057,2.791l1.007,0.742C55.427,21.451,55.785,21.515,56.189,21.384z
		 M56.283,18.525l0.415,0.306c0.184,0.136,0.274,0.293,0.28,0.473c0.012,0.197-0.105,0.382-0.43,0.821
		c-0.323,0.438-0.465,0.607-0.656,0.653c-0.174,0.047-0.351,0.008-0.534-0.128l-0.415-0.306L56.283,18.525z"/>
	<polygon fill="#FFFFFF" points="58.173,23.875 58.586,23.435 57.416,22.334 57.993,21.721 58.989,22.658 59.402,22.218 
		58.406,21.282 58.963,20.689 60.133,21.789 60.546,21.35 58.883,19.786 56.51,22.311 	"/>
	<path fill="#FFFFFF" d="M61.109,25.168c0.088,0.153,0.106,0.225,0.097,0.317c-0.012,0.103-0.069,0.189-0.161,0.261
		c-0.219,0.169-0.474,0.095-0.721-0.224c-0.193-0.25-0.318-0.529-0.278-0.837l-0.615-0.078c-0.064,0.481,0.092,0.865,0.413,1.281
		c0.447,0.577,1.088,0.784,1.618,0.372c0.247-0.191,0.393-0.408,0.413-0.659c0.022-0.208-0.029-0.413-0.188-0.69l-0.204-0.366
		c-0.074-0.127-0.099-0.238-0.091-0.331c0.01-0.099,0.065-0.172,0.138-0.229c0.188-0.146,0.45-0.134,0.671,0.151
		c0.141,0.181,0.28,0.41,0.247,0.707l0.597,0.08c0.045-0.411-0.074-0.755-0.367-1.133c-0.458-0.592-1.081-0.688-1.569-0.31
		c-0.23,0.179-0.361,0.385-0.388,0.614c-0.023,0.216,0.032,0.438,0.186,0.707L61.109,25.168z"/>
	<polygon fill="#FFFFFF" points="61.294,27.897 61.647,28.475 64.088,26.98 64.561,27.752 65.076,27.437 63.777,25.315 
		63.262,25.631 63.734,26.403 	"/>
	<path fill="#FFFFFF" d="M62.615,30.264l1.255-0.58l0.205,0.441l-0.972,1.194l0.328,0.712l1.032-1.33
		c0.252,0.254,0.65,0.397,1.093,0.193c0.525-0.243,0.787-0.825,0.492-1.466l-0.57-1.233l-3.147,1.453L62.615,30.264z M65.214,29.063
		l0.268,0.579c0.124,0.27,0.034,0.526-0.21,0.638c-0.242,0.113-0.496,0.016-0.621-0.254l-0.267-0.579L65.214,29.063z"/>
	<path fill="#FFFFFF" d="M63.683,32.779l0.647,0.013l0.375,1.172l-0.521,0.381l0.215,0.672l2.915-2.26l-0.16-0.505l-3.686-0.146
		L63.683,32.779z M66.266,32.832l-1.073,0.787l-0.262-0.82L66.266,32.832z"/>
	<path fill="#FFFFFF" d="M66.816,34.711c-0.285,0.056-0.494,0.181-0.62,0.373c-0.118,0.182-0.169,0.405-0.154,0.715l0.018,0.417
		c0.009,0.178-0.007,0.25-0.056,0.329c-0.058,0.085-0.146,0.137-0.262,0.16c-0.272,0.052-0.466-0.127-0.543-0.524
		c-0.06-0.311-0.046-0.616,0.128-0.872l-0.513-0.347c-0.275,0.4-0.309,0.813-0.209,1.329c0.14,0.717,0.618,1.189,1.276,1.062
		c0.307-0.06,0.535-0.188,0.667-0.402c0.114-0.176,0.158-0.383,0.141-0.702l-0.017-0.417c-0.009-0.147,0.021-0.257,0.069-0.336
		c0.052-0.085,0.135-0.125,0.225-0.143c0.234-0.045,0.463,0.083,0.531,0.437c0.044,0.225,0.066,0.493-0.098,0.744l0.496,0.339
		c0.226-0.346,0.274-0.708,0.184-1.176C67.938,34.959,67.424,34.593,66.816,34.711z"/>
	<path fill="#FFFFFF" d="M65.055,39.53c0.045,0.617,0.426,1.033,1.071,0.986c0.461-0.032,0.661-0.315,0.743-0.531
		c0.096,0.169,0.36,0.403,0.744,0.375c0.592-0.043,0.942-0.464,0.894-1.138l-0.1-1.389l-3.458,0.251L65.055,39.53z M67.854,38.552
		l0.047,0.66c0.02,0.286-0.128,0.458-0.366,0.476s-0.409-0.131-0.431-0.418l-0.048-0.66L67.854,38.552z M66.45,38.654l0.051,0.703
		c0.022,0.306-0.157,0.465-0.39,0.482s-0.438-0.115-0.46-0.42L65.6,38.716L66.45,38.654z"/>
	<path fill="#FFFFFF" d="M66.875,41.16c-0.66-0.037-1.051-0.056-1.415,0.269c-0.247,0.22-0.396,0.51-0.419,0.907
		c-0.023,0.399,0.092,0.698,0.312,0.945c0.325,0.365,0.713,0.396,1.374,0.437c0.66,0.038,1.05,0.051,1.415-0.274
		c0.247-0.22,0.396-0.503,0.419-0.902c0.022-0.398-0.092-0.702-0.311-0.949C67.925,41.227,67.536,41.199,66.875,41.16z
		 M67.748,42.928c-0.153,0.118-0.321,0.152-0.981,0.114c-0.662-0.039-0.819-0.092-0.958-0.228c-0.105-0.104-0.175-0.259-0.165-0.442
		c0.012-0.186,0.098-0.332,0.216-0.428c0.152-0.117,0.315-0.146,0.977-0.108c0.661,0.039,0.824,0.087,0.962,0.222
		c0.106,0.108,0.171,0.264,0.16,0.448C67.947,42.691,67.865,42.837,67.748,42.928z"/>
	<path fill="#FFFFFF" d="M64.698,45.408c-0.122,0.7,0.254,1.339,0.979,1.466l2.244,0.394l0.115-0.662l-2.22-0.39
		c-0.392-0.067-0.586-0.345-0.523-0.703c0.063-0.36,0.339-0.549,0.731-0.48l2.22,0.39l0.117-0.666l-2.243-0.394
		C65.394,44.235,64.82,44.708,64.698,45.408z"/>
	<path fill="#FFFFFF" d="M64.148,47.951l1.321,0.409l-0.145,0.464l-1.521,0.238l-0.231,0.749l1.657-0.298
		c0.017,0.355,0.217,0.729,0.682,0.873c0.554,0.17,1.138-0.087,1.346-0.762l0.401-1.297l-3.311-1.023L64.148,47.951z M65.82,49.136
		l0.188-0.609l0.873,0.271l-0.187,0.608c-0.089,0.284-0.327,0.413-0.583,0.335C65.856,49.661,65.732,49.419,65.82,49.136z"/>
	<path fill="#FFFFFF" d="M65.024,50.841c-0.604-0.272-0.961-0.429-1.419-0.257c-0.31,0.122-0.551,0.334-0.713,0.693
		c-0.152,0.338-0.199,0.668-0.043,1.055c0.136,0.338,0.369,0.529,0.826,0.736l0.462,0.208l0.539-1.193l-0.52-0.234l-0.262,0.581
		l-0.116-0.053c-0.164-0.073-0.287-0.178-0.356-0.331c-0.067-0.148-0.065-0.33,0.021-0.52c0.076-0.169,0.198-0.274,0.342-0.321
		c0.186-0.056,0.357-0.021,0.961,0.252c0.603,0.272,0.738,0.377,0.818,0.551c0.06,0.14,0.067,0.303-0.009,0.473
		c-0.143,0.313-0.386,0.424-0.718,0.358l-0.28,0.622c0.569,0.155,1.215,0.003,1.548-0.733c0.162-0.358,0.162-0.679,0.048-0.993
		C65.98,51.278,65.627,51.113,65.024,50.841z"/>
	<path fill="#FFFFFF" d="M29.489,32.36l0.02-0.025c0.124-0.154,0.259-0.269,0.403-0.346l-10.939-8.167l10.263,9.003
		C29.281,32.668,29.365,32.513,29.489,32.36z"/>
	<path d="M15.966,21.577l13.237,11.612c0.004,0.042,0.011,0.083,0.021,0.126c0.197,0.84,1.476,1.429,2.091,1.712
		c0.092,0.042,0.167,0.076,0.217,0.102c0.695,0.358,1.528,0.897,1.715,1.235c0.097,0.175,0.123,0.339,0.075,0.486
		c-0.051,0.16-0.191,0.299-0.406,0.401c-0.077,0.036-0.156,0.052-0.257,0.052c-0.397,0-1.16-0.25-3.003-0.856
		c-0.717-0.235-1.599-0.525-2.69-0.876c-1.069-0.343-2.063-0.518-2.955-0.518c-2.532,0-3.46,1.371-3.548,1.512
		c-0.941,1.17-1.461,4.308-0.724,8.162c0.035,0.184,0.072,0.367,0.113,0.555c1.039,4.74,3.666,9.016,7.397,12.038
		c3.696,2.993,8.346,4.642,13.093,4.642c0.221,0,0.443-0.005,0.664-0.012c3.031-0.098,6.036-0.859,8.733-2.219l1.252-0.631
		l-1.356,0.357c-0.491,0.129-2.277,0.552-4.625,0.552c-2.722,0-6.689-0.586-10.13-3.371c-3.768-3.052-5.014-7.195-5.422-9.394
		c-0.573-3.087-0.196-5.819,0.5-6.678c0.665-0.821,1.766-1.046,2.933-1.286c1.228-0.251,2.497-0.511,3.307-1.51c0,0,0-0.001,0-0.001
		c0.81-1,0.8-2.296,0.791-3.549c-0.009-1.191-0.018-2.316,0.647-3.137c0.733-0.906,3.572-1.883,6.879-1.883
		c2.608,0,6.438,0.582,9.863,3.356c5.949,4.817,5.896,12.379,5.825,13.847l-0.067,1.403l0.358-1.358
		c2.083-7.913-0.68-16.351-7.036-21.498c-5.085-4.118-10.605-4.733-13.444-4.733c-4.138,0-7.289,1.211-8.269,2.41
		c-0.165,0.16-2.123,2.199,0.382,6.567c0.57,0.995,1.037,1.798,1.417,2.452c1.25,2.15,1.548,2.662,1.462,3.02
		c-0.049,0.204-0.188,0.546-0.566,0.546c-0.072,0-0.151-0.013-0.232-0.037c-0.371-0.114-1.071-0.816-1.564-1.421
		c-0.035-0.043-0.084-0.108-0.143-0.188c-0.409-0.549-1.26-1.693-2.132-1.693c-0.036,0-0.072,0.002-0.107,0.007L16.151,21.347
		c-0.03-0.022-0.065-0.03-0.101-0.028c-0.044,0.055-0.088,0.11-0.133,0.166v0C15.922,21.52,15.938,21.552,15.966,21.577z
		 M18.973,23.822l10.939,8.167c-0.144,0.077-0.279,0.192-0.403,0.346l-0.02,0.025c-0.124,0.153-0.208,0.309-0.253,0.466
		L18.973,23.822z M32.415,33.942c0.11,0.136,1.099,1.33,1.707,1.517c0.11,0.034,0.217,0.05,0.319,0.05
		c0.425,0,0.735-0.281,0.853-0.772c0.114-0.473-0.132-0.895-1.494-3.236c-0.379-0.653-0.846-1.455-1.416-2.45
		c-2.433-4.243-0.449-6.194-0.429-6.213l0.014-0.015c0.929-1.146,3.99-2.308,8.045-2.308c2.8,0,8.245,0.606,13.26,4.667
		c5.926,4.798,8.681,12.499,7.228,19.917c-0.104-2.801-0.948-8.729-5.938-12.77c-3.493-2.829-7.392-3.422-10.048-3.422
		c-3.44,0-6.316,1.013-7.109,1.993c-0.731,0.903-0.722,2.134-0.713,3.324c0.009,1.201,0.018,2.443-0.725,3.361
		c-0.743,0.917-1.96,1.167-3.138,1.408c-1.166,0.239-2.372,0.485-3.103,1.389c-0.727,0.897-1.171,3.626-0.561,6.917
		c0.717,3.865,2.679,7.264,5.526,9.568c3.508,2.841,7.545,3.437,10.315,3.437c1.379,0,2.568-0.144,3.424-0.291
		c-2.545,1.085-5.317,1.653-8.092,1.653c-4.68,0-9.264-1.625-12.908-4.576c-3.68-2.979-6.271-7.195-7.294-11.871
		c-0.882-4.024-0.387-7.31,0.558-8.476l0.012-0.017c0.008-0.015,0.856-1.378,3.302-1.378c0.861,0,1.825,0.169,2.864,0.504
		c1.09,0.35,1.972,0.64,2.688,0.875c1.929,0.633,2.65,0.871,3.095,0.871c0.145,0,0.267-0.026,0.384-0.082
		c0.29-0.138,0.483-0.337,0.561-0.578c0.072-0.224,0.038-0.473-0.098-0.719c-0.307-0.554-1.683-1.274-1.838-1.354
		c-0.053-0.027-0.132-0.064-0.229-0.108c-0.527-0.243-1.763-0.811-1.926-1.511c-0.055-0.233,0.014-0.462,0.209-0.703l0.02-0.025
		c0.191-0.234,0.396-0.349,0.629-0.349c0.724,0,1.545,1.103,1.896,1.574C32.327,33.827,32.377,33.896,32.415,33.942z"/>
	<path fill="#FFFFFF" d="M30.368,32.169c-0.232,0-0.438,0.115-0.629,0.349l-0.02,0.025c-0.195,0.241-0.264,0.47-0.209,0.703
		c0.164,0.7,1.399,1.268,1.926,1.511c0.097,0.044,0.177,0.082,0.229,0.108c0.155,0.08,1.531,0.8,1.838,1.354
		c0.136,0.246,0.17,0.495,0.098,0.719c-0.077,0.24-0.271,0.439-0.561,0.578c-0.117,0.055-0.239,0.082-0.384,0.082
		c-0.444,0-1.166-0.238-3.095-0.871c-0.716-0.236-1.598-0.525-2.688-0.875c-1.04-0.334-2.003-0.504-2.864-0.504
		c-2.446,0-3.293,1.363-3.302,1.378l-0.012,0.017c-0.944,1.166-1.439,4.451-0.558,8.476c1.024,4.676,3.615,8.893,7.294,11.871
		c3.644,2.951,8.228,4.576,12.908,4.576c2.774,0,5.547-0.568,8.092-1.653c-0.855,0.147-2.045,0.291-3.424,0.291
		c-2.771,0-6.808-0.596-10.315-3.437c-2.847-2.305-4.81-5.703-5.526-9.568c-0.61-3.29-0.167-6.02,0.561-6.917
		c0.731-0.904,1.938-1.15,3.103-1.389c1.177-0.242,2.395-0.491,3.138-1.408c0.743-0.918,0.733-2.16,0.725-3.361
		c-0.009-1.19-0.019-2.421,0.713-3.324c0.793-0.98,3.668-1.993,7.109-1.993c2.656,0,6.555,0.593,10.048,3.422
		c4.99,4.041,5.835,9.969,5.938,12.77c1.453-7.418-1.302-15.119-7.228-19.917c-5.015-4.061-10.46-4.667-13.26-4.667
		c-4.055,0-7.116,1.161-8.045,2.308l-0.014,0.015c-0.02,0.019-2.004,1.97,0.429,6.213c0.569,0.995,1.036,1.797,1.416,2.45
		c1.362,2.342,1.607,2.764,1.494,3.236c-0.118,0.491-0.428,0.772-0.853,0.772c-0.102,0-0.209-0.016-0.319-0.05
		c-0.607-0.187-1.596-1.381-1.707-1.517c-0.038-0.045-0.088-0.115-0.151-0.199C31.914,33.272,31.092,32.169,30.368,32.169z"/>
	<path fill="#FFFFFF" d="M58.752,46.378c0-6.694-5.446-12.141-12.141-12.141s-12.14,5.447-12.14,12.141
		c0,6.694,5.446,12.142,12.14,12.142S58.752,53.072,58.752,46.378z M43.957,55.497c0,0-2.105,0-3.754,0
		c-2.024-0.981-3.602-3.578-3.602-3.578v-5.656l0.404-0.403v-1.991l0.606-0.751l0.375-3.866l0.375,3.866l0.534,0.751v2.005
		l0.246,0.246v3.779c0,0,1.269,0,3.49,0c0,4.473,1.877,5.165,1.877,5.165L43.957,55.497z M49.807,48.196
		c-0.442-0.136-0.924-0.136-1.097-0.136c-0.174,0-3.097,0.252-3.097,3.06c0,2.809,2.309,3.116,2.673,3.116c0.366,0,4.117,0,4.117,0
		s0.827,0.153,0.827,0.924c0,0.77-0.827,0.942-0.827,0.942c-0.327,0-3.501,0-4.424,0c-0.924,0-4.348-1.366-4.348-5.176
		c0-3.808,3.789-4.731,4.039-4.751c-0.789-0.558-4.521-3.424-4.521-3.424s-0.403-0.346-0.403-0.787c0-0.444,0.385-0.963,0.789-0.963
		s3.271,0,3.271,0c0.403,0,1.076-0.462,1.076-1.173s-0.577-1.135-0.923-1.135s-4.79,0-4.79,0v8.08c0,0.384-0.499,0.933-0.933,0.933
		c-0.432,0-1.034-0.376-1.034-0.952c0,0,0-8.657,0-9.089c0-0.434,0.293-0.866,0.754-0.866c0.462,0,5.367,0,5.367,0
		s3.463,0.144,3.463,3.087c0,2.944-2.973,3.145-3.116,3.145c0.549,0.548,3.837,3.088,3.837,3.088s0.838,0.808,0.981,1.326
		c0.144,0.521,0.317,1.385,0.49,1.818s0.606,1.01,1.818,1.01c1.213,0,2.164-0.894,2.164-1.875s-0.722-1.645-1.559-1.876
		c-0.836-0.23-3.722-0.46-3.722-3.261c0-2.798,2.482-3.087,2.972-3.087c0.491,0,1.53,0.058,2.309,1.183
		c0.779,1.127,0.779,2.309-0.231,2.309c-1.01,0-0.894-0.836-1.125-1.067c-0.23-0.23-0.519-0.52-0.894-0.52
		c-0.376,0-1.04,0.289-1.04,1.183c0,0.895,0.673,1.01,1.04,1.087c0.365,0.078,2.115,0.462,3,1.193
		c0.885,0.73,1.154,2.059,1.154,2.692c0,0.635-0.23,1.925-1.231,2.866c-1,0.943-1.904,1.116-2.847,1.116
		S50.384,52.082,49.807,48.196z"/>
	<path fill="#004996" d="M53.788,52.217c0.942,0,1.847-0.173,2.847-1.116c1.001-0.941,1.231-2.231,1.231-2.866
		c0-0.634-0.27-1.962-1.154-2.692c-0.885-0.731-2.635-1.115-3-1.193c-0.367-0.077-1.04-0.192-1.04-1.087
		c0-0.894,0.664-1.183,1.04-1.183c0.375,0,0.663,0.289,0.894,0.52c0.231,0.231,0.115,1.067,1.125,1.067
		c1.011,0,1.011-1.182,0.231-2.309c-0.778-1.125-1.817-1.183-2.309-1.183c-0.489,0-2.972,0.289-2.972,3.087
		c0,2.801,2.886,3.03,3.722,3.261c0.837,0.231,1.559,0.895,1.559,1.876s-0.951,1.875-2.164,1.875c-1.212,0-1.646-0.576-1.818-1.01
		s-0.347-1.298-0.49-1.818c-0.144-0.519-0.981-1.326-0.981-1.326s-3.288-2.54-3.837-3.088c0.144,0,3.116-0.201,3.116-3.145
		c0-2.943-3.463-3.087-3.463-3.087s-4.905,0-5.367,0c-0.461,0-0.754,0.432-0.754,0.866c0,0.433,0,9.089,0,9.089
		c0,0.576,0.602,0.952,1.034,0.952c0.434,0,0.933-0.549,0.933-0.933v-8.08c0,0,4.444,0,4.79,0s0.923,0.423,0.923,1.135
		s-0.673,1.173-1.076,1.173c0,0-2.866,0-3.271,0s-0.789,0.519-0.789,0.963c0,0.441,0.403,0.787,0.403,0.787s3.732,2.866,4.521,3.424
		c-0.25,0.02-4.039,0.943-4.039,4.751c0,3.81,3.424,5.176,4.348,5.176c0.923,0,4.097,0,4.424,0c0,0,0.827-0.173,0.827-0.942
		c0-0.771-0.827-0.924-0.827-0.924s-3.751,0-4.117,0c-0.364,0-2.673-0.308-2.673-3.116c0-2.808,2.923-3.06,3.097-3.06
		c0.173,0,0.654,0,1.097,0.136C50.384,52.082,52.846,52.217,53.788,52.217z"/>
	<path fill="#004996" d="M42.63,49.898c-2.221,0-3.49,0-3.49,0v-3.779l-0.246-0.246v-2.005l-0.534-0.751l-0.375-3.866l-0.375,3.866
		l-0.606,0.751v1.991l-0.404,0.403v5.656c0,0,1.578,2.597,3.602,3.578c1.649,0,3.754,0,3.754,0l0.55-0.434
		C44.507,55.063,42.63,54.371,42.63,49.898z"/>
	<path d="M46.611,33.9c-3.859,0-7.317,1.762-9.607,4.524c-1.792,2.161-2.871,4.933-2.871,7.953c0,6.881,5.598,12.479,12.478,12.479
		c3.958,0,7.491-1.853,9.778-4.735c1.689-2.13,2.701-4.82,2.701-7.744C59.091,39.498,53.493,33.9,46.611,33.9z M46.611,58.52
		c-6.694,0-12.14-5.447-12.14-12.142c0-6.694,5.446-12.141,12.14-12.141s12.141,5.447,12.141,12.141
		C58.752,53.072,53.306,58.52,46.611,58.52z"/>
</g>
</svg>
