<?xml version="1.0" encoding="utf-8"?>
<!-- Generator: Adobe Illustrator 16.0.0, SVG Export Plug-In . SVG Version: 6.00 Build 0)  -->
<!DOCTYPE svg PUBLIC "-//W3C//DTD SVG 1.1//EN" "http://www.w3.org/Graphics/SVG/1.1/DTD/svg11.dtd">
<svg version="1.1" id="Mode_Isolation" xmlns="http://www.w3.org/2000/svg" xmlns:xlink="http://www.w3.org/1999/xlink" x="0px"
	 y="0px" width="80px" height="80px" viewBox="0 0 80 80" enable-background="new 0 0 80 80" xml:space="preserve">
<path fill="#26355C" d="M39.665,71.965c-6.67,0-13.176-1.261-19.335-3.744l-0.424-0.17l0.631-1.568
	c-1.084-0.434-2.136-0.895-3.131-1.372l-0.65-0.313l4.171-3.379v-5.318l0.654,0.314c1.319,0.631,2.686,1.199,4.065,1.688
	l0.457,0.165l-0.604,1.415c4.548,1.635,9.311,2.463,14.166,2.463h0.001c4.853,0,9.611-0.826,14.156-2.46l-0.604-1.416l0.458-0.162
	c1.378-0.489,2.743-1.056,4.059-1.686l0.653-0.315v5.313l4.215,3.443l-0.648,0.31c-0.996,0.479-2.05,0.938-3.138,1.373l0.609,1.504
	L59,68.221C52.841,70.704,46.336,71.965,39.665,71.965"/>
<path fill="#CBA979" d="M21.383,56.826c1.345,0.646,2.716,1.215,4.109,1.709l-0.603,1.411c4.757,1.771,9.766,2.657,14.775,2.657
	c5.005,0,10.011-0.886,14.764-2.652l-0.602-1.412c1.391-0.495,2.762-1.062,4.103-1.706v4.804l3.827,3.125
	c-1.163,0.559-2.345,1.063-3.536,1.527l0.608,1.508c-6.134,2.473-12.649,3.712-19.165,3.712c-6.516,0-13.032-1.239-19.165-3.712
	l0.634-1.569c-1.191-0.465-2.369-0.972-3.531-1.527l3.78-3.063V56.826 M20.47,55.375v1.451v4.375l-3.441,2.789l-1.122,0.907
	l1.301,0.625c0.874,0.419,1.79,0.825,2.735,1.214l-0.291,0.719l-0.343,0.848l0.847,0.341c3.093,1.248,6.325,2.2,9.608,2.834
	c3.252,0.626,6.583,0.943,9.899,0.943c3.317,0,6.646-0.317,9.899-0.943c3.283-0.634,6.516-1.586,9.605-2.834l0.849-0.341
	l-0.341-0.848l-0.266-0.657c0.945-0.386,1.865-0.793,2.739-1.212l1.297-0.622l-1.113-0.91l-3.49-2.85v-4.371v-1.449l-1.308,0.627
	c-1.302,0.622-2.651,1.184-4.016,1.668l-0.916,0.325l0.382,0.894l0.224,0.52c-4.358,1.511-8.909,2.273-13.545,2.273
	c-4.64,0-9.195-0.764-13.555-2.275l0.222-0.522l0.381-0.894l-0.916-0.325c-1.363-0.482-2.714-1.045-4.019-1.672L20.47,55.375z"/>
<path fill="#FFFFFF" d="M30.859,56.477l-0.311-0.249c-0.866-0.693-1.683-1.348-2.449-2.022c-2.436-2.005-4.438-3.76-6.193-6.509
	l-0.036-0.056l-0.001-0.002c-0.634-1.011-0.982-2.209-1.093-3.77c-0.023-0.326-0.037-0.625-0.043-0.916V22.559l-1.417-3.278
	l0.65-0.264c3.33-1.345,6.828-2.348,10.397-2.981c3.061-0.542,6.196-0.817,9.321-0.817h0.684v0.005
	c2.9,0.039,5.804,0.314,8.638,0.817c3.566,0.634,7.061,1.638,10.388,2.985l0.646,0.261l-1.389,3.27v20.396
	c-0.028,1.372-0.184,3.143-1.151,4.686l-0.001,0.002l-0.036,0.056c-1.727,2.705-3.775,4.508-5.898,6.268
	c-0.845,0.758-1.758,1.491-2.726,2.267l-0.308,0.246l-8.847,6.328L30.859,56.477z"/>
<path fill="#CBA979" d="M39.683,15.903L39.683,15.903c3.139,0.002,6.227,0.283,9.203,0.812c3.569,0.635,7.001,1.629,10.251,2.946
	l-1.171,2.756v20.521c-0.033,1.593-0.246,3.069-1.057,4.349l-0.014,0.022c-0.005,0.006-0.009,0.011-0.011,0.021
	c-1.637,2.563-3.52,4.252-5.767,6.113c-0.919,0.826-1.909,1.61-3.001,2.487l-8.434,6.031l-8.41-6.031
	c-0.983-0.79-1.888-1.507-2.729-2.246c-2.379-1.96-4.353-3.682-6.06-6.354c-0.003-0.01-0.006-0.015-0.011-0.021l-0.015-0.022
	c-0.657-1.038-0.91-2.209-1-3.467c-0.021-0.289-0.036-0.582-0.042-0.882V22.417l-0.682-1.58l-0.513-1.184
	c3.252-1.315,6.688-2.309,10.259-2.942C33.459,16.182,36.542,15.903,39.683,15.903 M39.683,14.534c-3.164,0-6.34,0.278-9.439,0.827
	c-3.617,0.642-7.161,1.657-10.535,3.021l-1.3,0.526l0.556,1.288l0.513,1.184l0.57,1.32v20.238v0.015l0,0.015
	c0.005,0.302,0.021,0.612,0.044,0.949c0.118,1.65,0.488,2.934,1.164,4.031l0.003,0.007l0.071,0.11
	c1.806,2.83,3.847,4.621,6.326,6.662c0.774,0.68,1.595,1.336,2.463,2.031l0.297,0.24l0.029,0.023l0.03,0.021l8.409,6.031
	l0.797,0.571l0.798-0.57l8.432-6.031l0.031-0.022l0.029-0.023l0.294-0.234c0.97-0.777,1.89-1.514,2.745-2.283
	c2.162-1.791,4.25-3.632,6.027-6.416l0.071-0.111l0.003-0.006c1.025-1.67,1.193-3.537,1.223-4.98v-0.015v-0.015V22.696l1.062-2.5
	l0.544-1.283l-1.292-0.522c-3.369-1.365-6.911-2.382-10.522-3.024c-2.652-0.471-5.361-0.744-8.074-0.814v-0.018H39.683z"/>
<path fill="#E42620" d="M57.963,22.417l1.17-2.756c-3.25-1.316-6.682-2.311-10.25-2.946v38.492l0.78-0.57
	c2.91-2.392,5.242-4.212,7.218-7.307c0.004-0.01,0.006-0.015,0.011-0.021l0.016-0.022c0.809-1.278,1.022-2.756,1.056-4.349"/>
<path fill="#26355C" d="M39.683,15.904v46.035l9.2-6.732V16.715C45.908,16.186,42.822,15.905,39.683,15.904"/>
<path fill="#26355C" d="M21.416,42.938c0.032,1.593,0.232,3.069,1.041,4.349l0.014,0.022c0.004,0.006,0.008,0.011,0.011,0.021
	c1.977,3.095,4.309,4.915,7.218,7.307l0.78,0.57V16.71c-3.572,0.633-7.006,1.627-10.26,2.942l1.196,2.764V42.938z"/>
<path fill="#E42620" d="M30.48,16.71v38.497l9.203,6.732V15.903C36.542,15.903,33.456,16.182,30.48,16.71"/>
<path fill="#26355C" d="M26.893,36.391c-1.955,4.624-4.001,9.985-1.721,13.507c1.666,2.551,3.646,4.066,6.099,6.033l8.413,6.031
	l8.43-6.031c2.453-1.967,4.42-3.466,6.087-6.016c0.003-0.008,0.004-0.011,0.009-0.016l0.012-0.019
	c2.281-3.521,0.236-8.866-1.719-13.49l-1.701-5.039c1.589-1.084,2.364-2.673,2.491-4.251c0.088-1.105-0.141-2.205-0.635-3.121
	c-0.3-0.556-0.698-1.043-1.181-1.424c-0.159-0.126-0.332-0.241-0.511-0.343c-0.309-0.174-0.592-0.319-0.862-0.442
	c-0.135-0.061-0.269-0.118-0.396-0.168c-0.259-0.103-0.509-0.187-0.76-0.26c-0.126-0.036-0.253-0.07-0.381-0.101
	c-0.191-0.048-0.387-0.091-0.591-0.132c-0.068-0.014-0.134-0.029-0.202-0.042c-0.258-0.051-0.503-0.11-0.736-0.179
	c-1.638-0.478-2.718-1.396-3.231-2.928c-0.321,0.596-0.621,1.188-0.627,1.754c-0.009,0.945,0.423,1.824,1.286,2.547
	c0.109,0.091,0.225,0.174,0.336,0.262c0.441,0.354,0.898,0.694,1.358,1.025c0.117,0.082,0.229,0.167,0.346,0.249
	c0.642,0.454,0.954,1.109,0.968,1.76c0.007,0.389-0.094,0.775-0.297,1.116c-0.512-0.334-1.057-0.647-1.636-0.938
	c-1.158-0.58-2.444-1.075-3.834-1.484c-0.694-0.204-1.281-0.388-2.023-0.551c-0.742,0.164-1.324,0.347-2.019,0.551
	c-1.389,0.41-2.676,0.904-3.833,1.484c-0.579,0.291-1.125,0.604-1.636,0.938c-0.204-0.34-0.304-0.727-0.297-1.116
	c0.013-0.65,0.326-1.306,0.968-1.76c0.115-0.082,0.23-0.167,0.345-0.249c0.462-0.331,0.918-0.672,1.36-1.025
	c0.111-0.088,0.226-0.171,0.334-0.262c0.865-0.723,1.295-1.602,1.287-2.547c-0.006-0.566-0.305-1.158-0.627-1.754
	c-0.514,1.533-1.593,2.45-3.23,2.928c-0.234,0.069-0.479,0.128-0.735,0.179c-0.07,0.013-0.135,0.028-0.203,0.042
	c-0.203,0.041-0.4,0.084-0.591,0.132c-0.127,0.031-0.254,0.064-0.379,0.101c-0.251,0.073-0.501,0.158-0.76,0.26
	c-0.13,0.05-0.262,0.107-0.397,0.168c-0.271,0.124-0.555,0.269-0.863,0.442c-0.18,0.103-0.35,0.217-0.511,0.343
	c-0.482,0.38-0.879,0.868-1.18,1.424c-0.496,0.916-0.724,2.015-0.636,3.121c0.127,1.578,0.903,3.167,2.492,4.251L26.893,36.391z"/>
<path fill="#FFFFFF" d="M39.683,44.545c2.159,0,3.907,1.186,3.907,2.646l-1.349,2l-1.334-2.563v-0.604h-2.449v0.604l-1.334,2.563
	l-1.348-2C35.776,45.73,37.525,44.545,39.683,44.545"/>
<polygon fill="#FFFFFF" points="36.872,37.297 33.892,37.823 32.279,36.5 "/>
<polygon fill="#FFFFFF" points="42.452,37.297 45.435,37.823 47.046,36.5 "/>
<path fill="#FFFFFF" d="M53.292,27.101c0.088-1.105-0.141-2.205-0.635-3.121c-0.302-0.556-0.698-1.043-1.181-1.424
	c-0.159-0.126-0.332-0.241-0.511-0.342c-0.309-0.175-0.592-0.32-0.862-0.443c-0.135-0.061-0.269-0.118-0.396-0.169
	c-0.259-0.102-0.509-0.186-0.76-0.259c-0.126-0.036-0.253-0.07-0.381-0.101c-0.191-0.048-0.387-0.091-0.591-0.132
	c-0.068-0.014-0.134-0.029-0.202-0.042c-0.258-0.051-0.503-0.11-0.736-0.179c-1.638-0.478-2.717-1.396-3.231-2.928
	c-0.321,0.596-0.621,1.188-0.627,1.754c-0.009,0.945,0.423,1.824,1.286,2.547c0.109,0.091,0.225,0.174,0.336,0.262
	c0.441,0.354,0.898,0.694,1.358,1.025c0.117,0.082,0.229,0.167,0.346,0.249c0.642,0.454,0.954,1.109,0.968,1.76
	c0.007,0.389-0.094,0.775-0.297,1.116c-0.512-0.334-1.057-0.647-1.636-0.938c-1.158-0.58-2.444-1.075-3.834-1.484
	c-0.694-0.204-1.281-0.388-2.023-0.551c-0.742,0.164-1.324,0.347-2.019,0.551c-1.389,0.41-2.676,0.904-3.833,1.484
	c-0.579,0.291-1.125,0.604-1.636,0.938c-0.204-0.34-0.304-0.727-0.297-1.116c0.013-0.65,0.326-1.306,0.968-1.76
	c0.115-0.082,0.23-0.167,0.345-0.249c0.462-0.331,0.918-0.672,1.36-1.025c0.111-0.088,0.226-0.171,0.334-0.262
	c0.865-0.723,1.295-1.602,1.287-2.547c-0.006-0.566-0.304-1.158-0.627-1.754c-0.514,1.533-1.594,2.45-3.23,2.928
	c-0.234,0.069-0.479,0.128-0.735,0.179c-0.07,0.013-0.135,0.028-0.203,0.042c-0.203,0.041-0.4,0.084-0.591,0.132
	c-0.127,0.031-0.254,0.064-0.379,0.101c-0.251,0.073-0.501,0.158-0.76,0.259c-0.129,0.051-0.262,0.108-0.397,0.169
	c-0.271,0.124-0.554,0.269-0.863,0.443c-0.18,0.102-0.35,0.216-0.511,0.342c-0.482,0.38-0.879,0.868-1.18,1.424
	c-0.496,0.916-0.724,2.015-0.635,3.121c0.126,1.577,0.902,3.167,2.491,4.251l-1.677,5.039l2.869-2.814l8.137,2.261l0.19,3.324
	l-5.167,0.953l-0.077-0.395l-2.416-2.837l-0.819,1.597l4.4,6.066l0.037,0.191c0.874-1.06,2.673-2.051,4.481-2.328l-0.326-1.237
	h2.965l-0.326,1.237c1.808,0.277,3.609,1.06,4.481,2.118l0.037,0.229l4.4-6.276l-0.819-1.597l-2.416,2.837l-0.077,0.395
	l-5.167-0.954l0.191-3.323l8.135-2.261l2.895,2.814l-1.701-5.039C52.39,30.268,53.165,28.678,53.292,27.101"/>
<path fill="#26355C" d="M46.588,31.038c0-0.472,0.404-0.854,0.9-0.854s0.9,0.382,0.9,0.854c0,0.471-0.404,0.854-0.9,0.854
	S46.588,31.509,46.588,31.038 M38.784,33.004c0-0.471,0.402-0.853,0.9-0.853c0.497,0,0.898,0.382,0.898,0.853
	c0,0.472-0.402,0.854-0.898,0.854C39.186,33.858,38.784,33.476,38.784,33.004 M30.979,31.038c0-0.472,0.402-0.854,0.899-0.854
	c0.498,0,0.9,0.382,0.9,0.854c0,0.471-0.403,0.854-0.9,0.854C31.381,31.891,30.979,31.509,30.979,31.038"/>
<path fill="#26355C" d="M39.68,71.736c-6.641,0-13.118-1.255-19.25-3.728l-0.212-0.086l3.502-8.67l0.21,0.086
	c5.018,2.022,10.316,3.049,15.748,3.049h0.002c5.434-0.002,10.732-1.026,15.749-3.049l0.211-0.086l3.501,8.67l-0.211,0.086
	C52.798,70.481,46.321,71.736,39.68,71.736"/>
<path fill="#CBA979" d="M55.514,59.549l3.332,8.248c-6.133,2.473-12.649,3.712-19.166,3.712c-6.516,0-13.031-1.239-19.165-3.712
	l3.331-8.248c5.068,2.045,10.45,3.065,15.834,3.065C45.064,62.614,50.447,61.593,55.514,59.549 M55.767,58.955l-0.424,0.171
	c-4.989,2.012-10.259,3.033-15.663,3.033c-5.404,0-10.674-1.021-15.663-3.033l-0.423-0.171l-0.171,0.423l-3.331,8.248l-0.171,0.425
	l0.424,0.17c3.065,1.235,6.269,2.182,9.523,2.808c3.224,0.621,6.524,0.937,9.812,0.937c3.287,0,6.588-0.315,9.812-0.937
	c3.254-0.626,6.458-1.572,9.523-2.808l0.425-0.17l-0.172-0.425l-3.331-8.248L55.767,58.955z"/>
<path fill="#CBA979" d="M17.301,16.486c-0.093-0.217-0.025-0.416,0.164-0.497c0.203-0.087,0.398,0.011,0.461,0.158
	c0.032,0.074,0.042,0.136,0.037,0.202c0.145,0.031,0.337,0.009,0.537-0.077c0.333-0.143,0.481-0.382,0.369-0.645
	c-0.107-0.249-0.414-0.26-0.764-0.236c-0.649,0.039-1.124,0.029-1.366-0.533c-0.208-0.486,0.022-1.033,0.637-1.297
	c0.567-0.243,1.131-0.139,1.288,0.225c0.094,0.217,0.013,0.399-0.163,0.474c-0.212,0.091-0.399-0.014-0.465-0.167
	c-0.031-0.073-0.031-0.111-0.029-0.156c-0.104-0.016-0.252-0.001-0.44,0.08c-0.301,0.128-0.41,0.356-0.315,0.578
	c0.106,0.25,0.408,0.251,0.76,0.231c0.627-0.04,1.12-0.026,1.362,0.537c0.246,0.577-0.062,1.097-0.685,1.364
	C18.088,16.986,17.458,16.855,17.301,16.486"/>
<polygon fill="#CBA979" points="20.704,15.298 21.09,15.159 20.307,12.99 19.731,13.198 19.908,13.69 19.402,13.873 19.057,12.918 
	21.755,11.943 22.1,12.898 21.594,13.081 21.417,12.589 20.841,12.796 21.623,14.966 22.012,14.826 22.184,15.303 20.875,15.775 "/>
<path fill="#CBA979" d="M22.862,14.516l0.274-0.081l0.143-2.433l-0.347,0.101l-0.143-0.481l1.793-0.527l0.142,0.481l-0.348,0.104
	l1.438,1.969l0.274-0.081l0.144,0.487l-1.22,0.359l-0.142-0.482l0.366-0.108l-0.332-0.468l-1.185,0.349l-0.025,0.572l0.385-0.114
	l0.142,0.482l-1.219,0.358L22.862,14.516z M24.623,12.946l-0.809-1.119l-0.076,1.378L24.623,12.946z"/>
<path fill="#CBA979" d="M26.542,13.456l0.368-0.081l-0.49-2.235l-0.368,0.08l-0.108-0.495l1.22-0.268
	c1.166-0.256,1.992,0.199,2.205,1.176c0.217,0.985-0.291,1.785-1.557,2.063l-1.161,0.255L26.542,13.456z M27.783,13.183
	c0.833-0.183,1.165-0.729,1.014-1.42c-0.154-0.705-0.741-0.983-1.544-0.807l-0.279,0.062l0.491,2.236L27.783,13.183z"/>
<polygon fill="#CBA979" points="30.265,12.672 30.638,12.615 30.293,10.35 29.92,10.405 29.844,9.904 32.284,9.532 32.426,10.467 
	31.889,10.549 31.823,10.111 30.854,10.259 30.987,11.132 31.976,10.983 32.049,11.46 31.061,11.61 31.2,12.534 32.174,12.386 
	32.108,11.95 32.645,11.869 32.786,12.801 30.342,13.173 "/>
<polygon fill="#CBA979" points="34.685,12.059 35.077,12.038 35.056,9.747 34.645,9.769 34.617,9.262 35.52,9.213 36.634,10.992 
	37.545,9.102 38.443,9.052 38.47,9.558 38.059,9.582 38.29,11.861 38.681,11.84 38.71,12.346 37.355,12.422 37.327,11.915 
	37.724,11.892 37.565,10.197 36.713,11.903 36.638,11.906 35.605,10.304 35.632,12.007 36.029,11.985 36.056,12.493 34.713,12.566 
	"/>
<path fill="#CBA979" d="M39.093,11.846l0.287,0.006l0.87-2.28l-0.362-0.007l0.01-0.502l1.869,0.038l-0.011,0.502l-0.361-0.007
	l0.778,2.313l0.286,0.004l-0.01,0.509l-1.272-0.026l0.012-0.502l0.38,0.008l-0.174-0.547L40.16,11.33l-0.196,0.54l0.4,0.008
	l-0.009,0.502l-1.271-0.026L39.093,11.846z M41.25,10.879l-0.438-1.311l-0.489,1.292L41.25,10.879z"/>
<polygon fill="#CBA979" points="42.934,11.955 43.309,11.986 43.498,9.704 43.123,9.673 43.164,9.167 44.541,9.282 44.499,9.787 
	44.063,9.75 43.873,12.038 44.779,12.113 44.818,11.647 45.363,11.693 45.285,12.659 42.891,12.46 "/>
<polygon fill="#CBA979" points="45.905,12.203 46.277,12.258 46.611,9.994 46.241,9.939 46.315,9.437 47.656,9.636 47.581,10.137 
	47.176,10.077 47.046,10.941 48.556,11.165 48.684,10.3 48.276,10.24 48.351,9.738 49.69,9.937 49.617,10.438 49.245,10.384 
	48.91,12.648 49.282,12.703 49.208,13.205 47.866,13.007 47.94,12.504 48.35,12.565 48.482,11.656 46.974,11.433 46.838,12.341 
	47.246,12.402 47.171,12.903 45.831,12.705 "/>
<polygon fill="#CBA979" points="49.867,12.825 50.235,12.904 50.72,10.666 50.353,10.587 50.458,10.093 52.868,10.614 
	52.668,11.536 52.14,11.42 52.232,10.99 51.275,10.783 51.088,11.646 52.065,11.857 51.962,12.328 50.986,12.116 50.789,13.029 
	51.749,13.238 51.844,12.806 52.373,12.921 52.173,13.843 49.761,13.319 "/>
<path fill="#CBA979" d="M52.929,13.505l0.362,0.103l0.621-2.203l-0.362-0.102l0.138-0.489l1.232,0.348
	c0.73,0.206,1.163,0.667,0.979,1.314c-0.116,0.411-0.455,0.653-0.843,0.697l0.243,1.001l0.362,0.103l-0.136,0.487l-0.735-0.208
	l-0.298-1.387c-0.067-0.015-0.132-0.027-0.196-0.045c-0.1-0.029-0.193-0.055-0.259-0.078l-0.201,0.715l0.396,0.111l-0.138,0.488
	l-1.305-0.369L52.929,13.505z M55.329,12.336c0.096-0.333-0.135-0.571-0.575-0.694l-0.295-0.083l-0.288,1.02
	c0.058,0.021,0.132,0.048,0.308,0.097C54.888,12.792,55.235,12.669,55.329,12.336"/>
<path fill="#CBA979" d="M56.141,14.431l0.354,0.124l0.755-2.164l-0.354-0.124l0.167-0.479l1.249,0.435
	c0.762,0.267,1.014,0.749,0.85,1.218c-0.125,0.36-0.43,0.516-0.775,0.512c0.351,0.249,0.504,0.558,0.368,0.946
	c-0.183,0.518-0.724,0.728-1.482,0.463l-1.298-0.454L56.141,14.431z M57.445,14.897c0.369,0.129,0.669,0.063,0.774-0.235
	c0.101-0.289-0.069-0.53-0.475-0.67l-0.407-0.144l-0.313,0.901L57.445,14.897z M57.853,13.549c0.375,0.13,0.644,0.033,0.737-0.237
	c0.093-0.266-0.073-0.489-0.454-0.622l-0.351-0.122l-0.296,0.853L57.853,13.549z"/>
<polygon fill="#CBA979" points="59.181,15.512 59.528,15.657 60.41,13.544 60.063,13.398 60.259,12.931 62.534,13.882 62.17,14.753 
	61.669,14.543 61.84,14.136 60.938,13.758 60.595,14.574 61.518,14.959 61.332,15.405 60.41,15.019 60.048,15.881 60.957,16.26 
	61.129,15.853 61.627,16.062 61.265,16.933 58.983,15.98 "/>
<polygon fill="#CBA979" points="24.408,65.542 24.818,65.673 25.311,64.14 24.907,64.11 24.924,63.747 25.639,63.79 25.837,63.853 
	25.21,65.8 25.612,65.929 25.5,66.281 24.294,65.893 "/>
<path fill="#CBA979" d="M26.499,65.883c0.166,0.046,0.209,0.191,0.18,0.301c-0.007,0.029-0.022,0.055-0.032,0.075
	c0.045,0.03,0.109,0.06,0.19,0.082c0.334,0.09,0.702-0.169,0.829-0.619c-0.177,0.104-0.419,0.133-0.623,0.077
	c-0.477-0.132-0.742-0.545-0.627-0.96c0.117-0.433,0.581-0.668,1.078-0.531c0.268,0.073,0.453,0.23,0.563,0.423
	c0.144,0.252,0.147,0.555,0.04,0.946c-0.224,0.813-0.797,1.163-1.354,1.01c-0.204-0.057-0.374-0.159-0.472-0.284
	c-0.079-0.102-0.111-0.218-0.08-0.335C26.24,65.888,26.376,65.852,26.499,65.883 M27.777,65.219c0.033-0.119,0.006-0.24-0.062-0.342
	c-0.069-0.107-0.182-0.19-0.324-0.229c-0.257-0.071-0.506,0.064-0.568,0.29c-0.066,0.242,0.087,0.456,0.379,0.536
	C27.459,65.545,27.715,65.445,27.777,65.219"/>
<path fill="#FFFFFF" d="M29.726,66.046c0.227-1.336,1.43-2.125,2.726-1.906c1.032,0.177,1.629,0.833,1.54,1.365
	c-0.056,0.325-0.303,0.512-0.579,0.464c-0.304-0.051-0.481-0.276-0.432-0.565c0.015-0.088,0.049-0.173,0.085-0.222
	c-0.111-0.121-0.35-0.268-0.754-0.335c-0.864-0.146-1.638,0.401-1.794,1.325c-0.151,0.892,0.35,1.707,1.288,1.866
	c0.52,0.088,0.983-0.071,1.375-0.372l0.417,0.613c-0.513,0.406-1.204,0.587-1.912,0.467C30.315,68.513,29.492,67.431,29.726,66.046"
	/>
<path fill="#FFFFFF" d="M34.488,68.396l0.39,0.021l1.304-3.059l-0.492-0.029l0.04-0.685l2.543,0.149l-0.04,0.683l-0.492-0.028
	l0.939,3.19l0.39,0.022l-0.041,0.69l-1.73-0.101l0.04-0.683l0.52,0.031l-0.21-0.755l-1.683-0.098l-0.296,0.724l0.547,0.032
	l-0.041,0.684l-1.73-0.102L34.488,68.396z M37.474,67.189l-0.525-1.808l-0.732,1.734L37.474,67.189z"/>
<polygon fill="#FFFFFF" points="39.929,68.643 40.442,68.621 40.316,65.501 39.803,65.522 39.776,64.831 43.135,64.694 
	43.188,65.983 42.447,66.013 42.425,65.409 41.09,65.463 41.139,66.667 42.5,66.613 42.526,67.271 41.166,67.322 41.217,68.597 
	42.557,68.543 42.533,67.941 43.271,67.911 43.324,69.197 39.957,69.332 "/>
<polygon fill="#FFFFFF" points="45.294,65.862 45.641,68.255 46.197,68.174 46.298,68.858 44.488,69.123 44.388,68.438 
	44.895,68.364 44.446,65.274 43.937,65.346 43.838,64.663 44.997,64.492 47.6,66.974 47.293,64.857 46.737,64.938 46.637,64.253 
	48.427,63.993 48.525,64.68 48.039,64.75 48.59,68.532 48.18,68.606 "/>
<polygon fill="#CBA979" points="50.949,66.631 51.417,66.51 50.965,64.755 50.562,64.97 50.359,64.613 51.065,64.224 51.291,64.164 
	51.868,66.393 52.33,66.273 52.435,66.677 51.054,67.033 "/>
<path fill="#CBA979" d="M54.197,65.368c-0.049-0.158-0.167-0.263-0.377-0.274c-0.118-0.007-0.264,0.013-0.443,0.069l-0.166,0.053
	l-0.124-0.397l0.176-0.056c0.17-0.053,0.302-0.123,0.392-0.212c0.111-0.113,0.152-0.246,0.106-0.395
	c-0.069-0.218-0.331-0.243-0.566-0.169c-0.161,0.05-0.272,0.121-0.333,0.2c0.044,0.032,0.082,0.086,0.099,0.137
	c0.044,0.146-0.038,0.306-0.187,0.352c-0.147,0.047-0.319-0.039-0.379-0.23c-0.021-0.071-0.019-0.166,0.016-0.269
	c0.073-0.208,0.277-0.444,0.683-0.57c0.514-0.161,1,0.002,1.121,0.391c0.068,0.219,0.006,0.445-0.141,0.612
	c-0.054,0.064-0.125,0.121-0.199,0.16c0.086,0,0.175,0.006,0.261,0.027c0.228,0.051,0.445,0.18,0.53,0.455
	c0.142,0.455-0.223,0.869-0.76,1.037c-0.381,0.12-0.755,0.067-0.972-0.088c-0.084-0.06-0.146-0.141-0.175-0.229
	c-0.053-0.17,0.018-0.342,0.184-0.393c0.151-0.049,0.307,0.032,0.354,0.183c0.017,0.054,0.017,0.123,0,0.177
	c0.134,0.047,0.329,0.024,0.494-0.026C54.061,65.828,54.272,65.606,54.197,65.368"/>
</svg>
