<?xml version="1.0" encoding="utf-8"?>
<!-- Generator: Adobe Illustrator 16.0.0, SVG Export Plug-In . SVG Version: 6.00 Build 0)  -->
<!DOCTYPE svg PUBLIC "-//W3C//DTD SVG 1.1//EN" "http://www.w3.org/Graphics/SVG/1.1/DTD/svg11.dtd">
<svg version="1.1" id="Calque_1" xmlns="http://www.w3.org/2000/svg" xmlns:xlink="http://www.w3.org/1999/xlink" x="0px" y="0px"
	 width="80px" height="80px" viewBox="0 0 80 80" enable-background="new 0 0 80 80" xml:space="preserve">
<path fill="#CF0A2C" d="M73.764,40c0,10.121-4.655,19.868-12.516,26.241c-7.959,6.452-18.652,8.945-28.652,6.708
	c-9.736-2.177-18.176-8.76-22.702-17.646c-4.662-9.149-4.855-20.23-0.521-29.539c4.203-9.031,12.402-15.903,22.041-18.43
	c9.918-2.6,20.721-0.482,28.906,5.695C68.721,19.373,73.764,29.472,73.764,40C73.764,58.647,73.764,21.352,73.764,40z"/>
<path fill="#FFFFFF" d="M73.238,40c0,10.138-4.745,19.883-12.714,26.146c-8.072,6.345-18.878,8.602-28.824,6.047
	c-9.671-2.486-17.883-9.406-21.999-18.502c-4.243-9.37-3.844-20.48,1.06-29.52c4.773-8.795,13.474-15.121,23.33-16.89
	c10.039-1.8,20.552,1.178,28.136,8.002C69.191,21.553,73.238,30.628,73.238,40C73.238,58.358,73.238,21.642,73.238,40z"/>
<path fill="#CF0A2C" d="M40,67.178c8.583,0,16.802-4.184,21.891-11.091c5.694-7.729,6.871-18.162,3.01-26.965
	c-0.679,0.094-0.372,0.457-0.186,0.917c0.288,0.713,0.546,1.44,0.772,2.176c0.496,1.621,0.836,3.292,1.014,4.979
	c0.295,2.786,0.149,5.618-0.434,8.358c-1.036,4.867-3.465,9.396-6.924,12.969C52,65.902,40.95,68.562,31.24,65.174
	c-6.65-2.32-12.221-7.311-15.274-13.658c-1.542-3.199-2.424-6.707-2.59-10.256c-0.108-2.273,0.075-4.562,0.547-6.791
	c0.241-1.138,0.559-2.259,0.947-3.354c0.196-0.552,1.153-1.865,0.224-1.993c-3.859,8.804-2.682,19.237,3.013,26.965
	C23.196,62.994,31.415,67.178,40,67.178L40,67.178z M68.778,27.429c4.551,10.381,3.031,22.7-3.864,31.673
	c-6.177,8.038-16.045,12.685-26.177,12.281c-9.862-0.393-19.129-5.566-24.693-13.713c-2.769-4.055-4.564-8.748-5.194-13.619
	c-0.369-2.843-0.347-5.739,0.065-8.576c0.232-1.594,0.586-3.169,1.061-4.708c0.234-0.758,0.496-1.508,0.787-2.247
	c0.195-0.495,0.795-1.19-0.028-1.304c-4.55,10.38-3.143,22.684,3.603,31.772c6.052,8.155,15.817,13.039,25.978,12.942
	c10.041-0.1,19.613-5.069,25.518-13.182c6.599-9.066,7.936-21.252,3.426-31.533C69.114,27.282,68.9,27.33,68.778,27.429
	C70.466,31.281,68.778,27.429,68.778,27.429z M65.346,40c0,10.188-6.325,19.611-15.757,23.472
	c-9.547,3.905-20.807,1.483-27.924-5.971c-7.121-7.457-9.011-18.832-4.657-28.187c4.314-9.268,14.049-15.131,24.255-14.63
	C54.581,15.339,65.346,26.675,65.346,40C65.346,53.999,65.346,26.002,65.346,40z M16.08,27.78c-0.257-0.266-0.525-0.518-0.796-0.769
	c0.217-0.113,0.562,0.03,0.865-0.079c0.529-0.189,1.001-0.936,0.613-1.457c-0.7-0.943-2.066,0.567-2.86,0.667
	c-1.259,0.153-1.933-1.227-1.507-2.262c0.081-0.198,0.906-1.511,1.188-1.192c0.185,0.208,0.37,0.414,0.566,0.61
	c-0.473,0.108-1.925,0.502-1.247,1.422c0.547,0.741,1.5-0.145,2.033-0.467C17.32,22.817,18.413,26.851,16.08,27.78
	C16.08,27.78,16.269,27.706,16.08,27.78z M19.189,23.53c-0.879-0.851-1.813-1.64-2.765-2.405c-0.142-0.116-0.801-0.765-0.912-0.631
	c-0.303,0.364-0.568,0.743-0.831,1.134c-0.155-0.166-0.331-0.312-0.521-0.434c0.93-1.037,1.828-2.088,2.666-3.201
	c0.153,0.168,0.33,0.315,0.522,0.437c-0.161,0.145-1.051,0.868-1.013,1.08c0.029,0.161,0.49,0.446,0.637,0.569
	c0.996,0.843,1.99,1.696,3.06,2.444C19.714,22.826,19.435,23.162,19.189,23.53C18.905,23.254,19.189,23.53,19.189,23.53z
	 M20.683,21.644c0.062-0.075,0.487-0.36,0.505-0.436c0.039-0.158-0.22-0.56-0.291-0.736c-0.074-0.182-0.422-0.741-0.27-0.886
	c0.271-0.253,0.549-0.496,0.829-0.739c0.22-0.19,0.383-0.466,0.658-0.305c0.299,0.174,0.597,0.351,0.894,0.53
	c0.393,0.236,0.345,0.218,0.661-0.073c0.23-0.211,0.469-0.414,0.723-0.596c-1.162-0.55-2.314-1.122-3.455-1.717
	c-0.526-0.273-1.512-1.121-1.98-0.753c-0.503,0.395,0.324,1.675,0.529,2.239C19.889,19.275,20.188,20.689,20.683,21.644
	L20.683,21.644z M20.031,18.194c-0.104-0.296-0.202-0.595-0.289-0.896c0.58,0.272,1.145,0.576,1.696,0.901
	c-0.338,0.323-0.694,0.622-1.051,0.922C20.26,18.814,20.14,18.506,20.031,18.194C19.925,17.892,20.138,18.498,20.031,18.194z
	 M24.868,18.076c0.601-0.392,1.265-0.678,1.866-1.069c1.518-0.985,1.993-2.558,0.912-4.104c-1.637-2.342-3.758-0.208-5.553,0.594
	c1.006,1.377,2.006,3.075,2.659,4.656C24.791,18.126,24.83,18.102,24.868,18.076L24.868,18.076z M25.225,16.451
	c-0.392-0.679-0.779-1.362-1.165-2.045c-0.182-0.324-0.357-0.653-0.536-0.979c-0.155-0.286,0.505-0.516,0.739-0.618
	c1.618-0.71,3.247,1.203,2.894,2.799c-0.115,0.53-0.71,1.293-1.286,1.383C25.441,17.059,25.477,16.876,25.225,16.451L25.225,16.451z
	 M30.05,15.359c-0.373-1.69-0.994-3.509-1.745-5.068c0.959-0.296,1.905-0.615,2.841-0.978c0.032,0.221,0.107,0.438,0.218,0.631
	c-0.188,0.052-1.693,0.4-1.651,0.561c0.139,0.517,0.329,1.023,0.508,1.526c0.538-0.208,1.076-0.416,1.613-0.625
	c0.036,0.224,0.115,0.444,0.222,0.643c-0.558,0.158-1.112,0.318-1.664,0.491c0.207,0.597,0.397,1.203,0.642,1.783
	c0.071,0.166,1.446-0.504,1.641-0.587c0.042,0.224,0.121,0.439,0.221,0.643C31.937,14.679,30.974,14.961,30.05,15.359
	C29.991,15.088,30.05,15.359,30.05,15.359z M36.114,13.644c0.834-0.097,1.684-0.03,2.511-0.185c1.656-0.305,2.525-1.554,2.277-3.22
	c-0.42-2.813-3.278-1.85-5.24-1.931c0.287,1.681,0.431,3.645,0.313,5.35C36.022,13.653,36.068,13.648,36.114,13.644L36.114,13.644z
	 M37.156,12.348c-0.051-0.824-0.098-1.647-0.142-2.472c-0.021-0.373-0.029-0.746-0.044-1.12c-0.005-0.149,1.134-0.084,1.191-0.077
	c1.62,0.211,2.018,2.628,1.103,3.772c-0.34,0.423-1.212,0.843-1.767,0.669C37.083,12.989,37.194,12.838,37.156,12.348L37.156,12.348
	z M41.974,13.506c0.412-1.682,0.653-3.589,0.668-5.32c0.991,0.158,1.983,0.287,2.981,0.375c-0.071,0.211-0.101,0.441-0.085,0.665
	C45.347,9.189,43.841,8.837,43.811,9c-0.103,0.526-0.159,1.062-0.219,1.595c0.574,0.05,1.148,0.1,1.723,0.149
	c-0.067,0.216-0.096,0.446-0.086,0.673c-0.568-0.104-1.137-0.207-1.708-0.292c-0.079,0.626-0.175,1.254-0.213,1.885
	c-0.012,0.18,1.522,0.185,1.729,0.194c-0.06,0.219-0.086,0.447-0.086,0.673C43.962,13.725,42.975,13.549,41.974,13.506
	C42.039,13.237,41.974,13.506,41.974,13.506z M48.411,14.755c0.302,0.098,0.588,0.224,0.865,0.376
	c0.263-0.813,0.563-1.606,0.877-2.401c0.137,0.619,0.221,2.865,0.788,3.031c0.359,0.106,0.706,0.26,1.036,0.438
	c-0.223-1.037-0.445-2.075-0.67-3.11c1.317,0.19,2.537-1.302,1.287-2.293c-0.745-0.591-1.736-0.676-2.548-1.135
	c-0.512,1.707-1.174,3.403-1.976,4.995C48.18,14.686,48.301,14.75,48.411,14.755L48.411,14.755z M50.664,11.418
	c0.134-0.34,0.215-0.802,0.534-0.82c1.441,0.569,0.416,2.532-0.962,1.906C50.379,12.142,50.522,11.78,50.664,11.418L50.664,11.418z
	 M52.435,16.519c1.053-1.366,2.06-3.02,2.757-4.597c0.843,0.544,1.698,1.06,2.577,1.544c-0.148,0.167-0.267,0.365-0.345,0.574
	c-0.161-0.111-1.395-1.042-1.488-0.906c-0.306,0.442-0.572,0.911-0.842,1.374c0.503,0.278,1.007,0.555,1.515,0.832
	c-0.149,0.171-0.266,0.372-0.348,0.583c-0.481-0.326-0.96-0.647-1.447-0.958c-0.326,0.542-0.669,1.078-0.955,1.641
	c-0.08,0.161,1.314,0.783,1.505,0.876c-0.146,0.175-0.26,0.374-0.35,0.581C54.169,17.522,53.334,16.97,52.435,16.519
	C52.604,16.298,52.435,16.519,52.435,16.519z M55.79,18.668c1.205-1.303,2.33-2.737,3.301-4.224c0.316,0.33,0.672,0.61,1.071,0.837
	c-1.212,1.292-2.334,2.74-3.304,4.222C56.535,19.181,56.177,18.904,55.79,18.668C56.024,18.414,55.79,18.668,55.79,18.668z
	 M57.633,19.916c1.519-0.976,3.009-1.994,4.506-3.003c0.258,0.426,0.524,0.354,0.291,0.889c-0.489,1.125-0.937,2.266-1.36,3.417
	c1.184-0.288,2.36-0.615,3.525-0.978c0.567-0.176,0.48,0.093,0.882,0.41c-1.189,1.348-2.433,2.667-3.535,4.09
	c-0.259-0.36-0.543-0.689-0.876-0.98c0.85-0.857,1.662-1.746,2.477-2.636c-0.621,0.156-3.648,1.312-3.973,0.935
	c-0.32-0.376,1.094-3.119,1.313-3.725c-0.945,0.665-1.955,1.295-2.821,2.061C57.964,20.201,57.814,20.034,57.633,19.916
	L57.633,19.916z M62.365,25.129c0.357-0.095,0.706-0.206,1.058-0.32c-0.01,0.244-0.302,0.476-0.354,0.793
	c-0.094,0.55,0.332,1.33,0.973,1.248c1.165-0.148,0.516-2.084,0.815-2.823c0.499-1.211,2.073-1.069,2.755-0.151
	c0.131,0.176,0.807,1.472,0.415,1.558c-0.272,0.06-0.543,0.119-0.809,0.196c0.084-0.29,0.302-0.652,0.212-1.037
	c-0.114-0.5-0.602-0.949-1.115-0.65c-0.648,0.376-0.302,1.555-0.311,2.171C65.955,28.672,62.05,27.454,62.365,25.129
	C62.365,25.129,62.338,25.331,62.365,25.129z M31.426,69.071c0.886,0.201,2.352,0.464,2.134-1.006
	c-0.109-0.772-1.078-0.783-1.667-0.975C31.795,67.688,31.379,68.569,31.426,69.071L31.426,69.071z M31.952,68.728
	c0.108-0.422,0.166-1.275,0.559-1.296c0.721,0.191,0.799,1.176,0.188,1.581C32.324,69.262,31.807,69.158,31.952,68.728
	L31.952,68.728z M33.711,69.643c0.188-0.639,0.326-1.335,0.385-2.003c0.371,0.085,0.744,0.162,1.12,0.218
	c-0.002,0.065-0.026,0.185-0.047,0.247c-0.652-0.178-0.665-0.162-0.776,0.47c0.217,0.035,0.436,0.07,0.654,0.104
	c0,0.05-0.032,0.204-0.049,0.251c-0.213-0.059-0.428-0.108-0.646-0.156c-0.14,0.707-0.202,0.757,0.528,0.827
	c-0.002,0.063-0.03,0.2-0.051,0.26C34.46,69.774,34.09,69.687,33.711,69.643L33.711,69.643z M35.403,69.938
	c0.102,0.041,0.251,0.032,0.361,0.062c0.01-0.295,0.042-0.588,0.087-0.881c0.68,0.172,1.513-0.709,0.691-1.038
	c-0.309-0.122-0.668-0.099-0.992-0.167C35.526,68.274,35.212,69.895,35.403,69.938L35.403,69.938z M35.94,68.469
	c-0.028-0.927,0.982,0.623-0.066,0.488C35.895,68.81,35.883,68.605,35.94,68.469L35.94,68.469z M37.178,68.13
	c0.164-0.009,0.333,0.035,0.499,0.032c-0.063,0.407-0.367,1.549,0.056,1.838c1.013,0.683,0.952-1.277,0.949-1.77
	c0.06-0.008,0.236,0.008,0.296,0.021c-0.103,0.769,0.086,2.088-1.044,2.01C36.785,70.176,37.192,68.934,37.178,68.13L37.178,68.13z
	 M39.375,70.287c0.061-0.676,0.069-1.362,0.025-2.037c0.138-0.016,0.376-0.014,0.513,0.004c-0.057,0.674-0.071,1.363-0.023,2.04
	C39.718,70.271,39.544,70.308,39.375,70.287L39.375,70.287z M40.298,70.195c0.009-0.132,0.064-0.278,0.087-0.411
	c0.15,0.35,0.976,0.494,0.773-0.048c-0.13-0.353-0.724-0.328-0.86-0.724c-0.336-0.962,1.423-1.03,1.042-0.357
	c-0.156-0.267-0.88-0.408-0.691,0.08c0.107,0.279,0.539,0.299,0.744,0.49C41.951,69.957,40.967,70.554,40.298,70.195L40.298,70.195z
	 M43.291,70.116c-0.032-0.546-0.067-1.102-0.177-1.638c-0.162,0.178-0.317,0.223-0.469,0.047c0.213-0.1,0.412-0.216,0.607-0.344
	c0.353-0.23,0.17-0.044,0.276,0.211c0.193,0.458,0.116,1.174,0.207,1.675C43.586,70.064,43.437,70.116,43.291,70.116L43.291,70.116z
	 M45.237,69.527c-0.113,0.261-0.362,0.349-0.608,0.262c0.103,0.242,0.286,0.201,0.549,0.076c0.594-0.288,0.666-1.183,0.338-1.691
	c-0.366-0.575-1.395-0.221-1.273,0.474c0.092,0.558,0.742,0.635,1.046,0.221C45.332,69.097,45.316,69.313,45.237,69.527
	C45.165,69.697,45.313,69.356,45.237,69.527z M45.208,68.792c-0.195,0.516-0.635-0.319-0.523-0.623
	C44.869,67.663,45.328,68.478,45.208,68.792C45.178,68.87,45.237,68.713,45.208,68.792z M46.269,69.138
	c0.207,0.647,0.859,0.192,0.578-0.349c-0.119-0.229-0.448-0.053-0.488-0.204c-0.049-0.196,0.371-0.129,0.279-0.549
	c-0.111-0.482-0.567-0.305-0.481,0.131c-0.093-0.022-0.243-0.098-0.314-0.161c0.406-1.024,1.815-0.059,0.924,0.458
	c1.081-0.1,0.422,1.605-0.633,1.063C46.176,69.414,46.202,69.241,46.269,69.138C46.31,69.27,46.269,69.138,46.269,69.138z
	 M48.376,69.119c-0.123-0.534-0.257-1.074-0.454-1.585c-0.129,0.199-0.274,0.271-0.45,0.126c0.19-0.135,0.368-0.282,0.538-0.443
	c0.309-0.289,0.162-0.071,0.309,0.161c0.266,0.419,0.317,1.138,0.49,1.615C48.655,69.013,48.521,69.092,48.376,69.119L48.376,69.119
	z"/>
<path fill="#FFFFFF" d="M33.262,55.304c0,3.667,3.07,6.738,6.738,6.738c3.666,0,6.737-3.071,6.737-6.738
	c0-3.665-3.071-6.736-6.737-6.736C36.332,48.567,33.262,51.637,33.262,55.304C33.262,59.02,33.262,51.59,33.262,55.304z"/>
<path fill="#CF0A2C" d="M46.354,54.016c-0.25-1.226-0.857-2.362-1.732-3.252c-0.32-0.327-0.793-0.87-1.27-0.873
	c-0.596-0.006-1.189,0.929-1.496,1.377c-0.315,0.463,0.118,0.962,0.287,1.472c0.115,0.352,0.212,0.709,0.288,1.072
	c0.113,0.539,0.282,0.425,0.764,0.62c0.673,0.27,1.333,0.622,1.887,1.095C45.64,55.167,46.054,54.595,46.354,54.016
	C46.009,52.306,45.98,54.737,46.354,54.016z M37.854,60.161c0.458-0.108,2.036-0.537,2.036-1.108c0-0.554,0-1.105,0-1.66
	c0-0.457,0-0.912,0-1.367c0-0.146-0.773-0.557-0.889-0.635c-0.454-0.314-0.907-0.632-1.36-0.946
	c-0.427-0.296-2.056,0.839-2.416,1.116c-0.805,0.624-0.448,2.387,0.165,3.017C36.084,59.286,36.914,59.836,37.854,60.161
	C38.624,59.978,36.606,59.729,37.854,60.161z M34.918,55.525c0.459-0.394,0.994-0.698,1.541-0.946
	c0.337-0.153,0.684-0.286,1.039-0.392c0.062-0.374,0.147-0.743,0.253-1.104c0.151-0.519,0.34-1.032,0.588-1.514
	c-0.38-0.626-0.864-1.214-1.444-1.666c-1.04-0.134-2.079,1.404-2.529,2.195c-0.34,0.597-0.584,1.242-0.72,1.915
	C33.945,54.596,34.359,55.169,34.918,55.525C35.588,54.951,34.484,55.25,34.918,55.525z M45.072,58.401
	c-0.521,0.594-1.122,1.117-1.815,1.504c-0.315,0.176-0.646,0.323-0.987,0.444c-0.178,0.448-0.406,0.89-0.729,1.25
	c1.713-0.418,3.206-1.549,4.086-3.076C45.437,58.499,45.252,58.456,45.072,58.401C44.318,59.259,45.229,58.452,45.072,58.401z
	 M37.728,60.349c-0.664-0.234-1.283-0.574-1.832-1.012c-0.262-0.211-0.509-0.44-0.741-0.685c-0.332-0.349-0.339-0.188-0.781-0.129
	c0.878,1.527,2.373,2.658,4.085,3.076C38.137,61.237,37.908,60.798,37.728,60.349C36.539,59.928,37.921,60.831,37.728,60.349z
	 M37.116,49.801c0.471,0.381,0.872,0.846,1.211,1.344c0.33,0.486,1.099,0.233,1.672,0.233c0.57,0,1.341,0.253,1.671-0.233
	c0.339-0.498,0.737-0.963,1.209-1.344C42.83,48.428,37.178,48.42,37.116,49.801C37.669,50.249,37.122,49.679,37.116,49.801z
	 M42.429,54.396c-0.769,0.534-1.534,1.066-2.304,1.599c-0.271,0.191-0.016,2.418-0.016,2.797c0,0.71,0.652,0.881,1.283,1.132
	c1.039,0.413,1.947-0.22,2.75-0.91c0.961-0.825,1.158-1.595,0.959-2.856C44.949,55.193,43.264,54.647,42.429,54.396
	C42.429,54.396,43.352,54.672,42.429,54.396z"/>
<path fill="#FFFFFF" d="M24.489,35.177c0.214-0.628,0.401-1.264,0.562-1.906c0.253-1.02,0.491,0.063,0.758,0.452
	c0.706,1.04,2.116,1.371,3.297,1.115c1.046-0.228,1.97-1.341,1.278-2.392c-0.571-0.865-1.951-1.229-2.825-1.654
	c-1.951-0.951-4.195-2.824-2.428-5.166c1.598-2.119,5.272-2.06,7.383-0.862c-0.218,0.513-0.414,1.035-0.583,1.566
	c-0.241,0.757-0.542-0.214-0.825-0.5c-0.815-0.822-2.349-1.126-3.39-0.57c-1.022,0.546-0.969,1.824-0.058,2.431
	c1.132,0.753,2.486,1.11,3.689,1.727c2.188,1.118,2.39,4.026,0.423,5.509C29.936,36.308,26.422,36.438,24.489,35.177
	C24.607,34.831,24.902,35.446,24.489,35.177z M48.011,35.912c0.651-0.022,1.28,0.002,1.93,0.066
	c-0.115-1.899-0.109-3.799-0.109-5.701c1.017,1.646,2.003,3.313,2.917,5.018c0.377,0.704,0.335,0.687,1.069,0.623
	c0.729-0.063,1.472-0.022,2.195,0.063c-1.229-1.97-2.455-3.94-3.682-5.909c1.385-0.351,2.516-1.239,2.64-2.739
	c0.107-1.285-0.392-2.474-1.628-2.979c-1.919-0.787-4.056-0.104-6.052-0.367c0.313,3.964,0.323,8.027,0,11.992
	C47.529,35.957,47.77,35.935,48.011,35.912L48.011,35.912z M49.751,26.862c0.004-0.617,0.008-1.233,0.03-1.85
	c0.021-0.531-0.002-0.409,0.409-0.5c0.573,0,1.2,0.078,1.679,0.422c0.943,0.676,0.915,2.25,0.604,3.241
	c-0.382,1.218-1.556,1.569-2.726,1.553C49.75,28.774,49.744,27.815,49.751,26.862L49.751,26.862z M40,45.35
	c-0.351-1.699-1.115-3.306-2.265-4.611c0.822-0.662,1.583-1.399,2.265-2.205c0.68,0.806,1.44,1.543,2.263,2.205
	C41.113,42.042,40.349,43.65,40,45.35C39.617,43.492,40.38,43.492,40,45.35z M37.313,31.054c0-1.43,0.341-3.162,1.452-4.168
	c1.03-0.934,2.278-0.449,2.983,0.605c2.089,3.132,0.489,7.237-1.748,9.777C38.497,35.562,37.313,33.38,37.313,31.054
	C37.313,28.462,37.313,33.181,37.313,31.054z M59.229,34.387c-0.088-0.133-0.205-0.227-0.352-0.286
	c-0.096,0.303,0.583,0.971,0.724,1.313c0.333,0.804,0.337,1.7,0.052,2.519c-0.604,1.73-2.274,3.001-3.899,3.715
	c-3.806,1.672-8.349,0.818-11.846-1.203c2.348-1.803,5.877-2.624,8.655-1.32c1.558,0.729,0.291-0.37-0.407-0.728
	c-1.41-0.724-2.99-0.958-4.548-0.69c-1.432,0.247-2.791,0.862-3.946,1.736c-0.436,0.328-0.429,0.602-0.935,0.25
	c-0.338-0.237-0.668-0.486-0.987-0.749c-0.313-0.258-0.619-0.527-0.912-0.81c-0.468-0.451,0.082-0.767,0.389-1.246
	c1.635-2.552,2.509-5.717,1.647-8.701c-0.553-1.919-2.525-4.304-4.479-2.313c-1.954,1.992-1.863,5.494-1.064,7.956
	c0.472,1.452,1.219,2.807,2.137,4.023c-0.571,0.58-1.19,1.113-1.847,1.596c-0.43,0.317-0.524,0.596-0.972,0.228
	c-0.387-0.318-0.799-0.605-1.232-0.858c-2.516-1.473-5.878-1.77-8.321,0.041c-0.497,0.371-0.66,0.776,0.055,0.41
	c0.988-0.509,2.063-0.702,3.167-0.732c2.104-0.059,4.116,0.625,5.783,1.908c-3.496,2.018-8.038,2.875-11.844,1.203
	c-1.542-0.679-3.091-1.84-3.784-3.417c-0.347-0.791-0.433-1.685-0.175-2.514c0.127-0.409,0.931-1.3,0.834-1.615
	c-0.4-0.035-0.908,1.111-1.025,1.385c-0.291,0.673-0.443,1.412-0.443,2.146c0,1.117,0.36,2.201,0.994,3.117
	c1.396,2.021,3.858,3.112,6.236,3.4c2.957,0.36,6.019-0.43,8.594-1.879c0.222-0.125,1.518-1.05,1.62-0.944
	c0.432,0.433,0.833,0.897,1.193,1.392c0.889,1.222,1.499,2.624,1.712,4.122c0.178-1.244,0.625-2.435,1.291-3.5
	c0.416-0.667,0.91-1.282,1.45-1.851c0.075-0.035,0.14-0.212,0.219-0.22c0.302,0.216,0.607,0.424,0.923,0.62
	c2.534,1.584,5.562,2.504,8.565,2.321c2.432-0.147,4.976-1.104,6.565-3.017C60.574,39.318,60.91,36.321,59.229,34.387
	C59.124,34.268,59.878,35.133,59.229,34.387z"/>
</svg>
