<?xml version="1.0" encoding="utf-8"?>
<!-- Generator: Adobe Illustrator 16.0.0, SVG Export Plug-In . SVG Version: 6.00 Build 0)  -->
<!DOCTYPE svg PUBLIC "-//W3C//DTD SVG 1.1//EN" "http://www.w3.org/Graphics/SVG/1.1/DTD/svg11.dtd">
<svg version="1.1" id="Calque_1" xmlns="http://www.w3.org/2000/svg" xmlns:xlink="http://www.w3.org/1999/xlink" x="0px" y="0px"
	 width="80px" height="80px" viewBox="0 0 80 80" enable-background="new 0 0 80 80" xml:space="preserve">
<path fill="#2E2A25" d="M40.054,12.537v60.615c0,0-8.16-6.296-17.95-8.859c0,0-7.772-4.896-8.471-10.49
	c0.43,2.026-2.033-9.281,4.275-30.31c0,0,0.466-6.294-1.399-7.459l4.663-6.294C21.17,9.739,36.232,12.544,40.054,12.537z"/>
<path fill="#E31B23" d="M40.024,12.537v60.615c0,0,8.159-6.296,17.95-8.859c0,0,7.928-5.362,8.625-10.959
	c0,0,1.864-8.856-4.431-29.841c0,0-0.466-6.294,1.398-7.459l-4.658-6.294C58.909,9.739,43.449,12.537,40.024,12.537z"/>
<path fill="#FFFFFF" d="M33.886,17.094H46.33l7.435,7.491v12.73l-7.435,7.489H33.886l-7.43-7.489v-12.73L33.886,17.094z"/>
<path fill="#E31B23" d="M37.257,26.485c0-1.497,1.154-2.724,2.623-2.842v-6.549h-5.994l-7.43,7.491v12.731l7.43,7.488h5.994V29.327
	C38.411,29.209,37.257,27.982,37.257,26.485z"/>
<path fill="#FFFFFF" d="M34.924,43.824l-1.786-0.401l-2.247-4.266c0,0,2.62-1.87-0.115-3.858c-2.535-1.844-2.478-2.766-2.19-5.301
	l0.519-2.823c0,0,0.346-1.556-0.863-1.556l0.057-1.152c0,0,2.419-0.346,2.074,2.995c0,0-1.152,4.955-0.115,5.589
	c0,0,0.23-3.745,3.11-6.165c0,0,2.074-3.053-0.575-3.687c0,0-1.384-0.576-2.421-0.346l-0.173-0.921c0,0,2.823-0.92,2.997-2.533
	c0,0,0.576,0.114,0.576,0.403c0,0,0.174-0.808,0.808-0.058c0,0,0.979,0.691,1.901,3.284c0,0,2.073-1.095,2.88-0.806l0.05,0.867
	c-1.58,0.325-2.768,1.721-2.768,3.396c0,1.759,1.311,3.213,3.008,3.437l-0.29,0.884c0,0-1.382,0.057-2.765-1.21
	c0,0-0.518,0.807-1.326,1.151c0,0-1.152,0.75-1.266,1.384c0,0,2.995,2.246,0.576,5.357c0,0-2.189,1.958-1.613,3.168
	C32.965,40.656,33.714,42.846,34.924,43.824L34.924,43.824z M34.693,32.361c0,0,1.958,2.362,0.575,4.608
	c0,0,1.383,1.209-0.691,2.304l2.131,3.342l1.785,0.287c0,0-1.441-1.728-1.844-2.479c-0.403-0.749-0.807-1.325,0.749-2.707
	c0,0,2.017-2.305,0.519-4.264C36.422,31.497,34.579,32.015,34.693,32.361z"/>
<path fill="#2E2A25" d="M42.96,26.485c0-1.497-1.153-2.724-2.621-2.842v-6.549h5.991l7.435,7.491v12.731l-7.435,7.488h-5.991V29.327
	C41.805,29.209,42.96,27.982,42.96,26.485z"/>
<path fill="none" stroke="#FFFFFF" stroke-width="0.3444" d="M42.96,26.485c0-1.497-1.153-2.724-2.621-2.842v-6.549h5.991
	l7.435,7.491v12.731l-7.435,7.488h-5.991V29.327C41.805,29.209,42.96,27.982,42.96,26.485z"/>
<path fill="#FFFFFF" d="M45.293,43.824l1.786-0.401l2.247-4.266c0,0-2.62-1.87,0.115-3.858c2.535-1.844,2.477-2.766,2.189-5.301
	l-0.52-2.823c0,0-0.346-1.556,0.865-1.556l-0.059-1.152c0,0-2.42-0.346-2.072,2.995c0,0,1.149,4.955,0.114,5.589
	c0,0-0.229-3.745-3.111-6.165c0,0-2.075-3.053,0.577-3.687c0,0,1.384-0.576,2.42-0.346l0.172-0.921c0,0-2.823-0.92-2.997-2.533
	c0,0-0.575,0.114-0.575,0.403c0,0-0.174-0.808-0.809-0.058c0,0-0.979,0.691-1.9,3.284c0,0-2.072-1.095-2.879-0.806l-0.053,0.867
	c1.579,0.325,2.768,1.721,2.768,3.396c0,1.759-1.307,3.213-3.008,3.437l0.293,0.884c0,0,1.383,0.057,2.764-1.21
	c0,0,0.521,0.807,1.327,1.151c0,0,1.149,0.75,1.267,1.384c0,0-2.997,2.246-0.578,5.357c0,0,2.19,1.958,1.615,3.168
	C47.252,40.656,46.502,42.846,45.293,43.824L45.293,43.824z M45.524,32.361c0,0-1.961,2.362-0.576,4.608
	c0,0-1.385,1.209,0.688,2.304l-2.132,3.342l-1.788,0.287c0,0,1.439-1.728,1.845-2.479c0.406-0.749,0.808-1.325-0.748-2.707
	c0,0-2.016-2.305-0.519-4.264C43.796,31.497,45.641,32.015,45.524,32.361L45.524,32.361z"/>
<path fill="#FEBE10" d="M35.664,61.042c0.298-0.103,0.561-0.314,0.714-0.58h0.011v1.879c0,0.191-0.013,0.344,0.166,0.46v0.011h-0.7
	v-0.011c0.207-0.101,0.196-0.259,0.196-0.46v-1.287h-0.387L35.664,61.042L35.664,61.042z M38.363,62.673
	c0.534-0.111,1.021-0.596,1.021-1.156c0-0.342-0.189-0.716-0.573-0.716c-0.287,0-0.488,0.226-0.488,0.505
	c0,0.305,0.2,0.542,0.507,0.542c0.124,0,0.249-0.042,0.354-0.104l-0.227,0.274l-0.27,0.05c-0.39,0-0.7-0.289-0.7-0.691
	c0-0.489,0.397-0.812,0.868-0.812c0.522,0,0.866,0.407,0.866,0.913c0,0.384-0.204,0.755-0.499,0.99
	c-0.304,0.242-0.644,0.359-1.024,0.412L38.363,62.673z M40.99,61.687c0,0.339,0.111,0.918,0.538,0.918
	c0.331,0,0.519-0.406,0.519-0.878c0-0.478-0.201-0.897-0.538-0.903C41.091,60.825,40.99,61.364,40.99,61.687z M40.633,61.722
	c0-0.617,0.305-1.157,0.891-1.157c0.617,0,0.883,0.599,0.883,1.141c0,0.54-0.27,1.159-0.896,1.159
	C40.987,62.858,40.633,62.339,40.633,61.722z M43.67,61.042c0.3-0.103,0.564-0.314,0.716-0.58h0.012v1.879
	c0,0.191-0.014,0.344,0.166,0.46v0.011h-0.701v-0.011c0.208-0.101,0.196-0.259,0.196-0.46v-1.287H43.67V61.042z"/>
<path fill="#FFFFFF" d="M25.293,57.169c0,0.17-0.031,0.445,0.16,0.519v0.012h-0.716v-0.012c0.192-0.069,0.169-0.349,0.169-0.519
	v-1.43c0-0.173,0.023-0.45-0.169-0.522v-0.014h1.212l0.178-0.018h0.011v0.441h-0.011c-0.118-0.134-0.272-0.149-0.447-0.149
	l-0.387,0.023v0.703h0.456l0.163-0.021h0.012v0.399h-0.012c-0.061-0.112-0.219-0.105-0.337-0.105h-0.282V57.169z M26.85,56.35
	c0,0.531,0.375,1.076,0.969,1.076c0.576,0,0.943-0.42,0.943-0.985c0-0.554-0.353-1.087-0.951-1.087
	C27.224,55.354,26.85,55.778,26.85,56.35z M29.194,56.366c0,0.772-0.64,1.333-1.394,1.333c-0.749,0-1.383-0.538-1.383-1.314
	c0-0.72,0.625-1.323,1.42-1.303C28.635,55.078,29.194,55.684,29.194,56.366z M29.94,56.35c0,0.531,0.375,1.076,0.97,1.076
	c0.576,0,0.944-0.42,0.944-0.985c0-0.554-0.352-1.087-0.952-1.087C30.314,55.354,29.94,55.778,29.94,56.35z M32.286,56.366
	c0,0.772-0.639,1.333-1.394,1.333c-0.751,0-1.384-0.538-1.384-1.314c0-0.72,0.625-1.323,1.421-1.303
	C31.724,55.078,32.286,55.684,32.286,56.366z M33.553,57.206c0,0.217-0.005,0.365,0.196,0.481v0.012h-0.75v-0.012
	c0.189-0.071,0.167-0.349,0.167-0.519v-1.689h-0.334c-0.162,0-0.333,0.042-0.45,0.152h-0.013l0.133-0.451h0.011l0.145,0.023h1.507
	l0.175-0.023h0.011l-0.12,0.451h-0.013c-0.048-0.133-0.2-0.152-0.325-0.152h-0.34L33.553,57.206L33.553,57.206L33.553,57.206z
	 M35.448,56.21c0.247,0,0.599-0.083,0.599-0.396c0-0.26-0.242-0.398-0.469-0.375l-0.254,0.025v0.739h0.125V56.21z M35.654,57.426
	c0.309,0.029,0.624-0.115,0.624-0.474c0-0.367-0.355-0.529-0.688-0.508l-0.266,0.015v0.937L35.654,57.426z M34.936,55.737
	c0-0.171,0.026-0.448-0.166-0.521v-0.014h0.898c0.5,0,0.792,0.213,0.792,0.55c0,0.257-0.163,0.399-0.379,0.494
	c0.342,0.069,0.619,0.301,0.619,0.671c0,0.294-0.201,0.543-0.456,0.663c-0.264,0.131-0.564,0.118-0.848,0.118h-0.625v-0.012
	c0.189-0.071,0.166-0.349,0.166-0.523L34.936,55.737L34.936,55.737z M38.383,55.528l-0.375,0.955h0.747L38.383,55.528L38.383,55.528
	z M37.909,56.765l-0.198,0.534c-0.079,0.212-0.105,0.322,0.077,0.391v0.015H37.09v-0.017c0.22-0.109,0.284-0.319,0.368-0.537
	l0.634-1.581c0.053-0.136,0.125-0.297-0.056-0.353v-0.014h0.598l0.787,1.947c0.087,0.215,0.155,0.428,0.373,0.537v0.012h-0.776
	v-0.012c0.186-0.081,0.156-0.125,0.053-0.391l-0.205-0.532H37.909L37.909,56.765L37.909,56.765z M41.17,57.426
	c0.257,0.016,0.48-0.071,0.672-0.232h0.012l-0.198,0.506h-1.557v-0.012c0.191-0.069,0.17-0.349,0.17-0.519v-1.43
	c0-0.173,0.021-0.45-0.17-0.522v-0.014h0.724v0.014c-0.193,0.07-0.165,0.353-0.165,0.522v1.653L41.17,57.426z M43.158,57.426
	c0.259,0.016,0.481-0.071,0.672-0.232h0.013l-0.201,0.506h-1.556v-0.012c0.193-0.069,0.17-0.349,0.17-0.519v-1.43
	c0-0.173,0.023-0.45-0.17-0.522v-0.014h0.726v0.014c-0.193,0.07-0.165,0.353-0.165,0.522v1.653L43.158,57.426z M48.295,55.614
	c-0.208-0.132-0.449-0.214-0.698-0.214c-0.522,0-0.888,0.382-0.888,0.933c0,0.555,0.378,1.054,0.963,1.054
	c0.283,0,0.568-0.104,0.806-0.24h0.014l-0.196,0.44c-0.177,0.083-0.373,0.117-0.57,0.117c-0.895,0-1.447-0.501-1.447-1.313
	c0-0.784,0.553-1.303,1.33-1.303c0.231,0,0.466,0.041,0.688,0.095V55.614z M22.885,52.057c0,0.371-0.006,0.626,0.338,0.827v0.019
	h-1.29v-0.019c0.326-0.124,0.286-0.599,0.286-0.894v-2.906h-0.573c-0.28,0-0.573,0.071-0.775,0.259h-0.019l0.227-0.773h0.021
	l0.248,0.043h2.594c0.11,0,0.214-0.005,0.3-0.043h0.019l-0.208,0.773h-0.021c-0.084-0.226-0.345-0.259-0.56-0.259h-0.586V52.057z
	 M25.836,49.168l-0.646,1.643h1.284L25.836,49.168z M25.02,51.293l-0.338,0.92c-0.138,0.362-0.184,0.554,0.13,0.671v0.019h-1.2
	v-0.019c0.378-0.188,0.489-0.554,0.633-0.925l1.088-2.719c0.091-0.233,0.215-0.508-0.098-0.605v-0.021h1.031l1.353,3.345
	c0.15,0.371,0.268,0.736,0.64,0.925v0.019h-1.336v-0.019c0.32-0.143,0.268-0.216,0.092-0.671l-0.352-0.92H25.02z M29.318,52.389
	c0.156,0.033,0.314,0.044,0.476,0.044c0.971,0,1.837-0.505,1.837-1.633c0-1.141-0.639-1.714-1.728-1.714
	c-0.196,0-0.39,0.025-0.586,0.071L29.318,52.389L29.318,52.389L29.318,52.389z M28.655,49.507c0-0.299,0.046-0.775-0.287-0.872
	v-0.021h1.597c1.485,0,2.411,0.811,2.411,2.106c0,1.284-0.983,2.18-2.443,2.18h-1.564v-0.019c0.327-0.221,0.287-0.534,0.287-0.918
	V49.507z M33.587,52.355l0.829,0.077c0.429,0.041,0.878-0.097,1.205-0.383h0.021l-0.294,0.853h-2.718v-0.019
	c0.332-0.117,0.292-0.599,0.292-0.894v-2.457c0-0.301,0.039-0.774-0.292-0.9v-0.021h2.084c0.11,0,0.222,0.015,0.307-0.031h0.019
	v0.762h-0.019c-0.203-0.231-0.469-0.259-0.77-0.259c-0.229,0-0.457,0.007-0.666,0.047v1.211h0.775c0.105,0,0.209,0,0.287-0.04h0.02
	v0.69h-0.02c-0.104-0.188-0.377-0.182-0.581-0.182h-0.481v1.545H33.587L33.587,52.355z M38.952,48.614
	c0.875,0,1.349,0.458,1.349,1.051c0,0.575-0.5,1.022-1.034,1.147l0.938,1.179c0.272,0.341,0.683,0.679,1.054,0.913H40.66
	c-0.347,0-0.561-0.081-0.757-0.322l-0.795-0.984l-0.599-0.919c0.521-0.078,1.129-0.318,1.129-0.932c0-0.47-0.406-0.742-0.843-0.725
	l-0.443,0.054v2.919c0,0.3-0.04,0.776,0.292,0.894v0.02H37.4v-0.02c0.332-0.117,0.287-0.599,0.287-0.894v-2.458
	c0-0.3,0.046-0.774-0.287-0.9v-0.02h1.552V48.614z M41.899,52.355l0.825,0.077c0.432,0.041,0.879-0.097,1.205-0.383h0.021
	l-0.293,0.853h-2.718v-0.019c0.334-0.117,0.295-0.599,0.295-0.894v-2.457c0-0.301,0.039-0.774-0.295-0.9v-0.021h2.086
	c0.113,0,0.222,0.015,0.306-0.031h0.019v0.762h-0.019c-0.203-0.231-0.47-0.259-0.771-0.259c-0.225,0-0.455,0.007-0.663,0.047v1.211
	h0.773c0.104,0,0.211,0,0.287-0.04h0.021v0.69H42.96c-0.104-0.188-0.378-0.182-0.579-0.182h-0.483v1.545H41.899L41.899,52.355z
	 M44.779,52.057c0,0.365-0.007,0.626,0.34,0.827v0.019h-1.154v-0.019c0.349-0.203,0.349-0.462,0.349-0.827v-2.601
	c0-0.365,0-0.626-0.342-0.821v-0.021h0.953v0.008l0.098,0.165l0.093,0.127l2.385,3.014v-2.472c0-0.363,0.006-0.624-0.341-0.82
	v-0.019h1.15v0.019c-0.34,0.196-0.34,0.456-0.34,0.82v3.656c-0.464-0.156-0.668-0.371-0.956-0.742l-2.231-2.835L44.779,52.057
	L44.779,52.057z M49.24,52.057c0,0.365-0.008,0.626,0.339,0.827v0.019h-1.153v-0.019c0.348-0.203,0.348-0.462,0.348-0.827v-2.601
	c0-0.365,0-0.626-0.34-0.821v-0.021h0.951v0.008l0.1,0.165l0.09,0.127l2.385,3.014v-2.472c0-0.363,0.007-0.624-0.337-0.82v-0.019
	h1.146v0.019c-0.339,0.196-0.339,0.456-0.339,0.82v3.656c-0.463-0.156-0.664-0.371-0.954-0.742l-2.232-2.835L49.24,52.057
	L49.24,52.057z M20.563,49.393c-0.254-0.261-0.659-0.412-1.023-0.412c-0.372,0-0.841,0.144-0.841,0.593
	c0,0.894,2.242,0.88,2.242,2.085c0,0.697-0.729,1.351-1.747,1.351c-0.398,0-0.795-0.059-1.167-0.195l-0.189-0.815
	c0.385,0.332,0.919,0.539,1.427,0.539c0.372,0,0.932-0.221,0.932-0.678c0-1.018-2.241-0.835-2.241-2.219
	c0-0.818,0.841-1.135,1.636-1.135c0.326,0,0.658,0.048,0.971,0.146V49.393z M55.138,49.168l-0.644,1.643h1.284L55.138,49.168z
	 M54.324,51.293l-0.339,0.92c-0.137,0.362-0.182,0.554,0.13,0.671v0.019h-1.198v-0.019c0.379-0.188,0.49-0.554,0.634-0.925
	l1.09-2.719c0.09-0.233,0.213-0.508-0.099-0.605v-0.021h1.029l1.355,3.345c0.148,0.371,0.266,0.736,0.638,0.925v0.019h-1.337v-0.019
	c0.32-0.143,0.267-0.216,0.093-0.671l-0.353-0.92H54.324z M57.85,49.535c0-0.3,0.044-0.773-0.287-0.9v-0.021h1.239v0.021
	c-0.327,0.125-0.287,0.605-0.287,0.9v2.456c0,0.296-0.04,0.771,0.287,0.896v0.017h-1.239v-0.018c0.324-0.116,0.287-0.6,0.287-0.896
	V49.535z M61.615,49.393c-0.254-0.261-0.659-0.412-1.024-0.412c-0.372,0-0.841,0.144-0.841,0.593c0,0.894,2.242,0.88,2.242,2.085
	c0,0.697-0.729,1.351-1.746,1.351c-0.398,0-0.795-0.059-1.167-0.195l-0.188-0.815c0.384,0.332,0.919,0.539,1.428,0.539
	c0.371,0,0.931-0.221,0.931-0.678c0-1.018-2.241-0.835-2.241-2.219c0-0.818,0.841-1.135,1.636-1.135
	c0.325,0,0.659,0.048,0.972,0.146V49.393z M52.943,57.39c-0.165,0.219-0.478,0.31-0.742,0.31c-0.251,0-0.515-0.081-0.686-0.265
	c-0.201-0.22-0.192-0.475-0.192-0.747v-1.011c0-0.171,0.025-0.445-0.165-0.52v-0.013h0.721v0.013
	c-0.19,0.072-0.167,0.349-0.167,0.52v1.011c0,0.504,0.211,0.738,0.603,0.738c0.212,0,0.429-0.087,0.555-0.265
	c0.08-0.114,0.076-0.209,0.076-0.346v-1.142c0-0.17,0.025-0.444-0.165-0.519v-0.013h0.723l0.003,0.013
	c-0.195,0.07-0.171,0.349-0.171,0.523v1.43c0,0.169-0.024,0.445,0.171,0.519v0.014h-0.563V57.39z M54.484,56.21
	c0.247,0,0.601-0.083,0.601-0.396c0-0.26-0.244-0.398-0.471-0.375l-0.256,0.025v0.739h0.125L54.484,56.21L54.484,56.21z
	 M54.69,57.426c0.31,0.029,0.625-0.115,0.625-0.474c0-0.367-0.354-0.529-0.688-0.508l-0.264,0.015v0.937L54.69,57.426z
	 M53.974,55.737c0-0.171,0.027-0.448-0.166-0.521v-0.014h0.898c0.498,0,0.792,0.213,0.792,0.55c0,0.257-0.164,0.399-0.378,0.494
	c0.341,0.069,0.614,0.301,0.614,0.671c0,0.294-0.199,0.543-0.45,0.663c-0.266,0.131-0.564,0.118-0.849,0.118h-0.628v-0.012
	c0.188-0.071,0.166-0.349,0.166-0.523V55.737z M50.195,57.426c0.259,0.016,0.48-0.071,0.671-0.232h0.013l-0.196,0.506h-1.561v-0.012
	c0.194-0.069,0.171-0.349,0.171-0.519v-1.43c0-0.173,0.023-0.45-0.171-0.522v-0.014h0.727v0.014
	c-0.192,0.07-0.166,0.353-0.166,0.522v1.653L50.195,57.426L50.195,57.426z"/>
<path fill="#F2A42A" d="M20.372,9.553l-5.353,6.524l0.423,0.422c0.874,0.875,1.973,3.312,1.675,5.988
	c-0.081,0.663-2.857,14.361-4.809,23.721l-0.008,0.041l-0.003,0.043c-0.217,2.942-0.535,5.239,1.125,9.529
	c1.523,3.938,4.756,8.256,12.385,10.733c8.682,2.818,13.802,6.131,14.269,10.211c0.818-4.897,5.427-6.822,11.831-9.479
	c2.229-0.925,4.761-1.977,7.49-3.252c4.742-2.211,7.527-6.266,8.279-12.052c0.586-4.474-0.258-8.554-0.534-9.894l-0.066-0.316v0.003
	c-0.022-0.257-0.208-1.034-1.112-4.726c-1.238-5.055-3.311-13.517-3.311-14.801l-0.001-0.132c0-2.771,1.057-4.604,1.943-5.658
	l0.365-0.434l-5.917-6.786L58.66,9.326c-18.895,4.266-37.443,0.043-37.627,0l-0.399-0.091L20.372,9.553z M58.563,10.698
	c0.426,0.489,4.079,4.679,4.67,5.358c-0.938,1.265-1.901,3.245-1.901,6.061v0.133c0,1.335,1.586,7.913,3.353,15.117
	c0.538,2.193,1.045,4.264,1.078,4.524l-0.002-0.058l0.088,0.524c0.378,1.836,0.707,4.118,0.707,6.516
	c0,5.271-1.588,11.104-7.716,13.965c-2.705,1.262-5.222,2.307-7.438,3.229c-5.71,2.37-9.788,4.071-11.354,7.079
	c-1.243-2.132-3.892-4.099-13.829-7.85c-5.333-2.015-8.443-3.569-10.929-8.387c-1.085-2.104-1.71-4.351-1.865-6.371
	c-0.059-0.771,0.644-6.791,0.622-6.372c0.539-2.583,4.294-20.698,4.387-21.532c0.04-0.356,0.059-0.712,0.059-1.063
	c0-2.253-0.771-4.322-1.715-5.549l4.364-5.319C23.945,11.292,41.048,14.547,58.563,10.698z"/>
</svg>
