<?xml version="1.0" encoding="utf-8"?>
<!-- Generator: Adobe Illustrator 16.0.0, SVG Export Plug-In . SVG Version: 6.00 Build 0)  -->
<!DOCTYPE svg PUBLIC "-//W3C//DTD SVG 1.1//EN" "http://www.w3.org/Graphics/SVG/1.1/DTD/svg11.dtd">
<svg version="1.1" xmlns="http://www.w3.org/2000/svg" xmlns:xlink="http://www.w3.org/1999/xlink" x="0px" y="0px" width="80px"
	 height="80px" viewBox="0 0 80 80" enable-background="new 0 0 80 80" xml:space="preserve">
<g id="svg2" xmlns:dc="http://purl.org/dc/elements/1.1/" xmlns:rdf="http://www.w3.org/1999/02/22-rdf-syntax-ns#" xmlns:svg="http://www.w3.org/2000/svg" xmlns:inkscape="http://www.inkscape.org/namespaces/inkscape" xmlns:cc="http://creativecommons.org/ns#" xmlns:sodipodi="http://sodipodi.sourceforge.net/DTD/sodipodi-0.dtd" inkscape:version="0.48.2 r9819" sodipodi:docname="Nouveau document 1">
	<g>
		<g id="g3761" transform="translate(51.0195,398.2864)">
			<path id="path3763" inkscape:connector-curvature="0" fill="#231F20" d="M-11.025-386.759c-1.139,0.035-5.708-0.367-9.323-2.292
				c-6.88,4.774-10.033,6.573-18.543,8.79c0.367,7.331-0.015,40.421,27.931,58.689l0.074,0.054l0.028-0.021
				c27.95-18.267,27.341-51.391,27.709-58.721c-8.514-2.217-11.401-4.015-18.288-8.79C-5.043-387.125-9.889-386.724-11.025-386.759"
				/>
		</g>
		<g id="g3773" transform="translate(67.0794,393.6371)">
			<path id="path3775" inkscape:connector-curvature="0" fill="#ED1C24" d="M-0.768-374.49c-8.182-2.144-10.444-3.799-17.069-8.419
				c-3.47,1.864-7.867,1.86-8.958,1.825v-0.008l-0.132,0.006l-0.132-0.006v0.008c-1.097,0.035-5.488,0.039-8.969-1.825
				c-6.62,4.62-8.882,6.276-17.068,8.419c0.354,7.094-0.782,39.2,26.099,56.876l0.07,0.054l0.029-0.021
				C-0.014-335.258-1.119-367.397-0.768-374.49"/>
		</g>
		<g id="g3777" transform="translate(66.3045,392.909)">
			<path id="path3779" inkscape:connector-curvature="0" fill="#FFFFFF" d="M-1.262-372.569c-7.717-2.026-9.853-3.584-16.099-7.938
				c-3.275,1.757-7.421,1.752-8.452,1.718v-0.004l-0.123,0.002l-0.122-0.002v0.004c-1.034,0.033-5.178,0.038-8.46-1.718
				c-6.241,4.356-8.375,5.913-16.094,7.938c0.333,6.687-0.739,36.955,24.612,53.619l0.066,0.05l0.026-0.019
				C-0.554-335.585-1.596-365.881-1.262-372.569"/>
		</g>
		<g id="g3781" transform="translate(66.0893,392.8485)">
			<path id="path3783" inkscape:connector-curvature="0" fill="#ED1C24" d="M-1.401-372.41c-7.617-1.912-9.724-3.383-15.885-7.5
				c-3.231,1.66-7.324,1.656-8.34,1.624v-0.007l-0.121,0.004l-0.123-0.004v0.007c-1.02,0.03-5.109,0.033-8.347-1.624
				c-6.159,4.117-8.265,5.588-15.881,7.5c0.328,6.32-0.732,34.929,24.286,50.675v0.092l0.066-0.044l0.025,0.019v-0.035
				C-0.702-337.455-1.728-366.09-1.401-372.41"/>
		</g>
		<g id="g3785" transform="translate(52.9892,364.5672)">
			<path id="path3787" inkscape:connector-curvature="0" fill="#231F20" d="M-9.768-297.782c0,0.002,0,0.002-0.003,0.002
				C-9.768-297.78-9.768-297.782-9.768-297.782L-9.768-297.782 M-10.308-297.568c-0.236,0-0.441-0.12-0.598-0.353
				c-0.129-0.192-0.211-0.434-0.211-0.625c0-0.242,0.215-0.434,0.498-0.434c0.221,0,0.427,0.104,0.581,0.295
				c0.158,0.208,0.258,0.48,0.258,0.703C-9.779-297.74-9.997-297.568-10.308-297.568 M-10.462-299.158
				c-0.582,0-1.023,0.408-1.023,0.947c0,0.051,0.006,0.098,0.018,0.147v0.009c0,0,0,0,0.002,0.002
				c0.079,0.356,0.422,0.632,0.869,0.684c0.096,0.016,0.158,0.012,0.158,0.012c0.554,0,1.031-0.425,1.031-0.916
				C-9.407-298.765-9.876-299.158-10.462-299.158 M-12.112-296.971c-0.002,0-0.004,0-0.007,0.002
				c0.007-0.005,0.012-0.009,0.018-0.015C-12.105-296.978-12.11-296.976-12.112-296.971 M-12.325-298.267
				c-0.073,0-0.146,0.004-0.27,0.019c-0.019,0.006-0.044,0.006-0.058,0.006c-0.05,0-0.072-0.034-0.072-0.118
				c0-0.104,0.035-0.232,0.081-0.303c0.04-0.055,0.083-0.063,0.324-0.063c0.227,0,0.371,0.006,0.551,0.008
				c0.045,0.007,0.084,0.007,0.106,0.007c0.075,0,0.1-0.021,0.119-0.101c0.009-0.031,0.042-0.107,0.123-0.311
				c0.016-0.026,0.02-0.044,0.02-0.058c0-0.021-0.023-0.037-0.046-0.037c-0.026,0-0.046,0.014-0.079,0.037
				c-0.102,0.098-0.127,0.109-0.29,0.109h-0.805c-0.131,0-0.14,0.008-0.147,0.098c-0.027,0.332-0.062,0.53-0.117,0.71
				c-0.072,0.238-0.072,0.238-0.072,0.264c0,0.051,0.055,0.091,0.127,0.091c0.018,0,0.046,0,0.079-0.003
				c0.136-0.015,0.251-0.023,0.309-0.023c0.328,0,0.569,0.199,0.576,0.467c0,0.005,0,0.012,0,0.016
				c-0.005,0.028-0.007,0.056-0.012,0.077c-0.006,0.024-0.015,0.045-0.021,0.067c-0.009,0.024-0.018,0.054-0.026,0.075
				c-0.118,0.208-0.386,0.341-0.724,0.341c-0.164,0-0.294-0.027-0.466-0.105c-0.038-0.017-0.063-0.023-0.079-0.023
				c-0.035,0-0.071,0.027-0.071,0.054c0,0.094,0.384,0.204,0.703,0.204c0.649,0,1.136-0.367,1.136-0.857
				C-11.42-298.021-11.764-298.267-12.325-298.267 M-13.978-297.854c-0.341,0-0.611-0.306-0.611-0.698
				c0-0.313,0.187-0.53,0.459-0.53c0.352,0,0.657,0.351,0.657,0.753C-13.473-298.042-13.671-297.854-13.978-297.854
				 M-13.893-299.091c-0.009,0-0.016-0.002-0.024-0.004c-0.002,0-0.007-0.002-0.011-0.004
				C-13.914-299.096-13.904-299.095-13.893-299.091 M-13.259-298.897c-0.18-0.195-0.428-0.292-0.741-0.292
				c-0.348,0-0.606,0.095-0.79,0.284c-0.146,0.155-0.229,0.354-0.229,0.567c0,0.402,0.305,0.688,0.736,0.688
				c0.201,0,0.35-0.043,0.581-0.17c0.042-0.022,0.064-0.029,0.081-0.029c0.023,0,0.033,0.016,0.033,0.037
				c0,0.077-0.092,0.269-0.193,0.397c-0.22,0.278-0.533,0.452-0.973,0.533c-0.071,0.016-0.098,0.029-0.098,0.065
				c0,0.031,0.033,0.056,0.088,0.056c0.263,0,0.702-0.129,1-0.3c0.473-0.271,0.761-0.709,0.761-1.162
				C-13.005-298.476-13.093-298.712-13.259-298.897 M-14.727-297.426c0-0.037-0.032-0.057-0.107-0.057
				c-0.303-0.008-0.396-0.093-0.396-0.386v-0.742c0-0.11,0.011-0.289,0.021-0.383c0.004-0.037,0.009-0.076,0.009-0.093
				c0-0.035-0.02-0.054-0.055-0.054c-0.024,0-0.042,0.008-0.075,0.032c-0.18,0.135-0.25,0.167-0.468,0.212
				c-0.292,0.055-0.339,0.072-0.339,0.134c0,0.027,0.022,0.05,0.056,0.05c0.011,0,0.022-0.005,0.055-0.017
				c0.047-0.023,0.095-0.027,0.147-0.027c0.055,0,0.097,0.017,0.131,0.035l0.04,0.037c0.002,0.005,0.007,0.01,0.009,0.018
				l0.032,0.336v0.568c0,0.023,0,0.047-0.004,0.068l-0.046,0.118c-0.049,0.056-0.125,0.087-0.24,0.093
				c-0.102,0.002-0.139,0.02-0.139,0.057c0,0.033,0.026,0.053,0.088,0.053c0.02,0,0.055,0,0.092-0.004
				c0.18-0.012,0.369-0.018,0.524-0.018c0.159,0,0.352,0.006,0.532,0.018c0.018,0.004,0.043,0.004,0.051,0.004
				C-14.758-297.373-14.727-297.394-14.727-297.426"/>
		</g>
		<g>
			<path fill="#231F20" d="M41.059,21.008c0-0.018,0-0.034,0-0.05c0-0.014-0.003-0.023-0.005-0.032
				c-0.006-0.058-0.008-0.113-0.01-0.169c-0.004-0.127-0.196-0.127-0.199,0c-0.022,3.418-1.577,7.241-4.367,9.283
				c-0.076,0.058-0.053,0.178,0.05,0.186c2.583,0.122,3.707,2.279,4.176,4.636c0.021,0.101,0.164,0.09,0.191,0
				c0.015-0.053,0.03-0.106,0.046-0.157c0.02-0.018,0.027-0.039,0.03-0.071c0.008-0.705,0.661-1.66,1.018-2.232
				c0.648-1.042,1.626-1.886,2.911-1.852c0.083,0.004,0.134-0.113,0.071-0.169C42.379,28.051,41.256,24.403,41.059,21.008z"/>
			<path fill="#231F20" d="M39.703,21.756L39.703,21.756c0.002-0.007,0.007-0.013,0.009-0.023c0.033-0.09,0.06-0.182,0.081-0.274
				c0.006-0.026,0.002-0.051-0.007-0.071c0-0.002,0-0.005,0-0.007c-0.493-2.35-3.128-0.618-4.435-0.26
				c-0.111,0.03-0.083,0.188,0.025,0.195C36.562,21.369,38.785,23.635,39.703,21.756z"/>
			<path fill="#231F20" d="M40.615,19.789L40.615,19.789c0.007,0.004,0.014,0.008,0.021,0.011c0.089,0.033,0.179,0.063,0.269,0.085
				c0.023,0.004,0.047,0.002,0.066-0.006c0.003,0,0.01,0,0.012,0c2.415-0.378,0.478-3.107,0.079-4.312
				c-0.032-0.103-0.194-0.085-0.196,0.026c0,0.539-0.475,1.227-0.705,1.686c-0.104,0.207-0.182,0.424-0.247,0.644
				C39.686,18.695,39.861,19.429,40.615,19.789z M41.059,19.766c0,0.002-0.003,0.006-0.003,0.009c0-0.003,0-0.005,0-0.009
				C41.056,19.766,41.056,19.766,41.059,19.766z"/>
			<path fill="#231F20" d="M46.678,21.661c-0.615-0.226-1.2-0.531-1.773-0.849c-1.015-0.584-2.354-0.673-2.663,0.697
				c0,0.006-0.003,0.013-0.003,0.018c-0.004,0.021-0.006,0.04-0.002,0.058c0.555,2.403,3.132,0.209,4.42,0.272
				C46.771,21.861,46.777,21.698,46.678,21.661z M42.357,21.439c-0.006-0.002-0.01-0.002-0.014-0.002
				c0.004,0,0.01-0.002,0.014-0.002C42.357,21.438,42.357,21.438,42.357,21.439z"/>
		</g>
		<g id="g3809" transform="translate(54.1104,392.6807)">
			<path id="path3811" inkscape:connector-curvature="0" fill="#FFFFFF" d="M-9.053-371.966c0,0-1.947-1.146-2.448,0.374
				c-0.021,0.062-0.042,0.125-0.051,0.191c-0.006,0.024-0.013,0.048-0.018,0.072h0.008c0,0.007,0,0.013,0,0.022h-0.013
				c0.002,0.019,0.01,0.033,0.013,0.051c0.004,0.074,0.021,0.152,0.061,0.222c0.497,1.361,2.422,0.528,2.422,0.528
				c0.918-0.39,1.666-0.576,1.783-0.602h0.045C-7.251-371.107-8.055-371.396-9.053-371.966 M-13.242-373.163
				c0.066,0.04,0.138,0.059,0.21,0.068c0.024,0.005,0.037,0.011,0.061,0.018v-0.013c0.011,0,0.021,0,0.025,0v0.006
				c0.021-0.002,0.047-0.006,0.07-0.011c0.072-0.006,0.144-0.022,0.211-0.039c1.583-0.404,0.518-2.35,0.518-2.35
				c-0.537-0.997-0.787-1.787-0.787-1.787v0.039c-0.035,0.107-0.271,0.822-0.72,1.693
				C-13.658-375.539-14.627-373.714-13.242-373.163 M-17.885-371.62h-0.016H-17.885z M-14.289-371.156
				c0.046-0.068,0.069-0.147,0.071-0.229c0.004-0.016,0.009-0.031,0.014-0.048h-0.014c0-0.007,0-0.016,0-0.023h0.004
				c-0.002-0.014-0.004-0.024-0.006-0.038c-0.013-0.091-0.037-0.183-0.069-0.268c-0.498-1.516-2.431-0.572-2.431-0.572
				c-1.004,0.476-1.809,0.684-1.809,0.684l0.04,0.003c0.101,0.035,0.856,0.294,1.778,0.771
				C-16.711-370.874-14.809-369.861-14.289-371.156 M-12.946-371.857v-0.051c0,0,0,0.011-0.002,0.028
				c-0.009-0.148-0.012-0.233-0.012-0.233l-0.002,0.413c-0.084,1.102-0.686,6.318-4.416,8.956l0.837,0.04
				c0.981,0.213,2.771,1.099,3.439,4.668c0,0,0.021-0.083,0.063-0.219l0.009,0.018v-0.041c0.303-0.944,1.546-4.304,4.027-4.142
				C-12.392-365.365-12.878-370.647-12.946-371.857"/>
		</g>
		<g id="g3813" transform="translate(59.206,375.0772)">
			<path id="path3815" inkscape:connector-curvature="0" fill="#231F20" d="M-5.797-325.516c-0.429,0.401-0.996,0.728-1.679,0.952
				c-0.797,0.288-1.667,0.399-2.896,0.399c-3.72,0-4.842-0.578-4.842-2.492v-3.315c0-0.801,0.505-1.002,2.387-1.002
				c3.094,0,5.265,0.38,6.552,1.153c1.199,0.894,1.368,1.861,1.394,2.133c0.002,0.029,0.002,0.064,0.002,0.095
				C-4.886-326.73-5.299-326.034-5.797-325.516 M-13.964-317.279c-2.055,0-3.668-1.544-3.668-3.548c0-1.584,1.093-2.686,2.708-2.706
				c0.095,0.004,0.193,0.004,0.302,0.011c2.002,0.137,3.691,1.865,3.691,3.822C-10.931-318.232-12.128-317.279-13.964-317.279
				 M-15.106-336.36c0-0.867,0.904-1.314,2.713-1.314c3.507,0,6.073,1.559,6.073,3.651c0,1.358-1.304,2.182-3.399,2.182h-3.002
				c-1.588,0-2.385-0.444-2.385-1.338V-336.36L-15.106-336.36z M-34.553-332.641l0.93,0.69
				C-33.978-332.149-34.29-332.385-34.553-332.641 M-3.753-331.174c-0.833-0.268-1.48-0.377-2.931-0.602
				c2.675-0.556,4.05-1.578,4.05-3.006c0-1.378-1.338-2.556-3.579-3.159c-1.3-0.334-3.111-0.511-5.279-0.511
				c-0.683,0-1.265,0.022-1.772,0.043c-3.396,0.181-3.396,0.181-4.947,0.181c-0.871,0-1.558-0.022-1.882-0.046
				c-0.482-0.042-0.741-0.068-0.873-0.083c-0.012,0.002-0.029,0.002-0.051,0.002c-0.578,0-0.726,0.217-0.726,0.461
				c0,0.245-0.048,0.321,0.709,0.411c0.621,0.048,1.05,0.129,1.348,0.256l0.385,0.261l0.257,6.183v4.373
				c0,1.246-0.436,1.869-1.556,2.201c-0.938,0.289-1.049,0.337-1.049,0.533c0,0.203,0.217,0.314,0.578,0.314
				c0.18,0,0.18,0,0.906-0.068c0.689-0.05,1.656-0.085,2.823-0.104c-0.576,0.229-1.076,0.535-1.511,0.915
				c-0.862,0.783-1.363,1.812-1.363,2.878c0,0.644,0.18,1.232,0.503,1.731c-0.06,0.026-0.125,0.068-0.198,0.139
				c-0.611,0.571-0.916,0.782-1.418,0.975c-0.637,0.229-1.776,0.38-2.862,0.38c-1.196,0-2.334-0.171-2.334-0.343
				c0-0.075,0.055-0.116,1.082-0.671c4.144-2.248,4.697-2.669,4.697-3.697c0-1.375-1.749-2.423-4.031-2.423
				c-0.215,0-0.428,0.013-0.644,0.031c2.548-0.761,4.249-2.381,4.249-4.337c0-2.054-1.649-3.518-5.162-4.546l-3.992-1.187
				c-2.014-0.594-3.001-1.324-3.001-2.192c0-1.257,1.792-2.306,3.916-2.306c2.893,0,6.006,1.712,6.775,3.744
				c0.183,0.435,0.365,0.594,0.695,0.594c0.293,0,0.477-0.16,0.477-0.435c0-0.093,0-0.181-0.037-0.25
				c-0.367-1.783-0.442-2.125-0.442-2.764v-0.231c0.037-0.25,0.037-0.454,0.037-0.5c0-0.184-0.146-0.318-0.438-0.318
				c-0.113,0-0.295,0.046-0.44,0.113c-0.549,0.229-0.549,0.229-0.845,0.229c-0.364,0-0.475-0.024-1.536-0.341
				c-1.319-0.39-2.673-0.596-4.064-0.596c-1.813,0-3.4,0.409-4.566,1.096l0,0c0,0-0.002,0-0.004,0.002
				c-1.308,0.772-2.093,1.896-2.093,3.199c0,0.422,0.072,0.813,0.227,1.17c0,0.002,0,0.004,0.002,0.006l0,0
				c0.466,1.089,1.654,1.894,3.686,2.543l5.347,1.694c2.124,0.673,2.921,1.284,2.994,2.303v0.309
				c-0.132,1.422-2.196,2.616-4.53,2.616c-2.855,0-6.408-2.145-7.14-4.34c-0.148-0.365-0.331-0.501-0.66-0.501
				c-0.328,0-0.546,0.208-0.546,0.547c0,0.343,0.11,0.639,0.585,1.874c0.257,0.616,0.366,0.914,0.438,1.257l0.22,0.866
				c1.831,0.686,4.357,1.143,6.518,1.143c0.5,0,0.987-0.027,1.457-0.084c-0.589,0.191-1.147,0.446-1.651,0.759
				c-0.75,0.455-1.306,1.009-1.306,1.258c0,0.112,0.139,0.226,0.333,0.226c0.112,0,0.223-0.037,0.392-0.167
				c1.027-0.767,2.029-1.105,3.308-1.105c1.554,0,2.695,0.739,2.695,1.755c0,0.438-0.167,0.78-0.61,1.257
				c-0.446,0.479-0.75,0.708-2.752,1.852c-3.642,2.115-3.669,2.134-3.669,2.326c0,0.151,0.139,0.227,0.359,0.227
				c0.113,0,0.306,0,0.501-0.019c0.583-0.04,1.195-0.06,1.834-0.06c0.527,0,1.363,0.02,2.446,0.06
				c1.28,0.037,1.919,0.058,3.533,0.058c0.499,0,0.611-0.021,0.692-0.075c0.14-0.076,0.305-0.307,0.918-1.222l0.667-1.011
				c0.122-0.189,0.208-0.321,0.263-0.412c0.781,0.825,2.036,1.332,3.546,1.332c1.194,0,2.083-0.23,3.472-0.88
				c0.253-0.115,0.394-0.15,0.505-0.15c0.108,0,0.19,0.073,0.19,0.188c0,0.4-0.555,1.377-1.165,2.041
				c-1.309,1.413-3.198,2.292-5.839,2.711c-0.417,0.076-0.586,0.15-0.586,0.323s0.197,0.287,0.53,0.287
				c1.584,0,4.2-0.669,6.004-1.545c2.837-1.374,4.562-3.606,4.562-5.913c0-1.297-0.528-2.498-1.527-3.433
				c-0.359-0.324-0.76-0.598-1.203-0.817c0.325,0.007,0.644,0.013,0.954,0.013c2.567,0,4.591-0.29,6.038-0.867
				c1.915-0.779,3.11-2.228,3.11-3.806C-0.752-329.526-1.766-330.62-3.753-331.174 M-20.968-338.357
				C-20.846-338.362-21.294-338.392-20.968-338.357"/>
		</g>
		<g id="g3817" transform="translate(59.206,375.0772)">
			
				<path id="path3819" inkscape:connector-curvature="0" fill="none" stroke="#231F20" stroke-width="0.1553" stroke-miterlimit="1" d="
				M-5.797-325.516c-0.429,0.401-0.996,0.728-1.679,0.952c-0.797,0.288-1.667,0.399-2.896,0.399c-3.72,0-4.842-0.578-4.842-2.492
				v-3.315c0-0.801,0.505-1.002,2.387-1.002c3.094,0,5.265,0.38,6.552,1.153c1.199,0.894,1.368,1.861,1.394,2.133
				c0.002,0.029,0.002,0.064,0.002,0.095C-4.886-326.73-5.299-326.034-5.797-325.516z M-13.964-317.279
				c-2.055,0-3.668-1.544-3.668-3.548c0-1.584,1.093-2.686,2.708-2.706c0.095,0.004,0.193,0.004,0.302,0.011
				c2.002,0.137,3.691,1.865,3.691,3.822C-10.931-318.232-12.128-317.279-13.964-317.279z M-15.106-336.36
				c0-0.867,0.904-1.314,2.713-1.314c3.507,0,6.073,1.559,6.073,3.651c0,1.358-1.304,2.182-3.399,2.182h-3.002
				c-1.588,0-2.385-0.444-2.385-1.338V-336.36L-15.106-336.36z M-34.553-332.641l0.93,0.69
				C-33.978-332.149-34.29-332.385-34.553-332.641z M-3.753-331.174c-0.833-0.268-1.48-0.377-2.931-0.602
				c2.675-0.556,4.05-1.578,4.05-3.006c0-1.378-1.338-2.556-3.579-3.159c-1.3-0.334-3.111-0.511-5.279-0.511
				c-0.683,0-1.265,0.022-1.772,0.043c-3.396,0.181-3.396,0.181-4.947,0.181c-0.871,0-1.558-0.022-1.882-0.046
				c-0.482-0.042-0.741-0.068-0.873-0.083c-0.012,0.002-0.029,0.002-0.051,0.002c-0.578,0-0.726,0.217-0.726,0.461
				c0,0.245-0.048,0.321,0.709,0.411c0.621,0.048,1.05,0.129,1.348,0.256l0.385,0.261l0.257,6.183v4.373
				c0,1.246-0.436,1.869-1.556,2.201c-0.938,0.289-1.049,0.337-1.049,0.533c0,0.203,0.217,0.314,0.578,0.314
				c0.18,0,0.18,0,0.906-0.068c0.689-0.05,1.656-0.085,2.823-0.104c-0.576,0.229-1.076,0.535-1.511,0.915
				c-0.862,0.783-1.363,1.812-1.363,2.878c0,0.644,0.18,1.232,0.503,1.731c-0.06,0.026-0.125,0.068-0.198,0.139
				c-0.611,0.571-0.916,0.782-1.418,0.975c-0.637,0.229-1.776,0.38-2.862,0.38c-1.196,0-2.334-0.171-2.334-0.343
				c0-0.075,0.055-0.116,1.082-0.671c4.144-2.248,4.697-2.669,4.697-3.697c0-1.375-1.749-2.423-4.031-2.423
				c-0.215,0-0.428,0.013-0.644,0.031c2.548-0.761,4.249-2.381,4.249-4.337c0-2.054-1.649-3.518-5.162-4.546l-3.992-1.187
				c-2.014-0.594-3.001-1.324-3.001-2.192c0-1.257,1.792-2.306,3.916-2.306c2.893,0,6.006,1.712,6.775,3.744
				c0.183,0.435,0.365,0.594,0.695,0.594c0.293,0,0.477-0.16,0.477-0.435c0-0.093,0-0.181-0.037-0.25
				c-0.367-1.783-0.442-2.125-0.442-2.764v-0.231c0.037-0.25,0.037-0.454,0.037-0.5c0-0.184-0.146-0.318-0.438-0.318
				c-0.113,0-0.295,0.046-0.44,0.113c-0.549,0.229-0.549,0.229-0.845,0.229c-0.364,0-0.475-0.024-1.536-0.341
				c-1.319-0.39-2.673-0.596-4.064-0.596c-1.813,0-3.4,0.409-4.566,1.096l0,0c0,0-0.002,0-0.004,0.002
				c-1.308,0.772-2.093,1.896-2.093,3.199c0,0.422,0.072,0.813,0.227,1.17c0,0.002,0,0.004,0.002,0.006l0,0
				c0.466,1.089,1.654,1.894,3.686,2.543l5.347,1.694c2.124,0.673,2.921,1.284,2.994,2.303v0.309
				c-0.132,1.422-2.196,2.616-4.53,2.616c-2.855,0-6.408-2.145-7.14-4.34c-0.148-0.365-0.331-0.501-0.66-0.501
				c-0.328,0-0.546,0.208-0.546,0.547c0,0.343,0.11,0.639,0.585,1.874c0.257,0.616,0.366,0.914,0.438,1.257l0.22,0.866
				c1.831,0.686,4.357,1.143,6.518,1.143c0.5,0,0.987-0.027,1.457-0.084c-0.589,0.191-1.147,0.446-1.651,0.759
				c-0.75,0.455-1.306,1.009-1.306,1.258c0,0.112,0.139,0.226,0.333,0.226c0.112,0,0.223-0.037,0.392-0.167
				c1.027-0.767,2.029-1.105,3.308-1.105c1.554,0,2.695,0.739,2.695,1.755c0,0.438-0.167,0.78-0.61,1.257
				c-0.446,0.479-0.75,0.708-2.752,1.852c-3.642,2.115-3.669,2.134-3.669,2.326c0,0.151,0.139,0.227,0.359,0.227
				c0.113,0,0.306,0,0.501-0.019c0.583-0.04,1.195-0.06,1.834-0.06c0.527,0,1.363,0.02,2.446,0.06
				c1.28,0.037,1.919,0.058,3.533,0.058c0.499,0,0.611-0.021,0.692-0.075c0.14-0.076,0.305-0.307,0.918-1.222l0.667-1.011
				c0.122-0.189,0.208-0.321,0.263-0.412c0.781,0.825,2.036,1.332,3.546,1.332c1.194,0,2.083-0.23,3.472-0.88
				c0.253-0.115,0.394-0.15,0.505-0.15c0.108,0,0.19,0.073,0.19,0.188c0,0.4-0.555,1.377-1.165,2.041
				c-1.309,1.413-3.198,2.292-5.839,2.711c-0.417,0.076-0.586,0.15-0.586,0.323s0.197,0.287,0.53,0.287
				c1.584,0,4.2-0.669,6.004-1.545c2.837-1.374,4.562-3.606,4.562-5.913c0-1.297-0.528-2.498-1.527-3.433
				c-0.359-0.324-0.76-0.598-1.203-0.817c0.325,0.007,0.644,0.013,0.954,0.013c2.567,0,4.591-0.29,6.038-0.867
				c1.915-0.779,3.11-2.228,3.11-3.806C-0.752-329.526-1.766-330.62-3.753-331.174L-3.753-331.174z M-20.968-338.357
				C-20.846-338.362-21.294-338.392-20.968-338.357z"/>
		</g>
		<g id="g3821" transform="translate(59.2336,375.3005)">
			<path id="path3823" inkscape:connector-curvature="0" fill="#FFFFFF" d="M-5.779-326.104c-0.431,0.398-0.998,0.726-1.682,0.95
				c-0.797,0.29-1.665,0.399-2.891,0.399c-3.728,0-4.85-0.578-4.85-2.49v-3.317c0-0.8,0.509-1.003,2.391-1.003
				c3.09,0,5.27,0.38,6.548,1.156c1.196,0.888,1.372,1.85,1.395,2.126c0.003,0.035,0.003,0.071,0.005,0.106
				C-4.87-327.313-5.283-326.623-5.779-326.104 M-10.723-320.233c0,1.467-1.194,2.42-3.027,2.42c-2.062,0-3.673-1.544-3.673-3.544
				c0-1.603,1.113-2.709,2.753-2.709C-12.558-324.066-10.723-322.274-10.723-320.233 M-15.09-336.947
				c0-0.868,0.904-1.314,2.71-1.314c3.509,0,6.077,1.558,6.077,3.65c0,1.357-1.302,2.182-3.4,2.182h-3
				c-1.592,0-2.388-0.445-2.388-1.335L-15.09-336.947L-15.09-336.947z M-24.073-329.081h0.002v0.003L-24.073-329.081
				 M-3.738-331.761c-0.832-0.268-1.481-0.378-2.929-0.604c2.676-0.556,4.05-1.579,4.05-3.003c0-1.38-1.337-2.558-3.578-3.161
				c-1.303-0.334-3.112-0.509-5.279-0.509c-0.686,0-1.266,0.02-1.775,0.044c-3.395,0.177-3.395,0.177-4.949,0.177
				c-0.866,0-1.555-0.024-1.878-0.046c-0.484-0.042-0.746-0.069-0.875-0.081c-0.012,0-0.027,0-0.047,0
				c-0.58,0-0.728,0.218-0.728,0.464c0,0.244-0.049,0.318,0.71,0.407c0.623,0.051,1.053,0.129,1.347,0.258l0.385,0.26l0.258,6.177
				v4.378c0,1.246-0.436,1.869-1.554,2.203c-0.941,0.29-1.049,0.334-1.049,0.534c0,0.203,0.217,0.313,0.577,0.313
				c0.182,0,0.182,0,0.905-0.069c0.759-0.054,1.849-0.094,3.174-0.105c-0.64,0.233-1.195,0.557-1.666,0.973
				c-0.864,0.779-1.365,1.809-1.365,2.88c0,0.644,0.181,1.229,0.506,1.729c-0.063,0.023-0.127,0.069-0.201,0.137
				c-0.611,0.574-0.916,0.785-1.416,0.973c-0.639,0.229-1.778,0.384-2.862,0.384c-1.196,0-2.336-0.17-2.336-0.346
				c0-0.075,0.058-0.114,1.084-0.668c4.144-2.25,4.7-2.669,4.7-3.7c0-1.374-1.752-2.418-4.032-2.418c-0.498,0-1,0.052-1.49,0.14
				c2.903-0.66,4.9-2.387,4.9-4.5c0-2.058-1.646-3.519-5.161-4.547l-3.99-1.188c-2.014-0.592-3.003-1.324-3.003-2.193
				c0-1.256,1.796-2.305,3.917-2.305c2.893,0,6.005,1.712,6.773,3.743c0.185,0.436,0.367,0.594,0.697,0.594
				c0.295,0,0.475-0.159,0.475-0.433c0-0.091,0-0.183-0.035-0.252c-0.364-1.784-0.44-2.124-0.44-2.763v-0.227
				c0.037-0.253,0.037-0.457,0.037-0.503c0-0.185-0.147-0.32-0.442-0.32c-0.108,0-0.292,0.045-0.437,0.116
				c-0.55,0.226-0.55,0.226-0.843,0.226c-0.367,0-0.474-0.023-1.539-0.342c-1.316-0.387-2.673-0.594-4.062-0.594
				c-1.813,0-3.399,0.406-4.569,1.098l0,0c0,0,0,0-0.002,0c-1.308,0.771-2.092,1.896-2.092,3.199c0,0.425,0.074,0.812,0.225,1.171
				c0,0,0,0,0,0.002l0,0c0.467,1.089,1.654,1.896,3.689,2.547l5.346,1.692c2.124,0.674,2.921,1.285,2.996,2.305v0.307
				c-0.136,1.422-2.196,2.618-4.535,2.618c-2.856,0-6.405-2.149-7.141-4.338c-0.145-0.365-0.327-0.504-0.657-0.504
				c-0.329,0-0.549,0.207-0.549,0.548c0,0.346,0.111,0.639,0.585,1.872c0.258,0.618,0.368,0.915,0.443,1.257l0.22,0.867
				c1.829,0.684,4.357,1.142,6.516,1.142c0.82,0,1.603-0.076,2.334-0.217c-0.837,0.194-1.638,0.512-2.334,0.946
				c-0.751,0.456-1.309,1.01-1.309,1.259c0,0.116,0.139,0.229,0.335,0.229c0.11,0,0.222-0.038,0.389-0.171
				c1.027-0.765,2.03-1.105,3.308-1.105c1.557,0,2.696,0.742,2.696,1.754c0,0.438-0.165,0.782-0.612,1.26
				c-0.444,0.477-0.749,0.706-2.751,1.852c-3.64,2.117-3.669,2.137-3.669,2.322c0,0.156,0.139,0.231,0.363,0.231
				c0.11,0,0.304,0,0.499-0.018c0.585-0.039,1.196-0.061,1.835-0.061c0.528,0,1.364,0.021,2.447,0.061
				c1.279,0.037,1.919,0.059,3.53,0.059c0.499,0,0.61-0.023,0.694-0.078c0.139-0.076,0.305-0.305,0.917-1.223l0.669-1.006
				c0.12-0.195,0.205-0.323,0.261-0.417c0.78,0.827,2.035,1.331,3.547,1.331c1.195,0,2.083-0.231,3.471-0.877
				c0.252-0.114,0.393-0.154,0.501-0.154c0.114,0,0.194,0.078,0.194,0.189c0,0.402-0.554,1.375-1.166,2.041
				c-1.307,1.412-3.197,2.289-5.838,2.709c-0.417,0.073-0.583,0.154-0.583,0.324c0,0.171,0.193,0.286,0.528,0.286
				c1.584,0,4.197-0.667,6.004-1.544c2.836-1.375,4.559-3.606,4.559-5.913c0-1.298-0.527-2.501-1.527-3.435
				c-0.388-0.354-0.825-0.641-1.317-0.868c0.301,0.004,0.593,0.008,0.877,0.008c2.564,0,4.591-0.287,6.037-0.865
				c1.915-0.781,3.108-2.229,3.108-3.807C-0.737-330.116-1.749-331.207-3.738-331.761 M-20.953-338.944
				C-20.828-338.948-21.278-338.982-20.953-338.944"/>
		</g>
	</g>
</g>
<g id="Calque_1">
</g>
</svg>
