<?xml version="1.0" encoding="utf-8"?>
<!-- Generator: Adobe Illustrator 16.0.0, SVG Export Plug-In . SVG Version: 6.00 Build 0)  -->
<!DOCTYPE svg PUBLIC "-//W3C//DTD SVG 1.1//EN" "http://www.w3.org/Graphics/SVG/1.1/DTD/svg11.dtd">
<svg version="1.1" id="Calque_1" xmlns="http://www.w3.org/2000/svg" xmlns:xlink="http://www.w3.org/1999/xlink" x="0px" y="0px"
	 width="80px" height="80px" viewBox="0 0 80 80" enable-background="new 0 0 80 80" xml:space="preserve">
<radialGradient id="SVGID_1_" cx="492.1523" cy="585.875" r="41.5066" gradientTransform="matrix(1 0 0 1 -455.0801 -550.8594)" gradientUnits="userSpaceOnUse">
	<stop  offset="0" style="stop-color:#FFFFFF"/>
	<stop  offset="1" style="stop-color:#534C97"/>
</radialGradient>
<circle fill="url(#SVGID_1_)" cx="40.001" cy="39.993" r="33.766"/>
<radialGradient id="SVGID_2_" cx="484.8301" cy="578.6768" r="52.8408" gradientTransform="matrix(1 0 0 1 -455.0801 -550.8594)" gradientUnits="userSpaceOnUse">
	<stop  offset="0" style="stop-color:#FFFFFF"/>
	<stop  offset="1" style="stop-color:#534C97"/>
</radialGradient>
<circle fill="url(#SVGID_2_)" stroke="#534C97" stroke-width="0.5628" stroke-miterlimit="10" stroke-opacity="0.7" cx="40" cy="40.115" r="33.764"/>
<path fill="#FFFFFF" d="M12.156,39.994c0,7.388,2.886,14.097,7.586,19.078V20.915C15.042,25.896,12.156,32.605,12.156,39.994z
	 M39.969,12.181c-2.247,0-4.427,0.275-6.518,0.775v54.069c2.09,0.507,4.271,0.779,6.518,0.779c2.357,0,4.648-0.299,6.832-0.851
	V13.03C44.617,12.479,42.322,12.181,39.969,12.181z M67.834,39.994c0-7.225-2.774-13.807-7.326-18.75v37.494
	C65.063,53.796,67.834,47.215,67.834,39.994z"/>
<path fill="none" d="M40.001,6.228c-18.646,0-33.766,15.119-33.766,33.766c0,18.647,15.12,33.765,33.766,33.765
	c18.646,0,33.768-15.118,33.768-33.765C73.769,21.346,58.647,6.228,40.001,6.228z M40.001,67.806
	c-15.359,0-27.813-12.451-27.813-27.813c0-15.359,12.452-27.812,27.813-27.812s27.81,12.453,27.81,27.812
	C67.811,55.353,55.359,67.806,40.001,67.806z"/>
<path fill="#7770AA" d="M19.742,20.915v38.157c3.642,3.855,8.374,6.672,13.71,7.953V12.956
	C28.116,14.237,23.383,17.053,19.742,20.915z M46.801,13.03v53.924c5.354-1.354,10.095-4.257,13.707-8.217V21.243
	C56.896,17.289,52.155,14.383,46.801,13.03z"/>
<path d="M50.461,24.965c-0.559,0-1.022,0.359-1.191,0.86c-1.662-1.279-1.915-2.572-1.947-3.139c0.69-0.007,1.244-0.563,1.244-1.255
	c0-0.692-0.563-1.257-1.257-1.257c-0.693,0-1.261,0.565-1.261,1.257c0,0.472,0.26,0.877,0.648,1.091
	c-2.417,1.668-4.459,1.91-4.459,1.921l-0.26,0.023c0.305-1.987,1.439-3.634,1.961-4.318c0.231,0.313,0.599,0.522,1.017,0.522
	c0.696,0,1.259-0.565,1.261-1.257c-0.002-0.697-0.564-1.26-1.261-1.26c-0.694,0-1.257,0.563-1.257,1.26l0.002,0.031
	c-1.289,0-2.69-1.33-3.307-1.969c0.543-0.139,0.947-0.628,0.947-1.216c0-0.695-0.566-1.258-1.263-1.258
	c-0.69,0-1.256,0.563-1.256,1.258c0,0.556,0.36,1.023,0.862,1.192c-1.28,1.661-2.573,1.917-3.137,1.947
	c-0.01-0.69-0.568-1.247-1.258-1.247c-0.696,0-1.259,0.565-1.259,1.261c0,0.693,0.563,1.258,1.259,1.258
	c0.471,0,0.878-0.261,1.096-0.646c1.578,2.297,1.88,4.247,1.912,4.439l-0.277-0.023c0.004,0-2.031-0.25-4.447-1.916
	c0.385-0.216,0.644-0.623,0.644-1.095c0-0.691-0.562-1.256-1.256-1.256c-0.696,0-1.258,0.565-1.258,1.256
	c0,0.69,0.555,1.25,1.243,1.255c-0.03,0.567-0.288,1.86-1.946,3.14c-0.168-0.5-0.634-0.86-1.189-0.86
	c-0.695,0-1.258,0.562-1.258,1.256c0,0.697,0.563,1.258,1.258,1.26c0.588-0.002,1.076-0.404,1.214-0.95
	c0.64,0.615,1.971,2.018,1.97,3.308l-0.032-0.003c-0.696,0-1.257,0.561-1.257,1.257c0,0.693,0.561,1.258,1.257,1.258
	c0.695,0,1.256-0.564,1.256-1.258c0-0.421-0.207-0.791-0.523-1.018c0.692-0.536,2.401-1.7,4.456-1.979l0.144-0.014
	c-0.044,0.305-0.381,2.201-1.909,4.417c-0.215-0.382-0.624-0.644-1.095-0.644c-0.696,0-1.259,0.564-1.259,1.257
	c0,0.696,0.563,1.257,1.259,1.257c0.689,0,1.249-0.556,1.258-1.242c0.564,0.028,1.857,0.291,3.137,1.948
	c-0.499,0.167-0.861,0.634-0.861,1.19c0,0.696,0.565,1.259,1.255,1.26c0.696-0.001,1.26-0.564,1.26-1.26
	c0-0.587-0.401-1.075-0.945-1.215c0.614-0.638,2.018-1.969,3.306-1.969L43.7,33.115c0,0.695,0.563,1.256,1.256,1.256
	c0.696,0,1.261-0.561,1.261-1.256c0-0.694-0.564-1.258-1.261-1.258c-0.418,0-0.788,0.21-1.018,0.524
	c-0.52-0.677-1.634-2.313-1.949-4.294l0.125,0.011l0.026-0.154L42.117,28.1c2.055,0.28,3.762,1.444,4.453,1.981
	c-0.312,0.229-0.522,0.597-0.522,1.016c0,0.692,0.565,1.256,1.261,1.256c0.693,0,1.256-0.564,1.256-1.256
	c0-0.697-0.563-1.258-1.256-1.258l-0.031,0.004c-0.004-1.291,1.331-2.695,1.969-3.307c0.138,0.542,0.628,0.946,1.214,0.948
	c0.692-0.002,1.258-0.563,1.258-1.259C51.719,25.527,51.153,24.965,50.461,24.965z M49.52,26.28l-0.014-0.057l0.024-0.205
	c0.097-0.424,0.474-0.745,0.928-0.745c0.525,0,0.946,0.425,0.947,0.949c-0.001,0.526-0.422,0.949-0.947,0.952
	C49.956,27.172,49.544,26.78,49.52,26.28z M47.31,20.482c0.526,0,0.946,0.423,0.947,0.948c-0.001,0.517-0.412,0.935-0.926,0.948
	H47.31c-0.118,0-0.225-0.023-0.324-0.06c-0.365-0.133-0.625-0.479-0.628-0.889C46.36,20.906,46.783,20.482,47.31,20.482z
	 M44.956,18.46c0.527,0.001,0.95,0.425,0.95,0.952c0,0.524-0.423,0.948-0.95,0.949c-0.352-0.001-0.645-0.189-0.811-0.471
	l-0.076-0.152l-0.007-0.021l-0.038-0.15l-0.018-0.157C44.012,18.885,44.434,18.461,44.956,18.46z M40.081,15.31
	c0.529,0,0.953,0.422,0.955,0.949c-0.002,0.506-0.398,0.915-0.895,0.945l-0.06,0.004l-0.201-0.023
	c-0.426-0.094-0.746-0.471-0.746-0.926C39.134,15.732,39.556,15.31,40.081,15.31z M34.342,19.412c0-0.527,0.425-0.951,0.949-0.951
	c0.518,0,0.935,0.413,0.945,0.926l0.007,0.023c0,0.115-0.024,0.221-0.063,0.325c-0.133,0.361-0.479,0.624-0.889,0.625
	C34.767,20.36,34.342,19.936,34.342,19.412z M33.908,21.431c0,0.41-0.259,0.756-0.624,0.889c-0.101,0.035-0.21,0.06-0.323,0.06
	l-0.022-0.002c-0.517-0.012-0.928-0.429-0.928-0.946c0-0.525,0.423-0.948,0.95-0.948C33.486,20.482,33.908,20.906,33.908,21.431z
	 M29.809,27.175c-0.524-0.003-0.951-0.426-0.951-0.952c0-0.524,0.427-0.949,0.951-0.949c0.455,0,0.832,0.322,0.925,0.746
	l0.025,0.204L30.75,26.28C30.723,26.78,30.314,27.172,29.809,27.175z M32.961,32.047c-0.527-0.002-0.95-0.425-0.95-0.95
	c0-0.523,0.423-0.948,0.95-0.948l0.155,0.014l0.151,0.04l0.023,0.006l0.149,0.072c0.282,0.164,0.471,0.465,0.474,0.815
	C33.908,31.623,33.486,32.045,32.961,32.047z M35.29,34.068c-0.528-0.002-0.95-0.424-0.952-0.951
	c0.002-0.524,0.424-0.948,0.952-0.948c0.41,0,0.755,0.257,0.888,0.625c0.036,0.102,0.062,0.21,0.062,0.323l-0.006,0.024
	C36.225,33.655,35.806,34.066,35.29,34.068z M39.134,36.269c0-0.455,0.32-0.831,0.746-0.925l0.201-0.023l0.061,0.004
	c0.494,0.032,0.892,0.44,0.894,0.944c-0.002,0.526-0.427,0.952-0.955,0.952C39.556,37.22,39.134,36.795,39.134,36.269L39.134,36.269
	z M44.146,32.64c0.166-0.277,0.464-0.469,0.814-0.469c0.527,0,0.949,0.424,0.949,0.948c0,0.526-0.422,0.949-0.949,0.951
	c-0.526-0.002-0.946-0.425-0.95-0.951l0.019-0.156l0.038-0.15l0.005-0.021L44.146,32.64z M41.979,27.781l-0.195,0.014l-0.148,0.023
	l0.02,0.152c0.309,2.226,1.587,4.032,2.107,4.689l-0.011,0.007l0.022,0.037l0.042,0.071l-0.067,0.002l-0.201,0.012
	c-1.568,0.121-3.049,1.709-3.531,2.22c-1.372-1.858-2.836-2.158-3.477-2.186c1.792-2.534,2.061-4.715,2.065-4.732l0.018-0.116
	l0.023-0.147L38.497,27.8l-0.195-0.017L38.101,27.8c-2.221,0.305-4.027,1.586-4.684,2.106l-0.003-0.002l-0.026,0.023l-0.081,0.028
	L33.303,29.9l-0.012-0.208c-0.125-1.566-1.711-3.048-2.222-3.527c1.858-1.373,2.157-2.839,2.185-3.478
	c2.536,1.793,4.716,2.062,4.733,2.064l0.475,0.039l0.195,0.019l-0.052-0.366c-0.004-0.015-0.273-2.195-2.065-4.731
	c0.639-0.025,2.105-0.329,3.477-2.182c0.489,0.517,2,2.138,3.587,2.225l0.012,0.008l0.142,0.022l0.025,0.003l-0.013,0.054
	l-0.018,0.031l0.004,0.005c-0.522,0.654-1.802,2.461-2.109,4.69l-0.002,0.061l-0.004,0.164l0.164-0.01h0.01
	c0.073,0,0.285,0,0.463-0.027c0.009,0,2.191-0.27,4.725-2.063c0.023,0.639,0.331,2.107,2.183,3.478
	c-0.514,0.488-2.138,2-2.228,3.589l-0.006,0.01l0.003,0.134l0.003,0.096l-0.081-0.071l-0.029-0.025l-0.008,0.009
	c-0.656-0.52-2.463-1.8-4.687-2.106v-0.001L41.979,27.781L41.979,27.781z M46.36,31.1c0-0.348,0.188-0.648,0.466-0.814l0.156-0.074
	l0.023-0.007l0.146-0.04l0.162-0.014c0.524,0,0.945,0.425,0.945,0.948c0,0.524-0.421,0.947-0.945,0.95
	C46.781,32.045,46.36,31.623,46.36,31.1z"/>
<path fill="#FFF100" d="M47.01,22.683c-2.532,1.795-4.713,2.063-4.723,2.063c-0.178,0.029-0.393,0.03-0.461,0.03h-0.014
	l-0.163,0.007l0.003-0.165l0.002-0.06c0.311-2.227,1.588-4.036,2.111-4.691l-0.004-0.003l0.017-0.032l0.015-0.054l-0.025-0.003
	l-0.145-0.021l-0.009-0.008c-1.59-0.084-3.104-1.709-3.591-2.227c-1.37,1.853-2.837,2.155-3.475,2.182
	c1.791,2.536,2.061,4.715,2.064,4.731l0.052,0.365l-0.195-0.018l-0.476-0.04c-0.015-0.001-2.197-0.27-4.732-2.064
	c-0.029,0.639-0.327,2.105-2.185,3.478c0.511,0.479,2.095,1.96,2.222,3.527l0.014,0.208l0.002,0.055l0.082-0.029l0.026-0.021
	l0.002,0.002c0.657-0.52,2.464-1.802,4.684-2.105l0.201-0.018l0.195,0.018l0.149,0.026l-0.023,0.148l-0.018,0.117
	c-0.003,0.017-0.274,2.197-2.064,4.732c0.639,0.028,2.105,0.329,3.475,2.187c0.484-0.512,1.963-2.097,3.531-2.222l0.203-0.012
	l0.067-0.002l-0.042-0.071l-0.021-0.036l0.011-0.007c-0.521-0.657-1.8-2.465-2.107-4.688l-0.021-0.153l0.147-0.024l0.198-0.013
	l0.185,0.012v0.001c2.226,0.306,4.026,1.586,4.684,2.106l0.01-0.01l0.029,0.025l0.078,0.071l-0.002-0.096l-0.002-0.133l0.004-0.01
	c0.089-1.586,1.712-3.101,2.229-3.588C47.342,24.791,47.038,23.322,47.01,22.683L47.01,22.683z M39.881,17.185l0.202,0.023
	l0.059-0.004c0.499-0.03,0.893-0.439,0.895-0.946c-0.002-0.526-0.426-0.948-0.954-0.948c-0.525,0-0.948,0.422-0.948,0.948
	C39.134,16.714,39.456,17.091,39.881,17.185z M35.29,20.361c0.411-0.001,0.756-0.261,0.889-0.625
	c0.036-0.104,0.063-0.212,0.063-0.324l-0.007-0.024c-0.01-0.513-0.427-0.926-0.945-0.927c-0.524,0.001-0.949,0.426-0.949,0.952
	C34.342,19.936,34.767,20.36,35.29,20.361z M44.063,19.717l0.007,0.021l0.076,0.152c0.164,0.282,0.459,0.47,0.811,0.471
	c0.527-0.001,0.95-0.425,0.95-0.951s-0.423-0.95-0.95-0.951c-0.524,0.001-0.946,0.425-0.949,0.951l0.018,0.158L44.063,19.717z
	 M40.142,35.327l-0.061-0.004l-0.201,0.023c-0.426,0.094-0.746,0.47-0.746,0.925c0.001,0.526,0.423,0.952,0.947,0.952
	c0.528,0,0.953-0.425,0.955-0.952C41.033,35.765,40.635,35.358,40.142,35.327z M35.29,32.171c-0.528,0-0.95,0.424-0.952,0.948
	c0.002,0.526,0.424,0.949,0.952,0.951c0.517-0.002,0.934-0.414,0.944-0.928l0.006-0.023c0-0.116-0.024-0.221-0.062-0.323
	C36.044,32.428,35.701,32.171,35.29,32.171z M44.956,32.171c-0.352,0-0.648,0.192-0.813,0.469l-0.074,0.154l-0.007,0.021
	l-0.038,0.15l-0.018,0.158c0.003,0.525,0.425,0.948,0.949,0.951c0.527-0.003,0.95-0.426,0.95-0.951
	C45.906,32.597,45.483,32.171,44.956,32.171z M50.461,25.275c-0.455,0-0.832,0.322-0.928,0.746l-0.022,0.204l0.01,0.058
	c0.023,0.498,0.438,0.892,0.942,0.895c0.524-0.003,0.945-0.425,0.947-0.952C51.408,25.7,50.987,25.275,50.461,25.275z
	 M46.985,22.319c0.1,0.035,0.206,0.06,0.324,0.06h0.021c0.514-0.014,0.925-0.431,0.926-0.948c-0.001-0.525-0.421-0.948-0.947-0.948
	s-0.949,0.423-0.952,0.948C46.36,21.84,46.62,22.187,46.985,22.319z M47.31,30.151l-0.159,0.014l-0.146,0.04l-0.025,0.007
	l-0.158,0.074c-0.276,0.165-0.463,0.466-0.463,0.814c0,0.524,0.422,0.947,0.948,0.95c0.527-0.002,0.948-0.425,0.948-0.95
	C48.257,30.576,47.836,30.151,47.31,30.151z M29.809,25.275c-0.524,0-0.951,0.425-0.951,0.949c0,0.527,0.427,0.949,0.951,0.952
	c0.504-0.003,0.914-0.396,0.945-0.895l0.007-0.058l-0.025-0.204C30.643,25.597,30.267,25.275,29.809,25.275z M32.941,22.377
	l0.022,0.002c0.115,0,0.222-0.023,0.324-0.06c0.362-0.133,0.624-0.48,0.624-0.889c0-0.525-0.422-0.948-0.947-0.948
	c-0.526,0-0.95,0.423-0.95,0.948C32.011,21.948,32.424,22.365,32.941,22.377z M33.437,30.284l-0.15-0.072l-0.022-0.006l-0.151-0.041
	l-0.155-0.014c-0.527,0-0.95,0.425-0.95,0.948c0,0.524,0.423,0.947,0.95,0.95c0.525-0.002,0.947-0.425,0.949-0.95
	C33.908,30.75,33.719,30.45,33.437,30.284z"/>
<path fill="#EE3A33" d="M38.859,27.302c-1.814-0.212-5.271,1.786-5.271,1.786c0-1.236-1.562-2.703-1.761-2.899
	c1.86-1.311,1.648-2.742,1.648-2.742c2.04,1.702,5.438,1.861,5.438,1.861l0.256,0.002c0,0-0.162-3.342-1.862-5.385
	c0,0,1.431,0.213,2.744-1.646c0.193,0.198,1.664,1.761,2.897,1.761c0,0-1.994,3.452-1.782,5.268h0.192c0,0,3.397-0.162,5.441-1.861
	c0,0-0.216,1.432,1.644,2.742c-0.196,0.196-1.764,1.665-1.764,2.899c0,0-3.447-1.996-5.266-1.786l-0.248,0.038
	c-0.212,1.815,1.782,5.146,1.782,5.146c-1.233,0-2.705,1.57-2.897,1.764c-1.313-1.86-2.744-1.646-2.744-1.646
	c1.703-2.043,1.853-5.277,1.853-5.277L38.859,27.302L38.859,27.302z"/>
<path fill="#FFFFFF" d="M27.975,56.284c0,0.132-0.065,0.196-0.195,0.196h-2.438c-0.127,0-0.195-0.064-0.195-0.196V45.229
	c0-0.128-0.065-0.197-0.196-0.197h-3.178c-0.129,0-0.197-0.063-0.197-0.195V42.69c0-0.124,0.068-0.192,0.197-0.192h9.577
	c0.133,0,0.195,0.068,0.195,0.192v2.146c0,0.132-0.062,0.195-0.195,0.195h-3.18c-0.128,0-0.195,0.069-0.195,0.197V56.284z"/>
<path fill="#7770AA" d="M35.259,45.11c0-0.442,0.068-0.827,0.211-1.151c0.143-0.324,0.342-0.592,0.597-0.809
	c0.25-0.212,0.551-0.377,0.896-0.488c0.344-0.111,0.718-0.164,1.121-0.164h6.824c0.13,0,0.195,0.068,0.195,0.192v2.146
	c0,0.132-0.065,0.195-0.195,0.195h-5.889c-0.351,0-0.593,0.095-0.729,0.284c-0.138,0.189-0.207,0.46-0.207,0.811v1.851
	c0,0.145,0.068,0.214,0.195,0.214h5.986c0.129,0,0.194,0.068,0.194,0.196v2.143c0,0.129-0.065,0.196-0.194,0.196h-5.986
	c-0.127,0-0.195,0.071-0.195,0.215v5.342c0,0.132-0.066,0.196-0.195,0.196H35.45c-0.129,0-0.191-0.064-0.191-0.196V45.11z"/>
<path fill="#FFFFFF" d="M48.892,46.846c0-0.56,0.076-1.087,0.235-1.579c0.073-0.285,0.184-0.53,0.322-0.729
	c0.135-0.202,0.272-0.389,0.416-0.559c0.402-0.466,0.886-0.826,1.44-1.089c0.563-0.26,1.161-0.392,1.796-0.392h5.171
	c0.129,0,0.199,0.068,0.199,0.192v2.146c0,0.132-0.07,0.195-0.199,0.195h-5.049c-0.509,0.106-0.885,0.367-1.132,0.791
	c-0.25,0.423-0.372,0.97-0.372,1.646v4.936c0.039,0.456,0.188,0.817,0.441,1.084c0.255,0.265,0.608,0.417,1.063,0.457h5.049
	c0.129,0,0.199,0.067,0.199,0.196v2.143c0,0.132-0.07,0.196-0.199,0.196h-4.993c-0.391,0-0.732-0.033-1.032-0.107
	c-0.299-0.071-0.559-0.155-0.779-0.241c-0.491-0.184-0.938-0.481-1.327-0.89c-0.392-0.409-0.711-0.9-0.956-1.475
	c-0.068-0.143-0.129-0.335-0.198-0.576c-0.067-0.239-0.097-0.539-0.097-0.887v-5.461L48.892,46.846L48.892,46.846z"/>
</svg>
