<?xml version="1.0" encoding="utf-8"?>
<!-- Generator: Adobe Illustrator 16.0.0, SVG Export Plug-In . SVG Version: 6.00 Build 0)  -->
<!DOCTYPE svg PUBLIC "-//W3C//DTD SVG 1.1//EN" "http://www.w3.org/Graphics/SVG/1.1/DTD/svg11.dtd">
<svg version="1.1" id="Calque_1" xmlns="http://www.w3.org/2000/svg" xmlns:xlink="http://www.w3.org/1999/xlink" x="0px" y="0px"
	 width="80px" height="80px" viewBox="0 0 80 80" enable-background="new 0 0 80 80" xml:space="preserve">
<circle fill="#FFFFFF" cx="38.996" cy="44.943" r="26.972"/>
<path fill="#231F20" d="M29.082,38.729h-6.167v-3.354l-1.074-1.874v-3.309h1.644v1.164h1.442v-1.164h1.873v1.164h1.782v-1.129h1.572
	v3.138l-0.938,1.88L29.082,38.729z M42.771,34.269h-6.168V30.92l-1.071-1.878v-3.307h1.64v1.16h1.444v-1.16h1.872v1.16h1.779v-1.126
	h1.574v3.135l-0.942,1.878L42.771,34.269z M55.381,39.344h-6.163v-3.351l-1.075-1.879v-3.306h1.644v1.162h1.438v-1.162H53.1v1.162
	h1.78v-1.126h1.57v3.136l-0.938,1.877L55.381,39.344z"/>
<path fill="#44C7F4" d="M39.659,53.999c-2.534-1.632-25.04-16.16-25.04-16.16l-2.834,4.399l27.861,17.984l28.329-18.129l-2.818-4.41
	C65.156,37.682,42.201,52.375,39.659,53.999z"/>
<path fill="#231F20" d="M65.048,37.515c0,0-25.176,16.117-25.389,16.252l-25.102-16.2l-3.049,4.724l28.139,18.161L68.25,42.146
	l-3.031-4.735L65.048,37.515 M39.763,54.16c0,0,25.008-16.001,25.335-16.211c0.187,0.297,2.422,3.785,2.612,4.079
	c-0.328,0.21-27.851,17.824-28.063,17.959c-0.212-0.135-27.272-17.603-27.594-17.811c0.188-0.295,2.433-3.773,2.627-4.064
	c0.324,0.21,24.979,16.122,24.979,16.122L39.763,54.16z"/>
<path fill="#44C7F4" d="M67.975,47.313L39.646,65.448l-27.861-17.98c0,0,6.338,23.33,27.714,23.022
	C60.879,70.184,67.975,47.313,67.975,47.313z"/>
<path fill="#231F20" d="M67.859,47.152c0,0-28.016,17.929-28.226,18.063c-0.208-0.137-28.192-18.193-28.192-18.193l0.133,0.494
	c0.068,0.236,6.631,23.477,27.915,23.172c21.271-0.307,28.589-23.083,28.661-23.313l0.161-0.513L67.859,47.152 M39.747,65.613
	l27.848-17.828c-1.222,3.391-8.918,22.231-28.109,22.506c-19.25,0.279-26.291-19.003-27.373-22.369
	c0.874,0.563,27.521,17.758,27.521,17.758L39.747,65.613z M38.742,48.263c0,0,1.74-0.401,1.772-0.848c0,0-0.8-0.842-2.131-0.643
	c-1.332,0.2-2.495,0.605-3.335-0.36c0,0-1.252,0.767-1.894-0.444c-0.642-1.202-1.451-1.609-1.451-1.609s0.73-0.681,1.25-0.681
	c0.521,0,0.723,1.65,1.568,1.65c0,0,0.365-0.727-0.243-1.412c-0.603-0.68-1.203-1.367-0.923-2.532
	c0.281-1.172,1.614-2.459,3.54-2.496c0,0-1.285,0.925-0.685,2.093c0,0-1.284,0.684-1.162,1.81c0.12,1.126,1.326,0.686,1.326,0.686
	s0.039-0.447-0.32-0.488l0.116-0.361c0,0,0.079,0.285,0.606,0.323c0,0,0.165-0.483-0.446-0.681l0.121-0.486l0.845-0.118
	c0,0,0.766,0.443,1.007,1.209c0,0,0.525,0.441,1.087,0.441c0,0-0.563,0.565-1.168,0.565h-0.601c0,0-0.2,0.962,0.646,0.886
	c0.847-0.08,1.769-0.487,2.82-1.654c0,0,0.883,0.443,2.494,0.364c1.613-0.082,2.935,0.762,2.455,2.492
	c-0.489,1.734-3.224,1.171-3.224,1.171l0.608-1.487c0,0,0.725,0.8,1.523,0.439c0.803-0.36,0.125-1.487-0.601-1.528
	c-0.726-0.04-1.131,0.123-1.131,0.123s-1.242,0.924-1.523,1.61l-0.125,1.485c0,0-0.798,1.247-1.527,1.289
	c-0.721,0.04-1.693-0.604-1.693-0.604L38.742,48.263z"/>
<path fill="#FFE600" d="M36.684,39.157c0,0,2-1.056,5.998,0.839c0,0-1.791,0.948-3.58,0.734c-1.792-0.208-1.994-0.946-1.994-0.946
	l-0.738,0.738C36.37,40.522,35.633,40.101,36.684,39.157z"/>
<path fill="#231F20" d="M7.89,28.183l2.682,1.561l-0.438,0.775l-2.679-1.559l-0.668,1.188l-0.551-0.32l1.796-3.203l0.543,0.32
	L7.89,28.183z M9.521,23.989c0.482-0.708,0.884-1.1,1.208-1.173c0.321-0.073,0.804,0.118,1.449,0.567
	c0.699,0.495,1.069,0.908,1.113,1.242c0.047,0.331-0.203,0.895-0.736,1.677c-0.477,0.711-0.879,1.106-1.202,1.185
	c-0.317,0.082-0.785-0.093-1.401-0.524c-0.726-0.516-1.115-0.939-1.166-1.275C8.737,25.354,8.983,24.786,9.521,23.989 M9.981,24.399
	c-0.334,0.498-0.479,0.824-0.439,0.979c0.046,0.154,0.363,0.441,0.956,0.86c0.442,0.309,0.742,0.447,0.896,0.414
	c0.161-0.035,0.4-0.293,0.729-0.774c0.308-0.462,0.448-0.772,0.4-0.936c-0.037-0.158-0.309-0.424-0.825-0.784
	s-0.846-0.53-0.994-0.51C10.544,23.666,10.307,23.919,9.981,24.399z M13.553,19.075l0.563-0.693l1.921,1.604
	c0.399,0.333,0.581,0.652,0.55,0.957c-0.027,0.302-0.285,0.753-0.765,1.354c-0.517,0.64-0.916,1.005-1.193,1.102
	c-0.28,0.096-0.621-0.021-1.012-0.35l-1.949-1.629l0.556-0.69l1.955,1.631c0.208,0.178,0.381,0.241,0.518,0.194
	c0.129-0.052,0.34-0.256,0.63-0.614c0.296-0.364,0.453-0.621,0.469-0.764c0.017-0.138-0.085-0.305-0.306-0.492L13.553,19.075z
	 M17.556,20.228l-2.45-2.86l1.731-1.532c0.426-0.379,0.778-0.582,1.041-0.604c0.271-0.023,0.542,0.123,0.813,0.441
	c0.249,0.292,0.377,0.526,0.386,0.706c0.009,0.176-0.094,0.398-0.313,0.662l0.017,0.019c0.409-0.328,0.761-0.31,1.057,0.042
	l0.54,0.629l-0.659,0.588l-0.453-0.524c-0.249-0.292-0.55-0.282-0.908,0.036l-0.962,0.851l0.82,0.961L17.556,20.228 M17.001,18.22
	l0.958-0.847c0.23-0.205,0.353-0.372,0.367-0.503c0.018-0.133-0.057-0.298-0.23-0.496c-0.171-0.206-0.318-0.305-0.433-0.308
	c-0.113-0.001-0.284,0.089-0.499,0.282l-1.004,0.893L17.001,18.22L17.001,18.22z M22.186,13.29l-0.711,0.496l-0.049-0.061
	c-0.136-0.165-0.257-0.242-0.369-0.234c-0.108,0.006-0.31,0.112-0.6,0.314c-0.346,0.24-0.554,0.424-0.621,0.551
	c-0.071,0.124-0.056,0.269,0.055,0.435c0.136,0.199,0.258,0.285,0.371,0.27c0.111-0.021,0.424-0.185,0.919-0.504
	c0.589-0.364,0.998-0.555,1.244-0.563c0.236-0.008,0.466,0.153,0.692,0.49c0.281,0.421,0.363,0.757,0.251,1.011
	c-0.116,0.259-0.512,0.622-1.182,1.084c-0.605,0.419-1.044,0.639-1.326,0.656c-0.272,0.02-0.536-0.152-0.778-0.516L20,16.604
	l0.713-0.492l0.045,0.064c0.146,0.219,0.288,0.32,0.409,0.304c0.127-0.019,0.398-0.17,0.821-0.462
	c0.324-0.225,0.514-0.395,0.567-0.517c0.053-0.116,0.008-0.279-0.127-0.487c-0.102-0.148-0.21-0.228-0.308-0.23
	c-0.1,0-0.266,0.07-0.506,0.219l-0.416,0.253c-0.625,0.394-1.06,0.594-1.3,0.605c-0.241,0.006-0.481-0.165-0.722-0.527
	c-0.248-0.367-0.309-0.679-0.186-0.939c0.123-0.263,0.487-0.606,1.094-1.027c0.575-0.4,1.008-0.616,1.277-0.644
	c0.281-0.026,0.524,0.125,0.736,0.445L22.186,13.29z M27.466,10.773l0.317,0.937l1.971-0.661l0.192,0.563l-1.975,0.661l0.489,1.443
	l-0.833,0.278l-1.182-3.507l2.909-0.975l0.188,0.563L27.466,10.773z M32.411,8.669c0.833-0.132,1.39-0.107,1.66,0.073
	c0.279,0.18,0.482,0.655,0.606,1.422c0.136,0.833,0.104,1.38-0.105,1.634c-0.208,0.259-0.771,0.461-1.697,0.61
	c-0.831,0.135-1.393,0.117-1.673-0.06c-0.28-0.175-0.478-0.627-0.599-1.357c-0.142-0.872-0.11-1.438,0.093-1.697
	C30.899,9.03,31.471,8.824,32.411,8.669 M32.439,9.281c-0.586,0.093-0.916,0.21-1.001,0.345c-0.076,0.135-0.059,0.555,0.056,1.264
	c0.09,0.525,0.196,0.832,0.33,0.92c0.132,0.088,0.483,0.088,1.05-0.003c0.535-0.091,0.855-0.202,0.94-0.337
	c0.086-0.141,0.085-0.513-0.02-1.128c-0.097-0.608-0.207-0.96-0.329-1.057C33.349,9.19,33.003,9.188,32.439,9.281z M37.602,7.931
	c0.849-0.044,1.393,0.039,1.647,0.252c0.253,0.21,0.409,0.704,0.446,1.475c0.048,0.848-0.052,1.387-0.284,1.619
	c-0.229,0.23-0.815,0.374-1.753,0.421c-0.843,0.042-1.396-0.037-1.649-0.241c-0.265-0.205-0.414-0.676-0.449-1.414
	c-0.047-0.878,0.047-1.441,0.274-1.677C36.064,8.126,36.655,7.979,37.602,7.931 M37.568,8.54c-0.595,0.032-0.942,0.108-1.034,0.234
	c-0.092,0.124-0.119,0.547-0.077,1.264c0.023,0.533,0.1,0.849,0.222,0.951c0.122,0.103,0.469,0.14,1.042,0.111
	c0.548-0.029,0.875-0.108,0.973-0.238c0.102-0.125,0.138-0.499,0.108-1.115c-0.032-0.619-0.102-0.985-0.213-1.089
	C38.481,8.548,38.139,8.507,37.568,8.54L37.568,8.54z M44.318,11.844l0.4-3.751l2.302,0.244c0.551,0.056,0.918,0.166,1.098,0.326
	c0.182,0.157,0.25,0.43,0.21,0.815c-0.047,0.464-0.307,0.711-0.78,0.746l-0.006,0.011c0.531,0.124,0.772,0.449,0.71,0.978
	c-0.038,0.382-0.169,0.64-0.391,0.77c-0.223,0.131-0.598,0.172-1.111,0.118L44.318,11.844 M45.27,11.344l0.982,0.103l0.313,0.027
	c0.298,0.034,0.496,0.02,0.604-0.041c0.1-0.057,0.163-0.195,0.185-0.416c0.024-0.226-0.007-0.375-0.103-0.444
	c-0.094-0.07-0.335-0.126-0.731-0.167l-1.138-0.119L45.27,11.344 M45.439,9.765l1.087,0.114c0.363,0.039,0.592,0.032,0.694-0.02
	c0.102-0.049,0.17-0.188,0.2-0.418c0.025-0.299-0.173-0.471-0.601-0.516L45.538,8.79L45.439,9.765z M51.69,12.937l-1.879-0.703
	l-0.521,0.561l-0.87-0.329l2.75-2.919l1.239,0.465l0.166,4.014l-0.86-0.321L51.69,12.937 M51.676,12.382l-0.069-2.091l-1.416,1.53
	L51.676,12.382z M55.86,11.578l-1.416,2.728l1.929,0.998l-0.287,0.56l-2.711-1.404l1.708-3.281L55.86,11.578z M59.442,13.593
	l-1.66,2.584l1.834,1.172l-0.34,0.529l-2.579-1.642l2.006-3.117L59.442,13.593z M65.24,22.214l0.585,0.703l-0.105,0.081
	c-0.403,0.343-0.749,0.47-1.027,0.379c-0.269-0.09-0.674-0.455-1.204-1.096c-0.603-0.73-0.879-1.253-0.83-1.581
	c0.055-0.321,0.493-0.825,1.319-1.512c0.487-0.404,0.904-0.559,1.242-0.46c0.34,0.104,0.81,0.514,1.415,1.237
	c0.428,0.527,0.658,0.932,0.682,1.213c0.016,0.28-0.162,0.575-0.539,0.885l-0.064,0.062l-0.585-0.704l0.077-0.059
	c0.193-0.163,0.278-0.309,0.259-0.446c-0.022-0.138-0.163-0.367-0.435-0.691c-0.355-0.436-0.612-0.658-0.774-0.68
	c-0.161-0.016-0.446,0.149-0.867,0.498c-0.563,0.469-0.866,0.784-0.908,0.95c-0.036,0.163,0.117,0.46,0.475,0.887
	c0.288,0.349,0.498,0.553,0.646,0.607c0.143,0.057,0.309-0.003,0.508-0.16L65.24,22.214z M69.312,22.721l-2.609,1.823l1.288,1.841
	l-0.536,0.373l-1.806-2.587l3.143-2.192L69.312,22.721z M72.136,28.28l0.323,0.846l-2.389,0.909
	c-0.493,0.189-0.868,0.193-1.115,0.02c-0.257-0.18-0.523-0.639-0.8-1.378c-0.298-0.779-0.422-1.321-0.364-1.621
	c0.063-0.302,0.334-0.544,0.819-0.727l2.423-0.928l0.323,0.849l-2.422,0.925c-0.268,0.098-0.407,0.223-0.435,0.368
	c-0.024,0.146,0.047,0.437,0.219,0.877c0.163,0.447,0.308,0.714,0.428,0.803c0.117,0.089,0.311,0.077,0.589-0.026L72.136,28.28z
	 M69.452,31.16l3.756-0.762l0.47,2.308c0.111,0.541,0.116,0.926,0.021,1.154c-0.099,0.227-0.345,0.376-0.727,0.454
	c-0.465,0.094-0.785-0.083-0.961-0.53L72,33.785c0.036,0.548-0.208,0.877-0.735,0.983c-0.38,0.081-0.676,0.03-0.871-0.145
	c-0.187-0.174-0.342-0.518-0.445-1.031L69.452,31.16 M70.23,31.926l0.195,0.981l0.065,0.31c0.061,0.297,0.135,0.489,0.225,0.57
	c0.091,0.084,0.241,0.1,0.464,0.053c0.225-0.045,0.361-0.123,0.398-0.235c0.037-0.111,0.017-0.364-0.066-0.753l-0.23-1.142
	L70.23,31.926 M71.814,31.607l0.218,1.09c0.065,0.353,0.147,0.577,0.226,0.66c0.086,0.087,0.241,0.106,0.468,0.058
	c0.294-0.061,0.401-0.306,0.316-0.732l-0.256-1.272L71.814,31.607z M26.03,13.507c0.023,0.571-0.417,1.058-0.998,1.083
	c-0.572,0.024-1.054-0.422-1.078-0.995c-0.024-0.568,0.417-1.057,0.99-1.081C25.525,12.489,26.006,12.938,26.03,13.507z
	 M62.706,18.782c-0.017,0.585-0.502,1.045-1.085,1.028c-0.587-0.018-1.04-0.504-1.024-1.09c0.02-0.584,0.502-1.039,1.088-1.021
	C62.27,17.717,62.724,18.198,62.706,18.782z M42.434,8.563l-0.047,3.069l-0.878-0.017l0.053-3.065l-1.348-0.024l0.009-0.631
	l3.621,0.062L43.83,8.579L42.434,8.563z"/>
<path fill="#FFE600" d="M26.333,42.55c0.112-0.774,1.633-0.369,0.82,0.253c2.058-0.231,0.813-1.992-0.683-1.289
	c0.897-0.918,0.017-1.85-0.462-1.961c-0.483,0.111-1.359,1.043-0.463,1.961c-1.496-0.705-2.29,1.056-0.682,1.289
	c-0.814-0.622,0.707-1.024,0.818-0.253H26.333z M26.333,42.55c0.066,0.259,0.273,0.711,0.749,0.883
	c-0.124,0.109-0.265,0.079-0.509,0.046c-0.045,0.151-0.334,0.379-0.566,0.399c-0.239-0.022-0.525-0.25-0.569-0.399
	c-0.244,0.033-0.385,0.063-0.509-0.046c0.475-0.172,0.707-0.63,0.769-0.89L26.333,42.55z"/>
<path fill="#231F20" d="M25.986,39.553v4.325c0,0,0.16-0.005,0.201-0.069v-4.164C26.187,39.646,26.064,39.524,25.986,39.553z"/>
<path fill="#FFE600" d="M39.866,23.42c0.113-0.773,1.633-0.369,0.82,0.252c2.058-0.23,0.814-1.993-0.682-1.287
	c0.897-0.918,0.017-1.851-0.462-1.962c-0.483,0.111-1.358,1.043-0.463,1.962c-1.496-0.705-2.29,1.057-0.683,1.287
	c-0.813-0.62,0.707-1.024,0.82-0.252H39.866L39.866,23.42z M39.866,23.42c0.066,0.26,0.274,0.712,0.75,0.885
	c-0.125,0.108-0.265,0.076-0.508,0.044c-0.046,0.151-0.334,0.38-0.566,0.4c-0.24-0.021-0.525-0.25-0.57-0.4
	c-0.244,0.033-0.383,0.065-0.508-0.044c0.475-0.173,0.707-0.631,0.769-0.892L39.866,23.42z"/>
<path fill="#231F20" d="M39.519,20.423v4.327c0,0,0.159-0.005,0.2-0.07v-4.164C39.719,20.517,39.597,20.395,39.519,20.423z"/>
<path fill="#FFE600" d="M53.161,43.025c0.112-0.773,1.633-0.368,0.82,0.252c2.057-0.23,0.813-1.992-0.682-1.286
	c0.896-0.921,0.017-1.852-0.464-1.962c-0.484,0.111-1.359,1.042-0.461,1.962c-1.497-0.706-2.289,1.056-0.68,1.286
	c-0.817-0.62,0.705-1.024,0.818-0.252H53.161z M53.161,43.025c0.067,0.258,0.273,0.712,0.75,0.884
	c-0.125,0.108-0.266,0.075-0.509,0.045c-0.045,0.151-0.336,0.38-0.566,0.4c-0.239-0.023-0.526-0.251-0.571-0.4
	c-0.245,0.03-0.384,0.063-0.508-0.045c0.476-0.172,0.705-0.632,0.77-0.892L53.161,43.025z"/>
<path fill="#231F20" d="M52.815,40.029v4.326c0,0,0.159-0.005,0.2-0.07v-4.165C53.014,40.121,52.891,39.999,52.815,40.029z"/>
<linearGradient id="SVGID_1_" gradientUnits="userSpaceOnUse" x1="465.002" y1="595.0488" x2="524.8359" y2="595.0488" gradientTransform="matrix(1 0 0 1 -455.0801 -550.8594)">
	<stop  offset="0.045" style="stop-color:#808184"/>
	<stop  offset="0.079" style="stop-color:#858689"/>
	<stop  offset="0.119" style="stop-color:#949597"/>
	<stop  offset="0.164" style="stop-color:#ACADAF"/>
	<stop  offset="0.211" style="stop-color:#CFCFD0"/>
	<stop  offset="0.259" style="stop-color:#FAFAFA"/>
	<stop  offset="0.264" style="stop-color:#FFFFFF"/>
	<stop  offset="0.317" style="stop-color:#DBDBDC"/>
	<stop  offset="0.374" style="stop-color:#BBBCBE"/>
	<stop  offset="0.43" style="stop-color:#A4A6A9"/>
	<stop  offset="0.482" style="stop-color:#97999B"/>
	<stop  offset="0.528" style="stop-color:#929497"/>
	<stop  offset="0.575" style="stop-color:#A4A6A9"/>
	<stop  offset="0.67" style="stop-color:#D4D5D6"/>
	<stop  offset="0.747" style="stop-color:#FFFFFF"/>
	<stop  offset="0.989" style="stop-color:#808184"/>
</linearGradient>
<path fill="url(#SVGID_1_)" d="M39.839,14.273c-16.522,0-29.917,13.394-29.917,29.916c0,16.524,13.394,29.917,29.917,29.917
	c16.524,0,29.917-13.393,29.917-29.917C69.756,27.667,56.362,14.273,39.839,14.273z M39.839,68.547
	c-13.452,0-24.357-10.904-24.357-24.357c0-13.452,10.905-24.357,24.357-24.357c13.452,0,24.357,10.906,24.357,24.357
	C64.196,57.642,53.291,68.547,39.839,68.547z"/>
<path fill="#231F20" d="M35.281,16.105l0.505,2.929l-1.011,0.171l-0.328-1.911c-0.143,0.125-0.288,0.233-0.433,0.32
	c-0.14,0.088-0.32,0.178-0.545,0.271l-0.11-0.648c0.325-0.142,0.57-0.296,0.733-0.453c0.169-0.155,0.289-0.336,0.361-0.537
	L35.281,16.105z M36.928,18.215l0.999-0.144c0.033,0.108,0.081,0.188,0.147,0.229c0.069,0.046,0.146,0.066,0.237,0.058
	c0.165-0.008,0.288-0.08,0.376-0.215c0.061-0.101,0.105-0.305,0.12-0.621c-0.116,0.104-0.24,0.185-0.365,0.237
	c-0.125,0.053-0.271,0.083-0.441,0.091c-0.326,0.017-0.605-0.062-0.844-0.24c-0.231-0.174-0.355-0.403-0.373-0.688
	c-0.006-0.193,0.042-0.374,0.144-0.54c0.108-0.165,0.261-0.294,0.457-0.386c0.198-0.092,0.45-0.146,0.753-0.16
	c0.362-0.017,0.658,0.019,0.883,0.109c0.225,0.091,0.41,0.24,0.554,0.452c0.143,0.211,0.224,0.498,0.24,0.853
	c0.023,0.527-0.097,0.919-0.362,1.179c-0.264,0.257-0.642,0.396-1.14,0.422c-0.287,0.012-0.516-0.001-0.688-0.045
	c-0.168-0.043-0.313-0.117-0.43-0.212C37.084,18.496,36.996,18.369,36.928,18.215 M38.736,16.825
	c-0.008-0.157-0.065-0.281-0.169-0.367c-0.104-0.086-0.228-0.122-0.367-0.117c-0.138,0.006-0.249,0.053-0.334,0.14
	c-0.083,0.086-0.123,0.209-0.116,0.372c0.008,0.164,0.061,0.29,0.161,0.371c0.097,0.083,0.213,0.12,0.349,0.115
	c0.145-0.007,0.26-0.054,0.353-0.144C38.705,17.107,38.742,16.982,38.736,16.825z M41.018,15.847l2.396,0.172l-0.046,0.649
	l-1.623-0.118l-0.118,0.428l0.346-0.071l0.324-0.01c0.364,0.027,0.654,0.137,0.867,0.33c0.213,0.191,0.313,0.421,0.292,0.692
	c-0.01,0.189-0.082,0.366-0.215,0.53c-0.127,0.167-0.307,0.286-0.521,0.361c-0.226,0.077-0.497,0.1-0.834,0.077
	c-0.24-0.017-0.445-0.05-0.613-0.098c-0.168-0.046-0.307-0.112-0.426-0.195c-0.115-0.079-0.203-0.168-0.276-0.267
	c-0.063-0.097-0.121-0.217-0.161-0.357l1.027-0.017c0.018,0.136,0.066,0.24,0.154,0.317c0.089,0.076,0.194,0.119,0.32,0.125
	c0.137,0.01,0.26-0.023,0.357-0.104c0.102-0.077,0.154-0.203,0.162-0.373c0.019-0.176-0.021-0.31-0.111-0.396
	c-0.082-0.087-0.203-0.137-0.355-0.151c-0.101-0.003-0.193,0.006-0.285,0.04l-0.235,0.135l-0.858-0.162L41.018,15.847z
	 M46.701,16.541l-0.579,2.912l-1.004-0.195l0.377-1.905c-0.183,0.065-0.352,0.114-0.521,0.145c-0.165,0.029-0.369,0.051-0.606,0.057
	l0.129-0.641c0.354-0.02,0.637-0.076,0.851-0.161c0.213-0.088,0.391-0.214,0.53-0.372L46.701,16.541z"/>
<linearGradient id="SVGID_2_" gradientUnits="userSpaceOnUse" x1="-2307.9019" y1="-4151.5879" x2="-2288.6072" y2="-4151.5879" gradientTransform="matrix(1 0 0 1 3567.4199 4189.6406)">
	<stop  offset="0.045" style="stop-color:#D0D2D3"/>
	<stop  offset="0.156" style="stop-color:#DBDCDD"/>
	<stop  offset="0.332" style="stop-color:#E5E5E6"/>
	<stop  offset="0.551" style="stop-color:#E8E8E9"/>
	<stop  offset="0.702" style="stop-color:#DEDFE0"/>
	<stop  offset="0.989" style="stop-color:#D0D2D3"/>
</linearGradient>
<path fill="url(#SVGID_2_)" d="M16.608,57.987c-2.734-4.391-3.879-9.854-3.646-15.399c0.486-11.553,8.3-21.095,18.765-24.329
	l-0.221-0.49c-10.641,3.322-18.58,13.038-19.073,24.797c-0.24,5.687,0.952,11.28,3.766,15.771L16.608,57.987L16.608,57.987z"/>
<linearGradient id="SVGID_3_" gradientUnits="userSpaceOnUse" x1="-2271.5454" y1="-4152.8516" x2="-2254.2244" y2="-4152.8516" gradientTransform="matrix(1 0 0 1 3568.1523 4191.6582)">
	<stop  offset="0.045" style="stop-color:#D0D2D3"/>
	<stop  offset="0.156" style="stop-color:#DBDCDD"/>
	<stop  offset="0.332" style="stop-color:#E5E5E6"/>
	<stop  offset="0.551" style="stop-color:#E8E8E9"/>
	<stop  offset="0.702" style="stop-color:#DEDFE0"/>
	<stop  offset="0.989" style="stop-color:#D0D2D3"/>
</linearGradient>
<path fill="url(#SVGID_3_)" d="M49.839,19.099l-0.226,0.483c10.225,4.065,17.274,14.263,16.788,25.86
	c-0.195,4.683-1.599,9.031-3.889,12.765l0.434,0.308c2.344-3.818,3.784-8.262,3.988-13.049
	C67.432,33.646,60.251,23.252,49.839,19.099z"/>
<g>
	<path fill="#231F20" d="M18.312,58.439l1.195,1.677l-0.586,0.418l-0.402-0.563l-1.791,1.279l-0.393-0.548l1.792-1.281l-0.405-0.561
		L18.312,58.439z M20.621,61.431l0.44,0.511l-1.318,1.14c-0.132,0.113-0.263,0.199-0.406,0.271c-0.143,0.07-0.288,0.11-0.432,0.12
		c-0.14,0.01-0.26-0.004-0.361-0.05c-0.137-0.055-0.265-0.154-0.384-0.294l-0.206-0.282c-0.067-0.114-0.107-0.214-0.115-0.317
		c-0.013-0.106,0-0.216,0.035-0.347c0.037-0.117,0.092-0.23,0.164-0.327c0.113-0.154,0.225-0.274,0.333-0.367l1.313-1.143
		l0.446,0.512l-1.352,1.168c-0.121,0.102-0.197,0.21-0.219,0.315c-0.024,0.11,0.003,0.212,0.083,0.3
		c0.075,0.09,0.168,0.129,0.277,0.119c0.111-0.004,0.229-0.064,0.353-0.168L20.621,61.431z M19.346,64.366l2.021-2.111l0.814,0.776
		c0.148,0.144,0.252,0.272,0.296,0.383c0.045,0.113,0.054,0.238,0.012,0.379c-0.039,0.142-0.128,0.278-0.256,0.413
		c-0.114,0.116-0.225,0.2-0.345,0.25c-0.116,0.05-0.231,0.067-0.352,0.059l-0.249-0.077l0.055,0.2l-0.032,0.187l-0.055,0.195
		l-0.354,0.838l-0.549-0.532l0.357-0.894l0.064-0.247l-0.068-0.162l-0.044-0.041l-0.817,0.856L19.346,64.366 M21.045,63.578
		l0.202,0.195l0.157,0.095l0.14,0.01l0.143-0.09c0.067-0.068,0.105-0.136,0.105-0.203s-0.039-0.141-0.128-0.223l-0.212-0.205
		L21.045,63.578z M22.064,64.931c0.297-0.379,0.606-0.604,0.931-0.691c0.32-0.084,0.616-0.017,0.897,0.208
		c0.288,0.228,0.424,0.5,0.422,0.834c-0.009,0.322-0.158,0.675-0.453,1.042c-0.209,0.266-0.419,0.463-0.62,0.581
		c-0.208,0.117-0.407,0.173-0.616,0.169c-0.202-0.008-0.397-0.088-0.59-0.237c-0.191-0.153-0.325-0.321-0.379-0.507
		c-0.065-0.184-0.065-0.396,0-0.632C21.711,65.452,21.855,65.196,22.064,64.931 M22.594,65.353
		c-0.186,0.232-0.285,0.426-0.297,0.578c-0.016,0.153,0.032,0.273,0.142,0.359c0.114,0.091,0.242,0.113,0.386,0.063
		c0.137-0.05,0.313-0.203,0.513-0.455c0.174-0.218,0.265-0.401,0.278-0.556c0.012-0.154-0.036-0.271-0.149-0.359
		c-0.102-0.085-0.231-0.106-0.376-0.054C22.942,64.976,22.778,65.116,22.594,65.353z M25.04,65.39l0.528,0.343l-0.175,1.814
		l0.877-1.368l0.534,0.348l-1.571,2.459l-0.539-0.346l0.178-1.803l-0.875,1.354l-0.535-0.344L25.04,65.39z M26.435,67.999
		c0.217-0.428,0.474-0.713,0.771-0.856c0.301-0.146,0.609-0.142,0.926,0.022c0.325,0.163,0.518,0.406,0.572,0.729
		c0.057,0.321-0.015,0.695-0.232,1.113c-0.157,0.305-0.321,0.534-0.497,0.69c-0.177,0.158-0.366,0.251-0.565,0.285
		c-0.205,0.032-0.41-0.002-0.63-0.112c-0.215-0.116-0.376-0.255-0.474-0.419c-0.096-0.17-0.137-0.38-0.124-0.628
		C26.193,68.582,26.274,68.305,26.435,67.999 M27.035,68.309c-0.137,0.262-0.195,0.475-0.18,0.626
		c0.017,0.155,0.085,0.261,0.213,0.323c0.127,0.071,0.26,0.067,0.388-0.011c0.132-0.076,0.27-0.258,0.421-0.553
		c0.121-0.242,0.177-0.444,0.161-0.594c-0.019-0.151-0.091-0.259-0.215-0.326c-0.129-0.063-0.254-0.056-0.385,0.021
		C27.3,67.871,27.17,68.043,27.035,68.309z M28.384,70.584l1.066-2.717l1.051,0.414c0.193,0.076,0.334,0.157,0.417,0.24
		c0.087,0.083,0.137,0.201,0.152,0.344c0.018,0.147-0.006,0.306-0.075,0.479c-0.06,0.149-0.136,0.27-0.229,0.361
		c-0.088,0.09-0.188,0.151-0.301,0.188l-0.261,0.02l0.124,0.168l0.044,0.182l0.02,0.204l-0.003,0.91l-0.715-0.282l-0.006-0.963
		l-0.033-0.253l-0.129-0.121l-0.056-0.024l-0.432,1.103L28.384,70.584 M29.655,69.212l0.26,0.106l0.181,0.026l0.132-0.045
		l0.105-0.14c0.03-0.087,0.039-0.164,0.014-0.226c-0.023-0.059-0.09-0.117-0.207-0.158l-0.273-0.111L29.655,69.212z M32.971,69.093
		l0.648,0.187l-0.48,1.671c-0.048,0.165-0.112,0.315-0.193,0.459c-0.08,0.13-0.176,0.244-0.288,0.331
		c-0.117,0.086-0.225,0.139-0.329,0.158c-0.145,0.025-0.313,0.014-0.49-0.036l-0.321-0.126c-0.12-0.056-0.208-0.119-0.273-0.204
		c-0.071-0.078-0.119-0.182-0.16-0.307c-0.033-0.12-0.048-0.242-0.041-0.359c0.008-0.189,0.031-0.354,0.072-0.492l0.481-1.676
		l0.649,0.187l-0.489,1.713c-0.048,0.15-0.048,0.281-0.007,0.386c0.04,0.105,0.113,0.175,0.232,0.206
		c0.109,0.032,0.209,0.02,0.299-0.051c0.087-0.068,0.152-0.177,0.2-0.332L32.971,69.093z M34.021,69.381l0.882,0.152l0.028,1.809
		l0.637-1.689l0.882,0.153l-0.505,2.876l-0.549-0.097l0.385-2.197l-0.807,2.127l-0.488-0.089l-0.041-2.269l-0.381,2.194l-0.55-0.095
		L34.021,69.381z M39.314,71.703l0.584,0.256c-0.042,0.224-0.111,0.403-0.199,0.552c-0.097,0.146-0.201,0.256-0.334,0.325
		c-0.132,0.072-0.293,0.107-0.488,0.103c-0.236-0.01-0.43-0.062-0.58-0.161c-0.147-0.096-0.275-0.261-0.376-0.498
		c-0.104-0.234-0.149-0.535-0.141-0.896c0.016-0.483,0.125-0.854,0.321-1.106c0.2-0.255,0.482-0.376,0.834-0.363
		c0.276,0.006,0.49,0.089,0.641,0.24c0.152,0.156,0.265,0.387,0.333,0.696l-0.606,0.162l-0.061-0.196l-0.132-0.163l-0.176-0.062
		c-0.153-0.008-0.273,0.073-0.361,0.235c-0.064,0.118-0.1,0.313-0.109,0.574c-0.006,0.324,0.021,0.549,0.095,0.67
		c0.063,0.123,0.166,0.187,0.304,0.19c0.128,0.004,0.225-0.041,0.293-0.136C39.227,72.027,39.282,71.885,39.314,71.703z
		 M41.126,72.854l-0.684,0.025l-0.112-2.918l0.681-0.026L41.126,72.854z M41.279,69.95l0.703-0.076l0.724,2.037l0.257-2.139
		l0.681-0.078l-0.492,2.989l-0.733,0.081L41.279,69.95z M43.893,69.63l0.675-0.126l0.518,2.875l-0.67,0.124L43.893,69.63z
		 M44.896,69.455l1.997-0.5l0.177,0.697l-0.667,0.166l0.532,2.136l-0.653,0.164l-0.536-2.134l-0.675,0.169L44.896,69.455z
		 M49.046,70.8l-0.722,0.249l0.051,0.49l-0.657,0.226l-0.165-3.031l0.71-0.243l1.717,2.503l-0.677,0.23L49.046,70.8 M48.704,70.247
		l-0.562-0.918l0.112,1.074L48.704,70.247z M49.907,69.969l0.566-0.31c0.068,0.12,0.137,0.206,0.211,0.254
		c0.107,0.082,0.222,0.096,0.344,0.039c0.084-0.039,0.141-0.095,0.166-0.166c0.022-0.08,0.017-0.154-0.017-0.226
		c-0.026-0.07-0.079-0.119-0.149-0.157c-0.068-0.032-0.195-0.039-0.38-0.015c-0.309,0.04-0.554,0.021-0.728-0.065
		c-0.176-0.08-0.313-0.227-0.4-0.438c-0.065-0.137-0.095-0.28-0.09-0.429c0.009-0.147,0.058-0.283,0.14-0.407
		c0.091-0.121,0.239-0.229,0.447-0.324c0.256-0.112,0.482-0.137,0.67-0.068c0.189,0.066,0.364,0.233,0.509,0.496l-0.567,0.311
		c-0.069-0.117-0.141-0.188-0.216-0.217c-0.073-0.033-0.153-0.031-0.24,0.009c-0.072,0.031-0.118,0.076-0.137,0.133l0.017,0.17
		l0.097,0.095c0.048,0.021,0.126,0.021,0.253,0.002c0.301-0.039,0.533-0.05,0.687-0.023c0.15,0.03,0.278,0.09,0.384,0.182
		c0.108,0.096,0.191,0.214,0.259,0.358c0.078,0.172,0.112,0.348,0.106,0.526c-0.004,0.175-0.06,0.328-0.154,0.459
		c-0.09,0.13-0.231,0.24-0.43,0.327c-0.342,0.153-0.615,0.169-0.821,0.052C50.218,70.424,50.045,70.23,49.907,69.969z M52.155,66.72
		l0.578-0.352l1.143,1.883l0.9-0.547l0.377,0.618l-1.482,0.896L52.155,66.72z M56.149,67.623l-0.563,0.39l-1.674-2.396l0.561-0.393
		L56.149,67.623z M54.884,64.945l0.987-0.796c0.165-0.13,0.332-0.177,0.507-0.139c0.178,0.035,0.326,0.135,0.456,0.295
		c0.107,0.135,0.171,0.271,0.182,0.422c0.014,0.095-0.009,0.195-0.06,0.3c0.158-0.062,0.302-0.065,0.438-0.021
		c0.13,0.052,0.26,0.146,0.38,0.293c0.093,0.117,0.161,0.242,0.191,0.369c0.036,0.13,0.042,0.247,0.014,0.358
		c-0.02,0.071-0.064,0.15-0.14,0.235l-0.212,0.225l-0.91,0.733L54.884,64.945 M56.13,65.409l0.233-0.188
		c0.079-0.066,0.119-0.127,0.129-0.194c0-0.063-0.032-0.13-0.085-0.202l-0.173-0.114c-0.063-0.012-0.135,0.018-0.216,0.081
		l-0.232,0.188L56.13,65.409 M56.853,66.301l0.271-0.214c0.088-0.071,0.134-0.146,0.138-0.216c0-0.074-0.028-0.148-0.089-0.218
		c-0.049-0.069-0.111-0.107-0.182-0.118c-0.07-0.014-0.157,0.019-0.244,0.091l-0.263,0.216L56.853,66.301L56.853,66.301z
		 M56.709,63.446l1.313-1.267l0.435,0.447l-0.823,0.793l0.324,0.339l0.761-0.738l0.414,0.426l-0.766,0.738l0.401,0.415l0.842-0.813
		l0.459,0.476l-1.333,1.286L56.709,63.446z M60.496,63.812l-2.208-1.913l0.737-0.85c0.138-0.16,0.258-0.264,0.367-0.315
		c0.111-0.053,0.233-0.063,0.379-0.028c0.146,0.035,0.279,0.114,0.424,0.234c0.119,0.109,0.212,0.213,0.265,0.335
		c0.059,0.113,0.08,0.227,0.07,0.348l-0.063,0.25l0.195-0.063l0.189,0.022l0.201,0.046l0.851,0.308l-0.498,0.578l-0.915-0.313
		l-0.247-0.058l-0.162,0.082l-0.036,0.045l0.896,0.776L60.496,63.812 M59.626,62.151l0.186-0.214l0.084-0.155l0.002-0.141
		l-0.093-0.144c-0.071-0.06-0.142-0.089-0.212-0.089c-0.064,0.001-0.137,0.046-0.215,0.139l-0.192,0.222L59.626,62.151z
		 M62.583,60.43l-0.447,0.625l0.329,0.371l-0.405,0.562l-1.896-2.371l0.443-0.611l2.844,1.042l-0.415,0.579L62.583,60.43
		 M61.99,60.179l-0.997-0.422l0.72,0.813L61.99,60.179z"/>
</g>
</svg>
