<?xml version="1.0" encoding="utf-8"?>
<!-- Generator: Adobe Illustrator 16.0.0, SVG Export Plug-In . SVG Version: 6.00 Build 0)  -->
<!DOCTYPE svg PUBLIC "-//W3C//DTD SVG 1.1//EN" "http://www.w3.org/Graphics/SVG/1.1/DTD/svg11.dtd">
<svg version="1.1" id="Calque_2" xmlns="http://www.w3.org/2000/svg" xmlns:xlink="http://www.w3.org/1999/xlink" x="0px" y="0px"
	 width="80px" height="80px" viewBox="0 0 80 80" enable-background="new 0 0 80 80" xml:space="preserve">
<g>
	<path fill="#E20000" d="M13.604,34.751c0-14.797,11.996-26.793,26.792-26.793c14.798,0,26.793,11.996,26.793,26.793
		c0,17.478-15.926,40.046-26.793,40.317C29.529,75.341,13.604,52.229,13.604,34.751z"/>
	<path fill="#FFEC00" d="M14.389,34.949c0-14.363,11.643-26.007,26.006-26.007c14.364,0,26.008,11.644,26.008,26.007
		c0,16.965-15.46,38.872-26.008,39.136C29.848,74.348,14.389,51.914,14.389,34.949z"/>
	<path fill="#E20000" d="M40.396,10.746c-13.365,0-24.202,10.836-24.202,24.203c0,4.551,5.615,7.553,13.018,9.005
		c0.013-0.074,0.027-0.147,0.045-0.22c0.145-0.571,0.558-1.348,1.701-1.801c0.292-0.116,0.609-0.175,0.944-0.175h0.001
		c1.393,0,3.152,1.031,5.35,3.139c13.052,0.631,27.346-2.685,27.346-9.949C64.598,21.583,53.763,10.746,40.396,10.746z"/>
	<g>
		<g>
			<path fill="#1D1D1B" d="M46.583,53.263c0.291,2.298,3.513,2.921,3.513,2.921s-0.551-2.065-0.87-3.268
				c-0.269-1.007-2.063-1.035-2.536-0.219c-1.932-0.903-3.34-0.909-4.361-0.512c-0.71-0.974-7.875-10.685-11.043-9.428
				c-2.718,1.078-0.203,4.482,0.819,5.705c-1.908-0.154-3.854,0.21-5.615,1.483c0,0,7.422-2.669,15.021,2.693
				c-0.551,0.41-0.938,0.939-1.206,1.431c-1.483,0.479-4.139,0.754-7.841-1.112c0,0,3.361,3.734,7.638,1.524
				c-0.167,0.376-0.261,0.692-0.306,0.86c-0.219,0.817-1.171,1.626-1.171,1.626c1.179-0.186,3.159-2.168,3.837-3.617
				c0.609-1.304,3.617-0.757,4.217-0.634C46.594,52.871,46.557,53.054,46.583,53.263z M47.721,52.959
				c1.215-0.527,1.941,2.849,1.941,2.849C47.09,55.255,46.506,53.488,47.721,52.959z M32.167,48.468
				c-0.73-1.03-2.311-3.584-0.63-4.325c2.01-0.887,9.946,7.194,10.777,8.05c-0.285,0.112-0.541,0.256-0.769,0.421
				C39.864,51.334,36.098,48.81,32.167,48.468z"/>
		</g>
		<g>
			<path fill="#1D1D1B" d="M39.538,58.405l-0.549,0.018c0,0-0.002,0.005-0.005,0.012c-0.086,0.003-0.17,0.006-0.258,0.007
				c0,0,0.086,0.018,0.234,0.041c-0.098,0.207-0.457,0.926-0.945,1.489c-0.501,0.575,0.047-0.403-0.179-0.783
				c0.54-0.488,0.867-1.023,0.827-1.639c0,0-0.484,1.436-2.778,2.063c-1.807,0.494-5.514,2.574-5.35,5.091
				c-0.574-1.609-0.815-3.867,1.099-5.729c3.39-3.299,7.028-1.425,7.028-1.425s-2.064-3.361-5.958-1.104
				c-3.894,2.257-4.233,8.591-1.091,10.358c0,0-0.468-0.63-0.88-1.591c-0.052-0.529,0.087-1.171,0.637-1.897
				c0.832-1.098,2.833-1.943,4.53-2.856c-0.698,1.345-1.221,3.418-1.514,4.784c0.495-1.664,1.552-4.158,2.194-5.168
				c0.189-0.111,0.371-0.226,0.544-0.342c0.087,0.314,0.069,1.05,0.489,1.206c0.621,0.232,1.614-1.827,1.872-2.393
				c0.14,0.013,0.292,0.024,0.457,0.032c-0.001,0.003-0.646,3.015,0.179,2.568c0.824-0.447,1.857-1.843,1.626-0.971
				c-0.231,0.873-1.765,7.367,0.622,8.914c0,0-2.098-3.202-0.44-6.979c1.656-3.777-0.208-2.943-1.218-2.253
				c-0.916,0.629-0.355-0.973-0.245-1.271c1.392-0.015,3.223-0.374,3.931-2.024C44.398,56.565,43.087,58.146,39.538,58.405z"/>
		</g>
		<g>
			<path fill="#1D1D1B" d="M45.916,58.225c-1.07,0.281-0.121-1.756-0.121-1.756s-2.244,3.584-0.315,2.438
				c1.929-1.148,3.35-0.234,3.35-0.234C48.737,57.354,46.986,57.943,45.916,58.225z"/>
		</g>
	</g>
	<g>
		<path fill="#FFEC00" d="M27.971,24.357c0,0.486-0.061,0.921-0.182,1.305c-0.121,0.383-0.3,0.709-0.54,0.976
			c-0.238,0.267-0.533,0.471-0.885,0.611c-0.352,0.14-0.759,0.211-1.221,0.211c-0.456,0-0.854-0.061-1.193-0.179
			c-0.34-0.12-0.623-0.302-0.85-0.546c-0.226-0.244-0.396-0.555-0.51-0.933c-0.113-0.378-0.169-0.825-0.169-1.341
			c0-0.474,0.06-0.9,0.181-1.28c0.121-0.378,0.3-0.701,0.539-0.967c0.238-0.266,0.533-0.469,0.885-0.612
			c0.352-0.141,0.76-0.213,1.226-0.213c0.444,0,0.835,0.06,1.175,0.177c0.339,0.118,0.624,0.299,0.852,0.544
			c0.228,0.245,0.399,0.553,0.516,0.926C27.912,23.409,27.971,23.849,27.971,24.357z M26.72,24.42c0-0.308-0.024-0.588-0.072-0.84
			c-0.048-0.252-0.131-0.468-0.247-0.648c-0.116-0.179-0.271-0.318-0.464-0.417c-0.193-0.098-0.435-0.146-0.726-0.146
			c-0.292,0-0.537,0.055-0.733,0.165c-0.196,0.111-0.355,0.258-0.476,0.442c-0.121,0.184-0.206,0.399-0.256,0.646
			c-0.049,0.246-0.075,0.507-0.075,0.782c0,0.32,0.024,0.608,0.073,0.863c0.048,0.255,0.129,0.473,0.245,0.655
			c0.114,0.18,0.269,0.319,0.462,0.415c0.193,0.095,0.436,0.142,0.729,0.142c0.293,0,0.538-0.054,0.733-0.164
			c0.196-0.108,0.355-0.256,0.476-0.443c0.121-0.188,0.206-0.406,0.256-0.655C26.695,24.966,26.72,24.701,26.72,24.42z"/>
		<path fill="#FFEC00" d="M33.32,27.201c0,0.034-0.006,0.062-0.018,0.084c-0.012,0.022-0.042,0.042-0.086,0.057
			c-0.045,0.015-0.111,0.025-0.2,0.031c-0.087,0.006-0.207,0.009-0.357,0.009c-0.127,0-0.228-0.003-0.304-0.009
			c-0.075-0.006-0.135-0.017-0.179-0.034c-0.043-0.017-0.074-0.038-0.092-0.063c-0.018-0.026-0.033-0.057-0.045-0.093l-0.526-1.309
			c-0.063-0.148-0.125-0.28-0.185-0.394c-0.06-0.115-0.128-0.211-0.202-0.288c-0.074-0.077-0.159-0.135-0.256-0.175
			c-0.097-0.038-0.208-0.058-0.335-0.058h-0.371v2.232c0,0.03-0.011,0.058-0.03,0.082s-0.052,0.043-0.097,0.059
			c-0.045,0.015-0.105,0.027-0.181,0.036c-0.075,0.009-0.172,0.014-0.29,0.014c-0.115,0-0.211-0.004-0.288-0.014
			c-0.078-0.009-0.139-0.021-0.184-0.036c-0.046-0.015-0.078-0.035-0.096-0.059s-0.027-0.052-0.027-0.082V21.87
			c0-0.132,0.034-0.229,0.102-0.287c0.068-0.059,0.151-0.088,0.251-0.088h1.517c0.154,0,0.282,0.003,0.381,0.009
			c0.1,0.006,0.19,0.014,0.272,0.022c0.235,0.033,0.447,0.09,0.636,0.172c0.189,0.081,0.349,0.188,0.48,0.319
			c0.131,0.132,0.232,0.288,0.301,0.467c0.069,0.18,0.104,0.386,0.104,0.618c0,0.196-0.024,0.375-0.074,0.537
			c-0.05,0.162-0.124,0.306-0.22,0.433c-0.097,0.127-0.216,0.238-0.358,0.331c-0.141,0.093-0.303,0.169-0.484,0.227
			c0.088,0.042,0.17,0.093,0.247,0.154s0.149,0.133,0.217,0.22c0.068,0.086,0.132,0.184,0.192,0.294
			c0.061,0.11,0.12,0.234,0.177,0.374l0.494,1.155c0.045,0.115,0.075,0.199,0.091,0.251C33.312,27.129,33.32,27.171,33.32,27.201z
			 M31.784,23.225c0-0.193-0.044-0.356-0.132-0.49c-0.087-0.132-0.231-0.226-0.43-0.28c-0.06-0.015-0.129-0.027-0.206-0.036
			c-0.077-0.009-0.184-0.014-0.319-0.014h-0.534v1.662h0.606c0.169,0,0.318-0.021,0.444-0.061c0.127-0.041,0.233-0.099,0.318-0.172
			c0.084-0.074,0.147-0.162,0.189-0.265C31.763,23.466,31.784,23.351,31.784,23.225z"/>
		<path fill="#FFEC00" d="M37.414,26.857c0,0.09-0.004,0.167-0.012,0.229c-0.007,0.062-0.019,0.113-0.033,0.154
			c-0.016,0.041-0.034,0.07-0.058,0.088c-0.021,0.018-0.049,0.027-0.079,0.027h-2.686c-0.1,0-0.184-0.03-0.251-0.088
			c-0.067-0.059-0.102-0.155-0.102-0.288v-5.321c0-0.031,0.009-0.058,0.029-0.082c0.02-0.024,0.052-0.043,0.097-0.059
			c0.045-0.015,0.106-0.027,0.184-0.036c0.077-0.009,0.173-0.014,0.288-0.014c0.118,0,0.214,0.004,0.29,0.014
			c0.076,0.009,0.136,0.021,0.181,0.036c0.045,0.015,0.079,0.035,0.098,0.059s0.029,0.051,0.029,0.082v4.715h1.843
			c0.03,0,0.058,0.008,0.079,0.025c0.023,0.017,0.042,0.043,0.058,0.081c0.015,0.039,0.026,0.088,0.033,0.15
			C37.41,26.69,37.414,26.766,37.414,26.857z"/>
		<path fill="#FFEC00" d="M41.59,26.889c0,0.088-0.004,0.161-0.011,0.22c-0.009,0.059-0.019,0.106-0.034,0.143
			c-0.015,0.036-0.033,0.063-0.057,0.079s-0.048,0.025-0.074,0.025H38.47c-0.101,0-0.184-0.03-0.251-0.088
			c-0.068-0.059-0.103-0.155-0.103-0.288V21.87c0-0.132,0.034-0.229,0.103-0.287c0.067-0.059,0.15-0.088,0.251-0.088h2.926
			c0.027,0,0.052,0.008,0.072,0.023s0.039,0.041,0.054,0.079c0.016,0.038,0.027,0.087,0.034,0.146
			c0.009,0.059,0.013,0.134,0.013,0.224c0,0.084-0.004,0.157-0.013,0.215c-0.007,0.059-0.019,0.106-0.034,0.143
			c-0.015,0.036-0.033,0.063-0.054,0.079s-0.045,0.025-0.072,0.025h-2.093v1.431h1.771c0.026,0,0.052,0.008,0.074,0.025
			c0.023,0.017,0.041,0.042,0.057,0.077s0.026,0.082,0.034,0.14c0.007,0.06,0.011,0.131,0.011,0.215c0,0.088-0.004,0.16-0.011,0.218
			c-0.008,0.057-0.019,0.103-0.034,0.138s-0.033,0.06-0.057,0.075c-0.022,0.015-0.048,0.022-0.074,0.022h-1.771v1.654h2.111
			c0.026,0,0.051,0.008,0.074,0.025s0.042,0.043,0.057,0.079c0.016,0.036,0.025,0.084,0.034,0.143
			C41.586,26.728,41.59,26.801,41.59,26.889z"/>
		<path fill="#FFEC00" d="M47.328,26.911c0.037,0.108,0.061,0.195,0.068,0.258c0.01,0.063-0.002,0.111-0.035,0.143
			c-0.034,0.031-0.093,0.051-0.178,0.059c-0.084,0.007-0.2,0.011-0.349,0.011c-0.153,0-0.274-0.002-0.359-0.007
			c-0.087-0.004-0.152-0.014-0.197-0.027c-0.045-0.014-0.077-0.033-0.096-0.057s-0.033-0.056-0.045-0.096l-0.395-1.177h-2.2
			l-0.372,1.146c-0.012,0.042-0.028,0.078-0.048,0.106c-0.02,0.029-0.051,0.051-0.095,0.068s-0.105,0.028-0.187,0.034
			c-0.079,0.006-0.185,0.009-0.314,0.009c-0.139,0-0.247-0.004-0.325-0.014c-0.079-0.009-0.134-0.031-0.163-0.065
			c-0.03-0.035-0.041-0.084-0.031-0.147c0.008-0.063,0.031-0.147,0.066-0.253l1.808-5.2c0.019-0.051,0.04-0.093,0.063-0.125
			c0.025-0.032,0.063-0.056,0.115-0.072s0.126-0.027,0.221-0.032c0.093-0.004,0.217-0.007,0.371-0.007
			c0.178,0,0.32,0.002,0.426,0.007s0.188,0.015,0.246,0.032c0.06,0.017,0.102,0.041,0.127,0.074s0.048,0.079,0.066,0.136
			L47.328,26.911z M44.639,22.613h-0.005l-0.829,2.491h1.662L44.639,22.613z"/>
		<path fill="#FFEC00" d="M52.981,26.938c0,0.07-0.012,0.132-0.036,0.186c-0.023,0.054-0.057,0.1-0.098,0.136
			c-0.04,0.036-0.089,0.063-0.145,0.079s-0.112,0.025-0.17,0.025h-0.508c-0.105,0-0.196-0.011-0.273-0.032s-0.148-0.059-0.213-0.116
			c-0.065-0.056-0.127-0.131-0.188-0.227c-0.061-0.095-0.128-0.217-0.203-0.369l-1.459-2.74c-0.084-0.164-0.171-0.339-0.258-0.528
			c-0.088-0.189-0.166-0.372-0.235-0.55h-0.009c0.012,0.217,0.021,0.434,0.026,0.65c0.007,0.216,0.01,0.438,0.01,0.668v3.066
			c0,0.03-0.009,0.058-0.025,0.082c-0.017,0.024-0.045,0.044-0.086,0.061s-0.096,0.029-0.165,0.038
			c-0.07,0.009-0.159,0.014-0.268,0.014c-0.105,0-0.192-0.004-0.263-0.014c-0.069-0.009-0.123-0.021-0.164-0.038
			c-0.039-0.017-0.065-0.037-0.08-0.061c-0.016-0.024-0.023-0.052-0.023-0.082V21.92c0-0.143,0.041-0.249,0.125-0.32
			c0.083-0.071,0.185-0.106,0.306-0.106h0.639c0.114,0,0.211,0.01,0.29,0.03c0.078,0.02,0.148,0.052,0.21,0.097
			c0.062,0.046,0.121,0.108,0.175,0.188c0.055,0.08,0.11,0.179,0.168,0.297l1.142,2.142c0.065,0.13,0.131,0.257,0.196,0.383
			c0.065,0.125,0.128,0.25,0.188,0.376c0.061,0.125,0.119,0.248,0.176,0.369c0.058,0.121,0.114,0.241,0.168,0.362h0.005
			c-0.01-0.211-0.016-0.432-0.021-0.661s-0.007-0.448-0.007-0.657v-2.749c0-0.03,0.009-0.058,0.027-0.082
			c0.018-0.024,0.048-0.045,0.09-0.063c0.043-0.018,0.099-0.031,0.168-0.038c0.07-0.008,0.159-0.011,0.268-0.011
			c0.103,0,0.188,0.003,0.258,0.011c0.069,0.007,0.123,0.02,0.161,0.038c0.037,0.018,0.064,0.039,0.079,0.063
			c0.016,0.024,0.022,0.052,0.022,0.082V26.938z"/>
		<path fill="#FFEC00" d="M57.732,25.598c0,0.309-0.057,0.579-0.172,0.811c-0.114,0.232-0.27,0.427-0.467,0.582
			c-0.196,0.156-0.426,0.273-0.688,0.352c-0.263,0.078-0.544,0.118-0.843,0.118c-0.203,0-0.39-0.017-0.563-0.051
			c-0.174-0.033-0.328-0.073-0.46-0.12c-0.133-0.046-0.244-0.096-0.333-0.147c-0.089-0.051-0.154-0.096-0.193-0.135
			c-0.039-0.04-0.066-0.096-0.083-0.17c-0.017-0.075-0.025-0.181-0.025-0.32c0-0.093,0.003-0.171,0.01-0.235
			c0.006-0.063,0.016-0.115,0.029-0.154c0.014-0.04,0.031-0.067,0.054-0.084c0.023-0.017,0.049-0.025,0.08-0.025
			c0.042,0,0.102,0.025,0.178,0.075c0.078,0.049,0.177,0.105,0.298,0.165c0.12,0.061,0.265,0.116,0.433,0.166
			c0.167,0.049,0.361,0.074,0.582,0.074c0.145,0,0.274-0.017,0.389-0.052c0.115-0.035,0.213-0.083,0.292-0.147
			c0.081-0.063,0.142-0.142,0.184-0.236c0.043-0.093,0.064-0.197,0.064-0.312c0-0.133-0.037-0.247-0.109-0.342
			c-0.072-0.095-0.167-0.179-0.283-0.253c-0.116-0.074-0.248-0.143-0.396-0.208c-0.147-0.065-0.301-0.133-0.457-0.206
			c-0.157-0.072-0.31-0.154-0.458-0.247c-0.147-0.092-0.28-0.202-0.396-0.33c-0.115-0.129-0.21-0.281-0.282-0.455
			c-0.072-0.175-0.109-0.385-0.109-0.63c0-0.281,0.053-0.527,0.156-0.74c0.104-0.213,0.245-0.39,0.422-0.53
			c0.177-0.14,0.385-0.246,0.625-0.315c0.24-0.069,0.494-0.104,0.763-0.104c0.14,0,0.278,0.011,0.417,0.032
			c0.14,0.022,0.269,0.05,0.39,0.086c0.12,0.036,0.229,0.077,0.321,0.122c0.094,0.046,0.156,0.083,0.186,0.113
			c0.03,0.03,0.051,0.056,0.062,0.077c0.011,0.021,0.02,0.049,0.026,0.084c0.008,0.035,0.014,0.078,0.017,0.131
			c0.003,0.054,0.005,0.119,0.005,0.197c0,0.088-0.003,0.162-0.008,0.222c-0.003,0.06-0.011,0.11-0.021,0.149
			c-0.012,0.039-0.026,0.068-0.046,0.086s-0.046,0.027-0.079,0.027s-0.086-0.021-0.158-0.063s-0.162-0.088-0.268-0.139
			c-0.106-0.049-0.228-0.095-0.367-0.135c-0.139-0.041-0.291-0.061-0.457-0.061c-0.13,0-0.243,0.016-0.34,0.047
			c-0.097,0.032-0.178,0.075-0.242,0.131c-0.065,0.057-0.113,0.124-0.146,0.202c-0.031,0.079-0.047,0.162-0.047,0.249
			c0,0.13,0.035,0.243,0.106,0.338c0.07,0.095,0.166,0.18,0.285,0.253s0.255,0.144,0.405,0.208c0.151,0.065,0.306,0.134,0.462,0.206
			c0.157,0.072,0.312,0.155,0.463,0.247c0.15,0.092,0.285,0.202,0.402,0.33c0.118,0.129,0.213,0.28,0.286,0.453
			C57.697,25.158,57.732,25.362,57.732,25.598z"/>
	</g>
	<g>
		<path fill="#FFEC00" d="M29.034,33.559c0,0.039-0.002,0.071-0.006,0.096c-0.003,0.026-0.01,0.048-0.019,0.065
			C29,33.74,28.99,33.752,28.978,33.762c-0.013,0.008-0.028,0.013-0.044,0.013h-1.636c-0.044,0-0.086-0.015-0.125-0.044
			s-0.059-0.082-0.059-0.156v-3.428c0-0.015,0.003-0.028,0.012-0.04c0.007-0.011,0.021-0.02,0.04-0.027
			c0.019-0.007,0.044-0.012,0.077-0.018c0.033-0.004,0.071-0.006,0.117-0.006c0.048,0,0.087,0.002,0.119,0.006
			c0.032,0.005,0.056,0.011,0.076,0.018c0.019,0.007,0.032,0.016,0.04,0.027c0.008,0.012,0.011,0.025,0.011,0.04v3.201h1.328
			c0.017,0,0.032,0.004,0.044,0.013c0.012,0.009,0.022,0.021,0.031,0.038c0.009,0.017,0.015,0.038,0.019,0.064
			C29.031,33.489,29.034,33.521,29.034,33.559z"/>
		<path fill="#FFEC00" d="M34.6,31.881c0,0.299-0.036,0.568-0.106,0.809c-0.07,0.24-0.175,0.445-0.316,0.613
			c-0.14,0.169-0.316,0.299-0.527,0.39c-0.212,0.09-0.459,0.136-0.741,0.136c-0.279,0-0.52-0.042-0.723-0.125
			c-0.203-0.083-0.371-0.204-0.503-0.362c-0.133-0.159-0.232-0.355-0.297-0.59c-0.064-0.234-0.097-0.504-0.097-0.81
			c0-0.292,0.035-0.557,0.105-0.795c0.072-0.239,0.177-0.441,0.318-0.608c0.141-0.167,0.317-0.295,0.529-0.386
			c0.211-0.091,0.459-0.136,0.741-0.136c0.272,0,0.51,0.042,0.712,0.124c0.202,0.082,0.37,0.202,0.505,0.359s0.234,0.352,0.3,0.584
			C34.567,31.315,34.6,31.581,34.6,31.881z M34.079,31.915c0-0.21-0.019-0.405-0.056-0.584c-0.037-0.181-0.1-0.337-0.186-0.47
			s-0.203-0.236-0.347-0.311c-0.146-0.074-0.325-0.111-0.538-0.111c-0.213,0-0.393,0.041-0.537,0.12
			c-0.145,0.081-0.262,0.187-0.353,0.321c-0.09,0.133-0.155,0.289-0.194,0.467s-0.059,0.366-0.059,0.563
			c0,0.217,0.018,0.417,0.054,0.601c0.036,0.183,0.097,0.341,0.183,0.474c0.086,0.133,0.2,0.236,0.345,0.309
			c0.144,0.074,0.324,0.11,0.541,0.11c0.215,0,0.396-0.04,0.543-0.12c0.147-0.081,0.265-0.189,0.354-0.325
			c0.089-0.136,0.153-0.294,0.191-0.473C34.06,32.305,34.079,32.115,34.079,31.915z"/>
		<path fill="#FFEC00" d="M37.92,33.7c0,0.015-0.004,0.029-0.011,0.04c-0.009,0.011-0.021,0.02-0.04,0.027s-0.045,0.013-0.076,0.018
			s-0.071,0.007-0.119,0.007c-0.045,0-0.084-0.002-0.117-0.007c-0.032-0.004-0.059-0.011-0.077-0.018s-0.032-0.016-0.04-0.027
			s-0.012-0.025-0.012-0.04v-3.553c0-0.015,0.005-0.028,0.014-0.04c0.008-0.011,0.022-0.02,0.043-0.027
			c0.02-0.007,0.045-0.012,0.077-0.018c0.032-0.004,0.068-0.006,0.112-0.006c0.048,0,0.088,0.002,0.119,0.006
			c0.031,0.005,0.057,0.011,0.076,0.018s0.031,0.016,0.04,0.027c0.007,0.012,0.011,0.025,0.011,0.04V33.7z"/>
		<path fill="#FFEC00" d="M43.424,33.7c0,0.015-0.003,0.029-0.009,0.04c-0.005,0.011-0.019,0.021-0.037,0.028
			c-0.02,0.008-0.046,0.014-0.081,0.018c-0.033,0.004-0.079,0.005-0.137,0.005c-0.049,0-0.09-0.001-0.121-0.005
			c-0.032-0.004-0.057-0.01-0.076-0.019c-0.02-0.008-0.034-0.02-0.045-0.035c-0.01-0.015-0.02-0.035-0.027-0.057l-0.34-0.873
			c-0.039-0.1-0.081-0.19-0.125-0.273c-0.043-0.083-0.093-0.154-0.152-0.214c-0.059-0.06-0.129-0.107-0.209-0.141
			c-0.08-0.033-0.176-0.05-0.288-0.05h-0.329V33.7c0,0.015-0.005,0.029-0.014,0.04c-0.008,0.011-0.021,0.02-0.039,0.027
			c-0.019,0.007-0.043,0.013-0.075,0.018c-0.031,0.004-0.07,0.007-0.118,0.007s-0.088-0.002-0.119-0.007s-0.057-0.011-0.076-0.018
			s-0.032-0.016-0.04-0.027c-0.007-0.011-0.011-0.025-0.011-0.04v-3.427c0-0.075,0.02-0.126,0.059-0.156
			c0.039-0.03,0.08-0.044,0.125-0.044h0.785c0.094,0,0.172,0.002,0.234,0.007s0.117,0.01,0.167,0.016
			c0.144,0.025,0.269,0.064,0.379,0.118c0.109,0.053,0.201,0.121,0.276,0.203c0.074,0.082,0.13,0.176,0.168,0.281
			c0.036,0.106,0.055,0.223,0.055,0.351c0,0.124-0.016,0.235-0.051,0.333c-0.032,0.099-0.08,0.186-0.144,0.261
			c-0.063,0.075-0.139,0.141-0.226,0.196c-0.088,0.055-0.186,0.102-0.295,0.14c0.062,0.027,0.116,0.061,0.166,0.102
			c0.05,0.041,0.096,0.09,0.139,0.147s0.083,0.123,0.121,0.197c0.038,0.075,0.076,0.159,0.115,0.252l0.332,0.815
			c0.025,0.068,0.043,0.117,0.051,0.145C43.42,33.663,43.424,33.685,43.424,33.7z M42.683,31.1c0-0.145-0.032-0.268-0.097-0.368
			c-0.065-0.1-0.174-0.172-0.326-0.216c-0.048-0.013-0.102-0.023-0.162-0.028c-0.061-0.006-0.139-0.008-0.236-0.008h-0.414v1.247
			h0.48c0.129,0,0.241-0.016,0.336-0.046c0.094-0.032,0.173-0.076,0.235-0.133c0.063-0.056,0.11-0.122,0.14-0.198
			C42.668,31.272,42.683,31.189,42.683,31.1z"/>
		<path fill="#FFEC00" d="M48.246,33.571c0,0.034-0.002,0.064-0.006,0.09c-0.004,0.025-0.01,0.046-0.02,0.064
			c-0.01,0.017-0.021,0.029-0.033,0.038c-0.013,0.007-0.025,0.011-0.041,0.011h-1.777c-0.043,0-0.085-0.015-0.124-0.044
			s-0.059-0.082-0.059-0.156v-3.301c0-0.075,0.02-0.126,0.059-0.156c0.039-0.03,0.081-0.044,0.124-0.044h1.757
			c0.015,0,0.028,0.004,0.042,0.011c0.012,0.007,0.021,0.02,0.029,0.037c0.008,0.017,0.014,0.039,0.02,0.064
			c0.004,0.025,0.006,0.058,0.006,0.096c0,0.035-0.002,0.064-0.006,0.09c-0.006,0.025-0.012,0.046-0.02,0.063
			c-0.008,0.016-0.018,0.028-0.029,0.035c-0.014,0.008-0.027,0.012-0.042,0.012h-1.447v1.162h1.241c0.016,0,0.029,0.004,0.041,0.013
			c0.014,0.009,0.023,0.02,0.032,0.036c0.009,0.015,0.015,0.036,0.019,0.063c0.004,0.027,0.006,0.059,0.006,0.095
			c0,0.034-0.002,0.064-0.006,0.089s-0.01,0.044-0.019,0.059c-0.009,0.016-0.019,0.026-0.032,0.033
			c-0.012,0.007-0.025,0.011-0.041,0.011h-1.241v1.324h1.468c0.016,0,0.028,0.003,0.041,0.011c0.012,0.007,0.023,0.02,0.033,0.036
			c0.01,0.016,0.016,0.037,0.02,0.063S48.246,33.533,48.246,33.571z"/>
		<path fill="#FFEC00" d="M53.418,30.284c0,0.036-0.002,0.068-0.006,0.094c-0.004,0.027-0.01,0.048-0.019,0.065
			c-0.009,0.016-0.019,0.028-0.032,0.036c-0.012,0.007-0.025,0.011-0.041,0.011h-1.041V33.7c0,0.015-0.004,0.029-0.012,0.04
			c-0.007,0.011-0.021,0.02-0.04,0.027s-0.044,0.013-0.075,0.018c-0.032,0.004-0.071,0.007-0.119,0.007
			c-0.045,0-0.085-0.002-0.117-0.007s-0.059-0.011-0.077-0.018c-0.02-0.007-0.032-0.016-0.04-0.027s-0.012-0.025-0.012-0.04V30.49
			h-1.041c-0.016,0-0.029-0.004-0.042-0.011c-0.012-0.008-0.022-0.021-0.03-0.036c-0.007-0.017-0.013-0.038-0.018-0.065
			c-0.005-0.026-0.008-0.058-0.008-0.094s0.003-0.068,0.008-0.096c0.005-0.028,0.011-0.05,0.018-0.067
			c0.008-0.018,0.019-0.03,0.03-0.037c0.013-0.007,0.026-0.011,0.042-0.011h2.574c0.016,0,0.029,0.004,0.041,0.011
			c0.014,0.007,0.023,0.02,0.032,0.037c0.009,0.017,0.015,0.04,0.019,0.067C53.416,30.216,53.418,30.248,53.418,30.284z"/>
	</g>
	<g>
		<path fill="#FFEC00" d="M29.163,35.951c0,0.034-0.002,0.063-0.005,0.089c-0.004,0.026-0.011,0.046-0.02,0.061
			c-0.009,0.016-0.019,0.026-0.031,0.034c-0.012,0.008-0.024,0.011-0.037,0.011h-1.283v1.192H29c0.012,0,0.025,0.003,0.036,0.009
			c0.012,0.006,0.022,0.017,0.032,0.031c0.009,0.015,0.015,0.034,0.019,0.059s0.005,0.055,0.005,0.093
			c0,0.034-0.001,0.063-0.005,0.088c-0.004,0.024-0.01,0.043-0.019,0.059c-0.009,0.015-0.02,0.027-0.032,0.035
			c-0.011,0.008-0.024,0.013-0.036,0.013h-1.213v1.458c0,0.013-0.004,0.025-0.01,0.036c-0.008,0.012-0.02,0.021-0.039,0.027
			c-0.018,0.006-0.042,0.012-0.07,0.017c-0.029,0.004-0.067,0.006-0.114,0.006c-0.043,0-0.081-0.002-0.111-0.006
			c-0.031-0.005-0.055-0.01-0.073-0.017c-0.018-0.006-0.031-0.015-0.038-0.027c-0.007-0.011-0.011-0.023-0.011-0.036v-3.243
			c0-0.071,0.019-0.12,0.056-0.147c0.037-0.028,0.077-0.042,0.118-0.042h1.575c0.013,0,0.025,0.004,0.037,0.011
			c0.012,0.007,0.021,0.019,0.031,0.035c0.009,0.017,0.016,0.038,0.02,0.064C29.161,35.886,29.163,35.916,29.163,35.951z"/>
		<path fill="#FFEC00" d="M33.226,37.461c0,0.283-0.034,0.539-0.1,0.766c-0.067,0.228-0.166,0.421-0.299,0.58
			c-0.132,0.161-0.299,0.283-0.5,0.369c-0.2,0.086-0.434,0.129-0.701,0.129c-0.264,0-0.491-0.039-0.684-0.118
			c-0.192-0.078-0.351-0.193-0.477-0.342c-0.125-0.15-0.219-0.335-0.28-0.558c-0.062-0.222-0.092-0.477-0.092-0.766
			c0-0.276,0.034-0.527,0.101-0.752c0.066-0.226,0.167-0.417,0.3-0.576c0.133-0.157,0.3-0.279,0.501-0.365
			c0.2-0.086,0.434-0.129,0.701-0.129c0.258,0,0.483,0.039,0.674,0.117c0.191,0.077,0.351,0.19,0.478,0.339
			c0.127,0.149,0.222,0.333,0.284,0.552S33.226,37.177,33.226,37.461z M32.733,37.493c0-0.199-0.017-0.383-0.053-0.554
			c-0.035-0.17-0.094-0.318-0.176-0.444c-0.082-0.125-0.191-0.223-0.328-0.293c-0.137-0.07-0.306-0.105-0.509-0.105
			c-0.202,0-0.371,0.038-0.508,0.114c-0.137,0.075-0.248,0.177-0.334,0.303c-0.085,0.126-0.146,0.274-0.184,0.442
			c-0.037,0.168-0.056,0.346-0.056,0.532c0,0.206,0.017,0.395,0.052,0.568c0.034,0.173,0.092,0.323,0.173,0.448
			c0.081,0.125,0.189,0.223,0.325,0.292c0.136,0.07,0.307,0.104,0.513,0.104c0.204,0,0.375-0.039,0.514-0.114
			c0.139-0.076,0.25-0.178,0.335-0.308c0.084-0.128,0.145-0.278,0.181-0.448C32.715,37.863,32.733,37.683,32.733,37.493z"/>
		<path fill="#FFEC00" d="M37.367,37.461c0,0.283-0.033,0.539-0.101,0.766c-0.066,0.228-0.166,0.421-0.299,0.58
			c-0.132,0.161-0.3,0.283-0.5,0.369c-0.2,0.086-0.434,0.129-0.7,0.129c-0.264,0-0.492-0.039-0.684-0.118
			c-0.192-0.078-0.351-0.193-0.476-0.342c-0.126-0.15-0.219-0.335-0.281-0.558c-0.061-0.222-0.092-0.477-0.092-0.766
			c0-0.276,0.033-0.527,0.1-0.752c0.067-0.226,0.167-0.417,0.301-0.576c0.133-0.157,0.3-0.279,0.5-0.365
			c0.2-0.086,0.434-0.129,0.701-0.129c0.258,0,0.482,0.039,0.674,0.117c0.191,0.077,0.35,0.19,0.477,0.339
			c0.129,0.149,0.224,0.333,0.285,0.552C37.336,36.926,37.367,37.177,37.367,37.461z M36.875,37.493
			c0-0.199-0.019-0.383-0.053-0.554c-0.035-0.17-0.094-0.318-0.176-0.444c-0.082-0.125-0.192-0.223-0.329-0.293
			c-0.137-0.07-0.307-0.105-0.508-0.105s-0.371,0.038-0.508,0.114c-0.138,0.075-0.249,0.177-0.334,0.303
			c-0.085,0.126-0.146,0.274-0.184,0.442c-0.038,0.168-0.056,0.346-0.056,0.532c0,0.206,0.017,0.395,0.051,0.568
			c0.035,0.173,0.092,0.323,0.173,0.448c0.082,0.125,0.19,0.223,0.326,0.292c0.136,0.07,0.307,0.104,0.512,0.104
			c0.203,0,0.375-0.039,0.514-0.114c0.139-0.076,0.25-0.178,0.334-0.308c0.086-0.128,0.146-0.278,0.182-0.448
			C36.856,37.863,36.875,37.683,36.875,37.493z"/>
		<path fill="#FFEC00" d="M40.621,35.951c0,0.034-0.003,0.063-0.006,0.089c-0.004,0.026-0.01,0.046-0.018,0.061
			c-0.009,0.016-0.019,0.026-0.029,0.034c-0.013,0.008-0.025,0.011-0.039,0.011h-0.986v3.037c0,0.014-0.003,0.027-0.01,0.038
			c-0.008,0.011-0.021,0.02-0.039,0.026s-0.041,0.012-0.071,0.017c-0.03,0.004-0.067,0.006-0.112,0.006
			c-0.043,0-0.08-0.002-0.111-0.006c-0.031-0.005-0.055-0.01-0.072-0.017c-0.019-0.006-0.031-0.015-0.038-0.026
			c-0.008-0.01-0.011-0.023-0.011-0.038v-3.037h-0.985c-0.015,0-0.028-0.003-0.039-0.011c-0.013-0.007-0.022-0.018-0.028-0.034
			c-0.008-0.015-0.014-0.035-0.019-0.061c-0.005-0.025-0.006-0.055-0.006-0.089c0-0.035,0.001-0.064,0.006-0.091
			s0.011-0.047,0.019-0.064c0.006-0.016,0.016-0.028,0.028-0.035c0.011-0.007,0.024-0.011,0.039-0.011h2.437
			c0.014,0,0.026,0.004,0.039,0.011c0.011,0.007,0.021,0.019,0.029,0.035c0.008,0.017,0.014,0.038,0.018,0.064
			C40.618,35.886,40.621,35.916,40.621,35.951z"/>
		<path fill="#FFEC00" d="M43.906,38.249c0,0.11-0.014,0.211-0.041,0.304c-0.028,0.093-0.067,0.177-0.117,0.25
			c-0.052,0.074-0.111,0.139-0.184,0.195c-0.071,0.056-0.152,0.103-0.24,0.141c-0.09,0.038-0.186,0.066-0.287,0.086
			c-0.102,0.019-0.22,0.027-0.352,0.027h-0.914c-0.042,0-0.081-0.013-0.117-0.041c-0.037-0.028-0.057-0.078-0.057-0.148v-3.123
			c0-0.071,0.02-0.12,0.057-0.147c0.036-0.028,0.075-0.042,0.117-0.042h0.795c0.209,0,0.381,0.021,0.515,0.06
			c0.134,0.04,0.245,0.098,0.335,0.173c0.089,0.076,0.156,0.169,0.201,0.279s0.068,0.234,0.068,0.374
			c0,0.083-0.01,0.162-0.031,0.237c-0.02,0.076-0.049,0.146-0.088,0.21c-0.038,0.064-0.087,0.121-0.146,0.172
			s-0.126,0.092-0.202,0.125c0.096,0.018,0.186,0.051,0.269,0.099c0.083,0.048,0.155,0.109,0.218,0.183s0.111,0.161,0.147,0.259
			C43.889,38.02,43.906,38.129,43.906,38.249z M43.205,36.682c0-0.085-0.012-0.162-0.035-0.23s-0.06-0.127-0.11-0.174
			c-0.05-0.048-0.116-0.084-0.196-0.11c-0.081-0.025-0.189-0.038-0.322-0.038h-0.48v1.134h0.529c0.121,0,0.218-0.016,0.291-0.047
			c0.074-0.032,0.136-0.074,0.184-0.127c0.049-0.053,0.085-0.115,0.107-0.187S43.205,36.757,43.205,36.682z M43.417,38.276
			c0-0.105-0.017-0.197-0.05-0.276c-0.033-0.08-0.082-0.146-0.146-0.2c-0.064-0.055-0.144-0.095-0.24-0.124
			c-0.096-0.027-0.217-0.042-0.363-0.042h-0.557v1.235h0.676c0.105,0,0.199-0.013,0.278-0.039s0.149-0.063,0.209-0.112
			c0.061-0.05,0.108-0.112,0.142-0.186C43.4,38.458,43.417,38.373,43.417,38.276z"/>
		<path fill="#FFEC00" d="M47.652,39.087c0.015,0.04,0.022,0.071,0.023,0.096c0.001,0.024-0.006,0.043-0.021,0.055
			c-0.015,0.013-0.038,0.021-0.071,0.025c-0.033,0.003-0.078,0.005-0.135,0.005c-0.055,0-0.1-0.001-0.133-0.003
			c-0.033-0.003-0.059-0.008-0.076-0.014c-0.018-0.007-0.029-0.015-0.038-0.026c-0.009-0.01-0.016-0.024-0.023-0.041l-0.3-0.853
			h-1.457l-0.287,0.842c-0.004,0.017-0.012,0.03-0.021,0.042c-0.009,0.012-0.021,0.021-0.039,0.029
			c-0.018,0.008-0.041,0.014-0.072,0.018c-0.032,0.003-0.072,0.005-0.124,0.005s-0.095-0.002-0.128-0.006
			c-0.033-0.005-0.057-0.013-0.07-0.026s-0.02-0.032-0.02-0.056c0.002-0.024,0.009-0.056,0.023-0.096l1.175-3.253
			c0.007-0.02,0.017-0.036,0.028-0.049c0.012-0.012,0.029-0.021,0.052-0.029c0.022-0.007,0.051-0.013,0.087-0.015
			c0.035-0.003,0.079-0.003,0.133-0.003c0.059,0,0.105,0,0.145,0.003c0.037,0.002,0.068,0.008,0.092,0.015
			c0.023,0.008,0.041,0.018,0.054,0.031c0.013,0.014,0.022,0.03,0.03,0.051L47.652,39.087z M46.145,36.216h-0.002l-0.604,1.745
			h1.218L46.145,36.216z"/>
		<path fill="#FFEC00" d="M50.524,39.049c0,0.037-0.001,0.067-0.005,0.091c-0.004,0.025-0.01,0.045-0.019,0.063
			c-0.007,0.017-0.018,0.029-0.029,0.038s-0.025,0.012-0.042,0.012h-1.548c-0.042,0-0.081-0.013-0.118-0.041
			c-0.036-0.028-0.056-0.078-0.056-0.148v-3.242c0-0.015,0.004-0.027,0.012-0.039c0.007-0.01,0.02-0.019,0.038-0.025
			c0.018-0.006,0.042-0.011,0.072-0.017c0.031-0.004,0.068-0.006,0.111-0.006c0.045,0,0.082,0.002,0.112,0.006
			c0.029,0.005,0.054,0.011,0.071,0.017c0.019,0.007,0.031,0.015,0.038,0.025c0.007,0.011,0.011,0.023,0.011,0.039v3.028h1.256
			c0.017,0,0.03,0.004,0.042,0.013s0.022,0.02,0.029,0.035c0.009,0.015,0.015,0.036,0.019,0.06
			C50.523,38.983,50.524,39.014,50.524,39.049z"/>
		<path fill="#FFEC00" d="M53.326,39.049c0,0.037-0.002,0.067-0.005,0.091c-0.004,0.025-0.01,0.045-0.019,0.063
			c-0.008,0.017-0.018,0.029-0.029,0.038s-0.025,0.012-0.042,0.012h-1.548c-0.042,0-0.081-0.013-0.118-0.041
			s-0.056-0.078-0.056-0.148v-3.242c0-0.015,0.004-0.027,0.011-0.039c0.008-0.01,0.02-0.019,0.038-0.025
			c0.019-0.006,0.043-0.011,0.073-0.017c0.03-0.004,0.068-0.006,0.11-0.006c0.046,0,0.083,0.002,0.113,0.006
			c0.029,0.005,0.054,0.011,0.071,0.017c0.019,0.007,0.031,0.015,0.038,0.025c0.007,0.011,0.011,0.023,0.011,0.039v3.028h1.256
			c0.017,0,0.03,0.004,0.042,0.013s0.021,0.02,0.029,0.035c0.009,0.015,0.015,0.036,0.019,0.06
			C53.324,38.983,53.326,39.014,53.326,39.049z"/>
	</g>
	<g>
		<path fill="#E20613" d="M46.135,48.159c0.008,0.183-0.011,0.347-0.059,0.491c-0.046,0.146-0.117,0.271-0.211,0.373
			c-0.095,0.104-0.212,0.184-0.352,0.241s-0.301,0.09-0.481,0.099c-0.165,0.008-0.316-0.01-0.455-0.052
			c-0.138-0.042-0.258-0.107-0.359-0.196s-0.182-0.203-0.24-0.341c-0.06-0.138-0.093-0.3-0.101-0.483l-0.084-1.861
			c0-0.012,0.002-0.022,0.008-0.032s0.016-0.018,0.031-0.024c0.016-0.006,0.035-0.011,0.06-0.017
			c0.024-0.004,0.058-0.008,0.097-0.01c0.037-0.001,0.07-0.001,0.096,0.002c0.027,0.002,0.047,0.006,0.063,0.011
			c0.015,0.005,0.025,0.012,0.032,0.021s0.011,0.021,0.011,0.032l0.082,1.812c0.006,0.14,0.028,0.26,0.066,0.362
			c0.039,0.103,0.092,0.186,0.158,0.252c0.068,0.066,0.147,0.114,0.239,0.145c0.093,0.031,0.194,0.044,0.308,0.038
			c0.115-0.004,0.219-0.026,0.307-0.063c0.089-0.039,0.164-0.093,0.223-0.164c0.06-0.071,0.104-0.156,0.133-0.259
			c0.028-0.102,0.04-0.22,0.033-0.354l-0.082-1.834c0-0.012,0.002-0.022,0.008-0.032s0.016-0.018,0.031-0.023
			s0.036-0.012,0.061-0.017c0.025-0.006,0.058-0.009,0.097-0.01c0.036-0.003,0.068-0.002,0.094,0.001
			c0.026,0.003,0.046,0.007,0.062,0.012c0.015,0.004,0.025,0.011,0.033,0.021c0.007,0.009,0.011,0.02,0.012,0.032L46.135,48.159z"/>
		<path fill="#E20613" d="M48.587,48.22c0.012,0.141-0.003,0.268-0.045,0.381c-0.042,0.114-0.106,0.213-0.19,0.298
			c-0.085,0.084-0.188,0.151-0.309,0.2c-0.12,0.05-0.252,0.081-0.396,0.094c-0.101,0.009-0.194,0.009-0.28-0.001
			c-0.088-0.01-0.166-0.023-0.234-0.042c-0.07-0.019-0.128-0.04-0.176-0.062c-0.047-0.022-0.082-0.042-0.102-0.059
			s-0.034-0.039-0.045-0.067c-0.011-0.027-0.019-0.065-0.023-0.112c-0.002-0.034-0.004-0.063-0.002-0.085
			c0.001-0.023,0.004-0.042,0.01-0.056c0.004-0.015,0.011-0.025,0.02-0.031c0.01-0.006,0.02-0.01,0.031-0.012
			c0.022-0.001,0.055,0.01,0.096,0.032s0.095,0.047,0.158,0.072c0.064,0.024,0.142,0.047,0.231,0.066
			c0.089,0.02,0.19,0.023,0.306,0.014c0.086-0.008,0.164-0.026,0.232-0.056c0.07-0.029,0.129-0.067,0.176-0.114
			c0.049-0.047,0.084-0.103,0.105-0.166c0.023-0.064,0.031-0.136,0.023-0.215c-0.008-0.084-0.033-0.154-0.076-0.211
			c-0.045-0.058-0.1-0.105-0.167-0.146s-0.144-0.075-0.228-0.105s-0.17-0.062-0.258-0.094c-0.089-0.031-0.175-0.067-0.259-0.108
			c-0.085-0.041-0.161-0.091-0.23-0.149c-0.068-0.06-0.126-0.131-0.174-0.215c-0.046-0.083-0.075-0.186-0.087-0.308
			c-0.011-0.125,0.003-0.238,0.039-0.34c0.037-0.103,0.094-0.189,0.168-0.264c0.074-0.073,0.166-0.132,0.275-0.177
			c0.109-0.044,0.228-0.072,0.357-0.083c0.066-0.007,0.133-0.007,0.201-0.001s0.133,0.016,0.193,0.03
			c0.062,0.013,0.115,0.03,0.165,0.05c0.048,0.021,0.079,0.036,0.097,0.05c0.016,0.014,0.025,0.024,0.031,0.032
			c0.005,0.009,0.01,0.019,0.014,0.031c0.005,0.013,0.009,0.028,0.012,0.047s0.006,0.042,0.008,0.072
			c0.004,0.026,0.004,0.052,0.004,0.073s-0.002,0.04-0.006,0.055c-0.003,0.016-0.009,0.027-0.017,0.035
			c-0.009,0.007-0.017,0.012-0.028,0.013c-0.017,0.001-0.045-0.007-0.082-0.025c-0.039-0.019-0.085-0.039-0.139-0.062
			c-0.056-0.021-0.12-0.041-0.193-0.057c-0.074-0.017-0.156-0.021-0.244-0.013c-0.084,0.007-0.155,0.025-0.215,0.053
			c-0.061,0.028-0.107,0.062-0.145,0.103c-0.037,0.04-0.063,0.087-0.078,0.14c-0.016,0.052-0.021,0.107-0.016,0.164
			c0.007,0.084,0.032,0.153,0.076,0.21s0.1,0.105,0.168,0.146c0.068,0.04,0.145,0.076,0.229,0.107
			c0.086,0.031,0.173,0.063,0.261,0.095c0.088,0.032,0.175,0.067,0.261,0.107c0.086,0.039,0.164,0.089,0.234,0.146
			c0.068,0.059,0.127,0.13,0.174,0.213C48.547,48,48.576,48.102,48.587,48.22z"/>
		<path fill="#E20613" d="M51.611,47.127c0.033,0.241,0.034,0.462,0.004,0.662c-0.03,0.201-0.092,0.377-0.187,0.528
			c-0.093,0.151-0.22,0.274-0.381,0.371c-0.16,0.096-0.354,0.159-0.58,0.19c-0.224,0.031-0.422,0.023-0.594-0.021
			c-0.173-0.044-0.32-0.123-0.445-0.235c-0.124-0.112-0.225-0.259-0.303-0.44c-0.077-0.182-0.133-0.395-0.167-0.64
			c-0.032-0.234-0.033-0.451-0.002-0.65c0.029-0.199,0.092-0.374,0.188-0.523c0.095-0.15,0.223-0.272,0.383-0.369
			s0.354-0.159,0.58-0.191c0.22-0.029,0.414-0.022,0.586,0.021c0.171,0.045,0.319,0.121,0.445,0.233
			c0.125,0.111,0.227,0.257,0.306,0.436C51.522,46.677,51.579,46.887,51.611,47.127z M51.196,47.212
			c-0.022-0.168-0.06-0.322-0.109-0.463c-0.049-0.141-0.116-0.26-0.2-0.357c-0.085-0.097-0.188-0.167-0.313-0.21
			c-0.125-0.045-0.272-0.055-0.443-0.031c-0.172,0.023-0.311,0.075-0.419,0.156c-0.107,0.08-0.19,0.179-0.248,0.296
			S49.37,46.852,49.358,47c-0.012,0.147-0.007,0.3,0.015,0.458c0.024,0.175,0.061,0.333,0.11,0.477s0.116,0.263,0.199,0.36
			c0.084,0.097,0.187,0.167,0.311,0.21s0.272,0.053,0.447,0.029c0.173-0.024,0.313-0.076,0.423-0.156
			c0.109-0.081,0.191-0.181,0.249-0.301c0.057-0.119,0.09-0.253,0.102-0.4C51.225,47.528,51.219,47.373,51.196,47.212z"/>
	</g>
	<g>
		<g>
			<g>
				<path d="M50.91,59.968c-1.651-1.651-4.464-1.519-6.304,0.287c1.612-1.573,4.236-1.521,5.887,0.13
					c1.662,1.661,1.705,4.313,0.097,5.922c0.001,0,0.001,0,0.001,0C52.43,64.468,52.571,61.63,50.91,59.968z"/>
			</g>
			<g>
				<path d="M50.661,66.236c-1.608,1.607-4.261,1.564-5.923-0.098c-1.648-1.649-1.703-4.272-0.132-5.884
					c-1.804,1.84-1.935,4.649-0.284,6.3C45.984,68.217,48.822,68.074,50.661,66.236L50.661,66.236z"/>
			</g>
		</g>
		<g>
			<path d="M50.749,62.021c0-0.201-0.028-1.067-0.028-1.067s-0.03,1.097-0.318,1.213c-0.289,0.114-1.184,0.403-1.472,0.201
				c-0.289-0.201-1.213-0.895-1.213-1.414s-0.116-0.867,0.261-0.981c0.374-0.115,0.749-0.376,0.749-0.376s-0.749,0.347-1.11,0.261
				c-0.361-0.088-1.228-0.261-1.228-0.261s0.981,0.261,1.039,0.49c0.058,0.232,0.173,1.155-0.058,1.328s-1.328,1.213-1.616,1.155
				c-0.289-0.058-1.184-0.347-1.184-0.664c0-0.318-0.087-1.068-0.087-1.068s0.014,0.904-0.043,1.247
				c-0.05,0.316-0.377,0.81-0.535,1.032c0.174-0.235,0.574-0.742,0.752-0.72c0.23,0.029,1.039,0.314,1.184,0.604
				s0.605,1.474,0.433,1.762c-0.174,0.289-0.347,0.896-0.924,0.858c-0.476-0.029-0.837-0.078-0.837-0.078s1.083,0.296,1.199,0.498
				c0.115,0.202,0.764,0.888,0.764,0.888s-0.75-0.982-0.549-1.271c0.202-0.289,0.52-0.779,0.896-0.837
				c0.374-0.059,1.558-0.088,1.818,0.145c0.26,0.23,0.779,0.865,0.606,1.067c-0.174,0.202-0.491,0.896-0.491,0.896
				s0.635-0.953,0.865-1.04c0.232-0.086,1.039-0.346,1.039-0.346s-0.849,0.261-1.183,0.144c-0.334-0.115-0.722-1.097-0.664-1.27
				s0.434-1.502,0.635-1.617c0.203-0.114,1.011-0.578,1.212-0.404c0.203,0.174,0.751,0.896,0.751,0.896S50.749,62.223,50.749,62.021
				z M48.25,64.547c-0.289,0.039-1.482,0.115-1.598-0.154c-0.115-0.269-0.5-1.288-0.346-1.606c0.154-0.317,0.944-1.074,1.23-1.01
				c0.414,0.092,1.426,0.673,1.426,1.01S48.539,64.508,48.25,64.547z"/>
			<path d="M43.906,63.116c-0.053,0.07-0.086,0.117-0.086,0.117S43.854,63.189,43.906,63.116z"/>
		</g>
	</g>
</g>
</svg>
