<?xml version="1.0" encoding="utf-8"?>
<!-- Generator: Adobe Illustrator 16.0.0, SVG Export Plug-In . SVG Version: 6.00 Build 0)  -->
<!DOCTYPE svg PUBLIC "-//W3C//DTD SVG 1.1//EN" "http://www.w3.org/Graphics/SVG/1.1/DTD/svg11.dtd">
<svg version="1.1" id="Calque_1" xmlns="http://www.w3.org/2000/svg" xmlns:xlink="http://www.w3.org/1999/xlink" x="0px" y="0px"
	 width="80px" height="80px" viewBox="0 0 80 80" enable-background="new 0 0 80 80" xml:space="preserve">
<path fill="#231F20" d="M40.349,76.766h-0.697l-0.296-0.141c-6.953-3.292-12.758-7.609-17.251-12.827
	c-4.034-4.686-7.022-10.101-8.882-16.095c-1.65-5.32-2.391-11.004-2.2-16.89c0.169-5.212,1.094-10.53,2.675-15.381l0.093-0.284
	l0.476-0.542l0.354-0.128c10.043-3.626,18.007-5.242,25.823-5.242c7.873,0,15.812,1.67,24.985,5.261l0.468,0.184l0.356,0.599
	l0.049,0.153c1.581,4.851,2.508,10.169,2.676,15.381c0.191,5.886-0.549,11.57-2.199,16.89c-1.858,5.994-4.848,11.409-8.883,16.095
	c-4.493,5.22-10.298,9.537-17.251,12.827L40.349,76.766L40.349,76.766z M16.271,16.991C11.655,31.935,11.674,59.891,40,73.694
	C68.341,59.884,68.345,31.909,63.726,16.97c-8.553-3.282-15.968-4.813-23.282-4.813C33.15,12.157,25.67,13.65,16.271,16.991z"/>
<path fill="#FFFFFF" d="M40.203,76.116h-0.405l-0.165-0.078c-6.87-3.254-12.602-7.514-17.037-12.664
	c-3.975-4.619-6.921-9.955-8.753-15.862c-1.629-5.254-2.359-10.864-2.171-16.679c0.167-5.151,1.081-10.407,2.645-15.2l0.052-0.159
	l0.277-0.314l0.196-0.071c9.969-3.6,17.866-5.205,25.604-5.205c7.788,0,15.653,1.658,24.749,5.216l0.261,0.102l0.203,0.345
	l0.027,0.086c1.564,4.792,2.478,10.048,2.645,15.2c0.189,5.814-0.541,11.425-2.172,16.679c-1.831,5.907-4.775,11.243-8.753,15.862
	c-4.434,5.15-10.164,9.41-17.035,12.664L40.203,76.116z"/>
<path fill="#D71921" d="M64.25,16.477c-8.752-3.389-16.327-4.968-23.807-4.968c-0.273,0-0.55,0.017-0.825,0.021v62.688
	c0.13,0.064,0.25,0.134,0.381,0.196C69.212,60.368,69.044,31.589,64.25,16.477z"/>
<path fill="#EC1C24" d="M39.944,74.386V11.522c-7.293,0.067-14.795,1.6-24.198,4.966C10.961,31.594,10.797,60.333,39.944,74.386z"/>
<path fill="#231F20" d="M23.292,47.869h-4.857l-1.714-13.151h4.509l0.656,7.371l3.77-7.371h4.912L23.292,47.869z"/>
<path fill="#FFFFFF" d="M32.542,35.369h3.973l1.936,11.851h-3.192l-0.322-2.531h-4.602l-1.409,2.531h-3.429L32.542,35.369z
	 M34.121,37.814h-0.034l-2.513,4.635h3.056L34.121,37.814z"/>
<path fill="#231F20" d="M39.215,47.869h-4.528l-0.322-2.529h-3.648l-1.409,2.529h-4.952l7.818-13.151h4.895L39.215,47.869z"/>
<path fill="#FFFFFF" d="M43.723,35.369h7.928l-0.441,2.241h-4.822l-0.594,2.598h4.655l-0.459,2.241h-4.588l-1.002,4.771h-3.19
	L43.723,35.369L43.723,35.369z"/>
<path fill="#231F20" d="M44.928,47.869h-4.521l2.788-13.151h9.245l-0.697,3.54h-4.839l-0.297,1.299h4.632l-0.725,3.54H45.93
	L44.928,47.869L44.928,47.869z"/>
<path fill="#FFFFFF" d="M62.535,38.22c-1.005-0.577-1.952-0.712-2.956-0.712c-3.174,0-4.449,2.241-4.449,4.482
	c0,2.106,1.341,3.09,3.246,3.09c1.138,0,2.173-0.237,3.005-0.662l-0.343,2.546c-0.762,0.258-2.086,0.46-3.157,0.46
	c-3.821,0-6.011-2.259-6.011-5.519c0-3.939,2.769-6.74,7.216-6.74c2.275,0,3.547,0.391,4.195,0.629L62.535,38.22z"/>
<path fill="#231F20" d="M57.883,48.072c-4.045,0-6.658-2.421-6.658-6.167c0-4.419,3.158-7.389,7.863-7.389
	c1.755,0,3.198,0.218,4.419,0.668l0.576,0.213l-1.167,3.793l-0.706-0.406c-0.771-0.445-1.531-0.625-2.631-0.625
	c-3.523,0-3.797,2.933-3.797,3.833c0,2.017,1.41,2.44,2.596,2.44c1.012,0,1.949-0.207,2.709-0.591l1.103-0.563l-0.56,4.176
	l-0.384,0.127C60.391,47.865,58.975,48.072,57.883,48.072z"/>
<polygon fill="#FFFFFF" points="22.91,47.22 19.005,47.22 17.461,35.369 20.634,35.369 21.432,44.334 21.466,44.334 26.051,35.369 
	29.463,35.369 "/>
<polygon fill="#FFFFFF" points="23.07,47.489 18.767,47.489 17.152,35.098 20.882,35.098 21.624,43.431 25.885,35.098 
	29.922,35.098 "/>
<polygon fill="#FFFFFF" points="32.542,35.369 36.515,35.369 38.451,47.22 35.259,47.22 34.937,44.688 30.335,44.688 28.926,47.22 
	25.497,47.22 "/>
<polygon fill="#FFFFFF" points="38.769,47.489 35.021,47.489 34.698,44.958 30.494,44.958 29.085,47.489 25.02,47.489 
	32.388,35.098 36.745,35.098 "/>
<polygon fill="#FFFFFF" points="43.723,35.369 51.65,35.369 51.209,37.61 46.387,37.61 45.793,40.208 50.446,40.208 49.988,42.449 
	45.401,42.449 44.399,47.22 41.209,47.22 "/>
<polygon fill="#FFFFFF" points="44.619,47.489 40.875,47.489 43.501,35.098 51.979,35.098 51.431,37.881 46.603,37.881 
	46.131,39.937 50.775,39.937 50.207,42.719 45.622,42.719 "/>
<path fill="#FFFFFF" d="M62.535,38.22c-1.005-0.577-1.952-0.712-2.956-0.712c-3.174,0-4.449,2.241-4.449,4.482
	c0,2.106,1.341,3.09,3.246,3.09c1.138,0,2.173-0.237,3.005-0.662l-0.343,2.546c-0.762,0.258-2.086,0.46-3.157,0.46
	c-3.821,0-6.011-2.259-6.011-5.519c0-3.939,2.769-6.74,7.216-6.74c2.275,0,3.547,0.391,4.195,0.629L62.535,38.22z"/>
<path fill="#FFFFFF" d="M57.883,47.693c-3.816,0-6.28-2.273-6.28-5.789c0-4.193,3.008-7.011,7.485-7.011
	c1.708,0,3.11,0.212,4.288,0.646l0.24,0.089l-0.921,2.997L62.4,38.457c-1.035-0.597-2.005-0.678-2.821-0.678
	c-3.077,0-4.177,2.175-4.177,4.211c0,2.454,1.862,2.818,2.976,2.818c1.073,0,2.07-0.218,2.884-0.633l0.458-0.234l-0.433,3.226
	l-0.161,0.054C60.306,47.494,58.94,47.693,57.883,47.693z"/>
<g>
	<path fill="#FFFFFF" d="M16.241,17.381c-0.326,0.758-2.274,10.715-2.057,12.23c2.164-9.199,5.52-11.041,7.36-12.447l3.679-2.813
		C22.518,15.108,16.241,16.949,16.241,17.381z"/>
	<path fill="#FFFFFF" d="M64.046,23.603c-0.321-0.356-1.256-0.858-1.773-1.053c-0.516-0.196-0.826-0.7-1.135-0.907
		c-0.307-0.206-0.546-0.523-0.546-0.523l-0.504-0.967c-0.585-0.44-1.85-1.535-4.086-1.443c-2.233,0.094-4.097,0.884-5.328,1.009
		c0,0,2.635,0.059,1.191,0.425c-4.251-0.046-20.38,3.293-26.014,13.396c0,0,0.004-0.003,0.005-0.003l4.782,0.006
		c6.616-11.509,18.855-11.524,21.835-11.136l0.222,0.056l0.258,0.09l0.712,0.635c1.242,0.923,3.938,0.42,5.038,0.431
		c1.098,0.012,2.609,0.061,3.573,0.208c0.965,0.147,1.644,0.537,1.774,0.399C64.181,24.091,64.046,23.603,64.046,23.603z"/>
	<path fill="#FFFFFF" d="M39.929,72.78c0,0,11.779-7.053,15.883-12.256c-0.661,0.661-10.831,8.528-15.833,9.979L39.929,72.78z"/>
</g>
<g>
	<path d="M63.873,24.043c-0.068-0.054-0.431-0.28-0.733-0.38c-0.306-0.1-0.777-0.191-1.328-0.241
		c-0.548-0.051-2.645-0.819-2.953-1.137c0.078-0.064,0.11-0.133,0.276-0.384c0.167-0.249,0.28-1.226,0.321-1.415
		c0.043-0.188,0.197-0.031,0.344,0.2c0.147,0.231,0.639,0.396,0.639,0.396l0.153,0.036c0-0.001,0.022-0.262-0.025-0.41
		c-0.065-0.21-0.521-0.625-0.521-0.625l-0.403-0.302l-0.253-0.166l-0.068-0.03c0,0-0.682-0.158-0.935-0.037l-0.696,0.248
		c0,0-0.053-0.011-0.117-0.037l0.201-0.128l0.301-0.141l-0.624-0.032l-0.587-0.174l-0.76,0.435c0,0,0.793-0.241,1.006-0.197
		c0.131,0.027,0.258,0.114,0.341,0.18c-0.118-0.074-0.526,0.05-0.601,0.113c-0.08,0.066-0.425,0.094-0.425,0.094l0.257,0.108
		c0,0,0.063,0.126,0.217,0.26c0.158,0.135,0.469,0.139,0.563,0.195c0.087,0.058,0.69,0.569,0.807,0.917
		c0.112,0.348,0.313,1.281,0.35,1.428c0.033,0.148,0.407,0.808,0.407,0.808l1.295,0.046l0.979,0.054l0.72,0.078l0.725,0.143
		l0.619,0.172l0.572,0.166l0.167-0.037L63.873,24.043z"/>
	<polygon points="60.946,22.356 61.067,22.342 61.058,22.198 60.078,21.313 	"/>
</g>
<polygon fill="#231F20" points="34.121,37.814 34.087,37.814 31.574,42.449 34.63,42.449 "/>
<polygon fill="#EC1C24" points="32.029,42.178 34.329,42.178 33.941,38.651 "/>
</svg>
